<svg class="icon" viewBox="0 0 72 72" fill="none" xmlns="http://www.w3.org/2000/svg">
  <g clip-path="url(#clip0)">
    <rect y="9" width="64.8" height="43.74" rx="5.4" fill="#F4F5F7"/>
    <mask id="mask0" mask-type="alpha" maskUnits="userSpaceOnUse" x="0" y="9" width="65" height="44">
      <rect y="9" width="64.8" height="43.74" rx="5.4" fill="#F4F5F7"/>
    </mask>
    <g mask="url(#mask0)">
      <path d="M64.8 52.74V9L0 52.74H64.8Z" fill="url(#paint0_linear)"/>
    </g>
    <path fill-rule="evenodd" clip-rule="evenodd" d="M14.7979 17.0999C15.7214 17.0999 16.4701 17.8485 16.4701 18.7721V20.8623H19.8146C20.7381 20.8623 21.4868 21.611 21.4868 22.5346C21.4868 23.4581 20.7381 24.2068 19.8146 24.2068H14.8158L14.7979 24.2069L14.7799 24.2068H12.7727C12.7283 24.2068 12.6839 24.2051 12.6396 24.2015C12.4799 24.1888 12.3193 24.2109 12.1689 24.2662C12.0186 24.3216 11.882 24.409 11.7687 24.5223C11.6554 24.6356 11.5681 24.7721 11.5127 24.9225C11.4573 25.0728 11.4352 25.2334 11.448 25.3932C11.4515 25.4374 11.4533 25.4818 11.4533 25.5262C11.4533 25.5237 11.4535 25.5244 11.4546 25.5283C11.4656 25.5659 11.5623 25.8989 12.3892 26.5561C13.2123 27.2102 14.3463 27.8688 15.6334 28.6112L15.701 28.6502L15.701 28.6502C16.9052 29.3447 18.2486 30.1196 19.2873 30.945C20.2515 31.7113 21.4788 32.9189 21.4868 34.5769C21.4962 35.1917 21.3825 35.8021 21.1524 36.3723C20.9205 36.947 20.5752 37.4691 20.137 37.9073C19.6988 38.3455 19.1767 38.6908 18.602 38.9227C18.0326 39.1525 17.4231 39.2661 16.8092 39.2571H16.4701V41.3477C16.4701 42.2712 15.7214 43.0199 14.7979 43.0199C13.8743 43.0199 13.1256 42.2712 13.1256 41.3477V39.2571H9.78105C8.85749 39.2571 8.10879 38.5084 8.10879 37.5849C8.10879 36.6613 8.85749 35.9126 9.78105 35.9126H16.8229L16.8536 35.9129C17.0238 35.916 17.1928 35.8848 17.3506 35.8212C17.5084 35.7575 17.6517 35.6627 17.772 35.5423C17.8924 35.422 17.9872 35.2787 18.0509 35.1209C18.1145 34.9631 18.1457 34.7941 18.1426 34.624L18.1423 34.5932C18.1423 34.5943 18.1423 34.5948 18.1421 34.5947C18.142 34.5945 18.1416 34.5933 18.141 34.5911C18.1301 34.5535 18.0333 34.2206 17.2064 33.5634C16.3833 32.9092 15.2493 32.2507 13.9622 31.5083L13.8947 31.4693L13.8946 31.4693L13.8946 31.4692C12.6904 30.7747 11.347 29.9999 10.3084 29.1744C9.35461 28.4165 8.14347 27.2268 8.10952 25.5964C8.06875 24.9749 8.15885 24.3516 8.37425 23.7667C8.59692 23.162 8.9482 22.6129 9.4038 22.1573C9.85941 21.7017 10.4085 21.3505 11.0131 21.1278C11.5945 20.9137 12.2138 20.8234 12.8315 20.8623H13.1256V18.7721C13.1256 17.8485 13.8743 17.0999 14.7979 17.0999Z" fill="#19194B"/>
    <rect x="27.54" y="28.4399" width="17.82" height="3.24" rx="1.62" fill="#19194B"/>
    <rect x="46.9799" y="28.4399" width="11.34" height="3.24" rx="1.62" fill="#19194B"/>
    <rect x="27.54" y="21.96" width="14.58" height="3.24" rx="1.62" fill="#19194B"/>
    <rect x="27.54" y="34.9202" width="6.48" height="3.24" rx="1.62" fill="#7A869A"/>
    <rect x="35.64" y="34.9202" width="6.48" height="3.24" rx="1.62" fill="#7A869A"/>
    <path d="M57.5999 63.3601C60.1632 63.3601 62.6689 62.6 64.8001 61.176C66.9314 59.7519 68.5925 57.7278 69.5734 55.3597C70.5543 52.9916 70.811 50.3857 70.3109 47.8717C69.8108 45.3578 68.5765 43.0485 66.764 41.236C64.9516 39.4235 62.6423 38.1892 60.1283 37.6891C57.6143 37.1891 55.0085 37.4457 52.6404 38.4266C50.2722 39.4076 48.2482 41.0687 46.8241 43.1999C45.4 45.3312 44.6399 47.8369 44.6399 50.4001C44.6437 53.8362 46.0103 57.1304 48.4399 59.5601C50.8696 61.9898 54.1639 63.3564 57.5999 63.3601ZM51.9764 48.5576C51.9764 48.5569 51.9767 48.5563 51.9772 48.5558L56.8364 43.6966C57.0389 43.4941 57.3136 43.3803 57.5999 43.3803C57.8863 43.3803 58.161 43.4941 58.3635 43.6966L63.2235 48.5566C63.4202 48.7602 63.5291 49.0331 63.5266 49.3162C63.5242 49.5994 63.4106 49.8703 63.2103 50.0705C63.0101 50.2708 62.7392 50.3843 62.4561 50.3868C62.1729 50.3893 61.9001 50.2804 61.6964 50.0837L59.1411 47.5284C59.1032 47.4904 59.0549 47.4646 59.0022 47.4542C58.9496 47.4438 58.895 47.4493 58.8455 47.4701C58.7961 47.4908 58.7539 47.5258 58.7244 47.5706C58.6949 47.6155 58.6794 47.6681 58.6799 47.7217L58.6799 56.8801C58.6799 57.1665 58.5662 57.4412 58.3636 57.6438C58.1611 57.8463 57.8864 57.9601 57.5999 57.9601C57.3135 57.9601 57.0388 57.8463 56.8363 57.6438C56.6337 57.4412 56.5199 57.1665 56.5199 56.8801L56.5199 47.7217C56.52 47.6682 56.5043 47.6159 56.4746 47.5715C56.4449 47.527 56.4027 47.4923 56.3533 47.4718C56.3039 47.4513 56.2496 47.446 56.1971 47.4564C56.1447 47.4669 56.0965 47.4927 56.0588 47.5306L53.5035 50.0858C53.2998 50.2826 53.027 50.3914 52.7438 50.389C52.4607 50.3865 52.1898 50.2729 51.9895 50.0727C51.7893 49.8724 51.6757 49.6016 51.6733 49.3184C51.6708 49.0356 51.7794 48.7631 51.9756 48.5595C51.9761 48.559 51.9764 48.5583 51.9764 48.5576Z" fill="url(#paint1_linear)"/>
    <path d="M56.8364 43.6969L51.9772 48.5561C51.9767 48.5566 51.9764 48.5573 51.9764 48.558C51.9764 48.5587 51.9761 48.5593 51.9756 48.5598C51.7794 48.7634 51.6708 49.0359 51.6733 49.3187C51.6757 49.6019 51.7893 49.8728 51.9895 50.073C52.1898 50.2733 52.4607 50.3868 52.7438 50.3893C53.027 50.3918 53.2998 50.2829 53.5035 50.0862L56.0588 47.5309C56.0966 47.493 56.1447 47.4672 56.1971 47.4568C56.2496 47.4463 56.3039 47.4517 56.3533 47.4722C56.4027 47.4926 56.4449 47.5273 56.4746 47.5718C56.5043 47.6163 56.52 47.6686 56.5199 47.7221L56.5199 56.8804C56.5199 57.1669 56.6337 57.4416 56.8363 57.6441C57.0388 57.8467 57.3135 57.9604 57.5999 57.9604C57.8864 57.9604 58.1611 57.8467 58.3636 57.6441C58.5662 57.4416 58.6799 57.1669 58.6799 56.8805L58.6799 47.7221C58.6794 47.6684 58.6949 47.6158 58.7244 47.571C58.7539 47.5262 58.7961 47.4911 58.8455 47.4704C58.895 47.4497 58.9496 47.4441 59.0022 47.4545C59.0549 47.4649 59.1032 47.4907 59.1411 47.5287L61.6964 50.084C61.9001 50.2807 62.1729 50.3896 62.4561 50.3871C62.7392 50.3847 63.0101 50.2711 63.2103 50.0709C63.4106 49.8706 63.5242 49.5997 63.5266 49.3166C63.5291 49.0334 63.4202 48.7606 63.2235 48.5569L58.3635 43.6969C58.161 43.4944 57.8863 43.3807 57.5999 43.3807C57.3136 43.3807 57.0389 43.4944 56.8364 43.6969Z" fill="white"/>
  </g>
  <defs>
    <linearGradient id="paint0_linear" x1="36.45" y1="7.38" x2="25.92" y2="54.36" gradientUnits="userSpaceOnUse">
      <stop stop-color="#EBECF0"/>
      <stop offset="1" stop-color="#EBECF0" stop-opacity="0"/>
    </linearGradient>
    <linearGradient id="paint1_linear" x1="57.5999" y1="63.3601" x2="57.5999" y2="28.5301" gradientUnits="userSpaceOnUse">
      <stop stop-color="#00A0DF"/>
      <stop offset="1" stop-color="#66C6EC"/>
    </linearGradient>
    <clipPath id="clip0">
      <rect width="72" height="72" fill="white"/>
    </clipPath>
  </defs>
</svg>
