<svg class="icon" viewBox="0 0 32 32" fill="none" xmlns="http://www.w3.org/2000/svg">
<g clip-path="url(#antenna-microillustration-clip0_8359_579)">
<path d="M17.3887 15.938C18.2694 15.6122 19.0075 14.987 19.4738 14.1718C19.9401 13.3567 20.1049 12.4036 19.9394 11.4792C19.7739 10.5548 19.2886 9.71807 18.5684 9.1154C17.8482 8.51272 16.939 8.1825 16 8.1825C15.0609 8.1825 14.1517 8.51272 13.4315 9.1154C12.7114 9.71807 12.226 10.5548 12.0605 11.4792C11.895 12.4036 12.0598 13.3567 12.5261 14.1718C12.9924 14.987 13.7305 15.6122 14.6112 15.938L9.40985 30.2428C9.33595 30.4445 9.31186 30.6611 9.33961 30.8741C9.36737 31.0871 9.44616 31.2903 9.56927 31.4663C9.69239 31.6424 9.8562 31.7861 10.0468 31.8852C10.2373 31.9844 10.449 32.036 10.6638 32.0358H21.3361C21.5506 32.0359 21.7619 31.9842 21.9522 31.8852C22.1425 31.7862 22.3061 31.6428 22.4291 31.4671C22.5522 31.2914 22.6311 31.0887 22.6591 30.876C22.6871 30.6633 22.6634 30.4471 22.5901 30.2455L17.3887 15.938Z" fill="url(#antenna-microillustration-paint0_linear_8359_579)"/>
<path d="M27.1245 0.407264C27.0015 0.279851 26.8543 0.178221 26.6915 0.108306C26.5287 0.0383905 26.3537 0.0015896 26.1766 5.03687e-05C25.9994 -0.00148886 25.8238 0.0322644 25.6598 0.0993408C25.4959 0.166417 25.3469 0.265473 25.2217 0.390729C25.0964 0.515985 24.9973 0.664932 24.9303 0.82888C24.8632 0.992828 24.8294 1.16849 24.831 1.34562C24.8325 1.52276 24.8693 1.69781 24.9392 1.86057C25.0092 2.02332 25.1108 2.17053 25.2382 2.29359C27.8605 4.92311 29.3331 8.48517 29.3331 12.1988C29.3331 15.9124 27.8605 19.4744 25.2382 22.104C25.1108 22.227 25.0092 22.3742 24.9392 22.537C24.8693 22.6997 24.8325 22.8748 24.831 23.0519C24.8294 23.2291 24.8632 23.4047 24.9303 23.5687C24.9973 23.7326 25.0964 23.8816 25.2217 24.0068C25.3469 24.1321 25.4959 24.2311 25.6598 24.2982C25.8238 24.3653 25.9994 24.399 26.1766 24.3975C26.3537 24.396 26.5287 24.3592 26.6915 24.2892C26.8543 24.2193 27.0015 24.1177 27.1245 23.9903C30.2467 20.8603 32 16.6197 32 12.1988C32 7.77781 30.2467 3.5373 27.1245 0.407264Z" fill="url(#antenna-microillustration-paint1_linear_8359_579)"/>
<path d="M6.76183 2.29352C7.00484 2.04191 7.1393 1.70493 7.13626 1.35516C7.13322 1.00538 6.99292 0.670784 6.74558 0.423444C6.49824 0.176104 6.16365 0.0358048 5.81387 0.0327653C5.46409 0.0297258 5.12711 0.164189 4.87551 0.407194C1.75335 3.53722 0 7.77774 0 12.1987C0 16.6197 1.75335 20.8602 4.87551 23.9902C4.99857 24.1176 5.14577 24.2193 5.30853 24.2892C5.47129 24.3591 5.64634 24.3959 5.82347 24.3974C6.0006 24.399 6.17627 24.3652 6.34022 24.2981C6.50416 24.2311 6.65311 24.132 6.77837 24.0068C6.90362 23.8815 7.00268 23.7325 7.06976 23.5686C7.13683 23.4047 7.17059 23.229 7.16905 23.0519C7.16751 22.8747 7.13071 22.6997 7.06079 22.5369C6.99088 22.3742 6.88925 22.227 6.76183 22.1039C4.13953 19.4744 2.66694 15.9123 2.66694 12.1987C2.66694 8.4851 4.13953 4.92304 6.76183 2.29352Z" fill="url(#antenna-microillustration-paint2_linear_8359_579)"/>
<path d="M22.7408 5.12448C22.4892 4.88147 22.1523 4.74701 21.8025 4.75005C21.4527 4.75309 21.1181 4.89339 20.8708 5.14073C20.6234 5.38807 20.4831 5.72266 20.4801 6.07244C20.4771 6.42222 20.6115 6.7592 20.8545 7.0108C22.2304 8.38678 23.0034 10.253 23.0034 12.1989C23.0034 14.1447 22.2304 16.0109 20.8545 17.3869C20.6115 17.6385 20.4771 17.9755 20.4801 18.3253C20.4831 18.675 20.6234 19.0096 20.8708 19.257C21.1181 19.5043 21.4527 19.6446 21.8025 19.6477C22.1523 19.6507 22.4892 19.5162 22.7408 19.2732C24.6169 17.3969 25.6709 14.8522 25.6709 12.1989C25.6709 9.54549 24.6169 7.00079 22.7408 5.12448Z" fill="url(#antenna-microillustration-paint3_linear_8359_579)"/>
<path d="M11.1454 19.2732C11.3955 19.0231 11.536 18.6838 11.536 18.3301C11.536 17.9763 11.3955 17.6371 11.1454 17.3869C9.76951 16.0109 8.99654 14.1447 8.99654 12.1989C8.99654 10.253 9.76951 8.38678 11.1454 7.0108C11.3884 6.7592 11.5229 6.42222 11.5199 6.07244C11.5168 5.72266 11.3765 5.38807 11.1292 5.14073C10.8818 4.89339 10.5472 4.75309 10.1975 4.75005C9.84769 4.74701 9.51071 4.88147 9.25911 5.12448C7.38301 7.00079 6.32904 9.54549 6.32904 12.1989C6.32904 14.8522 7.38301 17.3969 9.25911 19.2732C9.50927 19.5233 9.84853 19.6638 10.2023 19.6638C10.556 19.6638 10.8953 19.5233 11.1454 19.2732Z" fill="url(#antenna-microillustration-paint4_linear_8359_579)"/>
</g>
<defs>
<linearGradient id="antenna-microillustration-paint0_linear_8359_579" x1="16.0001" y1="62.0009" x2="35.1867" y2="19.0771" gradientUnits="userSpaceOnUse">
<stop stop-color="#42526E"/>
<stop offset="1" stop-color="#AAB5C7"/>
</linearGradient>
<linearGradient id="antenna-microillustration-paint1_linear_8359_579" x1="33.3272" y1="13.4962" x2="23.4775" y2="13.5066" gradientUnits="userSpaceOnUse">
<stop stop-color="#66C6EC"/>
<stop offset="1" stop-color="#00A0DF"/>
</linearGradient>
<linearGradient id="antenna-microillustration-paint2_linear_8359_579" x1="8.49625" y1="13.5108" x2="-1.82994" y2="13.5108" gradientUnits="userSpaceOnUse">
<stop stop-color="#00A0DF"/>
<stop offset="1" stop-color="#66C6EC"/>
</linearGradient>
<linearGradient id="antenna-microillustration-paint3_linear_8359_579" x1="26.6319" y1="12.9911" x2="19.5001" y2="13" gradientUnits="userSpaceOnUse">
<stop stop-color="#66C6EC"/>
<stop offset="1" stop-color="#00A0DF"/>
</linearGradient>
<linearGradient id="antenna-microillustration-paint4_linear_8359_579" x1="12.4999" y1="13" x2="4.99994" y2="13" gradientUnits="userSpaceOnUse">
<stop stop-color="#00A0DF"/>
<stop offset="1" stop-color="#66C6EC"/>
</linearGradient>
<clipPath id="antenna-microillustration-clip0_8359_579">
<rect width="32" height="32" fill="white"/>
</clipPath>
</defs>
</svg>
