<svg class="icon"
     width="24"
     height="24"
     viewBox="0 0 24 24"
     fill="none"
     xmlns="http://www.w3.org/2000/svg"
>
  <path d="M12 24C14.3734 24 16.6934 23.2962 18.6668 21.9776C20.6402 20.6591 22.1783 18.7849 23.0865 16.5922C23.9948 14.3995 24.2324 11.9867 23.7694 9.65892C23.3064 7.33115 22.1635 5.19295 20.4853 3.51472C18.807 1.83649 16.6689 0.693603 14.3411 0.23058C12.0133 -0.232442 9.60051 0.00519817 7.4078 0.913449C5.21508 1.8217 3.34094 3.35977 2.02236 5.33316C0.703786 7.30655 -2.55814e-06 9.62662 -2.76562e-06 12C0.00343781 15.1815 1.26882 18.2318 3.51851 20.4815C5.76821 22.7312 8.81845 23.9966 12 24V24ZM6.793 10.293L11.293 5.793C11.4805 5.60553 11.7348 5.50022 12 5.50022C12.2652 5.50022 12.5195 5.60553 12.707 5.793L17.207 10.293C17.3892 10.4816 17.4899 10.7342 17.4877 10.9964C17.4854 11.2586 17.3802 11.5094 17.1948 11.6948C17.0094 11.8802 16.7586 11.9854 16.4964 11.9877C16.2342 11.99 15.9816 11.8892 15.793 11.707L13.427 9.341C13.3919 9.30582 13.3471 9.2819 13.2984 9.27228C13.2497 9.26265 13.1992 9.26777 13.1533 9.28698C13.1075 9.30619 13.0685 9.33861 13.0411 9.38012C13.0138 9.42162 12.9995 9.47032 13 9.52L13 18C13 18.2652 12.8946 18.5196 12.7071 18.7071C12.5196 18.8946 12.2652 19 12 19C11.7348 19 11.4804 18.8946 11.2929 18.7071C11.1054 18.5196 11 18.2652 11 18L11 9.52C11.0001 9.47049 10.9855 9.42207 10.958 9.38088C10.9305 9.33968 10.8915 9.30757 10.8457 9.28861C10.8 9.26965 10.7497 9.2647 10.7011 9.27438C10.6525 9.28407 10.608 9.30795 10.573 9.343L8.207 11.709C8.01839 11.8912 7.76579 11.992 7.5036 11.9897C7.2414 11.9874 6.99059 11.8822 6.80518 11.6968C6.61977 11.5114 6.5146 11.2606 6.51232 10.9984C6.51004 10.7362 6.61084 10.4836 6.793 10.295L6.793 10.293Z"
        fill="#00A0DF"
  />
</svg>
