<svg class="icon" viewBox="0 0 48 48" fill="none" xmlns="http://www.w3.org/2000/svg">
  <path
    d="M4 17C4 14.7909 5.79086 13 8 13H40C42.2091 13 44 14.7909 44 17V38C44 40.2091 42.2091 42 40 42H8C5.79086 42 4 40.2091 4 38V17Z"
    fill="url(#paint0_linear)" />
  <g filter="url(#filter0_d)">
    <path
      d="M4 10C4 7.79086 5.79086 6 8 6H40C42.2091 6 44 7.79086 44 10V30C44 32.2091 42.2091 34 40 34H8C5.79086 34 4 32.2091 4 30V10Z"
      fill="url(#paint1_linear)" />
  </g>
  <rect x="6" y="11" width="4" height="4" rx="1.5" fill="url(#paint2_linear)" />
  <rect x="6" y="18" width="4" height="4" rx="1.5" fill="url(#paint3_linear)" />
  <rect x="6" y="25" width="4" height="4" rx="1.5" fill="url(#paint4_linear)" />
  <rect x="38" y="11" width="4" height="4" rx="1.5" fill="url(#paint5_linear)" />
  <rect x="38" y="18" width="4" height="4" rx="1.5" fill="url(#paint6_linear)" />
  <rect x="38" y="25" width="4" height="4" rx="1.5" fill="url(#paint7_linear)" />
  <rect x="12" y="8" width="24" height="24" rx="4" fill="#19194B" />
  <rect x="12.9231" y="9" width="22.1538" height="22" rx="3" fill="white" />
  <rect opacity="0.4" x="12.9231" y="9" width="22.1538" height="22" rx="3" fill="#99D9F2" />
  <g opacity="0.4">
    <mask id="mask0" mask-type="alpha" maskUnits="userSpaceOnUse" x="12" y="9" width="24" height="22">
      <rect x="12.9231" y="9" width="22.1538" height="22" rx="3" fill="#99D9F2" />
    </mask>
    <g mask="url(#mask0)">
      <path opacity="0.5" d="M12.9231 31L35.0769 9L35.0769 31L12.9231 31Z" fill="url(#paint8_linear)" />
    </g>
  </g>
  <rect opacity="0.64" x="6" y="36" width="22" height="4" rx="2" fill="#F4F5F7" />
  <rect x="7" y="37" width="20" height="2" rx="1" fill="#ACB3C0" />
  <rect opacity="0.64" x="30" y="36" width="12" height="4" rx="2" fill="#F4F5F7" />
  <rect x="31" y="37" width="10" height="2" rx="1" fill="#ACB3C0" />
  <defs>
    <filter id="filter0_d" x="0" y="4" width="48" height="36" filterUnits="userSpaceOnUse"
      color-interpolation-filters="sRGB">
      <feFlood flood-opacity="0" result="BackgroundImageFix" />
      <feColorMatrix in="SourceAlpha" type="matrix" values="0 0 0 0 0 0 0 0 0 0 0 0 0 0 0 0 0 0 127 0" />
      <feOffset dy="2" />
      <feGaussianBlur stdDeviation="2" />
      <feColorMatrix type="matrix" values="0 0 0 0 0 0 0 0 0 0 0 0 0 0 0 0 0 0 0.1 0" />
      <feBlend mode="normal" in2="BackgroundImageFix" result="effect1_dropShadow" />
      <feBlend mode="normal" in="SourceGraphic" in2="effect1_dropShadow" result="shape" />
    </filter>
    <linearGradient id="paint0_linear" x1="24" y1="13" x2="24" y2="47.8" gradientUnits="userSpaceOnUse">
      <stop stop-color="#F4F5F7" />
      <stop offset="1" stop-color="#DFE1E6" />
    </linearGradient>
    <linearGradient id="paint1_linear" x1="24" y1="6" x2="24" y2="39.6" gradientUnits="userSpaceOnUse">
      <stop stop-color="#F4F5F7" />
      <stop offset="1" stop-color="#DFE1E6" />
    </linearGradient>
    <linearGradient id="paint2_linear" x1="8" y1="11" x2="8" y2="20.7143" gradientUnits="userSpaceOnUse">
      <stop stop-color="#00A0DF" />
      <stop offset="1" stop-color="#007CBF" />
    </linearGradient>
    <linearGradient id="paint3_linear" x1="8" y1="18" x2="8" y2="27.7143" gradientUnits="userSpaceOnUse">
      <stop stop-color="#00A0DF" />
      <stop offset="1" stop-color="#007CBF" />
    </linearGradient>
    <linearGradient id="paint4_linear" x1="8" y1="25" x2="8" y2="34.7143" gradientUnits="userSpaceOnUse">
      <stop stop-color="#00A0DF" />
      <stop offset="1" stop-color="#007CBF" />
    </linearGradient>
    <linearGradient id="paint5_linear" x1="40" y1="11" x2="40" y2="20.7143" gradientUnits="userSpaceOnUse">
      <stop stop-color="#00A0DF" />
      <stop offset="1" stop-color="#007CBF" />
    </linearGradient>
    <linearGradient id="paint6_linear" x1="40" y1="18" x2="40" y2="27.7143" gradientUnits="userSpaceOnUse">
      <stop stop-color="#00A0DF" />
      <stop offset="1" stop-color="#007CBF" />
    </linearGradient>
    <linearGradient id="paint7_linear" x1="40" y1="25" x2="40" y2="34.7143" gradientUnits="userSpaceOnUse">
      <stop stop-color="#00A0DF" />
      <stop offset="1" stop-color="#007CBF" />
    </linearGradient>
    <linearGradient id="paint8_linear" x1="24" y1="9.78571" x2="22.7717" y2="33.0058" gradientUnits="userSpaceOnUse">
      <stop stop-color="#33B3E5" />
      <stop offset="1" stop-color="#99D9F2" stop-opacity="0" />
    </linearGradient>
  </defs>
</svg>