<svg class="icon" viewBox="0 0 32 32" fill="none" xmlns="http://www.w3.org/2000/svg">
<path d="M0 3.2C0 1.43269 1.43269 0 3.2 0H28.8C30.5673 0 32 1.43269 32 3.2V6.4C32 8.16731 30.5673 9.6 28.8 9.6H3.2C1.43269 9.6 0 8.16731 0 6.4V3.2Z" fill="#DFE1E6"/>
<path opacity="0.5" d="M3.2 4.80001C3.2 3.91636 3.91634 3.20001 4.8 3.20001H27.2C28.0837 3.20001 28.8 3.91636 28.8 4.80001C28.8 5.68367 28.0837 6.40001 27.2 6.40001H4.8C3.91634 6.40001 3.2 5.68367 3.2 4.80001Z" fill="#7A869A"/>
<path d="M6.30199 8.58805C6.66631 6.40213 8.55757 4.79999 10.7736 4.79999H21.2264C23.4424 4.79999 25.3337 6.40213 25.698 8.58805L28.7202 26.7214C29.1808 29.4846 27.0499 32 24.2486 32H7.75142C4.95009 32 2.81923 29.4846 3.27977 26.7214L6.30199 8.58805Z" fill="url(#atm-cash-paint0_linear_31629_2345)"/>
<path d="M9.4577 10.3249C9.67865 8.92309 10.8101 7.95001 12.075 7.95001H19.925C21.1899 7.95001 22.3214 8.92309 22.5423 10.3249L24.812 24.7249C25.0938 26.5131 23.7894 28.05 22.1946 28.05H9.80536C8.21063 28.05 6.90618 26.5131 7.18802 24.7249L9.4577 10.3249Z" fill="url(#atm-cash-paint1_linear_31629_2345)" stroke="#4ABE6B" stroke-width="1.5"/>
<path d="M20.2896 18.0763C20.166 18.8234 19.7704 19.4397 19.177 19.7572C19.0534 19.8132 18.9298 19.8506 18.7815 19.8506C18.4106 19.8506 18.1139 19.6265 18.1139 19.3463C18.1139 19.2156 18.2128 19.0848 18.3859 18.9541C18.7567 18.6553 19.0534 18.1697 19.0534 17.6467C19.0534 16.8623 18.5589 16.5821 18.0645 16.5821C16.4327 16.5821 17.1991 20 14.1086 20C12.7488 20 11.8587 19.3463 11.6856 18.095L10.9934 18.095C10.672 18.095 10.4 17.8895 10.4 17.6467C10.4 17.4039 10.672 17.2171 10.9934 17.2171L11.6856 17.2171C11.834 16.302 12.4768 15.5922 13.1691 15.2747C13.268 15.2374 13.3916 15.2 13.5152 15.2C13.8861 15.2 14.1828 15.4241 14.1828 15.7043C14.1828 15.9097 14.0344 16.0218 13.9108 16.1152C13.3916 16.5074 12.9713 17.0117 12.9713 17.6467C12.9713 18.5058 13.3422 18.9167 14.1086 18.9167C15.9135 18.9167 15.0976 15.4988 18.0645 15.4988C19.177 15.4988 20.1166 16.0218 20.2896 17.2171L21.0066 17.2171C21.328 17.2171 21.6 17.4226 21.6 17.6467C21.6 17.8895 21.328 18.095 21.0066 18.095L20.2896 18.095L20.2896 18.0763Z" fill="#20804E"/>
<defs>
<linearGradient id="atm-cash-paint0_linear_31629_2345" x1="16" y1="4.79999" x2="16" y2="52.4" gradientUnits="userSpaceOnUse">
<stop stop-color="#66DE7D"/>
<stop offset="1" stop-color="#4ABE6B"/>
</linearGradient>
<linearGradient id="atm-cash-paint1_linear_31629_2345" x1="16" y1="7.20001" x2="16" y2="45" gradientUnits="userSpaceOnUse">
<stop stop-color="#66DE7D"/>
<stop offset="1" stop-color="#4ABE6B"/>
</linearGradient>
</defs>
</svg>
