<svg class="icon"
     width="24"
     height="24"
     viewBox="0 0 24 24"
     fill="none"
     xmlns="http://www.w3.org/2000/svg"
>
  <path d="M13.3203 3.67538C13.506 3.88635 13.6003 4.16243 13.5824 4.44289C13.5645 4.72336 13.436 4.98524 13.2251 5.17096L6.87674 10.7573C6.84841 10.7826 6.82842 10.816 6.81941 10.8529C6.8104 10.8899 6.81279 10.9287 6.82627 10.9642C6.83975 10.9998 6.86368 11.0304 6.89491 11.0521C6.92615 11.0738 6.96322 11.0856 7.00124 11.0858L19.9409 11.0858C20.2218 11.0858 20.4912 11.1974 20.6898 11.396C20.8884 11.5946 21 11.864 21 12.1448C21 12.4257 20.8884 12.6951 20.6898 12.8937C20.4912 13.0923 20.2218 13.2039 19.9409 13.2039L7.00124 13.2039C6.96322 13.2041 6.92615 13.2158 6.89491 13.2375C6.86368 13.2592 6.83975 13.2899 6.82627 13.3254C6.81279 13.361 6.8104 13.3998 6.81941 13.4367C6.82842 13.4737 6.84841 13.507 6.87674 13.5324L13.2251 19.1202C13.3353 19.2104 13.4261 19.3219 13.4923 19.448C13.5584 19.5741 13.5984 19.7123 13.61 19.8542C13.6215 19.9962 13.6043 20.139 13.5595 20.2741C13.5146 20.4092 13.443 20.534 13.3488 20.6408C13.2547 20.7477 13.14 20.8344 13.0116 20.896C12.8832 20.9575 12.7437 20.9925 12.6014 20.9989C12.4591 21.0053 12.3171 20.983 12.1836 20.9333C12.0502 20.8836 11.9281 20.8075 11.8248 20.7095L3.59981 13.4702C3.41135 13.3046 3.26036 13.1007 3.15693 12.8722C3.0535 12.6437 3 12.3957 3 12.1448C3 11.894 3.0535 11.646 3.15693 11.4175C3.26036 11.1889 3.41135 10.9851 3.59981 10.8195L11.8255 3.58012C11.9299 3.48821 12.0514 3.41777 12.183 3.37282C12.3146 3.32786 12.4538 3.30927 12.5927 3.31812C12.7315 3.32697 12.8672 3.36307 12.992 3.42437C13.1169 3.48567 13.2284 3.57096 13.3203 3.67538Z"
        fill="#00A0DF"
  />
</svg>
