<svg class="icon"
     viewBox="0 0 40 40"
     fill="none"
     xmlns="http://www.w3.org/2000/svg"
>
    <g clip-path="url(#balance-clip0)">
        <path d="M1.84017 19.8099L7.05883 6.76321L12.2775 19.8099C12.742 20.9711 11.8868 22.2343 10.6361 22.2343H3.48159C2.23089 22.2343 1.37567 20.9711 1.84017 19.8099Z" stroke="#DFE1E6" stroke-width="1.17857"/>
        <path d="M27.7225 19.8099L32.9412 6.76321L38.1598 19.8099C38.6243 20.9711 37.7691 22.2343 36.5184 22.2343H29.3639C28.1132 22.2343 27.258 20.9711 27.7225 19.8099Z" stroke="#DFE1E6" stroke-width="1.17857"/>
        <g clip-path="url(#balance-clip1)">
            <path d="M7.05876 15.7647C3.16772 15.7647 7.62939e-06 18.9325 7.62939e-06 22.8235C7.62939e-06 26.7146 3.16772 29.8824 7.05876 29.8824C10.9498 29.8824 14.1175 26.7146 14.1175 22.8235C14.1424 18.9325 10.9747 15.7647 7.05876 15.7647Z" fill="url(#balance-paint0_linear)"/>
            <mask id="balance-mask0" mask-type="alpha" maskUnits="userSpaceOnUse" x="0" y="15" width="15" height="15">
                <path d="M7.05876 15.7647C3.16772 15.7647 7.62939e-06 18.9325 7.62939e-06 22.8235C7.62939e-06 26.7146 3.16772 29.8824 7.05876 29.8824C10.9498 29.8824 14.1175 26.7146 14.1175 22.8235C14.1424 18.9325 10.9747 15.7647 7.05876 15.7647Z" fill="url(#balance-paint1_linear)"/>
            </mask>
            <g mask="url(#balance-mask0)">
                <path d="M14.1177 29.8824V15.7647L7.62939e-06 29.8824H14.1177Z" fill="url(#balance-paint2_linear)"/>
            </g>
            <path opacity="0.5" d="M7.08972 16.9412C3.84718 16.9412 1.20743 19.5809 1.20743 22.8235C1.20743 26.0661 3.84718 28.7059 7.08972 28.7059C10.3323 28.7059 12.972 26.0661 12.972 22.8235C12.9928 19.5809 10.353 16.9412 7.08972 16.9412V16.9412Z" stroke="#E99B26" stroke-width="0.559821"/>
            <path d="M7.35229 19.4086C8.104 19.507 8.72415 19.8219 9.04363 20.2943C9.10001 20.3927 9.13759 20.4911 9.13759 20.6092C9.13759 20.9045 8.91208 21.1407 8.63019 21.1407C8.49864 21.1407 8.36709 21.0619 8.23554 20.9241C7.93486 20.6289 7.44625 20.3927 6.92006 20.3927C6.13076 20.3927 5.84887 20.7864 5.84887 21.18C5.84887 22.4791 9.28793 21.8689 9.28793 24.3293C9.28793 25.4119 8.63019 26.1205 7.37108 26.2582V26.8094C7.37108 27.0653 7.16436 27.2818 6.92006 27.2818C6.67575 27.2818 6.48782 27.0653 6.48782 26.8094V26.2582C5.56698 26.1402 4.85286 25.6284 4.53338 25.0773C4.4958 24.9985 4.45821 24.9001 4.45821 24.8017C4.45821 24.5065 4.68373 24.2703 4.96562 24.2703C5.17234 24.2703 5.28509 24.3884 5.37906 24.4868C5.7737 24.9001 6.2811 25.2347 6.92006 25.2347C7.78452 25.2347 8.19796 24.9395 8.19796 24.3293C8.19796 22.8925 4.7589 23.542 4.7589 21.18C4.7589 20.2943 5.28509 19.5463 6.48782 19.4086V18.8377C6.48782 18.5819 6.69454 18.3654 6.92006 18.3654C7.16436 18.3654 7.37108 18.5819 7.37108 18.8377V19.4086H7.35229Z" fill="#A76013"/>
        </g>
        <g clip-path="url(#balance-clip2)">
            <path d="M32.9411 15.7647C29.0501 15.7647 25.8824 18.9325 25.8824 22.8235C25.8824 26.7146 29.0501 29.8824 32.9411 29.8824C36.8322 29.8824 39.9999 26.7146 39.9999 22.8235C40.0248 18.9325 36.8571 15.7647 32.9411 15.7647Z" fill="url(#balance-paint3_linear)"/>
            <mask id="balance-mask1" mask-type="alpha" maskUnits="userSpaceOnUse" x="25" y="15" width="15" height="15">
                <path d="M32.9411 15.7647C29.0501 15.7647 25.8824 18.9325 25.8824 22.8235C25.8824 26.7146 29.0501 29.8824 32.9411 29.8824C36.8322 29.8824 39.9999 26.7146 39.9999 22.8235C40.0248 18.9325 36.8571 15.7647 32.9411 15.7647Z" fill="url(#balance-paint4_linear)"/>
            </mask>
            <g mask="url(#balance-mask1)">
                <path d="M40 29.8824V15.7647L25.8824 29.8824H40Z" fill="url(#balance-paint5_linear)"/>
            </g>
            <path opacity="0.5" d="M32.9721 16.9412C29.7295 16.9412 27.0898 19.5809 27.0898 22.8235C27.0898 26.0661 29.7295 28.7059 32.9721 28.7059C36.2146 28.7059 38.8544 26.0661 38.8544 22.8235C38.8752 19.5809 36.2354 16.9412 32.9721 16.9412V16.9412Z" stroke="#E99B26" stroke-width="0.559821"/>
            <path d="M33.2346 19.4086C33.9864 19.507 34.6065 19.8219 34.926 20.2943C34.9824 20.3927 35.0199 20.4911 35.0199 20.6092C35.0199 20.9045 34.7944 21.1407 34.5125 21.1407C34.381 21.1407 34.2494 21.0619 34.1179 20.9241C33.8172 20.6289 33.3286 20.3927 32.8024 20.3927C32.0131 20.3927 31.7312 20.7864 31.7312 21.18C31.7312 22.4791 35.1703 21.8689 35.1703 24.3293C35.1703 25.4119 34.5125 26.1205 33.2534 26.2582V26.8094C33.2534 27.0653 33.0467 27.2818 32.8024 27.2818C32.5581 27.2818 32.3702 27.0653 32.3702 26.8094V26.2582C31.4493 26.1402 30.7352 25.6284 30.4157 25.0773C30.3782 24.9985 30.3406 24.9001 30.3406 24.8017C30.3406 24.5065 30.5661 24.2703 30.848 24.2703C31.0547 24.2703 31.1674 24.3884 31.2614 24.4868C31.6561 24.9001 32.1635 25.2347 32.8024 25.2347C33.6669 25.2347 34.0803 24.9395 34.0803 24.3293C34.0803 22.8925 30.6413 23.542 30.6413 21.18C30.6413 20.2943 31.1674 19.5463 32.3702 19.4086V18.8377C32.3702 18.5819 32.5769 18.3654 32.8024 18.3654C33.0467 18.3654 33.2534 18.5819 33.2534 18.8377V19.4086H33.2346Z" fill="#A76013"/>
        </g>
        <path fill-rule="evenodd" clip-rule="evenodd" d="M33.5294 7.52941C34.5041 7.52941 35.2941 6.73933 35.2941 5.76471C35.2941 4.79009 34.5041 4 33.5294 4L6.47061 4C5.49599 4 4.7059 4.79008 4.7059 5.7647C4.7059 6.73932 5.49599 7.52941 6.47061 7.52941L17.6471 7.52941L17.6471 33.4118H13.5294C12.5548 33.4118 11.7647 34.2019 11.7647 35.1765C11.7647 36.1511 12.5548 36.9412 13.5294 36.9412H25.2941C26.2688 36.9412 27.0588 36.1511 27.0588 35.1765C27.0588 34.2019 26.2688 33.4118 25.2941 33.4118H21.1765L21.1765 7.52941L33.5294 7.52941Z" fill="url(#balance-paint6_linear)"/>
    </g>
    <defs>
        <linearGradient id="balance-paint0_linear" x1="7.0898" y1="44.8824" x2="7.0898" y2="15.7647" gradientUnits="userSpaceOnUse">
            <stop stop-color="#E99B26"/>
            <stop offset="1" stop-color="#FAC34B"/>
        </linearGradient>
        <linearGradient id="balance-paint1_linear" x1="7.0898" y1="44.8824" x2="7.0898" y2="15.7647" gradientUnits="userSpaceOnUse">
            <stop stop-color="#413017"/>
            <stop offset="1" stop-color="#FAC34B"/>
        </linearGradient>
        <linearGradient id="balance-paint2_linear" x1="7.2353" y1="29.8824" x2="12.1765" y2="18.0588" gradientUnits="userSpaceOnUse">
            <stop stop-color="#E99B26" stop-opacity="0.26"/>
            <stop offset="1" stop-color="#FAC34B"/>
        </linearGradient>
        <linearGradient id="balance-paint3_linear" x1="32.9722" y1="44.8824" x2="32.9722" y2="15.7647" gradientUnits="userSpaceOnUse">
            <stop stop-color="#E99B26"/>
            <stop offset="1" stop-color="#FAC34B"/>
        </linearGradient>
        <linearGradient id="balance-paint4_linear" x1="32.9722" y1="44.8824" x2="32.9722" y2="15.7647" gradientUnits="userSpaceOnUse">
            <stop stop-color="#413017"/>
            <stop offset="1" stop-color="#FAC34B"/>
        </linearGradient>
        <linearGradient id="balance-paint5_linear" x1="33.1177" y1="29.8824" x2="38.0588" y2="18.0588" gradientUnits="userSpaceOnUse">
            <stop stop-color="#E99B26" stop-opacity="0.26"/>
            <stop offset="1" stop-color="#FAC34B"/>
        </linearGradient>
        <linearGradient id="balance-paint6_linear" x1="20" y1="1.64706" x2="20" y2="54" gradientUnits="userSpaceOnUse">
            <stop stop-color="#B39371"/>
            <stop offset="1" stop-color="#774C2B"/>
        </linearGradient>
        <clipPath id="balance-clip0">
            <rect width="40" height="40" fill="white"/>
        </clipPath>
        <clipPath id="balance-clip1">
            <rect width="14.1176" height="14.1176" fill="white" transform="translate(7.62939e-06 15.7647)"/>
        </clipPath>
        <clipPath id="balance-clip2">
            <rect width="14.1176" height="14.1176" fill="white" transform="translate(25.8824 15.7647)"/>
        </clipPath>
    </defs>
</svg>
