<svg class="icon"
     viewBox="0 0 40 40"
     fill="none"
     xmlns="http://www.w3.org/2000/svg"
>
    <path d="M23.0541 39.1471C22.9347 39.1477 22.8164 39.1232 22.707 39.0752C22.5976 39.0271 22.4996 38.9566 22.4192 38.8683C22.3388 38.7799 22.2778 38.6757 22.2403 38.5623C22.2028 38.4488 22.1895 38.3288 22.2013 38.2099C22.3759 34.2346 22.0612 30.2529 21.2641 26.3544C20.5824 22.4166 19.5247 18.5533 18.1057 14.8174C18.0444 14.6415 18.0425 14.4504 18.1001 14.2733C18.1576 14.0961 18.2717 13.9427 18.4247 13.8364C18.5777 13.7302 18.7612 13.6769 18.9473 13.6849C19.1335 13.6928 19.3119 13.7614 19.4553 13.8802C21.6858 15.839 24.8535 19.5034 27.3371 25.9982C29.9238 32.6992 30.5892 36.5605 30.7579 38.1818C30.7711 38.3002 30.7592 38.42 30.7227 38.5334C30.6863 38.6469 30.6263 38.7513 30.5466 38.8398C30.4669 38.9283 30.3694 38.999 30.2604 39.0471C30.1515 39.0953 30.0335 39.1198 29.9144 39.119L23.0541 39.1471Z" fill="url(#beach-paint0_linear)"/>
    <path d="M19.2586 13.6366C19.3 13.5689 19.3219 13.4911 19.3219 13.4117C19.3219 13.3323 19.3 13.2545 19.2586 13.1868C18.4053 11.7465 17.2093 10.5394 15.777 9.67285C14.3447 8.80627 12.7205 8.30707 11.0487 8.21963C9.40864 8.05591 7.75284 8.26789 6.20693 8.83949C4.66101 9.41109 3.2656 10.3273 2.12656 11.5186C2.06473 11.5792 2.02306 11.6573 2.00718 11.7424C1.99131 11.8275 2.00201 11.9155 2.03784 11.9943C2.07366 12.0731 2.13287 12.139 2.20742 12.183C2.28198 12.227 2.36827 12.2469 2.45457 12.2402L4.97564 12.1277C5.06394 12.1253 5.15085 12.1501 5.2246 12.1987C5.29835 12.2474 5.3554 12.3174 5.38801 12.3995L6.45641 15.1174C6.4963 15.2217 6.57592 15.3059 6.67782 15.3516C6.77973 15.3973 6.89558 15.4007 6.99999 15.3611L9.92405 14.2083C10.0064 14.1759 10.0969 14.1702 10.1827 14.1921C10.2685 14.214 10.3452 14.2623 10.402 14.3302L12.0796 16.2795C12.1604 16.3602 12.27 16.4056 12.3842 16.4056C12.4984 16.4056 12.608 16.3602 12.6888 16.2795L14.4788 14.6582C14.5547 14.6019 14.6467 14.5715 14.7413 14.5715C14.8358 14.5715 14.9278 14.6019 15.0037 14.6582L17.028 16.0359C17.074 16.0677 17.1259 16.09 17.1806 16.1016C17.2354 16.1132 17.2918 16.1137 17.3468 16.1033C17.4017 16.0928 17.454 16.0715 17.5007 16.0406C17.5473 16.0097 17.5874 15.9699 17.6185 15.9234L19.2586 13.6366Z" fill="url(#beach-paint1_linear)"/>
    <path d="M17.7028 14.302C17.6245 14.2868 17.5521 14.2496 17.494 14.1949C17.4359 14.1401 17.3946 14.07 17.3748 13.9927C17.0936 12.8868 16.3157 8.46326 20.4675 4.03031C21.7349 2.67273 23.2848 1.60988 25.0078 0.916788C26.7308 0.223695 28.5849 -0.0827467 30.4393 0.0190944C30.5247 0.0233064 30.6068 0.0533806 30.6748 0.105329C30.7427 0.157277 30.7932 0.228645 30.8196 0.309968C30.8461 0.391291 30.8472 0.478728 30.8228 0.560682C30.7984 0.642636 30.7496 0.715236 30.683 0.768853L28.4244 2.64325C28.3552 2.70125 28.3055 2.7791 28.282 2.86627C28.2586 2.95343 28.2624 3.04571 28.2931 3.13059L29.4646 6.0734C29.4857 6.12563 29.4961 6.18155 29.4952 6.23787C29.4943 6.29418 29.4822 6.34975 29.4595 6.40128C29.4368 6.45282 29.404 6.49929 29.363 6.53795C29.322 6.5766 29.2737 6.60666 29.221 6.62635L25.8564 7.91968C25.7735 7.95112 25.7027 8.00789 25.6539 8.08192C25.6051 8.15595 25.5808 8.24347 25.5846 8.33205L25.6409 11.1436C25.6434 11.1994 25.6346 11.255 25.615 11.3072C25.5954 11.3594 25.5655 11.4071 25.5269 11.4474C25.4884 11.4877 25.4421 11.5198 25.3908 11.5417C25.3395 11.5636 25.2843 11.5748 25.2285 11.5748L22.4169 11.6404C22.3244 11.6432 22.2353 11.6757 22.1628 11.7331C22.0902 11.7905 22.038 11.8697 22.0139 11.959L21.3298 14.6488C21.3176 14.7018 21.2951 14.7519 21.2635 14.7961C21.232 14.8404 21.1919 14.878 21.1458 14.9068C21.0996 14.9355 21.0482 14.9548 20.9945 14.9636C20.9409 14.9724 20.886 14.9705 20.833 14.958L17.7028 14.302Z" fill="url(#beach-paint2_linear)"/>
    <path d="M18.6587 14.0209C18.6388 13.925 18.5854 13.8394 18.5082 13.7793C18.4309 13.7192 18.3348 13.6886 18.237 13.6928C16.9999 13.6928 12.6138 14.2364 9.52105 19.316C8.54642 20.8965 7.93051 22.6715 7.71675 24.516C7.503 26.3604 7.69662 28.2293 8.28394 29.9907C8.31455 30.0703 8.36854 30.1387 8.43881 30.187C8.50908 30.2352 8.59232 30.2611 8.67757 30.2611C8.76281 30.2611 8.84605 30.2352 8.91632 30.187C8.98659 30.1387 9.04059 30.0703 9.07119 29.9907L10.2614 27.3197C10.2984 27.2388 10.36 27.1717 10.4375 27.1279C10.5149 27.0842 10.6042 27.066 10.6925 27.076L13.8415 27.4228C13.897 27.4293 13.9532 27.4247 14.0068 27.4094C14.0605 27.394 14.1106 27.3681 14.1542 27.3333C14.1977 27.2984 14.234 27.2552 14.2608 27.2062C14.2875 27.1572 14.3043 27.1034 14.3101 27.0479L14.6663 23.4584C14.6767 23.3702 14.7137 23.2871 14.7722 23.2202C14.8307 23.1533 14.9082 23.1057 14.9943 23.0836L17.7403 22.3994C17.8488 22.3707 17.9418 22.3007 17.9996 22.2045C18.0573 22.1082 18.0753 21.9932 18.0496 21.884L17.356 19.0724C17.3335 18.9947 17.3349 18.912 17.3599 18.8352C17.385 18.7583 17.4326 18.6907 17.4966 18.6412L19.2023 17.2167C19.2627 17.1665 19.3078 17.1004 19.3327 17.0259C19.3575 16.9513 19.3611 16.8714 19.3429 16.795L18.6587 14.0209Z" fill="url(#beach-paint3_linear)"/>
    <path d="M18.1057 14.6487C18.0464 14.5741 18.0141 14.4816 18.0141 14.3863C18.0141 14.291 18.0464 14.1985 18.1057 14.1239C18.818 13.1211 21.6483 9.75657 27.6089 9.96275C29.4648 10.0248 31.2844 10.4934 32.9394 11.3355C34.5944 12.1775 36.0444 13.3725 37.1871 14.8362C37.2392 14.9032 37.2699 14.9845 37.2751 15.0693C37.2803 15.154 37.2598 15.2384 37.2163 15.3113C37.1727 15.3843 37.1082 15.4423 37.031 15.478C36.9539 15.5136 36.8679 15.5251 36.7841 15.511L33.8975 15.0049C33.8084 14.9906 33.7171 15.0046 33.6364 15.0449C33.5557 15.0853 33.4897 15.15 33.4477 15.2298L31.995 18.0414C31.9712 18.0925 31.9371 18.1382 31.8949 18.1756C31.8528 18.213 31.8034 18.2414 31.7498 18.259C31.6962 18.2765 31.6396 18.2829 31.5834 18.2777C31.5273 18.2726 31.4728 18.2559 31.4233 18.2288L28.2087 16.5231C28.1308 16.4817 28.0419 16.4658 27.9545 16.4776C27.8671 16.4893 27.7856 16.5282 27.7214 16.5887L25.6314 18.4631C25.5506 18.5438 25.4411 18.5892 25.3268 18.5892C25.2126 18.5892 25.1031 18.5438 25.0223 18.4631L23.1479 16.4107C23.0791 16.3385 22.9879 16.2918 22.8892 16.2782C22.7904 16.2646 22.69 16.2849 22.6043 16.3357L21.0017 17.3291C20.9165 17.3817 20.8156 17.403 20.7164 17.3893C20.6172 17.3756 20.5259 17.3278 20.4581 17.2542L18.1057 14.6487Z" fill="url(#beach-paint4_linear)"/>
    <path d="M31.8357 40C32.0037 39.9944 32.1664 39.9398 32.3038 39.843C32.4412 39.7462 32.5473 39.6113 32.609 39.4549C32.6708 39.2986 32.6855 39.1276 32.6513 38.963C32.6171 38.7985 32.5356 38.6475 32.4168 38.5286C30.8048 36.4293 28.5087 33.6177 21.9014 33.6177C16.9395 33.6747 12.1393 35.3902 8.26516 38.4911C8.13034 38.6031 8.0333 38.7539 7.98724 38.923C7.94118 39.0921 7.94834 39.2713 8.00774 39.4362C8.06714 39.6011 8.1759 39.7437 8.31923 39.8446C8.46255 39.9454 8.63347 39.9997 8.80874 40H31.8357Z" fill="url(#beach-paint5_linear)"/>
    <defs>
        <linearGradient id="beach-paint0_linear" x1="28.3486" y1="37.595" x2="18.0662" y2="8.99709" gradientUnits="userSpaceOnUse">
            <stop stop-color="#B39371"/>
            <stop offset="1" stop-color="#774C2B"/>
        </linearGradient>
        <linearGradient id="beach-paint1_linear" x1="7.46256" y1="8.99716" x2="24.7654" y2="18.8829" gradientUnits="userSpaceOnUse">
            <stop stop-color="#66DE7D"/>
            <stop offset="1" stop-color="#4ABE6B"/>
        </linearGradient>
        <linearGradient id="beach-paint2_linear" x1="29.152" y1="1.76729" x2="15.7766" y2="17.5106" gradientUnits="userSpaceOnUse">
            <stop stop-color="#66DE7D"/>
            <stop offset="1" stop-color="#4ABE6B"/>
        </linearGradient>
        <linearGradient id="beach-paint3_linear" x1="11.4791" y1="21.8501" x2="22.1267" y2="13.3055" gradientUnits="userSpaceOnUse">
            <stop stop-color="#66DE7D"/>
            <stop offset="1" stop-color="#4ABE6B"/>
        </linearGradient>
        <linearGradient id="beach-paint4_linear" x1="36.3818" y1="14.1383" x2="7.14117" y2="15.1023" gradientUnits="userSpaceOnUse">
            <stop stop-color="#66DE7D"/>
            <stop offset="1" stop-color="#4ABE6B"/>
        </linearGradient>
        <linearGradient id="beach-paint5_linear" x1="20.3133" y1="33.6177" x2="20.3155" y2="44.1822" gradientUnits="userSpaceOnUse">
            <stop stop-color="#FDE293"/>
            <stop offset="1" stop-color="#FAC34B"/>
        </linearGradient>
    </defs>
</svg>
