<svg class="icon" viewBox="0 0 32 12" fill="none" xmlns="http://www.w3.org/2000/svg">
  <mask id="mask0" mask-type="alpha" maskUnits="userSpaceOnUse" x="24" y="0" width="8" height="12">
    <path d="M24.7083 0.181641H32V11.026H24.7083V0.181641Z" fill="white" />
  </mask>
  <g mask="url(#mask0)">
    <path
      d="M31.664 0.181641C31.8507 0.181641 32.0054 0.330997 32.0054 0.523026V2.18728C32.0054 2.37398 31.856 2.52867 31.664 2.52867H29.7383C29.6263 2.52867 29.5517 2.60335 29.5517 2.71536V10.6099C29.5517 10.7966 29.4023 10.9513 29.2103 10.9513H27.546C27.3593 10.9513 27.2046 10.8019 27.2046 10.6099V2.7527C27.2046 2.64068 27.1299 2.56601 27.0179 2.56601H25.0923C24.9056 2.56601 24.7509 2.41665 24.7509 2.22462V0.560365C24.7509 0.37367 24.9003 0.21898 25.0923 0.21898H31.664"
      fill="#23D2AA" />
  </g>
  <path
    d="M3.85126 8.90757H2.30435C2.22968 8.90757 2.155 8.83289 2.155 8.75821V6.64055C2.155 6.56587 2.22968 6.49119 2.30435 6.49119H3.85126C4.49135 6.49119 4.94476 7.09395 4.94476 7.70205C4.94476 8.31014 4.53403 8.90757 3.85126 8.90757ZM2.14966 2.48525C2.14966 2.41057 2.22434 2.33589 2.29902 2.33589H3.77124C4.29933 2.33589 4.79007 2.82663 4.79007 3.35471C4.79007 3.8828 4.29933 4.41088 3.77124 4.41088H2.30435C2.22968 4.41088 2.155 4.3362 2.155 4.26152V2.48525H2.14966ZM6.23029 5.58439C6.15561 5.50971 6.15561 5.39769 6.23029 5.31768C6.79571 4.75226 7.02508 4.03215 7.02508 3.28004C7.02508 1.57844 5.70221 0.143555 3.81392 0.143555H1.01882C0.453403 0.143555 0 0.596958 0 1.19972V10.0811C0 10.6465 0.453403 11.1372 1.01882 11.1372H3.77658C5.81423 11.1372 7.09976 9.81437 7.09976 7.73939C7.13709 6.90726 6.83838 6.07513 6.23029 5.58439Z"
    fill="#23D2AA" />
  <path
    d="M14.6956 8.684H11.1057C10.9937 8.684 10.919 8.60932 10.919 8.4973V6.98774C10.919 6.87572 10.9937 6.80104 11.1057 6.80104H14.5035C14.6902 6.80104 14.8823 6.65169 14.8823 6.42232V4.72072C14.8823 4.53403 14.7329 4.342 14.5035 4.342H11.1057C10.9937 4.342 10.919 4.26732 10.919 4.1553V2.64574C10.919 2.53372 10.9937 2.45904 11.1057 2.45904H14.6209C14.8076 2.45904 14.9996 2.30969 14.9996 2.08032V0.378725C14.9996 0.19203 14.8502 0 14.6209 0H9.44676C8.91867 0.0373391 8.46527 0.490742 8.46527 1.05616V9.89485C8.46527 10.4603 8.95601 10.951 9.52143 10.951H14.6582C14.8449 10.951 15.0369 10.8017 15.0369 10.5723V8.87069C15.0743 8.83335 14.9196 8.684 14.6956 8.684Z"
    fill="#23D2AA" />
  <path
    d="M21.1926 6.79599H19.9071C19.7951 6.79599 19.7204 6.68397 19.7204 6.57195L20.4405 2.94473C20.4405 2.90739 20.4778 2.87005 20.5152 2.87005C20.5525 2.87005 20.5899 2.90739 20.5899 2.94473L21.31 6.57195C21.3846 6.67864 21.2673 6.79599 21.1926 6.79599ZM24.6331 10.6472L22.0621 0.93909C21.9501 0.485687 21.534 0.181641 21.0806 0.181641H19.9871C19.5337 0.181641 19.1176 0.485687 19.0056 0.93909L16.4346 10.6846C16.3599 10.9086 16.5466 11.138 16.7759 11.138H18.5149C18.6642 11.138 18.8189 11.026 18.8563 10.8713L19.2723 9.28703C19.3097 9.17502 19.3843 9.10034 19.4964 9.10034H21.534C21.646 9.10034 21.7207 9.17502 21.758 9.28703L22.2114 10.8713C22.2488 11.0206 22.3981 11.138 22.5528 11.138H24.2918C24.5211 11.1006 24.7078 10.8766 24.6331 10.6472Z"
    fill="#23D2AA" />
</svg>