<svg class="icon"
     viewBox="0 0 40 40"
     fill="none"
     xmlns="http://www.w3.org/2000/svg"
>
    <g clip-path="url(#bike-clip0)">
        <mask id="bike-path-1-inside-1" fill="white">
            <path fill-rule="evenodd" clip-rule="evenodd" d="M7.00026 30C10.314 30 13.0003 27.3137 13.0003 24C13.0003 20.6863 10.314 18 7.00026 18C3.68655 18 1.00026 20.6863 1.00026 24C1.00026 27.3137 3.68655 30 7.00026 30ZM7.00033 29.5001C10.0379 29.5001 12.5003 27.0376 12.5003 24.0001C12.5003 20.9625 10.0379 18.5001 7.00033 18.5001C3.96276 18.5001 1.50033 20.9625 1.50033 24.0001C1.50033 27.0376 3.96276 29.5001 7.00033 29.5001Z"/>
        </mask>
        <path fill-rule="evenodd" clip-rule="evenodd" d="M7.00026 30C10.314 30 13.0003 27.3137 13.0003 24C13.0003 20.6863 10.314 18 7.00026 18C3.68655 18 1.00026 20.6863 1.00026 24C1.00026 27.3137 3.68655 30 7.00026 30ZM7.00033 29.5001C10.0379 29.5001 12.5003 27.0376 12.5003 24.0001C12.5003 20.9625 10.0379 18.5001 7.00033 18.5001C3.96276 18.5001 1.50033 20.9625 1.50033 24.0001C1.50033 27.0376 3.96276 29.5001 7.00033 29.5001Z" fill="#EBECF0"/>
        <path d="M12.9003 24C12.9003 27.2585 10.2587 29.9 7.00026 29.9V30.1C10.3692 30.1 13.1003 27.369 13.1003 24H12.9003ZM7.00026 18.1C10.2587 18.1 12.9003 20.7416 12.9003 24H13.1003C13.1003 20.6311 10.3692 17.9 7.00026 17.9V18.1ZM1.10026 24C1.10026 20.7416 3.74178 18.1 7.00026 18.1V17.9C3.63133 17.9 0.900262 20.6311 0.900262 24H1.10026ZM7.00026 29.9C3.74178 29.9 1.10026 27.2585 1.10026 24H0.900262C0.900262 27.369 3.63133 30.1 7.00026 30.1V29.9ZM12.4003 24.0001C12.4003 26.9824 9.98267 29.4001 7.00033 29.4001V29.6001C10.0931 29.6001 12.6003 27.0929 12.6003 24.0001H12.4003ZM7.00033 18.6001C9.98267 18.6001 12.4003 21.0177 12.4003 24.0001H12.6003C12.6003 20.9073 10.0931 18.4001 7.00033 18.4001V18.6001ZM1.60033 24.0001C1.60033 21.0177 4.01799 18.6001 7.00033 18.6001V18.4001C3.90753 18.4001 1.40033 20.9073 1.40033 24.0001H1.60033ZM7.00033 29.4001C4.01799 29.4001 1.60033 26.9824 1.60033 24.0001H1.40033C1.40033 27.0929 3.90753 29.6001 7.00033 29.6001V29.4001Z" fill="#DFE1E6" mask="url(#bike-path-1-inside-1)"/>
        <path fill-rule="evenodd" clip-rule="evenodd" d="M7 31C10.866 31 14 27.866 14 24C14 20.134 10.866 17 7 17C3.134 17 -7.54706e-06 20.134 -7.54706e-06 24C-7.54706e-06 27.866 3.134 31 7 31ZM7.00026 30C10.314 30 13.0003 27.3137 13.0003 24C13.0003 20.6863 10.314 18 7.00026 18C3.68655 18 1.00026 20.6863 1.00026 24C1.00026 27.3137 3.68655 30 7.00026 30Z" fill="#42526E"/>
        <mask id="bike-path-4-inside-2" fill="white">
            <path fill-rule="evenodd" clip-rule="evenodd" d="M32.9996 30C36.3133 30 38.9996 27.3138 38.9996 24C38.9996 20.6863 36.3133 18 32.9996 18C29.6859 18 26.9996 20.6863 26.9996 24C26.9996 27.3138 29.6859 30 32.9996 30ZM32.9996 29.5C36.0371 29.5 38.4996 27.0376 38.4996 24C38.4996 20.9624 36.0371 18.5 32.9996 18.5C29.962 18.5 27.4996 20.9624 27.4996 24C27.4996 27.0376 29.962 29.5 32.9996 29.5Z"/>
        </mask>
        <path fill-rule="evenodd" clip-rule="evenodd" d="M32.9996 30C36.3133 30 38.9996 27.3138 38.9996 24C38.9996 20.6863 36.3133 18 32.9996 18C29.6859 18 26.9996 20.6863 26.9996 24C26.9996 27.3138 29.6859 30 32.9996 30ZM32.9996 29.5C36.0371 29.5 38.4996 27.0376 38.4996 24C38.4996 20.9624 36.0371 18.5 32.9996 18.5C29.962 18.5 27.4996 20.9624 27.4996 24C27.4996 27.0376 29.962 29.5 32.9996 29.5Z" fill="#EBECF0"/>
        <path d="M38.8996 24C38.8996 27.2585 36.2581 29.9 32.9996 29.9V30.1C36.3686 30.1 39.0996 27.369 39.0996 24H38.8996ZM32.9996 18.1C36.2581 18.1 38.8996 20.7416 38.8996 24H39.0996C39.0996 20.6311 36.3686 17.9 32.9996 17.9V18.1ZM27.0996 24C27.0996 20.7416 29.7412 18.1 32.9996 18.1V17.9C29.6307 17.9 26.8996 20.6311 26.8996 24H27.0996ZM32.9996 29.9C29.7412 29.9 27.0996 27.2585 27.0996 24H26.8996C26.8996 27.369 29.6307 30.1 32.9996 30.1V29.9ZM38.3996 24C38.3996 26.9824 35.9819 29.4 32.9996 29.4V29.6C36.0924 29.6 38.5996 27.0928 38.5996 24H38.3996ZM32.9996 18.6C35.9819 18.6 38.3996 21.0177 38.3996 24H38.5996C38.5996 20.9072 36.0924 18.4 32.9996 18.4V18.6ZM27.5996 24C27.5996 21.0177 30.0172 18.6 32.9996 18.6V18.4C29.9068 18.4 27.3996 20.9072 27.3996 24H27.5996ZM32.9996 29.4C30.0172 29.4 27.5996 26.9824 27.5996 24H27.3996C27.3996 27.0928 29.9068 29.6 32.9996 29.6V29.4Z" fill="#DFE1E6" mask="url(#bike-path-4-inside-2)"/>
        <path fill-rule="evenodd" clip-rule="evenodd" d="M33 31.0001C36.866 31.0001 40 27.8661 40 24.0001C40 20.1341 36.866 17.0001 33 17.0001C29.134 17.0001 26 20.1341 26 24.0001C26 27.8661 29.134 31.0001 33 31.0001ZM32.9996 30C36.3133 30 38.9996 27.3138 38.9996 24C38.9996 20.6863 36.3133 18 32.9996 18C29.6859 18 26.9996 20.6863 26.9996 24C26.9996 27.3138 29.6859 30 32.9996 30Z" fill="#42526E"/>
        <circle cx="7.00006" cy="24.0001" r="2" fill="#EBECF0"/>
        <path d="M11.0001 10.0001H12.0001L17.0001 22.0001H16.0001L11.0001 10.0001Z" fill="#EBECF0"/>
        <path d="M26.5 10.0001H27.5L33.5 24.0001H32.5L26.5 10.0001Z" fill="#DFE1E6"/>
        <mask id="bike-path-10-outside-3" maskUnits="userSpaceOnUse" x="5.3277" y="9.00005" width="27" height="16" fill="black">
            <rect fill="white" x="5.3277" y="9.00005" width="27" height="16"/>
            <path fill-rule="evenodd" clip-rule="evenodd" d="M26.7744 10.6407C26.6444 10.3374 26.8669 10 27.1968 10C27.3806 10 27.5468 10.1096 27.6192 10.2786L28.9998 13.5C28.9998 13.5001 28.9999 13.5001 28.9999 13.5001C29 13.5001 29.0001 13.5001 29.0001 13.5002V13.5005C29.0001 13.5005 29.0001 13.5006 29.0001 13.5006L31.7253 19.8594C31.8553 20.1627 31.6328 20.5001 31.3029 20.5001C31.119 20.5001 30.9529 20.3905 30.8805 20.2215L29.6811 17.4229C29.5579 17.1356 29.2043 17.0305 28.9441 17.2039L17.9999 24.5C17.9999 24.5 17.9999 24.5 17.9999 24.5L17.9998 24.5C17.9998 24.5 17.9998 24.5 17.9998 24.5V24.5C17.9998 24.5 17.9998 24.5 17.9998 24.5C17.9998 24.5 17.9998 24.5 17.9998 24.5H16.9998C16.9998 24.5 16.9998 24.5 16.9998 24.5C16.9998 24.5 16.9998 24.5 16.9998 24.5H6.99992C6.9999 24.5 6.99988 24.5 6.99987 24.5001C6.99985 24.5001 6.99983 24.5001 6.99981 24.5001H6.75712C6.42385 24.5001 6.21799 24.1365 6.38946 23.8507L11.5455 15.2573C11.7455 14.9241 11.5054 14.5001 11.1168 14.5001H10.5C10.2239 14.5001 10 14.2762 10 14.0001C10 13.7239 10.2239 13.5001 10.5 13.5001H11.8748C12.1325 13.5001 12.3072 13.2379 12.2081 13.0001C12.109 12.7622 12.2838 12.5 12.5415 12.5H12.6921C12.8784 12.5 13.0465 12.6121 13.1181 12.7841L13.6759 14.1226C13.701 14.1829 13.7377 14.2377 13.7838 14.2839L14.9421 15.4422C16.7683 17.2683 19.5581 17.7211 21.8681 16.5661L27.5782 13.711C27.815 13.5926 27.9185 13.3102 27.8142 13.0668L26.7744 10.6407ZM8.05423 22.7428C7.85428 23.076 8.09433 23.5 8.48298 23.5H15.8331C16.1899 23.5 16.4319 23.1371 16.2946 22.8077L13.2823 15.5781C13.1245 15.1994 12.6031 15.1614 12.392 15.5131L8.05423 22.7428ZM27.899 14.5506C27.9655 14.5174 28.0387 14.5001 28.113 14.5001C28.3043 14.5001 28.4773 14.6141 28.5527 14.79L28.7249 15.1919C28.8198 15.4134 28.7432 15.6712 28.5427 15.8048L17.9616 22.8589C17.6998 23.0334 17.3438 22.9256 17.2227 22.6352L14.7077 16.5991C14.6472 16.4538 14.8308 16.3308 14.9421 16.4422C16.7683 18.2683 19.5581 18.7211 21.868 17.5661L27.899 14.5506Z"/>
        </mask>
        <path fill-rule="evenodd" clip-rule="evenodd" d="M26.7744 10.6407C26.6444 10.3374 26.8669 10 27.1968 10C27.3806 10 27.5468 10.1096 27.6192 10.2786L28.9998 13.5C28.9998 13.5001 28.9999 13.5001 28.9999 13.5001C29 13.5001 29.0001 13.5001 29.0001 13.5002V13.5005C29.0001 13.5005 29.0001 13.5006 29.0001 13.5006L31.7253 19.8594C31.8553 20.1627 31.6328 20.5001 31.3029 20.5001C31.119 20.5001 30.9529 20.3905 30.8805 20.2215L29.6811 17.4229C29.5579 17.1356 29.2043 17.0305 28.9441 17.2039L17.9999 24.5C17.9999 24.5 17.9999 24.5 17.9999 24.5L17.9998 24.5C17.9998 24.5 17.9998 24.5 17.9998 24.5V24.5C17.9998 24.5 17.9998 24.5 17.9998 24.5C17.9998 24.5 17.9998 24.5 17.9998 24.5H16.9998C16.9998 24.5 16.9998 24.5 16.9998 24.5C16.9998 24.5 16.9998 24.5 16.9998 24.5H6.99992C6.9999 24.5 6.99988 24.5 6.99987 24.5001C6.99985 24.5001 6.99983 24.5001 6.99981 24.5001H6.75712C6.42385 24.5001 6.21799 24.1365 6.38946 23.8507L11.5455 15.2573C11.7455 14.9241 11.5054 14.5001 11.1168 14.5001H10.5C10.2239 14.5001 10 14.2762 10 14.0001C10 13.7239 10.2239 13.5001 10.5 13.5001H11.8748C12.1325 13.5001 12.3072 13.2379 12.2081 13.0001C12.109 12.7622 12.2838 12.5 12.5415 12.5H12.6921C12.8784 12.5 13.0465 12.6121 13.1181 12.7841L13.6759 14.1226C13.701 14.1829 13.7377 14.2377 13.7838 14.2839L14.9421 15.4422C16.7683 17.2683 19.5581 17.7211 21.8681 16.5661L27.5782 13.711C27.815 13.5926 27.9185 13.3102 27.8142 13.0668L26.7744 10.6407ZM8.05423 22.7428C7.85428 23.076 8.09433 23.5 8.48298 23.5H15.8331C16.1899 23.5 16.4319 23.1371 16.2946 22.8077L13.2823 15.5781C13.1245 15.1994 12.6031 15.1614 12.392 15.5131L8.05423 22.7428ZM27.899 14.5506C27.9655 14.5174 28.0387 14.5001 28.113 14.5001C28.3043 14.5001 28.4773 14.6141 28.5527 14.79L28.7249 15.1919C28.8198 15.4134 28.7432 15.6712 28.5427 15.8048L17.9616 22.8589C17.6998 23.0334 17.3438 22.9256 17.2227 22.6352L14.7077 16.5991C14.6472 16.4538 14.8308 16.3308 14.9421 16.4422C16.7683 18.2683 19.5581 18.7211 21.868 17.5661L27.899 14.5506Z" fill="#4ABE6B"/>
        <path d="M14.9421 15.4422L15.0999 15.2845L14.9421 15.4422ZM21.8681 16.5661L21.9678 16.7656L21.8681 16.5661ZM21.868 17.5661L21.9678 17.7656L21.868 17.5661ZM14.7077 16.5991L14.9136 16.5134L14.7077 16.5991ZM17.9616 22.8589L17.8379 22.6733L17.9616 22.8589ZM17.2227 22.6352L17.4286 22.5494L17.2227 22.6352ZM28.7249 15.1919L28.5199 15.2797L28.7249 15.1919ZM28.5427 15.8048L28.4189 15.6193L28.5427 15.8048ZM27.899 14.5506L27.9988 14.7501L27.899 14.5506ZM13.2823 15.5781L13.4882 15.4923L13.2823 15.5781ZM12.392 15.5131L12.2007 15.3984L12.392 15.5131ZM16.2946 22.8077L16.5005 22.7219L16.2946 22.8077ZM27.5782 13.711L27.4785 13.5115L27.5782 13.711ZM27.8142 13.0668L27.6092 13.1547L27.8142 13.0668ZM13.6759 14.1226L13.8818 14.0369L13.6759 14.1226ZM13.1181 12.7841L13.324 12.6983L13.1181 12.7841ZM6.38946 23.8507L6.1982 23.736L6.38946 23.8507ZM17.9999 24.5L17.8762 24.3144L17.9999 24.5ZM29.6811 17.4229L29.8861 17.3351L29.6811 17.4229ZM30.8805 20.2215L30.6754 20.3094L30.8805 20.2215ZM31.7253 19.8594L31.5203 19.9473L31.7253 19.8594ZM29.0001 13.5006L28.7951 13.5885L29.0001 13.5006ZM28.9998 13.5L28.7948 13.5879L28.9998 13.5ZM26.7744 10.6407L26.5694 10.7285L26.7744 10.6407ZM27.6192 10.2786L27.8242 10.1907L27.6192 10.2786ZM29.2048 13.4122L27.8242 10.1907L27.4142 10.3664L28.7948 13.5879L29.2048 13.4122ZM29.2231 13.5005V13.5002H28.777V13.5005H29.2231ZM31.9303 19.7716L29.2051 13.4128L28.7951 13.5885L31.5203 19.9473L31.9303 19.7716ZM29.4761 17.5108L30.6754 20.3094L31.0855 20.1336L29.8861 17.3351L29.4761 17.5108ZM18.1236 24.6856L29.0679 17.3895L28.8204 17.0183L17.8762 24.3144L18.1236 24.6856ZM17.8421 24.6577L17.8421 24.6577L18.1576 24.3423L18.1576 24.3423L17.8421 24.6577ZM17.7767 24.5V24.5H18.2228V24.5H17.7767ZM16.9998 24.7231H17.9998V24.277H16.9998V24.7231ZM16.9998 24.277H6.99992V24.7231H16.9998V24.277ZM6.75712 24.7231H6.99981V24.277H6.75712V24.7231ZM11.3542 15.1426L6.1982 23.736L6.58073 23.9655L11.7368 15.3721L11.3542 15.1426ZM10.5 14.7231H11.1168V14.277H10.5V14.7231ZM11.8748 13.277H10.5V13.7231H11.8748V13.277ZM12.6921 12.277H12.5415V12.7231H12.6921V12.277ZM13.8818 14.0369L13.324 12.6983L12.9122 12.8698L13.47 14.2084L13.8818 14.0369ZM15.0999 15.2845L13.9416 14.1262L13.6261 14.4416L14.7844 15.5999L15.0999 15.2845ZM21.7683 16.3666C19.5442 17.4786 16.8581 17.0427 15.0999 15.2845L14.7844 15.5999C16.6785 17.4939 19.572 17.9635 21.9678 16.7656L21.7683 16.3666ZM27.4785 13.5115L21.7683 16.3666L21.9678 16.7656L27.678 13.9105L27.4785 13.5115ZM26.5694 10.7285L27.6092 13.1547L28.0192 12.979L26.9794 10.5528L26.5694 10.7285ZM8.48298 23.7231H15.8331V23.277H8.48298V23.7231ZM13.0764 15.6639L16.0887 22.8935L16.5005 22.7219L13.4882 15.4923L13.0764 15.6639ZM8.2455 22.8575L12.5833 15.6279L12.2007 15.3984L7.86297 22.628L8.2455 22.8575ZM28.9299 15.104L28.7577 14.7022L28.3477 14.8779L28.5199 15.2797L28.9299 15.104ZM18.0854 23.0445L28.6664 15.9904L28.4189 15.6193L17.8379 22.6733L18.0854 23.0445ZM14.5018 16.6849L17.0168 22.721L17.4286 22.5494L14.9136 16.5134L14.5018 16.6849ZM21.7683 17.3666C19.5442 18.4786 16.8581 18.0427 15.0998 16.2844L14.7844 16.5999C16.6785 18.4939 19.572 18.9635 21.9678 17.7656L21.7683 17.3666ZM27.7993 14.3511L21.7683 17.3666L21.9678 17.7656L27.9988 14.7501L27.7993 14.3511ZM14.9136 16.5134C14.9193 16.527 14.9216 16.5485 14.914 16.5704C14.9073 16.5897 14.8956 16.6023 14.8846 16.6097C14.8736 16.6171 14.8574 16.6231 14.837 16.6219C14.8139 16.6206 14.7949 16.6104 14.7844 16.5999L15.0998 16.2844C14.8157 16.0003 14.3473 16.314 14.5018 16.6849L14.9136 16.5134ZM17.8379 22.6733C17.6929 22.77 17.4957 22.7103 17.4286 22.5494L17.0168 22.721C17.1919 23.141 17.7067 23.2969 18.0854 23.0445L17.8379 22.6733ZM28.5199 15.2797C28.5725 15.4024 28.53 15.5452 28.4189 15.6193L28.6664 15.9904C28.9564 15.7971 29.0672 15.4244 28.9299 15.104L28.5199 15.2797ZM28.113 14.277C28.0041 14.277 27.8967 14.3024 27.7993 14.3511L27.9988 14.7501C28.0343 14.7324 28.0733 14.7231 28.113 14.7231V14.277ZM28.113 14.7231C28.2151 14.7231 28.3074 14.784 28.3477 14.8779L28.7577 14.7022C28.6472 14.4443 28.3936 14.277 28.113 14.277V14.7231ZM13.4882 15.4923C13.26 14.9447 12.5059 14.8897 12.2007 15.3984L12.5833 15.6279C12.7002 15.4331 12.989 15.4541 13.0764 15.6639L13.4882 15.4923ZM15.8331 23.7231C16.3491 23.7231 16.699 23.1982 16.5005 22.7219L16.0887 22.8935C16.1648 23.0759 16.0307 23.277 15.8331 23.277V23.7231ZM8.48298 23.277C8.26771 23.277 8.13474 23.0421 8.2455 22.8575L7.86297 22.628C7.57381 23.11 7.92096 23.7231 8.48298 23.7231V23.277ZM27.678 13.9105C28.0204 13.7393 28.17 13.3309 28.0192 12.979L27.6092 13.1547C27.6669 13.2895 27.6096 13.4459 27.4785 13.5115L27.678 13.9105ZM13.47 14.2084C13.5063 14.2956 13.5593 14.3748 13.6261 14.4416L13.9416 14.1262C13.916 14.1006 13.8957 14.0702 13.8818 14.0369L13.47 14.2084ZM12.6921 12.7231C12.7884 12.7231 12.8752 12.781 12.9122 12.8698L13.324 12.6983C13.2177 12.4432 12.9685 12.277 12.6921 12.277V12.7231ZM12.414 12.9143C12.3761 12.8233 12.4429 12.7231 12.5415 12.7231V12.277C12.1246 12.277 11.8419 12.7011 12.0022 13.0859L12.414 12.9143ZM11.8748 13.7231C12.2916 13.7231 12.5743 13.2991 12.414 12.9143L12.0022 13.0859C12.0401 13.1768 11.9733 13.277 11.8748 13.277V13.7231ZM10.2231 14.0001C10.2231 13.8471 10.3471 13.7231 10.5 13.7231V13.277C10.1007 13.277 9.777 13.6008 9.777 14.0001H10.2231ZM10.5 14.277C10.3471 14.277 10.2231 14.153 10.2231 14.0001H9.777C9.777 14.3994 10.1007 14.7231 10.5 14.7231V14.277ZM11.7368 15.3721C12.0259 14.8902 11.6788 14.277 11.1168 14.277V14.7231C11.332 14.7231 11.465 14.958 11.3542 15.1426L11.7368 15.3721ZM6.75712 24.277C6.59722 24.277 6.49846 24.1026 6.58073 23.9655L6.1982 23.736C5.93753 24.1704 6.25047 24.7231 6.75712 24.7231V24.277ZM6.80862 24.3853C6.84887 24.3182 6.92139 24.277 6.99981 24.277V24.7231C7.07827 24.7231 7.15084 24.6819 7.19111 24.6148L6.80862 24.3853ZM6.99992 24.277C6.92278 24.277 6.84957 24.317 6.80862 24.3853L7.19111 24.6148C7.15019 24.683 7.07702 24.7231 6.99992 24.7231V24.277ZM17.208 24.42C17.1748 24.3338 17.0921 24.277 16.9998 24.277V24.7231C16.9075 24.7231 16.8247 24.6662 16.7916 24.5801L17.208 24.42ZM16.9998 24.277C17.0921 24.277 17.1748 24.3338 17.208 24.42L16.7916 24.5801C16.8247 24.6662 16.9075 24.7231 16.9998 24.7231V24.277ZM17.7972 24.5935C17.7289 24.4453 17.8374 24.277 17.9998 24.277V24.7231C18.1622 24.7231 18.2707 24.5547 18.2023 24.4066L17.7972 24.5935ZM17.7767 24.5C17.7767 24.5323 17.7837 24.5642 17.7972 24.5935L18.2023 24.4066C18.2158 24.4359 18.2228 24.4678 18.2228 24.5H17.7767ZM18.1576 24.3423C18.017 24.2017 17.7767 24.3013 17.7767 24.5H18.2228C18.2228 24.6987 17.9826 24.7982 17.8421 24.6577L18.1576 24.3423ZM17.8762 24.3144C17.9646 24.2555 18.0824 24.2671 18.1576 24.3423L17.8421 24.6577C17.9173 24.7329 18.0352 24.7446 18.1236 24.6856L17.8762 24.3144ZM29.8861 17.3351C29.708 16.9195 29.1966 16.7675 28.8204 17.0183L29.0679 17.3895C29.2119 17.2934 29.4078 17.3516 29.4761 17.5108L29.8861 17.3351ZM31.3029 20.277C31.2083 20.277 31.1227 20.2206 31.0855 20.1336L30.6754 20.3094C30.783 20.5604 31.0298 20.7231 31.3029 20.7231V20.277ZM31.5203 19.9473C31.5872 20.1034 31.4727 20.277 31.3029 20.277V20.7231C31.7929 20.7231 32.1234 20.222 31.9303 19.7716L31.5203 19.9473ZM28.777 13.5005C28.777 13.5309 28.7832 13.5608 28.7951 13.5885L29.2051 13.4128C29.2169 13.4404 29.2231 13.4702 29.2231 13.5005H28.777ZM28.9999 13.7231C28.8768 13.7231 28.777 13.6233 28.777 13.5002H29.2231C29.2231 13.377 29.1232 13.277 28.9999 13.277V13.7231ZM28.7948 13.5879C28.83 13.6699 28.9107 13.7231 28.9999 13.7231V13.277C29.0891 13.277 29.1697 13.3302 29.2048 13.4122L28.7948 13.5879ZM27.1968 9.77699C26.7067 9.77699 26.3763 10.2781 26.5694 10.7285L26.9794 10.5528C26.9125 10.3967 27.027 10.2231 27.1968 10.2231V9.77699ZM27.1968 10.2231C27.2914 10.2231 27.3769 10.2795 27.4142 10.3664L27.8242 10.1907C27.7167 9.93973 27.4699 9.77699 27.1968 9.77699V10.2231Z" fill="#4ABE6B" mask="url(#bike-path-10-outside-3)"/>
        <circle cx="17.5" cy="24.5001" r="2.45" fill="#EBECF0" stroke="#DFE1E6" stroke-width="0.1"/>
        <path d="M11.0424 8.86934L9.46514 8.41869C8.73084 8.20889 7.99989 8.76024 7.99989 9.52392C7.99989 9.82878 8.121 10.1212 8.33656 10.3367L8.49989 10.5C8.82004 10.8202 9.25425 11 9.707 11H10.9999H14.9366C14.968 11 14.9904 10.9696 14.9811 10.9396C14.5836 9.66205 13.3486 8.83499 12.0159 8.95398L11.9738 8.95773C11.6605 8.9857 11.3448 8.95574 11.0424 8.86934Z" fill="url(#bike-paint0_linear)"/>
        <path d="M24.0002 9.50017H27.5002C27.7764 9.50017 28.0002 9.72403 28.0002 10.0002C28.0002 10.2763 27.7764 10.5002 27.5002 10.5002H24.0002V9.50017Z" fill="#DFE1E6"/>
        <rect x="23.0002" y="9.00014" width="3" height="2" rx="1" fill="#344563"/>
        <circle cx="33.0003" cy="24.0001" r="1" fill="#EBECF0"/>
        <path d="M17.0002 24.5001H18.0002L19.5002 29.0001H18.5002L17.0002 24.5001Z" fill="#DFE1E6"/>
        <rect x="17" y="28.0001" width="4" height="1" rx="0.5" fill="#344563"/>
        <circle cx="17.5001" cy="24.5001" r="0.5" fill="#7A869A"/>
    </g>
    <defs>
        <linearGradient id="bike-paint0_linear" x1="11.4999" y1="11.6375" x2="9.99661" y2="7.1912" gradientUnits="userSpaceOnUse">
            <stop stop-color="#A76013"/>
            <stop offset="1" stop-color="#E99B26"/>
        </linearGradient>
        <clipPath id="bike-clip0">
            <rect width="40" height="40" fill="white"/>
        </clipPath>
    </defs>
</svg>
