<svg class="icon" viewBox="0 0 20 20" fill="none" xmlns="http://www.w3.org/2000/svg">
<g clip-path="url(#blue-gem-clip0)">
<mask id="blue-gem-mask0" mask-type="alpha" maskUnits="userSpaceOnUse" x="1" y="0" width="18" height="20">
<path d="M2.2256 9.0703L8.91549 1.26543C9.48562 0.600268 10.5147 0.600269 11.0848 1.26543L17.7747 9.0703C18.2332 9.60528 18.2332 10.3947 17.7747 10.9297L11.0848 18.7346C10.5147 19.3997 9.48562 19.3997 8.91549 18.7346L2.2256 10.9297C1.76704 10.3947 1.76704 9.60528 2.2256 9.0703Z" fill="#C4C4C4"/>
</mask>
<g mask="url(#blue-gem-mask0)">
<path d="M1.42871 10H10.0001V0L1.42871 10Z" fill="#00A0DF"/>
<path d="M18.5713 10H9.99986V0L18.5713 10Z" fill="#007CBF"/>
<path d="M4.28516 10H9.99944V0L4.28516 10Z" fill="#66C6EC"/>
<path d="M15.7139 10H9.99958V0L15.7139 10Z" fill="#99D9F2"/>
<path d="M1.42871 10H10.0001V20L1.42871 10Z" fill="#99D9F2"/>
<path d="M18.5713 10H9.99986V20L18.5713 10Z" fill="#00A0DF"/>
<path d="M4.28516 10H9.99944V20L4.28516 10Z" fill="#CFF6FF"/>
<path d="M15.7139 10H9.99958V20L15.7139 10Z" fill="#66C6EC"/>
</g>
</g>
<defs>
<clipPath id="blue-gem-clip0">
<rect width="20" height="20" fill="white"/>
</clipPath>
</defs>
</svg>
