<svg class="icon" viewBox="0 0 1447 849" version="1.1" xmlns="http://www.w3.org/2000/svg">
  <path fill="#34d484" stroke="#34d484" stroke-width="1" opacity="1" d="M 1 1 L 248.5 1 L 249.5 2 L 258.5 2 L 259.5 3 L 271.5 4 Q 343 20.5 383 68.5 Q 404.9 93.1 418 126.5 L 424 144.5 L 429 167.5 L 430 185.5 L 431 186.5 L 431 208.5 L 430 209.5 L 430 219.5 L 429 220.5 L 428 233.5 L 423 254.5 L 414 278.5 L 402 301.5 Q 430.9 329.1 447 369.5 L 453 387.5 L 458 409.5 L 459 426.5 L 460 427.5 L 460 454.5 L 459 455.5 L 458 472.5 L 452 498.5 Q 446 518 437 534.5 Q 419 567.5 391.5 591 Q 368.2 611.2 337.5 624 L 309.5 633 L 286.5 637 L 277.5 637 L 276.5 638 L 1 638 L 1 1 Z M 151 150 L 151 245 L 239 245 L 249 243 L 264 235 L 276 221 L 280 211 L 281 200 L 282 199 L 279 182 L 271 168 Q 262 155 244 151 Q 238 153 237 150 L 151 150 Z M 151 394 L 151 488 L 273 488 Q 285 485 294 478 L 305 465 L 310 452 Q 309 446 311 445 Q 311 424 302 414 Q 291 398 269 394 L 151 394 Z " />
  <path fill="#34d484" stroke="#34d484" stroke-width="1" opacity="1" d="M 1160.5 1 L 1162 1.5 L 1162 638 L 1013.5 638 L 1013 637.5 L 1013 33.5 L 1014.5 32 Q 1020.6 32.6 1023.5 30 L 1037.5 28 L 1042.5 26 L 1051.5 25 L 1056.5 23 L 1084.5 18 L 1089.5 16 L 1117.5 11 L 1160.5 1 Z " />
  <path fill="#34d484" stroke="#34d484" stroke-width="1" opacity="1" d="M 1368.5 76 L 1371 76.5 L 1371 191 L 1445.5 191 L 1446 191.5 L 1446 340 L 1371 340 L 1371 471.5 L 1372 472.5 L 1373 484.5 L 1377 496.5 Q 1381.5 507.5 1390.5 514 Q 1401.8 522.7 1424.5 520 L 1446 516 L 1446 625.5 L 1444.5 627 Q 1425.6 637.1 1401.5 642 L 1389.5 643 L 1388.5 644 L 1355.5 644 L 1354.5 643 L 1345.5 643 L 1344.5 642 L 1333.5 641 L 1303.5 632 Q 1273.7 619.3 1254 596.5 Q 1238.7 578.8 1230 554.5 L 1224 532.5 L 1223 520.5 L 1222 519.5 L 1222 509.5 L 1221 508.5 L 1221 108.5 L 1222.5 107 L 1283.5 95 L 1288.5 93 L 1363.5 78 L 1368.5 76 Z " />
  <path fill="#34d484" stroke="#34d484" stroke-width="1" opacity="1" d="M 720.5 182 L 750.5 182 L 751.5 183 L 761.5 183 L 762.5 184 L 775.5 185 Q 804.7 190.3 828.5 201 Q 874.3 221.7 906 256.5 Q 936 288.5 953 333.5 Q 960.1 352.9 964 375.5 L 965 389.5 L 966 390.5 L 967 420.5 L 966 421.5 L 965 444.5 L 962 461.5 Q 956.8 485.3 948 505.5 Q 926.2 554.2 888.5 587 Q 853.3 618.8 802.5 635 L 777.5 641 L 756.5 643 L 755.5 644 L 715.5 644 L 714.5 643 L 693.5 641 L 668.5 635 Q 643.9 627.6 623.5 616 Q 586.7 595.3 560 564.5 Q 532.6 533.4 517 490.5 L 509 462.5 L 506 445.5 L 505 425.5 L 504 424.5 L 504 402.5 L 505 401.5 L 506 381.5 L 510 359.5 L 524 318.5 Q 545.1 272.6 580.5 241 Q 609.8 214.3 649.5 198 L 685.5 187 L 701.5 184 L 708.5 184 L 709.5 183 L 719.5 183 L 720.5 182 Z M 727 338 L 708 343 L 689 354 Q 677 363 670 376 L 663 392 L 660 407 Q 659 427 665 441 Q 671 454 680 465 Q 696 483 725 488 L 747 488 L 760 485 L 782 473 L 800 453 L 808 435 L 811 418 L 811 409 L 808 392 Q 803 376 794 366 Q 782 351 764 343 L 745 338 L 727 338 Z " />
  <path fill="#34d484" stroke="#34d484" stroke-width="1" opacity="1" d="M 726.5 699 L 744.5 699 L 763.5 704 Q 782.3 711.7 794 726.5 Q 802.5 736.5 807 750.5 L 810 763.5 L 810 783.5 Q 804.1 816.6 781.5 833 Q 770.6 841.6 755.5 846 L 746.5 848 L 724.5 848 Q 692.3 841.7 676 819.5 Q 667.4 808.6 663 793.5 L 661 784.5 L 661 763.5 Q 666.7 731.2 688.5 715 Q 697.5 707.5 709.5 703 L 726.5 699 Z " />
</svg>
