<svg class="icon"
     viewBox="0 0 24 24"
     fill="none"
     xmlns="http://www.w3.org/2000/svg"
>
  <path fill-rule="evenodd"
        clip-rule="evenodd"
        d="M1.5 5.5H7.5C7.63261 5.5 7.75979 5.44732 7.85355 5.35355C7.94732 5.25979 8 5.13261 8 5V4C8 3.73478 7.89464 3.48043 7.70711 3.29289C7.51957 3.10536 7.26522 3 7 3H5.25C5.11739 3 4.99021 2.94732 4.89645 2.85355C4.80268 2.75979 4.75 2.63261 4.75 2.5V1C4.75 0.734784 4.64464 0.48043 4.45711 0.292893C4.26957 0.105357 4.01522 0 3.75 0C3.48478 0 3.23043 0.105357 3.04289 0.292893C2.85536 0.48043 2.75 0.734784 2.75 1V2.5C2.75 2.63261 2.69732 2.75979 2.60355 2.85355C2.50979 2.94732 2.38261 3 2.25 3H2C1.73478 3 1.48043 3.10536 1.29289 3.29289C1.10536 3.48043 1 3.73478 1 4V5C1 5.13261 1.05268 5.25979 1.14645 5.35355C1.24021 5.44732 1.36739 5.5 1.5 5.5ZM17.5 8H22.5C22.6326 8 22.7598 7.94732 22.8536 7.85355C22.9473 7.75979 23 7.63261 23 7.5V7C23 6.73478 22.8946 6.48043 22.7071 6.29289C22.5196 6.10536 22.2652 6 22 6H18C17.7348 6 17.4804 6.10536 17.2929 6.29289C17.1054 6.48043 17 6.73478 17 7V7.5C17 7.63261 17.0527 7.75979 17.1464 7.85355C17.2402 7.94732 17.3674 8 17.5 8ZM1 7H8C8.26522 7 8.51957 7.10536 8.70711 7.29289C8.89464 7.48043 9 7.73478 9 8V23C9 23.2652 8.89464 23.5196 8.70711 23.7071C8.51957 23.8946 8.26522 24 8 24H6.5C6.36739 24 6.24021 23.9473 6.14645 23.8536C6.05268 23.7598 6 23.6326 6 23.5V21.5C6 21.2348 5.89464 20.9804 5.70711 20.7929C5.51957 20.6054 5.26522 20.5 5 20.5H4C3.73478 20.5 3.48043 20.6054 3.29289 20.7929C3.10536 20.9804 3 21.2348 3 21.5V23.5C3 23.6326 2.94732 23.7598 2.85355 23.8536C2.75979 23.9473 2.63261 24 2.5 24H1C0.734784 24 0.48043 23.8946 0.292893 23.7071C0.105357 23.5196 0 23.2652 0 23V8C0 7.73478 0.105357 7.48043 0.292893 7.29289C0.48043 7.10536 0.734784 7 1 7ZM2.25 17.75H6.75C6.94891 17.75 7.13968 17.671 7.28033 17.5303C7.42098 17.3897 7.5 17.1989 7.5 17C7.5 16.8011 7.42098 16.6103 7.28033 16.4697C7.13968 16.329 6.94891 16.25 6.75 16.25H2.25C2.05109 16.25 1.86032 16.329 1.71967 16.4697C1.57902 16.6103 1.5 16.8011 1.5 17C1.5 17.1989 1.57902 17.3897 1.71967 17.5303C1.86032 17.671 2.05109 17.75 2.25 17.75ZM2.25 14.25H6.75C6.94891 14.25 7.13968 14.171 7.28033 14.0303C7.42098 13.8897 7.5 13.6989 7.5 13.5C7.5 13.3011 7.42098 13.1103 7.28033 12.9697C7.13968 12.829 6.94891 12.75 6.75 12.75H2.25C2.05109 12.75 1.86032 12.829 1.71967 12.9697C1.57902 13.1103 1.5 13.3011 1.5 13.5C1.5 13.6989 1.57902 13.8897 1.71967 14.0303C1.86032 14.171 2.05109 14.25 2.25 14.25ZM2.25 10.75H6.75C6.94891 10.75 7.13968 10.671 7.28033 10.5303C7.42098 10.3897 7.5 10.1989 7.5 10C7.5 9.80109 7.42098 9.61032 7.28033 9.46967C7.13968 9.32902 6.94891 9.25 6.75 9.25H2.25C2.05109 9.25 1.86032 9.32902 1.71967 9.46967C1.57902 9.61032 1.5 9.80109 1.5 10C1.5 10.1989 1.57902 10.3897 1.71967 10.5303C1.86032 10.671 2.05109 10.75 2.25 10.75ZM23 9.5H17C16.7348 9.5 16.4804 9.60536 16.2929 9.79289C16.1054 9.98043 16 10.2348 16 10.5V23C16 23.2652 16.1054 23.5196 16.2929 23.7071C16.4804 23.8946 16.7348 24 17 24H18C18.1326 24 18.2598 23.9473 18.3536 23.8536C18.4473 23.7598 18.5 23.6326 18.5 23.5V21.5C18.5 21.2348 18.6054 20.9804 18.7929 20.7929C18.9804 20.6054 19.2348 20.5 19.5 20.5H20.5C20.7652 20.5 21.0196 20.6054 21.2071 20.7929C21.3946 20.9804 21.5 21.2348 21.5 21.5V23.5C21.5 23.6326 21.5527 23.7598 21.6464 23.8536C21.7402 23.9473 21.8674 24 22 24H23C23.2652 24 23.5196 23.8946 23.7071 23.7071C23.8946 23.5196 24 23.2652 24 23V10.5C24 10.2348 23.8946 9.98043 23.7071 9.79289C23.5196 9.60536 23.2652 9.5 23 9.5ZM21.75 17.75H18.25C18.0511 17.75 17.8603 17.671 17.7197 17.5303C17.579 17.3897 17.5 17.1989 17.5 17C17.5 16.8011 17.579 16.6103 17.7197 16.4697C17.8603 16.329 18.0511 16.25 18.25 16.25H21.75C21.9489 16.25 22.1397 16.329 22.2803 16.4697C22.421 16.6103 22.5 16.8011 22.5 17C22.5 17.1989 22.421 17.3897 22.2803 17.5303C22.1397 17.671 21.9489 17.75 21.75 17.75ZM21.75 13.75H18.25C18.0511 13.75 17.8603 13.671 17.7197 13.5303C17.579 13.3897 17.5 13.1989 17.5 13C17.5 12.8011 17.579 12.6103 17.7197 12.4697C17.8603 12.329 18.0511 12.25 18.25 12.25H21.75C21.9489 12.25 22.1397 12.329 22.2803 12.4697C22.421 12.6103 22.5 12.8011 22.5 13C22.5 13.1989 22.421 13.3897 22.2803 13.5303C22.1397 13.671 21.9489 13.75 21.75 13.75ZM11 14H14C14.2761 14 14.5 14.2239 14.5 14.5V23.5C14.5 23.7761 14.2761 24 14 24H11C10.7239 24 10.5 23.7761 10.5 23.5V14.5C10.5 14.2239 10.7239 14 11 14Z"
        fill="#00A0DF"
  />
</svg>
