<svg class="icon" viewBox="0 0 24 32" fill="none" xmlns="http://www.w3.org/2000/svg">
  <path d="M13.2766 8.82992C14.498 8.82992 15.6063 9.32675 16.3979 10.1171C18.1168 11.8335 20.9214 11.8335 22.663 10.1171C24.382 8.40085 24.382 5.60056 22.663 3.86168C20.2655 1.49047 16.9407 0 13.2766 0C5.94847 0 0 5.93931 0 13.2562C0 16.9146 1.49277 20.2343 3.89026 22.6281L13.2766 32L22.663 22.6281C24.382 20.9118 24.382 18.1115 22.663 16.3726C20.9441 14.6563 18.1395 14.6563 16.3979 16.3726L13.2766 19.5116L10.1554 16.3726C9.36376 15.5822 8.86617 14.4757 8.86617 13.2562C8.84355 10.8172 10.8339 8.82992 13.2766 8.82992ZM8.59475 17.9534L13.2992 22.6507L18.0037 17.9534C18.8632 17.0953 20.2655 17.0953 21.125 17.9534C21.9845 18.8116 21.9845 20.2117 21.125 21.0699L13.2992 28.8836L5.45088 21.0699C3.46052 19.06 2.21654 16.3049 2.21654 13.2562C2.21654 7.15879 7.16983 2.21313 13.2766 2.21313C16.33 2.21313 19.0894 3.45519 21.1024 5.44248C21.9619 6.30064 21.9619 7.70078 21.1024 8.55893C20.2429 9.41708 18.8406 9.41708 17.9811 8.55893C16.7824 7.36203 15.1087 6.6168 13.2766 6.6168C9.61255 6.6168 6.62701 9.57516 6.62701 13.2562C6.64962 15.0854 7.37339 16.7565 8.59475 17.9534Z" fill="#7350FF"/>
</svg>
