<svg class="icon"
     width="24"
     height="24"
     viewBox="0 0 24 24"
     fill="none"
     xmlns="http://www.w3.org/2000/svg"
>
  <path d="M21 3C21 2.20435 20.6839 1.44129 20.1213 0.87868C19.5587 0.31607 18.7956 0 18 0L6 0C5.20435 0 4.44129 0.31607 3.87868 0.87868C3.31607 1.44129 3 2.20435 3 3V21C3 21.7956 3.31607 22.5587 3.87868 23.1213C4.44129 23.6839 5.20435 24 6 24H18C18.7956 24 19.5587 23.6839 20.1213 23.1213C20.6839 22.5587 21 21.7956 21 21V3ZM12 14C12.1978 14 12.3911 14.0586 12.5556 14.1685C12.72 14.2784 12.8482 14.4346 12.9239 14.6173C12.9996 14.8 13.0194 15.0011 12.9808 15.1951C12.9422 15.3891 12.847 15.5673 12.7071 15.7071C12.5673 15.847 12.3891 15.9422 12.1951 15.9808C12.0011 16.0194 11.8 15.9996 11.6173 15.9239C11.4346 15.8482 11.2784 15.72 11.1685 15.5556C11.0586 15.3911 11 15.1978 11 15C11 14.7348 11.1054 14.4804 11.2929 14.2929C11.4804 14.1054 11.7348 14 12 14ZM11 10.5C11 10.3022 11.0586 10.1089 11.1685 9.94443C11.2784 9.77998 11.4346 9.65181 11.6173 9.57612C11.8 9.50043 12.0011 9.48063 12.1951 9.51921C12.3891 9.5578 12.5673 9.65304 12.7071 9.79289C12.847 9.93275 12.9422 10.1109 12.9808 10.3049C13.0194 10.4989 12.9996 10.7 12.9239 10.8827C12.8482 11.0654 12.72 11.2216 12.5556 11.3315C12.3911 11.4414 12.1978 11.5 12 11.5C11.7348 11.5 11.4804 11.3946 11.2929 11.2071C11.1054 11.0196 11 10.7652 11 10.5ZM16.5 18.75C16.6989 18.75 16.8897 18.829 17.0303 18.9697C17.171 19.1103 17.25 19.3011 17.25 19.5C17.25 19.6989 17.171 19.8897 17.0303 20.0303C16.8897 20.171 16.6989 20.25 16.5 20.25H11C10.8011 20.25 10.6103 20.171 10.4697 20.0303C10.329 19.8897 10.25 19.6989 10.25 19.5C10.25 19.3011 10.329 19.1103 10.4697 18.9697C10.6103 18.829 10.8011 18.75 11 18.75H16.5ZM16.5 16C16.3022 16 16.1089 15.9414 15.9444 15.8315C15.78 15.7216 15.6518 15.5654 15.5761 15.3827C15.5004 15.2 15.4806 14.9989 15.5192 14.8049C15.5578 14.6109 15.653 14.4327 15.7929 14.2929C15.9327 14.153 16.1109 14.0578 16.3049 14.0192C16.4989 13.9806 16.7 14.0004 16.8827 14.0761C17.0654 14.1518 17.2216 14.28 17.3315 14.4444C17.4414 14.6089 17.5 14.8022 17.5 15C17.5 15.2652 17.3946 15.5196 17.2071 15.7071C17.0196 15.8946 16.7652 16 16.5 16ZM16.5 11.5C16.3022 11.5 16.1089 11.4414 15.9444 11.3315C15.78 11.2216 15.6518 11.0654 15.5761 10.8827C15.5004 10.7 15.4806 10.4989 15.5192 10.3049C15.5578 10.1109 15.653 9.93275 15.7929 9.79289C15.9327 9.65304 16.1109 9.5578 16.3049 9.51921C16.4989 9.48063 16.7 9.50043 16.8827 9.57612C17.0654 9.65181 17.2216 9.77998 17.3315 9.94443C17.4414 10.1089 17.5 10.3022 17.5 10.5C17.5 10.7652 17.3946 11.0196 17.2071 11.2071C17.0196 11.3946 16.7652 11.5 16.5 11.5ZM7.5 16C7.30222 16 7.10888 15.9414 6.94443 15.8315C6.77998 15.7216 6.65181 15.5654 6.57612 15.3827C6.50043 15.2 6.48063 14.9989 6.51921 14.8049C6.5578 14.6109 6.65304 14.4327 6.79289 14.2929C6.93275 14.153 7.11093 14.0578 7.30491 14.0192C7.49889 13.9806 7.69996 14.0004 7.88268 14.0761C8.06541 14.1518 8.22159 14.28 8.33147 14.4444C8.44135 14.6089 8.5 14.8022 8.5 15C8.5 15.2652 8.39464 15.5196 8.20711 15.7071C8.01957 15.8946 7.76522 16 7.5 16ZM8.5 19.5C8.5 19.6978 8.44135 19.8911 8.33147 20.0556C8.22159 20.22 8.06541 20.3482 7.88268 20.4239C7.69996 20.4996 7.49889 20.5194 7.30491 20.4808C7.11093 20.4422 6.93275 20.347 6.79289 20.2071C6.65304 20.0673 6.5578 19.8891 6.51921 19.6951C6.48063 19.5011 6.50043 19.3 6.57612 19.1173C6.65181 18.9346 6.77998 18.7784 6.94443 18.6685C7.10888 18.5586 7.30222 18.5 7.5 18.5C7.76522 18.5 8.01957 18.6054 8.20711 18.7929C8.39464 18.9804 8.5 19.2348 8.5 19.5ZM7.5 11.5C7.30222 11.5 7.10888 11.4414 6.94443 11.3315C6.77998 11.2216 6.65181 11.0654 6.57612 10.8827C6.50043 10.7 6.48063 10.4989 6.51921 10.3049C6.5578 10.1109 6.65304 9.93275 6.79289 9.79289C6.93275 9.65304 7.11093 9.5578 7.30491 9.51921C7.49889 9.48063 7.69996 9.50043 7.88268 9.57612C8.06541 9.65181 8.22159 9.77998 8.33147 9.94443C8.44135 10.1089 8.5 10.3022 8.5 10.5C8.5 10.7652 8.39464 11.0196 8.20711 11.2071C8.01957 11.3946 7.76522 11.5 7.5 11.5ZM6 2H18C18.2652 2 18.5196 2.10536 18.7071 2.29289C18.8946 2.48043 19 2.73478 19 3V6.25C19 6.3163 18.9737 6.37989 18.9268 6.42678C18.8799 6.47366 18.8163 6.5 18.75 6.5H5.25C5.1837 6.5 5.12011 6.47366 5.07322 6.42678C5.02634 6.37989 5 6.3163 5 6.25V3C5 2.73478 5.10536 2.48043 5.29289 2.29289C5.48043 2.10536 5.73478 2 6 2Z"
        fill="#00A0DF"
  />
</svg>
