<svg class="icon" viewBox="0 0 40 40" fill="none" xmlns="http://www.w3.org/2000/svg">
<g clip-path="url(#calendar-advance-week-clip0_35605_3128)">
<path d="M3.125 12.5L36.875 12.5L36.875 36.25C36.875 38.3211 35.1961 40 33.125 40L6.875 40C4.80393 40 3.125 38.3211 3.125 36.25L3.125 12.5Z" fill="#EBECF0"/>
<path fill-rule="evenodd" clip-rule="evenodd" d="M35.625 13.75L4.375 13.75L4.375 36.25C4.375 37.6307 5.49429 38.75 6.875 38.75L33.125 38.75C34.5057 38.75 35.625 37.6307 35.625 36.25L35.625 13.75ZM3.125 12.5L3.125 36.25C3.125 38.3211 4.80393 40 6.875 40L33.125 40C35.1961 40 36.875 38.3211 36.875 36.25L36.875 12.5L3.125 12.5Z" fill="#DFE1E6"/>
<path d="M0.625 7.5L39.375 7.5L39.375 32.5C39.375 35.2614 37.1364 37.5 34.375 37.5L5.625 37.5C2.86358 37.5 0.625 35.2614 0.625 32.5L0.625 7.5Z" fill="white"/>
<path fill-rule="evenodd" clip-rule="evenodd" d="M38.125 8.75L1.875 8.75L1.875 32.5C1.875 34.5711 3.55393 36.25 5.625 36.25L34.375 36.25C36.4461 36.25 38.125 34.5711 38.125 32.5L38.125 8.75ZM0.625 7.5L0.625 32.5C0.625 35.2614 2.86358 37.5 5.625 37.5L34.375 37.5C37.1364 37.5 39.375 35.2614 39.375 32.5L39.375 7.5L0.625 7.5Z" fill="#F4F5F7"/>
<path d="M0.625 5C0.625 2.23858 2.86358 0 5.625 0L34.375 0C37.1364 0 39.375 2.23858 39.375 5V8.75L0.625 8.75L0.625 5Z" fill="#EB4B68"/>
<path d="M8.125 8.75H9.375L9.375 36.25H8.125L8.125 8.75Z" fill="#F4F5F7"/>
<path d="M15.625 8.75H16.875L16.875 36.25H15.625L15.625 8.75Z" fill="#F4F5F7"/>
<path d="M23.125 8.75H24.375L24.375 36.25H23.125L23.125 8.75Z" fill="#F4F5F7"/>
<path d="M30.625 8.75H31.875L31.875 36.25H30.625L30.625 8.75Z" fill="#F4F5F7"/>
<path d="M39.375 15L39.375 16.25L1.875 16.25L1.875 15L39.375 15Z" fill="#F4F5F7"/>
<path d="M39.375 22.5L39.375 23.75L1.875 23.75L1.875 22.5L39.375 22.5Z" fill="#F4F5F7"/>
<path d="M39.375 30L39.375 31.25L1.875 31.25L1.875 30L39.375 30Z" fill="#F4F5F7"/>
<path d="M10.625 4.375C10.625 3.68464 11.1846 3.125 11.875 3.125L28.125 3.125C28.8154 3.125 29.375 3.68464 29.375 4.375C29.375 5.06536 28.8154 5.625 28.125 5.625L11.875 5.625C11.1846 5.625 10.625 5.06536 10.625 4.375Z" fill="#CA365F"/>
<path d="M6.75 26.875C6.75 27.9105 5.91053 28.75 4.875 28.75C3.83947 28.75 3 27.9105 3 26.875C3 25.8395 3.83947 25 4.875 25C5.91053 25 6.75 25.8395 6.75 26.875Z" fill="#EB4B68"/>
<rect x="3" y="18" width="34" height="2" rx="1" fill="#F99493"/>
</g>
<defs>
<clipPath id="calendar-advance-week-clip0_35605_3128">
<rect width="40" height="40" fill="white"/>
</clipPath>
</defs>
</svg>
