<svg class="icon" viewBox="0 0 32 32" fill="none" xmlns="http://www.w3.org/2000/svg">
<g clip-path="url(#calendar-error-clip0)">
<path d="M2.45968 8.23062H22.8403V22.7322C22.8403 23.8145 21.963 24.6919 20.8807 24.6919H4.41936C3.33706 24.6919 2.45968 23.8145 2.45968 22.7322V8.23062Z" fill="#EBECF0" stroke="#DFE1E6" stroke-width="0.783871"/>
<path d="M0.891935 5.09524H24.4081V20.3807C24.4081 21.8959 23.1797 23.1243 21.6645 23.1243H3.63549C2.12027 23.1243 0.891935 21.8959 0.891935 20.3807V5.09524Z" fill="white" stroke="#F4F5F7" stroke-width="0.783871"/>
<path d="M0.5 3.13548C0.5 1.4038 1.9038 0 3.63548 0H21.6645C23.3962 0 24.8 1.4038 24.8 3.13548V5.4871H0.5V3.13548Z" fill="#EB4B68"/>
<rect x="5.20325" y="5.48712" width="0.783871" height="17.2452" fill="#F4F5F7"/>
<rect x="9.90643" y="5.48712" width="0.783871" height="17.2452" fill="#F4F5F7"/>
<rect x="14.6097" y="5.48712" width="0.783871" height="17.2452" fill="#F4F5F7"/>
<rect x="19.3129" y="5.48712" width="0.783871" height="17.2452" fill="#F4F5F7"/>
<rect x="24.8" y="9.40643" width="0.783872" height="23.5161" transform="rotate(90 24.8 9.40643)" fill="#F4F5F7"/>
<rect x="24.8" y="14.1097" width="0.783872" height="23.5161" transform="rotate(90 24.8 14.1097)" fill="#F4F5F7"/>
<rect x="24.8" y="18.8129" width="0.783872" height="23.5161" transform="rotate(90 24.8 18.8129)" fill="#F4F5F7"/>
<rect x="6.771" y="1.95978" width="11.7581" height="1.56774" rx="0.783871" fill="#CA365F"/>
<circle cx="17.3532" cy="12.15" r="1.17581" fill="#EB4B68"/>
<g clip-path="url(#calendar-error-clip1)">
<circle cx="24.4" cy="23.6" r="7.6" fill="#FEE2DB"/>
<path d="M27.8945 20.1052C25.9637 18.1769 22.8349 18.1785 20.9058 20.1085C18.9767 22.0385 18.9784 25.1663 20.9091 27.0946C22.8386 29.0218 25.965 29.0218 27.8945 27.0946C29.8219 25.1634 29.8219 22.0365 27.8945 20.1052ZM26.3374 24.9504C26.4895 25.1197 26.4755 25.38 26.3061 25.532C26.15 25.672 25.9135 25.6724 25.7569 25.5332L24.4755 24.2523C24.4351 24.2124 24.37 24.2124 24.3297 24.2523L23.0487 25.5332C22.886 25.6902 22.6284 25.6902 22.4657 25.5332C22.3046 25.3726 22.3046 25.1119 22.4653 24.9508L22.4657 24.9504L23.7471 23.6699C23.787 23.63 23.7875 23.5649 23.7475 23.525L23.7471 23.5245L22.4657 22.2436C22.3124 22.0752 22.3248 21.8149 22.4933 21.6617C22.6499 21.5192 22.8893 21.5188 23.0466 21.6608L24.3276 22.9418C24.368 22.9821 24.4331 22.9821 24.4735 22.9418L25.7548 21.6608C25.9159 21.5002 26.1767 21.5002 26.3374 21.6613C26.4981 21.8223 26.4981 22.083 26.3374 22.2436L25.0561 23.5245C25.0161 23.5649 25.0161 23.6296 25.0561 23.6699L26.3374 24.9504Z" fill="url(#calendar-error-paint0_linear)"/>
<path d="M26.3061 25.532C26.4754 25.3801 26.4894 25.1198 26.3374 24.9505L25.056 23.67C25.0161 23.6296 25.0161 23.565 25.056 23.5246L26.3374 22.2437C26.4981 22.0831 26.4981 21.8223 26.3374 21.6613C26.1767 21.5003 25.9159 21.5003 25.7548 21.6609L24.4734 22.9418C24.4331 22.9822 24.368 22.9822 24.3276 22.9418L23.0466 21.6609C22.8892 21.5188 22.6498 21.5192 22.4933 21.6617C22.3248 21.8149 22.3124 22.0752 22.4657 22.2437L23.747 23.5246L23.7475 23.525C23.7874 23.565 23.787 23.63 23.747 23.67L22.4657 24.9505L22.4653 24.9509C22.3046 25.1119 22.3046 25.3726 22.4657 25.5333C22.6284 25.6902 22.8859 25.6902 23.0487 25.5333L24.3296 24.2524C24.37 24.2124 24.4351 24.2124 24.4755 24.2524L25.7569 25.5333C25.9134 25.6725 26.1499 25.6721 26.3061 25.532Z" fill="white"/>
</g>
</g>
<defs>
<linearGradient id="calendar-error-paint0_linear" x1="24.4" y1="18.66" x2="23.1449" y2="38.8062" gradientUnits="userSpaceOnUse">
<stop stop-color="#EB4B68"/>
<stop offset="1" stop-color="#CA365F"/>
</linearGradient>
<clipPath id="calendar-error-clip0">
<rect width="32" height="32" fill="white"/>
</clipPath>
<clipPath id="calendar-error-clip1">
<rect width="15.2" height="15.2" fill="white" transform="translate(16.8 16)"/>
</clipPath>
</defs>
</svg>
