<svg class="icon" viewBox="0 0 40 40" fill="none" xmlns="http://www.w3.org/2000/svg">
<path d="M3.5 12.5L37.25 12.5L37.25 36.25C37.25 38.3211 35.5711 40 33.5 40L7.25 40C5.17893 40 3.5 38.3211 3.5 36.25L3.5 12.5Z" fill="#EBECF0"/>
<path fill-rule="evenodd" clip-rule="evenodd" d="M36 13.75L4.75 13.75L4.75 36.25C4.75 37.6307 5.86929 38.75 7.25 38.75L33.5 38.75C34.8807 38.75 36 37.6307 36 36.25L36 13.75ZM3.5 12.5L3.5 36.25C3.5 38.3211 5.17893 40 7.25 40L33.5 40C35.5711 40 37.25 38.3211 37.25 36.25L37.25 12.5L3.5 12.5Z" fill="#DFE1E6"/>
<path d="M1 7.5L39.75 7.5L39.75 32.5C39.75 35.2614 37.5114 37.5 34.75 37.5L6 37.5C3.23858 37.5 1 35.2614 1 32.5L1 7.5Z" fill="white"/>
<path fill-rule="evenodd" clip-rule="evenodd" d="M38.5 8.75L2.25 8.75L2.25 32.5C2.25 34.5711 3.92893 36.25 6 36.25L34.75 36.25C36.8211 36.25 38.5 34.5711 38.5 32.5L38.5 8.75ZM1 7.5L1 32.5C1 35.2614 3.23858 37.5 6 37.5L34.75 37.5C37.5114 37.5 39.75 35.2614 39.75 32.5L39.75 7.5L1 7.5Z" fill="#F4F5F7"/>
<path d="M1 5C1 2.23858 3.23858 0 6 0L34.75 0C37.5114 0 39.75 2.23858 39.75 5V8.75L1 8.75L1 5Z" fill="#EB4B68"/>
<path d="M8.5 8.75H9.75L9.75 36.25H8.5L8.5 8.75Z" fill="#F4F5F7"/>
<path d="M16 8.75H17.25L17.25 36.25H16L16 8.75Z" fill="#F4F5F7"/>
<path d="M23.5 8.75H24.75L24.75 36.25H23.5L23.5 8.75Z" fill="#F4F5F7"/>
<path d="M31 8.75H32.25L32.25 36.25H31L31 8.75Z" fill="#F4F5F7"/>
<path d="M39.75 15L39.75 16.25L2.25 16.25L2.25 15L39.75 15Z" fill="#F4F5F7"/>
<path d="M39.75 22.5L39.75 23.75L2.25 23.75L2.25 22.5L39.75 22.5Z" fill="#F4F5F7"/>
<path d="M39.75 30L39.75 31.25L2.25 31.25L2.25 30L39.75 30Z" fill="#F4F5F7"/>
<path d="M11 4.375C11 3.68464 11.5596 3.125 12.25 3.125L28.5 3.125C29.1904 3.125 29.75 3.68464 29.75 4.375C29.75 5.06536 29.1904 5.625 28.5 5.625L12.25 5.625C11.5596 5.625 11 5.06536 11 4.375Z" fill="#CA365F"/>
<path d="M30.125 26.875C30.125 27.9105 29.2855 28.75 28.25 28.75C27.2145 28.75 26.375 27.9105 26.375 26.875C26.375 25.8395 27.2145 25 28.25 25C29.2855 25 30.125 25.8395 30.125 26.875Z" fill="#EB4B68"/>
<rect x="3.375" y="26" width="17" height="2" rx="1" fill="#F99493"/>
<rect x="3.375" y="18" width="34" height="2" rx="1" fill="#F99493"/>
</svg>
