<svg class="icon"
     viewBox="0 0 40 40"
     fill="none"
     xmlns="http://www.w3.org/2000/svg"
>
    <path d="M3.75 13.125H36.25V36.25C36.25 37.9759 34.8509 39.375 33.125 39.375H6.875C5.14911 39.375 3.75 37.9759 3.75 36.25V13.125Z" fill="#EBECF0" stroke="#DFE1E6" stroke-width="1.25"/>
    <path d="M1.25 8.125H38.75V32.5C38.75 34.9162 36.7912 36.875 34.375 36.875H5.625C3.20875 36.875 1.25 34.9162 1.25 32.5V8.125Z" fill="white" stroke="#F4F5F7" stroke-width="1.25"/>
    <path d="M0.625 5C0.625 2.23858 2.86358 0 5.625 0H34.375C37.1364 0 39.375 2.23858 39.375 5V8.75H0.625V5Z" fill="#EB4B68"/>
    <rect x="8.125" y="8.75" width="1.25" height="27.5" fill="#F4F5F7"/>
    <rect x="15.625" y="8.75" width="1.25" height="27.5" fill="#F4F5F7"/>
    <rect x="23.125" y="8.75" width="1.25" height="27.5" fill="#F4F5F7"/>
    <rect x="30.625" y="8.75" width="1.25" height="27.5" fill="#F4F5F7"/>
    <rect x="39.375" y="15" width="1.25" height="37.5" transform="rotate(90 39.375 15)" fill="#F4F5F7"/>
    <rect x="39.375" y="22.5" width="1.25" height="37.5" transform="rotate(90 39.375 22.5)" fill="#F4F5F7"/>
    <rect x="39.375" y="30" width="1.25" height="37.5" transform="rotate(90 39.375 30)" fill="#F4F5F7"/>
    <rect x="10.625" y="3.125" width="18.75" height="2.5" rx="1.25" fill="#CA365F"/>
    <circle cx="27.5" cy="19.375" r="1.875" fill="#EB4B68"/>
</svg>
