<svg class="icon" viewBox="0 0 80 80" fill="none" xmlns="http://www.w3.org/2000/svg">
<path d="M8.85938 35.832L57.604 22.771L66.7951 57.0727C67.5966 60.0639 65.8215 63.1385 62.8302 63.94L24.9178 74.0986C21.9266 74.9001 18.852 73.125 18.0505 70.1338L8.85938 35.832Z" fill="#EBECF0"/>
<path fill-rule="evenodd" clip-rule="evenodd" d="M56.2823 25.0601L11.1485 37.1536L19.8559 69.65C20.3902 71.6442 22.4399 72.8276 24.434 72.2932L62.3465 62.1346C64.3406 61.6003 65.5241 59.5506 64.9897 57.5564L56.2823 25.0601ZM8.85938 35.832L18.0505 70.1338C18.852 73.125 21.9266 74.9001 24.9178 74.0986L62.8302 63.94C65.8215 63.1385 67.5966 60.0639 66.7951 57.0727L57.604 22.771L8.85938 35.832Z" fill="#DFE1E6"/>
<path d="M3.3125 29.5781L59.2785 14.5821L68.9534 50.6892C70.022 54.6775 67.6552 58.7769 63.6669 59.8456L22.1438 70.9717C18.1555 72.0403 14.056 69.6735 12.9874 65.6852L3.3125 29.5781Z" fill="white"/>
<path fill-rule="evenodd" clip-rule="evenodd" d="M57.9569 16.8712L5.6016 30.8997L14.7927 65.2015C15.5942 68.1927 18.6688 69.9678 21.66 69.1663L63.1832 58.0402C66.1744 57.2387 67.9495 54.1641 67.148 51.1729L57.9569 16.8712ZM3.3125 29.5781L12.9874 65.6852C14.056 69.6735 18.1555 72.0403 22.1438 70.9717L63.6669 59.8456C67.6552 58.7769 70.022 54.6775 68.9534 50.6892L59.2785 14.5821L3.3125 29.5781Z" fill="#F4F5F7"/>
<path d="M2.34513 25.9675C1.27647 21.9792 3.6433 17.8798 7.63158 16.8111L49.1547 5.68502C53.143 4.61637 57.2425 6.98319 58.3111 10.9715L59.7624 16.3875L3.79636 31.3836L2.34513 25.9675Z" fill="#EB4B68"/>
<path d="M14.6289 28.4814L16.4343 27.9977L27.0766 67.7155L25.2713 68.1992L14.6289 28.4814Z" fill="#F4F5F7"/>
<path d="M25.4609 25.5791L27.2663 25.0954L37.9086 64.8132L36.1033 65.2969L25.4609 25.5791Z" fill="#F4F5F7"/>
<path d="M36.293 22.6768L38.0983 22.193L48.7407 61.9108L46.9353 62.3946L36.293 22.6768Z" fill="#F4F5F7"/>
<path d="M47.125 19.7734L48.9304 19.2897L59.5727 59.0075L57.7674 59.4912L47.125 19.7734Z" fill="#F4F5F7"/>
<path d="M62.1816 25.4131L62.6654 27.2184L8.50474 41.7307L8.021 39.9254L62.1816 25.4131Z" fill="#F4F5F7"/>
<path d="M65.084 36.2461L65.5677 38.0515L11.4071 52.5638L10.9233 50.7584L65.084 36.2461Z" fill="#F4F5F7"/>
<path d="M67.9863 47.0781L68.4701 48.8835L14.3094 63.3958L13.8257 61.5904L67.9863 47.0781Z" fill="#F4F5F7"/>
<path d="M16.5462 21.194C16.2791 20.197 16.8708 19.1721 17.8679 18.9049L41.3375 12.6163C42.3345 12.3491 43.3594 12.9408 43.6266 13.9379V13.9379C43.8937 14.9349 43.302 15.9598 42.305 16.227L18.8353 22.5156C17.8383 22.7828 16.8134 22.1911 16.5462 21.194V21.194Z" fill="#CA365F"/>
<path d="M27.3682 41.5136C27.769 43.0092 26.8814 44.5465 25.3858 44.9473C23.8902 45.348 22.3529 44.4605 21.9522 42.9649C21.5514 41.4693 22.439 39.932 23.9346 39.5312C25.4302 39.1305 26.9675 40.018 27.3682 41.5136Z" fill="#EB4B68"/>
<path d="M65.4667 43.3449C58.3222 41.4306 50.9474 45.6885 49.033 52.833C47.1186 59.9775 51.3764 67.3524 58.5209 69.2668C65.6654 71.1811 73.0402 66.9232 74.9546 59.7787C76.9148 52.6464 72.6569 45.2715 65.4667 43.3449V43.3449Z" fill="url(#calendar-money-tilted-paint0_linear_38272_286272)"/>
<path d="M65.8534 41.9035C58.7089 39.9891 51.3341 44.2471 49.4197 51.3916C47.5053 58.5361 51.7632 65.911 58.9076 67.8254C66.0521 69.7397 73.4269 65.4818 75.3413 58.3373C77.3015 51.205 73.0436 43.8301 65.8534 41.9035V41.9035Z" fill="url(#calendar-money-tilted-paint1_linear_38272_286272)"/>
<path fill-rule="evenodd" clip-rule="evenodd" d="M74.0161 48.1466L50.7665 61.5698C52.4847 64.5459 55.3353 66.8682 58.9075 67.8253C66.0519 69.7397 73.4268 65.4818 75.3411 58.3372C76.3236 54.7625 75.744 51.1267 74.0161 48.1466Z" fill="url(#calendar-money-tilted-paint2_linear_38272_286272)"/>
<path opacity="0.5" fill-rule="evenodd" clip-rule="evenodd" d="M51.1228 51.849C52.794 45.6118 59.2309 41.8954 65.468 43.5667C71.7408 45.2474 75.4609 51.6831 73.7498 57.9133C72.078 64.1496 65.6416 67.8654 59.4049 66.1943C53.1679 64.5231 49.4515 58.0861 51.1228 51.849ZM65.1931 44.5927C59.5227 43.0734 53.6682 46.4535 52.1488 52.1239C50.6295 57.7944 54.0095 63.6488 59.6799 65.1682C65.3503 66.6876 71.2047 63.3075 72.7241 57.637L72.725 57.6337C74.2795 51.9774 70.9034 46.1228 65.1931 44.5927Z" fill="#E99B26"/>
<path d="M64.5995 48.7387C65.9313 49.2893 66.9151 50.1726 67.2692 51.1972C67.3243 51.4056 67.3449 51.6048 67.2868 51.8217C67.1416 52.3638 66.6113 52.6865 66.0937 52.5478C65.8522 52.4831 65.6494 52.2738 65.4756 51.9561C65.0688 51.2661 64.2878 50.592 63.3217 50.3331C61.8724 49.9448 61.1611 50.5289 60.9675 51.2517C60.3283 53.637 66.9431 54.2086 65.7326 58.7262C65.2 60.7139 63.6437 61.6914 61.264 61.3249L60.9929 62.3368C60.867 62.8067 60.3809 63.1025 59.9323 62.9823C59.4837 62.8621 59.2452 62.3721 59.3711 61.9023L59.6422 60.8904C58.0096 60.2205 56.9501 58.9295 56.6347 57.7604C56.6044 57.5973 56.5838 57.3981 56.6322 57.2174C56.7775 56.6753 57.3077 56.3526 57.8253 56.4912C58.2049 56.5929 58.3538 56.8653 58.4779 57.0922C58.9992 58.0453 59.7662 58.9093 60.9394 59.2237C62.5267 59.649 63.4311 59.3103 63.7313 58.1899C64.4382 55.5517 57.8041 55.0523 58.9661 50.7155C59.4019 49.0891 60.7361 47.9747 63.0122 48.3134L63.293 47.2653C63.4189 46.7955 63.905 46.4997 64.3191 46.6106C64.7677 46.7308 65.0407 47.2301 64.9148 47.6999L64.634 48.748L64.5995 48.7387Z" fill="#A76013"/>
<path d="M53.1245 23.7282C46.693 25.4515 42.86 32.0905 44.5833 38.5221C46.3067 44.9536 52.9456 48.7867 59.3771 47.0633C65.8086 45.34 69.6416 38.7011 67.9182 32.2695C66.2361 25.8269 59.5972 21.9938 53.1245 23.7282V23.7282Z" fill="url(#calendar-money-tilted-paint3_linear_38272_286272)"/>
<path d="M52.7768 22.4313C46.3453 24.1547 42.5123 30.7936 44.2357 37.2252C45.959 43.6568 52.5979 47.4898 59.0294 45.7665C65.461 44.0431 69.2939 37.4042 67.5706 30.9726C65.8885 24.53 59.2496 20.697 52.7768 22.4313V22.4313Z" fill="url(#calendar-money-tilted-paint4_linear_38272_286272)"/>
<path fill-rule="evenodd" clip-rule="evenodd" d="M61.95 23.6249L49.8663 44.5545C52.5454 46.1012 55.813 46.6287 59.0287 45.767C65.4602 44.0437 69.2932 37.4047 67.5698 30.9732C66.7268 27.744 64.6385 25.1705 61.95 23.6249Z" fill="url(#calendar-money-tilted-paint5_linear_38272_286272)"/>
<path opacity="0.5" fill-rule="evenodd" clip-rule="evenodd" d="M45.77 36.8147C44.2656 31.2 47.611 25.4053 53.2257 23.9009C58.8725 22.3878 64.6695 25.7307 66.1398 31.3579C67.6434 36.9723 64.298 42.7662 58.6837 44.2705C53.0691 45.775 47.2745 42.4294 45.77 36.8147ZM53.4732 24.8246C48.3687 26.1923 45.3259 31.4626 46.6937 36.5672C48.0615 41.6718 53.3317 44.7146 58.4362 43.3468C63.5408 41.9791 66.5835 36.7088 65.2158 31.6042L65.215 31.6013C63.881 26.4919 58.6138 23.4472 53.4732 24.8246Z" fill="#E99B26"/>
<path d="M54.8765 28.3234C56.1626 28.1531 57.3271 28.399 58.0644 29.0384C58.2012 29.1761 58.3069 29.3221 58.3592 29.5173C58.49 30.0053 58.2218 30.4956 57.7559 30.6204C57.5385 30.6787 57.2862 30.6068 57.0077 30.4373C56.3799 30.0825 55.4677 29.9085 54.598 30.1415C53.2933 30.4911 53.0017 31.2666 53.1761 31.9173C53.7514 34.0646 59.1656 31.5329 60.2553 35.5997C60.7348 37.389 59.9614 38.8516 57.9413 39.637L58.1854 40.5479C58.2987 40.9709 58.0529 41.4203 57.6491 41.5285C57.2453 41.6367 56.8387 41.3621 56.7254 40.9391L56.4813 40.0282C54.907 40.2408 53.4999 39.7112 52.7278 38.9417C52.6308 38.8282 52.5251 38.6822 52.4815 38.5195C52.3507 38.0315 52.6189 37.5412 53.0848 37.4164C53.4265 37.3248 53.6652 37.4701 53.8641 37.5911C54.6994 38.0996 55.6863 38.4279 56.7425 38.1449C58.1713 37.7621 58.7239 37.091 58.4537 36.0824C57.8173 33.7074 52.4206 36.3042 51.3745 32.4001C50.9822 30.936 51.5207 29.4667 53.4476 28.7063L53.1948 27.7628C53.0815 27.3398 53.3273 26.8904 53.7001 26.7905C54.1039 26.6823 54.5414 26.9486 54.6548 27.3716L54.9076 28.3151L54.8765 28.3234Z" fill="#A76013"/>
<defs>
<linearGradient id="calendar-money-tilted-paint0_linear_38272_286272" x1="56.7846" y1="75.7473" x2="62.3798" y2="54.8658" gradientUnits="userSpaceOnUse">
<stop stop-color="#A76013"/>
<stop offset="0.551319" stop-color="#E99B26"/>
</linearGradient>
<linearGradient id="calendar-money-tilted-paint1_linear_38272_286272" x1="51.5848" y1="95.3826" x2="65.9104" y2="41.9188" gradientUnits="userSpaceOnUse">
<stop stop-color="#E99B26"/>
<stop offset="1" stop-color="#FAC34B"/>
</linearGradient>
<linearGradient id="calendar-money-tilted-paint2_linear_38272_286272" x1="59.2316" y1="67.9122" x2="74.1213" y2="48.6336" gradientUnits="userSpaceOnUse">
<stop stop-color="#E99B26" stop-opacity="0.26"/>
<stop offset="1" stop-color="#FAC34B"/>
</linearGradient>
<linearGradient id="calendar-money-tilted-paint3_linear_38272_286272" x1="60.9404" y1="52.8971" x2="55.9035" y2="34.0993" gradientUnits="userSpaceOnUse">
<stop stop-color="#A76013"/>
<stop offset="0.551319" stop-color="#E99B26"/>
</linearGradient>
<linearGradient id="calendar-money-tilted-paint4_linear_38272_286272" x1="65.7242" y1="70.5463" x2="52.8281" y2="22.4176" gradientUnits="userSpaceOnUse">
<stop stop-color="#E99B26"/>
<stop offset="1" stop-color="#FAC34B"/>
</linearGradient>
<linearGradient id="calendar-money-tilted-paint5_linear_38272_286272" x1="59.3205" y1="45.6888" x2="62.2512" y2="23.9572" gradientUnits="userSpaceOnUse">
<stop stop-color="#E99B26" stop-opacity="0.26"/>
<stop offset="1" stop-color="#FAC34B"/>
</linearGradient>
</defs>
</svg>
