<svg class="icon" viewBox="0 0 143 115" fill="none" xmlns="http://www.w3.org/2000/svg">
<g filter="url(#filter0_d)">
<mask id="path-1-outside-1" maskUnits="userSpaceOnUse" x="13.1159" y="10.0055" width="83.5369" height="84.9639" fill="black">
<rect fill="white" x="13.1159" y="10.0055" width="83.5369" height="84.9639"/>
<path fill-rule="evenodd" clip-rule="evenodd" d="M25.4353 28.1641C21.3295 29.2412 18.8743 33.4427 19.9514 37.5485L20.9264 41.265C20.9265 41.2653 20.9263 41.2656 20.926 41.2657C20.9256 41.2658 20.9254 41.2661 20.9255 41.2664L30.6766 78.4365C31.978 83.3974 37.9346 88.4511 42.8954 87.1497L81.9246 76.911C86.8862 75.6094 89.5927 68.2837 88.2911 63.3222L79.0276 28.0106C79.0275 28.0102 79.0277 28.0099 79.028 28.0098C79.0283 28.0097 79.0285 28.0094 79.0284 28.0091L77.5659 22.4341C76.4888 18.3283 72.2873 15.8731 68.1815 16.9502L25.4353 28.1641Z"/>
</mask>
<path fill-rule="evenodd" clip-rule="evenodd" d="M25.4353 28.1641C21.3295 29.2412 18.8743 33.4427 19.9514 37.5485L20.9264 41.265C20.9265 41.2653 20.9263 41.2656 20.926 41.2657C20.9256 41.2658 20.9254 41.2661 20.9255 41.2664L30.6766 78.4365C31.978 83.3974 37.9346 88.4511 42.8954 87.1497L81.9246 76.911C86.8862 75.6094 89.5927 68.2837 88.2911 63.3222L79.0276 28.0106C79.0275 28.0102 79.0277 28.0099 79.028 28.0098C79.0283 28.0097 79.0285 28.0094 79.0284 28.0091L77.5659 22.4341C76.4888 18.3283 72.2873 15.8731 68.1815 16.9502L25.4353 28.1641Z" fill="white"/>
<path d="M25.4353 28.1641L24.4203 24.295L25.4353 28.1641ZM68.1815 16.9502L69.1965 20.8193L68.1815 16.9502ZM23.8205 36.5335C23.3039 34.5645 24.4814 32.5497 26.4503 32.0332L24.4203 24.295C18.1777 25.9327 14.4447 32.3209 16.0823 38.5635L23.8205 36.5335ZM24.7955 40.25L23.8205 36.5335L16.0823 38.5635L17.0573 42.28L24.7955 40.25ZM17.0564 42.2814L26.8075 79.4515L34.5457 77.4215L24.7946 40.2514L17.0564 42.2814ZM43.9104 91.0188L82.9396 80.78L80.9096 73.0419L41.8804 83.2806L43.9104 91.0188ZM92.1602 62.3072L82.8967 26.9956L75.1585 29.0256L84.422 64.3372L92.1602 62.3072ZM73.6968 23.4491L75.1594 29.0241L82.8975 26.9941L81.435 21.4191L73.6968 23.4491ZM69.1965 20.8193C71.1655 20.3027 73.1803 21.4802 73.6968 23.4491L81.435 21.4191C79.7973 15.1765 73.4091 11.4435 67.1665 13.0811L69.1965 20.8193ZM26.4503 32.0332L69.1965 20.8193L67.1665 13.0811L24.4203 24.295L26.4503 32.0332ZM80.043 31.8789C82.18 31.3183 83.4582 29.1314 82.8975 26.9941L75.1594 29.0241C74.5988 26.8874 75.8766 24.7012 78.013 24.1407L80.043 31.8789ZM82.8967 26.9956C83.4595 29.1409 82.1706 31.3208 80.043 31.8789L78.013 24.1407C75.8847 24.6991 74.5955 26.8795 75.1585 29.0256L82.8967 26.9956ZM26.8075 79.4515C27.7252 82.9497 30.1472 86.1703 32.9985 88.33C35.8121 90.4612 39.7981 92.0976 43.9104 91.0188L41.8804 83.2806C41.0319 83.5033 39.5592 83.2635 37.8289 81.9529C36.1363 80.6709 34.9294 78.8842 34.5457 77.4215L26.8075 79.4515ZM82.9396 80.78C87.0523 79.7011 89.7214 76.3191 91.1261 73.081C92.5497 69.7995 93.0778 65.8051 92.1602 62.3072L84.422 64.3372C84.806 65.8008 84.6317 67.95 83.787 69.8971C82.9235 71.8876 81.7586 72.8192 80.9096 73.0419L82.9396 80.78ZM19.911 37.3966C17.7738 37.9573 16.4958 40.1443 17.0564 42.2814L24.7946 40.2514C25.3551 42.388 24.0775 44.5743 21.941 45.1348L19.911 37.3966ZM17.0573 42.28C16.4968 40.1435 17.7744 37.9571 19.911 37.3966L21.941 45.1348C24.0781 44.5741 25.3561 42.3871 24.7955 40.25L17.0573 42.28Z" fill="white" mask="url(#path-1-outside-1)"/>
</g>
<path d="M27.7666 48.4102L76.0885 35.7336L85.1083 70.1165C85.7815 72.6826 84.247 75.3085 81.6809 75.9817L42.6517 86.2205C40.0856 86.8936 37.4597 85.3591 36.7865 82.793L27.7666 48.4102Z" fill="#EBECF0" stroke="#DFE1E6" stroke-width="1.92142"/>
<path d="M22.0985 41.9514L77.8544 27.3245L87.3619 63.5659C88.3043 67.1585 86.156 70.8348 82.5635 71.7773L39.8172 82.9911C36.2247 83.9336 32.5483 81.7853 31.6059 78.1927L22.0985 41.9514Z" fill="white" stroke="#F4F5F7" stroke-width="1.92142"/>
<path d="M19.9514 37.5484C18.8743 33.4427 21.3296 29.2412 25.4353 28.1641L68.1816 16.9502C72.2873 15.8731 76.4889 18.3283 77.5659 22.4341L79.0286 28.0097L21.4141 43.124L19.9514 37.5484Z" fill="#EB4B68"/>
<rect x="32.5649" y="40.1986" width="1.92142" height="42.2713" transform="rotate(-14.6995 32.5649 40.1986)" fill="#F4F5F7"/>
<rect x="43.716" y="37.2734" width="1.92142" height="42.2713" transform="rotate(-14.6995 43.716 37.2734)" fill="#F4F5F7"/>
<rect x="54.8673" y="34.3479" width="1.92142" height="42.2713" transform="rotate(-14.6995 54.8673 34.3479)" fill="#F4F5F7"/>
<rect x="66.0184" y="31.4227" width="1.92142" height="42.2713" transform="rotate(-14.6995 66.0184 31.4227)" fill="#F4F5F7"/>
<rect x="81.4661" y="37.3022" width="1.92142" height="57.6426" transform="rotate(75.3005 81.4661 37.3022)" fill="#F4F5F7"/>
<rect x="84.3912" y="48.4539" width="1.92142" height="57.6426" transform="rotate(75.3005 84.3912 48.4539)" fill="#F4F5F7"/>
<rect x="87.3161" y="59.605" width="1.92142" height="57.6426" transform="rotate(75.3005 87.3161 59.605)" fill="#F4F5F7"/>
<rect x="34.0876" y="30.8604" width="28.8213" height="3.84284" rx="1.92142" transform="rotate(-14.6995 34.0876 30.8604)" fill="#CA365F"/>
<circle cx="65.5165" cy="48.439" r="2.88213" transform="rotate(-14.6995 65.5165 48.439)" fill="#EB4B68"/>
<g filter="url(#filter1_d)">
<circle cx="102.583" cy="71.5832" r="27.4167" fill="white"/>
<circle cx="102.583" cy="71.5832" r="28.9167" stroke="white" stroke-width="3" stroke-linecap="round" stroke-linejoin="round"/>
</g>
<circle cx="102.583" cy="71.5832" r="27.4167" fill="#7350FF"/>
<path d="M103.32 63.0045C104.781 63.0045 106.106 63.6039 107.053 64.5576C109.109 66.6285 112.463 66.6285 114.545 64.5576C116.601 62.4867 116.601 59.108 114.545 57.0099C111.678 54.1488 107.702 52.3505 103.32 52.3505C94.5566 52.3505 87.4429 59.5167 87.4429 68.3451C87.4429 72.7593 89.2281 76.7647 92.0952 79.653L103.32 90.961L114.545 79.653C116.601 77.5822 116.601 74.2034 114.545 72.1053C112.49 70.0345 109.136 70.0345 107.053 72.1053L103.32 75.8928L99.5876 72.1053C98.6409 71.1516 98.0459 69.8165 98.0459 68.3451C98.0188 65.4023 100.399 63.0045 103.32 63.0045ZM97.7213 74.0127L103.347 79.6803L108.973 74.0127C110.001 72.9773 111.678 72.9773 112.706 74.0127C113.734 75.0481 113.734 76.7375 112.706 77.7729L103.347 87.2007L93.9615 77.7729C91.5813 75.3478 90.0936 72.0236 90.0936 68.3451C90.0936 60.9881 96.0172 55.0208 103.32 55.0208C106.972 55.0208 110.272 56.5194 112.679 58.9172C113.707 59.9527 113.707 61.6421 112.679 62.6775C111.651 63.7129 109.974 63.7129 108.946 62.6775C107.513 61.2333 105.511 60.3341 103.32 60.3341C98.9385 60.3341 95.3681 63.9036 95.3681 68.3451C95.3951 70.5522 96.2607 72.5685 97.7213 74.0127Z" fill="white"/>
<defs>
<filter id="filter0_d" x="0.818811" y="0.893054" width="107.58" height="108.95" filterUnits="userSpaceOnUse" color-interpolation-filters="sRGB">
<feFlood flood-opacity="0" result="BackgroundImageFix"/>
<feColorMatrix in="SourceAlpha" type="matrix" values="0 0 0 0 0 0 0 0 0 0 0 0 0 0 0 0 0 0 127 0"/>
<feOffset dy="3.07427"/>
<feGaussianBlur stdDeviation="6.14855"/>
<feColorMatrix type="matrix" values="0 0 0 0 0 0 0 0 0 0 0 0 0 0 0 0 0 0 0.24 0"/>
<feBlend mode="normal" in2="BackgroundImageFix" result="effect1_dropShadow"/>
<feBlend mode="normal" in="SourceGraphic" in2="effect1_dropShadow" result="shape"/>
</filter>
<filter id="filter1_d" x="62.3854" y="33.8305" width="80.396" height="80.396" filterUnits="userSpaceOnUse" color-interpolation-filters="sRGB">
<feFlood flood-opacity="0" result="BackgroundImageFix"/>
<feColorMatrix in="SourceAlpha" type="matrix" values="0 0 0 0 0 0 0 0 0 0 0 0 0 0 0 0 0 0 127 0"/>
<feOffset dy="2.44533"/>
<feGaussianBlur stdDeviation="4.89066"/>
<feColorMatrix type="matrix" values="0 0 0 0 0 0 0 0 0 0 0 0 0 0 0 0 0 0 0.24 0"/>
<feBlend mode="normal" in2="BackgroundImageFix" result="effect1_dropShadow"/>
<feBlend mode="normal" in="SourceGraphic" in2="effect1_dropShadow" result="shape"/>
</filter>
</defs>
</svg>
