<svg class="icon" viewBox="0 0 141 119" fill="none" xmlns="http://www.w3.org/2000/svg">
  <g filter="url(#calendar-coins-filter0_d)">
    <mask id="calendar-coins-path-1-outside-1" maskUnits="userSpaceOnUse" x="13.1159" y="10.0056" width="83.5369" height="84.9639" fill="black">
      <rect fill="white" x="13.1159" y="10.0056" width="83.5369" height="84.9639"/>
      <path fill-rule="evenodd" clip-rule="evenodd" d="M25.435 28.1642C21.3292 29.2413 18.874 33.4428 19.9511 37.5486L20.9263 41.2658C20.9263 41.2661 20.9262 41.2663 20.926 41.2664C20.9257 41.2664 20.9256 41.2667 20.9256 41.2669L30.6767 78.4371C31.9782 83.398 37.935 88.4519 42.8959 87.1505L81.9251 76.9117C86.8869 75.6101 89.5929 68.2846 88.2912 63.3228L79.0275 28.0105C79.0275 28.0102 79.0276 28.01 79.0279 28.0099C79.0281 28.0099 79.0282 28.0096 79.0282 28.0094L77.5656 22.4342C76.4885 18.3285 72.287 15.8732 68.1812 16.9503L25.435 28.1642Z"/>
    </mask>
    <path fill-rule="evenodd" clip-rule="evenodd" d="M25.435 28.1642C21.3292 29.2413 18.874 33.4428 19.9511 37.5486L20.9263 41.2658C20.9263 41.2661 20.9262 41.2663 20.926 41.2664C20.9257 41.2664 20.9256 41.2667 20.9256 41.2669L30.6767 78.4371C31.9782 83.398 37.935 88.4519 42.8959 87.1505L81.9251 76.9117C86.8869 75.6101 89.5929 68.2846 88.2912 63.3228L79.0275 28.0105C79.0275 28.0102 79.0276 28.01 79.0279 28.0099C79.0281 28.0099 79.0282 28.0096 79.0282 28.0094L77.5656 22.4342C76.4885 18.3285 72.287 15.8732 68.1812 16.9503L25.435 28.1642Z" fill="white"/>
    <path d="M19.9511 37.5486L16.082 38.5636L19.9511 37.5486ZM23.8202 36.5336C23.3037 34.5647 24.4811 32.5498 26.45 32.0333L24.42 24.2951C18.1774 25.9328 14.4444 32.321 16.082 38.5636L23.8202 36.5336ZM24.7953 40.2508L23.8202 36.5336L16.082 38.5636L17.0572 42.2808L24.7953 40.2508ZM17.0566 42.2819L26.8077 79.4521L34.5458 77.4221L24.7947 40.2519L17.0566 42.2819ZM43.9109 91.0196L82.9401 80.7808L80.9101 73.0427L41.8809 83.2814L43.9109 91.0196ZM92.1603 62.3078L82.8966 26.9955L75.1585 29.0255L84.4222 64.3378L92.1603 62.3078ZM73.6965 23.4492L75.1591 29.0244L82.8973 26.9944L81.4347 21.4192L73.6965 23.4492ZM69.1962 20.8194C71.1652 20.3029 73.18 21.4803 73.6965 23.4492L81.4347 21.4192C79.797 15.1766 73.4088 11.4436 67.1662 13.0812L69.1962 20.8194ZM26.45 32.0333L69.1962 20.8194L67.1662 13.0812L24.42 24.2951L26.45 32.0333ZM80.0429 31.879C82.1819 31.3179 83.4574 29.1295 82.8973 26.9944L75.1591 29.0244C74.5991 26.8898 75.8743 24.7019 78.0129 24.1408L80.0429 31.879ZM82.8966 26.9955C83.4651 29.1625 82.1489 31.3265 80.0429 31.879L78.0129 24.1408C75.9064 24.6935 74.5898 26.858 75.1585 29.0255L82.8966 26.9955ZM26.8077 79.4521C27.7254 82.9504 30.1475 86.171 32.9989 88.3308C35.8125 90.4619 39.7985 92.0984 43.9109 91.0196L41.8809 83.2814C41.0324 83.504 39.5596 83.2643 37.8292 81.9536C36.1365 80.6715 34.9295 78.8848 34.5458 77.4221L26.8077 79.4521ZM82.9401 80.7808C87.0528 79.7019 89.7219 76.3199 91.1266 73.0816C92.5501 69.8001 93.0779 65.8057 92.1603 62.3078L84.4222 64.3378C84.8062 65.8017 84.6319 67.951 83.7873 69.898C82.924 71.8884 81.7592 72.8199 80.9101 73.0427L82.9401 80.7808ZM19.911 37.3973C17.7739 37.9579 16.4959 40.1448 17.0566 42.2819L24.7947 40.2519C25.3552 42.3885 24.0775 44.5749 21.941 45.1355L19.911 37.3973ZM17.0572 42.2808C16.4967 40.1442 17.7744 37.9578 19.911 37.3973L21.941 45.1355C24.078 44.5748 25.356 42.3879 24.7953 40.2508L17.0572 42.2808Z" fill="white" mask="url(#calendar-coins-path-1-outside-1)"/>
  </g>
  <path d="M27.767 48.4109L76.0889 35.7344L85.1088 70.1172C85.7819 72.6833 84.2474 75.3093 81.6813 75.9825L42.6521 86.2212C40.086 86.8944 37.4601 85.3599 36.7869 82.7938L27.767 48.4109Z" fill="#EBECF0" stroke="#DFE1E6" stroke-width="1.92142"/>
  <path d="M22.0986 41.952L77.8545 27.3252L87.362 63.5665C88.3044 67.1591 86.1561 70.8354 82.5636 71.7779L39.8173 82.9918C36.2248 83.9342 32.5484 81.7859 31.606 78.1934L22.0986 41.952Z" fill="white" stroke="#F4F5F7" stroke-width="1.92142"/>
  <path d="M19.9511 37.5486C18.874 33.4428 21.3292 29.2413 25.435 28.1642L68.1812 16.9503C72.287 15.8733 76.4885 18.3285 77.5656 22.4342L79.0283 28.0098L21.4138 43.1242L19.9511 37.5486Z" fill="#EB4B68"/>
  <rect x="32.5652" y="40.1991" width="1.92142" height="42.2713" transform="rotate(-14.6995 32.5652 40.1991)" fill="#F4F5F7"/>
  <rect x="43.716" y="37.2743" width="1.92142" height="42.2713" transform="rotate(-14.6995 43.716 37.2743)" fill="#F4F5F7"/>
  <rect x="54.8674" y="34.3485" width="1.92142" height="42.2713" transform="rotate(-14.6995 54.8674 34.3485)" fill="#F4F5F7"/>
  <rect x="66.0188" y="31.4227" width="1.92142" height="42.2713" transform="rotate(-14.6995 66.0188 31.4227)" fill="#F4F5F7"/>
  <rect x="81.4665" y="37.3026" width="1.92142" height="57.6426" transform="rotate(75.3005 81.4665 37.3026)" fill="#F4F5F7"/>
  <rect x="84.3913" y="48.454" width="1.92142" height="57.6426" transform="rotate(75.3005 84.3913 48.454)" fill="#F4F5F7"/>
  <rect x="87.3161" y="59.6053" width="1.92142" height="57.6426" transform="rotate(75.3005 87.3161 59.6053)" fill="#F4F5F7"/>
  <rect x="34.0876" y="30.8612" width="28.8213" height="3.84284" rx="1.92142" transform="rotate(-14.6995 34.0876 30.8612)" fill="#CA365F"/>
  <circle cx="65.5169" cy="48.4391" r="2.88213" transform="rotate(-14.6995 65.5169 48.4391)" fill="#EB4B68"/>
  <g filter="url(#calendar-coins-filter1_d)">
    <mask id="calendar-coins-path-15-outside-2" maskUnits="userSpaceOnUse" x="68.1603" y="33.2113" width="61.0797" height="70.7494" fill="black">
      <rect fill="white" x="68.1603" y="33.2113" width="61.0797" height="70.7494"/>
      <path fill-rule="evenodd" clip-rule="evenodd" d="M102.279 40.3098C90.7711 38.985 80.3243 47.2749 78.9995 58.7825C78.3745 64.2107 79.8889 69.4029 82.8713 73.513C83.7798 74.7651 82.7801 76.8876 81.2432 76.7107C79.4228 76.5011 77.7771 77.807 77.5675 79.6274L77.3145 81.8249C77.1064 83.6326 78.3926 85.268 80.1932 85.496L76.9839 85.1265C75.1635 84.9169 73.5178 86.2228 73.3082 88.0432L73.0553 90.2407C72.8457 92.0612 74.1515 93.7068 75.972 93.9164L111.132 97.9641C112.952 98.1737 114.598 96.8678 114.807 95.0474L115.06 92.8499C115.268 91.0422 113.982 89.4068 112.182 89.1788L115.391 89.5483C117.211 89.7579 118.857 88.452 119.067 86.6316L119.32 84.4341C119.529 82.6136 118.223 80.968 116.403 80.7584C114.297 80.516 113.558 77.2582 115.028 75.7309C118.109 72.529 120.205 68.3324 120.751 63.5891C122.15 52.09 113.86 41.6431 102.279 40.3098Z"/>
    </mask>
    <path fill-rule="evenodd" clip-rule="evenodd" d="M102.279 40.3098C90.7711 38.985 80.3243 47.2749 78.9995 58.7825C78.3745 64.2107 79.8889 69.4029 82.8713 73.513C83.7798 74.7651 82.7801 76.8876 81.2432 76.7107C79.4228 76.5011 77.7771 77.807 77.5675 79.6274L77.3145 81.8249C77.1064 83.6326 78.3926 85.268 80.1932 85.496L76.9839 85.1265C75.1635 84.9169 73.5178 86.2228 73.3082 88.0432L73.0553 90.2407C72.8457 92.0612 74.1515 93.7068 75.972 93.9164L111.132 97.9641C112.952 98.1737 114.598 96.8678 114.807 95.0474L115.06 92.8499C115.268 91.0422 113.982 89.4068 112.182 89.1788L115.391 89.5483C117.211 89.7579 118.857 88.452 119.067 86.6316L119.32 84.4341C119.529 82.6136 118.223 80.968 116.403 80.7584C114.297 80.516 113.558 77.2582 115.028 75.7309C118.109 72.529 120.205 68.3324 120.751 63.5891C122.15 52.09 113.86 41.6431 102.279 40.3098Z" fill="white"/>
    <path d="M80.1932 85.496L79.7357 89.4697C81.9215 89.7214 83.9002 88.1603 84.1643 85.976C84.4283 83.7916 82.8785 81.8041 80.6957 81.5276L80.1932 85.496ZM112.182 89.1788L112.639 85.2051C110.453 84.9534 108.475 86.5145 108.211 88.6989C107.947 90.8832 109.496 92.8707 111.679 93.1472L112.182 89.1788ZM119.067 86.6316L123.04 87.089L119.067 86.6316ZM119.32 84.4341L115.346 83.9766L119.32 84.4341ZM116.86 76.7847C114.666 76.532 112.682 78.1063 112.429 80.3009C112.176 82.4956 113.751 84.4795 115.945 84.7322L116.86 76.7847ZM120.751 63.5891L116.78 63.1062C116.779 63.1147 116.778 63.1231 116.777 63.1316L120.751 63.5891ZM115.028 75.7309L112.146 72.9574L115.028 75.7309ZM82.9732 59.24C84.0454 49.9269 92.5083 43.2114 101.821 44.2835L102.736 36.336C89.0339 34.7586 76.6032 44.6228 75.0257 58.325L82.9732 59.24ZM86.1088 71.1639C83.689 67.8291 82.4677 63.6313 82.9732 59.24L75.0257 58.325C74.2814 64.7902 76.0888 70.9767 79.6337 75.8622L86.1088 71.1639ZM81.5413 80.0849C81.4982 80.4591 81.1599 80.7275 80.7857 80.6844L81.7007 72.7369C77.6856 72.2747 74.056 75.1548 73.5938 79.1699L81.5413 80.0849ZM81.2883 82.2824L81.5413 80.0849L73.5938 79.1699L73.3408 81.3674L81.2883 82.2824ZM80.6957 81.5276C81.0667 81.5746 81.3311 81.9105 81.2883 82.2824L73.3408 81.3674C72.8818 85.3547 75.7185 88.9613 79.6907 89.4643L80.6957 81.5276ZM76.5265 89.1003L79.7357 89.4697L80.6506 81.5222L77.4414 81.1527L76.5265 89.1003ZM77.282 88.5007C77.2389 88.8749 76.9006 89.1433 76.5265 89.1003L77.4414 81.1527C73.4263 80.6905 69.7967 83.5707 69.3345 87.5858L77.282 88.5007ZM77.029 90.6982L77.282 88.5007L69.3345 87.5858L69.0815 89.7832L77.029 90.6982ZM76.4295 89.9426C76.8037 89.9857 77.0721 90.324 77.029 90.6982L69.0815 89.7832C68.6193 93.7983 71.4994 97.4279 75.5145 97.8902L76.4295 89.9426ZM111.589 93.9904L76.4295 89.9426L75.5145 97.8902L110.674 101.938L111.589 93.9904ZM110.834 94.5899C110.877 94.2157 111.215 93.9473 111.589 93.9904L110.674 101.938C114.689 102.4 118.319 99.52 118.781 95.5049L110.834 94.5899ZM111.087 92.3924L110.834 94.5899L118.781 95.5049L119.034 93.3074L111.087 92.3924ZM111.679 93.1472C111.308 93.1002 111.044 92.7643 111.087 92.3924L119.034 93.3074C119.493 89.3201 116.656 85.7135 112.684 85.2105L111.679 93.1472ZM115.848 85.5746L112.639 85.2051L111.724 93.1526L114.933 93.5221L115.848 85.5746ZM115.093 86.1741C115.136 85.7999 115.474 85.5315 115.848 85.5746L114.933 93.5221C118.948 93.9843 122.578 91.1041 123.04 87.089L115.093 86.1741ZM115.346 83.9766L115.093 86.1741L123.04 87.089L123.293 84.8916L115.346 83.9766ZM115.945 84.7322C115.571 84.6891 115.303 84.3508 115.346 83.9766L123.293 84.8916C123.756 80.8765 120.875 77.2469 116.86 76.7847L115.945 84.7322ZM116.777 63.1316C116.335 66.9712 114.643 70.3627 112.146 72.9574L117.91 78.5045C121.576 74.6953 124.075 69.6936 124.725 64.0466L116.777 63.1316ZM101.821 44.2835C111.222 45.3658 117.908 53.834 116.78 63.1062L124.722 64.0721C126.391 50.346 116.498 37.9204 102.736 36.336L101.821 44.2835ZM116.86 76.7847C117.38 76.8445 117.779 77.1032 118.004 77.3421C118.2 77.55 118.243 77.7101 118.25 77.7377C118.259 77.7714 118.267 77.819 118.249 77.9091C118.23 78.004 118.158 78.2469 117.91 78.5045L112.146 72.9574C110.206 74.9734 109.99 77.7206 110.499 79.7153C111.007 81.7062 112.664 84.3544 115.945 84.7322L116.86 76.7847ZM79.6337 75.8622C79.0153 75.0099 79.2248 74.2065 79.3879 73.8763C79.5595 73.529 80.2961 72.5752 81.7007 72.7369L80.7857 80.6844C83.7272 81.0231 85.7321 79.0965 86.5606 77.4192C87.3807 75.7589 87.6358 73.2683 86.1088 71.1639L79.6337 75.8622Z" fill="white" mask="url(#calendar-coins-path-15-outside-2)"/>
  </g>
  <g clip-path="url(#calendar-coins-clip0)">
    <path d="M102.153 40.1509C90.6453 38.8261 80.1985 47.116 78.8737 58.6236C77.5489 70.1312 85.8386 80.5782 97.3461 81.9029C108.854 83.2277 119.3 74.9379 120.625 63.4303C122.024 51.9311 113.734 41.4842 102.153 40.1509Z" fill="url(#calendar-coins-paint0_linear)"/>
    <mask id="calendar-coins-mask0" mask-type="alpha" maskUnits="userSpaceOnUse" x="78" y="40" width="43" height="43">
      <path d="M102.153 40.1509C90.6453 38.8261 80.1985 47.116 78.8737 58.6236C77.5489 70.1312 85.8386 80.5782 97.3461 81.9029C108.854 83.2277 119.3 74.9379 120.625 63.4303C122.024 51.9311 113.734 41.4842 102.153 40.1509Z" fill="url(#calendar-coins-paint1_linear)"/>
    </mask>
    <g mask="url(#calendar-coins-mask0)">
      <path d="M118.222 84.3063L123.029 42.5543L76.4704 79.4996L118.222 84.3063Z" fill="url(#calendar-coins-paint2_linear)"/>
    </g>
    <path opacity="0.5" d="M101.844 43.6408C92.2543 42.5368 83.5486 49.445 82.4446 59.0347C81.3406 68.6244 88.2487 77.3302 97.8383 78.4342C107.428 79.5382 116.134 72.63 117.238 63.0403C118.403 53.4577 111.495 44.7519 101.844 43.6408V43.6408Z" stroke="#E99B26" stroke-width="1.6636"/>
    <path d="M101.78 51.0272C103.97 51.5742 105.697 52.7168 106.481 54.2226C106.614 54.5329 106.692 54.8367 106.651 55.186C106.551 56.0592 105.804 56.6809 104.97 56.5849C104.581 56.5401 104.219 56.2625 103.876 55.8102C103.088 54.8347 101.723 53.9698 100.167 53.7906C97.8326 53.5219 96.8649 54.5902 96.7309 55.7544C96.2886 59.5963 106.667 58.9627 105.829 66.2391C105.461 69.4407 103.274 71.3124 99.5037 71.2912L99.3161 72.9211C99.229 73.6778 98.5439 74.2478 97.8214 74.1646C97.0989 74.0814 96.6168 73.3771 96.7039 72.6204L96.8916 70.9904C94.2084 70.3276 92.2707 68.571 91.5135 66.8323C91.4292 66.5867 91.3515 66.2828 91.385 65.9918C91.4856 65.1186 92.2329 64.4969 93.0666 64.5928C93.678 64.6632 93.9712 65.0509 94.2156 65.3739C95.242 66.7307 96.6287 67.8931 98.5183 68.1106C101.075 68.4049 102.398 67.6725 102.606 65.868C103.095 61.6186 92.7032 62.3686 93.5074 55.3833C93.8089 52.7638 95.6198 50.7309 99.2237 50.7329L99.418 49.0448C99.5052 48.288 100.19 47.7181 100.857 47.7949C101.58 47.8781 102.117 48.5888 102.03 49.3455L101.836 51.0336L101.78 51.0272Z" fill="#A76013"/>
  </g>
  <rect x="77.9477" y="76.3304" width="42.0278" height="8.84796" rx="3.31798" transform="rotate(6.56724 77.9477 76.3304)" fill="url(#calendar-coins-paint3_linear)"/>
  <rect x="73.6877" y="84.7461" width="42.0278" height="8.84796" rx="3.31798" transform="rotate(6.56724 73.6877 84.7461)" fill="url(#calendar-coins-paint4_linear)"/>
  <defs>
    <filter id="calendar-coins-filter0_d" x="0.818812" y="0.893177" width="107.58" height="108.951" filterUnits="userSpaceOnUse" color-interpolation-filters="sRGB">
      <feFlood flood-opacity="0" result="BackgroundImageFix"/>
      <feColorMatrix in="SourceAlpha" type="matrix" values="0 0 0 0 0 0 0 0 0 0 0 0 0 0 0 0 0 0 127 0"/>
      <feOffset dy="3.07427"/>
      <feGaussianBlur stdDeviation="6.14855"/>
      <feColorMatrix type="matrix" values="0 0 0 0 0 0 0 0 0 0 0 0 0 0 0 0 0 0 0.24 0"/>
      <feBlend mode="normal" in2="BackgroundImageFix" result="effect1_dropShadow"/>
      <feBlend mode="normal" in="SourceGraphic" in2="effect1_dropShadow" result="shape"/>
    </filter>
  <filter id="calendar-coins-filter1_d" x="55.9474" y="23.9885" width="84.8909" height="94.5315" filterUnits="userSpaceOnUse" color-interpolation-filters="sRGB">
    <feFlood flood-opacity="0" result="BackgroundImageFix"/>
    <feColorMatrix in="SourceAlpha" type="matrix" values="0 0 0 0 0 0 0 0 0 0 0 0 0 0 0 0 0 0 127 0"/>
    <feOffset dy="3.07427"/>
    <feGaussianBlur stdDeviation="6.14855"/>
    <feColorMatrix type="matrix" values="0 0 0 0 0 0 0 0 0 0 0 0 0 0 0 0 0 0 0.24 0"/>
    <feBlend mode="normal" in2="BackgroundImageFix" result="effect1_dropShadow"/>
    <feBlend mode="normal" in="SourceGraphic" in2="effect1_dropShadow" result="shape"/>
  </filter>
  <linearGradient id="calendar-coins-paint0_linear" x1="92.3308" y1="126.275" x2="102.245" y2="40.1615" gradientUnits="userSpaceOnUse">
    <stop stop-color="#E99B26"/>
    <stop offset="1" stop-color="#FAC34B"/>
  </linearGradient>
  <linearGradient id="calendar-coins-paint1_linear" x1="92.3308" y1="126.275" x2="102.245" y2="40.1615" gradientUnits="userSpaceOnUse">
    <stop stop-color="#413017"/>
    <stop offset="1" stop-color="#FAC34B"/>
  </linearGradient>
  <linearGradient id="calendar-coins-paint2_linear" x1="97.8683" y1="81.9631" x2="116.507" y2="48.6781" gradientUnits="userSpaceOnUse">
    <stop stop-color="#E99B26" stop-opacity="0.26"/>
    <stop offset="1" stop-color="#FAC34B"/>
  </linearGradient>
  <linearGradient id="calendar-coins-paint3_linear" x1="119.854" y1="80.4854" x2="83.9343" y2="80.4854" gradientUnits="userSpaceOnUse">
    <stop stop-color="#E99B26"/>
    <stop offset="1" stop-color="#FAC34B"/>
  </linearGradient>
  <linearGradient id="calendar-coins-paint4_linear" x1="115.594" y1="88.901" x2="79.6743" y2="88.901" gradientUnits="userSpaceOnUse">
    <stop stop-color="#E99B26"/>
    <stop offset="1" stop-color="#FAC34B"/>
  </linearGradient>
  <clipPath id="calendar-coins-clip0">
    <rect width="42.0278" height="42.0278" fill="white" transform="translate(81.277 37.7476) rotate(6.56724)"/>
  </clipPath>
  </defs>
</svg>
