<svg class="icon"
     viewBox="0 0 360 264"
     fill="none"
     xmlns="http://www.w3.org/2000/svg"
>
    <rect x="125" y="41" width="109" height="182" rx="12" fill="white" stroke="#19194B" stroke-width="8"/>
    <rect x="133" y="49" width="93" height="138" rx="4" fill="#F4F5F7"/>
    <rect x="172" y="195" width="16" height="16" rx="8" fill="#19194B"/>
    <g filter="url(#camera-image-filter0_d)">
        <mask id="camera-image-path-4-outside-1" maskUnits="userSpaceOnUse" x="81.9928" y="75.8244" width="112.51" height="97.2919" fill="black">
            <rect fill="white" x="81.9928" y="75.8244" width="112.51" height="97.2919"/>
            <path fill-rule="evenodd" clip-rule="evenodd" d="M111.317 106.448L101.416 108.579C100.979 108.675 100.521 108.594 100.144 108.353C99.7663 108.112 99.5001 107.731 99.4036 107.294L99.2333 106.523C98.9438 105.211 99.1871 103.838 99.9097 102.706C100.632 101.574 101.775 100.776 103.087 100.486L106.383 99.7585C107.695 99.469 109.067 99.7123 110.199 100.435C111.331 101.158 112.13 102.3 112.42 103.612L112.601 104.436C112.698 104.873 112.617 105.331 112.376 105.708C112.135 106.085 111.754 106.351 111.317 106.448ZM164.604 98.1414L160.266 99.0991C159.915 99.1634 159.554 99.1227 159.227 98.982C158.9 98.8413 158.622 98.607 158.428 98.3085L158.423 98.3019C155.438 94.455 152.35 90.4748 147.771 91.4858L131.288 95.1245C127.757 95.904 126.461 98.8799 124.117 104.282C123.961 104.637 123.827 104.961 123.705 105.256C123.133 106.635 122.83 107.363 121.923 107.564L102.144 111.93C95.343 113.431 94.7921 117.733 95.53 121.075L103.09 155.32C103.257 156.439 103.671 157.507 104.303 158.446C104.934 159.385 105.767 160.171 106.741 160.747C107.714 161.323 108.804 161.675 109.931 161.777C111.058 161.879 112.193 161.728 113.255 161.336L175.52 147.59C176.648 147.499 177.741 147.158 178.72 146.591C179.7 146.024 180.54 145.246 181.181 144.313C181.821 143.381 182.246 142.317 182.423 141.2C182.601 140.082 182.527 138.939 182.207 137.854L174.648 103.609C173.91 100.267 171.569 96.6036 164.604 98.1414Z"/>
        </mask>
        <path fill-rule="evenodd" clip-rule="evenodd" d="M111.317 106.448L101.416 108.579C100.979 108.675 100.521 108.594 100.144 108.353C99.7663 108.112 99.5001 107.731 99.4036 107.294L99.2333 106.523C98.9438 105.211 99.1871 103.838 99.9097 102.706C100.632 101.574 101.775 100.776 103.087 100.486L106.383 99.7585C107.695 99.469 109.067 99.7123 110.199 100.435C111.331 101.158 112.13 102.3 112.42 103.612L112.601 104.436C112.698 104.873 112.617 105.331 112.376 105.708C112.135 106.085 111.754 106.351 111.317 106.448ZM164.604 98.1414L160.266 99.0991C159.915 99.1634 159.554 99.1227 159.227 98.982C158.9 98.8413 158.622 98.607 158.428 98.3085L158.423 98.3019C155.438 94.455 152.35 90.4748 147.771 91.4858L131.288 95.1245C127.757 95.904 126.461 98.8799 124.117 104.282C123.961 104.637 123.827 104.961 123.705 105.256C123.133 106.635 122.83 107.363 121.923 107.564L102.144 111.93C95.343 113.431 94.7921 117.733 95.53 121.075L103.09 155.32C103.257 156.439 103.671 157.507 104.303 158.446C104.934 159.385 105.767 160.171 106.741 160.747C107.714 161.323 108.804 161.675 109.931 161.777C111.058 161.879 112.193 161.728 113.255 161.336L175.52 147.59C176.648 147.499 177.741 147.158 178.72 146.591C179.7 146.024 180.54 145.246 181.181 144.313C181.821 143.381 182.246 142.317 182.423 141.2C182.601 140.082 182.527 138.939 182.207 137.854L174.648 103.609C173.91 100.267 171.569 96.6036 164.604 98.1414Z" fill="white"/>
        <path d="M101.416 108.579L99.7329 100.758C99.719 100.761 99.7051 100.764 99.6912 100.767L101.416 108.579ZM111.317 106.448L113 114.269C113.014 114.266 113.028 114.263 113.042 114.26L111.317 106.448ZM100.144 108.353L104.448 101.61L104.448 101.61L100.144 108.353ZM99.4036 107.294L107.215 105.57L99.4036 107.294ZM99.2333 106.523L91.4214 108.247L99.2333 106.523ZM112.42 103.612L120.231 101.887L112.42 103.612ZM112.601 104.436L104.79 106.16L112.601 104.436ZM112.376 105.708L119.119 110.012L119.119 110.012L112.376 105.708ZM160.266 99.0991L161.712 106.967C161.805 106.95 161.898 106.931 161.99 106.911L160.266 99.0991ZM164.604 98.1414L166.328 105.953L164.604 98.1414ZM158.428 98.3085L165.136 93.9485C165.015 93.7631 164.887 93.5828 164.751 93.408L158.428 98.3085ZM158.423 98.3019L164.746 93.4014L164.744 93.3979L158.423 98.3019ZM147.771 91.4858L149.495 99.2977L147.771 91.4858ZM131.288 95.1245L129.563 87.3126L131.288 95.1245ZM124.117 104.282L131.446 107.489C131.449 107.482 131.452 107.474 131.456 107.467L124.117 104.282ZM123.705 105.256L116.316 102.19L116.316 102.19L123.705 105.256ZM121.923 107.564L123.648 115.375L121.923 107.564ZM102.144 111.93L100.419 104.118L102.144 111.93ZM95.53 121.075L87.7181 122.8L95.53 121.075ZM103.09 155.32L111.002 154.141C110.975 153.958 110.942 153.776 110.902 153.596L103.09 155.32ZM104.303 158.446L97.6649 162.911L97.6649 162.911L104.303 158.446ZM106.741 160.747L110.815 153.862L110.815 153.862L106.741 160.747ZM109.931 161.777L110.651 153.809L110.651 153.809L109.931 161.777ZM113.255 161.336L111.53 153.524C111.174 153.602 110.823 153.705 110.481 153.832L113.255 161.336ZM175.52 147.59L174.877 139.616C174.513 139.645 174.152 139.699 173.795 139.778L175.52 147.59ZM178.72 146.591L174.713 139.667L174.713 139.667L178.72 146.591ZM181.181 144.313L174.586 139.784L174.586 139.784L181.181 144.313ZM182.423 141.2L190.324 142.456L190.324 142.456L182.423 141.2ZM182.207 137.854L174.396 139.579C174.435 139.759 174.481 139.938 174.534 140.116L182.207 137.854ZM174.648 103.609L182.46 101.885L174.648 103.609ZM103.099 116.399L113 114.269L109.634 98.627L99.7329 100.758L103.099 116.399ZM95.8392 115.096C98.005 116.479 100.631 116.944 103.14 116.39L99.6912 100.767C101.326 100.406 103.037 100.709 104.448 101.61L95.8392 115.096ZM91.5917 109.019C92.1456 111.528 93.6735 113.714 95.8393 115.096L104.448 101.61C105.859 102.51 106.855 103.935 107.215 105.57L91.5917 109.019ZM91.4214 108.247L91.5917 109.019L107.215 105.57L107.045 104.798L91.4214 108.247ZM93.1664 98.402C91.3022 101.323 90.6745 104.864 91.4214 108.247L107.045 104.798C107.213 105.559 107.072 106.354 106.653 107.011L93.1664 98.402ZM101.362 92.6743C97.9786 93.4212 95.0306 95.4815 93.1664 98.402L106.653 107.011C106.234 107.667 105.571 108.13 104.811 108.298L101.362 92.6743ZM104.659 91.9466L101.362 92.6743L104.811 108.298L108.108 107.57L104.659 91.9466ZM114.504 93.6916C111.583 91.8274 108.042 91.1997 104.659 91.9466L108.108 107.57C107.347 107.738 106.551 107.597 105.895 107.178L114.504 93.6916ZM120.231 101.887C119.485 98.5038 117.424 95.5558 114.504 93.6916L105.895 107.178C105.239 106.759 104.776 106.097 104.608 105.336L120.231 101.887ZM120.413 102.711L120.231 101.887L104.608 105.336L104.79 106.16L120.413 102.711ZM119.119 110.012C120.502 107.847 120.967 105.22 120.413 102.711L104.79 106.16C104.429 104.526 104.732 102.815 105.633 101.404L119.119 110.012ZM113.042 114.26C115.551 113.706 117.737 112.178 119.119 110.012L105.633 101.404C106.533 99.9924 107.958 98.997 109.593 98.6361L113.042 114.26ZM161.99 106.911L166.328 105.953L162.879 90.3294L158.541 91.2872L161.99 106.911ZM156.065 106.331C157.843 107.096 159.808 107.317 161.712 106.967L158.819 91.2309C160.023 91.0097 161.265 91.1497 162.389 91.6333L156.065 106.331ZM151.721 102.669C152.775 104.291 154.287 105.566 156.065 106.331L162.389 91.6333C163.513 92.117 164.469 92.9225 165.136 93.9485L151.721 102.669ZM152.1 103.202L152.105 103.209L164.751 93.408L164.746 93.4014L152.1 103.202ZM149.495 99.2977C149.301 99.3405 148.976 99.3431 148.67 99.2523C148.433 99.182 148.453 99.1273 148.752 99.3626C149.063 99.607 149.501 100.024 150.105 100.72C150.715 101.421 151.33 102.211 152.102 103.206L164.744 93.3979C163.41 91.6786 161.28 88.8582 158.638 86.7816C155.674 84.4532 151.364 82.4999 146.046 83.6739L149.495 99.2977ZM133.012 102.936L149.495 99.2977L146.046 83.6739L129.563 87.3126L133.012 102.936ZM131.456 107.467C132.059 106.077 132.513 105.034 132.937 104.154C133.36 103.277 133.639 102.805 133.818 102.548C133.976 102.321 133.943 102.428 133.693 102.609C133.405 102.817 133.127 102.911 133.012 102.936L129.563 87.3126C125.45 88.2206 122.655 90.5849 120.697 93.3916C119.074 95.7164 117.827 98.6788 116.778 101.098L131.456 107.467ZM131.094 108.322C131.218 108.022 131.325 107.765 131.446 107.489L116.788 101.076C116.598 101.51 116.436 101.9 116.316 102.19L131.094 108.322ZM123.648 115.375C126.386 114.771 128.315 113.157 129.536 111.379C130.378 110.151 130.935 108.706 131.094 108.322L116.316 102.19C116.155 102.578 116.095 102.718 116.054 102.806C116.015 102.891 116.111 102.663 116.344 102.325C116.602 101.949 117.079 101.357 117.847 100.807C118.644 100.237 119.474 99.9117 120.199 99.7516L123.648 115.375ZM103.868 119.742L123.648 115.375L120.199 99.7516L100.419 104.118L103.868 119.742ZM103.342 119.351C103.275 119.047 103.282 118.913 103.281 118.929C103.279 118.969 103.254 119.23 103.07 119.574C102.981 119.741 102.876 119.887 102.771 120.002C102.666 120.116 102.592 120.167 102.586 120.172C102.581 120.175 102.914 119.953 103.868 119.742L100.419 104.118C95.4616 105.213 91.2537 107.726 88.9495 112.05C86.7949 116.094 87.1434 120.197 87.7181 122.8L103.342 119.351ZM110.902 153.596L103.342 119.351L87.7181 122.8L95.278 157.045L110.902 153.596ZM110.94 153.98C110.973 154.028 110.994 154.083 111.002 154.141L95.1774 156.5C95.5196 158.795 96.3693 160.986 97.6649 162.911L110.94 153.98ZM110.815 153.862C110.865 153.892 110.908 153.932 110.94 153.98L97.6649 162.911C98.9604 164.837 100.669 166.45 102.666 167.632L110.815 153.862ZM110.651 153.809C110.709 153.814 110.765 153.833 110.815 153.862L102.666 167.632C104.664 168.814 106.9 169.535 109.211 169.744L110.651 153.809ZM110.481 153.832C110.535 153.812 110.593 153.804 110.651 153.809L109.211 169.744C111.522 169.953 113.851 169.644 116.028 168.839L110.481 153.832ZM173.795 139.778L111.53 153.524L114.979 169.147L177.245 155.402L173.795 139.778ZM174.713 139.667C174.763 139.638 174.819 139.62 174.877 139.616L176.163 155.564C178.476 155.377 180.719 154.677 182.728 153.515L174.713 139.667ZM174.586 139.784C174.619 139.736 174.662 139.696 174.713 139.667L182.728 153.515C184.737 152.352 186.461 150.756 187.775 148.843L174.586 139.784ZM174.523 139.944C174.532 139.886 174.554 139.832 174.586 139.784L187.775 148.843C189.089 146.93 189.96 144.748 190.324 142.456L174.523 139.944ZM174.534 140.116C174.517 140.06 174.514 140.001 174.523 139.944L190.324 142.456C190.689 140.164 190.537 137.819 189.881 135.593L174.534 140.116ZM166.836 105.334L174.396 139.579L190.019 136.13L182.46 101.885L166.836 105.334ZM166.328 105.953C167.343 105.729 167.793 105.784 167.835 105.791C167.85 105.793 167.779 105.783 167.648 105.731C167.516 105.677 167.364 105.596 167.213 105.484C166.9 105.253 166.758 105.022 166.729 104.969C166.712 104.939 166.771 105.042 166.836 105.334L182.46 101.885C181.878 99.2488 180.438 95.3562 176.709 92.6063C172.759 89.694 167.861 89.2298 162.879 90.3294L166.328 105.953Z" fill="white" mask="url(#camera-image-path-4-outside-1)"/>
    </g>
    <path d="M150.362 138.451C157.189 136.944 161.502 130.187 159.995 123.36C158.487 116.533 151.731 112.22 144.903 113.727C138.076 115.234 133.763 121.991 135.27 128.818C136.778 135.646 143.534 139.958 150.362 138.451Z" fill="#66C6EC"/>
    <path d="M164.604 98.1412L160.266 99.0989C159.915 99.1633 159.554 99.1226 159.227 98.9819C158.9 98.8412 158.622 98.6068 158.428 98.3084C155.442 94.4594 152.353 90.4741 147.771 91.4856L131.288 95.1244C127.757 95.9038 126.461 98.8797 124.117 104.282C123.234 106.299 123.024 107.32 121.923 107.563L102.144 111.93C95.343 113.431 94.7921 117.733 95.5301 121.075L103.09 155.32C103.257 156.439 103.671 157.507 104.303 158.446C104.934 159.384 105.767 160.17 106.741 160.747C107.714 161.323 108.804 161.675 109.931 161.777C111.058 161.878 112.278 161.551 113.255 161.335L175.52 147.59C176.666 147.337 177.741 147.157 178.72 146.591C179.7 146.024 180.54 145.246 181.181 144.313C181.821 143.381 182.246 142.317 182.423 141.2C182.601 140.082 182.527 138.939 182.207 137.854L174.648 103.609C173.91 100.267 171.569 96.6035 164.604 98.1412ZM166.586 121.904C167.414 125.653 167.111 129.563 165.716 133.14C164.322 136.717 161.898 139.8 158.751 142C155.604 144.199 151.875 145.416 148.037 145.496C144.199 145.576 140.423 144.517 137.186 142.451C133.95 140.385 131.399 137.406 129.856 133.891C128.313 130.375 127.847 126.481 128.517 122.701C129.187 118.921 130.963 115.424 133.621 112.653C136.278 109.882 139.697 107.961 143.446 107.133C148.473 106.029 153.733 106.964 158.071 109.733C162.409 112.503 165.471 116.88 166.586 121.904ZM113.124 122.47C113.304 123.285 113.238 124.135 112.935 124.913C112.632 125.691 112.105 126.361 111.421 126.839C110.737 127.317 109.926 127.582 109.092 127.599C108.257 127.617 107.436 127.386 106.733 126.937C106.029 126.488 105.475 125.84 105.139 125.076C104.804 124.312 104.703 123.465 104.848 122.644C104.994 121.822 105.38 121.062 105.958 120.459C106.535 119.857 107.279 119.439 108.094 119.259C109.187 119.018 110.331 119.221 111.274 119.823C112.217 120.425 112.883 121.378 113.124 122.47Z" fill="#007CBF"/>
    <path d="M101.416 108.578L111.317 106.448C111.754 106.351 112.135 106.085 112.376 105.708C112.617 105.33 112.698 104.873 112.601 104.436L112.419 103.611C112.13 102.3 111.331 101.157 110.199 100.435C109.067 99.7121 107.694 99.4687 106.383 99.7583L103.086 100.486C101.775 100.776 100.632 101.574 99.9096 102.706C99.187 103.838 98.9437 105.211 99.2332 106.522L99.4035 107.294C99.5 107.731 99.7662 108.112 100.144 108.353C100.521 108.594 100.979 108.675 101.416 108.578Z" fill="#EB4B68"/>
    <g filter="url(#camera-image-filter1_d)">
        <mask id="camera-image-path-9-outside-2" maskUnits="userSpaceOnUse" x="187.135" y="9.13527" width="79.729" height="79.729" fill="black">
            <rect fill="white" x="187.135" y="9.13527" width="79.729" height="79.729"/>
            <path fill-rule="evenodd" clip-rule="evenodd" d="M230.187 76.8178C245.551 75.0571 256.578 61.1754 254.818 45.812C253.057 30.4485 239.176 19.4212 223.812 21.1819C208.449 22.9423 197.421 36.8241 199.182 52.1876C200.943 67.551 214.825 78.5782 230.187 76.8178Z"/>
        </mask>
        <path d="M229.276 68.8698C224.887 69.3728 221.736 73.339 222.239 77.7286C222.742 82.1181 226.708 85.2688 231.098 84.7658L229.276 68.8698ZM231.098 84.7658C235.487 84.2627 238.638 80.2965 238.135 75.907C237.632 71.5174 233.666 68.3668 229.276 68.8698L231.098 84.7658ZM231.098 84.7658C250.852 82.5021 265.029 64.6542 262.766 44.9012L246.87 46.7228C248.127 57.6966 240.251 67.6122 229.276 68.8698L231.098 84.7658ZM262.766 44.9012C260.502 25.1481 242.654 10.9702 222.901 13.2339L224.722 29.1299C235.697 27.8722 245.612 35.7489 246.87 46.7228L262.766 44.9012ZM222.901 13.2339C203.149 15.4973 188.97 33.3453 191.234 53.0984L207.13 51.2768C205.872 40.3029 213.75 30.3873 224.722 29.1299L222.901 13.2339ZM191.234 53.0984C193.498 72.8514 211.346 87.0292 231.098 84.7658L229.276 68.8698C218.304 70.1272 208.387 62.2506 207.13 51.2768L191.234 53.0984Z" fill="white" mask="url(#camera-image-path-9-outside-2)"/>
    </g>
    <path fill-rule="evenodd" clip-rule="evenodd" d="M230.187 76.8178C245.551 75.0571 256.578 61.1754 254.818 45.812C253.057 30.4485 239.176 19.4212 223.812 21.1819C208.449 22.9423 197.421 36.8241 199.182 52.1876C200.943 67.551 214.825 78.5782 230.187 76.8178Z" fill="#66DE7D"/>
    <path fill-rule="evenodd" clip-rule="evenodd" d="M223.481 63.7852C222.528 63.8944 221.572 63.6132 220.829 63.0059L209.798 54.0011C208.277 52.7597 208.051 50.5202 209.292 48.9996C210.533 47.4798 212.773 47.2508 214.293 48.4933L222.496 55.1915L237.679 35.5425C238.88 33.9892 241.112 33.7047 242.665 34.9043C244.218 36.1048 244.504 38.3373 243.303 39.8907L225.889 62.426C225.302 63.1857 224.433 63.676 223.481 63.7852Z" fill="white"/>
    <defs>
        <filter id="camera-image-filter0_d" x="79.2822" y="79.3223" width="119.236" height="102.485" filterUnits="userSpaceOnUse" color-interpolation-filters="sRGB">
            <feFlood flood-opacity="0" result="BackgroundImageFix"/>
            <feColorMatrix in="SourceAlpha" type="matrix" values="0 0 0 0 0 0 0 0 0 0 0 0 0 0 0 0 0 0 127 0"/>
            <feOffset dy="4"/>
            <feGaussianBlur stdDeviation="4"/>
            <feColorMatrix type="matrix" values="0 0 0 0 0 0 0 0 0 0 0 0 0 0 0 0 0 0 0.24 0"/>
            <feBlend mode="normal" in2="BackgroundImageFix" result="effect1_dropShadow"/>
            <feBlend mode="normal" in="SourceGraphic" in2="effect1_dropShadow" result="shape"/>
        </filter>
        <filter id="camera-image-filter1_d" x="182.997" y="8.99658" width="88.0067" height="88.0066" filterUnits="userSpaceOnUse" color-interpolation-filters="sRGB">
            <feFlood flood-opacity="0" result="BackgroundImageFix"/>
            <feColorMatrix in="SourceAlpha" type="matrix" values="0 0 0 0 0 0 0 0 0 0 0 0 0 0 0 0 0 0 127 0"/>
            <feOffset dy="4"/>
            <feGaussianBlur stdDeviation="4"/>
            <feColorMatrix type="matrix" values="0 0 0 0 0 0 0 0 0 0 0 0 0 0 0 0 0 0 0.24 0"/>
            <feBlend mode="normal" in2="BackgroundImageFix" result="effect1_dropShadow"/>
            <feBlend mode="normal" in="SourceGraphic" in2="effect1_dropShadow" result="shape"/>
        </filter>
    </defs>
</svg>
