<svg class="icon"
     width="26"
     height="24"
     viewBox="0 0 26 24"
     fill="none"
     xmlns="http://www.w3.org/2000/svg"
>
  <path fill-rule="evenodd"
        clip-rule="evenodd"
        d="M6.5 5.125L3.5 5.109C3.36739 5.109 3.24021 5.05632 3.14645 4.96255C3.05268 4.86879 3 4.74161 3 4.609V4.375C3 3.97718 3.15804 3.59564 3.43934 3.31434C3.72064 3.03304 4.10218 2.875 4.5 2.875H5.5C5.89782 2.875 6.27936 3.03304 6.56066 3.31434C6.84196 3.59564 7 3.97718 7 4.375V4.625C7 4.75761 6.94732 4.88479 6.85355 4.97855C6.75979 5.07232 6.63261 5.125 6.5 5.125ZM22.4436 6.125H21.1276C21.0222 6.12126 20.9203 6.08641 20.8347 6.02483C20.7491 5.96326 20.6836 5.87772 20.6465 5.779L20.6455 5.77675C20.0278 4.47345 19.3888 3.125 17.9995 3.125H12.9995C11.9285 3.125 11.3635 3.903 10.3405 5.316C10.273 5.40874 10.2134 5.49389 10.1593 5.57126C9.90576 5.93352 9.77177 6.125 9.49655 6.125H3.49655C1.43355 6.125 0.99955 7.334 0.99955 8.348V18.736C0.976346 19.0703 1.02799 19.4056 1.15072 19.7175C1.27345 20.0294 1.46418 20.3099 1.70903 20.5388C1.95387 20.7676 2.24666 20.939 2.56609 21.0404C2.88552 21.1418 3.22354 21.1707 3.55555 21.125H22.4436C22.7756 21.1707 23.1136 21.1418 23.433 21.0404C23.7524 20.939 24.0452 20.7676 24.2901 20.5388C24.5349 20.3099 24.7256 20.0294 24.8484 19.7175C24.9711 19.4056 25.0228 19.0703 24.9995 18.736V8.348C24.9995 7.334 24.5566 6.125 22.4436 6.125ZM21.4995 13.125C21.4995 14.2622 21.1623 15.3739 20.5305 16.3195C19.8987 17.2651 19.0007 18.0021 17.95 18.4373C16.8993 18.8725 15.7432 18.9864 14.6278 18.7645C13.5124 18.5427 12.4878 17.995 11.6837 17.1909C10.8795 16.3867 10.3319 15.3622 10.11 14.2468C9.88817 13.1314 10.002 11.9752 10.4372 10.9246C10.8724 9.87389 11.6094 8.97587 12.555 8.34405C13.5006 7.71223 14.6123 7.375 15.7495 7.375C17.2741 7.37659 18.7357 7.9829 19.8137 9.06089C20.8916 10.1389 21.498 11.6005 21.4995 13.125ZM5.99955 9.875C5.99955 10.1222 5.92624 10.3639 5.78889 10.5695C5.65154 10.775 5.45631 10.9352 5.2279 11.0298C4.9995 11.1245 4.74816 11.1492 4.50569 11.101C4.26321 11.0528 4.04048 10.9337 3.86567 10.7589C3.69085 10.5841 3.5718 10.3613 3.52357 10.1189C3.47534 9.87639 3.50009 9.62505 3.5947 9.39665C3.68931 9.16824 3.84953 8.97301 4.05509 8.83566C4.26065 8.69831 4.50232 8.625 4.74955 8.625C5.08107 8.625 5.39901 8.7567 5.63343 8.99112C5.86785 9.22554 5.99955 9.54348 5.99955 9.875ZM15.75 16.875C17.8211 16.875 19.5 15.1961 19.5 13.125C19.5 11.0539 17.8211 9.375 15.75 9.375C13.6789 9.375 12 11.0539 12 13.125C12 15.1961 13.6789 16.875 15.75 16.875Z"
        fill="#00A0DF"
  />
</svg>
