<svg class="icon" viewBox="0 0 40 40" fill="none" xmlns="http://www.w3.org/2000/svg">
<g clip-path="url(#camera-micro-clip0)">
<rect x="4" y="8" width="5" height="3" fill="#091E42"/>
<path d="M35.7329 10.4157H33.5406C33.365 10.4095 33.1952 10.3514 33.0526 10.2488C32.91 10.1463 32.801 10.0038 32.7393 9.83931C31.7097 7.66695 30.6452 5.41797 28.3296 5.41797L20 5.41797C18.2158 5.41797 17.2746 6.71405 15.5703 9.06799C14.9306 9.94593 14.7207 10.4157 14.1643 10.4157L4.1688 10.4157C0.732019 10.4157 0.00901162 12.4298 0.00901162 14.119L0.00901162 31.4246C-0.0296447 31.9816 0.0563889 32.5401 0.260849 33.0597C0.465309 33.5792 0.783049 34.0466 1.19094 34.4278C1.59883 34.8091 2.0866 35.0946 2.61874 35.2635C3.15088 35.4324 3.71399 35.4806 4.26709 35.4045H35.7329C36.286 35.4806 36.8491 35.4324 37.3813 35.2635C37.9134 35.0946 38.4012 34.8091 38.8091 34.4278C39.2169 34.0466 39.5347 33.5792 39.7392 33.0597C39.9436 32.5401 40.0296 31.9816 39.991 31.4246V14.119C39.991 12.4298 39.253 10.4157 35.7329 10.4157ZM34.1603 22.0771C34.1603 23.9717 33.5985 25.8237 32.5459 27.3989C31.4934 28.9742 29.9973 30.202 28.247 30.927C26.4967 31.652 24.5706 31.8417 22.7125 31.4721C20.8543 31.1025 19.1475 30.1902 17.8079 28.8505C16.4682 27.5109 15.5559 25.804 15.1863 23.9459C14.8167 22.0878 15.0064 20.1617 15.7314 18.4114C16.4564 16.6611 17.6842 15.165 19.2595 14.1125C20.8347 13.0599 22.6867 12.4981 24.5813 12.4981C27.121 12.5008 29.5559 13.5108 31.3517 15.3067C33.1476 17.1025 34.1576 19.5374 34.1603 22.0771ZM8.33859 16.6629C8.33859 17.0748 8.21646 17.4774 7.98764 17.8198C7.75883 18.1623 7.4336 18.4292 7.05309 18.5868C6.67259 18.7444 6.25389 18.7856 5.84994 18.7053C5.446 18.6249 5.07495 18.4266 4.78372 18.1354C4.49249 17.8441 4.29416 17.4731 4.21381 17.0692C4.13346 16.6652 4.1747 16.2465 4.33231 15.866C4.48992 15.4855 4.75683 15.1603 5.09928 14.9315C5.44173 14.7026 5.84434 14.5805 6.2562 14.5805C6.80848 14.5805 7.33815 14.7999 7.72867 15.1904C8.11919 15.5809 8.33859 16.1106 8.33859 16.6629Z" fill="url(#camera-micro-paint0_linear)"/>
<path d="M7.98767 17.8174C8.21649 17.475 8.33862 17.0724 8.33862 16.6605C8.33862 16.1082 8.11922 15.5786 7.7287 15.188C7.33817 14.7975 6.80851 14.5781 6.25622 14.5781C5.84437 14.5781 5.44176 14.7003 5.09931 14.9291C4.75686 15.1579 4.48995 15.4831 4.33234 15.8636C4.17473 16.2441 4.13349 16.6628 4.21384 17.0668C4.29419 17.4707 4.49252 17.8418 4.78375 18.133C5.07498 18.4242 5.44602 18.6226 5.84997 18.7029C6.25391 18.7833 6.67261 18.742 7.05312 18.5844C7.43363 18.4268 7.75886 18.1599 7.98767 17.8174Z" fill="url(#camera-micro-paint1_linear)"/>
<path d="M34.5 22C34.5 27.2467 30.2467 31.5 25 31.5C19.7533 31.5 15.5 27.2467 15.5 22C15.5 16.7533 19.7533 12.5 25 12.5C30.2467 12.5 34.5 16.7533 34.5 22Z" fill="#99D9F2" stroke="#253858" stroke-linejoin="round"/>
<mask id="camera-micro-mask0" mask-type="alpha" maskUnits="userSpaceOnUse" x="15" y="12" width="20" height="20">
<path d="M34.5 22C34.5 27.2467 30.2467 31.5 25 31.5C19.7533 31.5 15.5 27.2467 15.5 22C15.5 16.7533 19.7533 12.5 25 12.5C30.2467 12.5 34.5 16.7533 34.5 22Z" fill="#99D9F2" stroke="#253858" stroke-linejoin="round"/>
</mask>
<g mask="url(#camera-micro-mask0)">
<path opacity="0.5" d="M36 32V11L15 32L36 32Z" fill="url(#camera-micro-paint2_linear)"/>
</g>
<path d="M34 22C34 26.9706 29.9706 31 25 31C20.0294 31 16 26.9706 16 22C16 17.0294 20.0294 13 25 13C29.9706 13 34 17.0294 34 22Z" stroke="#42526E" stroke-width="2" stroke-linejoin="round"/>
<path d="M3.875 9.97156L9.125 10C9.35706 10 9.57962 9.90635 9.74372 9.73965C9.90781 9.57295 10 9.34686 10 9.11111V8.66667C10 7.95942 9.72344 7.28115 9.23116 6.78105C8.73887 6.28095 8.07119 6 7.375 6L5.625 6C4.92881 6 4.26113 6.28095 3.76884 6.78105C3.27656 7.28115 3 7.95942 3 8.66667V9.08267C3 9.31842 3.09219 9.54451 3.25628 9.71121C3.42038 9.87791 3.64294 9.97156 3.875 9.97156Z" fill="#EB4B68"/>
</g>
<defs>
<linearGradient id="camera-micro-paint0_linear" x1="-25.5172" y1="71.4654" x2="53.2411" y2="-53.9148" gradientUnits="userSpaceOnUse">
<stop stop-color="#DFE1E6"/>
<stop offset="1" stop-color="#DFE1E6"/>
</linearGradient>
<linearGradient id="camera-micro-paint1_linear" x1="6.25622" y1="14.5781" x2="7.0816" y2="22.0911" gradientUnits="userSpaceOnUse">
<stop stop-color="#00A0DF"/>
<stop offset="1" stop-color="#007CBF"/>
</linearGradient>
<linearGradient id="camera-micro-paint2_linear" x1="25.5" y1="11.5833" x2="24.785" y2="28.8411" gradientUnits="userSpaceOnUse">
<stop stop-color="#33B3E5"/>
<stop offset="1" stop-color="#99D9F2" stop-opacity="0"/>
</linearGradient>
<clipPath id="camera-micro-clip0">
<rect width="40" height="40" fill="white"/>
</clipPath>
</defs>
</svg>
