<svg class="icon"
     viewBox="0 0 40 40"
     fill="none"
     xmlns="http://www.w3.org/2000/svg"
>
    <rect x="2.58331" y="11.7293" width="6.88881" height="5.16661" rx="2.5833" transform="rotate(30 2.58331 11.7293)" fill="#494993"/>
    <rect x="31.4508" y="15.1737" width="6.88881" height="5.16661" rx="2.5833" transform="rotate(-30 31.4508 15.1737)" fill="#494993"/>
    <rect x="4.55872" y="21.3909" width="7.7293" height="14.4924" rx="3.86465" fill="#344563"/>
    <rect x="27.7466" y="21.3909" width="7.7293" height="14.4924" rx="3.86465" fill="#344563"/>
    <path d="M35.3035 14.1254L33.3474 6.85994C32.8931 5.17258 31.3631 4 29.6157 4H10.3115C8.61494 4 7.11674 5.10654 6.61779 6.72811L4.36197 14.0595C3.97964 15.3021 4.90877 16.5601 6.20885 16.5601H33.4376C34.7092 16.5601 35.6341 15.3532 35.3035 14.1254Z" fill="#494993"/>
    <path fill-rule="evenodd" clip-rule="evenodd" d="M16.1398 5.93231L16.6 9L17.8 8.33333L19 13L18.4699 5.93231H29.9387C30.3594 5.93231 30.7318 6.20459 30.8593 6.60553L33.6261 15.301C33.8243 15.9241 33.3593 16.5601 32.7054 16.5601H6.90428C6.2338 16.5601 5.76715 15.8939 5.99629 15.2638L9.15827 6.5683C9.29712 6.18648 9.65999 5.93231 10.0663 5.93231H16.1398Z" fill="#CFF6FF"/>
    <circle cx="26.5" cy="14.5" r="4.5" fill="#FAFBFC"/>
    <path opacity="0.5" d="M10.1355 8.0422C10.267 7.64767 10.6362 7.38156 11.0521 7.38156H11.4489C12.2206 7.38156 12.6808 8.24159 12.2528 8.88365L9.53872 12.9548C9.44552 13.0946 9.28861 13.1785 9.12059 13.1785C8.77759 13.1785 8.53538 12.8425 8.64385 12.5171L10.1355 8.0422Z" fill="white"/>
    <circle cx="26.2974" cy="14.6278" r="2.89849" stroke="#ADADED" stroke-width="0.966163"/>
    <path d="M16.4346 15.1109H9.38954C7.78875 15.1109 6.49105 16.4086 6.49105 18.0094C6.49105 18.543 6.92362 18.9755 7.45721 18.9755H30.162C31.496 18.9755 32.5775 17.8941 32.5775 16.5601C32.5775 15.2261 31.496 14.1447 30.162 14.1447H19.7354C19.2854 14.1447 18.8416 14.2495 18.4392 14.4507L17.7308 14.8049C17.3284 15.0061 16.8846 15.1109 16.4346 15.1109Z" fill="#D5D5F6"/>
    <path d="M1.66023 19.5552V28.0864C1.66023 29.7433 3.00338 31.0864 4.66023 31.0864H19.5092C19.8456 31.0864 20.1795 31.0298 20.4971 30.9191L25.5202 29.1673C25.8378 29.0566 26.1718 29 26.5081 29H33C34.6568 29 36 27.6569 36 26V23.4511C36 23.152 36.0447 22.8547 36.1327 22.5688L36.8034 20.389C37.3976 18.4578 35.9516 16.5034 33.9311 16.5067L4.65527 16.5552C3.00036 16.5579 1.66023 17.9002 1.66023 19.5552Z" fill="url(#carbroken-paint0_linear)"/>
    <path d="M6.01338 22.196C5.69489 22.6727 5.52489 23.2331 5.52489 23.8063C5.52489 24.5751 5.83027 25.3123 6.37384 25.8559C6.91741 26.3994 7.65466 26.7048 8.42338 26.7048C8.99665 26.7048 9.55704 26.5348 10.0337 26.2163C10.5104 25.8978 10.8819 25.4452 11.1012 24.9155C11.3206 24.3859 11.378 23.8031 11.2662 23.2409C11.1543 22.6786 10.8783 22.1621 10.4729 21.7568C10.0676 21.3514 9.5511 21.0754 8.98885 20.9635C8.4266 20.8517 7.84381 20.9091 7.31418 21.1285C6.78455 21.3479 6.33187 21.7194 6.01338 22.196Z" fill="#FDE293"/>
    <rect x="14.1716" y="21.2689" width="11.594" height="1.93233" rx="0.966163" transform="rotate(-3.55248 14.1716 21.2689)" fill="#19194B"/>
    <rect x="14.3473" y="24.1931" width="11.594" height="1.93233" rx="0.966163" transform="rotate(5.78536 14.3473 24.1931)" fill="#19194B"/>
    <mask id="carbroken-mask0" mask-type="alpha" maskUnits="userSpaceOnUse" x="5" y="20" width="7" height="7">
        <path d="M6.01338 22.196C5.69489 22.6727 5.52489 23.2331 5.52489 23.8063C5.52489 24.5751 5.83027 25.3123 6.37384 25.8559C6.91741 26.3994 7.65466 26.7048 8.42338 26.7048C8.99665 26.7048 9.55704 26.5348 10.0337 26.2163C10.5104 25.8978 10.8819 25.4452 11.1012 24.9155C11.3206 24.3859 11.378 23.8031 11.2662 23.2409C11.1543 22.6786 10.8783 22.1621 10.4729 21.7568C10.0676 21.3514 9.5511 21.0754 8.98885 20.9635C8.4266 20.8517 7.84381 20.9091 7.31418 21.1285C6.78455 21.3479 6.33187 21.7194 6.01338 22.196Z" fill="#FDE293"/>
    </mask>
    <g mask="url(#carbroken-mask0)">
        <path d="M11.3219 26.7048V20.9078L5.52489 26.7048H11.3219Z" fill="#FBD677"/>
    </g>
    <path d="M29.2013 22.196C28.8828 22.6727 28.7128 23.2331 28.7128 23.8063C28.7128 24.5751 29.0182 25.3123 29.5618 25.8559C30.1053 26.3994 30.8426 26.7048 31.6113 26.7048C32.1846 26.7048 32.745 26.5348 33.2216 26.2163C33.6983 25.8978 34.0698 25.4452 34.2891 24.9155C34.5085 24.3859 34.5659 23.8031 34.4541 23.2409C34.3422 22.6786 34.0662 22.1621 33.6608 21.7568C33.2555 21.3514 32.739 21.0754 32.1768 20.9635C31.6145 20.8517 31.0317 20.9091 30.5021 21.1285C29.9725 21.3479 29.5198 21.7194 29.2013 22.196Z" fill="#494993"/>
    <path d="M32 23C31 22.8333 29.2 22.8 30 24C30.8 25.2 31.6667 25.8333 32 26" stroke="#EB4B68" stroke-width="0.3" stroke-linecap="round"/>
    <path d="M32 23.0845C33 22.9179 33.3 24.3 32.5 25.5C31.7 26.7 32.3333 25.9179 32 26.0845" stroke="#33B3E5" stroke-width="0.3" stroke-linecap="round"/>
    <path d="M29.4885 25.6011C29.17 25.8235 29 26.0849 29 26.3524C29 26.7111 29.3054 27.0551 29.8489 27.3087C30.3925 27.5623 31.1298 27.7048 31.8985 27.7048C32.4717 27.7048 33.0321 27.6255 33.5088 27.4769C33.9854 27.3283 34.357 27.1171 34.5763 26.87C34.7957 26.6228 34.8531 26.3509 34.7413 26.0886C34.6294 25.8262 34.3534 25.5852 33.948 25.3961C33.5427 25.207 33.0262 25.0782 32.4639 25.026C31.9017 24.9738 31.3189 25.0006 30.7893 25.1029C30.2596 25.2053 29.807 25.3786 29.4885 25.6011Z" fill="#FDE293"/>
    <mask id="carbroken-mask1" mask-type="alpha" maskUnits="userSpaceOnUse" x="29" y="25" width="6" height="3">
        <path d="M29.4885 25.6011C29.17 25.8235 29 26.0849 29 26.3524C29 26.7111 29.3054 27.0551 29.8489 27.3087C30.3925 27.5623 31.1298 27.7048 31.8985 27.7048C32.4717 27.7048 33.0321 27.6255 33.5088 27.4769C33.9854 27.3283 34.357 27.1171 34.5763 26.87C34.7957 26.6228 34.8531 26.3509 34.7413 26.0886C34.6294 25.8262 34.3534 25.5852 33.948 25.3961C33.5427 25.207 33.0262 25.0782 32.4639 25.026C31.9017 24.9738 31.3189 25.0006 30.7893 25.1029C30.2596 25.2053 29.807 25.3786 29.4885 25.6011Z" fill="#FDE293"/>
    </mask>
    <g mask="url(#carbroken-mask1)">
        <path d="M34.797 27.7048V25L29 27.7048H34.797Z" fill="#FBD677"/>
    </g>
    <circle cx="32" cy="23" r="1" fill="#DFE1E6"/>
    <rect x="27" y="32" width="9" height="4" rx="2" fill="#344563"/>
    <defs>
        <linearGradient id="carbroken-paint0_linear" x1="20.0173" y1="16.5601" x2="20.0173" y2="30.5695" gradientUnits="userSpaceOnUse">
            <stop stop-color="#494993"/>
            <stop offset="1" stop-color="#7878C9"/>
        </linearGradient>
    </defs>
</svg>
