<svg class="icon"
     viewBox="0 0 40 40"
     fill="none"
     xmlns="http://www.w3.org/2000/svg"
>
    <g clip-path="url(#carcolor-clip0)">
        <rect x="2.58331" y="11.7293" width="6.88881" height="5.16661" rx="2.5833" transform="rotate(30 2.58331 11.7293)" fill="#494993"/>
        <rect x="31.4508" y="15.1737" width="6.88881" height="5.16661" rx="2.5833" transform="rotate(-30 31.4508 15.1737)" fill="#494993"/>
        <rect x="4.55873" y="21.3909" width="7.7293" height="14.4924" rx="3.86465" fill="#344563"/>
        <rect x="27.7466" y="21.3909" width="7.7293" height="14.4924" rx="3.86465" fill="#344563"/>
        <path d="M35.3035 14.1254L33.3474 6.85994C32.8931 5.17258 31.3631 4 29.6157 4H10.3115C8.61494 4 7.11674 5.10654 6.61779 6.72811L4.36197 14.0595C3.97964 15.3021 4.90877 16.5601 6.20885 16.5601H33.4376C34.7092 16.5601 35.6341 15.3532 35.3035 14.1254Z" fill="#494993"/>
        <path d="M33.6261 15.301L30.8593 6.60555C30.7318 6.20461 30.3594 5.93233 29.9387 5.93233H10.0663C9.65999 5.93233 9.29712 6.18649 9.15827 6.56831L5.99628 15.2638C5.76715 15.8939 6.2338 16.5601 6.90428 16.5601H32.7054C33.3593 16.5601 33.8243 15.9241 33.6261 15.301Z" fill="#CFF6FF"/>
        <path opacity="0.5" d="M10.1355 8.04221C10.267 7.64769 10.6362 7.38158 11.0521 7.38158H11.4489C12.2206 7.38158 12.6809 8.2416 12.2528 8.88367L9.53873 12.9548C9.44553 13.0946 9.28863 13.1786 9.1206 13.1786C8.7776 13.1786 8.5354 12.8425 8.64387 12.5171L10.1355 8.04221Z" fill="white"/>
        <circle cx="26.2974" cy="14.6278" r="2.89849" stroke="#ADADED" stroke-width="0.966163"/>
        <path d="M16.4346 15.1109H9.38955C7.78876 15.1109 6.49106 16.4086 6.49106 18.0094C6.49106 18.543 6.92362 18.9755 7.45722 18.9755H30.1621C31.496 18.9755 32.5775 17.8941 32.5775 16.5601C32.5775 15.2261 31.496 14.1447 30.1621 14.1447H19.7354C19.2854 14.1447 18.8416 14.2495 18.4392 14.4507L17.7309 14.8049C17.3284 15.0061 16.8846 15.1109 16.4346 15.1109Z" fill="#D5D5F6"/>
        <path d="M38.3744 26.2217V20.4248C38.3744 18.2904 36.6442 16.5601 34.5098 16.5601H5.52488C3.3905 16.5601 1.66023 18.2904 1.66023 20.4248V26.2217C1.66023 28.3561 3.39049 30.0864 5.52488 30.0864H34.5098C36.6442 30.0864 38.3744 28.3561 38.3744 26.2217Z" fill="url(#carcolor-paint0_linear)"/>
        <path d="M29.2013 22.196C28.8828 22.6727 28.7128 23.2331 28.7128 23.8063C28.7128 24.5751 29.0182 25.3123 29.5617 25.8559C30.1053 26.3995 30.8426 26.7048 31.6113 26.7048C32.1846 26.7048 32.7449 26.5348 33.2216 26.2163C33.6983 25.8979 34.0698 25.4452 34.2891 24.9155C34.5085 24.3859 34.5659 23.8031 34.4541 23.2409C34.3422 22.6786 34.0662 22.1622 33.6608 21.7568C33.2555 21.3514 32.739 21.0754 32.1768 20.9635C31.6145 20.8517 31.0317 20.9091 30.5021 21.1285C29.9725 21.3479 29.5198 21.7194 29.2013 22.196Z" fill="#FDE293"/>
        <path d="M6.01337 22.196C5.69488 22.6727 5.52489 23.2331 5.52489 23.8063C5.52489 24.5751 5.83026 25.3123 6.37383 25.8559C6.91741 26.3995 7.65465 26.7048 8.42337 26.7048C8.99664 26.7048 9.55703 26.5348 10.0337 26.2163C10.5103 25.8979 10.8818 25.4452 11.1012 24.9155C11.3206 24.3859 11.378 23.8031 11.2662 23.2409C11.1543 22.6786 10.8783 22.1622 10.4729 21.7568C10.0676 21.3514 9.55109 21.0754 8.98884 20.9635C8.42659 20.8517 7.8438 20.9091 7.31417 21.1285C6.78454 21.3479 6.33186 21.7194 6.01337 22.196Z" fill="#FDE293"/>
        <rect x="14.2204" y="20.9079" width="11.594" height="1.93233" rx="0.966163" fill="#19194B"/>
        <rect x="14.2204" y="24.7725" width="11.594" height="1.93233" rx="0.966163" fill="#19194B"/>
        <mask id="carcolor-mask0" mask-type="alpha" maskUnits="userSpaceOnUse" x="5" y="20" width="7" height="7">
            <path d="M6.01337 22.196C5.69488 22.6727 5.52489 23.2331 5.52489 23.8063C5.52489 24.5751 5.83026 25.3123 6.37383 25.8559C6.91741 26.3995 7.65465 26.7048 8.42337 26.7048C8.99664 26.7048 9.55703 26.5348 10.0337 26.2163C10.5103 25.8979 10.8818 25.4452 11.1012 24.9155C11.3206 24.3859 11.378 23.8031 11.2662 23.2409C11.1543 22.6786 10.8783 22.1622 10.4729 21.7568C10.0676 21.3514 9.55109 21.0754 8.98884 20.9635C8.42659 20.8517 7.8438 20.9091 7.31417 21.1285C6.78454 21.3479 6.33186 21.7194 6.01337 22.196Z" fill="#FDE293"/>
        </mask>
        <g mask="url(#carcolor-mask0)">
            <path d="M11.3219 26.7048V20.9079L5.52489 26.7048H11.3219Z" fill="#FBD677"/>
        </g>
        <mask id="carcolor-mask1" mask-type="alpha" maskUnits="userSpaceOnUse" x="28" y="20" width="7" height="7">
            <path d="M29.2013 22.196C28.8828 22.6727 28.7128 23.2331 28.7128 23.8063C28.7128 24.5751 29.0182 25.3123 29.5617 25.8559C30.1053 26.3995 30.8426 26.7048 31.6113 26.7048C32.1846 26.7048 32.7449 26.5348 33.2216 26.2163C33.6983 25.8979 34.0698 25.4452 34.2891 24.9155C34.5085 24.3859 34.5659 23.8031 34.4541 23.2409C34.3422 22.6786 34.0662 22.1622 33.6608 21.7568C33.2555 21.3514 32.739 21.0754 32.1768 20.9635C31.6145 20.8517 31.0317 20.9091 30.5021 21.1285C29.9725 21.3479 29.5198 21.7194 29.2013 22.196Z" fill="#FDE293"/>
        </mask>
        <g mask="url(#carcolor-mask1)">
            <path d="M34.5098 26.7048V20.9079L28.7128 26.7048H34.5098Z" fill="#FBD677"/>
        </g>
    </g>
    <defs>
        <linearGradient id="carcolor-paint0_linear" x1="20.0173" y1="16.5601" x2="20.0173" y2="30.5695" gradientUnits="userSpaceOnUse">
            <stop stop-color="#494993"/>
            <stop offset="1" stop-color="#7878C9"/>
        </linearGradient>
        <clipPath id="carcolor-clip0">
            <rect width="40" height="40" fill="white"/>
        </clipPath>
    </defs>
</svg>
