<svg id="card-pin-icon"
     class="icon"
     viewBox="0 0 40 19"
     xmlns="http://www.w3.org/2000/svg"
     xmlns:xlink="http://www.w3.org/1999/xlink"
>
  <defs>
    <mask id="card-pin-icon-mask"
          x="0"
          y="0"
          width="40"
          height="19"
          maskUnits="userSpaceOnUse"
    >
      <g transform="translate(0 -10)">
        <g id="card-pin-icon-mask0">
          <path d="M9.5,10h21A9.5,9.5,0,0,1,40,19.5h0A9.5,9.5,0,0,1,30.5,29H9.5A9.5,9.5,0,0,1,0,19.5H0A9.5,9.5,0,0,1,9.5,10Z" fill="#f4f5f7"/>
        </g>
      </g>
    </mask>
    <linearGradient id="card-pin-icon-gradient-1"
                    x1="19.784"
                    y1="20.395"
                    x2="7.416"
                    y2="20.676"
                    gradientTransform="matrix(1, 0, 0, -1, 0, 39.89)"
                    gradientUnits="userSpaceOnUse"
    >
      <stop offset="0" stop-color="#ebecf0"/>
      <stop offset="1" stop-color="#ebecf0" stop-opacity="0"/>
    </linearGradient>
  </defs>
  <path d="M9.5,10h21A9.5,9.5,0,0,1,40,19.5h0A9.5,9.5,0,0,1,30.5,29H9.5A9.5,9.5,0,0,1,0,19.5H0A9.5,9.5,0,0,1,9.5,10Z" transform="translate(0 -10)" fill="#f4f5f7"/>
  <g mask="url(#card-pin-icon-mask)">
    <path d="M40,29V10L0,29Z" transform="translate(0 -10)" fill="url(#card-pin-icon-gradient-1)"/>
  </g>
  <path d="M10.847,17.524a.925.925,0,0,0-.585-.4.937.937,0,0,0-.7.131l-.154.1a.323.323,0,0,1-.156.05.317.317,0,0,1-.16-.037.309.309,0,0,1-.162-.27V16.92a.917.917,0,0,0-.271-.65.929.929,0,0,0-1.31,0,.917.917,0,0,0-.271.65v.161a.308.308,0,0,1-.163.271.31.31,0,0,1-.161.036.315.315,0,0,1-.156-.052l-.135-.089a.929.929,0,0,0-1.275.261.918.918,0,0,0,.248,1.27l.5.333a.316.316,0,0,1,.1.111.322.322,0,0,1,.036.146.305.305,0,0,1-.137.252l-.5.329a.94.94,0,0,0-.268.25.92.92,0,0,0,.238,1.3.934.934,0,0,0,.708.136.922.922,0,0,0,.337-.146l.153-.1a.308.308,0,0,1,.434.1.3.3,0,0,1,.044.157v.184a.918.918,0,0,0,.271.651.929.929,0,0,0,1.31,0,.918.918,0,0,0,.271-.651v-.16a.3.3,0,0,1,.044-.158.311.311,0,0,1,.28-.148.309.309,0,0,1,.156.052l.134.088a.93.93,0,0,0,1.276-.261.919.919,0,0,0-.248-1.271l-.5-.332a.311.311,0,0,1-.1-.111.3.3,0,0,1-.037-.145.31.31,0,0,1,.037-.146.316.316,0,0,1,.1-.11l.505-.329a.924.924,0,0,0,.4-.582.92.92,0,0,0-.134-.692Z" transform="translate(0 -10)" fill="#00a0df"/>
  <path d="M19.1,17.524a.925.925,0,0,0-.585-.4.937.937,0,0,0-.7.131l-.154.1a.323.323,0,0,1-.156.05.317.317,0,0,1-.16-.037.309.309,0,0,1-.162-.27V16.92a.917.917,0,0,0-.271-.65.929.929,0,0,0-1.31,0,.917.917,0,0,0-.271.65v.161a.3.3,0,0,1-.044.158.294.294,0,0,1-.119.113.31.31,0,0,1-.161.036.315.315,0,0,1-.156-.052l-.135-.089a.929.929,0,0,0-1.275.261.918.918,0,0,0,.248,1.27l.5.333a.316.316,0,0,1,.1.111.322.322,0,0,1,.036.146.305.305,0,0,1-.137.252l-.5.329a.94.94,0,0,0-.268.25.914.914,0,0,0-.157.7.916.916,0,0,0,.395.6.934.934,0,0,0,.708.136.922.922,0,0,0,.337-.146l.153-.1a.308.308,0,0,1,.434.1.3.3,0,0,1,.044.157v.184a.918.918,0,0,0,.271.651.929.929,0,0,0,1.31,0,.918.918,0,0,0,.271-.651v-.16a.3.3,0,0,1,.044-.158.311.311,0,0,1,.28-.148.309.309,0,0,1,.156.052l.134.088a.93.93,0,0,0,1.276-.261.919.919,0,0,0-.248-1.271l-.5-.332a.311.311,0,0,1-.1-.111.3.3,0,0,1-.037-.145.31.31,0,0,1,.037-.146.316.316,0,0,1,.1-.11l.5-.329a.916.916,0,0,0,.264-1.274Z" transform="translate(0 -10)" fill="#00a0df"/>
  <path d="M27.347,17.524a.925.925,0,0,0-.585-.4.937.937,0,0,0-.7.131l-.154.1a.323.323,0,0,1-.156.05.317.317,0,0,1-.16-.037.309.309,0,0,1-.162-.27V16.92a.917.917,0,0,0-.271-.65.929.929,0,0,0-1.31,0,.917.917,0,0,0-.271.65v.161a.3.3,0,0,1-.044.158.294.294,0,0,1-.119.113.31.31,0,0,1-.161.036.315.315,0,0,1-.156-.052l-.134-.089a.93.93,0,0,0-1.276.261.915.915,0,0,0,.248,1.27l.5.333a.316.316,0,0,1,.1.111.309.309,0,0,1,.036.146.305.305,0,0,1-.137.252l-.5.329a.94.94,0,0,0-.268.25.92.92,0,0,0,.238,1.3.934.934,0,0,0,.708.136.922.922,0,0,0,.337-.146l.153-.1a.308.308,0,0,1,.434.1.3.3,0,0,1,.044.157v.184a.918.918,0,0,0,.271.651.929.929,0,0,0,1.31,0,.918.918,0,0,0,.271-.651v-.16a.3.3,0,0,1,.044-.158.311.311,0,0,1,.28-.148.309.309,0,0,1,.156.052l.134.088a.93.93,0,0,0,1.276-.261.919.919,0,0,0-.248-1.271l-.5-.332a.311.311,0,0,1-.1-.111.3.3,0,0,1-.037-.145.31.31,0,0,1,.037-.146.316.316,0,0,1,.1-.11l.5-.329a.916.916,0,0,0,.264-1.274Z" transform="translate(0 -10)" fill="#00a0df"/>
  <path d="M34.847,17.524a.925.925,0,0,0-.585-.4.937.937,0,0,0-.7.131l-.154.1a.323.323,0,0,1-.156.05.317.317,0,0,1-.16-.037.309.309,0,0,1-.162-.27V16.92a.917.917,0,0,0-.271-.65.929.929,0,0,0-1.31,0,.917.917,0,0,0-.271.65v.161a.3.3,0,0,1-.044.158.294.294,0,0,1-.119.113.31.31,0,0,1-.161.036.315.315,0,0,1-.156-.052l-.134-.089a.93.93,0,0,0-1.276.261.915.915,0,0,0,.248,1.27l.5.333a.316.316,0,0,1,.1.111.309.309,0,0,1,.036.146.305.305,0,0,1-.137.252l-.5.329a.94.94,0,0,0-.268.25.92.92,0,0,0,.238,1.3.934.934,0,0,0,.708.136.922.922,0,0,0,.337-.146l.153-.1a.308.308,0,0,1,.434.1.3.3,0,0,1,.044.157v.184a.918.918,0,0,0,.271.651.929.929,0,0,0,1.31,0,.918.918,0,0,0,.271-.651v-.16a.3.3,0,0,1,.044-.158.309.309,0,0,1,.436-.1l.135.088a.929.929,0,0,0,1.275-.261.919.919,0,0,0-.248-1.271l-.5-.332a.311.311,0,0,1-.1-.111.3.3,0,0,1-.037-.145.31.31,0,0,1,.037-.146.316.316,0,0,1,.1-.11l.5-.329a.916.916,0,0,0,.264-1.274Z" transform="translate(0 -10)" fill="#00a0df"/>
</svg>

