<svg class="icon"
     viewBox="0 0 48 48"
     fill="none"
     xmlns="http://www.w3.org/2000/svg"
>
  <path d="M0 0H48V48H0V0Z" fill="white"/>
  <path d="M21.8787 17.2929L22.5858 16.5858L21.8787 17.2929C22.2692 17.6834 22.2692 18.3166 21.8787 18.7071L20.7071 19.8787C19.5355 21.0503 19.5355 22.9497 20.7071 24.1213L21.8787 25.2929C22.2692 25.6834 22.2692 26.3166 21.8787 26.7071L20.7071 27.8787C19.5355 29.0503 19.5355 30.9497 20.7071 32.1213L21.8787 33.2929C22.2692 33.6834 22.2692 34.3166 21.8787 34.7071L19.8787 36.7071C19.6911 36.8946 19.4368 37 19.1716 37H8C6.34315 37 5 35.6569 5 34V14C5 12.3431 6.34315 11 8 11H20C20.5852 11 20.8783 11.7075 20.4645 12.1213C19.4269 13.1589 19.4269 14.8411 20.4645 15.8787L21.8787 17.2929Z"
        fill="#00A0DF"
        stroke="#19194B"
        stroke-width="2"
  />
  <mask id="mask0"
        mask-type="alpha"
        maskUnits="userSpaceOnUse"
        x="6"
        y="12"
        width="15"
        height="24"
  >
    <rect x="21"
          y="36"
          width="15"
          height="24"
          transform="rotate(-180 21 36)"
          fill="#C4C4C4"
    />
  </mask>
  <g mask="url(#mask0)">
    <path d="M-0.853105 27.178C-2.14607 26.7509 -3.08336 25.4902 -3.08336 24C-3.08336 22.5098 -2.14607 21.2484 -0.853104 20.822C-1.47773 19.5661 -1.2863 17.9826 -0.276165 16.9285C0.733304 15.8745 2.25081 15.6747 3.45436 16.3272C3.86305 14.978 5.07188 14 6.49997 14C7.92807 14 9.13625 14.978 9.5456 16.3272C10.7491 15.6747 12.2667 15.8745 13.2761 16.9285C14.2863 17.9826 14.4777 19.5661 13.8531 20.822C15.1454 21.2484 16.0833 22.5098 16.0833 24C16.0833 25.4902 15.1454 26.7509 13.8531 27.178C14.4777 28.4332 14.2863 30.0167 13.2761 31.0708C12.2667 32.1248 10.7491 32.3246 9.5456 31.6721C9.13625 33.022 7.92806 34 6.49997 34C5.07188 34 3.86304 33.022 3.45435 31.6721C2.25081 32.3246 0.733302 32.1248 -0.276167 31.0708C-1.2863 30.0167 -1.47773 28.4332 -0.853105 27.178Z"
          fill="#19194B"
    />
    <path fill-rule="evenodd"
          clip-rule="evenodd"
          d="M9.15694 18.4466C9.0143 18.4466 8.87055 18.4177 8.73417 18.3588C8.36449 18.1987 8.10648 17.843 8.0593 17.428C7.96568 16.6042 7.29523 15.9833 6.50021 15.9833C5.70481 15.9833 5.03473 16.6042 4.94111 17.4276C4.89393 17.8426 4.63592 18.1987 4.26624 18.3588C3.89618 18.5186 3.47305 18.4574 3.15865 18.1983C2.53538 17.6852 1.6412 17.7414 1.07875 18.3284C0.516664 18.9159 0.463219 19.8502 0.954537 20.5011C1.20222 20.8295 1.26083 21.2718 1.1075 21.6579C0.954537 22.044 0.6136 22.3135 0.21627 22.3628C-0.572125 22.4601 -1.16665 23.16 -1.16665 23.9907C-1.16665 24.8215 -0.572126 25.5213 0.2159 25.6187C0.613599 25.668 0.954537 25.9374 1.1075 26.3236C1.26083 26.7097 1.20222 27.152 0.954537 27.4803C0.463218 28.1313 0.516663 29.0656 1.07875 29.6526C1.64083 30.2401 2.53501 30.2959 3.15865 29.7828C3.47305 29.5241 3.89618 29.4629 4.26624 29.6226C4.63592 29.7828 4.89393 30.1388 4.94111 30.5538C5.03473 31.3772 5.70481 31.9982 6.5002 31.9982C7.29523 31.9982 7.96568 31.3769 8.0593 30.5534C8.10648 30.1385 8.36449 29.7828 8.73417 29.6226C9.10423 29.4629 9.52773 29.5245 9.84176 29.7828C10.465 30.2963 11.3592 30.2401 11.9213 29.6526C12.4837 29.0656 12.5372 28.1313 12.0455 27.4803C11.7978 27.152 11.7396 26.7097 11.8925 26.3236C12.0459 25.9374 12.3868 25.668 12.7841 25.6187C13.5722 25.5213 14.1667 24.8215 14.1667 23.9907C14.1667 23.16 13.5722 22.4601 12.7841 22.3628C12.3864 22.3135 12.0455 22.044 11.8925 21.6579C11.7396 21.2718 11.7978 20.8295 12.0455 20.5011C12.5372 19.8498 12.4837 18.9159 11.9213 18.3284C11.3588 17.7414 10.465 17.6852 9.84176 18.1983C9.64346 18.3619 9.40131 18.4466 9.15694 18.4466Z"
          fill="white"
    />
  </g>
  <path d="M26.1213 30.7071L25.4142 31.4142L26.1213 30.7071C25.7308 30.3166 25.7308 29.6834 26.1213 29.2929L27.2929 28.1213C28.4645 26.9497 28.4645 25.0502 27.2929 23.8787L26.1213 22.7071C25.7308 22.3166 25.7308 21.6834 26.1213 21.2929L27.2929 20.1213C28.4645 18.9497 28.4645 17.0502 27.2929 15.8787L26.1213 14.7071C25.7308 14.3166 25.7308 13.6834 26.1213 13.2929L28.1213 11.2929C28.3089 11.1054 28.5632 11 28.8284 11L40 11C41.6569 11 43 12.3431 43 14L43 34C43 35.6569 41.6569 37 40 37L28 37C27.4148 37 27.1217 36.2925 27.5355 35.8787C28.5731 34.8411 28.5731 33.1589 27.5355 32.1213L26.1213 30.7071Z"
        fill="#00A0DF"
        stroke="#19194B"
        stroke-width="2"
  />
  <mask id="mask1"
        mask-type="alpha"
        maskUnits="userSpaceOnUse"
        x="26"
        y="10"
        width="18"
        height="28"
  >
    <path d="M43 34C43 35.6569 41.6569 37 40 37L30 37C29.4148 37 29.1217 36.2925 29.5355 35.8787C30.5731 34.8411 30.5731 33.1589 29.5355 32.1213L28.1213 30.7071C27.7308 30.3166 27.7308 29.6834 28.1213 29.2929L29.2929 28.1213C30.4645 26.9497 30.4645 25.0503 29.2929 23.8787L28.1213 22.7071C27.7308 22.3166 27.7308 21.6834 28.1213 21.2929L29.2929 20.1213C30.4645 18.9497 30.4645 17.0503 29.2929 15.8787L28.1213 14.7071C27.7308 14.3166 27.7308 13.6834 28.1213 13.2929L30.1213 11.2929C30.3089 11.1054 30.5632 11 30.8284 11L40 11C41.6569 11 43 12.3431 43 14L43 34Z"
          fill="#00A0DF"
          stroke="#19194B"
          stroke-width="2"
    />
  </mask>
  <g mask="url(#mask1)">
    <circle cx="37" cy="30" r="3" fill="#FAC34B"/>
    <circle cx="33" cy="30" r="3" fill="#EB4B68"/>
    <path d="M31 17C31 16.4477 31.4477 16 32 16H37C37.5523 16 38 16.4477 38 17C38 17.5523 37.5523 18 37 18H32C31.4477 18 31 17.5523 31 17Z"
          fill="#19194B"
    />
    <rect x="21" y="24" width="7" height="2" rx="1" fill="#19194B"/>
    <rect x="29" y="20" width="7" height="2" rx="1" fill="#19194B"/>
  </g>
</svg>
