<svg class="icon" viewBox="0 0 127 132" fill="none" xmlns="http://www.w3.org/2000/svg">
<g clip-path="url(#card-charge-micro-clip0)">
<rect y="11.8047" width="78.7027" height="55.0919" rx="7.87027" fill="url(#card-charge-micro-paint0_linear)"/>
<circle cx="64.93" cy="51.1566" r="5.9027" fill="#FAC34B"/>
<circle cx="57.0599" cy="51.1566" r="5.9027" fill="#EB4B68"/>
<mask id="card-charge-micro-mask0" mask-type="alpha" maskUnits="userSpaceOnUse" x="0" y="11" width="28" height="56">
<rect x="27.5459" y="66.8984" width="27.546" height="55.0919" rx="7.87027" transform="rotate(-180 27.5459 66.8984)" fill="white"/>
</mask>
<g mask="url(#card-charge-micro-mask0)">
<path d="M5.82614 61.3908C4.32853 62.4326 2.67206 62.9648 0.983322 62.9648C-0.846088 62.9648 -2.52759 62.4445 -3.90055 61.3605C-4.97449 60.5276 -5.84968 59.4518 -6.41762 58.1367C-7.33973 58.5091 -8.27811 58.7184 -9.23558 58.7184C-9.69546 58.7184 -10.1556 58.6505 -10.5625 58.5696L-10.5747 58.5672C-12.2244 58.2146 -13.9112 57.3447 -15.0845 56.1204C-16.445 54.7008 -17.1137 53.123 -17.4313 51.4039L-17.4401 51.3562L-17.4441 51.3078C-17.5698 49.8165 -17.4964 48.3663 -16.9919 46.988C-18.1477 46.3442 -19.2909 45.4609 -20.1101 44.2938C-21.1385 42.8541 -21.6437 41.1061 -21.6437 39.354C-21.6437 37.7347 -21.1111 36.0306 -20.321 34.5225L-20.3026 34.4874L-20.2815 34.4541C-19.4604 33.1602 -18.3087 32.2173 -17.0137 31.6245C-17.5251 30.2205 -17.7041 28.781 -17.4313 27.3042L-17.4293 27.2934C-17.0914 25.572 -16.2578 23.8119 -15.0845 22.5876C-13.724 21.168 -12.2119 20.4702 -10.5644 20.1388L-10.5241 20.1307L-10.4832 20.1264C-10.0917 20.0856 -9.69987 20.0651 -9.30792 20.0651C-8.307 20.0651 -7.32458 20.2034 -6.38912 20.5687C-5.83531 19.3489 -4.9892 18.1783 -3.89174 17.3408L-3.87586 17.3287L-3.8595 17.3173C-2.36188 16.2755 -0.705408 15.7432 0.983326 15.7432C2.80608 15.7432 4.47967 16.2886 5.85839 17.3408L5.86362 17.3448C6.93919 18.1781 7.81569 19.2548 8.38426 20.5714C9.30637 20.199 10.2448 19.9896 11.2022 19.9896C11.6621 19.9896 12.1222 20.0575 12.5291 20.1384L12.5414 20.1409C14.1911 20.4934 15.8779 21.3633 17.0511 22.5876C18.3547 23.9479 19.2413 25.3887 19.4108 27.4003C19.5346 28.8694 19.4651 30.2986 18.9807 31.6585C20.1516 32.2363 21.2755 33.1202 22.0793 34.267L22.0909 34.2836L22.1019 34.3007C23.1003 35.8634 23.6104 37.5919 23.6104 39.354C23.6104 41.256 23.0876 43.0024 22.0793 44.4411L22.0755 44.4465C21.276 45.5702 20.2425 46.4857 18.9787 47.0789C19.4913 48.4844 19.671 49.9255 19.3979 51.4039L19.3959 51.4146C19.058 53.136 18.2244 54.8962 17.0511 56.1204C15.6907 57.5401 14.1786 58.2379 12.5311 58.5693L12.4907 58.5774L12.4498 58.5816C12.0583 58.6225 11.6665 58.6429 11.2746 58.6429C10.2736 58.6429 9.29124 58.5047 8.35577 58.1393C7.80196 59.3592 6.95584 60.5297 5.85838 61.3673L5.84251 61.3794L5.82614 61.3908Z" fill="#19194B"/>
<path d="M0.93782 59.7539C-0.294645 59.7539 -1.36635 59.3996 -2.20586 58.7656C-3.11681 58.0384 -3.72411 57.1433 -4.04563 56.0805C-4.20638 55.5024 -4.59934 55.0549 -5.11733 54.8311C-5.34954 54.7379 -5.61746 54.6633 -5.88539 54.6633C-6.17118 54.6633 -6.47483 54.7379 -6.74276 54.8684C-7.61799 55.3159 -8.40391 55.5397 -9.17196 55.5397C-9.43989 55.5397 -9.68996 55.521 -9.94002 55.4651C-11.0832 55.2227 -12.2263 54.626 -12.9587 53.8428C-13.7446 53.0224 -14.2269 52.0714 -14.4769 50.7847C-14.602 49.3489 -14.4233 48.3047 -13.9589 47.4096C-13.691 46.9062 -13.6553 46.3468 -13.816 45.8246C-13.9768 45.3025 -14.3697 44.855 -14.8342 44.6312C-16.0488 44.0532 -17.0133 43.3073 -17.6206 42.4682C-18.2458 41.6291 -18.5673 40.5103 -18.5673 39.3355C-18.5673 38.3472 -18.2279 37.1538 -17.6563 36.0537C-16.8883 34.9162 -15.8166 34.3941 -15.0306 34.133C-14.4769 33.9652 -14.0482 33.555 -13.8339 33.0142C-13.6196 32.4734 -13.6196 31.8767 -13.8875 31.3173C-14.4769 30.1053 -14.6555 29.0051 -14.4591 27.9609C-14.2269 26.7675 -13.6553 25.5741 -12.9051 24.8096C-12.1192 23.9891 -11.2082 23.4856 -9.97574 23.2246C-9.68995 23.2059 -9.42203 23.2059 -9.17196 23.2059C-8.18956 23.2059 -7.40364 23.3737 -6.74276 23.784C-6.45697 23.9518 -6.15331 24.0264 -5.81394 24.0264C-5.58174 24.0264 -5.33167 23.9704 -5.11733 23.8959C-4.59934 23.6721 -4.18852 23.2246 -3.99204 22.6838C-3.65266 21.6209 -2.97392 20.614 -2.188 19.98C-1.2056 19.3087 -0.116022 18.9544 1.00927 18.9544C2.24174 18.9544 3.31344 19.3087 4.15295 19.9427C5.0639 20.6699 5.6712 21.565 5.99272 22.6279C6.15347 23.2059 6.54643 23.6534 7.06442 23.8772C7.29663 23.9704 7.56456 24.045 7.83248 24.045C8.11827 24.045 8.42192 23.9704 8.68985 23.8399C9.56508 23.3924 10.351 23.1686 11.1191 23.1686C11.387 23.1686 11.637 23.1873 11.8871 23.2432C13.0303 23.4856 14.1734 24.0823 14.9058 24.8655C15.906 25.9097 16.3347 26.7302 16.424 27.7931C16.549 29.2848 16.4062 30.385 15.9239 31.2614C15.6381 31.7835 15.6202 32.3989 15.7988 32.9583C16.0132 33.499 16.4419 33.9279 16.9599 34.133C17.978 34.4873 18.9247 35.1959 19.5498 36.0164C20.1929 37.0419 20.5322 38.1794 20.5322 39.3355C20.5322 40.6222 20.1929 41.741 19.5856 42.6174C18.8889 43.5684 18.0316 44.2024 17.0135 44.538C16.4597 44.7058 16.0311 45.1161 15.8167 45.6568C15.6024 46.1976 15.6024 46.7943 15.8703 47.3537C16.4597 48.5657 16.6384 49.6659 16.4419 50.7101C16.2097 51.9035 15.6381 53.097 14.8879 53.8615C14.102 54.6819 13.191 55.1854 11.9586 55.4465C11.6728 55.4651 11.4048 55.4651 11.1548 55.4651C10.1724 55.4651 9.38646 55.2973 8.72557 54.8871C8.43978 54.7192 8.13613 54.6446 7.79676 54.6446C7.56455 54.6446 7.31449 54.7006 7.10015 54.7752C6.58215 54.9989 6.17133 55.4465 5.97485 55.9872C5.63548 57.0501 4.95673 58.057 4.17081 58.691C3.13482 59.3996 2.02739 59.7539 0.93782 59.7539Z" fill="white"/>
</g>
<rect x="33.4482" y="23.6094" width="33.4487" height="3.93514" rx="1.96757" fill="#19194B"/>
<rect x="33.4482" y="31.4805" width="13.773" height="3.93514" rx="1.96757" fill="#19194B"/>
<rect x="33.4482" y="39.3516" width="13.773" height="3.93514" rx="1.96757" fill="#19194B"/>
<rect x="49.1895" y="31.4805" width="13.773" height="3.93514" rx="1.96757" fill="#19194B"/>
</g>
<g filter="url(#card-charge-micro-filter0_d)">
<circle cx="66.4045" cy="63.9422" r="24.5946" transform="rotate(8.67883 66.4045 63.9422)" fill="white"/>
<circle cx="66.4045" cy="63.9422" r="27.0946" transform="rotate(8.67883 66.4045 63.9422)" stroke="white" stroke-width="5"/>
</g>
<g clip-path="url(#card-charge-micro-clip1)">
<path d="M70.1155 39.6291C56.7134 37.5834 44.1373 46.8287 42.0915 60.2309C40.0458 73.6332 49.291 86.2094 62.693 88.2551C76.0951 90.3008 88.6712 81.0555 90.717 67.6533C92.8486 54.2642 83.6034 41.688 70.1155 39.6291Z" fill="url(#card-charge-micro-paint1_linear)"/>
<mask id="card-charge-micro-mask1" mask-type="alpha" maskUnits="userSpaceOnUse" x="41" y="39" width="51" height="50">
<path d="M70.1155 39.6291C56.7134 37.5834 44.1373 46.8287 42.0915 60.2309C40.0458 73.6332 49.291 86.2094 62.693 88.2551C76.0951 90.3008 88.6712 81.0555 90.717 67.6533C92.8486 54.2642 83.6034 41.688 70.1155 39.6291Z" fill="url(#card-charge-micro-paint2_linear)"/>
</mask>
<g mask="url(#card-charge-micro-mask1)">
<path d="M87.0063 91.9664L94.4287 43.3404L38.3803 84.5439L87.0063 91.9664Z" fill="url(#card-charge-micro-paint3_linear)"/>
</g>
<path opacity="0.5" d="M69.6034 43.6942C58.435 41.9894 47.9549 49.6939 46.2501 60.8624C44.5453 72.0309 52.2496 82.5111 63.418 84.2158C74.5864 85.9206 85.0665 78.2162 86.7713 67.0477C88.5477 55.8901 80.8434 45.4099 69.6034 43.6942V43.6942Z" stroke="#E99B26" stroke-width="1.94707"/>
<path d="M69.2117 52.3335C71.7491 53.0676 73.7196 54.4784 74.5716 56.2735C74.714 56.6421 74.7917 57.0008 74.7296 57.4076C74.5744 58.4245 73.6735 59.1195 72.7026 58.9713C72.2495 58.9021 71.8378 58.5618 71.4571 58.0181C70.5767 56.843 69.0179 55.7726 67.2055 55.496C64.4869 55.081 63.309 56.2887 63.1021 57.6446C62.4191 62.1191 74.5852 61.8255 73.2916 70.2999C72.7224 74.0286 70.0844 76.1234 65.6752 75.936L65.3854 77.8343C65.2509 78.7156 64.425 79.3527 63.5836 79.2242C62.7421 79.0958 62.2086 78.2512 62.3432 77.3699L62.6329 75.4716C59.5233 74.5807 57.3327 72.4426 56.5221 70.3764C56.434 70.0854 56.3563 69.7267 56.408 69.3877C56.5633 68.3708 57.4642 67.6758 58.4351 67.824C59.1471 67.9327 59.4734 68.3988 59.7453 68.7871C60.8873 70.4183 62.459 71.8376 64.6598 72.1735C67.6373 72.628 69.2166 71.8285 69.5374 69.7268C70.2928 64.7778 58.106 65.2069 59.3478 57.0715C59.8135 54.0207 62.0191 51.7212 66.2342 51.879L66.5343 49.9129C66.6688 49.0316 67.4947 48.3945 68.2714 48.5131C69.1129 48.6415 69.7111 49.496 69.5765 50.3773L69.2764 52.3433L69.2117 52.3335Z" fill="#A76013"/>
</g>
<defs>
<filter id="card-charge-micro-filter0_d" x="6.6249" y="11.7082" width="119.559" height="119.559" filterUnits="userSpaceOnUse" color-interpolation-filters="sRGB">
<feFlood flood-opacity="0" result="BackgroundImageFix"/>
<feColorMatrix in="SourceAlpha" type="matrix" values="0 0 0 0 0 0 0 0 0 0 0 0 0 0 0 0 0 0 127 0"/>
<feOffset dy="7.54519"/>
<feGaussianBlur stdDeviation="15.0904"/>
<feColorMatrix type="matrix" values="0 0 0 0 0 0 0 0 0 0 0 0 0 0 0 0 0 0 0.24 0"/>
<feBlend mode="normal" in2="BackgroundImageFix" result="effect1_dropShadow"/>
<feBlend mode="normal" in="SourceGraphic" in2="effect1_dropShadow" result="shape"/>
</filter>
<linearGradient id="card-charge-micro-paint0_linear" x1="39.3514" y1="11.8047" x2="39.3514" y2="145.599" gradientUnits="userSpaceOnUse">
<stop stop-color="#00A0DF"/>
<stop offset="1" stop-color="#007CBF"/>
</linearGradient>
<linearGradient id="card-charge-micro-paint1_linear" x1="54.9136" y1="139.937" x2="70.2224" y2="39.6455" gradientUnits="userSpaceOnUse">
<stop stop-color="#E99B26"/>
<stop offset="1" stop-color="#FAC34B"/>
</linearGradient>
<linearGradient id="card-charge-micro-paint2_linear" x1="54.9136" y1="139.937" x2="70.2224" y2="39.6455" gradientUnits="userSpaceOnUse">
<stop stop-color="#413017"/>
<stop offset="1" stop-color="#FAC34B"/>
</linearGradient>
<linearGradient id="card-charge-micro-paint3_linear" x1="63.3011" y1="88.3479" x2="86.5365" y2="50.2215" gradientUnits="userSpaceOnUse">
<stop stop-color="#E99B26" stop-opacity="0.26"/>
<stop offset="1" stop-color="#FAC34B"/>
</linearGradient>
<clipPath id="card-charge-micro-clip0">
<rect width="78.7027" height="78.7027" fill="white"/>
</clipPath>
<clipPath id="card-charge-micro-clip1">
<rect width="49.1892" height="49.1892" fill="white" transform="translate(45.8027 35.918) rotate(8.67883)"/>
</clipPath>
</defs>
</svg>
