<svg class="icon" viewBox="0 0 48 48" fill="none" xmlns="http://www.w3.org/2000/svg">
<rect width="48" height="48" rx="14" fill="#E99B26"/>
<path fill-rule="evenodd" clip-rule="evenodd" d="M12.5855 18.7502C12.5848 19.0347 12.6406 19.3166 12.7496 19.5794C12.8586 19.8422 13.0186 20.0807 13.2205 20.2812C13.3613 20.4218 13.5522 20.5007 13.7512 20.5005C13.9501 20.5003 14.1409 20.4211 14.2815 20.2802C14.422 20.1394 14.5009 19.9485 14.5007 19.7495C14.5005 19.5506 14.4213 19.3598 14.2805 19.2192C14.2175 19.1584 14.1673 19.0856 14.133 19.005C14.0986 18.9244 14.0808 18.8378 14.0805 18.7502C14.0812 18.6626 14.0992 18.5759 14.1335 18.4953C14.1679 18.4146 14.2178 18.3415 14.2805 18.2802C14.6862 17.8744 14.9141 17.3241 14.9141 16.7502C14.9141 16.1764 14.6862 15.6261 14.2805 15.2202C14.1399 15.0794 13.9491 15.0002 13.7502 15C13.5512 14.9998 13.3603 15.0787 13.2195 15.2192C13.0786 15.3598 12.9994 15.5506 12.9992 15.7495C12.999 15.9485 13.0779 16.1394 13.2185 16.2802C13.2803 16.3419 13.3293 16.4152 13.3627 16.4958C13.3962 16.5765 13.4134 16.6629 13.4134 16.7502C13.4134 16.8376 13.3962 16.924 13.3627 17.0047C13.3293 17.0853 13.2803 17.1586 13.2185 17.2202C13.017 17.4207 12.8573 17.6592 12.7487 17.9218C12.64 18.1845 12.5846 18.466 12.5855 18.7502ZM34.9106 26.2952L32.5976 24.4232L30.7266 21.0542C30.5064 20.6599 30.1849 20.3315 29.7953 20.103C29.4057 19.8744 28.9622 19.754 28.5106 19.7542H23.0106C22.6089 19.7531 22.2127 19.8481 21.8553 20.0313C21.4978 20.2145 21.1893 20.4805 20.9556 20.8072L18.8156 23.4942C18.7757 23.5441 18.7184 23.5769 18.6553 23.586C18.5921 23.5951 18.5279 23.5798 18.4756 23.5432L16.6946 22.2922C16.1031 21.879 15.4151 21.6251 14.697 21.555C13.9788 21.485 13.2548 21.6011 12.5946 21.8922C12.352 21.9999 12.1622 22.1995 12.0668 22.4472C11.9715 22.6948 11.9784 22.9702 12.0861 23.2127C12.1938 23.4553 12.3934 23.6451 12.641 23.7405C12.8887 23.8358 13.164 23.8289 13.4066 23.7212C13.7506 23.5698 14.1277 23.5094 14.5018 23.5458C14.8759 23.5822 15.2343 23.7143 15.5426 23.9292L16.4426 24.5592C16.4799 24.5853 16.5094 24.621 16.5279 24.6627C16.5464 24.7043 16.5532 24.7501 16.5476 24.7953C16.5419 24.8405 16.524 24.8833 16.4958 24.919C16.4676 24.9548 16.4302 24.9822 16.3876 24.9982L14.5876 25.6792C14.0408 25.8422 13.5632 26.1813 13.229 26.6438C12.8949 27.1062 12.7229 27.6662 12.7399 28.2365C12.7569 28.8068 12.9619 29.3555 13.323 29.7973C13.6841 30.2391 14.181 30.5491 14.7366 30.6792C14.7935 30.6929 14.8533 30.6861 14.9058 30.6602C14.9582 30.6343 14.9999 30.5907 15.0236 30.5372C15.2585 30.0014 15.6458 29.5466 16.1373 29.2293C16.6288 28.912 17.2028 28.7463 17.7877 28.7528C18.3727 28.7593 18.9429 28.9377 19.4272 29.2659C19.9115 29.594 20.2886 30.0574 20.5116 30.5982C20.5307 30.6438 20.5628 30.6827 20.6038 30.7101C20.6449 30.7375 20.6932 30.7521 20.7426 30.7522H28.5216C28.5708 30.7522 28.619 30.7375 28.6599 30.7101C28.7009 30.6827 28.7328 30.6438 28.7516 30.5982C28.9713 30.0662 29.3401 29.609 29.8135 29.2817C30.287 28.9543 30.8449 28.7707 31.4202 28.753C31.9956 28.7352 32.5638 28.8841 33.0565 29.1816C33.5492 29.4792 33.9455 29.9128 34.1976 30.4302C34.2257 30.4873 34.2746 30.5316 34.3343 30.5539C34.3939 30.5762 34.4598 30.5749 34.5186 30.5502C34.9582 30.3661 35.3336 30.0562 35.5978 29.6595C35.862 29.2628 36.0032 28.7969 36.0036 28.3202C36.0077 27.9178 35.9096 27.5208 35.7185 27.1666C35.5273 26.8125 35.2493 26.5126 34.9106 26.2952ZM27.0036 24.7502C27.0036 25.0154 26.8982 25.2698 26.7107 25.4573C26.5231 25.6449 26.2688 25.7502 26.0036 25.7502H21.2506C21.16 25.7503 21.0711 25.7257 20.9933 25.6792C20.9156 25.6327 20.852 25.5659 20.8092 25.486C20.7665 25.4061 20.7463 25.3161 20.7508 25.2256C20.7552 25.1351 20.7842 25.0475 20.8346 24.9722L22.5136 22.4532C22.6579 22.2372 22.8534 22.0603 23.0826 21.9382C23.3119 21.816 23.5678 21.7525 23.8276 21.7532H26.0036C26.2688 21.7532 26.5231 21.8586 26.7107 22.0461C26.8982 22.2337 27.0036 22.488 27.0036 22.7532V24.7502ZM17.7505 33.7502C18.8551 33.7502 19.7505 32.8548 19.7505 31.7502C19.7505 30.6457 18.8551 29.7502 17.7505 29.7502C16.6459 29.7502 15.7505 30.6457 15.7505 31.7502C15.7505 32.8548 16.6459 33.7502 17.7505 33.7502ZM33.5034 31.7502C33.5034 32.8548 32.608 33.7502 31.5034 33.7502C30.3988 33.7502 29.5034 32.8548 29.5034 31.7502C29.5034 30.6457 30.3988 29.7502 31.5034 29.7502C32.608 29.7502 33.5034 30.6457 33.5034 31.7502ZM16.2496 19.5794C16.1406 19.3166 16.0848 19.0347 16.0855 18.7502C16.0846 18.466 16.14 18.1845 16.2487 17.9218C16.3573 17.6592 16.517 17.4207 16.7185 17.2202C16.7803 17.1586 16.8293 17.0853 16.8627 17.0047C16.8962 16.924 16.9134 16.8376 16.9134 16.7502C16.9134 16.6629 16.8962 16.5765 16.8627 16.4958C16.8293 16.4152 16.7803 16.3419 16.7185 16.2802C16.5779 16.1394 16.499 15.9485 16.4992 15.7495C16.4993 15.651 16.5188 15.5535 16.5566 15.4625C16.5944 15.3715 16.6497 15.2888 16.7195 15.2192C16.8603 15.0787 17.0512 14.9998 17.2502 15C17.3487 15.0001 17.4462 15.0196 17.5372 15.0574C17.6282 15.0952 17.7109 15.1505 17.7805 15.2202C18.1862 15.6261 18.4141 16.1764 18.4141 16.7502C18.4141 17.3241 18.1862 17.8744 17.7805 18.2802C17.7178 18.3415 17.6679 18.4146 17.6335 18.4953C17.5992 18.5759 17.5812 18.6626 17.5805 18.7502C17.5808 18.8378 17.5986 18.9244 17.633 19.005C17.6673 19.0856 17.7175 19.1584 17.7805 19.2192C17.8502 19.2888 17.9055 19.3715 17.9433 19.4625C17.9811 19.5535 18.0006 19.651 18.0007 19.7495C18.0008 19.8481 17.9815 19.9456 17.9439 20.0367C17.9062 20.1278 17.8511 20.2105 17.7815 20.2802C17.7119 20.35 17.6292 20.4053 17.5382 20.4431C17.4472 20.4809 17.3497 20.5004 17.2512 20.5005C17.1526 20.5006 17.0551 20.4813 16.964 20.4436C16.873 20.406 16.7902 20.3508 16.7205 20.2812C16.5186 20.0807 16.3586 19.8422 16.2496 19.5794Z" fill="white"/>
</svg>
