<svg class="icon" viewBox="0 0 48 48" fill="none" xmlns="http://www.w3.org/2000/svg">
<rect y="7.2" width="48" height="33.6" rx="4.8" fill="url(#card-minimal-paint0_linear)"/>
<circle cx="39.6" cy="31.2" r="3.6" fill="#FAC34B"/>
<circle cx="34.8" cy="31.2" r="3.6" fill="#EB4B68"/>
<mask id="card-minimal-mask0" mask-type="alpha" maskUnits="userSpaceOnUse" x="0" y="7" width="17" height="34">
<rect x="16.8" y="40.8" width="16.8" height="33.6" rx="4.8" transform="rotate(-180 16.8 40.8)" fill="white"/>
</mask>
<g mask="url(#card-minimal-mask0)">
<path d="M3.55361 37.44C2.64023 38.0754 1.62996 38.4 0.600021 38.4C-0.515718 38.4 -1.54125 38.0826 -2.3786 37.4215C-3.03359 36.9136 -3.56736 36.2574 -3.91374 35.4554C-4.47613 35.6825 -5.04844 35.8102 -5.63239 35.8102C-5.91286 35.8102 -6.19347 35.7687 -6.44165 35.7194L-6.44913 35.7179C-7.45526 35.5029 -8.48402 34.9724 -9.19958 34.2257C-10.0293 33.3599 -10.4372 32.3976 -10.6309 31.3491L-10.6362 31.32L-10.6387 31.2905C-10.7153 30.3809 -10.6706 29.4965 -10.3629 28.6559C-11.0678 28.2633 -11.765 27.7246 -12.2646 27.0127C-12.8919 26.1347 -13.2 25.0686 -13.2 24C-13.2 23.0124 -12.8751 21.9731 -12.3933 21.0533L-12.3821 21.0319L-12.3692 21.0116C-11.8684 20.2224 -11.166 19.6474 -10.3762 19.2859C-10.6881 18.4296 -10.7972 17.5516 -10.6309 16.6509L-10.6296 16.6444C-10.4236 15.5945 -9.91515 14.521 -9.19958 13.7743C-8.36984 12.9085 -7.44762 12.4829 -6.44284 12.2808L-6.41823 12.2759L-6.39328 12.2733C-6.1545 12.2484 -5.91556 12.2359 -5.67651 12.2359C-5.06605 12.2359 -4.46689 12.3202 -3.89636 12.543C-3.5586 11.7991 -3.04256 11.0852 -2.37323 10.5744L-2.36355 10.567L-2.35357 10.56C-1.44019 9.92463 -0.429918 9.60001 0.600024 9.60001C1.7117 9.60001 2.73241 9.93266 3.57328 10.5744L3.57647 10.5768C4.23245 11.085 4.76702 11.7417 5.11378 12.5446C5.67617 12.3176 6.24848 12.1899 6.83243 12.1899C7.1129 12.1899 7.39352 12.2313 7.64169 12.2806L7.64917 12.2821C8.6553 12.4971 9.68406 13.0277 10.3996 13.7743C11.1947 14.604 11.7354 15.4827 11.8388 16.7095C11.9142 17.6055 11.8719 18.4772 11.5765 19.3066C12.2906 19.659 12.976 20.198 13.4663 20.8975L13.4734 20.9076L13.48 20.918C14.0889 21.8711 14.4 22.9253 14.4 24C14.4 25.16 14.0812 26.2251 13.4663 27.1025L13.4639 27.1059C12.9763 27.7912 12.346 28.3495 11.5752 28.7114C11.8879 29.5685 11.9975 30.4474 11.8309 31.3491L11.8297 31.3556C11.6236 32.4055 11.1152 33.479 10.3996 34.2257C9.56989 35.0915 8.64767 35.5171 7.64289 35.7192L7.61827 35.7241L7.59333 35.7267C7.35455 35.7517 7.1156 35.7641 6.87655 35.7641C6.2661 35.7641 5.66694 35.6798 5.0964 35.457C4.75864 36.201 4.2426 36.9149 3.57327 37.4257L3.56359 37.433L3.55361 37.44Z" fill="#19194B"/>
<path d="M0.572514 36.4416C-0.179155 36.4416 -0.83278 36.2256 -1.34479 35.8389C-1.90037 35.3954 -2.27075 34.8495 -2.46684 34.2013C-2.56488 33.8487 -2.80455 33.5758 -3.12047 33.4393C-3.26208 33.3824 -3.42549 33.3369 -3.5889 33.3369C-3.7632 33.3369 -3.94839 33.3824 -4.1118 33.462C-4.64559 33.735 -5.12491 33.8714 -5.59335 33.8714C-5.75675 33.8714 -5.90926 33.8601 -6.06177 33.826C-6.75898 33.6781 -7.45617 33.3142 -7.90282 32.8365C-8.38214 32.3361 -8.67627 31.7561 -8.82879 30.9714C-8.90504 30.0957 -8.7961 29.4589 -8.51287 28.913C-8.34946 28.6059 -8.32767 28.2648 -8.42571 27.9463C-8.52376 27.6279 -8.76342 27.355 -9.04666 27.2185C-9.78743 26.8659 -10.3757 26.411 -10.7461 25.8993C-11.1274 25.3875 -11.3235 24.7051 -11.3235 23.9887C-11.3235 23.3859 -11.1165 22.6581 -10.7679 21.9871C-10.2994 21.2934 -9.64582 20.9749 -9.16649 20.8157C-8.82879 20.7134 -8.56734 20.4632 -8.43661 20.1334C-8.30589 19.8036 -8.30589 19.4396 -8.46929 19.0985C-8.82879 18.3592 -8.93772 17.6883 -8.81789 17.0514C-8.67627 16.3236 -8.32767 15.5957 -7.87014 15.1294C-7.39081 14.629 -6.83523 14.322 -6.08356 14.1628C-5.90926 14.1514 -5.74586 14.1514 -5.59334 14.1514C-4.99419 14.1514 -4.51486 14.2537 -4.1118 14.5039C-3.93749 14.6063 -3.7523 14.6518 -3.54532 14.6518C-3.4037 14.6518 -3.25119 14.6177 -3.12046 14.5722C-2.80455 14.4357 -2.55399 14.1628 -2.43416 13.833C-2.22718 13.1847 -1.81322 12.5706 -1.33389 12.1839C-0.734735 11.7745 -0.070215 11.5585 0.61609 11.5585C1.36776 11.5585 2.02138 11.7745 2.53339 12.1612C3.08897 12.6047 3.45936 13.1506 3.65544 13.7988C3.75349 14.1514 3.99315 14.4243 4.30907 14.5608C4.45069 14.6177 4.61409 14.6632 4.7775 14.6632C4.9518 14.6632 5.13699 14.6177 5.3004 14.5381C5.83419 14.2651 6.31352 14.1287 6.78195 14.1287C6.94535 14.1287 7.09787 14.14 7.25038 14.1741C7.94758 14.322 8.64478 14.6859 9.09142 15.1636C9.70147 15.8004 9.96292 16.3008 10.0174 16.9491C10.0936 17.8589 10.0065 18.5298 9.71237 19.0643C9.53807 19.3828 9.52717 19.7581 9.63611 20.0993C9.76683 20.4291 10.0283 20.6906 10.3442 20.8157C10.9651 21.0318 11.5425 21.464 11.9238 21.9644C12.316 22.5899 12.523 23.2836 12.523 23.9887C12.523 24.7734 12.316 25.4557 11.9456 25.9903C11.5207 26.5703 10.9978 26.9569 10.3769 27.1616C10.0392 27.264 9.77773 27.5142 9.647 27.844C9.51628 28.1738 9.51628 28.5377 9.67968 28.8789C10.0392 29.6181 10.1481 30.2891 10.0283 30.926C9.88666 31.6538 9.53806 32.3816 9.08053 32.8479C8.6012 33.3483 8.04562 33.6554 7.29395 33.8146C7.11965 33.826 6.95625 33.826 6.80373 33.826C6.20458 33.826 5.72525 33.7236 5.32219 33.4734C5.14789 33.3711 4.96269 33.3256 4.75571 33.3256C4.61409 33.3256 4.46158 33.3597 4.33085 33.4052C4.01494 33.5416 3.76438 33.8146 3.64455 34.1444C3.43757 34.7926 3.02361 35.4067 2.54428 35.7934C1.91244 36.2256 1.23703 36.4416 0.572514 36.4416Z" fill="white"/>
</g>
<rect x="20.4" y="14.4" width="20.4" height="2.4" rx="1.2" fill="#19194B"/>
<rect x="20.4" y="19.2" width="8.4" height="2.4" rx="1.2" fill="#19194B"/>
<rect x="20.4" y="24" width="8.4" height="2.4" rx="1.2" fill="#19194B"/>
<rect x="30" y="19.2" width="8.4" height="2.4" rx="1.2" fill="#19194B"/>
<defs>
<linearGradient id="card-minimal-paint0_linear" x1="24" y1="7.2" x2="24" y2="88.8" gradientUnits="userSpaceOnUse">
<stop stop-color="#00A0DF"/>
<stop offset="1" stop-color="#007CBF"/>
</linearGradient>
</defs>
</svg>
