<svg class="icon"
     width="24"
     height="24"
     viewBox="0 0 24 24"
     fill="none"
     xmlns="http://www.w3.org/2000/svg"
>
  <path fill-rule="evenodd"
        clip-rule="evenodd"
        d="M0.25 2.75H17.75C17.8163 2.75 17.8799 2.72366 17.9268 2.67678C17.9737 2.62989 18 2.5663 18 2.5C18 1.83696 17.7366 1.20107 17.2678 0.732233C16.7989 0.263392 16.163 0 15.5 0H2.5C1.83696 0 1.20107 0.263392 0.732233 0.732233C0.263392 1.20107 0 1.83696 0 2.5C0 2.5663 0.0263392 2.62989 0.0732233 2.67678C0.120107 2.72366 0.183696 2.75 0.25 2.75ZM17.479 9.5H17.5C17.6326 9.5 17.7598 9.44732 17.8536 9.35355C17.9473 9.25979 18 9.13261 18 9V4.75C18 4.61739 17.9473 4.49021 17.8536 4.39645C17.7598 4.30268 17.6326 4.25 17.5 4.25H0.5C0.367392 4.25 0.240215 4.30268 0.146447 4.39645C0.0526784 4.49021 0 4.61739 0 4.75V10.5C0 11.163 0.263392 11.7989 0.732233 12.2678C1.20107 12.7366 1.83696 13 2.5 13H9.132C9.241 12.9999 9.34699 12.9642 9.43382 12.8983C9.52065 12.8324 9.58357 12.74 9.613 12.635C9.73489 12.2 9.95201 11.7976 10.2486 11.4568C10.5452 11.1161 10.9139 10.8456 11.328 10.665C13.2913 9.90881 15.3752 9.51412 17.479 9.5ZM6.5 10.25H3.5C3.30109 10.25 3.11032 10.171 2.96967 10.0303C2.82902 9.88968 2.75 9.69891 2.75 9.5C2.75 9.30109 2.82902 9.11032 2.96967 8.96967C3.11032 8.82902 3.30109 8.75 3.5 8.75H6.5C6.69891 8.75 6.88968 8.82902 7.03033 8.96967C7.17098 9.11032 7.25 9.30109 7.25 9.5C7.25 9.69891 7.17098 9.88968 7.03033 10.0303C6.88968 10.171 6.69891 10.25 6.5 10.25ZM17.479 11C19.3896 11.0186 21.2824 11.3705 23.072 12.04C23.3477 12.1601 23.5824 12.358 23.7472 12.6096C23.9121 12.8611 23.9999 13.1553 24 13.456V16.849C24 19.682 21.848 22.479 18.767 23.649L18.214 23.86C17.7404 24.0413 17.2166 24.0413 16.743 23.86L16.19 23.649C14.7506 23.154 13.4898 22.2442 12.5662 21.0342C11.6427 19.8242 11.0978 18.368 11 16.849V13.456C11.0001 13.1553 11.0879 12.8611 11.2528 12.6096C11.4176 12.358 11.6523 12.1601 11.928 12.04C13.7021 11.3673 15.5817 11.0152 17.479 11ZM18.75 17.25H20.5C20.6989 17.25 20.8897 17.171 21.0303 17.0303C21.171 16.8897 21.25 16.6989 21.25 16.5C21.25 16.3011 21.171 16.1103 21.0303 15.9697C20.8897 15.829 20.6989 15.75 20.5 15.75H18.75C18.6174 15.75 18.4902 15.6973 18.3964 15.6036C18.3027 15.5098 18.25 15.3826 18.25 15.25V13.5C18.25 13.3011 18.171 13.1103 18.0303 12.9697C17.8897 12.829 17.6989 12.75 17.5 12.75C17.3011 12.75 17.1103 12.829 16.9697 12.9697C16.829 13.1103 16.75 13.3011 16.75 13.5V15.25C16.75 15.3826 16.6973 15.5098 16.6036 15.6036C16.5098 15.6973 16.3826 15.75 16.25 15.75H14.5C14.3011 15.75 14.1103 15.829 13.9697 15.9697C13.829 16.1103 13.75 16.3011 13.75 16.5C13.75 16.6989 13.829 16.8897 13.9697 17.0303C14.1103 17.171 14.3011 17.25 14.5 17.25H16.25C16.3826 17.25 16.5098 17.3027 16.6036 17.3964C16.6973 17.4902 16.75 17.6174 16.75 17.75V19.5C16.75 19.6989 16.829 19.8897 16.9697 20.0303C17.1103 20.171 17.3011 20.25 17.5 20.25C17.6989 20.25 17.8897 20.171 18.0303 20.0303C18.171 19.8897 18.25 19.6989 18.25 19.5V17.75C18.25 17.6174 18.3027 17.4902 18.3964 17.3964C18.4902 17.3027 18.6174 17.25 18.75 17.25Z"
        fill="#00A0DF"
  />
</svg>
