<svg class="icon" id="Capa_1" data-name="Capa 1" xmlns="http://www.w3.org/2000/svg" xmlns:xlink="http://www.w3.org/1999/xlink" viewBox="0 0 40 28">
  <defs>
    <linearGradient id="Degradado_sin_nombre_3" data-name="Degradado sin nombre 3" x1="31.414" y1="5.89" x2="31.414" y2="73.89" gradientTransform="matrix(1, 0, 0, -1, 0, 39.89)" gradientUnits="userSpaceOnUse">
      <stop offset="0" stop-color="#00a0df"/>
      <stop offset="1" stop-color="#007cbf"/>
    </linearGradient>
    <linearGradient id="Degradado_sin_nombre" data-name="Degradado sin nombre" x1="9.586" y1="33.89" x2="9.586" y2="-9.11" xlink:href="#Degradado_sin_nombre_3"/>
    <linearGradient id="Degradado_sin_nombre_2" data-name="Degradado sin nombre 2" x1="30.586" y1="33.89" x2="30.586" y2="-9.11" xlink:href="#Degradado_sin_nombre_3"/>
    <mask id="mask" x="17" y="0" width="23" height="28" maskUnits="userSpaceOnUse">
      <g transform="translate(0 -6)">
        <g id="mask1">
          <path d="M40,30a4,4,0,0,1-4,4H26a1.657,1.657,0,0,1-1.172-2.828,1.656,1.656,0,0,0,0-2.344l-1.414-1.414a2,2,0,0,1,0-2.828l1.172-1.172a2,2,0,0,0,0-2.828l-1.172-1.172a2,2,0,0,1,0-2.828l1.172-1.172a2,2,0,0,0,0-2.828l-1.172-1.172a2,2,0,0,1,0-2.828l2-2A2,2,0,0,1,26.828,6H36a4,4,0,0,1,4,4Z" fill="url(#Degradado_sin_nombre_3)"/>
        </g>
      </g>
    </mask>
  </defs>
  <path d="M0,10A4,4,0,0,1,4,6H16a1.657,1.657,0,0,1,1.172,2.828,1.656,1.656,0,0,0,0,2.344l1.414,1.414a2,2,0,0,1,0,2.828l-1.172,1.172a2,2,0,0,0,0,2.828l1.172,1.172a2,2,0,0,1,0,2.828l-1.172,1.172a2,2,0,0,0,0,2.828l1.172,1.172a2,2,0,0,1,0,2.828l-2,2A2,2,0,0,1,15.172,34H4a4,4,0,0,1-4-4Z" transform="translate(0 -6)" fill="url(#Degradado_sin_nombre)"/>
  <path d="M40,30a4,4,0,0,1-4,4H24a1.657,1.657,0,0,1-1.172-2.828,1.656,1.656,0,0,0,0-2.344L22,28a2.828,2.828,0,0,1,0-4,2.828,2.828,0,0,0,0-4,2.828,2.828,0,0,1,0-4,2.828,2.828,0,0,0,0-4,2.828,2.828,0,0,1,0-4l.828-.828A4,4,0,0,1,25.657,6H36a4,4,0,0,1,4,4Z" transform="translate(0 -6)" fill="url(#Degradado_sin_nombre_2)"/>
  <path d="M11.233,17.432l-.005-.009-.006-.008a4.208,4.208,0,0,0-1.575-1.326,5.1,5.1,0,0,0,.219-2.164,3.854,3.854,0,0,0-1.2-2.446,4.574,4.574,0,0,0-2.292-1.244H6.368a3.519,3.519,0,0,0-.674-.076,3.816,3.816,0,0,0-1.433.3A4.135,4.135,0,0,0,2.98,8.814l0,0A4.026,4.026,0,0,0,.5,8a4.176,4.176,0,0,0-.5.039V31.963A4.577,4.577,0,0,0,.5,32a4.286,4.286,0,0,0,2.461-.8l.009-.006.008-.006a4.319,4.319,0,0,0,1.269-1.641A4.032,4.032,0,0,0,5.73,29.8a5.689,5.689,0,0,0,.6-.031l.021,0,.02,0a4.193,4.193,0,0,0,2.3-1.245A4.916,4.916,0,0,0,9.858,26.13v-.006a4.122,4.122,0,0,0-.213-2.2,4.035,4.035,0,0,0,1.574-1.338l0,0A4.454,4.454,0,0,0,12,20,4.737,4.737,0,0,0,11.233,17.432Z" transform="translate(0 -6)" fill="#19194b"/>
  <g mask="url(#mask)">
    <path d="M18,20h5a1,1,0,0,1,1,1h0a1,1,0,0,1-1,1H18a1,1,0,0,1-1-1h0A1,1,0,0,1,18,20Z" transform="translate(0 -6)" fill="#19194b"/>
  </g>
  <path d="M9.937,18.3a2.916,2.916,0,0,0-1.317-.958,1.065,1.065,0,0,1-.59-.6,1.092,1.092,0,0,1,.064-.862,3.057,3.057,0,0,0,.254-1.763,2.317,2.317,0,0,0-.772-1.488,3.025,3.025,0,0,0-1.534-.824,1.727,1.727,0,0,0-.39-.038,2.7,2.7,0,0,0-1.235.341,1.019,1.019,0,0,1-.436.1,1.077,1.077,0,0,1-.39-.085.964.964,0,0,1-.545-.635,2.72,2.72,0,0,0-.935-1.365,2.61,2.61,0,0,0-1.6-.5A2.676,2.676,0,0,0,0,9.687V30.329a2.953,2.953,0,0,0,.477.039,2.9,2.9,0,0,0,1.643-.54,2.984,2.984,0,0,0,.917-1.374,1.069,1.069,0,0,1,.572-.616,1.116,1.116,0,0,1,.354-.067.9.9,0,0,1,.472.123,2.265,2.265,0,0,0,1.235.294c.127,0,.263,0,.408-.009a2.732,2.732,0,0,0,1.489-.806,3.256,3.256,0,0,0,.79-1.6,2.688,2.688,0,0,0-.291-1.706,1.062,1.062,0,0,1-.027-.863.949.949,0,0,1,.608-.568,2.614,2.614,0,0,0,1.308-.976,2.9,2.9,0,0,0,.481-1.668A3.173,3.173,0,0,0,9.937,18.3Z" transform="translate(0 -6)" fill="#fff"/>
  <circle cx="33" cy="20" r="3" fill="#fac34b"/>
  <circle cx="29" cy="20" r="3" fill="#eb4b68"/>
  <path d="M26,14a1,1,0,0,1,0-2h7a1,1,0,0,1,0,2" transform="translate(0 -6)" fill="#19194b"/>
  <path d="M31,16a1,1,0,0,1,1,1h0a1,1,0,0,1-1,1H26a1,1,0,0,1-1-1h0a1,1,0,0,1,1-1" transform="translate(0 -6)" fill="#19194b"/>
</svg>
