<svg class="icon"
     viewBox="0 0 24 24"
     fill="none"
     xmlns="http://www.w3.org/2000/svg"
>
  <path fill-rule="evenodd"
        clip-rule="evenodd"
        d="M17.0465 3.74216C17.0413 3.74719 17.0343 3.75 17.0271 3.75L0.0270604 3.752C0.0198995 3.752 0.013032 3.74916 0.00796851 3.74409C0.00290503 3.73903 6.03909e-05 3.73216 6.03909e-05 3.725V3.417C-0.00217899 3.10132 0.0578817 2.78831 0.176802 2.49588C0.295723 2.20345 0.471167 1.93735 0.693086 1.71283C0.915004 1.48832 1.17904 1.30978 1.47006 1.18746C1.76108 1.06514 2.07338 1.00144 2.38906 1H14.6661C15.3031 1.00449 15.9124 1.26148 16.3603 1.71458C16.8081 2.16769 17.058 2.77992 17.0551 3.417V3.723C17.0548 3.73025 17.0517 3.73712 17.0465 3.74216ZM16.9891 7.45112C16.9467 7.49724 16.8885 7.52575 16.8261 7.53101C15.2109 7.67301 13.677 8.30244 12.4276 9.33591C11.1782 10.3694 10.2724 11.7581 9.83006 13.318C9.81508 13.3704 9.78347 13.4165 9.73999 13.4493C9.69652 13.4821 9.64354 13.4999 9.58906 13.5H2.38906C2.07338 13.4986 1.76108 13.4349 1.47006 13.3125C1.17904 13.1902 0.915004 13.0117 0.693086 12.7872C0.471167 12.5627 0.295723 12.2966 0.176802 12.0041C0.0578817 11.7117 -0.00217899 11.3987 6.03909e-05 11.083V5.27701C0.00123985 5.27074 0.00459748 5.2651 0.00953898 5.26107C0.0144805 5.25705 0.0206871 5.2549 0.0270604 5.25501H17.0271C17.0343 5.255 17.0413 5.25782 17.0465 5.26285C17.0517 5.26789 17.0548 5.27476 17.0551 5.28201V7.28201C17.055 7.34466 17.0315 7.40501 16.9891 7.45112ZM6.16606 9.25001H3.33306C3.13415 9.25001 2.94338 9.32903 2.80273 9.46968C2.66208 9.61033 2.58306 9.8011 2.58306 10C2.58306 10.1989 2.66208 10.3897 2.80273 10.5303C2.94338 10.671 3.13415 10.75 3.33306 10.75H6.16606C6.36497 10.75 6.55574 10.671 6.69639 10.5303C6.83704 10.3897 6.91606 10.1989 6.91606 10C6.91606 9.8011 6.83704 9.61033 6.69639 9.46968C6.55574 9.32903 6.36497 9.25001 6.16606 9.25001ZM17.612 22.25C18.8857 22.2503 20.1276 21.8524 21.1639 21.1121C22.2003 20.3717 22.9793 19.3259 23.392 18.121C23.4779 17.87 23.4606 17.5951 23.3439 17.3568C23.2271 17.1185 23.0205 16.9364 22.7695 16.8505C22.5185 16.7646 22.2436 16.7819 22.0053 16.8986C21.7671 17.0153 21.5849 17.222 21.499 17.473C21.2679 18.1488 20.8645 18.7525 20.3286 19.2247C19.7928 19.6969 19.143 20.0212 18.4435 20.1655C17.7441 20.3098 17.0191 20.2691 16.3401 20.0475C15.6611 19.826 15.0517 19.4311 14.572 18.902C14.5285 18.8546 14.5051 18.7922 14.5065 18.7279C14.508 18.6636 14.5344 18.6023 14.58 18.557L16.311 16.825C16.3808 16.755 16.4282 16.6659 16.4474 16.569C16.4666 16.472 16.4566 16.3716 16.4187 16.2803C16.3808 16.1891 16.3168 16.1111 16.2346 16.0562C16.1524 16.0013 16.0558 15.972 15.957 15.972H11.5C11.3674 15.972 11.2402 16.0247 11.1464 16.1184C11.0527 16.2122 11 16.3394 11 16.472V20.929C11 21.0279 11.0294 21.1246 11.0844 21.2069C11.1394 21.2891 11.2176 21.3532 11.309 21.391C11.4004 21.4288 11.501 21.4386 11.598 21.4192C11.6951 21.3998 11.7841 21.352 11.854 21.282L12.812 20.324C12.8354 20.3001 12.8633 20.2811 12.8941 20.2681C12.9249 20.2551 12.9581 20.2484 12.9915 20.2484C13.0249 20.2484 13.0581 20.2551 13.0889 20.2681C13.1197 20.2811 13.1476 20.3001 13.171 20.324C13.7413 20.9302 14.4293 21.4136 15.193 21.7448C15.9566 22.076 16.7797 22.2479 17.612 22.25ZM22.0404 11.2112C22.0711 11.1981 22.099 11.179 22.1222 11.155L23.1462 10.131C23.1966 10.0806 23.2573 10.0417 23.3242 10.017C23.3998 9.98859 23.4811 9.97889 23.5612 9.98875C23.6414 9.99861 23.7179 10.0277 23.7844 10.0736C23.8508 10.1195 23.9051 10.1808 23.9427 10.2523C23.9803 10.3238 24 10.4033 24.0002 10.484V14.941C24.0002 15.0736 23.9475 15.2008 23.8537 15.2946C23.76 15.3883 23.6328 15.441 23.5002 15.441H19.0432C18.9444 15.4408 18.848 15.4113 18.766 15.3564C18.6839 15.3014 18.62 15.2234 18.5823 15.1322C18.5445 15.041 18.5346 14.9406 18.5538 14.8438C18.573 14.7469 18.6205 14.6579 18.6902 14.588L20.3512 12.926C20.3967 12.8801 20.4227 12.8184 20.4238 12.7537C20.4249 12.6891 20.4011 12.6265 20.3572 12.579C19.8759 12.0553 19.2667 11.6657 18.5894 11.4487C17.912 11.2316 17.1899 11.1945 16.4939 11.341C15.7979 11.4874 15.1519 11.8125 14.6195 12.2841C14.0871 12.7557 13.6865 13.3577 13.4572 14.031C13.3712 14.282 13.1891 14.4886 12.9508 14.6054C12.7126 14.7221 12.4377 14.7394 12.1867 14.6535C12.0624 14.611 11.9477 14.5443 11.8491 14.4575C11.7506 14.3706 11.6701 14.2652 11.6123 14.1472C11.5545 14.0292 11.5205 13.901 11.5122 13.7699C11.504 13.6388 11.5216 13.5073 11.5642 13.383C11.9031 12.3893 12.4928 11.4998 13.2762 10.8008C14.0596 10.1017 15.0101 9.61668 16.0359 9.39262C17.0616 9.16856 18.1279 9.21306 19.1314 9.52181C20.1349 9.83056 21.0418 10.3931 21.7642 11.155C21.7874 11.179 21.8152 11.1981 21.846 11.2112C21.8767 11.2242 21.9098 11.2309 21.9432 11.2309C21.9766 11.2309 22.0096 11.2242 22.0404 11.2112Z"
        fill="#00A0DF"
  />
</svg>
