<svg class="icon"
     viewBox="0 0 24 24"
     fill="none"
     xmlns="http://www.w3.org/2000/svg"
>
  <path fill-rule="evenodd"
        clip-rule="evenodd"
        d="M20 2C20 1.46957 19.7893 0.960859 19.4142 0.585786C19.0391 0.210714 18.5304 0 18 0H2C1.46957 0 0.960859 0.210714 0.585786 0.585786C0.210714 0.960859 0 1.46957 0 2V3C0 3.0663 0.0263392 3.12989 0.0732233 3.17678C0.120107 3.22366 0.183696 3.25 0.25 3.25H19.75C19.8163 3.25 19.8799 3.22366 19.9268 3.17678C19.9737 3.12989 20 3.0663 20 3V2ZM13.4 13.139C13.4366 13.1203 13.468 13.0927 13.4914 13.0589C13.5148 13.025 13.5294 12.9859 13.534 12.945C13.6719 11.7238 14.2542 10.5959 15.17 9.77622C16.0857 8.95654 17.271 8.5023 18.5 8.5C18.9009 8.50282 19.2998 8.55693 19.687 8.661C19.724 8.67063 19.7627 8.67165 19.8001 8.664C19.8375 8.65635 19.8727 8.64022 19.9029 8.61685C19.9331 8.59348 19.9576 8.5635 19.9744 8.5292C19.9913 8.4949 20 8.4572 20 8.419V5C20 4.9337 19.9737 4.87011 19.9268 4.82322C19.8799 4.77634 19.8163 4.75 19.75 4.75H0.25C0.183696 4.75 0.120107 4.77634 0.0732233 4.82322C0.0263392 4.87011 0 4.9337 0 5V13C0 13.5304 0.210714 14.0391 0.585786 14.4142C0.960859 14.7893 1.46957 15 2 15H11.572C11.6208 15 11.6685 14.9859 11.7093 14.9592C11.7502 14.9326 11.7824 14.8946 11.802 14.85C12.1232 14.1136 12.6873 13.5097 13.4 13.139ZM6 12.25H3C2.80109 12.25 2.61032 12.171 2.46967 12.0303C2.32902 11.8897 2.25 11.6989 2.25 11.5C2.25 11.3011 2.32902 11.1103 2.46967 10.9697C2.61032 10.829 2.80109 10.75 3 10.75H6C6.19891 10.75 6.38968 10.829 6.53033 10.9697C6.67098 11.1103 6.75 11.3011 6.75 11.5C6.75 11.6989 6.67098 11.8897 6.53033 12.0303C6.38968 12.171 6.19891 12.25 6 12.25ZM9.5 8.75H3C2.80109 8.75 2.61032 8.67098 2.46967 8.53033C2.32902 8.38968 2.25 8.19891 2.25 8C2.25 7.80109 2.32902 7.61032 2.46967 7.46967C2.61032 7.32902 2.80109 7.25 3 7.25H9.5C9.69891 7.25 9.88968 7.32902 10.0303 7.46967C10.171 7.61032 10.25 7.80109 10.25 8C10.25 8.19891 10.171 8.38968 10.0303 8.53033C9.88968 8.67098 9.69891 8.75 9.5 8.75ZM22.5608 15.4315C22.6001 15.4769 22.6545 15.5066 22.714 15.515C23.0711 15.5665 23.3977 15.7449 23.6339 16.0177C23.8701 16.2904 24.0001 16.6392 24 17V22.5C24 22.8978 23.842 23.2794 23.5607 23.5607C23.2794 23.842 22.8978 24 22.5 24H15.5C15.1022 24 14.7206 23.842 14.4393 23.5607C14.158 23.2794 14 22.8978 14 22.5V17C13.9999 16.6392 14.1299 16.2904 14.3661 16.0177C14.6023 15.7449 14.9289 15.5665 15.286 15.515C15.3455 15.5066 15.3999 15.4769 15.4392 15.4315C15.4785 15.3861 15.5001 15.3281 15.5 15.268V14.25C15.5 13.3217 15.8687 12.4315 16.5251 11.7751C17.1815 11.1187 18.0717 10.75 19 10.75C19.9283 10.75 20.8185 11.1187 21.4749 11.7751C22.1313 12.4315 22.5 13.3217 22.5 14.25V15.268C22.4999 15.3281 22.5215 15.3861 22.5608 15.4315ZM20.0607 13.1893C19.7794 12.908 19.3978 12.75 19 12.75C18.6022 12.75 18.2206 12.908 17.9393 13.1893C17.658 13.4706 17.5 13.8522 17.5 14.25V15.25C17.5 15.3163 17.5263 15.3799 17.5732 15.4268C17.6201 15.4737 17.6837 15.5 17.75 15.5H20.25C20.3163 15.5 20.3799 15.4737 20.4268 15.4268C20.4737 15.3799 20.5 15.3163 20.5 15.25V14.25C20.5 13.8522 20.342 13.4706 20.0607 13.1893ZM19.8315 20.8056C19.9414 20.6411 20 20.4478 20 20.25C20 19.9848 19.8946 19.7304 19.7071 19.5429C19.5196 19.3554 19.2652 19.25 19 19.25C18.8022 19.25 18.6089 19.3086 18.4444 19.4185C18.28 19.5284 18.1518 19.6846 18.0761 19.8673C18.0004 20.05 17.9806 20.2511 18.0192 20.4451C18.0578 20.6391 18.153 20.8173 18.2929 20.9571C18.4327 21.097 18.6109 21.1922 18.8049 21.2308C18.9989 21.2694 19.2 21.2496 19.3827 21.1739C19.5654 21.0982 19.7216 20.97 19.8315 20.8056Z"
        fill="#00A0DF"
  />
</svg>
