<svg class="icon" viewBox="0 0 360 264" fill="none" xmlns="http://www.w3.org/2000/svg">
<rect width="360" height="264" fill="white"/>
<g clip-path="url(#clip0)">
<path d="M127.133 27.769C106.692 27.769 90.0505 44.4104 90.0505 64.8518C90.0505 85.2932 106.692 101.935 127.133 101.935C147.574 101.935 164.215 85.2932 164.215 64.8518C164.346 44.4104 147.705 27.769 127.133 27.769Z" fill="url(#paint0_linear)"/>
<path d="M128.987 27.769C109.568 27.769 93.7588 44.4104 93.7588 64.8518C93.7588 85.2932 109.568 101.935 128.987 101.935C148.406 101.935 164.215 85.2932 164.215 64.8518C164.34 44.4104 148.531 27.769 128.987 27.769Z" fill="url(#paint1_linear)"/>
<g opacity="0.5" filter="url(#filter0_i)">
<path d="M128.987 33.3315C112.48 33.3315 99.0427 47.4767 99.0427 64.8519C99.0427 82.227 112.48 96.3722 128.987 96.3722C145.493 96.3722 158.931 82.227 158.931 64.8519C159.037 47.4767 145.599 33.3315 128.987 33.3315Z" fill="#E99B26"/>
</g>
<path d="M126.206 46.3105C124.989 46.3105 123.786 46.6965 122.686 47.4684C121.704 48.2249 120.985 49.3828 120.618 50.5252C119.782 50.0312 118.858 49.8459 117.861 49.8459C117.568 49.8459 117.275 49.8614 116.981 49.8922C115.764 50.1392 114.679 50.6487 113.696 51.6831C112.86 52.563 112.244 53.8599 111.995 55.1412C111.76 56.4226 111.995 57.6886 112.596 58.9699C111.379 59.3559 110.411 60.1278 109.692 61.1467C108.973 62.1811 108.592 63.447 108.592 64.8519C108.592 66.1333 108.959 67.3992 109.692 68.5571C110.411 69.5915 111.511 70.3479 112.596 70.7339C111.995 71.8918 111.877 73.1577 111.995 74.5626C112.112 75.9675 112.713 76.9864 113.696 78.0208C114.532 78.9008 115.764 79.5492 116.981 79.8116C117.289 79.8734 117.612 79.9197 117.92 79.9197C118.814 79.9197 119.709 79.6572 120.618 79.1786C120.985 80.46 121.718 81.4789 122.686 82.2354C123.669 82.9919 124.872 83.3933 126.206 83.3933C127.424 83.3933 128.626 83.0073 129.726 82.2354C130.709 81.4789 131.428 80.3211 131.794 79.1786C132.63 79.6727 133.554 79.8579 134.552 79.8579C134.845 79.8579 135.138 79.8425 135.431 79.8116C136.649 79.5646 137.734 79.0551 138.717 78.0208C139.553 77.1408 140.169 75.844 140.418 74.5626C140.653 73.2812 140.418 72.0153 139.817 70.7339C141.034 70.3479 142.119 69.576 142.838 68.4336C143.439 67.2757 143.821 66.0098 143.821 64.8519C143.821 63.5705 143.454 62.3046 142.721 61.2702C142.002 60.2359 140.902 59.4794 139.817 58.9699C140.418 57.8121 140.535 56.5461 140.418 55.1412C140.183 53.8599 139.699 52.7174 138.717 51.6831C137.881 50.8031 136.649 50.1547 135.431 49.8922C135.123 49.8305 134.801 49.7842 134.493 49.7842C133.598 49.7842 132.704 50.0466 131.794 50.5252C131.428 49.2438 130.694 48.2249 129.726 47.4684C128.758 46.6965 127.556 46.3105 126.206 46.3105Z" fill="url(#paint2_linear)" fill-opacity="0.88"/>
<g filter="url(#filter1_d)">
<path d="M128.988 46.3105C127.77 46.3105 126.568 46.6965 125.468 47.4684C124.485 48.2249 123.766 49.3828 123.4 50.5252C122.564 50.0312 121.64 49.8459 120.642 49.8459C120.349 49.8459 120.056 49.8614 119.762 49.8922C118.545 50.1392 117.46 50.6487 116.477 51.6831C115.641 52.563 115.025 53.8599 114.776 55.1412C114.541 56.4226 114.776 57.6886 115.377 58.9699C114.16 59.3559 113.192 60.1278 112.473 61.1467C111.755 62.1811 111.373 63.447 111.373 64.8519C111.373 66.1333 111.74 67.3992 112.473 68.5571C113.192 69.5915 114.292 70.3479 115.377 70.7339C114.776 71.8918 114.659 73.1577 114.776 74.5626C114.893 75.9675 115.495 76.9864 116.477 78.0208C117.313 78.9008 118.545 79.5492 119.762 79.8116C120.07 79.8734 120.393 79.9197 120.701 79.9197C121.596 79.9197 122.49 79.6572 123.4 79.1786C123.766 80.46 124.5 81.4789 125.468 82.2354C126.45 82.9919 127.653 83.3933 128.988 83.3933C130.205 83.3933 131.408 83.0073 132.508 82.2354C133.49 81.4789 134.209 80.3211 134.575 79.1786C135.411 79.6727 136.335 79.8579 137.333 79.8579C137.626 79.8579 137.919 79.8425 138.213 79.8116C139.43 79.5646 140.515 79.0551 141.498 78.0208C142.334 77.1408 142.95 75.844 143.199 74.5626C143.434 73.2812 143.199 72.0153 142.598 70.7339C143.815 70.3479 144.901 69.576 145.619 68.4336C146.221 67.2757 146.602 66.0098 146.602 64.8519C146.602 63.5705 146.235 62.3046 145.502 61.2702C144.783 60.2359 143.683 59.4794 142.598 58.9699C143.199 57.8121 143.317 56.5461 143.199 55.1412C142.965 53.8599 142.481 52.7174 141.498 51.6831C140.662 50.8031 139.43 50.1547 138.213 49.8922C137.905 49.8305 137.582 49.7842 137.274 49.7842C136.379 49.7842 135.485 50.0466 134.575 50.5252C134.209 49.2438 133.476 48.2249 132.508 47.4684C131.54 46.6965 130.337 46.3105 128.988 46.3105Z" fill="#FBD677"/>
<path d="M128.988 46.3105C127.77 46.3105 126.568 46.6965 125.468 47.4684C124.485 48.2249 123.766 49.3828 123.4 50.5252C122.564 50.0312 121.64 49.8459 120.642 49.8459C120.349 49.8459 120.056 49.8614 119.762 49.8922C118.545 50.1392 117.46 50.6487 116.477 51.6831C115.641 52.563 115.025 53.8599 114.776 55.1412C114.541 56.4226 114.776 57.6886 115.377 58.9699C114.16 59.3559 113.192 60.1278 112.473 61.1467C111.755 62.1811 111.373 63.447 111.373 64.8519C111.373 66.1333 111.74 67.3992 112.473 68.5571C113.192 69.5915 114.292 70.3479 115.377 70.7339C114.776 71.8918 114.659 73.1577 114.776 74.5626C114.893 75.9675 115.495 76.9864 116.477 78.0208C117.313 78.9008 118.545 79.5492 119.762 79.8116C120.07 79.8734 120.393 79.9197 120.701 79.9197C121.596 79.9197 122.49 79.6572 123.4 79.1786C123.766 80.46 124.5 81.4789 125.468 82.2354C126.45 82.9919 127.653 83.3933 128.988 83.3933C130.205 83.3933 131.408 83.0073 132.508 82.2354C133.49 81.4789 134.209 80.3211 134.575 79.1786C135.411 79.6727 136.335 79.8579 137.333 79.8579C137.626 79.8579 137.919 79.8425 138.213 79.8116C139.43 79.5646 140.515 79.0551 141.498 78.0208C142.334 77.1408 142.95 75.844 143.199 74.5626C143.434 73.2812 143.199 72.0153 142.598 70.7339C143.815 70.3479 144.901 69.576 145.619 68.4336C146.221 67.2757 146.602 66.0098 146.602 64.8519C146.602 63.5705 146.235 62.3046 145.502 61.2702C144.783 60.2359 143.683 59.4794 142.598 58.9699C143.199 57.8121 143.317 56.5461 143.199 55.1412C142.965 53.8599 142.481 52.7174 141.498 51.6831C140.662 50.8031 139.43 50.1547 138.213 49.8922C137.905 49.8305 137.582 49.7842 137.274 49.7842C136.379 49.7842 135.485 50.0466 134.575 50.5252C134.209 49.2438 133.476 48.2249 132.508 47.4684C131.54 46.6965 130.337 46.3105 128.988 46.3105Z" stroke="#C87C1B"/>
</g>
</g>
<rect x="119.545" y="215.027" width="97.8663" height="10.7251" rx="4.0219" fill="url(#paint3_linear)"/>
<rect x="119.545" y="215.027" width="97.8663" height="10.7251" rx="4.0219" fill="url(#paint4_linear)"/>
<rect x="124.907" y="204.302" width="97.8663" height="10.7251" rx="4.0219" fill="url(#paint5_linear)"/>
<rect x="124.907" y="204.302" width="97.8663" height="10.7251" rx="4.0219" fill="url(#paint6_linear)"/>
<rect x="124.907" y="193.577" width="97.8663" height="10.7251" rx="4.0219" fill="url(#paint7_linear)"/>
<rect x="124.907" y="193.577" width="97.8663" height="10.7251" rx="4.0219" fill="url(#paint8_linear)"/>
<rect x="119.545" y="182.852" width="97.8663" height="10.7251" rx="4.0219" fill="url(#paint9_linear)"/>
<rect x="119.545" y="182.852" width="97.8663" height="10.7251" rx="4.0219" fill="url(#paint10_linear)"/>
<rect x="124.907" y="172.127" width="97.8663" height="10.7251" rx="4.0219" fill="url(#paint11_linear)"/>
<rect x="124.907" y="172.127" width="97.8663" height="10.7251" rx="4.0219" fill="url(#paint12_linear)"/>
<rect x="119.545" y="161.402" width="97.8663" height="10.7251" rx="4.0219" fill="url(#paint13_linear)"/>
<rect x="119.545" y="161.402" width="97.8663" height="10.7251" rx="4.0219" fill="url(#paint14_linear)"/>
<rect x="136.973" y="150.677" width="97.8663" height="10.7251" rx="4.0219" fill="url(#paint15_linear)"/>
<rect x="136.973" y="150.677" width="97.8663" height="10.7251" rx="4.0219" fill="url(#paint16_linear)"/>
<rect x="122.226" y="139.952" width="97.8663" height="10.7251" rx="4.0219" fill="url(#paint17_linear)"/>
<rect x="122.226" y="139.952" width="97.8663" height="10.7251" rx="4.0219" fill="url(#paint18_linear)"/>
<g clip-path="url(#clip1)">
<rect x="155.482" y="77.9507" width="59.7562" height="41.8294" rx="5.97562" transform="rotate(26.1793 155.482 77.9507)" fill="url(#paint19_linear)"/>
<circle cx="186.543" cy="126.514" r="4.48172" transform="rotate(26.1793 186.543 126.514)" fill="#FAC34B"/>
<circle cx="181.18" cy="123.878" r="4.48172" transform="rotate(26.1793 181.18 123.878)" fill="#EB4B68"/>
<mask id="mask0" mask-type="alpha" maskUnits="userSpaceOnUse" x="139" y="79" width="34" height="44">
<rect x="155.798" y="124.716" width="20.9147" height="41.8293" rx="5.97562" transform="rotate(-153.821 155.798 124.716)" fill="white"/>
</mask>
<g mask="url(#mask0)">
<path d="M142.844 113.687C141.475 113.895 140.168 113.703 139.017 113.137C137.771 112.525 136.799 111.607 136.227 110.408C135.774 109.481 135.538 108.455 135.592 107.368C134.839 107.313 134.129 107.142 133.477 106.821C133.163 106.667 132.873 106.466 132.622 106.275L132.615 106.269C131.609 105.476 130.751 104.319 130.362 103.091C129.91 101.668 129.983 100.369 130.343 99.0915L130.353 99.0561L130.366 99.0218C130.78 97.9635 131.316 97 132.121 96.2299C131.549 95.404 131.066 94.4192 130.899 93.3496C130.681 92.0241 130.922 90.6638 131.509 89.47C132.051 88.3666 132.985 87.3839 134.028 86.6209L134.053 86.6032L134.078 86.5876C135.071 85.981 136.172 85.7243 137.253 85.7542C137.375 84.6263 137.735 83.5854 138.415 82.6705L138.42 82.6639C139.227 81.6041 140.385 80.6841 141.594 80.2429C142.997 79.7313 144.261 79.7624 145.494 80.0884L145.525 80.0964L145.554 80.1072C145.834 80.2105 146.108 80.3278 146.375 80.4591C147.057 80.7944 147.68 81.2177 148.195 81.78C148.981 81.1343 149.95 80.6201 150.978 80.4171L150.993 80.4142L151.008 80.4119C152.378 80.2037 153.685 80.3959 154.835 80.9616C156.077 81.5721 157.035 82.5044 157.622 83.6831L157.624 83.6876C158.078 84.6157 158.314 85.6429 158.261 86.7305C159.014 86.7856 159.723 86.9573 160.376 87.278C160.689 87.4321 160.98 87.6325 161.23 87.8239L161.238 87.8297C162.244 88.6225 163.101 89.7803 163.491 91.0075C163.923 92.371 164.045 93.6497 163.487 95.0771C163.079 96.1196 162.553 97.0702 161.767 97.8345C162.371 98.6205 162.841 99.5992 163.005 100.65L163.007 100.665L163.009 100.68C163.166 102.08 162.934 103.428 162.344 104.629C161.707 105.925 160.766 106.94 159.597 107.582L159.592 107.585C158.671 108.083 157.66 108.36 156.6 108.341C156.479 109.47 156.119 110.512 155.437 111.428L155.432 111.435C154.625 112.495 153.468 113.415 152.258 113.856C150.856 114.368 149.592 114.337 148.358 114.01L148.328 114.002L148.299 113.992C148.018 113.888 147.744 113.771 147.477 113.64C146.795 113.304 146.172 112.881 145.657 112.319C144.871 112.965 143.902 113.479 142.874 113.682L142.859 113.685L142.844 113.687Z" fill="#19194B"/>
<path d="M140.063 110.934C139.223 110.521 138.612 109.921 138.252 109.207C137.875 108.407 137.761 107.594 137.898 106.762C137.982 106.314 137.864 105.877 137.586 105.551C137.459 105.41 137.301 105.269 137.119 105.18C136.924 105.084 136.692 105.033 136.466 105.032C135.72 105.044 135.109 104.933 134.586 104.676C134.403 104.586 134.239 104.49 134.088 104.368C133.39 103.82 132.811 103.03 132.574 102.251C132.313 101.429 132.303 100.619 132.564 99.659C132.96 98.6388 133.431 97.9871 134.048 97.5328C134.399 97.2795 134.61 96.9103 134.676 96.5007C134.741 96.0911 134.623 95.6545 134.382 95.3465C133.748 94.5458 133.341 93.7144 133.208 92.9393C133.063 92.1581 133.219 91.2881 133.612 90.4876C133.943 89.8142 134.574 89.1147 135.332 88.5566C136.237 88.0388 137.142 88.042 137.765 88.1274C138.198 88.1985 138.628 88.0626 138.955 87.766C139.282 87.4693 139.482 87.0627 139.487 86.5918C139.491 85.5685 139.738 84.759 140.222 84.1133C140.78 83.378 141.569 82.7563 142.336 82.4866C143.146 82.1908 143.936 82.1529 144.863 82.3879C145.064 82.4709 145.247 82.5607 145.417 82.6444C146.086 82.9735 146.566 83.3511 146.878 83.852C147.017 84.0621 147.199 84.2147 147.43 84.3283C147.588 84.4061 147.778 84.4518 147.949 84.4727C148.376 84.4938 148.806 84.3265 149.121 84.0238C149.709 83.4133 150.508 82.9545 151.256 82.7858C152.15 82.6575 153.012 82.7811 153.778 83.158C154.618 83.5709 155.23 84.1713 155.589 84.8845C155.966 85.6851 156.08 86.4984 155.943 87.3303C155.859 87.7781 155.977 88.2146 156.255 88.5406C156.382 88.6819 156.54 88.8225 156.722 88.9122C156.917 89.008 157.149 89.0589 157.375 89.0597C158.121 89.0479 158.732 89.1587 159.255 89.416C159.438 89.5057 159.602 89.6022 159.754 89.7241C160.451 90.2722 161.03 91.0617 161.267 91.8406C161.599 92.8872 161.616 93.5899 161.321 94.344C160.906 95.4023 160.44 96.1041 159.818 96.5397C159.449 96.7997 159.23 97.213 159.165 97.654C159.13 98.0943 159.278 98.5301 159.562 98.8434C160.137 99.4259 160.545 100.226 160.696 100.994C160.791 101.908 160.641 102.797 160.254 103.585C159.823 104.462 159.217 105.11 158.509 105.504C157.716 105.919 156.92 106.063 156.113 105.951C155.68 105.88 155.25 106.016 154.923 106.313C154.596 106.609 154.396 107.016 154.391 107.487C154.387 108.51 154.14 109.319 153.656 109.965C153.098 110.701 152.309 111.322 151.542 111.592C150.732 111.888 149.942 111.926 149.015 111.691C148.814 111.608 148.631 111.518 148.461 111.434C147.792 111.105 147.312 110.727 147 110.226C146.861 110.016 146.679 109.864 146.448 109.75C146.29 109.672 146.101 109.627 145.929 109.606C145.502 109.585 145.072 109.752 144.757 110.055C144.169 110.665 143.37 111.124 142.622 111.293C141.679 111.428 140.805 111.299 140.063 110.934Z" fill="white"/>
</g>
<rect x="174.32" y="97.1992" width="25.3964" height="2.98781" rx="1.49391" transform="rotate(26.1793 174.32 97.1992)" fill="#19194B"/>
<rect x="171.683" y="102.562" width="10.4573" height="2.98781" rx="1.49391" transform="rotate(26.1793 171.683 102.562)" fill="#19194B"/>
<rect x="169.046" y="107.924" width="10.4573" height="2.98781" rx="1.49391" transform="rotate(26.1793 169.046 107.924)" fill="#19194B"/>
<rect x="182.408" y="107.835" width="10.4573" height="2.98781" rx="1.49391" transform="rotate(26.1793 182.408 107.835)" fill="#19194B"/>
</g>
<path d="M112.628 187.799H178.828V254H122.085C116.862 254 112.628 249.766 112.628 244.543V187.799Z" fill="url(#paint20_linear)"/>
<path d="M152.939 155.582C152.491 155.024 151.813 154.699 151.096 154.699H90.9618C88.9769 154.699 87.8755 156.997 89.1188 158.544L112.627 187.799H178.828L152.939 155.582Z" fill="url(#paint21_linear)"/>
<path d="M178.237 187.799H244.438V244.543C244.438 249.766 240.204 254 234.981 254H178.237V187.799Z" fill="url(#paint22_linear)"/>
<path d="M204.126 155.582C204.575 155.024 205.253 154.699 205.969 154.699H266.104C268.089 154.699 269.19 156.997 267.947 158.544L244.438 187.799H178.237L204.126 155.582Z" fill="url(#paint23_linear)"/>
<rect x="136.862" y="187.799" width="16.5502" height="66.2008" fill="url(#paint24_linear)"/>
<path d="M110.854 154.699H127.404L153.412 187.799H136.862L110.854 154.699Z" fill="url(#paint25_linear)"/>
<rect x="203.063" y="187.799" width="16.5502" height="66.2008" fill="url(#paint26_linear)"/>
<path d="M245.62 154.699H229.07L203.063 187.799H219.613L245.62 154.699Z" fill="url(#paint27_linear)"/>
<g clip-path="url(#clip2)">
<path d="M234.169 71.5791C216.802 71.5791 202.664 85.7173 202.664 103.084C202.664 120.451 216.802 134.589 234.169 134.589C251.535 134.589 265.673 120.451 265.673 103.084C265.785 85.7173 251.647 71.5791 234.169 71.5791Z" fill="url(#paint28_linear)"/>
<path d="M235.744 71.5791C219.246 71.5791 205.815 85.7173 205.815 103.084C205.815 120.451 219.246 134.589 235.744 134.589C252.242 134.589 265.673 120.451 265.673 103.084C265.779 85.7173 252.348 71.5791 235.744 71.5791Z" fill="url(#paint29_linear)"/>
<g opacity="0.5" filter="url(#filter2_i)">
<path d="M235.744 76.3047C221.72 76.3047 210.304 88.3222 210.304 103.084C210.304 117.846 221.72 129.863 235.744 129.863C249.767 129.863 261.184 117.846 261.184 103.084C261.273 88.3222 249.857 76.3047 235.744 76.3047Z" fill="#E99B26"/>
</g>
<path d="M233.382 87.3315C232.347 87.3315 231.326 87.6594 230.391 88.3153C229.556 88.9579 228.946 89.9416 228.634 90.9122C227.924 90.4925 227.139 90.3351 226.292 90.3351C226.042 90.3351 225.793 90.3482 225.544 90.3745C224.51 90.5843 223.588 91.0172 222.753 91.896C222.043 92.6436 221.519 93.7453 221.308 94.834C221.108 95.9226 221.308 96.9981 221.818 98.0868C220.784 98.4147 219.962 99.0705 219.351 99.9361C218.741 100.815 218.417 101.89 218.417 103.084C218.417 104.173 218.728 105.248 219.351 106.232C219.962 107.111 220.896 107.753 221.818 108.081C221.308 109.065 221.208 110.14 221.308 111.334C221.407 112.528 221.918 113.393 222.753 114.272C223.463 115.02 224.51 115.571 225.544 115.794C225.806 115.846 226.08 115.885 226.342 115.885C227.102 115.885 227.862 115.662 228.634 115.256C228.946 116.344 229.569 117.21 230.391 117.853C231.226 118.495 232.248 118.836 233.382 118.836C234.416 118.836 235.438 118.509 236.372 117.853C237.207 117.21 237.817 116.226 238.129 115.256C238.839 115.675 239.624 115.833 240.471 115.833C240.721 115.833 240.97 115.82 241.219 115.794C242.253 115.584 243.175 115.151 244.01 114.272C244.72 113.524 245.244 112.423 245.456 111.334C245.655 110.245 245.456 109.17 244.945 108.081C245.979 107.753 246.901 107.098 247.512 106.127C248.022 105.143 248.346 104.068 248.346 103.084C248.346 101.995 248.035 100.92 247.412 100.041C246.801 99.1623 245.867 98.5196 244.945 98.0868C245.456 97.103 245.555 96.0275 245.456 94.834C245.256 93.7453 244.845 92.7747 244.01 91.896C243.3 91.1483 242.253 90.5975 241.219 90.3745C240.957 90.322 240.683 90.2827 240.422 90.2827C239.662 90.2827 238.901 90.5056 238.129 90.9122C237.817 89.8236 237.194 88.9579 236.372 88.3153C235.55 87.6594 234.528 87.3315 233.382 87.3315Z" fill="url(#paint30_linear)" fill-opacity="0.88"/>
<g filter="url(#filter3_d)">
<path d="M235.744 87.3315C234.71 87.3315 233.688 87.6594 232.754 88.3153C231.919 88.9579 231.309 89.9416 230.997 90.9122C230.287 90.4925 229.502 90.3351 228.654 90.3351C228.405 90.3351 228.156 90.3482 227.907 90.3745C226.873 90.5843 225.951 91.0172 225.116 91.896C224.405 92.6436 223.882 93.7453 223.67 94.834C223.471 95.9226 223.67 96.9981 224.181 98.0868C223.147 98.4147 222.325 99.0705 221.714 99.9361C221.104 100.815 220.78 101.89 220.78 103.084C220.78 104.173 221.091 105.248 221.714 106.232C222.325 107.111 223.259 107.753 224.181 108.081C223.67 109.065 223.571 110.14 223.67 111.334C223.77 112.528 224.281 113.393 225.116 114.272C225.826 115.02 226.873 115.571 227.907 115.794C228.169 115.846 228.443 115.885 228.704 115.885C229.464 115.885 230.224 115.662 230.997 115.256C231.309 116.344 231.932 117.21 232.754 117.853C233.589 118.495 234.61 118.836 235.744 118.836C236.779 118.836 237.8 118.509 238.735 117.853C239.57 117.21 240.18 116.226 240.492 115.256C241.202 115.675 241.987 115.833 242.834 115.833C243.083 115.833 243.333 115.82 243.582 115.794C244.616 115.584 245.538 115.151 246.373 114.272C247.083 113.524 247.607 112.423 247.818 111.334C248.018 110.245 247.818 109.17 247.308 108.081C248.342 107.753 249.264 107.098 249.874 106.127C250.385 105.143 250.709 104.068 250.709 103.084C250.709 101.995 250.398 100.92 249.775 100.041C249.164 99.1623 248.23 98.5196 247.308 98.0868C247.818 97.103 247.918 96.0275 247.818 94.834C247.619 93.7453 247.208 92.7747 246.373 91.896C245.663 91.1483 244.616 90.5975 243.582 90.3745C243.32 90.322 243.046 90.2827 242.784 90.2827C242.024 90.2827 241.264 90.5056 240.492 90.9122C240.18 89.8236 239.557 88.9579 238.735 88.3153C237.912 87.6594 236.891 87.3315 235.744 87.3315Z" fill="#FBD677"/>
<path d="M235.744 87.3315C234.71 87.3315 233.688 87.6594 232.754 88.3153C231.919 88.9579 231.309 89.9416 230.997 90.9122C230.287 90.4925 229.502 90.3351 228.654 90.3351C228.405 90.3351 228.156 90.3482 227.907 90.3745C226.873 90.5843 225.951 91.0172 225.116 91.896C224.405 92.6436 223.882 93.7453 223.67 94.834C223.471 95.9226 223.67 96.9981 224.181 98.0868C223.147 98.4147 222.325 99.0705 221.714 99.9361C221.104 100.815 220.78 101.89 220.78 103.084C220.78 104.173 221.091 105.248 221.714 106.232C222.325 107.111 223.259 107.753 224.181 108.081C223.67 109.065 223.571 110.14 223.67 111.334C223.77 112.528 224.281 113.393 225.116 114.272C225.826 115.02 226.873 115.571 227.907 115.794C228.169 115.846 228.443 115.885 228.704 115.885C229.464 115.885 230.224 115.662 230.997 115.256C231.309 116.344 231.932 117.21 232.754 117.853C233.589 118.495 234.61 118.836 235.744 118.836C236.779 118.836 237.8 118.509 238.735 117.853C239.57 117.21 240.18 116.226 240.492 115.256C241.202 115.675 241.987 115.833 242.834 115.833C243.083 115.833 243.333 115.82 243.582 115.794C244.616 115.584 245.538 115.151 246.373 114.272C247.083 113.524 247.607 112.423 247.818 111.334C248.018 110.245 247.818 109.17 247.308 108.081C248.342 107.753 249.264 107.098 249.874 106.127C250.385 105.143 250.709 104.068 250.709 103.084C250.709 101.995 250.398 100.92 249.775 100.041C249.164 99.1623 248.23 98.5196 247.308 98.0868C247.818 97.103 247.918 96.0275 247.818 94.834C247.619 93.7453 247.208 92.7747 246.373 91.896C245.663 91.1483 244.616 90.5975 243.582 90.3745C243.32 90.322 243.046 90.2827 242.784 90.2827C242.024 90.2827 241.264 90.5056 240.492 90.9122C240.18 89.8236 239.557 88.9579 238.735 88.3153C237.912 87.6594 236.891 87.3315 235.744 87.3315Z" stroke="#C87C1B"/>
</g>
</g>
<path opacity="0.8" d="M67.1563 16.5216C67.6947 14.9454 68.6103 13.5247 69.8232 12.3831C71.0361 11.2415 72.5097 10.4137 74.1156 9.97162L78.1966 14.3206C76.5956 14.7625 75.1269 15.5889 73.9182 16.7279C72.7096 17.8669 71.7975 19.284 71.2615 20.856L67.1563 16.5216Z" fill="#66DE7D"/>
<path opacity="0.8" d="M69.2604 34.1172C70.5662 35.1512 71.5995 36.4887 72.2704 38.0133C72.9412 39.5378 73.2294 41.2033 73.1096 42.8646L67.6473 45.2586C67.7655 43.602 67.4772 41.9416 66.8073 40.4219C66.1374 38.9022 65.1063 37.5692 63.8037 36.5389L69.2604 34.1172Z" fill="#EB4B68"/>
<path opacity="0.91" d="M38.534 31.0276C37.1122 31.1274 35.6876 30.8782 34.3841 30.3018C33.0806 29.7253 31.9377 28.839 31.055 27.7199L33.126 23.0558C34.007 24.1709 35.1471 25.0539 36.4472 25.6279C37.7472 26.2019 39.1679 26.4495 40.5855 26.3492L38.534 31.0276Z" fill="#FAC34B"/>
<path opacity="0.87" d="M48.813 29.3551C49.9875 30.4887 50.8672 31.8921 51.3754 33.4433C51.8837 34.9945 52.0052 36.6464 51.7292 38.2553L46.1725 40.0668C46.4465 38.4625 46.3243 36.8155 45.8165 35.2691C45.3088 33.7228 44.4308 32.3239 43.2591 31.1943L48.813 29.3551Z" fill="#7878C9"/>
<path opacity="0.87" d="M188.238 57.5079C189.413 58.6415 190.292 60.045 190.801 61.5962C191.309 63.1473 191.43 64.7992 191.155 66.4081L185.598 68.2197C185.872 66.6153 185.75 64.9683 185.242 63.422C184.734 61.8756 183.856 60.4768 182.684 59.3471L188.238 57.5079Z" fill="#7878C9"/>
<path opacity="0.81" d="M322.201 98.8324C323.22 98.0069 324.425 97.4429 325.711 97.1895C326.998 96.9361 328.327 97.001 329.583 97.3785L330.483 101.986C329.231 101.611 327.906 101.547 326.623 101.8C325.34 102.054 324.139 102.617 323.124 103.441L322.201 98.8324Z" fill="#FAC34B"/>
<path opacity="0.92" d="M89.1599 32.3889C88.3373 33.3357 87.2958 34.0671 86.1259 34.5195C84.9561 34.9719 83.6934 35.1316 82.4478 34.9845L80.8343 30.7935C82.0764 30.9392 83.3352 30.7792 84.5014 30.3274C85.6675 29.8756 86.7056 29.1457 87.5253 28.2012L89.1599 32.3889Z" fill="#FAC34B"/>
<path opacity="0.92" d="M88.197 103.799C87.3744 104.746 86.3329 105.477 85.163 105.93C83.9932 106.382 82.7305 106.542 81.4849 106.395L79.8714 102.204C81.1135 102.349 82.3724 102.189 83.5385 101.738C84.7046 101.286 85.7427 100.556 86.5624 99.6113L88.197 103.799Z" fill="#FAC34B"/>
<path opacity="0.84" d="M125.092 34.8471C124.283 33.554 123.803 32.0829 123.693 30.5618C123.583 29.0407 123.846 27.5158 124.46 26.1197L129.906 25.7334C129.295 27.1259 129.034 28.6465 129.145 30.1631C129.256 31.6797 129.735 33.1462 130.542 34.4351L125.092 34.8471Z" fill="#FAC34B"/>
<path opacity="0.92" d="M145.211 44.694C143.954 43.6016 142.983 42.2184 142.382 40.6649C141.781 39.1114 141.569 37.4345 141.764 35.7804L147.33 33.6376C147.137 35.2871 147.349 36.9589 147.949 38.5075C148.549 40.0561 149.518 41.4347 150.773 42.5232L145.211 44.694Z" fill="#EB4B68"/>
<path opacity="0.79" d="M199.706 25.3016C199.579 27.1127 199.012 28.8656 198.054 30.4077C197.096 31.9497 195.775 33.2342 194.207 34.1494L188.691 30.71C190.254 29.7965 191.57 28.5148 192.524 26.9767C193.479 25.4385 194.043 23.6904 194.168 21.8844L199.706 25.3016Z" fill="#00A0DF"/>
<path opacity="0.74" d="M226.488 41.1696C228.26 40.7924 230.097 40.854 231.84 41.3491C233.583 41.8442 235.179 42.7578 236.488 44.0103L234.706 50.2483C233.4 49.0003 231.808 48.0905 230.07 47.5979C228.332 47.1053 226.5 47.045 224.733 47.4221L226.488 41.1696Z" fill="#7878C9"/>
<path opacity="0.76" d="M257.267 12.6349C257.239 14.217 256.826 15.7685 256.062 17.1544C255.299 18.5402 254.208 19.7185 252.885 20.5865L247.927 17.8446C249.245 16.9782 250.332 15.8027 251.093 14.4204C251.853 13.0381 252.265 11.4908 252.291 9.9133L257.267 12.6349Z" fill="#EB4B68"/>
<path opacity="0.84" d="M312.323 34.6404C311.303 36.2742 309.899 37.6338 308.233 38.601C306.568 39.5682 304.691 40.1137 302.766 40.1899L299.312 34.2207C301.231 34.1433 303.102 33.5982 304.762 32.6328C306.422 31.6673 307.822 30.3108 308.838 28.6813L312.323 34.6404Z" fill="#7878C9"/>
<path opacity="0.81" d="M53.0691 57.2621C52.9756 59.0552 52.4453 60.7983 51.5244 62.3397C50.6034 63.8811 49.3197 65.174 47.7849 66.106L42.2708 62.8003C43.8005 61.8699 45.0796 60.5799 45.9969 59.0424C46.9143 57.5049 47.442 55.7666 47.5342 53.9786L53.0691 57.2621Z" fill="#7878C9"/>
<path opacity="0.77" d="M63.0998 65.3407C64.4085 65.2028 65.7309 65.3868 66.9522 65.8767C68.1735 66.3666 69.2565 67.1476 70.107 68.1516L68.3464 72.5217C67.4977 71.5212 66.4173 70.7433 65.1993 70.2555C63.9812 69.7678 62.6625 69.5851 61.3578 69.7234L63.0998 65.3407Z" fill="#66DE7D"/>
<path opacity="0.77" d="M96.0317 111.08C97.3403 110.942 98.6628 111.126 99.8841 111.616C101.105 112.106 102.188 112.887 103.039 113.891L101.278 118.261C100.43 117.26 99.3492 116.483 98.1311 115.995C96.9131 115.507 95.5944 115.324 94.2896 115.463L96.0317 111.08Z" fill="#66DE7D"/>
<path opacity="0.86" d="M95.8604 43.9535C97.1841 44.0225 98.4709 44.4139 99.6088 45.0938C100.747 45.7737 101.701 46.7213 102.389 47.8543L99.9488 51.9249C99.262 50.7957 98.3097 49.8514 97.1747 49.1743C96.0397 48.4971 94.7564 48.1075 93.4365 48.0394L95.8604 43.9535Z" fill="#FAC34B"/>
<path opacity="0.98" d="M108.992 24.6597C107.425 23.9623 106.051 22.8924 104.992 21.5431C103.932 20.1938 103.218 18.606 102.913 16.9179L107.749 13.1312C108.055 14.8142 108.768 16.3969 109.826 17.7416C110.883 19.0864 112.253 20.1523 113.816 20.8468L108.992 24.6597Z" fill="#EB4B68"/>
<path opacity="0.79" d="M185.158 82.1524C184.965 80.5822 185.158 78.9885 185.721 77.5101C186.285 76.0317 187.201 74.7134 188.39 73.6699L193.68 75.6947C192.495 76.736 191.583 78.0511 191.022 79.5255C190.461 81 190.269 82.5891 190.463 84.1547L185.158 82.1524Z" fill="#FAC34B"/>
<path opacity="0.71" d="M215.785 38.6795C216.236 40.2485 216.296 41.9037 215.96 43.5012C215.625 45.0987 214.904 46.5901 213.861 47.8454L208.143 46.6359C209.182 45.3835 209.9 43.896 210.233 42.303C210.567 40.7099 210.506 39.0595 210.056 37.4954L215.785 38.6795Z" fill="#7878C9"/>
<path opacity="0.79" d="M256.573 76.8826C255.702 77.4062 254.717 77.709 253.702 77.7647C252.688 77.8204 251.675 77.6273 250.752 77.2022L250.558 73.5694C251.478 73.9926 252.488 74.1844 253.5 74.1283C254.511 74.0721 255.494 73.7696 256.362 73.2471L256.573 76.8826Z" fill="#00A0DF"/>
<path opacity="0.72" d="M304.884 75.2469C304.268 73.5567 304.075 71.7416 304.321 69.9596C304.567 68.1776 305.245 66.4827 306.295 65.0224L312.674 65.9125C311.628 67.3692 310.953 69.0596 310.709 70.8366C310.465 72.6136 310.659 74.4233 311.274 76.1083L304.884 75.2469Z" fill="#66DE7D"/>
<path opacity="0.72" d="M215.818 78.2772C215.202 76.5869 215.009 74.7718 215.255 72.9898C215.501 71.2078 216.178 69.5129 217.229 68.0527L223.608 68.9428C222.562 70.3995 221.887 72.0899 221.643 73.8669C221.399 75.6439 221.593 77.4536 222.207 79.1385L215.818 78.2772Z" fill="#66DE7D"/>
<path opacity="0.72" d="M160.852 21.971C160.236 20.2808 160.043 18.4657 160.289 16.6837C160.535 14.9017 161.213 13.2068 162.263 11.7465L168.642 12.6366C167.596 14.0934 166.921 15.7838 166.677 17.5607C166.433 19.3377 166.627 21.1474 167.242 22.8324L160.852 21.971Z" fill="#66DE7D"/>
<path opacity="0.72" d="M49.5783 146.65C48.9626 144.959 48.7693 143.144 49.0152 141.362C49.2612 139.58 49.9389 137.885 50.9894 136.425L57.3686 137.315C56.3222 138.772 55.6475 140.462 55.4034 142.239C55.1593 144.016 55.3531 145.826 55.968 147.511L49.5783 146.65Z" fill="#66DE7D"/>
<path opacity="0.9" d="M63.5369 90.5636C62.3376 90.564 61.1565 90.2712 60.0962 89.7108C59.0359 89.1504 58.1287 88.3394 57.4534 87.3483L59.4655 83.5549C60.1395 84.5426 61.0447 85.3507 62.1022 85.9088C63.1598 86.4669 64.3377 86.7581 65.5335 86.7571L63.5369 90.5636Z" fill="#00A0DF"/>
<path opacity="0.98" d="M46.3055 87.2608C45.6195 89.0492 44.5068 90.6429 43.0643 91.9032C41.6218 93.1634 39.8932 94.052 38.0288 94.4917L33.5241 89.32C35.3827 88.8803 37.1058 87.9932 38.5433 86.7357C39.9808 85.4782 41.0893 83.8885 41.7723 82.1048L46.3055 87.2608Z" fill="#EB4B68"/>
<path opacity="0.98" d="M276.894 45.7007C276.208 47.4892 275.096 49.0829 273.653 50.3431C272.211 51.6034 270.482 52.492 268.618 52.9316L264.113 47.7599C265.972 47.3203 267.695 46.4331 269.132 45.1756C270.57 43.9181 271.678 42.3284 272.361 40.5448L276.894 45.7007Z" fill="#EB4B68"/>
<path opacity="0.93" d="M105.756 91.5586C106.088 90.3195 106.717 89.1802 107.59 88.2398C108.462 87.2995 109.551 86.5867 110.762 86.1634L114.125 89.2925C112.917 89.7154 111.832 90.4268 110.963 91.365C110.093 92.3031 109.466 93.4395 109.136 94.6752L105.756 91.5586Z" fill="#FAC34B"/>
<path opacity="0.81" d="M168.74 92.1076C168.383 93.3545 167.727 94.4951 166.828 95.4304C165.929 96.3656 164.816 97.067 163.584 97.4736L160.24 94.2509C161.468 93.8447 162.578 93.1445 163.473 92.2115C164.369 91.2784 165.023 90.1407 165.378 88.8972L168.74 92.1076Z" fill="#FAC34B"/>
<path opacity="0.98" d="M179.007 89.982C180.182 89.2755 181.512 88.8668 182.881 88.7917C184.25 88.7165 185.617 88.9771 186.862 89.5508L187.124 94.4533C185.882 93.8821 184.519 93.6232 183.154 93.699C181.789 93.7748 180.463 94.183 179.292 94.8881L179.007 89.982Z" fill="#7878C9"/>
<path opacity="0.85" d="M228.901 23.8776C230.781 23.6129 232.698 23.8116 234.484 24.4566C236.269 25.1016 237.871 26.1734 239.148 27.5785L236.829 33.9696C235.554 32.5695 233.957 31.5019 232.176 30.8599C230.395 30.2179 228.484 30.0208 226.609 30.2859L228.901 23.8776Z" fill="#66DE7D"/>
<path opacity="0.98" d="M280.739 97.7084C279.301 96.3203 278.224 94.6018 277.602 92.7024C276.979 90.803 276.83 88.7803 277.168 86.8103L283.973 84.592C283.637 86.5565 283.787 88.5732 284.408 90.4667C285.03 92.3602 286.105 94.0731 287.54 95.4563L280.739 97.7084Z" fill="#00A0DF"/>
<path opacity="0.86" d="M295.545 96.7874C294.7 96.9214 293.836 96.847 293.026 96.5706C292.217 96.2942 291.488 95.8242 290.901 95.2015L291.895 92.3053C292.48 92.9258 293.208 93.3939 294.015 93.669C294.822 93.9441 295.684 94.0179 296.526 93.8838L295.545 96.7874Z" fill="#FAC34B"/>
<path opacity="0.85" d="M30.4096 116.295C31.5872 114.939 33.0783 113.892 34.753 113.244C36.4277 112.597 38.2353 112.368 40.0185 112.579L42.3284 118.578C40.5502 118.37 38.748 118.599 37.0786 119.246C35.4092 119.892 33.9231 120.937 32.7497 122.29L30.4096 116.295Z" fill="#7878C9"/>
<path opacity="0.72" d="M73.3922 130.58C72.2328 129.911 71.2545 128.968 70.5424 127.835C69.8303 126.702 69.4059 125.411 69.3063 124.077L73.3681 121.533C73.4684 122.864 73.8923 124.15 74.6031 125.28C75.3138 126.409 76.2899 127.348 77.4462 128.014L73.3922 130.58Z" fill="#7878C9"/>
<path opacity="0.87" d="M104.793 151.011C104.378 149.352 104.376 147.616 104.786 145.956C105.195 144.295 106.005 142.76 107.143 141.484L113.087 142.959C111.952 144.233 111.146 145.764 110.739 147.42C110.332 149.076 110.335 150.807 110.749 152.461L104.793 151.011Z" fill="#FAC34B"/>
<path opacity="0.99" d="M164.453 120.301C163.458 120.765 162.365 120.979 161.269 120.924C160.173 120.869 159.107 120.548 158.164 119.987L158.366 116.062C159.307 116.621 160.37 116.941 161.463 116.995C162.556 117.049 163.645 116.835 164.637 116.372L164.453 120.301Z" fill="#FAC34B"/>
<path opacity="0.98" d="M194.325 139.014C192.913 138.689 191.602 138.023 190.506 137.075C189.41 136.127 188.562 134.926 188.037 133.575L191.437 129.656C191.962 131.002 192.808 132.2 193.901 133.144C194.995 134.089 196.302 134.752 197.711 135.076L194.325 139.014Z" fill="#66DE7D"/>
<path opacity="0.89" d="M241.816 137.154C241.002 138.511 239.868 139.648 238.513 140.466C237.159 141.284 235.625 141.759 234.045 141.849L231.123 136.996C232.698 136.905 234.227 136.43 235.577 135.613C236.927 134.797 238.056 133.662 238.868 132.309L241.816 137.154Z" fill="#00A0DF"/>
<path opacity="0.78" d="M257.304 120.535C258.981 121.389 260.424 122.64 261.508 124.179C262.591 125.718 263.282 127.499 263.52 129.366L258.003 133.237C257.765 131.375 257.075 129.6 255.993 128.067C254.912 126.533 253.473 125.286 251.8 124.435L257.304 120.535Z" fill="#EB4B68"/>
<path opacity="0.81" d="M316.355 117.219C315.64 118.906 314.523 120.392 313.102 121.549C311.681 122.705 309.999 123.497 308.202 123.855L304.068 118.761C305.86 118.403 307.536 117.612 308.953 116.458C310.369 115.304 311.482 113.821 312.194 112.139L316.355 117.219Z" fill="#00A0DF"/>
<path opacity="0.79" d="M60.5574 171.294C58.6547 171.63 56.6987 171.496 54.8596 170.904C53.0206 170.311 51.3542 169.278 50.0055 167.895L52.1368 161.313C53.4825 162.692 55.1447 163.72 56.9788 164.31C58.8129 164.9 60.7632 165.032 62.6602 164.696L60.5574 171.294Z" fill="#EB4B68"/>
<path opacity="0.8" d="M95.1338 164.793C95.3066 166.432 95.076 168.09 94.4621 169.62C93.8481 171.151 92.8695 172.508 91.6113 173.574L86.1347 171.367C87.3886 170.304 88.3635 168.95 88.9747 167.423C89.5858 165.897 89.8148 164.244 89.6416 162.609L95.1338 164.793Z" fill="#00A0DF"/>
<path opacity="0.82" d="M133.672 152.522C132.906 151.757 132.339 150.816 132.02 149.781C131.701 148.747 131.639 147.65 131.841 146.586L135.547 145.449C135.347 146.51 135.409 147.604 135.727 148.635C136.046 149.666 136.612 150.604 137.376 151.367L133.672 152.522Z" fill="#66DE7D"/>
<path opacity="0.81" d="M157.232 162.245C158.031 160.802 159.17 159.577 160.551 158.676C161.931 157.774 163.512 157.224 165.154 157.072L168.374 162.021C166.737 162.173 165.162 162.723 163.786 163.622C162.41 164.522 161.274 165.745 160.478 167.183L157.232 162.245Z" fill="#00A0DF"/>
<path opacity="0.85" d="M173.606 173.533C174.266 172.717 175.116 172.075 176.081 171.662C177.045 171.25 178.097 171.08 179.142 171.166L180.614 174.623C179.571 174.538 178.523 174.708 177.561 175.12C176.599 175.532 175.753 176.173 175.095 176.986L173.606 173.533Z" fill="#00A0DF"/>
<path opacity="0.83" d="M211.434 146.818C212.619 147.005 213.74 147.479 214.699 148.198C215.659 148.918 216.428 149.861 216.94 150.945L214.359 154.377C213.848 153.296 213.081 152.357 212.123 151.64C211.166 150.923 210.048 150.451 208.867 150.265L211.434 146.818Z" fill="#00A0DF"/>
<path opacity="0.93" d="M268.202 172.822C267.919 171.364 267.995 169.858 268.426 168.437C268.857 167.015 269.629 165.72 270.674 164.665L275.762 166.215C274.72 167.268 273.952 168.559 273.523 169.977C273.094 171.395 273.019 172.896 273.302 174.349L268.202 172.822Z" fill="#7878C9"/>
<path opacity="0.97" d="M304.307 167.029C303.016 166.534 301.866 165.731 300.957 164.69C300.047 163.649 299.406 162.401 299.088 161.055L302.821 157.804C303.138 159.146 303.779 160.389 304.686 161.427C305.594 162.464 306.741 163.264 308.028 163.757L304.307 167.029Z" fill="#EB4B68"/>
<path opacity="0.84" d="M190.307 175.883C189.641 176.737 188.776 177.415 187.787 177.858C186.799 178.301 185.717 178.495 184.636 178.425L183.055 174.883C184.133 174.953 185.211 174.758 186.197 174.316C187.182 173.873 188.044 173.197 188.708 172.345L190.307 175.883Z" fill="#FAC34B"/>
<path opacity="0.96" d="M225.281 172.936C226.106 174.364 226.569 175.971 226.631 177.619C226.693 179.267 226.351 180.905 225.635 182.391L219.734 182.602C220.447 181.121 220.787 179.487 220.724 177.844C220.662 176.201 220.199 174.599 219.376 173.175L225.281 172.936Z" fill="#EB4B68"/>
<defs>
<filter id="filter0_i" x="99.0427" y="33.3315" width="59.8886" height="63.0407" filterUnits="userSpaceOnUse" color-interpolation-filters="sRGB">
<feFlood flood-opacity="0" result="BackgroundImageFix"/>
<feBlend mode="normal" in="SourceGraphic" in2="BackgroundImageFix" result="shape"/>
<feColorMatrix in="SourceAlpha" type="matrix" values="0 0 0 0 0 0 0 0 0 0 0 0 0 0 0 0 0 0 127 0" result="hardAlpha"/>
<feOffset/>
<feGaussianBlur stdDeviation="1.97002"/>
<feComposite in2="hardAlpha" operator="arithmetic" k2="-1" k3="1"/>
<feColorMatrix type="matrix" values="0 0 0 0 0.654902 0 0 0 0 0.376471 0 0 0 0 0.0745098 0 0 0 1 0"/>
<feBlend mode="normal" in2="shape" result="effect1_innerShadow"/>
</filter>
<filter id="filter1_d" x="107.665" y="42.6023" width="42.6452" height="44.4993" filterUnits="userSpaceOnUse" color-interpolation-filters="sRGB">
<feFlood flood-opacity="0" result="BackgroundImageFix"/>
<feColorMatrix in="SourceAlpha" type="matrix" values="0 0 0 0 0 0 0 0 0 0 0 0 0 0 0 0 0 0 127 0"/>
<feOffset/>
<feGaussianBlur stdDeviation="1.85414"/>
<feColorMatrix type="matrix" values="0 0 0 0 0.654902 0 0 0 0 0.376471 0 0 0 0 0.0745098 0 0 0 0.24 0"/>
<feBlend mode="normal" in2="BackgroundImageFix" result="effect1_dropShadow"/>
<feBlend mode="normal" in="SourceGraphic" in2="effect1_dropShadow" result="shape"/>
</filter>
<filter id="filter2_i" x="210.304" y="76.3047" width="50.8804" height="53.5583" filterUnits="userSpaceOnUse" color-interpolation-filters="sRGB">
<feFlood flood-opacity="0" result="BackgroundImageFix"/>
<feBlend mode="normal" in="SourceGraphic" in2="BackgroundImageFix" result="shape"/>
<feColorMatrix in="SourceAlpha" type="matrix" values="0 0 0 0 0 0 0 0 0 0 0 0 0 0 0 0 0 0 127 0" result="hardAlpha"/>
<feOffset/>
<feGaussianBlur stdDeviation="1.6737"/>
<feComposite in2="hardAlpha" operator="arithmetic" k2="-1" k3="1"/>
<feColorMatrix type="matrix" values="0 0 0 0 0.654902 0 0 0 0 0.376471 0 0 0 0 0.0745098 0 0 0 1 0"/>
<feBlend mode="normal" in2="shape" result="effect1_innerShadow"/>
</filter>
<filter id="filter3_d" x="217.629" y="84.1811" width="36.2306" height="37.8059" filterUnits="userSpaceOnUse" color-interpolation-filters="sRGB">
<feFlood flood-opacity="0" result="BackgroundImageFix"/>
<feColorMatrix in="SourceAlpha" type="matrix" values="0 0 0 0 0 0 0 0 0 0 0 0 0 0 0 0 0 0 127 0"/>
<feOffset/>
<feGaussianBlur stdDeviation="1.57525"/>
<feColorMatrix type="matrix" values="0 0 0 0 0.654902 0 0 0 0 0.376471 0 0 0 0 0.0745098 0 0 0 0.24 0"/>
<feBlend mode="normal" in2="BackgroundImageFix" result="effect1_dropShadow"/>
<feBlend mode="normal" in="SourceGraphic" in2="effect1_dropShadow" result="shape"/>
</filter>
<linearGradient id="paint0_linear" x1="51.1137" y1="64.8518" x2="161.435" y2="64.8518" gradientUnits="userSpaceOnUse">
<stop stop-color="#A76013"/>
<stop offset="0.509476" stop-color="#E99B26"/>
</linearGradient>
<linearGradient id="paint1_linear" x1="46.4783" y1="64.8518" x2="164.216" y2="64.8518" gradientUnits="userSpaceOnUse">
<stop stop-color="#E99B26"/>
<stop offset="1" stop-color="#FBD677"/>
</linearGradient>
<linearGradient id="paint2_linear" x1="145.675" y1="64.8519" x2="103.957" y2="64.8519" gradientUnits="userSpaceOnUse">
<stop stop-color="#A76013"/>
<stop offset="1" stop-color="#E99B26"/>
</linearGradient>
<linearGradient id="paint3_linear" x1="108.803" y1="220.39" x2="141.028" y2="220.39" gradientUnits="userSpaceOnUse">
<stop stop-color="#D68A21"/>
<stop offset="1" stop-color="#FBD677"/>
</linearGradient>
<linearGradient id="paint4_linear" x1="168.478" y1="228.434" x2="168.478" y2="215.027" gradientUnits="userSpaceOnUse">
<stop stop-color="#E99B26"/>
<stop offset="1" stop-color="#FBD677" stop-opacity="0"/>
</linearGradient>
<linearGradient id="paint5_linear" x1="114.166" y1="209.665" x2="146.39" y2="209.665" gradientUnits="userSpaceOnUse">
<stop stop-color="#D68A21"/>
<stop offset="1" stop-color="#FBD677"/>
</linearGradient>
<linearGradient id="paint6_linear" x1="173.84" y1="217.709" x2="173.84" y2="204.302" gradientUnits="userSpaceOnUse">
<stop stop-color="#E99B26"/>
<stop offset="1" stop-color="#FBD677" stop-opacity="0"/>
</linearGradient>
<linearGradient id="paint7_linear" x1="114.166" y1="198.94" x2="146.39" y2="198.94" gradientUnits="userSpaceOnUse">
<stop stop-color="#D68A21"/>
<stop offset="1" stop-color="#FBD677"/>
</linearGradient>
<linearGradient id="paint8_linear" x1="173.84" y1="206.983" x2="173.84" y2="193.577" gradientUnits="userSpaceOnUse">
<stop stop-color="#E99B26"/>
<stop offset="1" stop-color="#FBD677" stop-opacity="0"/>
</linearGradient>
<linearGradient id="paint9_linear" x1="108.803" y1="188.215" x2="141.028" y2="188.215" gradientUnits="userSpaceOnUse">
<stop stop-color="#D68A21"/>
<stop offset="1" stop-color="#FBD677"/>
</linearGradient>
<linearGradient id="paint10_linear" x1="168.478" y1="196.258" x2="168.478" y2="182.852" gradientUnits="userSpaceOnUse">
<stop stop-color="#E99B26"/>
<stop offset="1" stop-color="#FBD677" stop-opacity="0"/>
</linearGradient>
<linearGradient id="paint11_linear" x1="114.166" y1="177.489" x2="146.39" y2="177.489" gradientUnits="userSpaceOnUse">
<stop stop-color="#D68A21"/>
<stop offset="1" stop-color="#FBD677"/>
</linearGradient>
<linearGradient id="paint12_linear" x1="173.84" y1="185.533" x2="173.84" y2="172.127" gradientUnits="userSpaceOnUse">
<stop stop-color="#E99B26"/>
<stop offset="1" stop-color="#FBD677" stop-opacity="0"/>
</linearGradient>
<linearGradient id="paint13_linear" x1="108.803" y1="166.764" x2="141.028" y2="166.764" gradientUnits="userSpaceOnUse">
<stop stop-color="#D68A21"/>
<stop offset="1" stop-color="#FBD677"/>
</linearGradient>
<linearGradient id="paint14_linear" x1="168.478" y1="174.808" x2="168.478" y2="161.402" gradientUnits="userSpaceOnUse">
<stop stop-color="#E99B26"/>
<stop offset="1" stop-color="#FBD677" stop-opacity="0"/>
</linearGradient>
<linearGradient id="paint15_linear" x1="126.231" y1="156.039" x2="158.456" y2="156.039" gradientUnits="userSpaceOnUse">
<stop stop-color="#D68A21"/>
<stop offset="1" stop-color="#FBD677"/>
</linearGradient>
<linearGradient id="paint16_linear" x1="185.906" y1="164.083" x2="185.906" y2="150.677" gradientUnits="userSpaceOnUse">
<stop stop-color="#E99B26"/>
<stop offset="1" stop-color="#FBD677" stop-opacity="0"/>
</linearGradient>
<linearGradient id="paint17_linear" x1="111.485" y1="145.314" x2="143.709" y2="145.314" gradientUnits="userSpaceOnUse">
<stop stop-color="#D68A21"/>
<stop offset="1" stop-color="#FBD677"/>
</linearGradient>
<linearGradient id="paint18_linear" x1="171.159" y1="153.358" x2="171.159" y2="139.952" gradientUnits="userSpaceOnUse">
<stop stop-color="#E99B26"/>
<stop offset="1" stop-color="#FBD677" stop-opacity="0"/>
</linearGradient>
<linearGradient id="paint19_linear" x1="185.361" y1="77.9507" x2="185.361" y2="179.536" gradientUnits="userSpaceOnUse">
<stop stop-color="#00A0DF"/>
<stop offset="1" stop-color="#007CBF"/>
</linearGradient>
<linearGradient id="paint20_linear" x1="148.092" y1="192.528" x2="148.138" y2="254" gradientUnits="userSpaceOnUse">
<stop stop-color="#00A0DF"/>
<stop offset="1" stop-color="#007CBF"/>
</linearGradient>
<linearGradient id="paint21_linear" x1="129.114" y1="157.063" x2="129.106" y2="187.799" gradientUnits="userSpaceOnUse">
<stop stop-color="#00A0DF"/>
<stop offset="1" stop-color="#007CBF"/>
</linearGradient>
<linearGradient id="paint22_linear" x1="213.702" y1="192.528" x2="213.748" y2="254" gradientUnits="userSpaceOnUse">
<stop stop-color="#33B3E5"/>
<stop offset="1" stop-color="#00A0DF"/>
</linearGradient>
<linearGradient id="paint23_linear" x1="227.951" y1="157.063" x2="222.581" y2="205.533" gradientUnits="userSpaceOnUse">
<stop stop-color="#33B3E5"/>
<stop offset="1" stop-color="#007CBF"/>
</linearGradient>
<linearGradient id="paint24_linear" x1="145.137" y1="187.799" x2="145.137" y2="262.866" gradientUnits="userSpaceOnUse">
<stop stop-color="#FAC34B"/>
<stop offset="1" stop-color="#C87C1B"/>
</linearGradient>
<linearGradient id="paint25_linear" x1="101.397" y1="132.238" x2="145.137" y2="192.232" gradientUnits="userSpaceOnUse">
<stop stop-color="#FAC34B"/>
<stop offset="1" stop-color="#C87C1B"/>
</linearGradient>
<linearGradient id="paint26_linear" x1="211.338" y1="187.799" x2="211.338" y2="261.684" gradientUnits="userSpaceOnUse">
<stop stop-color="#FBD677"/>
<stop offset="1" stop-color="#E99B26"/>
</linearGradient>
<linearGradient id="paint27_linear" x1="245.62" y1="141.695" x2="211.338" y2="192.232" gradientUnits="userSpaceOnUse">
<stop stop-color="#FAC34B"/>
<stop offset="1" stop-color="#E99B26"/>
</linearGradient>
<linearGradient id="paint28_linear" x1="169.584" y1="103.084" x2="263.311" y2="103.084" gradientUnits="userSpaceOnUse">
<stop stop-color="#A76013"/>
<stop offset="0.509476" stop-color="#E99B26"/>
</linearGradient>
<linearGradient id="paint29_linear" x1="165.646" y1="103.084" x2="265.674" y2="103.084" gradientUnits="userSpaceOnUse">
<stop stop-color="#E99B26"/>
<stop offset="1" stop-color="#FBD677"/>
</linearGradient>
<linearGradient id="paint30_linear" x1="249.922" y1="103.084" x2="214.479" y2="103.084" gradientUnits="userSpaceOnUse">
<stop stop-color="#A76013"/>
<stop offset="1" stop-color="#E99B26"/>
</linearGradient>
<clipPath id="clip0">
<rect width="74.1655" height="74.1655" fill="white" transform="translate(90.0505 27.769)"/>
</clipPath>
<clipPath id="clip1">
<rect width="59.7562" height="59.7562" fill="white" transform="translate(159.438 69.9072) rotate(26.1793)"/>
</clipPath>
<clipPath id="clip2">
<rect width="63.0098" height="63.0098" fill="white" transform="translate(202.664 71.5791)"/>
</clipPath>
</defs>
</svg>
