<svg xmlns="http://www.w3.org/2000/svg" viewBox="0 0 48 48" fill="none">
    <rect width="48" height="48" fill="white"></rect>
    <rect x="4" y="10" width="40" height="28" rx="4" fill="url(#paint0_linear)"></rect>
    <circle cx="37" cy="30" r="3" fill="#FAC34B"></circle>
    <circle cx="33" cy="30" r="3" fill="#EB4B68"></circle>
    <mask id="mask0" maskUnits="userSpaceOnUse" x="4" y="10" width="14" height="28">
        <rect x="18" y="38" width="14" height="28" rx="4" transform="rotate(-180 18 38)" fill="#C4C4C4"></rect>
    </mask>
    <g mask="url(#mask0)">
        <path d="M6.96132 35.2C6.20017 35.7295 5.35828 36 4.5 36C3.57022 36 2.71561 35.7355 2.01781 35.1846C1.47199 34.7613 1.02718 34.2145 0.738529 33.5461C0.269877 33.7354 -0.20705 33.8418 -0.693674 33.8418C-0.927402 33.8418 -1.16125 33.8073 -1.36806 33.7662L-1.3743 33.7649C-2.21273 33.5857 -3.07003 33.1436 -3.66634 32.5214C-4.35778 31.7999 -4.69765 30.998 -4.85907 30.1242L-4.86354 30.1L-4.86561 30.0754C-4.92947 29.3174 -4.89214 28.5804 -4.63575 27.8799C-5.2232 27.5527 -5.80423 27.1038 -6.22054 26.5106C-6.74323 25.7789 -7 24.8905 -7 24C-7 23.177 -6.72929 22.3109 -6.32774 21.5444L-6.3184 21.5266L-6.30765 21.5096C-5.89034 20.852 -5.305 20.3728 -4.64686 20.0715C-4.90674 19.358 -4.99772 18.6263 -4.85906 17.8758L-4.85805 17.8703C-4.68633 16.9954 -4.26264 16.1008 -3.66633 15.4786C-2.97489 14.7571 -2.20637 14.4024 -1.36905 14.234L-1.34854 14.2299L-1.32775 14.2277C-1.12877 14.207 -0.929647 14.1966 -0.73044 14.1966C-0.221729 14.1966 0.277574 14.2668 0.753017 14.4525C1.03448 13.8325 1.46451 13.2376 2.02229 12.812L2.03036 12.8058L2.03867 12.8C2.79983 12.2705 3.64172 12 4.5 12C5.4264 12 6.27699 12.2772 6.97771 12.812L6.98037 12.814C7.52702 13.2375 7.97249 13.7847 8.26147 14.4539C8.73012 14.2646 9.20705 14.1582 9.69367 14.1582C9.9274 14.1582 10.1612 14.1927 10.3681 14.2338L10.3743 14.2351C11.2127 14.4143 12.07 14.8564 12.6663 15.4786C13.3289 16.17 13.7795 16.9022 13.8656 17.9246C13.9285 18.6713 13.8932 19.3977 13.647 20.0888C14.2421 20.3825 14.8133 20.8317 15.2219 21.4146L15.2278 21.423L15.2333 21.4317C15.7408 22.2259 16 23.1044 16 24C16 24.9667 15.7343 25.8542 15.2219 26.5854L15.2199 26.5882C14.8136 27.1593 14.2883 27.6246 13.646 27.9261C13.9065 28.6404 13.9979 29.3728 13.8591 30.1242L13.8581 30.1297C13.6863 31.0046 13.2626 31.8992 12.6663 32.5214C11.9749 33.2429 11.2064 33.5975 10.3691 33.766L10.3485 33.7701L10.3278 33.7723C10.1288 33.793 9.92965 33.8034 9.73044 33.8034C9.22173 33.8034 8.72243 33.7332 8.24698 33.5475C7.96552 34.1675 7.53548 34.7624 6.97771 35.188L6.96964 35.1942L6.96132 35.2Z" fill="#19194B"></path>
        <path d="M4.4771 34.368C3.85071 34.368 3.30602 34.188 2.87935 33.8658C2.41636 33.4961 2.10771 33.0412 1.9443 32.501C1.8626 32.2073 1.66288 31.9798 1.39961 31.8661C1.2816 31.8187 1.14543 31.7808 1.00925 31.7808C0.864004 31.7808 0.709676 31.8187 0.573505 31.885C0.128677 32.1125 -0.270759 32.2262 -0.661119 32.2262C-0.797291 32.2262 -0.924385 32.2167 -1.05148 32.1883C-1.63248 32.0651 -2.21348 31.7618 -2.58568 31.3638C-2.98512 30.9468 -3.23023 30.4635 -3.35732 29.8095C-3.42087 29.0798 -3.33009 28.5491 -3.09405 28.0942C-2.95788 27.8383 -2.93972 27.554 -3.02143 27.2886C-3.10313 27.0233 -3.30285 26.7958 -3.53888 26.6821C-4.15619 26.3883 -4.64641 26.0092 -4.95507 25.5827C-5.2728 25.1563 -5.43621 24.5876 -5.43621 23.9906C-5.43621 23.4883 -5.26372 22.8817 -4.97322 22.3226C-4.58286 21.7445 -4.03818 21.4791 -3.63874 21.3464C-3.35732 21.2611 -3.13945 21.0526 -3.03051 20.7778C-2.92157 20.503 -2.92157 20.1997 -3.05774 19.9154C-3.35732 19.2994 -3.4481 18.7402 -3.34824 18.2095C-3.23023 17.603 -2.93973 16.9964 -2.55845 16.6079C-2.15901 16.1909 -1.69602 15.935 -1.06963 15.8023C-0.924383 15.7928 -0.788211 15.7928 -0.661118 15.7928C-0.161821 15.7928 0.237615 15.8781 0.573506 16.0866C0.718755 16.1719 0.873085 16.2098 1.04557 16.2098C1.16358 16.2098 1.29068 16.1814 1.39961 16.1435C1.66288 16.0298 1.87168 15.8023 1.97154 15.5275C2.14402 14.9873 2.48899 14.4755 2.88843 14.1533C3.38772 13.8121 3.94149 13.632 4.51341 13.632C5.1398 13.632 5.68449 13.8121 6.11116 14.1343C6.57414 14.5039 6.8828 14.9588 7.0462 15.499C7.12791 15.7928 7.32763 16.0203 7.59089 16.134C7.70891 16.1814 7.84508 16.2193 7.98125 16.2193C8.1265 16.2193 8.28083 16.1814 8.417 16.1151C8.86183 15.8876 9.26127 15.7739 9.65162 15.7739C9.7878 15.7739 9.91489 15.7834 10.042 15.8118C10.623 15.935 11.204 16.2383 11.5762 16.6363C12.0846 17.167 12.3024 17.584 12.3478 18.1242C12.4114 18.8824 12.3387 19.4415 12.0936 19.887C11.9484 20.1523 11.9393 20.4651 12.0301 20.7494C12.139 21.0242 12.3569 21.2422 12.6202 21.3464C13.1376 21.5265 13.6188 21.8866 13.9365 22.3036C14.2633 22.8249 14.4358 23.403 14.4358 23.9906C14.4358 24.6445 14.2633 25.2131 13.9547 25.6585C13.6006 26.1419 13.1649 26.4641 12.6474 26.6347C12.366 26.72 12.1481 26.9285 12.0392 27.2033C11.9302 27.4782 11.9302 27.7814 12.0664 28.0657C12.366 28.6818 12.4568 29.2409 12.3569 29.7716C12.2389 30.3782 11.9484 30.9847 11.5671 31.3733C11.1677 31.7903 10.7047 32.0461 10.0783 32.1788C9.93305 32.1883 9.79689 32.1883 9.6698 32.1883L9.66978 32.1883C9.17048 32.1883 8.77105 32.103 8.43516 31.8945C8.28991 31.8092 8.13558 31.7713 7.96309 31.7713C7.84508 31.7713 7.71798 31.7997 7.60905 31.8376C7.34578 31.9514 7.13698 32.1788 7.03712 32.4537C6.86464 32.9939 6.51967 33.5056 6.12024 33.8278C5.5937 34.188 5.03086 34.368 4.4771 34.368Z" fill="white"></path>
        <path d="M4.4771 34.368C3.85071 34.368 3.30602 34.188 2.87935 33.8658C2.41636 33.4961 2.10771 33.0412 1.9443 32.501C1.8626 32.2073 1.66288 31.9798 1.39961 31.8661C1.2816 31.8187 1.14543 31.7808 1.00925 31.7808C0.864004 31.7808 0.709676 31.8187 0.573505 31.885C0.128677 32.1125 -0.270759 32.2262 -0.661119 32.2262C-0.797291 32.2262 -0.924385 32.2167 -1.05148 32.1883C-1.63248 32.0651 -2.21348 31.7618 -2.58568 31.3638C-2.98512 30.9468 -3.23023 30.4635 -3.35732 29.8095C-3.42087 29.0798 -3.33009 28.5491 -3.09405 28.0942C-2.95788 27.8383 -2.93972 27.554 -3.02143 27.2886C-3.10313 27.0233 -3.30285 26.7958 -3.53888 26.6821C-4.15619 26.3883 -4.64641 26.0092 -4.95507 25.5827C-5.2728 25.1563 -5.43621 24.5876 -5.43621 23.9906C-5.43621 23.4883 -5.26372 22.8817 -4.97322 22.3226C-4.58286 21.7445 -4.03818 21.4791 -3.63874 21.3464C-3.35732 21.2611 -3.13945 21.0526 -3.03051 20.7778C-2.92157 20.503 -2.92157 20.1997 -3.05774 19.9154C-3.35732 19.2994 -3.4481 18.7402 -3.34824 18.2095C-3.23023 17.603 -2.93973 16.9964 -2.55845 16.6079C-2.15901 16.1909 -1.69602 15.935 -1.06963 15.8023C-0.924383 15.7928 -0.788211 15.7928 -0.661118 15.7928C-0.161821 15.7928 0.237615 15.8781 0.573506 16.0866C0.718755 16.1719 0.873085 16.2098 1.04557 16.2098C1.16358 16.2098 1.29068 16.1814 1.39961 16.1435C1.66288 16.0298 1.87168 15.8023 1.97154 15.5275C2.14402 14.9873 2.48899 14.4755 2.88843 14.1533C3.38772 13.8121 3.94149 13.632 4.51341 13.632C5.1398 13.632 5.68449 13.8121 6.11116 14.1343C6.57414 14.5039 6.8828 14.9588 7.0462 15.499C7.12791 15.7928 7.32763 16.0203 7.59089 16.134C7.70891 16.1814 7.84508 16.2193 7.98125 16.2193C8.1265 16.2193 8.28083 16.1814 8.417 16.1151C8.86183 15.8876 9.26127 15.7739 9.65162 15.7739C9.7878 15.7739 9.91489 15.7834 10.042 15.8118C10.623 15.935 11.204 16.2383 11.5762 16.6363C12.0846 17.167 12.3024 17.584 12.3478 18.1242C12.4114 18.8824 12.3387 19.4415 12.0936 19.887C11.9484 20.1523 11.9393 20.4651 12.0301 20.7494C12.139 21.0242 12.3569 21.2422 12.6202 21.3464C13.1376 21.5265 13.6188 21.8866 13.9365 22.3036C14.2633 22.8249 14.4358 23.403 14.4358 23.9906C14.4358 24.6445 14.2633 25.2131 13.9547 25.6585C13.6006 26.1419 13.1649 26.4641 12.6474 26.6347C12.366 26.72 12.1481 26.9285 12.0392 27.2033C11.9302 27.4782 11.9302 27.7814 12.0664 28.0657C12.366 28.6818 12.4568 29.2409 12.3569 29.7716C12.2389 30.3782 11.9484 30.9847 11.5671 31.3733C11.1677 31.7903 10.7047 32.0461 10.0783 32.1788C9.93305 32.1883 9.79689 32.1883 9.6698 32.1883L9.66978 32.1883C9.17048 32.1883 8.77105 32.103 8.43516 31.8945C8.28991 31.8092 8.13558 31.7713 7.96309 31.7713C7.84508 31.7713 7.71798 31.7997 7.60905 31.8376C7.34578 31.9514 7.13698 32.1788 7.03712 32.4537C6.86464 32.9939 6.51967 33.5056 6.12024 33.8278C5.5937 34.188 5.03086 34.368 4.4771 34.368Z" stroke="black"></path>
    </g>
    <rect x="21" y="16" width="17" height="2" rx="1" fill="#19194B"></rect>
    <rect x="21" y="20" width="7" height="2" rx="1" fill="#19194B"></rect>
    <rect x="21" y="24" width="7" height="2" rx="1" fill="#19194B"></rect>
    <rect x="29" y="20" width="7" height="2" rx="1" fill="#19194B"></rect>
    <defs>
        <linearGradient id="paint0_linear" x1="24" y1="10" x2="24" y2="78" gradientUnits="userSpaceOnUse">
            <stop stop-color="#00A0DF"></stop>
            <stop offset="1" stop-color="#007CBF"></stop>
        </linearGradient>
    </defs>
</svg>
