<svg class="icon"
     viewBox="0 0 40 40"
     fill="none"
     xmlns="http://www.w3.org/2000/svg"
>
    <rect y="8" width="35.7143" height="25" rx="4" fill="url(#cardnull-paint0_linear)"/>
    <circle cx="10.4643" cy="26.8571" r="2.67857" fill="#FBD677"/>
    <circle cx="6.89285" cy="26.8571" r="2.67857" fill="#EB4B68"/>
    <rect x="4.46428" y="12.4643" width="15.1786" height="1.78571" rx="0.892857" fill="#C87C1B"/>
    <rect x="4.46428" y="16.0357" width="6.25" height="1.78571" rx="0.892857" fill="#C87C1B"/>
    <rect x="11.6071" y="16.0357" width="6.25" height="1.78571" rx="0.892857" fill="#C87C1B"/>
    <circle cx="30.5" cy="29.5" r="9.5" fill="#FEE2DB"/>
    <path d="M34.868 25.1316C32.4546 22.7211 28.5436 22.7232 26.1322 25.1357C23.7209 27.5482 23.7229 31.4579 26.1363 33.8683C28.5482 36.2772 32.4562 36.2772 34.868 33.8683C37.2773 31.4543 37.2773 27.5456 34.868 25.1316ZM32.9218 31.1881C33.1118 31.3997 33.0943 31.7251 32.8826 31.915C32.6874 32.0901 32.3918 32.0906 32.1961 31.9166L30.5944 30.3154C30.5439 30.2655 30.4625 30.2655 30.4121 30.3154L28.8109 31.9166C28.6074 32.1127 28.2855 32.1127 28.0821 31.9166C27.8807 31.7158 27.8807 31.3899 28.0816 31.1886L28.0821 31.1881L29.6838 29.5875C29.7338 29.5375 29.7343 29.4562 29.6843 29.4062L29.6838 29.4057L28.0821 27.8046C27.8905 27.594 27.906 27.2687 28.1166 27.0771C28.3123 26.899 28.6115 26.8985 28.8083 27.0761L30.4095 28.6772C30.46 28.7277 30.5413 28.7277 30.5918 28.6772L32.1935 27.0761C32.3949 26.8753 32.7209 26.8753 32.9218 27.0766C33.1226 27.2779 33.1226 27.6038 32.9218 27.8046L31.32 29.4057C31.2701 29.4562 31.2701 29.537 31.32 29.5875L32.9218 31.1881Z" fill="url(#cardnull-paint1_linear)"/>
    <path d="M32.8826 31.915C33.0943 31.7251 33.1118 31.3997 32.9218 31.1881L31.32 29.5875C31.2701 29.537 31.2701 29.4562 31.32 29.4057L32.9218 27.8046C33.1226 27.6038 33.1226 27.2779 32.9218 27.0766C32.7209 26.8753 32.3949 26.8753 32.1935 27.0761L30.5918 28.6772C30.5413 28.7277 30.46 28.7277 30.4095 28.6772L28.8083 27.0761C28.6115 26.8985 28.3123 26.899 28.1166 27.0771C27.906 27.2686 27.8905 27.594 28.0821 27.8046L29.6838 29.4057L29.6843 29.4062C29.7343 29.4562 29.7338 29.5375 29.6838 29.5875L28.0821 31.1881L28.0816 31.1886C27.8807 31.3899 27.8807 31.7158 28.0821 31.9166C28.2855 32.1127 28.6074 32.1127 28.8109 31.9166L30.4121 30.3154C30.4625 30.2655 30.5439 30.2655 30.5944 30.3154L32.1961 31.9166C32.3918 32.0906 32.6874 32.0901 32.8826 31.915Z" fill="white"/>
    <defs>
        <linearGradient id="cardnull-paint0_linear" x1="17.9355" y1="59.5625" x2="17.9355" y2="8" gradientUnits="userSpaceOnUse">
            <stop stop-color="#E99B26"/>
            <stop offset="1" stop-color="#FAC34B"/>
        </linearGradient>
        <linearGradient id="cardnull-paint1_linear" x1="30.5" y1="23.325" x2="28.9311" y2="48.5078" gradientUnits="userSpaceOnUse">
            <stop stop-color="#EB4B68"/>
            <stop offset="1" stop-color="#CA365F"/>
        </linearGradient>
    </defs>
</svg>
