<svg class="icon"
     viewBox="0 0 24 24"
     fill="none"
     xmlns="http://www.w3.org/2000/svg"
>
  <path fill-rule="evenodd"
        clip-rule="evenodd"
        d="M12 0.00101046C15.2641 -0.0288967 18.5003 0.60537 21.5116 1.86525C21.9519 2.05514 22.3272 2.36934 22.5916 2.76935C22.8559 3.16936 22.9979 3.63781 23 4.11729V11.3948C22.9624 14.0008 22.13 16.5331 20.6141 18.6532C19.0981 20.7732 16.971 22.3798 14.5172 23.2581L13.4505 23.6569C12.5145 24.0011 11.4865 24.0011 10.5505 23.6569L9.48178 23.2581C7.02832 22.3794 4.90157 20.7727 3.38589 18.6527C1.8702 16.5327 1.0378 14.0006 1 11.3948V4.11729C1.00215 3.63795 1.144 3.16964 1.40817 2.76966C1.67234 2.36968 2.04739 2.05539 2.4874 1.86525C5.49922 0.605772 8.73558 -0.0284763 12 0.00101046ZM17.5873 10.2827C17.5938 10.3026 17.6046 10.3207 17.6191 10.3358C18.0613 10.791 18.3088 11.4006 18.3092 12.0352V13.1323C18.3083 13.4073 18.2245 13.6756 18.0689 13.9022C17.9132 14.1288 17.6928 14.3033 17.4364 14.4028C17.4108 14.4129 17.3887 14.4305 17.3732 14.4532C17.3576 14.476 17.3493 14.503 17.3492 14.5306V15.5986C17.3492 15.9259 17.2192 16.2399 16.9877 16.4713C16.7563 16.7028 16.4423 16.8328 16.115 16.8328C15.7876 16.8328 15.4737 16.7028 15.2422 16.4713C15.0108 16.2399 14.8807 15.9259 14.8807 15.5986V14.6386C14.8807 14.6023 14.8663 14.5674 14.8406 14.5417C14.8148 14.5159 14.78 14.5015 14.7436 14.5015H9.25805C9.22168 14.5015 9.1868 14.5159 9.16108 14.5417C9.13536 14.5674 9.12092 14.6023 9.12092 14.6386V15.5986C9.12092 15.9259 8.99088 16.2399 8.75941 16.4713C8.52795 16.7028 8.21401 16.8328 7.88667 16.8328C7.55933 16.8328 7.24539 16.7028 7.01392 16.4713C6.78246 16.2399 6.65242 15.9259 6.65242 15.5986V14.5284C6.65236 14.5008 6.64402 14.4738 6.62847 14.4511C6.61291 14.4283 6.59087 14.4107 6.5652 14.4006C6.30887 14.3011 6.08848 14.1266 5.93279 13.9C5.7771 13.6734 5.69335 13.4051 5.69245 13.1301V12.033C5.69329 11.3997 5.94014 10.7916 6.38089 10.3369C6.39536 10.3218 6.40624 10.3037 6.4127 10.2838C6.41916 10.264 6.42103 10.2429 6.41819 10.2222C6.41525 10.2016 6.40764 10.182 6.39595 10.1648C6.38425 10.1476 6.36878 10.1333 6.35072 10.1229L5.91187 9.86896C5.72274 9.75984 5.5847 9.58006 5.52812 9.36917C5.47154 9.15828 5.50106 8.93355 5.61017 8.74442C5.71928 8.55529 5.89906 8.41725 6.10995 8.36067C6.32084 8.30409 6.54557 8.3336 6.73471 8.44272L7.31782 8.78008C7.33706 8.79107 7.35867 8.79726 7.38081 8.79811C7.40296 8.79897 7.42498 8.79447 7.44501 8.78499C7.46504 8.77551 7.48249 8.76134 7.49587 8.74368C7.50926 8.72601 7.51818 8.70538 7.52188 8.68353L7.7413 7.37633C7.80415 6.99144 8.00203 6.64152 8.29948 6.38931C8.59693 6.1371 8.97449 5.99908 9.36447 6.00001H14.635C15.0248 5.99904 15.4022 6.1369 15.6997 6.38889C15.9971 6.64088 16.1951 6.99054 16.2582 7.37523L16.4776 8.68243C16.4812 8.70427 16.49 8.7249 16.5034 8.74257C16.5167 8.76025 16.5341 8.77443 16.5541 8.78392C16.5741 8.7934 16.5961 8.79791 16.6182 8.79705C16.6403 8.79619 16.6619 8.78999 16.6811 8.77898L17.2653 8.44162C17.3589 8.38759 17.4623 8.35254 17.5695 8.33846C17.6767 8.32438 17.7856 8.33156 17.89 8.35957C17.9945 8.38759 18.0924 8.4359 18.1781 8.50174C18.2639 8.56758 18.3358 8.64967 18.3898 8.74332C18.4439 8.83697 18.4789 8.94034 18.493 9.04754C18.5071 9.15473 18.4999 9.26365 18.4719 9.36808C18.4439 9.4725 18.3956 9.57038 18.3297 9.65613C18.2639 9.74189 18.1818 9.81383 18.0881 9.86786L17.6493 10.1218C17.6312 10.1322 17.6157 10.1465 17.6041 10.1637C17.5924 10.1809 17.5848 10.2005 17.5818 10.2211C17.579 10.2418 17.5808 10.2629 17.5873 10.2827ZM14.6372 7.09821H9.36447C9.23487 7.0982 9.10944 7.14409 9.01044 7.22773C8.91143 7.31137 8.84524 7.42737 8.8236 7.55516L8.56084 9.13115C8.55757 9.15081 8.55863 9.17095 8.56394 9.19016C8.56924 9.20937 8.57867 9.22719 8.59157 9.24239C8.60447 9.25758 8.62052 9.26978 8.63861 9.27814C8.65671 9.2865 8.6764 9.29081 8.69633 9.29078H15.3053C15.3252 9.29083 15.3449 9.28653 15.363 9.2782C15.3811 9.26986 15.3972 9.25768 15.4101 9.24251C15.4227 9.22744 15.4319 9.20986 15.4372 9.19095C15.4425 9.17204 15.4437 9.15222 15.4408 9.1328L15.178 7.5568C15.1568 7.42871 15.0907 7.31233 14.9917 7.22836C14.8926 7.14439 14.767 7.09827 14.6372 7.09821ZM15.6578 12.9936C15.7932 13.084 15.9522 13.1323 16.115 13.1323C16.3332 13.1323 16.5425 13.0456 16.6968 12.8913C16.8511 12.737 16.9378 12.5277 16.9378 12.3095C16.9378 12.1467 16.8896 11.9876 16.7991 11.8523C16.7087 11.717 16.5802 11.6116 16.4299 11.5493C16.2795 11.487 16.1141 11.4707 15.9545 11.5025C15.7948 11.5342 15.6482 11.6126 15.5331 11.7276C15.4181 11.8427 15.3397 11.9893 15.308 12.1489C15.2762 12.3086 15.2925 12.474 15.3548 12.6244C15.4171 12.7747 15.5225 12.9032 15.6578 12.9936ZM7.20251 11.8523C7.1121 11.9876 7.06384 12.1467 7.06384 12.3095C7.06384 12.5277 7.15053 12.737 7.30484 12.8913C7.45915 13.0456 7.66844 13.1323 7.88667 13.1323C8.04941 13.1323 8.2085 13.084 8.34381 12.9936C8.47912 12.9032 8.58459 12.7747 8.64687 12.6244C8.70914 12.474 8.72544 12.3086 8.69369 12.1489C8.66194 11.9893 8.58357 11.8427 8.4685 11.7276C8.35342 11.6126 8.20681 11.5342 8.04719 11.5025C7.88758 11.4707 7.72214 11.487 7.57178 11.5493C7.42143 11.6116 7.29292 11.717 7.20251 11.8523Z"
        fill="#00A0DF"
  />
</svg>
