<svg class="icon"
     width="24"
     height="24"
     viewBox="0 0 24 24"
     fill="none"
     xmlns="http://www.w3.org/2000/svg"
>
  <path fill-rule="evenodd"
        clip-rule="evenodd"
        d="M23.7998 3.028C23.7998 2.63018 23.6418 2.24864 23.3605 1.96734C23.0792 1.68604 22.6976 1.528 22.2998 1.528H8.2998C7.90198 1.528 7.52045 1.68604 7.23914 1.96734C6.95784 2.24864 6.7998 2.63018 6.7998 3.028V11.028C6.7998 11.4258 6.95784 11.8074 7.23914 12.0887C7.52045 12.37 7.90198 12.528 8.2998 12.528H22.2998C22.6976 12.528 23.0792 12.37 23.3605 12.0887C23.6418 11.8074 23.7998 11.4258 23.7998 11.028V3.028ZM21.7998 10.278C21.7998 10.3443 21.7735 10.4079 21.7266 10.4548C21.6797 10.5017 21.6161 10.528 21.5498 10.528H9.0528C8.9865 10.528 8.92291 10.5017 8.87603 10.4548C8.82914 10.4079 8.8028 10.3443 8.8028 10.278V3.778C8.8028 3.7117 8.82914 3.64811 8.87603 3.60122C8.92291 3.55434 8.9865 3.528 9.0528 3.528H21.5528C21.6191 3.528 21.6827 3.55434 21.7296 3.60122C21.7765 3.64811 21.8028 3.7117 21.8028 3.778L21.7998 10.278ZM15.3032 9.028C16.4078 9.028 17.3032 8.13257 17.3032 7.028C17.3032 5.92343 16.4078 5.028 15.3032 5.028C14.1987 5.028 13.3032 5.92343 13.3032 7.028C13.3032 8.13257 14.1987 9.028 15.3032 9.028ZM20.1888 16.527H20.1998C20.6066 16.3917 21.0415 16.3641 21.4622 16.447C21.8828 16.5299 22.2747 16.7204 22.5998 17C22.6681 17.0532 22.722 17.1227 22.7565 17.2021C22.791 17.2815 22.8051 17.3682 22.7974 17.4545C22.7898 17.5407 22.7606 17.6236 22.7126 17.6957C22.6647 17.7678 22.5994 17.8267 22.5228 17.867C16.5163 20.9055 14.6737 22.3157 12.7382 22.4575C11.0524 22.581 9.29617 21.7422 4.65678 20.179C4.51533 20.1319 4.36525 20.1164 4.21716 20.1337C4.06908 20.151 3.92659 20.2006 3.79978 20.279L0.578782 22.289C0.541011 22.3129 0.497515 22.3261 0.452855 22.3274C0.408194 22.3287 0.364015 22.3179 0.324949 22.2962C0.285883 22.2745 0.253371 22.2427 0.23082 22.2042C0.20827 22.1656 0.196513 22.1217 0.196782 22.077V16.683C0.196691 16.6365 0.209555 16.5909 0.233932 16.5514C0.258309 16.5118 0.293232 16.4798 0.334782 16.459L3.35178 14.951C3.90719 14.673 4.5197 14.5282 5.14078 14.528H7.19978C8.65522 14.6068 10.0514 15.1304 11.1998 16.028H14.6998C14.965 16.028 15.2194 16.1334 15.4069 16.3209C15.5944 16.5084 15.6998 16.7628 15.6998 17.028C15.6998 17.2932 15.5944 17.5476 15.4069 17.7351C15.2194 17.9226 14.965 18.028 14.6998 18.028H10.6998C10.5672 18.028 10.44 18.0807 10.3462 18.1744C10.2525 18.2682 10.1998 18.3954 10.1998 18.528C10.1998 18.6606 10.2525 18.7878 10.3462 18.8816C10.44 18.9753 10.5672 19.028 10.6998 19.028H14.6998C15.0848 19.0263 15.4612 18.9135 15.7837 18.7031C16.1062 18.4927 16.3611 18.1937 16.5178 17.842C16.5318 17.8089 16.5527 17.7791 16.5791 17.7546C16.6055 17.7302 16.6367 17.7115 16.6708 17.7L20.1888 16.527Z"
        fill="#00A0DF"
  />
</svg>
