<svg class="icon"
     width="24"
     height="24"
     viewBox="0 0 24 24"
     fill="none"
     xmlns="http://www.w3.org/2000/svg"
>
  <path fill-rule="evenodd"
        clip-rule="evenodd"
        d="M19.9246 4.67314C19.9764 4.80347 20.0021 4.94274 20.0001 5.083V15.917C20.0021 16.0573 19.9764 16.1965 19.9246 16.3269C19.8727 16.4572 19.7957 16.576 19.6979 16.6766C19.6002 16.7772 19.4835 16.8575 19.3547 16.913C19.2259 16.9685 19.0874 16.998 18.9471 17H1.05311C0.912851 16.998 0.774354 16.9685 0.645526 16.913C0.516698 16.8575 0.400062 16.7772 0.302279 16.6766C0.204496 16.576 0.127482 16.4572 0.0756348 16.3269C0.0237877 16.1965 -0.0018769 16.0573 0.000106814 15.917V5.083C-0.0018769 4.94274 0.0237877 4.80347 0.0756348 4.67314C0.127482 4.5428 0.204496 4.42395 0.302279 4.32339C0.400062 4.22282 0.516698 4.1425 0.645526 4.08701C0.774354 4.03152 0.912851 4.00196 1.05311 4H18.9471C19.0874 4.00196 19.2259 4.03152 19.3547 4.08701C19.4835 4.1425 19.6002 4.22282 19.6979 4.32339C19.7957 4.42395 19.8727 4.5428 19.9246 4.67314ZM8.3334 12.9944C8.82674 13.3241 9.40676 13.5 10.0001 13.5C10.7958 13.5 11.5588 13.1839 12.1214 12.6213C12.684 12.0587 13.0001 11.2956 13.0001 10.5C13.0001 9.90666 12.8242 9.32664 12.4945 8.83329C12.1649 8.33994 11.6963 7.95542 11.1482 7.72836C10.6 7.5013 9.99678 7.44189 9.41484 7.55764C8.83289 7.6734 8.29834 7.95912 7.87879 8.37868C7.45923 8.79824 7.17351 9.33279 7.05775 9.91473C6.942 10.4967 7.00141 11.0999 7.22847 11.6481C7.45553 12.1962 7.84005 12.6648 8.3334 12.9944ZM21.9698 6.96967C22.1104 6.82902 22.3012 6.75 22.5001 6.75C22.699 6.75 22.8898 6.82902 23.0305 6.96967C23.1711 7.11032 23.2501 7.30109 23.2501 7.5V18.5C23.2496 18.964 23.065 19.4088 22.737 19.7369C22.4089 20.0649 21.9641 20.2495 21.5001 20.25H3.50012C3.30121 20.25 3.11044 20.171 2.96979 20.0303C2.82914 19.8897 2.75012 19.6989 2.75012 19.5C2.75012 19.3011 2.82914 19.1103 2.96979 18.9697C3.11044 18.829 3.30121 18.75 3.50012 18.75H21.5001C21.5664 18.75 21.63 18.7237 21.6769 18.6768C21.7238 18.6299 21.7501 18.5663 21.7501 18.5V7.5C21.7501 7.30109 21.8291 7.11032 21.9698 6.96967Z"
        fill="#00A0DF"
  />
</svg>
