<svg viewBox="0 0 24 24" fill="none" xmlns="http://www.w3.org/2000/svg">
    <g clip-path="url(#clip0)">
        <path d="M17.5 9.5C18.9025 9.49977 20.2799 9.87139 21.492 10.577C21.5263 10.597 21.5649 10.6086 21.6045 10.6107C21.6442 10.6128 21.6838 10.6053 21.72 10.589C21.7563 10.5724 21.7882 10.5474 21.813 10.5161C21.8379 10.4848 21.855 10.4481 21.863 10.409C21.9536 9.94479 21.9995 9.47297 22 9C22 4.038 17.065 0 11 0C4.935 0 0 4.038 0 9C0.0187261 10.1056 0.264202 11.1957 0.721231 12.2026C1.17826 13.2096 1.83711 14.112 2.657 14.854L1.03 19.329C0.996958 19.4202 0.991167 19.5191 1.01333 19.6135C1.0355 19.708 1.08467 19.7939 1.15484 19.8609C1.22502 19.9279 1.31317 19.9731 1.40855 19.9908C1.50392 20.0086 1.60241 19.9982 1.692 19.961L7.524 17.532C8.08257 17.6826 8.65047 17.7962 9.224 17.872C9.25991 17.8766 9.29639 17.8734 9.33092 17.8625C9.36546 17.8516 9.39721 17.8334 9.424 17.809C9.45136 17.7837 9.47279 17.7526 9.48679 17.718C9.50079 17.6835 9.50701 17.6462 9.505 17.609C9.505 17.572 9.505 17.534 9.505 17.496C9.50844 15.3766 10.3518 13.3449 11.8504 11.8461C13.349 10.3474 15.3806 9.5037 17.5 9.5Z" fill="#00A0DF"/>
        <path d="M17.5 11C16.2144 11 14.9577 11.3812 13.8888 12.0954C12.8199 12.8097 11.9868 13.8248 11.4948 15.0126C11.0028 16.2003 10.8741 17.5072 11.1249 18.7681C11.3757 20.029 11.9948 21.1872 12.9038 22.0962C13.8128 23.0052 14.971 23.6243 16.2319 23.8751C17.4928 24.1259 18.7997 23.9972 19.9874 23.5052C21.1752 23.0132 22.1903 22.1801 22.9046 21.1112C23.6188 20.0423 24 18.7856 24 17.5C23.9979 15.7767 23.3124 14.1247 22.0939 12.9061C20.8753 11.6876 19.2233 11.0021 17.5 11ZM18.25 20C18.25 20.1989 18.171 20.3897 18.0303 20.5303C17.8897 20.671 17.6989 20.75 17.5 20.75C17.3011 20.75 17.1103 20.671 16.9697 20.5303C16.829 20.3897 16.75 20.1989 16.75 20V18.5C16.75 18.4337 16.7237 18.3701 16.6768 18.3232C16.6299 18.2763 16.5663 18.25 16.5 18.25H15C14.8011 18.25 14.6103 18.171 14.4697 18.0303C14.329 17.8897 14.25 17.6989 14.25 17.5C14.25 17.3011 14.329 17.1103 14.4697 16.9697C14.6103 16.829 14.8011 16.75 15 16.75H16.5C16.5663 16.75 16.6299 16.7237 16.6768 16.6768C16.7237 16.6299 16.75 16.5663 16.75 16.5V15C16.75 14.8011 16.829 14.6103 16.9697 14.4697C17.1103 14.329 17.3011 14.25 17.5 14.25C17.6989 14.25 17.8897 14.329 18.0303 14.4697C18.171 14.6103 18.25 14.8011 18.25 15V16.5C18.25 16.5663 18.2763 16.6299 18.3232 16.6768C18.3701 16.7237 18.4337 16.75 18.5 16.75H20C20.1989 16.75 20.3897 16.829 20.5303 16.9697C20.671 17.1103 20.75 17.3011 20.75 17.5C20.75 17.6989 20.671 17.8897 20.5303 18.0303C20.3897 18.171 20.1989 18.25 20 18.25H18.5C18.4337 18.25 18.3701 18.2763 18.3232 18.3232C18.2763 18.3701 18.25 18.4337 18.25 18.5V20Z" fill="#00A0DF"/>
    </g>
    <defs>
        <clipPath id="clip0">
            <rect width="24" height="24" fill="white"/>
        </clipPath>
    </defs>
</svg>
