<svg class="icon"
     viewBox="0 0 24 24"
     fill="none"
     xmlns="http://www.w3.org/2000/svg"
>
    <rect width="24" height="24" rx="4" fill="#00A0DF"/>
    <path d="M19.1173 4.67568C18.9151 4.53073 18.6637 4.47203 18.4182 4.51249C18.1727 4.55295 17.9534 4.68926 17.8084 4.89143L9.03146 17.1285L6.10163 14.1962C6.01454 14.1091 5.91114 14.04 5.79733 13.9928C5.68353 13.9456 5.56154 13.9213 5.43835 13.9213C5.31515 13.9213 5.19315 13.9455 5.07932 13.9926C4.96549 14.0397 4.86206 14.1088 4.77493 14.1959C4.68779 14.283 4.61867 14.3864 4.5715 14.5002C4.52432 14.614 4.50003 14.736 4.5 14.8592C4.49997 14.9824 4.52421 15.1044 4.57133 15.2182C4.61844 15.332 4.68752 15.4355 4.77461 15.5226L8.48614 19.2335C8.58359 19.3273 8.69986 19.3993 8.82724 19.4447C8.95462 19.4901 9.0902 19.5078 9.22498 19.4968C9.35977 19.4858 9.49067 19.4463 9.609 19.3808C9.72734 19.3154 9.8304 19.2255 9.91135 19.1172L19.3331 5.98457C19.478 5.78239 19.5367 5.53091 19.4963 5.28545C19.4558 5.03998 19.3195 4.82065 19.1173 4.67568Z" fill="white"/>
</svg>
