<svg class="icon"
     viewBox="0 0 40 40"
     fill="none"
     xmlns="http://www.w3.org/2000/svg"
>
    <rect y="34.2857" width="28.5714" height="40" rx="4" transform="rotate(-90 0 34.2857)" fill="#F4F5F7"/>
    <mask id="checkcolor-mask0" mask-type="alpha" maskUnits="userSpaceOnUse" x="0" y="5" width="40" height="30">
        <rect y="34.2858" width="28.5714" height="40" rx="4" transform="rotate(-90 0 34.2858)" fill="#F4F5F7"/>
    </mask>
    <g mask="url(#checkcolor-mask0)">
        <path d="M40 34.286V5.71457L0 34.286H40Z" fill="url(#checkcolor-paint0_linear)"/>
    </g>
    <path fill-rule="evenodd" clip-rule="evenodd" d="M4.28571 15.4777C4.28571 14.0305 5.45891 12.8573 6.90613 12.8573H15.5649C17.0121 12.8573 18.1853 14.0305 18.1853 15.4777V24.1365C18.1853 25.5837 17.0121 26.7569 15.5649 26.7569H6.90613C5.45891 26.7569 4.28571 25.5837 4.28571 24.1365V15.4777Z" fill="#00A0DF"/>
    <path fill-rule="evenodd" clip-rule="evenodd" d="M14.1505 15.7922C14.2723 15.6223 14.4566 15.5077 14.6629 15.4737C14.8692 15.4396 15.0805 15.489 15.2504 15.6109C15.4203 15.7327 15.5348 15.9171 15.5687 16.1234C15.6027 16.3297 15.5534 16.541 15.4317 16.7109L10.3284 23.8283L10.3268 23.8305C10.2592 23.921 10.1731 23.9961 10.0743 24.0508C9.97542 24.1055 9.86606 24.1386 9.75345 24.1478C9.64084 24.157 9.52757 24.1421 9.42115 24.1042C9.31473 24.0662 9.2176 24.006 9.13622 23.9277L9.13428 23.9258L7.1227 21.9134C7.04954 21.8402 6.99145 21.7532 6.95188 21.6575C6.9123 21.5618 6.89195 21.4593 6.89197 21.3558C6.892 21.2523 6.9124 21.1498 6.95202 21.0541C6.99164 20.9585 7.0497 20.8716 7.1229 20.7984C7.1961 20.7252 7.28301 20.6671 7.37866 20.6275C7.47431 20.5878 7.57683 20.5675 7.68036 20.5675C7.78389 20.5675 7.8864 20.5879 7.98203 20.6276C8.07766 20.6673 8.16454 20.7254 8.2377 20.7986L9.59063 22.1535L14.1505 15.7922Z" fill="white"/>
    <path fill-rule="evenodd" clip-rule="evenodd" d="M21.4288 15.4773C21.4288 14.0301 22.602 12.8569 24.0492 12.8569H32.708C34.1552 12.8569 35.3284 14.0301 35.3284 15.4773V24.1361C35.3284 25.5833 34.1552 26.7565 32.708 26.7565H24.0492C22.602 26.7565 21.4288 25.5833 21.4288 24.1361V15.4773Z" fill="#00A0DF"/>
    <mask id="checkcolor-mask1" mask-type="alpha" maskUnits="userSpaceOnUse" x="0" y="5" width="40" height="30">
        <rect y="34.2858" width="28.5714" height="40" rx="4" transform="rotate(-90 0 34.2858)" fill="#F4F5F7"/>
    </mask>
    <g mask="url(#checkcolor-mask1)">
        <path d="M56.2116 0.947266L33.2366 20.7526L28.1256 14.8236L51.1005 -4.98176L56.2116 0.947266Z" fill="#FADD7F"/>
        <path d="M49.6309 0.806702L50.2698 1.54783L31.0005 18.1587L30.3616 17.4176L49.6309 0.806702Z" fill="#F6C770"/>
        <path d="M33.2366 20.7527L28.1255 14.8236L24.3864 22.0261C23.9832 22.8027 24.7341 23.6738 25.5617 23.3895L33.2366 20.7527Z" fill="#FFCEBF"/>
        <mask id="checkcolor-mask2" mask-type="alpha" maskUnits="userSpaceOnUse" x="24" y="14" width="10" height="10">
            <path d="M33.2366 20.7527L28.1255 14.8236L24.3864 22.0261C23.9832 22.8027 24.7341 23.6738 25.5617 23.3895L33.2366 20.7527Z" fill="#FFCEBF"/>
        </mask>
        <g mask="url(#checkcolor-mask2)">
            <rect x="29.5313" y="23.947" width="4.89244" height="10.7634" transform="rotate(139.237 29.5313 23.947)" fill="#19194B"/>
        </g>
        <mask id="checkcolor-mask3" mask-type="alpha" maskUnits="userSpaceOnUse" x="28" y="13" width="7" height="8">
            <rect x="34.7188" y="19.4747" width="1.95698" height="7.82791" transform="rotate(139.237 34.7188 19.4747)" fill="#C4C4C4"/>
        </mask>
        <g mask="url(#checkcolor-mask3)">
            <path fill-rule="evenodd" clip-rule="evenodd" d="M30.774 17.7081C30.2112 18.1933 30.327 19.2502 31.0327 20.0688C31.7384 20.8874 32.7667 21.1578 33.3295 20.6726C33.8923 20.1874 33.7765 19.1305 33.0708 18.3119C32.3651 17.4933 31.3368 17.2229 30.774 17.7081ZM28.2186 14.7433C27.6558 15.2285 27.7716 16.2854 28.4773 17.104C29.183 17.9226 30.2113 18.193 30.7741 17.7078C31.3369 17.2226 31.2211 16.1657 30.5154 15.3471C29.8097 14.5285 28.7814 14.2581 28.2186 14.7433Z" fill="#FFCEBF"/>
        </g>
    </g>
    <defs>
        <linearGradient id="checkcolor-paint0_linear" x1="22.5" y1="4.65637" x2="15.2628" y2="35.1694" gradientUnits="userSpaceOnUse">
            <stop stop-color="#EBECF0"/>
            <stop offset="1" stop-color="#EBECF0" stop-opacity="0"/>
        </linearGradient>
    </defs>
</svg>
