<svg class="icon"
     width="24"
     height="24"
     viewBox="0 0 24 24"
     fill="none"
     xmlns="http://www.w3.org/2000/svg"
>
  <path d="M6 11.9787C5.9997 11.7334 6.05172 11.4909 6.15259 11.2673C6.25347 11.0437 6.40087 10.8441 6.58498 10.682L14.9486 3.32408C15.2258 3.09152 15.5829 2.97663 15.9437 3.00396C16.3044 3.0313 16.6402 3.1987 16.8791 3.47036C17.1181 3.74203 17.2412 4.09639 17.2223 4.45769C17.2034 4.81899 17.0438 5.15854 16.7778 5.40374L9.46411 11.8377C9.44403 11.8553 9.42794 11.877 9.41692 11.9013C9.4059 11.9256 9.4002 11.952 9.4002 11.9787C9.4002 12.0054 9.4059 12.0318 9.41692 12.0561C9.42794 12.0804 9.44403 12.1021 9.46411 12.1197L16.7778 18.5537C16.9192 18.6724 17.0355 18.8181 17.1198 18.9824C17.2041 19.1466 17.2547 19.3261 17.2686 19.5101C17.2826 19.6942 17.2596 19.8793 17.201 20.0543C17.1424 20.2294 17.0495 20.391 16.9275 20.5296C16.8056 20.6683 16.6572 20.7811 16.491 20.8616C16.3249 20.942 16.1443 20.9884 15.9599 20.9981C15.7755 21.0078 15.5911 20.9805 15.4174 20.9178C15.2438 20.8552 15.0844 20.7585 14.9486 20.6334L6.58798 13.2777C6.40342 13.1153 6.25554 12.9154 6.15416 12.6915C6.05279 12.4675 6.00023 12.2246 6 11.9787Z"
        fill="#00A0DF"
  />
</svg>
