<svg class="icon" viewBox="0 0 24 16" fill="none" xmlns="http://www.w3.org/2000/svg">
  <path
    d="M12 7.98581C12.0002 7.82228 11.9655 7.66058 11.8983 7.51151C11.831 7.36244 11.7328 7.22942 11.61 7.12135L6.03425 2.21605C5.84948 2.06101 5.61139 1.98442 5.37088 2.00264C5.13038 2.02087 4.90654 2.13246 4.74725 2.31357C4.58795 2.49468 4.50584 2.73093 4.51846 2.9718C4.53108 3.21266 4.63744 3.43903 4.8148 3.6025L9.6906 7.89182C9.70398 7.90355 9.7147 7.918 9.72205 7.93421C9.7294 7.95042 9.7332 7.96801 9.7332 7.98581C9.7332 8.00361 9.7294 8.0212 9.72205 8.03741C9.7147 8.05362 9.70398 8.06808 9.6906 8.07981L4.8148 12.3691C4.72052 12.4482 4.643 12.5454 4.5868 12.6549C4.53061 12.7644 4.49687 12.884 4.48757 13.0068C4.47827 13.1295 4.4936 13.2528 4.53265 13.3696C4.5717 13.4863 4.6337 13.594 4.71498 13.6864C4.79627 13.7788 4.89521 13.8541 5.00599 13.9077C5.11677 13.9613 5.23715 13.9923 5.36006 13.9987C5.48297 14.0052 5.60593 13.987 5.72171 13.9452C5.83748 13.9035 5.94375 13.839 6.03425 13.7556L11.608 8.85178C11.7311 8.74351 11.8296 8.6103 11.8972 8.46099C11.9648 8.31168 11.9998 8.1497 12 7.98581Z"
    fill="#00A0DF" />
  <path
    d="M20 7.98581C20.0002 7.82228 19.9655 7.66058 19.8983 7.51151C19.831 7.36244 19.7328 7.22942 19.61 7.12135L14.0342 2.21605C13.8495 2.06101 13.6114 1.98442 13.3709 2.00264C13.1304 2.02087 12.9065 2.13246 12.7472 2.31357C12.588 2.49468 12.5058 2.73093 12.5185 2.9718C12.5311 3.21266 12.6374 3.43903 12.8148 3.6025L17.6906 7.89182C17.704 7.90355 17.7147 7.918 17.7221 7.93421C17.7294 7.95042 17.7332 7.96801 17.7332 7.98581C17.7332 8.00361 17.7294 8.0212 17.7221 8.03741C17.7147 8.05362 17.704 8.06808 17.6906 8.07981L12.8148 12.3691C12.7205 12.4482 12.643 12.5454 12.5868 12.6549C12.5306 12.7644 12.4969 12.884 12.4876 13.0068C12.4783 13.1295 12.4936 13.2528 12.5327 13.3696C12.5717 13.4863 12.6337 13.594 12.715 13.6864C12.7963 13.7788 12.8952 13.8541 13.006 13.9077C13.1168 13.9613 13.2371 13.9923 13.3601 13.9987C13.483 14.0052 13.6059 13.987 13.7217 13.9452C13.8375 13.9035 13.9437 13.839 14.0342 13.7556L19.608 8.85178C19.7311 8.74351 19.8296 8.6103 19.8972 8.46099C19.9648 8.31168 19.9998 8.1497 20 7.98581Z"
    fill="#00A0DF" />
</svg>