<svg class="icon"
     viewBox="0 0 24 24"
     fill="none"
     xmlns="http://www.w3.org/2000/svg"
>
  <path d="M13.7247 12.1326C13.7072 12.1152 13.6934 12.0945 13.6839 12.0717C13.6744 12.049 13.6696 12.0246 13.6696 11.9999C13.6696 11.9752 13.6744 11.9508 13.6839 11.928C13.6934 11.9053 13.7072 11.8846 13.7247 11.8671L20.6716 4.92092C20.8826 4.70969 21.001 4.42331 21.0008 4.12479C21.0005 3.82626 20.8818 3.54005 20.6705 3.32911C20.4593 3.11817 20.1729 2.99979 19.8744 3C19.5759 3.00021 19.2896 3.119 19.0787 3.33024L12.1325 10.2735C12.1151 10.2909 12.0944 10.3048 12.0716 10.3142C12.0488 10.3237 12.0244 10.3285 11.9997 10.3285C11.9751 10.3285 11.9507 10.3237 11.9279 10.3142C11.9051 10.3048 11.8844 10.2909 11.867 10.2735L4.92077 3.33024C4.81632 3.22574 4.69232 3.14284 4.55583 3.08627C4.41935 3.0297 4.27306 3.00057 4.12532 3.00053C3.82693 3.00046 3.54074 3.11892 3.32971 3.32986C3.11867 3.5408 3.00007 3.82693 3 4.12532C2.99993 4.4237 3.11839 4.70989 3.32933 4.92092L10.2748 11.8671C10.2923 11.8846 10.3061 11.9053 10.3156 11.928C10.325 11.9508 10.3299 11.9752 10.3299 11.9999C10.3299 12.0246 10.325 12.049 10.3156 12.0717C10.3061 12.0945 10.2923 12.1152 10.2748 12.1326L3.32933 19.0796C3.22489 19.1841 3.14204 19.3081 3.08554 19.4447C3.02903 19.5812 2.99997 19.7275 3 19.8752C3.00007 20.1736 3.11867 20.4597 3.32971 20.6707C3.4342 20.7751 3.55825 20.858 3.69476 20.9145C3.83127 20.971 3.97757 21 4.12532 21C4.4237 20.9999 4.70983 20.8813 4.92077 20.6703L11.867 13.7233C11.8844 13.7059 11.9051 13.692 11.9279 13.6826C11.9507 13.6731 11.9751 13.6682 11.9997 13.6682C12.0244 13.6682 12.0488 13.6731 12.0716 13.6826C12.0944 13.692 12.1151 13.7059 12.1325 13.7233L19.0787 20.6703C19.2896 20.8813 19.5758 20.9999 19.8742 21C20.1725 21.0001 20.4587 20.8816 20.6698 20.6707C20.8808 20.4597 20.9994 20.1736 20.9995 19.8752C20.9995 19.5768 20.8811 19.2906 20.6701 19.0796L13.7247 12.1326Z"
        fill="#00A0DF"
  />
</svg>
