
<svg id="coin-icon"
     class="icon"
     data-name="coin-icon"
     xmlns="http://www.w3.org/2000/svg"
     xmlns:xlink="http://www.w3.org/1999/xlink"
     viewBox="0 0 40 40"
>
  <defs>
    <linearGradient id="coin-icon-gradient-2"
                    data-name="coin-icon-gradient-2"
                    x1="20"
                    y1="-42.61"
                    x2="20"
                    y2="39.89"
                    gradientTransform="matrix(1, 0, 0, -1, 0, 39.89)"
                    gradientUnits="userSpaceOnUse"
    >
      <stop offset="0" stop-color="#413017"/>
      <stop offset="1" stop-color="#fac34b"/>
    </linearGradient>
    <linearGradient id="coin-icon-gradient-1"
                    data-name="coin-icon-gradient-1"
                    x1="20"
                    y1="-42.61"
                    x2="20"
                    y2="39.89"
                    gradientTransform="matrix(1, 0, 0, -1, 0, 39.89)"
                    gradientUnits="userSpaceOnUse"
    >
      <stop offset="0" stop-color="#e99b26"/>
      <stop offset="1" stop-color="#fac34b"/>
    </linearGradient>
    <mask id="coin-icon-mask"
          x="0"
          y="0"
          width="40"
          height="40"
          maskUnits="userSpaceOnUse"
    >
      <g transform="translate(0 0)">
        <g id="coin-icon-mask0">
          <path d="M20,0A20,20,0,1,0,40,20,20.027,20.027,0,0,0,20,0Z" fill="url(#coin-icon-gradient-2)"/>
        </g>
      </g>
    </mask>
    <linearGradient id="coin-icon-gradient-3"
                    data-name="coin-icon-gradient-3"
                    x1="20.074"
                    y1="0.068"
                    x2="34.074"
                    y2="33.568"
                    gradientTransform="matrix(1, 0, 0, -1, 0, 39.89)"
                    gradientUnits="userSpaceOnUse"
    >
      <stop offset="0" stop-color="#e99b26" stop-opacity="0.26"/>
      <stop offset="1" stop-color="#fac34b"/>
    </linearGradient>
  </defs>
  <path d="M20,0A20,20,0,1,0,40,20,20.027,20.027,0,0,0,20,0Z" transform="translate(0 0)" fill="url(#coin-icon-gradient-1)"/>
  <g mask="url(#coin-icon-mask)">
    <path d="M40,40V0L0,40Z" transform="translate(0 0)" fill="url(#coin-icon-gradient-3)"/>
  </g>
  <path d="M20.087,3.333A16.667,16.667,0,1,0,36.754,20,16.689,16.689,0,0,0,20.087,3.333Z"
        transform="translate(0 0)"
        fill="none"
        stroke="#e99b26"
        stroke-width="1.583"
        opacity="0.5"
        style="isolation: isolate"
  />
  <path d="M20.831,10.324a6.718,6.718,0,0,1,4.793,2.51,1.747,1.747,0,0,1,.266.892,1.467,1.467,0,0,1-1.438,1.506,1.631,1.631,0,0,1-1.118-.614,5.485,5.485,0,0,0-3.727-1.505c-2.236,0-3.035,1.115-3.035,2.23,0,3.681,9.744,1.952,9.744,8.923,0,3.068-1.864,5.075-5.431,5.466v1.561a1.328,1.328,0,0,1-1.278,1.339,1.285,1.285,0,0,1-1.225-1.339V29.732a7.527,7.527,0,0,1-5.537-3.347,1.868,1.868,0,0,1-.213-.78A1.467,1.467,0,0,1,14.069,24.1a1.543,1.543,0,0,1,1.172.613,6.039,6.039,0,0,0,4.366,2.12c2.449,0,3.621-.837,3.621-2.566,0-4.071-9.745-2.23-9.745-8.923,0-2.509,1.491-4.629,4.9-5.019V8.707a1.254,1.254,0,1,1,2.5,0v1.617Z" transform="translate(0 0)" fill="#a76013"/>
</svg>
