<svg class="icon" fill="none" viewBox="0 0 48 48" xmlns="http://www.w3.org/2000/svg">
    <rect x="23" y="4" width="2" height="33" rx="1" fill="#19194B"/>
    <path d="m4 26c0-11.046 8.9543-20 20-20s20 8.9543 20 20c0 0-2.2535-2-4-2s-4 2-4 2-3.5301-2-6-2-6 2-6 2-3.8441-2-6.5-2-6.5 2-6.5 2-1.9258-2-3.5-2-3.5 2-3.5 2z" fill="#00A0DF"/>
    <mask id="a" x="4" y="6" width="40" height="20" mask-type="alpha" maskUnits="userSpaceOnUse">
        <path d="m4 26c0-11.046 8.9543-20 20-20s20 8.9543 20 20c0 0-2.2535-2-4-2s-4 2-4 2-3.5301-2-6-2-6 2-6 2-3.8441-2-6.5-2-6.5 2-6.5 2-1.9258-2-3.5-2-3.5 2-3.5 2z" fill="#00A0DF"/>
    </mask>
    <g mask="url(#a)">
        <path d="m11 26s1.5-20 13-20 12 20 12 20h-25z" fill="#33B3E5"/>
    </g>
    <path d="m24 35c0.5523 0 1 0.4477 1 1v5c0 1.6569-1.3431 3-3 3s-3-1.3431-3-3v-0.5c0-0.5523 0.4477-1 1-1s1 0.4477 1 1v0.5c0 0.5523 0.4477 1 1 1s1-0.4477 1-1v-5c0-0.5523 0.4477-1 1-1z" clip-rule="evenodd" fill="#19194B" fill-rule="evenodd"/>
</svg>
