<svg class="icon" fill="none" viewBox="0 0 48 48" xmlns="http://www.w3.org/2000/svg">
    <rect width="48" height="48" fill="#fff"/>
    <path d="m39.907 7.1198c-5.0368-2.1073-10.449-3.1681-15.909-3.1181-5.46-0.04932-10.873 1.0115-15.911 3.1181-0.73596 0.31803-1.3632 0.84371-1.8051 1.5127-0.44185 0.669-0.67909 1.4523-0.68269 2.254v12.172c0.06323 4.3584 1.4555 8.5936 3.9906 12.14 2.5351 3.5458 6.0923 6.2332 10.196 7.7029l1.7875 0.667c1.5656 0.5757 3.2849 0.5757 4.8505 0l1.7842-0.667c4.1042-1.469 7.662-4.1562 10.198-7.7022 2.5355-3.5459 3.9278-7.7815 3.9907-12.14v-12.172c-0.0036-0.802-0.241-1.5855-0.6832-2.2545-0.4422-0.66905-1.0699-1.1946-1.8063-1.5122z" fill="url(#d)"/>
    <path d="m8.0878 7.1198c5.0375-2.1066 10.451-3.1674 15.911-3.1181l0.0016 39.998c-0.8215 1e-4 -1.643-0.1438-2.426-0.4318l-1.7875-0.667c-4.1036-1.4697-7.6608-4.1571-10.196-7.7029-2.5351-3.5459-3.9274-7.7811-3.9906-12.14v-12.172c0.0036-0.8017 0.24084-1.585 0.68269-2.254 0.44186-0.669 1.0692-1.1947 1.8051-1.5127z" fill="#7878C9" opacity=".5"/>
    <path d="m23.989 5.0016 0.0091 8e-5 0.0091-8e-5c5.322-0.04876 10.598 0.98498 15.508 3.0384 0.5557 0.24076 1.0294 0.63797 1.3634 1.1433 0.3344 0.50608 0.5142 1.0987 0.5174 1.7052v12.163c-0.0614 4.1526-1.3885 8.1876-3.8042 11.566-2.417 3.3803-5.8086 5.9419-9.721 7.3423v-1e-4l-0.0132 0.0049-1.7791 0.6651c-7e-4 3e-4 -0.0014 5e-4 -2e-3 8e-4 -1.3415 0.4928-2.8146 0.4928-4.1561 0-7e-4 -2e-4 -0.0014-5e-4 -0.0022-8e-4l-1.783-0.6653v-1e-4l-0.0124-0.0044c-3.912-1.4011-7.303-3.963-9.7197-7.3431-2.4152-3.3783-3.7423-7.413-3.804-11.565v-12.162c0.00313-0.6066 0.18281-1.1991 0.51712-1.7053 0.33369-0.50522 0.80698-0.90254 1.3623-1.1437 4.9108-2.0527 10.188-3.0864 15.51-3.0383z" stroke="#EBECF0" stroke-width="2"/>
    <g clip-path="url(#f)">
        <path d="m24 14c-4.9611 0-8.9999 4.0389-8.9999 9s4.0388 9 8.9999 9 8.9999-4.0389 8.9999-9c0.0318-4.9611-4.007-9-8.9999-9z" fill="url(#c)"/>
        <mask id="e" x="15" y="14" width="18" height="18" mask-type="alpha" maskUnits="userSpaceOnUse">
            <path d="m24 14c-4.9611 0-8.9999 4.0389-8.9999 9s4.0388 9 8.9999 9 8.9999-4.0389 8.9999-9c0.0318-4.9611-4.007-9-8.9999-9z" fill="url(#b)"/>
        </mask>
        <g mask="url(#e)">
            <path d="M33 32V14L15 32H33Z" fill="url(#a)"/>
        </g>
        <path d="m24.039 15.5c-4.1343 0-7.5 3.3657-7.5 7.5s3.3657 7.5 7.5 7.5c4.1342 0 7.4999-3.3657 7.4999-7.5 0.0265-4.1343-3.3392-7.5-7.4999-7.5z" opacity=".5" stroke="#E99B26" stroke-width=".7125"/>
        <path d="m24.374 18.646c0.9585 0.1255 1.7492 0.527 2.1565 1.1293 0.0719 0.1255 0.1198 0.2509 0.1198 0.4015 0 0.3765-0.2875 0.6776-0.6469 0.6776-0.1678 0-0.3355-0.1004-0.5032-0.276-0.3834-0.3765-1.0063-0.6776-1.6772-0.6776-1.0064 0-1.3658 0.5019-1.3658 1.0038 0 1.6563 4.3848 0.8784 4.3848 4.0153 0 1.3803-0.8386 2.2838-2.444 2.4594v0.7027c0 0.3263-0.2636 0.6023-0.575 0.6023-0.3115 0-0.5511-0.276-0.5511-0.6023v-0.7027c-1.1741-0.1505-2.0846-0.803-2.492-1.5057-0.0479-0.1004-0.0958-0.2259-0.0958-0.3514 0-0.3764 0.2875-0.6775 0.6469-0.6775 0.2636 0 0.4074 0.1505 0.5272 0.276 0.5032 0.527 1.1501 0.9536 1.9648 0.9536 1.1021 0 1.6293-0.3764 1.6293-1.1544 0-1.832-4.3848-1.0038-4.3848-4.0153 0-1.1293 0.6709-2.083 2.2044-2.2586v-0.7278c0-0.3262 0.2635-0.6023 0.5511-0.6023 0.3114 0 0.575 0.2761 0.575 0.6023v0.7278h-0.024z" fill="#A76013"/>
    </g>
    <defs>
        <linearGradient id="d" x1="24" x2="23.998" y1="-15.5" y2="44" gradientUnits="userSpaceOnUse">
            <stop stop-color="#ADADED" offset="0"/>
            <stop stop-color="#7878C9" offset="1"/>
        </linearGradient>
        <linearGradient id="c" x1="24.04" x2="24.04" y1="51.125" y2="14" gradientUnits="userSpaceOnUse">
            <stop stop-color="#E99B26" offset="0"/>
            <stop stop-color="#FAC34B" offset="1"/>
        </linearGradient>
        <linearGradient id="b" x1="24.04" x2="24.04" y1="51.125" y2="14" gradientUnits="userSpaceOnUse">
            <stop stop-color="#413017" offset="0"/>
            <stop stop-color="#FAC34B" offset="1"/>
        </linearGradient>
        <linearGradient id="a" x1="24.225" x2="30.525" y1="32" y2="16.925" gradientUnits="userSpaceOnUse">
            <stop stop-color="#E99B26" stop-opacity=".26" offset="0"/>
            <stop stop-color="#FAC34B" offset="1"/>
        </linearGradient>
        <clipPath id="f">
            <rect transform="translate(15 14)" width="18" height="18" fill="#fff"/>
        </clipPath>
    </defs>
</svg>
