<svg class="icon"
     viewBox="0 0 360 264"
     fill="none"
     xmlns="http://www.w3.org/2000/svg"
>
    <rect width="360" height="264" fill="white"/>
    <path d="M75.5 64H256.5C273.621 64 287.5 77.8792 287.5 95V95C287.5 112.121 273.621 126 256.5 126H215.75M264 200H112.5C92.0655 200 75.5 183.435 75.5 163V163C75.5 142.565 92.0655 126 112.5 126H145" stroke="#DFE1E6" stroke-width="4"/>
    <rect x="32" y="24" width="80" height="80" rx="20" fill="#3E325B"/>
    <path d="M67.7284 36.2821C63.9233 36.8256 60.2179 38.2199 56.9563 40.2329C40.029 50.6804 39.5538 76.4375 56.3227 87.3012C59.0564 89.0721 62.01 90.3886 65.1938 91.1198C68.2613 91.8239 71.5516 92.2481 74.6986 91.8415C79.1636 91.2644 83.6058 89.919 87.3716 87.4071C90.6435 85.2248 93.5653 82.3041 95.7045 79.0105C97.447 76.3275 98.5958 73.3025 99.2361 70.1857C100.017 66.3835 100.31 62.6808 99.5821 58.8395C96.801 44.1694 82.5369 34.1669 67.7284 36.2821Z" fill="#F6F5FA"/>
    <path d="M69.1291 42.0023C62.9371 43.0907 57.2563 46.403 53.7186 51.6265C52.6554 53.1964 49.9354 57.3141 52.4097 58.819C53.8385 59.688 56.52 59.2177 58.0402 58.8266C60.3445 58.2338 62.6389 57.5517 64.6936 56.3257C67.0105 54.943 69.1182 53.7472 72 53.7334C75.0206 53.7189 77.576 54.8545 80.0267 56.3257C83.1351 58.1918 87.8938 60.1327 91.6098 59.0538C93.1407 58.6094 93.3384 57.0667 92.9576 55.7237C92.2771 53.3243 90.4987 50.9592 88.8503 49.1333C84.1296 43.9043 76.2105 40.7576 69.1291 42.0023ZM52.3422 66.3302C49.0299 67.3968 51.0848 71.6056 52.1027 73.6885C54.2422 78.0669 57.5353 81.4755 61.8421 83.8056C63.2621 84.5737 65.5721 85.7697 67.2222 85.1586C70.2767 84.0268 69.2993 77.5724 68.467 75.2644C66.3068 69.2749 58.924 64.2107 52.3422 66.3302ZM86.5546 66.271C81.1818 67.2329 76.5454 71.4329 75.4961 76.8403C74.9901 79.4474 74.4268 85.806 78.6339 85.2822C84.1758 84.5926 89.5524 79.3074 92.0087 74.6341C92.9101 72.9192 94.7477 69.7111 93.922 67.7346C92.9937 65.512 88.4577 65.9299 86.5546 66.271Z" fill="#3E325B"/>
    <ellipse cx="72" cy="64" rx="5.6" ry="5.6" fill="#3E325B"/>
    <rect x="248" y="160" width="80" height="80" rx="20" fill="#00A0DF"/>
    <path fill-rule="evenodd" clip-rule="evenodd" d="M278.46 227.01C278.46 227.556 278.903 228 279.45 228H280.384C280.931 228 281.374 227.556 281.374 227.01V218.091H278.46V227.01Z" fill="#19194B"/>
    <path fill-rule="evenodd" clip-rule="evenodd" d="M294.653 218.091V227.01C294.653 227.556 295.096 228 295.642 228H296.578C297.124 228 297.567 227.556 297.567 227.01V218.091H294.653Z" fill="#19194B"/>
    <path fill-rule="evenodd" clip-rule="evenodd" d="M308.037 206.514C307.585 206.631 307.214 206.952 307.036 207.383L306.68 208.24C306.502 208.671 306.537 209.16 306.774 209.562C308.307 212.161 307.913 215.563 305.737 217.738C303.392 220.083 299.623 220.358 296.968 218.379L296.096 218.09H279.902L279.031 218.379C276.378 220.359 272.607 220.083 270.263 217.738C268.087 215.562 267.692 212.161 269.226 209.562C269.463 209.161 269.498 208.671 269.319 208.24L268.964 207.383C268.787 206.952 268.415 206.631 267.963 206.514C265.041 205.761 262.915 203.077 262.915 200C262.915 196.924 265.041 194.24 267.963 193.487C268.415 193.37 268.787 193.049 268.964 192.618L269.319 191.761C269.498 191.329 269.463 190.84 269.226 190.438C267.692 187.84 268.087 184.439 270.263 182.263C271.559 180.966 273.291 180.302 275.03 180.302C276.202 180.302 277.377 180.604 278.423 181.218C278.83 181.457 279.323 181.5 279.76 181.319L280.617 180.964C281.048 180.787 281.369 180.416 281.486 179.964C282.239 177.042 284.923 174.916 287.999 174.916C291.076 174.916 293.76 177.042 294.514 179.964C294.631 180.416 294.952 180.786 295.383 180.964L296.239 181.319C296.67 181.498 297.159 181.463 297.562 181.226C300.16 179.693 303.561 180.087 305.737 182.263C307.913 184.438 308.307 187.839 306.774 190.439C306.537 190.841 306.502 191.33 306.68 191.761L307.036 192.618C307.214 193.049 307.585 193.37 308.037 193.487C310.958 194.24 313.085 196.924 313.085 200C313.085 203.077 310.958 205.761 308.037 206.514ZM309.768 190.984C311.371 187.407 310.66 183.064 307.799 180.201C304.936 177.339 300.593 176.628 297.016 178.232C295.621 174.569 292.047 172 287.999 172C283.953 172 280.378 174.569 278.983 178.232C275.406 176.628 271.064 177.339 268.201 180.201C265.339 183.064 264.629 187.407 266.232 190.984C262.568 192.379 260 195.953 260 200C260 204.048 262.568 207.622 266.232 209.017C264.627 212.593 265.339 216.937 268.201 219.799C270.059 221.657 272.542 222.609 275.034 222.609C276.89 222.608 278.752 222.08 280.365 221.005H295.635C299.411 223.523 304.555 223.042 307.799 219.799C310.66 216.938 311.371 212.594 309.768 209.017C313.431 207.622 315.999 204.048 315.999 200C315.999 195.953 313.431 192.379 309.768 190.984Z" fill="#19194B"/>
    <path fill-rule="evenodd" clip-rule="evenodd" d="M308.037 193.486C307.585 193.37 307.214 193.049 307.036 192.618L306.68 191.761C306.502 191.33 306.537 190.841 306.774 190.439C308.307 187.839 307.913 184.438 305.737 182.263C303.561 180.087 300.16 179.693 297.562 181.226C297.159 181.463 296.67 181.498 296.239 181.319L295.382 180.964C294.952 180.786 294.631 180.416 294.514 179.964C293.76 177.041 291.076 174.916 287.999 174.916C284.923 174.916 282.239 177.041 281.486 179.964C281.369 180.416 281.048 180.786 280.617 180.964L279.76 181.319C279.323 181.5 278.83 181.457 278.423 181.218C277.377 180.604 276.202 180.302 275.03 180.302C273.291 180.302 271.559 180.966 270.263 182.263C268.087 184.439 267.692 187.84 269.226 190.439C269.464 190.84 269.498 191.33 269.319 191.761L268.964 192.618C268.787 193.049 268.415 193.37 267.963 193.486C265.041 194.24 262.915 196.924 262.915 200.001C262.915 203.076 265.041 205.761 267.963 206.514C268.415 206.63 268.786 206.952 268.964 207.382L269.319 208.24C269.498 208.671 269.464 209.16 269.226 209.562C267.692 212.161 268.087 215.562 270.263 217.738C272.607 220.083 276.378 220.359 279.031 218.379L279.902 218.09H296.096L296.968 218.379C299.623 220.358 303.392 220.083 305.737 217.738C307.913 215.562 308.307 212.161 306.774 209.561C306.537 209.16 306.502 208.67 306.68 208.24L307.036 207.382C307.214 206.952 307.585 206.63 308.037 206.514C310.958 205.761 313.085 203.076 313.085 200.001C313.085 196.924 310.958 194.24 308.037 193.486Z" fill="white"/>
    <path fill-rule="evenodd" clip-rule="evenodd" d="M299.979 202.134C299.372 201.058 298.617 200.056 297.719 199.158L297.388 198.827C297.002 198.441 296.375 198.441 295.988 198.827L295.328 199.488C294.941 199.875 294.941 200.502 295.328 200.888L295.658 201.219C297.704 203.265 298.83 205.985 298.83 208.878C298.83 214.792 294.065 219.613 288.172 219.706C282.191 219.8 277.169 214.859 277.169 208.878C277.169 205.985 278.296 203.265 280.342 201.219L280.672 200.888C281.059 200.502 281.059 199.875 280.672 199.488L280.011 198.827C279.624 198.441 278.997 198.441 278.611 198.827L278.28 199.158C277.383 200.056 276.628 201.058 276.02 202.134C274.635 201.178 273.627 199.718 273.252 198.046H276.192C276.739 198.046 277.182 197.604 277.182 197.057V196.589C277.182 195.134 278.361 193.955 279.816 193.955C281.024 193.955 282.04 194.769 282.35 195.878C282.469 196.301 282.86 196.588 283.299 196.588H284.517C284.955 196.588 285.347 196.301 285.465 195.878C285.776 194.769 286.791 193.955 288 193.955C289.208 193.955 290.224 194.769 290.534 195.878C290.652 196.301 291.044 196.588 291.483 196.588H292.7C293.139 196.588 293.531 196.301 293.649 195.878C293.959 194.769 294.975 193.955 296.183 193.955C297.638 193.955 298.817 195.134 298.817 196.589V197.057C298.817 197.604 299.26 198.046 299.808 198.046H302.748C302.372 199.718 301.365 201.178 299.979 202.134Z" fill="white"/>
    <path fill-rule="evenodd" clip-rule="evenodd" d="M292.105 202.654C291.286 202.654 290.62 203.318 290.62 204.139C290.62 204.958 291.286 205.623 292.105 205.623C292.925 205.623 293.59 204.958 293.59 204.139C293.59 203.318 292.925 202.654 292.105 202.654Z" fill="#19194B"/>
    <path fill-rule="evenodd" clip-rule="evenodd" d="M283.922 202.654C283.102 202.654 282.437 203.318 282.437 204.139C282.437 204.958 283.102 205.623 283.922 205.623C284.742 205.623 285.407 204.958 285.407 204.139C285.407 203.318 284.742 202.654 283.922 202.654Z" fill="#19194B"/>
    <path fill-rule="evenodd" clip-rule="evenodd" d="M290.474 217.319C290.474 218.686 289.366 219.793 287.999 219.793C286.633 219.793 285.525 218.686 285.525 217.319H290.474Z" fill="#19194B"/>
    <path fill-rule="evenodd" clip-rule="evenodd" d="M299.979 202.134C299.372 201.058 298.617 200.056 297.719 199.158L297.388 198.827C297.002 198.441 296.375 198.441 295.988 198.827L295.328 199.488C294.941 199.875 294.941 200.502 295.328 200.888L295.658 201.219C297.704 203.265 298.83 205.985 298.83 208.877C298.83 214.792 294.065 219.613 288.172 219.706C282.191 219.8 277.169 214.859 277.169 208.877C277.169 205.985 278.296 203.265 280.342 201.219L280.672 200.888C281.059 200.502 281.059 199.875 280.672 199.488L280.011 198.827C279.624 198.441 278.997 198.441 278.611 198.827L278.28 199.158C277.382 200.056 276.628 201.058 276.02 202.134C274.634 201.177 273.627 199.718 273.252 198.046H276.192C276.738 198.046 277.182 197.604 277.182 197.057V196.589C277.182 195.134 278.361 193.955 279.816 193.955C281.024 193.955 282.04 194.769 282.35 195.878C282.469 196.301 282.86 196.588 283.299 196.588H284.517C284.955 196.588 285.347 196.301 285.465 195.878C285.776 194.769 286.791 193.955 288 193.955C289.208 193.955 290.224 194.769 290.534 195.878C290.652 196.301 291.044 196.588 291.483 196.588H292.7C293.139 196.588 293.531 196.301 293.649 195.878C293.959 194.769 294.975 193.955 296.183 193.955C297.638 193.955 298.817 195.134 298.817 196.589V197.057C298.817 197.604 299.26 198.046 299.807 198.046H302.748C302.372 199.718 301.365 201.177 299.979 202.134ZM304.835 195.131H301.538C300.897 192.776 298.739 191.04 296.183 191.04C294.565 191.04 293.106 191.736 292.091 192.844C291.076 191.736 289.618 191.04 288 191.04C286.382 191.04 284.923 191.736 283.908 192.844C282.893 191.736 281.434 191.04 279.816 191.04C277.26 191.04 275.103 192.776 274.461 195.131H271.165C270.618 195.131 270.175 195.575 270.175 196.121V196.589C270.175 200.036 272.043 203.132 274.858 204.839C274.438 206.212 274.229 207.659 274.257 209.141C274.395 216.622 280.601 222.667 288.085 222.623C295.625 222.577 301.745 216.429 301.745 208.877C301.745 207.486 301.539 206.127 301.143 204.834C301.143 204.835 301.144 204.836 301.144 204.837C303.957 203.13 305.824 200.035 305.824 196.589V196.121C305.824 195.575 305.381 195.131 304.835 195.131Z" fill="#19194B"/>
    <g filter="url(#connect-cabify-filter0_d)">
    <mask id="connect-cabify-path-18-outside-1" maskUnits="userSpaceOnUse" x="113.003" y="77.0031" width="85.636" height="84.3116" fill="black">
    <rect fill="white" x="113.003" y="77.0031" width="85.636" height="84.3116"/>
    <path fill-rule="evenodd" clip-rule="evenodd" d="M130.49 126.943C126.353 113.481 133.913 99.214 147.375 95.0774L156.63 92.2336C160.757 90.9654 165.131 93.2832 166.4 97.4106L167.922 102.364L173.657 100.601C175.769 99.9526 178.007 101.138 178.655 103.25C179.304 105.362 178.119 107.6 176.007 108.249L170.271 110.011L173.209 119.57L178.944 117.807C181.056 117.159 183.294 118.344 183.943 120.456C184.591 122.568 183.406 124.806 181.294 125.455L175.559 127.217L176.787 131.214C178.055 135.342 175.737 139.716 171.61 140.984L162.355 143.828C148.893 147.964 134.627 140.405 130.49 126.943Z"/>
    </mask>
    <path fill-rule="evenodd" clip-rule="evenodd" d="M130.49 126.943C126.353 113.481 133.913 99.214 147.375 95.0774L156.63 92.2336C160.757 90.9654 165.131 93.2832 166.4 97.4106L167.922 102.364L173.657 100.601C175.769 99.9526 178.007 101.138 178.655 103.25C179.304 105.362 178.119 107.6 176.007 108.249L170.271 110.011L173.209 119.57L178.944 117.807C181.056 117.159 183.294 118.344 183.943 120.456C184.591 122.568 183.406 124.806 181.294 125.455L175.559 127.217L176.787 131.214C178.055 135.342 175.737 139.716 171.61 140.984L162.355 143.828C148.893 147.964 134.627 140.405 130.49 126.943Z" fill="white"/>
    <path d="M147.375 95.0774L145.025 87.4303L147.375 95.0774ZM156.63 92.2336L158.98 99.8807L156.63 92.2336ZM167.922 102.364L160.275 104.714C161.572 108.937 166.048 111.309 170.271 110.011L167.922 102.364ZM170.271 110.011L167.922 102.364C163.698 103.662 161.327 108.137 162.624 112.361L170.271 110.011ZM173.209 119.57L165.562 121.92C166.859 126.143 171.335 128.515 175.559 127.217L173.209 119.57ZM175.559 127.217L173.209 119.57C168.985 120.868 166.614 125.343 167.911 129.567L175.559 127.217ZM171.61 140.984L169.26 133.337L171.61 140.984ZM162.355 143.828L164.705 151.475L162.355 143.828ZM145.025 87.4303C127.34 92.8646 117.408 111.607 122.843 129.292L138.137 124.593C135.298 115.354 140.486 105.563 149.725 102.725L145.025 87.4303ZM154.28 84.5865L145.025 87.4303L149.725 102.725L158.98 99.8807L154.28 84.5865ZM174.047 95.0608C171.481 86.71 162.631 82.0205 154.28 84.5865L158.98 99.8807C158.97 99.8838 158.94 99.8891 158.905 99.8855C158.875 99.8824 158.855 99.8747 158.841 99.8676C158.828 99.8606 158.81 99.8481 158.791 99.8252C158.768 99.7979 158.756 99.7702 158.753 99.7604L174.047 95.0608ZM175.569 100.014L174.047 95.0608L158.753 99.7604L160.275 104.714L175.569 100.014ZM171.307 92.9543L165.572 94.7167L170.271 110.011L176.007 108.249L171.307 92.9543ZM186.303 100.9C184.356 94.5653 177.642 91.0077 171.307 92.9543L176.007 108.249C173.895 108.897 171.657 107.712 171.008 105.6L186.303 100.9ZM178.357 115.896C184.692 113.949 188.249 107.235 186.303 100.9L171.008 105.6C170.359 103.488 171.545 101.25 173.657 100.601L178.357 115.896ZM172.621 117.658L178.357 115.896L173.657 100.601L167.922 102.364L172.621 117.658ZM180.856 117.22L177.919 107.661L162.624 112.361L165.562 121.92L180.856 117.22ZM175.559 127.217L181.294 125.455L176.594 110.16L170.859 111.923L175.559 127.217ZM181.294 125.455C179.182 126.103 176.944 124.918 176.295 122.806L191.59 118.106C189.643 111.771 182.929 108.214 176.594 110.16L181.294 125.455ZM176.295 122.806C175.647 120.694 176.832 118.456 178.944 117.807L183.644 133.102C189.979 131.155 193.536 124.441 191.59 118.106L176.295 122.806ZM178.944 117.807L173.209 119.57L177.908 134.864L183.644 133.102L178.944 117.807ZM184.434 128.865L183.206 124.867L167.911 129.567L169.14 133.564L184.434 128.865ZM173.96 148.631C182.31 146.065 187 137.215 184.434 128.865L169.14 133.564C169.137 133.554 169.131 133.524 169.135 133.489C169.138 133.459 169.146 133.439 169.153 133.426C169.16 133.412 169.172 133.394 169.195 133.375C169.223 133.352 169.25 133.34 169.26 133.337L173.96 148.631ZM164.705 151.475L173.96 148.631L169.26 133.337L160.005 136.181L164.705 151.475ZM122.843 129.292C128.277 146.978 147.019 156.909 164.705 151.475L160.005 136.181C150.767 139.02 140.976 133.831 138.137 124.593L122.843 129.292Z" fill="white" mask="url(#connect-cabify-path-18-outside-1)"/>
    </g>
    <rect x="162.186" y="104.126" width="16" height="8" rx="4" transform="rotate(-17.0811 162.186 104.126)" fill="#FAC34B"/>
    <rect x="167.473" y="121.332" width="16" height="8" rx="4" transform="rotate(-17.0811 167.473 121.332)" fill="#FAC34B"/>
    <path d="M130.49 126.943C126.353 113.481 133.913 99.214 147.375 95.0774L156.63 92.2336C160.757 90.9654 165.131 93.2832 166.4 97.4106L176.787 131.214C178.055 135.342 175.737 139.716 171.61 140.984L162.355 143.828C148.893 147.964 134.627 140.405 130.49 126.943Z" fill="#F4F5F7"/>
    <rect x="153.589" y="93.1682" width="2" height="51" transform="rotate(-17.0811 153.589 93.1682)" fill="#DFE1E6"/>
    <g filter="url(#connect-cabify-filter1_d)">
    <path d="M255 125.5C255 139.583 243.583 151 229.5 151L219.818 151C215.5 151 212 147.5 212 143.182L212 107.818C212 103.5 215.5 100 219.818 100L229.5 100C243.583 100 255 111.417 255 125.5Z" fill="white"/>
    <path d="M229.5 155C245.792 155 259 141.792 259 125.5C259 109.208 245.792 96 229.5 96L219.818 96C213.291 96 208 101.291 208 107.818L208 143.182C208 149.709 213.291 155 219.818 155L229.5 155Z" stroke="white" stroke-width="8" stroke-linecap="round" stroke-linejoin="round"/>
    </g>
    <path d="M255 125.5C255 139.583 243.583 151 229.5 151L219.818 151C215.5 151 212 147.5 212 143.182L212 107.818C212 103.5 215.5 100 219.818 100L229.5 100C243.583 100 255 111.417 255 125.5Z" fill="#F4F5F7"/>
    <rect x="221" y="100" width="2" height="51" fill="#DFE1E6"/>
    <defs>
    <filter id="connect-cabify-filter0_d" x="113.356" y="79.8846" width="86.7659" height="85.077" filterUnits="userSpaceOnUse" color-interpolation-filters="sRGB">
    <feFlood flood-opacity="0" result="BackgroundImageFix"/>
    <feColorMatrix in="SourceAlpha" type="matrix" values="0 0 0 0 0 0 0 0 0 0 0 0 0 0 0 0 0 0 127 0"/>
    <feOffset dy="4"/>
    <feGaussianBlur stdDeviation="4"/>
    <feColorMatrix type="matrix" values="0 0 0 0 0 0 0 0 0 0 0 0 0 0 0 0 0 0 0.24 0"/>
    <feBlend mode="normal" in2="BackgroundImageFix" result="effect1_dropShadow"/>
    <feBlend mode="normal" in="SourceGraphic" in2="effect1_dropShadow" result="shape"/>
    </filter>
    <filter id="connect-cabify-filter1_d" x="196" y="88" width="75" height="83" filterUnits="userSpaceOnUse" color-interpolation-filters="sRGB">
    <feFlood flood-opacity="0" result="BackgroundImageFix"/>
    <feColorMatrix in="SourceAlpha" type="matrix" values="0 0 0 0 0 0 0 0 0 0 0 0 0 0 0 0 0 0 127 0"/>
    <feOffset dy="4"/>
    <feGaussianBlur stdDeviation="4"/>
    <feColorMatrix type="matrix" values="0 0 0 0 0 0 0 0 0 0 0 0 0 0 0 0 0 0 0.24 0"/>
    <feBlend mode="normal" in2="BackgroundImageFix" result="effect1_dropShadow"/>
    <feBlend mode="normal" in="SourceGraphic" in2="effect1_dropShadow" result="shape"/>
    </filter>
    </defs>
</svg>
