<svg class="icon"
     viewBox="0 0 27 32"
     fill="none"
     xmlns="http://www.w3.org/2000/svg"
>
<path d="M14.48 27.2C13.3312 27.2 12.4 26.2688 12.4 25.12L12.4 8.48001C12.4 7.33126 13.3312 6.40001 14.48 6.40001L24.88 6.40001C26.0288 6.40001 26.96 7.33126 26.96 8.48001L26.96 25.12C26.96 26.2688 26.0288 27.2 24.88 27.2L14.48 27.2Z" fill="url(#data_phone_paint0_linear_31130_875)"/>
<path d="M22.8 8.48004C23.6616 8.48004 24.36 9.17847 24.36 10.04C24.36 10.9016 23.6616 11.6 22.8 11.6C21.9384 11.6 21.24 10.9016 21.24 10.04C21.24 9.17847 21.9384 8.48004 22.8 8.48004Z" fill="#FAC34B"/>
<path d="M22.8 10.56C23.6616 10.56 24.36 11.2584 24.36 12.12C24.36 12.9816 23.6616 13.68 22.8 13.68C21.9384 13.68 21.24 12.9816 21.24 12.12C21.24 11.2584 21.9384 10.56 22.8 10.56Z" fill="#EB4B68"/>
<path d="M13.4401 26.9218C13.746 27.0987 14.1012 27.2 14.48 27.2L24.88 27.2C25.2588 27.2 25.614 27.0987 25.9199 26.9218C25.9161 26.4818 25.7756 26.0505 25.504 25.6601L25.501 25.6558L25.4978 25.6516C25.2764 25.3616 24.9671 25.1379 24.6447 24.9916C24.7412 24.7443 24.7778 24.4847 24.7778 24.2202C24.7778 24.1166 24.7724 24.013 24.7616 23.9096L24.7604 23.8988L24.7583 23.8881C24.6707 23.4527 24.4863 23.0531 24.1111 22.6935C23.7876 22.3834 23.3224 22.1631 22.8674 22.0738L22.8646 22.0733C22.4739 22.0011 22.093 22.0486 21.7216 22.1841C21.5648 21.8501 21.3228 21.577 21.0259 21.3657L21.0244 21.3646C20.6442 21.0982 20.1827 20.96 19.68 20.96C19.2143 20.96 18.7575 21.0948 18.3445 21.3587L18.3399 21.3616L18.3356 21.3646C18.0325 21.5771 17.7989 21.8741 17.6462 22.1836C17.2868 22.0555 16.9091 22.0372 16.5208 22.0699C15.9892 22.1147 15.6084 22.349 15.2489 22.6935C14.9253 23.0036 14.6954 23.4494 14.6022 23.8854L14.6016 23.8886C14.5802 23.9962 14.5623 24.1178 14.5623 24.2393C14.5623 24.4923 14.6176 24.7404 14.716 24.984C14.3681 25.1343 14.0835 25.366 13.8633 25.6502L13.8622 25.6516C13.5877 26.0114 13.4437 26.4471 13.4401 26.9218Z" fill="#19194B"/>
<path d="M14.3129 27.1934C14.368 27.1978 14.4237 27.2 14.48 27.2L24.88 27.2C24.9384 27.2 24.9962 27.1976 25.0534 27.1929C25.0653 27.1155 25.0714 27.0351 25.0714 26.9519C25.0714 26.6639 24.9778 26.3713 24.7905 26.0975C24.6229 25.8898 24.3568 25.7104 24.0759 25.6207C23.933 25.5688 23.8147 25.4602 23.7556 25.3233C23.7359 25.2666 23.7211 25.2006 23.7211 25.1392C23.7211 25.0495 23.7408 24.9692 23.7851 24.8937C23.8936 24.7191 23.9379 24.5113 23.9379 24.2517C23.9379 24.1856 23.9379 24.1148 23.933 24.0393C23.864 23.7136 23.7309 23.4728 23.5141 23.2651C23.312 23.0668 22.9966 22.9158 22.6812 22.8544C22.4053 22.8025 22.1145 22.8497 21.7942 23.0055C21.6463 23.0763 21.4886 23.0763 21.3457 23.0196C21.2028 22.963 21.0944 22.8497 21.05 22.7033C20.9613 22.4343 20.7938 22.2077 20.5424 22.0236C20.3108 21.8631 20.0151 21.7734 19.6751 21.7734C19.3696 21.7734 19.0689 21.8631 18.7979 22.033C18.5811 22.1982 18.3938 22.4484 18.3002 22.7175C18.2459 22.8544 18.1326 22.9677 17.9897 23.0243C17.8418 23.0716 17.6792 23.0668 17.5412 22.9913C17.3096 22.8638 17.0188 22.8261 16.6246 22.8591C16.3437 22.8827 16.1269 22.996 15.8509 23.2604C15.6439 23.4539 15.4862 23.756 15.4221 24.0582C15.4073 24.1243 15.4024 24.1903 15.4024 24.2612C15.4024 24.4641 15.4616 24.6718 15.5798 24.9032C15.6143 24.974 15.634 25.0542 15.634 25.1297C15.634 25.2006 15.6143 25.2714 15.5897 25.3327C15.5306 25.4696 15.4123 25.5735 15.2595 25.616C14.9786 25.7009 14.7421 25.8614 14.5499 26.1022C14.3823 26.3241 14.2887 26.6073 14.2887 26.933C14.2887 27.0208 14.2968 27.1078 14.3129 27.1934Z" fill="white"/>
<path d="M16.84 17.56C16.5528 17.56 16.32 17.3272 16.32 17.04L16.32 9.24C16.32 8.95281 16.5528 8.72 16.84 8.72C17.1272 8.72 17.36 8.95281 17.36 9.24L17.36 17.04C17.36 17.3272 17.1272 17.56 16.84 17.56Z" fill="#19194B"/>
<path d="M18.92 13.4C18.6328 13.4 18.4 13.1672 18.4 12.88L18.4 10.28C18.4 9.99284 18.6328 9.76003 18.92 9.76003C19.2072 9.76003 19.44 9.99284 19.44 10.28L19.44 12.88C19.44 13.1672 19.2072 13.4 18.92 13.4Z" fill="#19194B"/>
<path d="M0.400002 3.2C0.400002 1.43269 1.83269 0 3.6 0H16.9647C18.732 0 20.1647 1.43269 20.1647 3.2V16L19.0445 29.0732C18.9027 30.7285 17.5176 32 15.8562 32H4.70849C3.04708 32 1.66202 30.7285 1.52018 29.0732L0.400002 16V3.2Z" fill="url(#data_phone_paint1_linear_31130_875)"/>
<path d="M2.28236 3.76468C2.28236 2.72508 3.12511 1.88232 4.16471 1.88232L16.4 1.88232C17.4396 1.88232 18.2824 2.72508 18.2824 3.76468V12.2353C18.2824 13.2749 17.4396 14.1176 16.4 14.1176H4.16471C3.12511 14.1176 2.28236 13.2749 2.28236 12.2353V3.76468Z" fill="white"/>
<path opacity="0.4" d="M2.28236 3.76468C2.28236 2.72508 3.12511 1.88232 4.16471 1.88232L16.4 1.88232C17.4396 1.88232 18.2824 2.72508 18.2824 3.76468V12.2353C18.2824 13.2749 17.4396 14.1176 16.4 14.1176H4.16471C3.12511 14.1176 2.28236 13.2749 2.28236 12.2353V3.76468Z" fill="#99D9F2"/>
<path d="M3.73215 18.005C3.73215 16.9719 4.56967 16.1343 5.60281 16.1343C6.63595 16.1343 7.47347 16.9719 7.47347 18.005C7.47347 19.0381 6.63595 19.8757 5.60281 19.8757C4.56967 19.8757 3.73215 19.0381 3.73215 18.005Z" fill="url(#data_phone_paint2_linear_31130_875)"/>
<path d="M8.64261 18.0051C8.64261 16.972 9.48013 16.1345 10.5133 16.1345C11.5464 16.1345 12.3839 16.972 12.3839 18.0051C12.3839 19.0383 11.5464 19.8758 10.5133 19.8758C9.48013 19.8758 8.64261 19.0383 8.64261 18.0051Z" fill="url(#data_phone_paint3_linear_31130_875)"/>
<path d="M13.5531 18.0052C13.5531 16.9721 14.3906 16.1346 15.4237 16.1346C16.4569 16.1346 17.2944 16.9721 17.2944 18.0052C17.2944 19.0384 16.4569 19.8759 15.4237 19.8759C14.3906 19.8759 13.5531 19.0384 13.5531 18.0052Z" fill="url(#data_phone_paint4_linear_31130_875)"/>
<path d="M3.73209 22.9157C3.73209 21.8826 4.56962 21.045 5.60276 21.045C6.63589 21.045 7.47342 21.8826 7.47342 22.9157C7.47342 23.9488 6.63589 24.7864 5.60276 24.7864C4.56962 24.7864 3.73209 23.9488 3.73209 22.9157Z" fill="url(#data_phone_paint5_linear_31130_875)"/>
<path d="M8.64259 22.9157C8.64259 21.8826 9.48011 21.045 10.5132 21.045C11.5464 21.045 12.3839 21.8826 12.3839 22.9157C12.3839 23.9488 11.5464 24.7864 10.5132 24.7864C9.48011 24.7864 8.64259 23.9488 8.64259 22.9157Z" fill="url(#data_phone_paint6_linear_31130_875)"/>
<path d="M13.5531 22.9157C13.5531 21.8826 14.3906 21.045 15.4238 21.045C16.4569 21.045 17.2944 21.8826 17.2944 22.9157C17.2944 23.9488 16.4569 24.7864 15.4238 24.7864C14.3906 24.7864 13.5531 23.9488 13.5531 22.9157Z" fill="url(#data_phone_paint7_linear_31130_875)"/>
<path d="M3.73212 27.8261C3.73212 26.793 4.56965 25.9554 5.60279 25.9554C6.63592 25.9554 7.47345 26.793 7.47345 27.8261C7.47345 28.8592 6.63592 29.6968 5.60279 29.6968C4.56965 29.6968 3.73212 28.8592 3.73212 27.8261Z" fill="#EB4B68"/>
<path d="M8.64264 27.826C8.64264 26.7929 9.48016 25.9554 10.5133 25.9554C11.5464 25.9554 12.384 26.7929 12.384 27.826C12.384 28.8592 11.5464 29.6967 10.5133 29.6967C9.48016 29.6967 8.64264 28.8592 8.64264 27.826Z" fill="#FAC34B"/>
<path d="M13.5531 27.826C13.5531 26.7929 14.3906 25.9554 15.4238 25.9554C16.4569 25.9554 17.2944 26.7929 17.2944 27.826C17.2944 28.8592 16.4569 29.6967 15.4238 29.6967C14.3906 29.6967 13.5531 28.8592 13.5531 27.826Z" fill="#66DE7D"/>
<defs>
<linearGradient id="data_phone_paint0_linear_31130_875" x1="12.4" y1="16.8" x2="47.76" y2="16.8" gradientUnits="userSpaceOnUse">
<stop stop-color="#00A0DF"/>
<stop offset="1" stop-color="#007CBF"/>
</linearGradient>
<linearGradient id="data_phone_paint1_linear_31130_875" x1="10.2824" y1="0" x2="10.2824" y2="32" gradientUnits="userSpaceOnUse">
<stop stop-color="#42526E"/>
<stop offset="1" stop-color="#344563"/>
</linearGradient>
<linearGradient id="data_phone_paint2_linear_31130_875" x1="5.60281" y1="15.1545" x2="5.60281" y2="20.6239" gradientUnits="userSpaceOnUse">
<stop stop-color="#F4F5F7"/>
<stop offset="1" stop-color="#DFE1E6"/>
</linearGradient>
<linearGradient id="data_phone_paint3_linear_31130_875" x1="10.5133" y1="15.1546" x2="10.5133" y2="20.624" gradientUnits="userSpaceOnUse">
<stop stop-color="#F4F5F7"/>
<stop offset="1" stop-color="#DFE1E6"/>
</linearGradient>
<linearGradient id="data_phone_paint4_linear_31130_875" x1="15.4237" y1="15.1547" x2="15.4237" y2="20.6242" gradientUnits="userSpaceOnUse">
<stop stop-color="#F4F5F7"/>
<stop offset="1" stop-color="#DFE1E6"/>
</linearGradient>
<linearGradient id="data_phone_paint5_linear_31130_875" x1="5.60276" y1="20.0652" x2="5.60276" y2="25.5346" gradientUnits="userSpaceOnUse">
<stop stop-color="#F4F5F7"/>
<stop offset="1" stop-color="#DFE1E6"/>
</linearGradient>
<linearGradient id="data_phone_paint6_linear_31130_875" x1="10.5132" y1="20.0652" x2="10.5132" y2="25.5346" gradientUnits="userSpaceOnUse">
<stop stop-color="#F4F5F7"/>
<stop offset="1" stop-color="#DFE1E6"/>
</linearGradient>
<linearGradient id="data_phone_paint7_linear_31130_875" x1="15.4238" y1="20.0652" x2="15.4238" y2="25.5346" gradientUnits="userSpaceOnUse">
<stop stop-color="#F4F5F7"/>
<stop offset="1" stop-color="#DFE1E6"/>
</linearGradient>
</defs>
</svg>
