<svg class="icon" viewBox="0 0 32 32" fill="none" xmlns="http://www.w3.org/2000/svg">
<path fill-rule="evenodd" clip-rule="evenodd" d="M16 0C7.16371 0 0 7.16371 0 16C0 24.8363 7.16371 32 16 32C24.8363 32 32 24.8363 32 16C32 7.16371 24.8363 0 16 0ZM7.00844 16.8243C6.78964 16.6055 6.66673 16.3087 6.66673 15.9993C6.66673 15.6899 6.78964 15.3931 7.00844 15.1743C7.22723 14.9556 7.52397 14.8326 7.83339 14.8326H14.6389C14.6905 14.8326 14.74 14.8121 14.7764 14.7757C14.8129 14.7392 14.8334 14.6898 14.8334 14.6382V7.83263C14.8334 7.52321 14.9563 7.22647 15.1751 7.00768C15.3939 6.78888 15.6906 6.66597 16.0001 6.66597C16.3095 6.66597 16.6062 6.78888 16.825 7.00768C17.0438 7.22647 17.1667 7.52321 17.1667 7.83263V14.6382C17.1667 14.6898 17.1872 14.7392 17.2237 14.7757C17.2601 14.8121 17.3096 14.8326 17.3612 14.8326H24.1667C24.4761 14.8326 24.7729 14.9556 24.9917 15.1743C25.2105 15.3931 25.3334 15.6899 25.3334 15.9993C25.3334 16.3087 25.2105 16.6055 24.9917 16.8243C24.7729 17.0431 24.4761 17.166 24.1667 17.166H17.3612C17.3096 17.166 17.2601 17.1865 17.2237 17.2229C17.1872 17.2594 17.1667 17.3088 17.1667 17.3604V24.166C17.1667 24.4754 17.0438 24.7721 16.825 24.9909C16.6062 25.2097 16.3095 25.3326 16.0001 25.3326C15.6906 25.3326 15.3939 25.2097 15.1751 24.9909C14.9563 24.7721 14.8334 24.4754 14.8334 24.166V17.3604C14.8334 17.3088 14.8129 17.2594 14.7764 17.2229C14.74 17.1865 14.6905 17.166 14.6389 17.166H7.83339C7.52397 17.166 7.22723 17.0431 7.00844 16.8243Z" fill="url(#deposit-microillustration-paint0_linear_8359_601)"/>
<defs>
<linearGradient id="deposit-microillustration-paint0_linear_8359_601" x1="16" y1="0" x2="16" y2="51.3333" gradientUnits="userSpaceOnUse">
<stop stop-color="#66DE7D"/>
<stop offset="1" stop-color="#38AD5A"/>
</linearGradient>
</defs>
</svg>
