<svg class="icon" viewBox="0 0 32 11" fill="none" xmlns="http://www.w3.org/2000/svg">
  <path d="M12.7533 4.45977C12.7533 3.72265 12.7533 2.98183 12.7533 2.2447C11.9569 2.2447 11.1605 2.2447 10.3642 2.2447C10.3642 2.98183 10.3642 3.72265 10.3642 4.45977C9.85669 9.2344 2.90404 9.2344 2.39657 4.45977C2.39657 3.84859 2.39657 3.23741 2.39657 2.62623C2.39657 2.34472 2.51511 2.22618 2.79662 2.22618C5.30802 2.22618 7.81942 2.22618 10.3308 2.22618C10.3308 1.48165 10.3308 0.740826 10.3308 0C7.01933 0 3.70784 0 0.400046 0C0.118532 0 0 0.118532 0 0.400046C0 1.75205 0 3.10777 0 4.45977C0.303739 7.75645 3.06702 10.2753 6.37851 10.2753C9.6863 10.2753 12.4496 7.75275 12.7533 4.45977Z" fill="#EF7C50"/>
  <path d="M26.6291 2C25.8994 2 25.1734 2 24.4437 2C24.4437 4.18914 24.4437 6.38199 24.4437 8.57113C25.1734 8.57113 25.8994 8.57113 26.6291 8.57113C28.4404 8.56372 29.9036 7.09688 29.9036 5.28556C29.9036 3.47424 28.4404 2.00741 26.6291 2ZM26.618 7.70807C26.1846 7.70807 25.7512 7.70807 25.3178 7.70807C25.3178 6.09307 25.3178 4.47806 25.3178 2.86306C25.7512 2.86306 26.1846 2.86306 26.618 2.86306C27.9478 2.86677 28.9923 3.96689 28.9923 5.28556C28.9923 6.60423 27.9478 7.70436 26.618 7.70807Z" fill="#656062"/>
  <path d="M32 3.78223H31.148V8.57167H32V3.78223Z" fill="#656062"/>
  <path d="M32 1.71875H31.148V2.67442H32V1.71875Z" fill="#656062"/>
  <path d="M22.7434 1.71875H21.8915V2.67442H22.7434V1.71875Z" fill="#656062"/>
  <path d="M22.7434 3.78223H21.8915V8.57167H22.7434V3.78223Z" fill="#656062"/>
  <path d="M17.3723 2C16.6426 2 15.9166 2 15.1869 2C15.1869 4.18914 15.1869 6.38199 15.1869 8.57113C15.9166 8.57113 16.6426 8.57113 17.3723 8.57113C19.1836 8.56372 20.6468 7.09688 20.6468 5.28556C20.6468 3.47424 19.1799 2.00741 17.3723 2ZM17.3575 7.70807C16.9241 7.70807 16.4907 7.70807 16.0574 7.70807C16.0574 6.09307 16.0574 4.47806 16.0574 2.86306C16.4907 2.86306 16.9241 2.86306 17.3575 2.86306C18.6873 2.86677 19.7319 3.96689 19.7319 5.28556C19.7356 6.60423 18.691 7.70436 17.3575 7.70807Z" fill="#656062"/>
</svg>
