<svg class="icon" viewBox="0 0 48 48" fill="none" xmlns="http://www.w3.org/2000/svg">
<rect width="48" height="48" rx="14" fill="#007CBF"/>
<path fill-rule="evenodd" clip-rule="evenodd" d="M31.832 30.7709L33.293 30.5269H33.292C33.6192 30.4725 33.9545 30.5504 34.2243 30.7432C34.4941 30.9361 34.6762 31.2283 34.7305 31.5554C34.7849 31.8826 34.7071 32.2179 34.5142 32.4877C34.3213 32.7574 34.0292 32.9395 33.702 32.9939C33.6852 32.9967 33.6428 33.0039 33.5799 33.0146C32.9974 33.1134 30.654 33.5109 30.496 33.5109C30.2248 33.5104 29.9612 33.4217 29.7447 33.2583C29.5283 33.0949 29.3708 32.8656 29.296 32.6049L27.865 27.6049C27.8311 27.4868 27.7548 27.3852 27.6508 27.3197C27.5468 27.2543 27.4222 27.2294 27.301 27.2499C25.557 27.5429 22.78 28.0139 21.423 28.2799C21.1209 28.3391 20.8099 28.3356 20.5091 28.2698C20.2084 28.204 19.9244 28.0772 19.6746 27.8973C19.4248 27.7173 19.2146 27.488 19.0569 27.2236C18.8993 26.9592 18.7976 26.6652 18.758 26.3599L17.948 18.7099C17.9383 18.6171 17.9028 18.5288 17.8456 18.4551C17.7883 18.3815 17.7116 18.3253 17.624 18.2929C16.9437 18.0417 16.3671 17.5699 15.9861 16.9528C15.6051 16.3357 15.4417 15.6088 15.5219 14.8881C15.602 14.1673 15.9212 13.4941 16.4285 12.9758C16.9357 12.4575 17.6019 12.124 18.3208 12.0284C19.0397 11.9327 19.7699 12.0805 20.395 12.4482C21.0202 12.8158 21.5042 13.3822 21.77 14.0569C22.0358 14.7317 22.0681 15.476 21.8616 16.1712C21.6552 16.8664 21.222 17.4725 20.631 17.8929C20.5587 17.9442 20.5013 18.0139 20.4647 18.0947C20.4282 18.1756 20.4138 18.2647 20.423 18.3529L20.63 20.3049C20.6371 20.3731 20.6581 20.4391 20.6918 20.4988C20.7255 20.5586 20.771 20.6107 20.8257 20.6521C20.8804 20.6934 20.943 20.7231 21.0096 20.7392C21.0762 20.7554 21.1455 20.7577 21.213 20.7459L25.535 19.9979C25.6967 19.9699 25.8623 19.9741 26.0223 20.0101C26.1824 20.0461 26.3338 20.1133 26.4679 20.2078C26.602 20.3024 26.7161 20.4224 26.8038 20.561C26.8915 20.6997 26.9511 20.8543 26.979 21.0159C27.007 21.1776 27.0029 21.3432 26.9668 21.5032C26.9308 21.6633 26.8636 21.8147 26.7691 21.9487C26.6746 22.0828 26.5545 22.197 26.4159 22.2847C26.2773 22.3724 26.1227 22.4319 25.961 22.4599L21.412 23.2469C21.287 23.2685 21.1749 23.3369 21.0984 23.4381C21.0219 23.5393 20.9868 23.6658 21 23.7919L21.153 25.2359C21.1603 25.3044 21.1816 25.3707 21.2157 25.4306C21.2498 25.4905 21.2959 25.5427 21.3511 25.5839C21.4063 25.6251 21.4695 25.6545 21.5366 25.6701C21.6037 25.6858 21.6733 25.6874 21.741 25.6749C24.0862 25.2429 28.1031 24.5803 28.4206 24.528L28.433 24.5259C28.7358 24.4754 29.0466 24.5382 29.306 24.7024C29.5654 24.8666 29.7552 25.1206 29.839 25.4159L31.269 30.4159C31.3029 30.5339 31.3791 30.6352 31.4829 30.7007C31.5867 30.7662 31.711 30.7912 31.832 30.7709ZM24.936 29.335C25.22 29.1643 25.56 29.1129 25.8817 29.1919C26.2025 29.2725 26.4782 29.4768 26.6488 29.7601C26.8193 30.0434 26.8707 30.3828 26.7917 30.7039C26.5282 31.7598 26.0222 32.7397 25.3138 33.5658C24.6054 34.3919 23.7142 35.0414 22.7108 35.4629C21.7075 35.8843 20.6197 36.066 19.5339 35.9935C18.4481 35.9211 17.3941 35.5965 16.4556 35.0454C15.5172 34.4944 14.7202 33.7322 14.1278 32.8193C13.5355 31.9064 13.1641 30.8679 13.0433 29.7864C12.9224 28.7049 13.0554 27.6101 13.4317 26.5889C13.8079 25.5678 14.4171 24.6485 15.2107 23.9039C15.4539 23.6837 15.7738 23.5678 16.1016 23.5812C16.4294 23.5946 16.7388 23.7362 16.9631 23.9755C17.1875 24.2148 17.3089 24.5327 17.3012 24.8607C17.2934 25.1886 17.1572 25.5004 16.9217 25.7289C16.4115 26.2074 16.0199 26.7983 15.7779 27.4547C15.536 28.111 15.4504 28.8147 15.5279 29.5099C15.6054 30.2051 15.844 30.8727 16.2246 31.4596C16.6052 32.0465 17.1173 32.5366 17.7205 32.891C18.3236 33.2453 19.001 33.4542 19.6989 33.5011C20.3969 33.5479 21.0961 33.4314 21.7411 33.1607C22.3862 32.8901 22.9593 32.4728 23.4149 31.942C23.8704 31.4112 24.196 30.7815 24.3657 30.1029C24.447 29.7817 24.652 29.5056 24.936 29.335Z" fill="white"/>
</svg>
