<svg class="icon"
     viewBox="0 0 40 40"
     fill="none"
     xmlns="http://www.w3.org/2000/svg"
>
    <circle cx="20" cy="20" r="20" fill="#CFF6FF"/>
    <circle cx="20" cy="20" r="13" fill="url(#discount-paint0_linear)"/>
    <path d="M23.9628 25.9431C23.5708 25.9433 23.1876 25.8272 22.8616 25.6096C22.5356 25.392 22.2814 25.0825 22.1313 24.7204C21.9812 24.3583 21.9419 23.9598 22.0183 23.5754C22.0947 23.1909 22.2835 22.8378 22.5606 22.5606C22.8378 22.2834 23.191 22.0947 23.5754 22.0183C23.9599 21.9418 24.3584 21.9812 24.7205 22.1313C25.0826 22.2814 25.392 22.5355 25.6096 22.8615C25.8273 23.1875 25.9433 23.5708 25.9431 23.9627C25.9428 24.4879 25.7341 24.9914 25.3628 25.3627C24.9915 25.7341 24.4879 25.9428 23.9628 25.9431ZM15.4814 26.0514C15.2745 26.2321 15.0067 26.3275 14.7322 26.3182C14.4576 26.309 14.1969 26.1958 14.0027 26.0015C13.8084 25.8073 13.6952 25.5466 13.686 25.272C13.6767 24.9975 13.7721 24.7297 13.9528 24.5228L24.5185 13.9571C24.6162 13.8453 24.7357 13.7548 24.8698 13.6911C25.0039 13.6275 25.1496 13.592 25.2979 13.587C25.4463 13.582 25.594 13.6076 25.7321 13.662C25.8701 13.7165 25.9955 13.7988 26.1005 13.9037C26.2054 14.0087 26.2877 14.1341 26.3422 14.2721C26.3966 14.4102 26.4222 14.5579 26.4172 14.7063C26.4122 14.8546 26.3767 15.0003 26.3131 15.1344C26.2494 15.2685 26.1589 15.388 26.0471 15.4857L15.4814 26.0514ZM16.0382 14.0567C16.4301 14.0567 16.8133 14.173 17.1391 14.3908C17.465 14.6085 17.719 14.918 17.8689 15.2802C18.0188 15.6423 18.058 16.0407 17.9815 16.4251C17.9049 16.8095 17.7161 17.1626 17.4389 17.4396C17.1617 17.7167 16.8085 17.9053 16.4241 17.9816C16.0397 18.058 15.6412 18.0186 15.2792 17.8684C14.9172 17.7183 14.6078 17.4642 14.3902 17.1382C14.1726 16.8122 14.0566 16.429 14.0568 16.0371C14.0571 15.5118 14.266 15.0081 14.6375 14.6367C15.0091 14.2654 15.5129 14.0567 16.0382 14.0567Z" fill="white" stroke="white" stroke-width="0.206349"/>
    <defs>
        <linearGradient id="discount-paint0_linear" x1="18.5" y1="33" x2="20" y2="1.5" gradientUnits="userSpaceOnUse">
            <stop stop-color="#00A0DF"/>
            <stop offset="1" stop-color="#66C6EC"/>
        </linearGradient>
    </defs>
</svg>
