<svg class="icon" viewBox="0 0 56 56" fill="none" xmlns="http://www.w3.org/2000/svg">
<g clip-path="url(#documentpending_clip0_32958_225486)">
<path d="M43.4 -2.44784e-07C46.4928 -1.09593e-07 49 2.50721 49 5.6L49 44.8C49 47.8928 46.4928 50.4 43.4 50.4L12.6 50.4C9.50721 50.4 7 47.8928 7 44.8L7 5.6C7 2.5072 9.50721 -1.72628e-06 12.6 -1.59109e-06L43.4 -2.44784e-07Z" fill="#FAFBFC"/>
<path d="M49 5.59218C48.9958 2.50298 46.4902 -1.35076e-07 43.4 0L12.6 1.34631e-06C10.9339 1.41914e-06 9.43768 0.727634 8.41187 1.88246L44.6883 50.2511C47.1577 49.6697 48.9964 47.4538 49 44.8078V5.59218Z" fill="url(#documentpending_paint0_linear_32958_225486)"/>
<path d="M14 28C14 27.2268 14.6268 26.6 15.4 26.6H18.2C18.9732 26.6 19.6 27.2268 19.6 28C19.6 28.7732 18.9732 29.4 18.2 29.4H15.4C14.6268 29.4 14 28.7732 14 28Z" fill="#7A869A"/>
<path d="M21 28C21 27.2268 21.6268 26.6 22.4 26.6H25.2C25.9732 26.6 26.6 27.2268 26.6 28C26.6 28.7732 25.9732 29.4 25.2 29.4H22.4C21.6268 29.4 21 28.7732 21 28Z" fill="#7A869A"/>
<path d="M28 28C28 27.2268 28.6268 26.6 29.4 26.6H32.2C32.9732 26.6 33.6 27.2268 33.6 28C33.6 28.7732 32.9732 29.4 32.2 29.4H29.4C28.6268 29.4 28 28.7732 28 28Z" fill="#7A869A"/>
<path d="M18.3876 4.20001C19.0361 4.20001 19.5618 4.72572 19.5618 5.3742V6.84188H21.9101C22.5586 6.84188 23.0843 7.36758 23.0843 8.01607C23.0843 8.66456 22.5586 9.19026 21.9101 9.19026H18.3999L18.3876 9.19032L18.3753 9.19026H16.9656C16.9344 9.19026 16.9032 9.18902 16.8721 9.18654C16.76 9.17758 16.6472 9.19308 16.5416 9.23196C16.4361 9.27084 16.3402 9.33218 16.2606 9.41174C16.1811 9.4913 16.1197 9.58718 16.0808 9.69276C16.042 9.79833 16.0265 9.91109 16.0354 10.0232C16.0379 10.0543 16.0391 10.0855 16.0391 10.1167C16.0391 10.1149 16.0393 10.1154 16.0401 10.1182C16.0478 10.1446 16.1157 10.3784 16.6963 10.8398C17.2743 11.2991 18.0705 11.7615 18.9742 12.2828L19.0217 12.3102C19.8672 12.7979 20.8105 13.3419 21.5398 13.9215C22.2169 14.4596 23.0786 15.3075 23.0843 16.4717C23.0908 16.9034 23.011 17.332 22.8495 17.7324C22.6867 18.1359 22.4442 18.5025 22.1365 18.8102C21.8288 19.1178 21.4622 19.3603 21.0587 19.5232C20.6589 19.6845 20.2309 19.7643 19.7999 19.758H19.5618V21.2258C19.5618 21.8742 19.0361 22.3999 18.3876 22.3999C17.7391 22.3999 17.2134 21.8742 17.2134 21.2258V19.758H14.865C14.2165 19.758 13.6908 19.2323 13.6908 18.5838C13.6908 17.9353 14.2165 17.4096 14.865 17.4096H19.8095L19.8311 17.4098C19.9505 17.412 20.0692 17.3901 20.18 17.3454C20.2908 17.3007 20.3914 17.2341 20.4759 17.1496C20.5604 17.0651 20.627 16.9645 20.6717 16.8537C20.7164 16.7429 20.7383 16.6242 20.7361 16.5047L20.7359 16.4832C20.7359 16.4849 20.7358 16.4845 20.735 16.4817C20.7273 16.4553 20.6594 16.2215 20.0787 15.76C19.5008 15.3007 18.7046 14.8383 17.8008 14.317L17.7534 14.2897C16.9078 13.802 15.9645 13.2579 15.2352 12.6783C14.5655 12.1461 13.7151 11.3107 13.6913 10.166C13.6626 9.72959 13.7259 9.29187 13.8772 8.88119C14.0335 8.45664 14.2802 8.07109 14.6001 7.75118C14.92 7.43127 15.3055 7.18462 15.7301 7.02827C16.1383 6.87795 16.5731 6.81454 17.0069 6.84188H17.2134V5.3742C17.2134 4.72572 17.7391 4.20001 18.3876 4.20001Z" fill="#19194B"/>
<g clip-path="url(#documentpending_clip1_32958_225486)">
<path d="M55.9999 41.3C55.9999 48.6454 50.0453 54.6 42.6999 54.6C35.3545 54.6 29.3999 48.6454 29.3999 41.3C29.3999 33.9546 35.3545 28 42.6999 28C50.0453 28 55.9999 33.9546 55.9999 41.3Z" fill="#FEF8DB"/>
<path d="M42.6999 32.655C37.9257 32.655 34.0549 36.5258 34.0549 41.3C34.0549 46.0742 37.9257 49.945 42.6999 49.945C47.4741 49.945 51.3449 46.0742 51.3449 41.3C51.3399 36.528 47.472 32.6601 42.6999 32.655ZM46.4461 45.0613C46.1745 45.3488 45.7235 45.3682 45.4281 45.106L41.8556 41.831C41.7058 41.6948 41.62 41.5025 41.6193 41.3V37.3377C41.6193 36.9401 41.9421 36.6173 42.3397 36.6173C42.7374 36.6173 43.0601 36.9401 43.0601 37.3377V40.983L46.3986 44.0434C46.6932 44.3114 46.7148 44.7667 46.4468 45.0613H46.4461Z" fill="url(#documentpending_paint1_linear_32958_225486)"/>
<path d="M45.428 45.106C45.7234 45.3682 46.1743 45.3488 46.4459 45.0613H46.4467C46.7146 44.7667 46.693 44.3114 46.3984 44.0434L43.06 40.983V37.3377C43.06 36.9401 42.7372 36.6173 42.3396 36.6173C41.9419 36.6173 41.6191 36.9401 41.6191 37.3377V41.3C41.6199 41.5025 41.7056 41.6948 41.8554 41.831L45.428 45.106Z" fill="white"/>
</g>
<path d="M26.6001 16.8C26.6001 16.0268 27.2269 15.4 28.0001 15.4H40.6001C41.3733 15.4 42.0001 16.0268 42.0001 16.8C42.0001 17.5732 41.3733 18.2 40.6001 18.2H28.0001C27.2269 18.2 26.6001 17.5732 26.6001 16.8Z" fill="#19194B"/>
<path d="M26.6001 11.2C26.6001 10.4268 27.2269 9.79999 28.0001 9.79999H37.8001C38.5733 9.79999 39.2001 10.4268 39.2001 11.2C39.2001 11.9732 38.5733 12.6 37.8001 12.6H28.0001C27.2269 12.6 26.6001 11.9732 26.6001 11.2Z" fill="#19194B"/>
</g>
<defs>
<linearGradient id="documentpending_paint0_linear_32958_225486" x1="8.45187" y1="24.5" x2="47.6846" y2="32.9678" gradientUnits="userSpaceOnUse">
<stop stop-color="#EBECF0"/>
<stop offset="1" stop-color="#EBECF0" stop-opacity="0"/>
</linearGradient>
<linearGradient id="documentpending_paint1_linear_32958_225486" x1="42.6999" y1="32.655" x2="40.5035" y2="67.911" gradientUnits="userSpaceOnUse">
<stop stop-color="#FAC34B"/>
<stop offset="1" stop-color="#D79F36"/>
</linearGradient>
<clipPath id="documentpending_clip0_32958_225486">
<rect width="56" height="56" fill="white"/>
</clipPath>
<clipPath id="documentpending_clip1_32958_225486">
<rect width="26.6" height="26.6" fill="white" transform="translate(29.3999 28)"/>
</clipPath>
</defs>
</svg>
