<svg class="icon"
     viewBox="0 0 40 40"
     fill="none"
     xmlns="http://www.w3.org/2000/svg"
>
    <rect x="36.6667" width="40" height="33.3333" rx="4.44444" transform="rotate(90 36.6667 0)" fill="#FAFBFC"/>
    <mask id="documentmedic-mask0" mask-type="alpha" maskUnits="userSpaceOnUse" x="3" y="0" width="34" height="40">
        <rect x="3.33334" y="40" width="40" height="33.3333" rx="4.44444" transform="rotate(-90 3.33334 40)" fill="#F4F5F7"/>
    </mask>
    <g mask="url(#documentmedic-mask0)">
        <path d="M36.6667 2.14311e-05L3.33333 2.28882e-05L36.6667 44.4445L36.6667 2.14311e-05Z" fill="url(#documentmedic-paint0_linear)"/>
    </g>
    <rect x="7.77778" y="21.1111" width="4.44444" height="2.22222" rx="1.11111" fill="#7A869A"/>
    <rect x="13.3333" y="21.1111" width="4.44444" height="2.22222" rx="1.11111" fill="#7A869A"/>
    <rect x="18.8889" y="21.1111" width="4.44444" height="2.22222" rx="1.11111" fill="#7A869A"/>
    <path d="M22.2222 13.3333C22.2222 12.7197 22.7197 12.2222 23.3333 12.2222H31.1111C31.7248 12.2222 32.2222 12.7197 32.2222 13.3333C32.2222 13.947 31.7248 14.4445 31.1111 14.4445H23.3333C22.7197 14.4445 22.2222 13.947 22.2222 13.3333Z" fill="#19194B"/>
    <path d="M7.77778 27.7778C7.77778 27.1641 8.27524 26.6667 8.88889 26.6667H25.5556C26.1692 26.6667 26.6667 27.1641 26.6667 27.7778C26.6667 28.3914 26.1692 28.8889 25.5556 28.8889H8.88889C8.27524 28.8889 7.77778 28.3914 7.77778 27.7778Z" fill="#DFE1E6"/>
    <path d="M7.77778 32.2222C7.77778 31.6086 8.27524 31.1111 8.88889 31.1111H18.8889C19.5025 31.1111 20 31.6086 20 32.2222C20 32.8359 19.5025 33.3333 18.8889 33.3333H8.88889C8.27524 33.3333 7.77778 32.8359 7.77778 32.2222Z" fill="#DFE1E6"/>
    <path d="M22.2222 8.88888C22.2222 8.27523 22.7197 7.77777 23.3333 7.77777H28.8889C29.5025 7.77777 30 8.27523 30 8.88888C30 9.50253 29.5025 9.99999 28.8889 9.99999H23.3333C22.7197 9.99999 22.2222 9.50253 22.2222 8.88888Z" fill="#19194B"/>
    <path d="M18.8889 12.3457C18.8889 12.5094 18.8239 12.6664 18.7081 12.7821C18.5923 12.8979 18.4353 12.9629 18.2716 12.9629H15.8025C15.6388 12.9629 15.4817 13.028 15.366 13.1437C15.2502 13.2595 15.1852 13.4165 15.1852 13.5802V16.0494C15.1852 16.2131 15.1202 16.3701 15.0044 16.4859C14.8886 16.6016 14.7316 16.6667 14.5679 16.6667H12.0988C11.9351 16.6667 11.778 16.6016 11.6623 16.4859C11.5465 16.3701 11.4815 16.2131 11.4815 16.0494V13.5802C11.4815 13.4165 11.4164 13.2595 11.3007 13.1437C11.1849 13.028 11.0279 12.9629 10.8642 12.9629H8.39506C8.23135 12.9629 8.07434 12.8979 7.95858 12.7821C7.84281 12.6664 7.77778 12.5094 7.77778 12.3457V9.87653C7.77778 9.71281 7.84281 9.55581 7.95858 9.44004C8.07434 9.32428 8.23135 9.25924 8.39506 9.25924H10.8642C11.0279 9.25924 11.1849 9.19421 11.3007 9.07845C11.4164 8.96268 11.4815 8.80567 11.4815 8.64196V6.17283C11.4815 6.00911 11.5465 5.8521 11.6623 5.73634C11.778 5.62058 11.9351 5.55554 12.0988 5.55554H14.5679C14.7316 5.55554 14.8886 5.62058 15.0044 5.73634C15.1202 5.8521 15.1852 6.00911 15.1852 6.17283V8.64196C15.1852 8.80567 15.2502 8.96268 15.366 9.07845C15.4817 9.19421 15.6388 9.25924 15.8025 9.25924H18.2716C18.4353 9.25924 18.5923 9.32428 18.7081 9.44004C18.8239 9.55581 18.8889 9.71281 18.8889 9.87653V12.3457Z" fill="#EB4B68"/>
    <defs>
        <linearGradient id="documentmedic-paint0_linear" x1="4.4856" y1="19.4445" x2="35.6227" y2="26.165" gradientUnits="userSpaceOnUse">
            <stop stop-color="#EBECF0"/>
            <stop offset="1" stop-color="#EBECF0" stop-opacity="0"/>
        </linearGradient>
    </defs>
</svg>
