<svg class="icon"
     viewBox="0 0 40 40"
     fill="none"
     xmlns="http://www.w3.org/2000/svg"
>
    <g clip-path="url(#documentok-clip0)">
        <rect x="35" width="36" height="30" rx="4" transform="rotate(90 35 0)" fill="#FAFBFC"/>
        <mask id="documentok-mask0" mask-type="alpha" maskUnits="userSpaceOnUse" x="5" y="0" width="30" height="36">
            <rect x="5" y="36" width="36" height="30" rx="4" transform="rotate(-90 5 36)" fill="#F4F5F7"/>
        </mask>
        <g mask="url(#documentok-mask0)">
            <path d="M35 -1.31134e-06L5 0L35 40L35 -1.31134e-06Z" fill="url(#documentok-paint0_linear)"/>
        </g>
        <rect x="10" y="19" width="4" height="2" rx="1" fill="#7A869A"/>
        <rect x="15" y="19" width="4" height="2" rx="1" fill="#7A869A"/>
        <rect x="20" y="19" width="4" height="2" rx="1" fill="#7A869A"/>
        <path fill-rule="evenodd" clip-rule="evenodd" d="M13.134 3C13.5972 3 13.9727 3.3755 13.9727 3.83871V4.88705H15.6501C16.1133 4.88705 16.4888 5.26255 16.4888 5.72576C16.4888 6.18896 16.1133 6.56446 15.6501 6.56446H13.1428L13.134 6.56451L13.1253 6.56446H12.1183C12.096 6.56446 12.0738 6.56358 12.0516 6.5618C11.9715 6.55541 11.8909 6.56648 11.8155 6.59425C11.7401 6.62202 11.6716 6.66584 11.6148 6.72266C11.5579 6.77949 11.5141 6.84798 11.4864 6.92339C11.4586 6.9988 11.4475 7.07934 11.4539 7.15945C11.4557 7.18166 11.4566 7.20393 11.4566 7.2262C11.4566 7.22493 11.4567 7.22527 11.4572 7.22725C11.4627 7.2461 11.5112 7.4131 11.926 7.74271C12.3388 8.0708 12.9075 8.40108 13.5531 8.77344L13.587 8.79299L13.587 8.793C14.1909 9.14134 14.8647 9.52995 15.3856 9.94395C15.8692 10.3283 16.4848 10.9339 16.4888 11.7655C16.4935 12.0738 16.4365 12.38 16.3211 12.666C16.2048 12.9542 16.0316 13.216 15.8118 13.4358C15.592 13.6556 15.3302 13.8288 15.042 13.9451C14.7564 14.0603 14.4507 14.1174 14.1428 14.1128H13.9727V15.1612C13.9727 15.6244 13.5972 16 13.134 16C12.6708 16 12.2953 15.6244 12.2953 15.1612V14.1128H10.6179C10.1547 14.1128 9.77916 13.7373 9.77916 13.2741C9.77916 12.8109 10.1547 12.4354 10.6179 12.4354H14.1497L14.1651 12.4356C14.2504 12.4371 14.3352 12.4215 14.4143 12.3895C14.4935 12.3576 14.5653 12.3101 14.6257 12.2497C14.686 12.1894 14.7336 12.1175 14.7655 12.0383C14.7975 11.9592 14.8131 11.8744 14.8115 11.7891L14.8114 11.7737C14.8114 11.775 14.8113 11.7746 14.8107 11.7726C14.8053 11.7538 14.7567 11.5868 14.342 11.2572C13.9292 10.9291 13.3604 10.5988 12.7149 10.2264L12.681 10.2069C12.0771 9.85855 11.4033 9.46994 10.8823 9.05593C10.404 8.67578 9.79655 8.07908 9.77952 7.2614C9.75908 6.9497 9.80426 6.63704 9.91229 6.3437C10.024 6.04045 10.2002 5.76506 10.4287 5.53655C10.6572 5.30804 10.9326 5.13187 11.2358 5.02019C11.5274 4.91281 11.838 4.86752 12.1478 4.88705H12.2953V3.83871C12.2953 3.3755 12.6708 3 13.134 3Z" fill="#19194B"/>
        <circle cx="30.5" cy="29.5" r="9.5" fill="#E7FDE1"/>
        <path d="M30.5 23.325C29.2787 23.325 28.0848 23.6872 27.0694 24.3657C26.0539 25.0442 25.2624 26.0086 24.795 27.1369C24.3277 28.2653 24.2054 29.5069 24.4437 30.7047C24.6819 31.9025 25.27 33.0028 26.1336 33.8664C26.9972 34.73 28.0975 35.3181 29.2953 35.5564C30.4931 35.7946 31.7347 35.6723 32.8631 35.205C33.9914 34.7376 34.9558 33.9461 35.6343 32.9307C36.3128 31.9152 36.675 30.7213 36.675 29.5C36.6731 27.8629 36.0219 26.2934 34.8643 25.1357C33.7067 23.9781 32.1371 23.3269 30.5 23.325ZM34.0645 27.5446L30.5422 32.3246C30.5006 32.3797 30.4485 32.4261 30.3888 32.4609C30.3291 32.4957 30.2631 32.5182 30.1946 32.5272C30.1261 32.5362 30.0564 32.5315 29.9898 32.5133C29.9231 32.4951 29.8608 32.4639 29.8063 32.4213L27.2911 30.4103C27.2383 30.3681 27.1943 30.3159 27.1617 30.2566C27.1291 30.1974 27.1085 30.1324 27.1011 30.0652C27.086 29.9295 27.1255 29.7934 27.2108 29.6868C27.2961 29.5802 27.4202 29.5119 27.5559 29.4968C27.6916 29.4818 27.8277 29.5212 27.9343 29.6065L30.0317 31.2846L33.236 26.9358C33.2746 26.878 33.3245 26.8285 33.3828 26.7904C33.441 26.7524 33.5063 26.7265 33.5748 26.7144C33.6433 26.7024 33.7136 26.7043 33.7813 26.7201C33.8491 26.7359 33.9129 26.7653 33.9689 26.8065C34.025 26.8477 34.0721 26.8998 34.1075 26.9598C34.1428 27.0197 34.1656 27.0861 34.1746 27.1551C34.1835 27.2241 34.1784 27.2942 34.1594 27.3611C34.1405 27.4281 34.1082 27.4905 34.0645 27.5446Z" fill="url(#documentok-paint1_linear)"/>
        <path d="M30.5422 32.3245L34.0645 27.5446C34.1082 27.4905 34.1405 27.4281 34.1595 27.3611C34.1784 27.2942 34.1835 27.2241 34.1746 27.1551C34.1656 27.0861 34.1428 27.0197 34.1075 26.9597C34.0721 26.8998 34.025 26.8477 33.969 26.8065C33.9129 26.7653 33.8491 26.7359 33.7813 26.7201C33.7136 26.7043 33.6434 26.7023 33.5748 26.7144C33.5063 26.7265 33.441 26.7524 33.3828 26.7904C33.3245 26.8285 33.2746 26.8779 33.236 26.9358L30.0317 31.2846L27.9343 29.6065C27.8277 29.5212 27.6916 29.4818 27.5559 29.4968C27.4202 29.5119 27.2961 29.5802 27.2108 29.6868C27.1255 29.7934 27.086 29.9295 27.1011 30.0652C27.1085 30.1323 27.1292 30.1974 27.1618 30.2566C27.1943 30.3158 27.2383 30.3681 27.2911 30.4103L29.8064 32.4213C29.8608 32.4638 29.9231 32.4951 29.9898 32.5133C30.0565 32.5315 30.1261 32.5362 30.1946 32.5272C30.2631 32.5182 30.3291 32.4956 30.3888 32.4609C30.4485 32.4261 30.5006 32.3797 30.5422 32.3245Z" fill="white"/>
        <rect x="19" y="11" width="11" height="2" rx="1" fill="#19194B"/>
        <rect x="19" y="7" width="9" height="2" rx="1" fill="#19194B"/>
    </g>
    <defs>
        <linearGradient id="documentok-paint0_linear" x1="6.03704" y1="17.5" x2="34.0604" y2="23.5485" gradientUnits="userSpaceOnUse">
            <stop stop-color="#EBECF0"/>
            <stop offset="1" stop-color="#EBECF0" stop-opacity="0"/>
        </linearGradient>
        <linearGradient id="documentok-paint1_linear" x1="30.5" y1="23.325" x2="28.9311" y2="48.5078" gradientUnits="userSpaceOnUse">
            <stop stop-color="#66DE7D"/>
            <stop offset="1" stop-color="#4ABE6B"/>
        </linearGradient>
        <clipPath id="documentok-clip0">
            <rect width="40" height="40" fill="white"/>
        </clipPath>
    </defs>
</svg>
