<svg class="icon"
     viewBox="0 0 40 40"
     fill="none"
     xmlns="http://www.w3.org/2000/svg"
>
    <g clip-path="url(#documentnull-clip0)">
        <rect x="35" width="36" height="30" rx="4" transform="rotate(90 35 0)" fill="#FAFBFC"/>
        <mask id="documentnull-mask0" mask-type="alpha" maskUnits="userSpaceOnUse" x="5" y="0" width="30" height="36">
            <rect x="5" y="36" width="36" height="30" rx="4" transform="rotate(-90 5 36)" fill="#F4F5F7"/>
        </mask>
        <g mask="url(#documentnull-mask0)">
            <path d="M35 -1.31134e-06L5 0L35 40L35 -1.31134e-06Z" fill="url(#documentnull-paint0_linear)"/>
        </g>
        <rect x="10" y="19" width="4" height="2" rx="1" fill="#7A869A"/>
        <rect x="15" y="19" width="4" height="2" rx="1" fill="#7A869A"/>
        <rect x="20" y="19" width="4" height="2" rx="1" fill="#7A869A"/>
        <path fill-rule="evenodd" clip-rule="evenodd" d="M13.134 3C13.5972 3 13.9727 3.3755 13.9727 3.83871V4.88705H15.6501C16.1133 4.88705 16.4888 5.26255 16.4888 5.72576C16.4888 6.18896 16.1133 6.56446 15.6501 6.56446H13.1428L13.134 6.56451L13.1253 6.56446H12.1183C12.096 6.56446 12.0738 6.56358 12.0516 6.5618C11.9715 6.55541 11.8909 6.56648 11.8155 6.59425C11.7401 6.62202 11.6716 6.66584 11.6148 6.72266C11.5579 6.77949 11.5141 6.84798 11.4864 6.92339C11.4586 6.9988 11.4475 7.07934 11.4539 7.15945C11.4557 7.18166 11.4566 7.20393 11.4566 7.2262C11.4566 7.22493 11.4567 7.22527 11.4572 7.22725C11.4627 7.2461 11.5112 7.4131 11.926 7.74271C12.3388 8.0708 12.9075 8.40108 13.5531 8.77344L13.587 8.79299L13.587 8.793C14.1909 9.14134 14.8647 9.52995 15.3856 9.94395C15.8692 10.3283 16.4848 10.9339 16.4888 11.7655C16.4935 12.0738 16.4365 12.38 16.3211 12.666C16.2048 12.9542 16.0316 13.216 15.8118 13.4358C15.592 13.6556 15.3302 13.8288 15.042 13.9451C14.7564 14.0603 14.4507 14.1174 14.1428 14.1128H13.9727V15.1612C13.9727 15.6244 13.5972 16 13.134 16C12.6708 16 12.2953 15.6244 12.2953 15.1612V14.1128H10.6179C10.1547 14.1128 9.77916 13.7373 9.77916 13.2741C9.77916 12.8109 10.1547 12.4354 10.6179 12.4354H14.1497L14.1651 12.4356C14.2504 12.4371 14.3352 12.4215 14.4143 12.3895C14.4935 12.3576 14.5653 12.3101 14.6257 12.2497C14.686 12.1894 14.7336 12.1175 14.7655 12.0383C14.7975 11.9592 14.8131 11.8744 14.8115 11.7891L14.8114 11.7737C14.8114 11.775 14.8113 11.7746 14.8107 11.7726C14.8053 11.7538 14.7567 11.5868 14.342 11.2572C13.9292 10.9291 13.3604 10.5988 12.7149 10.2264L12.681 10.2069C12.0771 9.85855 11.4033 9.46994 10.8823 9.05593C10.404 8.67578 9.79655 8.07908 9.77952 7.2614C9.75908 6.9497 9.80426 6.63704 9.91229 6.3437C10.024 6.04045 10.2002 5.76506 10.4287 5.53655C10.6572 5.30804 10.9326 5.13187 11.2358 5.02019C11.5274 4.91281 11.838 4.86752 12.1478 4.88705H12.2953V3.83871C12.2953 3.3755 12.6708 3 13.134 3Z" fill="#19194B"/>
        <circle cx="30.5" cy="29.5" r="9.5" fill="#FEE2DB"/>
        <path d="M34.868 25.1316C32.4546 22.7211 28.5436 22.7232 26.1322 25.1357C23.7209 27.5482 23.7229 31.4579 26.1363 33.8683C28.5482 36.2772 32.4562 36.2772 34.868 33.8683C37.2773 31.4543 37.2773 27.5456 34.868 25.1316ZM32.9218 31.1881C33.1118 31.3997 33.0943 31.7251 32.8826 31.915C32.6874 32.0901 32.3918 32.0906 32.1961 31.9166L30.5944 30.3154C30.5439 30.2655 30.4625 30.2655 30.4121 30.3154L28.8109 31.9166C28.6074 32.1127 28.2855 32.1127 28.0821 31.9166C27.8807 31.7158 27.8807 31.3899 28.0816 31.1886L28.0821 31.1881L29.6838 29.5875C29.7338 29.5375 29.7343 29.4562 29.6843 29.4062L29.6838 29.4057L28.0821 27.8046C27.8905 27.594 27.906 27.2687 28.1166 27.0771C28.3123 26.899 28.6115 26.8985 28.8083 27.0761L30.4095 28.6772C30.46 28.7277 30.5413 28.7277 30.5918 28.6772L32.1935 27.0761C32.3949 26.8753 32.7209 26.8753 32.9218 27.0766C33.1226 27.2779 33.1226 27.6038 32.9218 27.8046L31.32 29.4057C31.2701 29.4562 31.2701 29.537 31.32 29.5875L32.9218 31.1881Z" fill="url(#documentnull-paint1_linear)"/>
        <path d="M32.8826 31.915C33.0943 31.7251 33.1118 31.3997 32.9218 31.1881L31.32 29.5875C31.2701 29.537 31.2701 29.4562 31.32 29.4057L32.9218 27.8046C33.1226 27.6038 33.1226 27.2779 32.9218 27.0766C32.7209 26.8753 32.3949 26.8753 32.1935 27.0761L30.5918 28.6772C30.5413 28.7277 30.46 28.7277 30.4095 28.6772L28.8083 27.0761C28.6115 26.8985 28.3123 26.899 28.1166 27.0771C27.906 27.2686 27.8905 27.594 28.0821 27.8046L29.6838 29.4057L29.6843 29.4062C29.7343 29.4562 29.7338 29.5375 29.6838 29.5875L28.0821 31.1881L28.0816 31.1886C27.8807 31.3899 27.8807 31.7158 28.0821 31.9166C28.2855 32.1127 28.6074 32.1127 28.8109 31.9166L30.4121 30.3154C30.4625 30.2655 30.5439 30.2655 30.5944 30.3154L32.1961 31.9166C32.3918 32.0906 32.6874 32.0901 32.8826 31.915Z" fill="white"/>
        <rect x="19" y="11" width="11" height="2" rx="1" fill="#19194B"/>
        <rect x="19" y="7" width="9" height="2" rx="1" fill="#19194B"/>
    </g>
    <defs>
        <linearGradient id="documentnull-paint0_linear" x1="6.03704" y1="17.5" x2="34.0604" y2="23.5485" gradientUnits="userSpaceOnUse">
            <stop stop-color="#EBECF0"/>
            <stop offset="1" stop-color="#EBECF0" stop-opacity="0"/>
        </linearGradient>
        <linearGradient id="documentnull-paint1_linear" x1="30.5" y1="23.325" x2="28.9311" y2="48.5078" gradientUnits="userSpaceOnUse">
            <stop stop-color="#EB4B68"/>
            <stop offset="1" stop-color="#CA365F"/>
        </linearGradient>
        <clipPath id="documentnull-clip0">
            <rect width="40" height="40" fill="white"/>
        </clipPath>
    </defs>
</svg>
