<svg class="icon" viewBox="0 0 72 72" fill="none" xmlns="http://www.w3.org/2000/svg">
<g clip-path="url(#document_ok_shadow_clip0_36400_266272)">
<rect width="72" height="72" fill="white"/>
<ellipse cx="31.5" cy="67.8247" rx="23.5" ry="3.79032" fill="#EBECF0"/>
<path d="M40.4546 1.99959C43.774 1.11017 47.1859 3.08002 48.0753 6.39937L59.3483 48.4708C60.2377 51.7901 58.2678 55.202 54.9485 56.0914L21.8924 64.9488C18.573 65.8382 15.1612 63.8684 14.2717 60.549L2.99874 18.4776C2.10932 15.1582 4.07917 11.7464 7.39851 10.857L40.4546 1.99959Z" fill="#DFE1E6"/>
<path d="M40.066 0.550859C43.3853 -0.338557 46.7972 1.63129 47.6866 4.95063L58.9596 47.0221C59.849 50.3414 57.8792 53.7533 54.5598 54.6427L21.5037 63.5001C18.1844 64.3895 14.7725 62.4196 13.8831 59.1003L2.61007 17.0289C1.72065 13.7095 3.6905 10.2976 7.00984 9.40822L40.066 0.550859Z" fill="#FAFBFC"/>
<path d="M47.6851 4.94216C46.7922 1.62788 43.3832 -0.337896 40.0667 0.55077L7.01056 9.40814C5.22237 9.88728 3.82583 11.0985 3.05698 12.6329L55.9004 54.1123C58.3835 52.7782 59.7196 49.8712 58.9626 47.0304L47.6851 4.94216Z" fill="url(#document_ok_shadow_paint0_linear_36400_266272)"/>
<rect x="8.49512" y="19.156" width="14" height="2.8" rx="1.4" transform="rotate(-15 8.49512 19.156)" fill="#19194B"/>
<rect x="9.94434" y="24.5652" width="26.6" height="2.8" rx="1.4" transform="rotate(-15 9.94434 24.5652)" fill="#19194B"/>
<rect x="17.1914" y="51.6111" width="36.4" height="1.4" rx="0.7" transform="rotate(-15 17.1914 51.6111)" fill="#DFE1E6"/>
<rect x="17.916" y="54.3157" width="29.4" height="1.4" rx="0.7" transform="rotate(-15 17.916 54.3157)" fill="#DFE1E6"/>
<rect x="18.6406" y="57.0203" width="15.4" height="1.4" rx="0.7" transform="rotate(-15 18.6406 57.0203)" fill="#DFE1E6"/>
<rect x="12.1182" y="32.679" width="7" height="2.8" rx="1.4" transform="rotate(-15 12.1182 32.679)" fill="#6B778C"/>
<rect x="21.584" y="30.1426" width="7" height="2.8" rx="1.4" transform="rotate(-15 21.584 30.1426)" fill="#6B778C"/>
<rect x="31.0508" y="27.6062" width="7" height="2.8" rx="1.4" transform="rotate(-15 31.0508 27.6062)" fill="#6B778C"/>
<path d="M60.5346 36.8922C58.2963 36.2925 55.9305 36.3699 53.7363 37.1147C51.542 37.8596 49.6179 39.2384 48.2073 41.0767C46.7967 42.9151 45.9629 45.1305 45.8113 47.4427C45.6598 49.755 46.1973 52.0603 47.3559 54.067C48.5145 56.0738 50.2422 57.6919 52.3204 58.7168C54.3986 59.7417 56.7341 60.1273 59.0315 59.8248C61.3289 59.5223 63.485 58.5454 65.2272 57.0176C66.9693 55.4897 68.2193 53.4796 68.8191 51.2413C69.6195 48.2401 69.1968 45.0438 67.6437 42.3538C66.0907 39.6638 63.534 37.6996 60.5346 36.8922Z" fill="#38AD5A"/>
<path d="M60.7338 35.7933C58.4956 35.1936 56.1297 35.271 53.9355 36.0159C51.7412 36.7607 49.8172 38.1395 48.4065 39.9779C46.9959 41.8162 46.1621 44.0316 46.0105 46.3439C45.859 48.6561 46.3965 50.9614 47.5551 52.9681C48.7137 54.9749 50.4414 56.593 52.5196 57.6179C54.5979 58.6428 56.9333 59.0284 59.2307 58.7259C61.5281 58.4235 63.6842 57.4465 65.4264 55.9187C67.1686 54.3909 68.4186 52.3807 69.0183 50.1425C69.8187 47.1412 69.396 43.945 67.843 41.2549C66.2899 38.5649 63.7332 36.6007 60.7338 35.7933ZM65.1943 45.2769L56.3918 52.3073C56.2885 52.388 56.1701 52.4474 56.0436 52.4818C55.9172 52.5163 55.7851 52.5252 55.6551 52.5081C55.5252 52.4909 55.3999 52.4481 55.2867 52.382C55.1735 52.316 55.0745 52.228 54.9957 52.1233L51.3735 47.2026C51.2975 47.0993 51.2426 46.982 51.212 46.8575C51.1813 46.733 51.1755 46.6036 51.1948 46.4768C51.2338 46.2208 51.373 45.9907 51.5817 45.8372C51.7903 45.6838 52.0514 45.6195 52.3075 45.6585C52.5635 45.6976 52.7936 45.8367 52.947 46.0454L55.9669 50.1507L63.9749 43.7544C64.0741 43.6673 64.1898 43.6011 64.3152 43.56C64.4406 43.5188 64.5731 43.5035 64.7046 43.515C64.8361 43.5265 64.9638 43.5645 65.0802 43.6268C65.1966 43.6891 65.2991 43.7743 65.3816 43.8773C65.4641 43.9803 65.5249 44.099 65.5603 44.2262C65.5956 44.3533 65.6048 44.4863 65.5873 44.6172C65.5698 44.748 65.5259 44.8739 65.4584 44.9873C65.3909 45.1007 65.301 45.1992 65.1943 45.2769Z" fill="url(#document_ok_shadow_paint1_linear_36400_266272)"/>
<path d="M56.3913 52.3073L65.1939 45.2769C65.3006 45.1992 65.3904 45.1006 65.458 44.9872C65.5255 44.8739 65.5694 44.7479 65.5869 44.6171C65.6044 44.4863 65.5952 44.3533 65.5598 44.2261C65.5245 44.099 65.4637 43.9803 65.3812 43.8773C65.2987 43.7743 65.1962 43.6891 65.0798 43.6268C64.9634 43.5645 64.8356 43.5265 64.7041 43.515C64.5727 43.5035 64.4402 43.5188 64.3148 43.5599C64.1894 43.6011 64.0736 43.6672 63.9745 43.7544L55.9665 50.1507L52.9466 46.0454C52.7932 45.8367 52.5631 45.6976 52.307 45.6585C52.051 45.6195 51.7899 45.6838 51.5812 45.8372C51.3726 45.9907 51.2334 46.2207 51.1944 46.4768C51.175 46.6036 51.1809 46.7329 51.2115 46.8575C51.2422 46.982 51.2971 47.0993 51.3731 47.2026L54.9953 52.1233C55.0741 52.228 55.173 52.3159 55.2863 52.382C55.3995 52.4481 55.5247 52.4909 55.6547 52.508C55.7847 52.5252 55.9167 52.5162 56.0432 52.4818C56.1697 52.4473 56.288 52.388 56.3913 52.3073Z" fill="white"/>
</g>
<defs>
<linearGradient id="document_ok_shadow_paint0_linear_36400_266272" x1="9.60418" y1="36.8957" x2="54.1459" y2="34.7014" gradientUnits="userSpaceOnUse">
<stop stop-color="#EBECF0"/>
<stop offset="1" stop-color="#EBECF0" stop-opacity="0"/>
</linearGradient>
<linearGradient id="document_ok_shadow_paint1_linear_36400_266272" x1="60.7338" y1="35.7933" x2="45.4922" y2="81.175" gradientUnits="userSpaceOnUse">
<stop stop-color="#66DE7D"/>
<stop offset="1" stop-color="#4ABE6B"/>
</linearGradient>
<clipPath id="document_ok_shadow_clip0_36400_266272">
<rect width="72" height="72" fill="white"/>
</clipPath>
</defs>
</svg>
