<svg class="icon"
     viewBox="0 0 24 24"
     fill="none"
     xmlns="http://www.w3.org/2000/svg"
>
  <path fill-rule="evenodd"
        clip-rule="evenodd"
        d="M2.08696 12C2.08696 6.52518 6.52518 2.08696 12 2.08696C17.4748 2.08696 21.913 6.52518 21.913 12C21.913 17.4748 17.4748 21.913 12 21.913C6.52518 21.913 2.08696 17.4748 2.08696 12ZM12 0C5.37258 0 0 5.37258 0 12C0 18.6274 5.37258 24 12 24C18.6274 24 24 18.6274 24 12C24 5.37258 18.6274 0 12 0ZM15.1304 6.26086H13.0435V4.95652C13.0435 4.38022 12.5763 3.91304 12 3.91304C11.4237 3.91304 10.9565 4.38022 10.9565 4.95652V6.26086H10.7731C10.3876 6.23657 10.0011 6.29291 9.63838 6.42651C9.26109 6.56545 8.91846 6.78464 8.63417 7.06894C8.34987 7.35324 8.13068 7.69586 7.99173 8.07315C7.85732 8.43812 7.8011 8.82711 7.82654 9.21491C7.84772 10.2322 8.60347 10.9746 9.1986 11.4476C9.84674 11.9627 10.685 12.4462 11.4364 12.8796L11.4786 12.9039C12.2817 13.3671 12.9893 13.7781 13.503 14.1862C14.019 14.5963 14.0793 14.8041 14.0861 14.8276C14.0868 14.83 14.087 14.8305 14.087 14.8289L14.0871 14.848C14.0891 14.9542 14.0696 15.0597 14.0299 15.1581C13.9902 15.2566 13.931 15.346 13.8559 15.4211C13.7808 15.4962 13.6914 15.5554 13.5929 15.5951C13.4945 15.6348 13.389 15.6543 13.2828 15.6523L13.2637 15.6522H8.86957C8.29327 15.6522 7.82609 16.1193 7.82609 16.6956C7.82609 17.2719 8.29327 17.7391 8.86957 17.7391H10.9565V19.0435C10.9565 19.6198 11.4237 20.087 12 20.087C12.5763 20.087 13.0435 19.6198 13.0435 19.0435V17.7391H13.2551C13.6382 17.7447 14.0185 17.6738 14.3738 17.5305C14.7324 17.3858 15.0582 17.1703 15.3316 16.8968C15.605 16.6234 15.8205 16.2976 15.9652 15.939C16.1088 15.5832 16.1797 15.2023 16.1739 14.8187C16.1689 13.7841 15.4031 13.0306 14.8014 12.5524C14.1533 12.0373 13.315 11.5538 12.5636 11.1204L12.5636 11.1204L12.5214 11.0961C11.7183 10.6328 11.0107 10.2219 10.497 9.81374C9.98104 9.40366 9.9207 9.19588 9.91388 9.17243C9.91317 9.16996 9.91304 9.16953 9.91304 9.17112C9.91304 9.14341 9.91194 9.1157 9.90973 9.08808C9.90178 8.98841 9.91555 8.8882 9.9501 8.79437C9.98466 8.70055 10.0392 8.61535 10.1099 8.54464C10.1806 8.47394 10.2658 8.41943 10.3596 8.38488C10.4534 8.35032 10.5536 8.33655 10.6533 8.34451C10.6809 8.34671 10.7086 8.34782 10.7363 8.34782H11.996L12 8.34783L12.004 8.34782H15.1304C15.7067 8.34782 16.1739 7.88064 16.1739 7.30434C16.1739 6.72804 15.7067 6.26086 15.1304 6.26086Z"
        fill="#00A0DF"
  />
</svg>
