<svg class="icon"
     viewBox="0 0 40 40"
     fill="none"
     xmlns="http://www.w3.org/2000/svg"
>
    <rect y="6" width="40" height="27" rx="4" fill="#F4F5F7"/>
    <mask id="drivinglicense-mask0" mask-type="alpha" maskUnits="userSpaceOnUse" x="0" y="6" width="40" height="27">
        <rect y="6" width="40" height="27" rx="4" fill="#F4F5F7"/>
    </mask>
    <g mask="url(#drivinglicense-mask0)">
        <path d="M40 33V6L0 33H40Z" fill="url(#drivinglicense-paint0_linear)"/>
    </g>
    <path d="M18 19C18 18.4477 18.407 18 18.9091 18H27.0909C27.593 18 28 18.4477 28 19C28 19.5523 27.593 20 27.0909 20H18.9091C18.407 20 18 19.5523 18 19Z" fill="#19194B"/>
    <path d="M29 18.9999C29 18.4477 29.3838 17.9999 29.8571 17.9999H34.1429C34.6162 17.9999 35 18.4477 35 18.9999C35 19.5522 34.6162 19.9999 34.1429 19.9999H29.8571C29.3838 19.9999 29 19.5522 29 18.9999Z" fill="#19194B"/>
    <path d="M18 15C18 14.4477 18.398 14 18.8889 14H25.1111C25.602 14 26 14.4477 26 15C26 15.5523 25.602 16 25.1111 16H18.8889C18.398 16 18 15.5523 18 15Z" fill="#19194B"/>
    <path d="M18 24.0001C18 23.4478 18.4477 23.0001 19 23.0001H21C21.5523 23.0001 22 23.4478 22 24.0001C22 24.5524 21.5523 25.0001 21 25.0001H19C18.4477 25.0001 18 24.5524 18 24.0001Z" fill="#00A0DF"/>
    <path d="M23 24.0001C23 23.4478 23.4477 23.0001 24 23.0001H26C26.5523 23.0001 27 23.4478 27 24.0001C27 24.5524 26.5523 25.0001 26 25.0001H24C23.4477 25.0001 23 24.5524 23 24.0001Z" fill="#00A0DF"/>
    <path d="M28 24.0001C28 23.4478 28.4477 23.0001 29 23.0001H31C31.5523 23.0001 32 23.4478 32 24.0001C32 24.5524 31.5523 25.0001 31 25.0001H29C28.4477 25.0001 28 24.5524 28 24.0001Z" fill="#00A0DF"/>
    <path fill-rule="evenodd" clip-rule="evenodd" d="M8.08466 13.0604C7.26929 13.1769 6.47526 13.4757 5.77636 13.9071C2.14907 16.1458 2.04724 21.6652 5.64058 23.9931C6.22636 24.3726 6.85929 24.6547 7.54153 24.8114C8.19886 24.9623 8.90391 25.0532 9.57827 24.966C10.5351 24.8424 11.487 24.5541 12.2939 24.0158C12.995 23.5482 13.6211 22.9223 14.0795 22.2165C14.4529 21.6416 14.6991 20.9934 14.8363 20.3255C15.0037 19.5107 15.0665 18.7173 14.9104 17.8942C14.3145 14.7506 11.2579 12.6072 8.08466 13.0604ZM8.38482 14.2862C7.05795 14.5194 5.84064 15.2292 5.08256 16.3485C4.85472 16.6849 4.27187 17.5673 4.80209 17.8898C5.10825 18.076 5.68286 17.9752 6.00862 17.8914C6.5024 17.7644 6.99407 17.6182 7.43434 17.3555C7.93083 17.0592 8.38247 16.803 9.00001 16.8C9.64728 16.7969 10.1949 17.0402 10.72 17.3555C11.3861 17.7554 12.4058 18.1713 13.2021 17.9401C13.5302 17.8449 13.5725 17.5143 13.4909 17.2265C13.3451 16.7124 12.964 16.2055 12.6108 15.8143C11.5992 14.6938 9.90226 14.0195 8.38482 14.2862ZM4.78763 19.4993C4.07783 19.7279 4.51819 20.6298 4.73629 21.0761C5.19476 22.0143 5.90043 22.7447 6.82332 23.244C7.12761 23.4086 7.6226 23.6649 7.97618 23.534C8.63072 23.2915 8.42128 21.9084 8.24293 21.4138C7.78004 20.1303 6.19801 19.0451 4.78763 19.4993ZM12.1188 19.4866C10.9675 19.6928 9.97402 20.5928 9.74916 21.7515C9.64074 22.3101 9.52003 23.6727 10.4216 23.5605C11.6091 23.4127 12.7612 22.2802 13.2876 21.2787L13.3285 21.2014C13.5306 20.821 13.8627 20.1956 13.6976 19.8003C13.4987 19.324 12.5267 19.4136 12.1188 19.4866ZM9 20.2C9.66275 20.2 10.2 19.6628 10.2 19C10.2 18.3373 9.66275 17.8 9 17.8C8.33726 17.8 7.8 18.3373 7.8 19C7.8 19.6628 8.33726 20.2 9 20.2Z" fill="#00A0DF"/>
    <defs>
        <linearGradient id="drivinglicense-paint0_linear" x1="22.5" y1="5" x2="16" y2="34" gradientUnits="userSpaceOnUse">
            <stop stop-color="#EBECF0"/>
            <stop offset="1" stop-color="#EBECF0" stop-opacity="0"/>
        </linearGradient>
    </defs>
</svg>
