<svg class="icon" viewBox="0 0 360 264" fill="none" xmlns="http://www.w3.org/2000/svg">
<rect width="360" height="264" fill="white"/>
<path d="M160.499 61C121.086 61 89 93.0866 89 132.5C89 171.913 121.086 204 160.499 204C199.912 204 231.999 171.913 231.999 132.5C232.251 93.0866 200.165 61 160.499 61Z" fill="url(#paint0_linear)"/>
<path d="M164.074 61C126.632 61 96.1499 93.0866 96.1499 132.5C96.1499 171.913 126.632 204 164.074 204C201.517 204 231.999 171.913 231.999 132.5C232.239 93.0866 201.757 61 164.074 61Z" fill="url(#paint1_linear)"/>
<g opacity="0.5" filter="url(#filter0_i)">
<path d="M164.075 71.7251C132.249 71.7251 106.339 98.9987 106.339 132.5C106.339 166.002 132.249 193.275 164.075 193.275C195.901 193.275 221.81 166.002 221.81 132.5C222.014 98.9987 196.105 71.7251 164.075 71.7251Z" fill="#E99B26"/>
</g>
<path d="M158.713 96.75C156.365 96.75 154.047 97.4942 151.926 98.9825C150.031 100.441 148.645 102.674 147.938 104.876C146.327 103.924 144.545 103.567 142.622 103.567C142.056 103.567 141.491 103.596 140.925 103.656C138.578 104.132 136.486 105.114 134.591 107.109C132.979 108.806 131.791 111.306 131.311 113.777C130.858 116.247 131.311 118.688 132.47 121.159C130.123 121.903 128.257 123.391 126.871 125.356C125.485 127.35 124.75 129.791 124.75 132.5C124.75 134.971 125.457 137.412 126.871 139.644C128.257 141.638 130.377 143.097 132.47 143.841C131.311 146.074 131.084 148.515 131.311 151.223C131.537 153.932 132.696 155.897 134.591 157.891C136.203 159.588 138.578 160.838 140.925 161.344C141.519 161.463 142.141 161.552 142.735 161.552C144.46 161.552 146.185 161.046 147.938 160.124C148.645 162.594 150.059 164.559 151.926 166.017C153.82 167.476 156.139 168.25 158.713 168.25C161.06 168.25 163.378 167.506 165.499 166.017C167.394 164.559 168.78 162.326 169.487 160.124C171.098 161.076 172.88 161.433 174.803 161.433C175.369 161.433 175.934 161.404 176.5 161.344C178.847 160.868 180.939 159.886 182.834 157.891C184.446 156.194 185.634 153.694 186.114 151.223C186.567 148.753 186.114 146.312 184.955 143.841C187.302 143.097 189.395 141.609 190.78 139.406C191.94 137.173 192.675 134.733 192.675 132.5C192.675 130.029 191.968 127.588 190.554 125.594C189.168 123.6 187.048 122.141 184.955 121.159C186.114 118.926 186.341 116.485 186.114 113.777C185.662 111.306 184.729 109.103 182.834 107.109C181.222 105.412 178.847 104.162 176.5 103.656C175.906 103.537 175.284 103.448 174.69 103.448C172.965 103.448 171.24 103.954 169.487 104.876C168.78 102.406 167.366 100.441 165.499 98.9825C163.633 97.4942 161.314 96.75 158.713 96.75Z" fill="url(#paint2_linear)" fill-opacity="0.88"/>
<g filter="url(#filter1_d)">
<path d="M164.075 96.75C161.728 96.75 159.409 97.4942 157.288 98.9825C155.394 100.441 154.008 102.674 153.301 104.876C151.689 103.924 149.908 103.567 147.985 103.567C147.419 103.567 146.853 103.596 146.288 103.656C143.941 104.132 141.848 105.114 139.953 107.109C138.342 108.806 137.154 111.306 136.673 113.777C136.221 116.247 136.673 118.688 137.833 121.159C135.485 121.903 133.619 123.391 132.233 125.356C130.848 127.35 130.113 129.791 130.113 132.5C130.113 134.971 130.82 137.412 132.233 139.644C133.619 141.638 135.74 143.097 137.833 143.841C136.673 146.074 136.447 148.515 136.673 151.223C136.899 153.932 138.059 155.897 139.953 157.891C141.565 159.588 143.941 160.838 146.288 161.344C146.882 161.463 147.504 161.552 148.098 161.552C149.823 161.552 151.548 161.046 153.301 160.124C154.008 162.594 155.422 164.559 157.288 166.017C159.183 167.476 161.502 168.25 164.075 168.25C166.422 168.25 168.741 167.506 170.862 166.017C172.757 164.559 174.142 162.326 174.849 160.124C176.461 161.076 178.243 161.433 180.166 161.433C180.731 161.433 181.297 161.404 181.862 161.344C184.209 160.868 186.302 159.886 188.197 157.891C189.809 156.194 190.996 153.694 191.477 151.223C191.929 148.753 191.477 146.312 190.318 143.841C192.665 143.097 194.757 141.609 196.143 139.406C197.302 137.173 198.038 134.733 198.038 132.5C198.038 130.029 197.331 127.588 195.917 125.594C194.531 123.6 192.41 122.141 190.318 121.159C191.477 118.926 191.703 116.485 191.477 113.777C191.024 111.306 190.091 109.103 188.197 107.109C186.585 105.412 184.209 104.162 181.862 103.656C181.268 103.537 180.646 103.448 180.052 103.448C178.327 103.448 176.602 103.954 174.849 104.876C174.142 102.406 172.728 100.441 170.862 98.9825C168.996 97.4942 166.677 96.75 164.075 96.75Z" fill="#FBD677"/>
<path d="M164.075 96.75C161.728 96.75 159.409 97.4942 157.288 98.9825C155.394 100.441 154.008 102.674 153.301 104.876C151.689 103.924 149.908 103.567 147.985 103.567C147.419 103.567 146.853 103.596 146.288 103.656C143.941 104.132 141.848 105.114 139.953 107.109C138.342 108.806 137.154 111.306 136.673 113.777C136.221 116.247 136.673 118.688 137.833 121.159C135.485 121.903 133.619 123.391 132.233 125.356C130.848 127.35 130.113 129.791 130.113 132.5C130.113 134.971 130.82 137.412 132.233 139.644C133.619 141.638 135.74 143.097 137.833 143.841C136.673 146.074 136.447 148.515 136.673 151.223C136.899 153.932 138.059 155.897 139.953 157.891C141.565 159.588 143.941 160.838 146.288 161.344C146.882 161.463 147.504 161.552 148.098 161.552C149.823 161.552 151.548 161.046 153.301 160.124C154.008 162.594 155.422 164.559 157.288 166.017C159.183 167.476 161.502 168.25 164.075 168.25C166.422 168.25 168.741 167.506 170.862 166.017C172.757 164.559 174.142 162.326 174.849 160.124C176.461 161.076 178.243 161.433 180.166 161.433C180.731 161.433 181.297 161.404 181.862 161.344C184.209 160.868 186.302 159.886 188.197 157.891C189.809 156.194 190.996 153.694 191.477 151.223C191.929 148.753 191.477 146.312 190.318 143.841C192.665 143.097 194.757 141.609 196.143 139.406C197.302 137.173 198.038 134.733 198.038 132.5C198.038 130.029 197.331 127.588 195.917 125.594C194.531 123.6 192.41 122.141 190.318 121.159C191.477 118.926 191.703 116.485 191.477 113.777C191.024 111.306 190.091 109.103 188.197 107.109C186.585 105.412 184.209 104.162 181.862 103.656C181.268 103.537 180.646 103.448 180.052 103.448C178.327 103.448 176.602 103.954 174.849 104.876C174.142 102.406 172.728 100.441 170.862 98.9825C168.996 97.4942 166.677 96.75 164.075 96.75Z" stroke="#C87C1B"/>
</g>
<g clip-path="url(#clip0)">
<path d="M225 113C199.919 113 179.5 133.419 179.5 158.5C179.5 183.581 199.919 204 225 204C250.081 204 270.499 183.581 270.499 158.5C270.66 133.419 250.241 113 225 113Z" fill="url(#paint3_linear)"/>
<path d="M227.275 113C203.448 113 184.05 133.419 184.05 158.5C184.05 183.581 203.448 204 227.275 204C251.102 204 270.499 183.581 270.499 158.5C270.652 133.419 251.254 113 227.275 113Z" fill="url(#paint4_linear)"/>
<g opacity="0.5" filter="url(#filter2_i)">
<path d="M227.275 119.825C207.022 119.825 190.534 137.181 190.534 158.5C190.534 179.819 207.022 197.175 227.275 197.175C247.528 197.175 264.016 179.819 264.016 158.5C264.146 137.181 247.658 119.825 227.275 119.825Z" fill="#E99B26"/>
</g>
<path d="M223.863 135.75C222.369 135.75 220.893 136.224 219.544 137.171C218.338 138.099 217.456 139.52 217.006 140.921C215.981 140.315 214.847 140.088 213.623 140.088C213.263 140.088 212.903 140.107 212.543 140.145C211.05 140.448 209.718 141.073 208.512 142.342C207.487 143.422 206.731 145.013 206.425 146.585C206.137 148.157 206.425 149.711 207.163 151.283C205.669 151.756 204.481 152.704 203.6 153.954C202.718 155.223 202.25 156.776 202.25 158.5C202.25 160.072 202.7 161.626 203.6 163.046C204.481 164.315 205.831 165.244 207.163 165.717C206.425 167.138 206.281 168.691 206.425 170.415C206.569 172.139 207.307 173.389 208.512 174.658C209.538 175.738 211.05 176.533 212.543 176.855C212.921 176.931 213.317 176.988 213.695 176.988C214.793 176.988 215.891 176.666 217.006 176.079C217.456 177.651 218.356 178.901 219.544 179.829C220.749 180.757 222.225 181.25 223.863 181.25C225.356 181.25 226.832 180.776 228.181 179.829C229.387 178.901 230.269 177.48 230.719 176.079C231.744 176.685 232.878 176.912 234.102 176.912C234.462 176.912 234.822 176.893 235.182 176.855C236.675 176.552 238.007 175.927 239.213 174.658C240.238 173.578 240.994 171.987 241.3 170.415C241.588 168.843 241.3 167.289 240.562 165.717C242.056 165.244 243.388 164.296 244.269 162.895C245.007 161.474 245.475 159.921 245.475 158.5C245.475 156.928 245.025 155.374 244.125 154.105C243.244 152.836 241.894 151.908 240.562 151.283C241.3 149.862 241.444 148.309 241.3 146.585C241.012 145.013 240.418 143.611 239.213 142.342C238.187 141.262 236.675 140.467 235.182 140.145C234.804 140.069 234.408 140.012 234.03 140.012C232.932 140.012 231.834 140.334 230.719 140.921C230.269 139.349 229.369 138.099 228.181 137.171C226.994 136.224 225.518 135.75 223.863 135.75Z" fill="url(#paint5_linear)" fill-opacity="0.88"/>
<g filter="url(#filter3_d)">
<path d="M227.275 135.75C225.781 135.75 224.306 136.224 222.956 137.171C221.751 138.099 220.869 139.52 220.419 140.921C219.393 140.315 218.259 140.088 217.036 140.088C216.676 140.088 216.316 140.107 215.956 140.145C214.462 140.448 213.131 141.073 211.925 142.342C210.899 143.422 210.143 145.013 209.838 146.585C209.55 148.157 209.838 149.711 210.575 151.283C209.082 151.756 207.894 152.704 207.012 153.954C206.13 155.223 205.663 156.776 205.663 158.5C205.663 160.072 206.112 161.626 207.012 163.046C207.894 164.315 209.244 165.244 210.575 165.717C209.838 167.138 209.694 168.691 209.838 170.415C209.981 172.139 210.719 173.389 211.925 174.658C212.951 175.738 214.462 176.533 215.956 176.855C216.334 176.931 216.73 176.988 217.108 176.988C218.205 176.988 219.303 176.666 220.419 176.079C220.869 177.651 221.768 178.901 222.956 179.829C224.162 180.757 225.638 181.25 227.275 181.25C228.769 181.25 230.244 180.776 231.594 179.829C232.8 178.901 233.681 177.48 234.131 176.079C235.157 176.685 236.291 176.912 237.514 176.912C237.874 176.912 238.234 176.893 238.594 176.855C240.088 176.552 241.42 175.927 242.625 174.658C243.651 173.578 244.407 171.987 244.713 170.415C245.001 168.843 244.713 167.289 243.975 165.717C245.468 165.244 246.8 164.296 247.682 162.895C248.42 161.474 248.888 159.921 248.888 158.5C248.888 156.928 248.438 155.374 247.538 154.105C246.656 152.836 245.307 151.908 243.975 151.283C244.713 149.862 244.857 148.309 244.713 146.585C244.425 145.013 243.831 143.611 242.625 142.342C241.599 141.262 240.088 140.467 238.594 140.145C238.216 140.069 237.82 140.012 237.443 140.012C236.345 140.012 235.247 140.334 234.131 140.921C233.681 139.349 232.782 138.099 231.594 137.171C230.406 136.224 228.931 135.75 227.275 135.75Z" fill="#FBD677"/>
<path d="M227.275 135.75C225.781 135.75 224.306 136.224 222.956 137.171C221.751 138.099 220.869 139.52 220.419 140.921C219.393 140.315 218.259 140.088 217.036 140.088C216.676 140.088 216.316 140.107 215.956 140.145C214.462 140.448 213.131 141.073 211.925 142.342C210.899 143.422 210.143 145.013 209.838 146.585C209.55 148.157 209.838 149.711 210.575 151.283C209.082 151.756 207.894 152.704 207.012 153.954C206.13 155.223 205.663 156.776 205.663 158.5C205.663 160.072 206.112 161.626 207.012 163.046C207.894 164.315 209.244 165.244 210.575 165.717C209.838 167.138 209.694 168.691 209.838 170.415C209.981 172.139 210.719 173.389 211.925 174.658C212.951 175.738 214.462 176.533 215.956 176.855C216.334 176.931 216.73 176.988 217.108 176.988C218.205 176.988 219.303 176.666 220.419 176.079C220.869 177.651 221.768 178.901 222.956 179.829C224.162 180.757 225.638 181.25 227.275 181.25C228.769 181.25 230.244 180.776 231.594 179.829C232.8 178.901 233.681 177.48 234.131 176.079C235.157 176.685 236.291 176.912 237.514 176.912C237.874 176.912 238.234 176.893 238.594 176.855C240.088 176.552 241.42 175.927 242.625 174.658C243.651 173.578 244.407 171.987 244.713 170.415C245.001 168.843 244.713 167.289 243.975 165.717C245.468 165.244 246.8 164.296 247.682 162.895C248.42 161.474 248.888 159.921 248.888 158.5C248.888 156.928 248.438 155.374 247.538 154.105C246.656 152.836 245.307 151.908 243.975 151.283C244.713 149.862 244.857 148.309 244.713 146.585C244.425 145.013 243.831 143.611 242.625 142.342C241.599 141.262 240.088 140.467 238.594 140.145C238.216 140.069 237.82 140.012 237.443 140.012C236.345 140.012 235.247 140.334 234.131 140.921C233.681 139.349 232.782 138.099 231.594 137.171C230.406 136.224 228.931 135.75 227.275 135.75Z" stroke="#C87C1B"/>
</g>
</g>
<path d="M276.5 75L279.558 84.4418L289 87.5L279.558 90.5582L276.5 100L273.442 90.5582L264 87.5L273.442 84.4418L276.5 75Z" fill="url(#paint6_radial)"/>
<path d="M248.5 37L252.537 49.4631L265 53.5L252.537 57.5369L248.5 70L244.463 57.5369L232 53.5L244.463 49.4631L248.5 37Z" fill="url(#paint7_radial)"/>
<path d="M53 123L55.4466 130.553L63 133L55.4466 135.447L53 143L50.5534 135.447L43 133L50.5534 130.553L53 123Z" fill="url(#paint8_radial)"/>
<path d="M90.5 52L92.3349 57.6651L98 59.5L92.3349 61.3349L90.5 67L88.6651 61.3349L83 59.5L88.6651 57.6651L90.5 52Z" fill="url(#paint9_radial)"/>
<path d="M86.5 193L90.0476 203.952L101 207.5L90.0476 211.048L86.5 222L82.9524 211.048L72 207.5L82.9524 203.952L86.5 193Z" fill="url(#paint10_radial)"/>
<path d="M289 186L293.404 199.596L307 204L293.404 208.404L289 222L284.596 208.404L271 204L284.596 199.596L289 186Z" fill="url(#paint11_radial)"/>
<defs>
<filter id="filter0_i" x="106.339" y="71.7251" width="115.473" height="121.55" filterUnits="userSpaceOnUse" color-interpolation-filters="sRGB">
<feFlood flood-opacity="0" result="BackgroundImageFix"/>
<feBlend mode="normal" in="SourceGraphic" in2="BackgroundImageFix" result="shape"/>
<feColorMatrix in="SourceAlpha" type="matrix" values="0 0 0 0 0 0 0 0 0 0 0 0 0 0 0 0 0 0 127 0" result="hardAlpha"/>
<feOffset/>
<feGaussianBlur stdDeviation="3.79844"/>
<feComposite in2="hardAlpha" operator="arithmetic" k2="-1" k3="1"/>
<feColorMatrix type="matrix" values="0 0 0 0 0.654902 0 0 0 0 0.376471 0 0 0 0 0.0745098 0 0 0 1 0"/>
<feBlend mode="normal" in2="shape" result="effect1_innerShadow"/>
</filter>
<filter id="filter1_d" x="122.963" y="89.6" width="82.225" height="85.8" filterUnits="userSpaceOnUse" color-interpolation-filters="sRGB">
<feFlood flood-opacity="0" result="BackgroundImageFix"/>
<feColorMatrix in="SourceAlpha" type="matrix" values="0 0 0 0 0 0 0 0 0 0 0 0 0 0 0 0 0 0 127 0"/>
<feOffset/>
<feGaussianBlur stdDeviation="3.575"/>
<feColorMatrix type="matrix" values="0 0 0 0 0.654902 0 0 0 0 0.376471 0 0 0 0 0.0745098 0 0 0 0.24 0"/>
<feBlend mode="normal" in2="BackgroundImageFix" result="effect1_dropShadow"/>
<feBlend mode="normal" in="SourceGraphic" in2="effect1_dropShadow" result="shape"/>
</filter>
<filter id="filter2_i" x="190.534" y="119.825" width="73.4825" height="77.35" filterUnits="userSpaceOnUse" color-interpolation-filters="sRGB">
<feFlood flood-opacity="0" result="BackgroundImageFix"/>
<feBlend mode="normal" in="SourceGraphic" in2="BackgroundImageFix" result="shape"/>
<feColorMatrix in="SourceAlpha" type="matrix" values="0 0 0 0 0 0 0 0 0 0 0 0 0 0 0 0 0 0 127 0" result="hardAlpha"/>
<feOffset/>
<feGaussianBlur stdDeviation="2.41719"/>
<feComposite in2="hardAlpha" operator="arithmetic" k2="-1" k3="1"/>
<feColorMatrix type="matrix" values="0 0 0 0 0.654902 0 0 0 0 0.376471 0 0 0 0 0.0745098 0 0 0 1 0"/>
<feBlend mode="normal" in2="shape" result="effect1_innerShadow"/>
</filter>
<filter id="filter3_d" x="201.113" y="131.2" width="52.325" height="54.6" filterUnits="userSpaceOnUse" color-interpolation-filters="sRGB">
<feFlood flood-opacity="0" result="BackgroundImageFix"/>
<feColorMatrix in="SourceAlpha" type="matrix" values="0 0 0 0 0 0 0 0 0 0 0 0 0 0 0 0 0 0 127 0"/>
<feOffset/>
<feGaussianBlur stdDeviation="2.275"/>
<feColorMatrix type="matrix" values="0 0 0 0 0.654902 0 0 0 0 0.376471 0 0 0 0 0.0745098 0 0 0 0.24 0"/>
<feBlend mode="normal" in2="BackgroundImageFix" result="effect1_dropShadow"/>
<feBlend mode="normal" in="SourceGraphic" in2="effect1_dropShadow" result="shape"/>
</filter>
<linearGradient id="paint0_linear" x1="13.925" y1="132.5" x2="226.637" y2="132.5" gradientUnits="userSpaceOnUse">
<stop stop-color="#A76013"/>
<stop offset="0.509476" stop-color="#E99B26"/>
</linearGradient>
<linearGradient id="paint1_linear" x1="4.9874" y1="132.5" x2="232" y2="132.5" gradientUnits="userSpaceOnUse">
<stop stop-color="#E99B26"/>
<stop offset="1" stop-color="#FBD677"/>
</linearGradient>
<linearGradient id="paint2_linear" x1="196.25" y1="132.5" x2="115.813" y2="132.5" gradientUnits="userSpaceOnUse">
<stop stop-color="#A76013"/>
<stop offset="1" stop-color="#E99B26"/>
</linearGradient>
<linearGradient id="paint3_linear" x1="131.725" y1="158.5" x2="267.087" y2="158.5" gradientUnits="userSpaceOnUse">
<stop stop-color="#A76013"/>
<stop offset="0.509476" stop-color="#E99B26"/>
</linearGradient>
<linearGradient id="paint4_linear" x1="126.038" y1="158.5" x2="270.5" y2="158.5" gradientUnits="userSpaceOnUse">
<stop stop-color="#E99B26"/>
<stop offset="1" stop-color="#FBD677"/>
</linearGradient>
<linearGradient id="paint5_linear" x1="247.75" y1="158.5" x2="196.563" y2="158.5" gradientUnits="userSpaceOnUse">
<stop stop-color="#A76013"/>
<stop offset="1" stop-color="#E99B26"/>
</linearGradient>
<radialGradient id="paint6_radial" cx="0" cy="0" r="1" gradientUnits="userSpaceOnUse" gradientTransform="translate(276.879 87.8788) rotate(-92.0454) scale(21.2256 19.1561)">
<stop stop-color="#FBD677"/>
<stop offset="1" stop-color="#E99B26"/>
</radialGradient>
<radialGradient id="paint7_radial" cx="0" cy="0" r="1" gradientUnits="userSpaceOnUse" gradientTransform="translate(249 54) rotate(-92.0454) scale(28.0179 25.2861)">
<stop stop-color="#FBD677"/>
<stop offset="1" stop-color="#E99B26"/>
</radialGradient>
<radialGradient id="paint8_radial" cx="0" cy="0" r="1" gradientUnits="userSpaceOnUse" gradientTransform="translate(53.303 133.303) rotate(-92.0454) scale(16.9805 15.3249)">
<stop stop-color="#FBD677"/>
<stop offset="1" stop-color="#E99B26"/>
</radialGradient>
<radialGradient id="paint9_radial" cx="0" cy="0" r="1" gradientUnits="userSpaceOnUse" gradientTransform="translate(90.7273 59.7273) rotate(-92.0454) scale(12.7354 11.4937)">
<stop stop-color="#FBD677"/>
<stop offset="1" stop-color="#E99B26"/>
</radialGradient>
<radialGradient id="paint10_radial" cx="0" cy="0" r="1" gradientUnits="userSpaceOnUse" gradientTransform="translate(86.9394 207.939) rotate(-92.0454) scale(24.6217 22.2211)">
<stop stop-color="#FBD677"/>
<stop offset="1" stop-color="#E99B26"/>
</radialGradient>
<radialGradient id="paint11_radial" cx="0" cy="0" r="1" gradientUnits="userSpaceOnUse" gradientTransform="translate(289.545 204.545) rotate(-92.0454) scale(30.5649 27.5848)">
<stop stop-color="#FBD677"/>
<stop offset="1" stop-color="#E99B26"/>
</radialGradient>
<clipPath id="clip0">
<rect width="91" height="91" fill="white" transform="translate(179.5 113)"/>
</clipPath>
</defs>
</svg>
