<svg class="icon" viewBox="0 0 32 32" fill="none" xmlns="http://www.w3.org/2000/svg">
<path d="M32 16C32 24.8366 24.8366 32 16 32C7.16344 32 0 24.8366 0 16C0 7.16344 7.16344 0 16 0C24.8366 0 32 7.16344 32 16Z" fill="url(#earth-paint0_linear_31629_2231)"/>
<path d="M24.0656 2.1788C26.4095 3.54956 26.9685 6.52465 26.0744 9.08851C25.8904 9.56512 25.5864 9.98193 25.1941 10.2956C24.8019 10.6092 24.3356 10.8082 23.8439 10.8719H19.9097C19.7996 10.8861 19.6945 10.9275 19.6031 10.9926C19.5117 11.0576 19.4368 11.1445 19.3845 11.2457C19.3322 11.347 19.3041 11.4598 19.3026 11.5747C19.3012 11.6895 19.3263 11.803 19.3759 11.9057L20.6028 15.1796C20.6602 15.2989 20.7486 15.3994 20.8581 15.4696C20.9675 15.5399 21.0937 15.5772 21.2224 15.5773H22.3717C22.4897 15.5774 22.6057 15.6088 22.7087 15.6683C22.8118 15.7279 22.8984 15.8137 22.9605 15.9177C23.0226 16.0217 23.058 16.1403 23.0633 16.2624C23.0687 16.3845 23.0439 16.5061 22.9913 16.6155L19.1431 24.7885C18.9299 25.3706 18.5421 25.8666 18.0368 26.2036C17.5314 26.5405 16.935 26.7008 16.3352 26.6608C15.7354 26.6208 15.1638 26.3826 14.7043 25.9813C14.2448 25.58 13.9217 25.0366 13.7824 24.431L12.4961 18.8286C12.4379 18.5754 12.3719 18.2984 12.1531 18.1584C12.0436 18.0884 11.9175 18.0514 11.7889 18.0513H11.172C9.97715 18.0513 8.83119 17.5597 7.98627 16.6845C7.14136 15.8094 6.66669 14.6224 6.66669 13.3847C6.66669 12.147 7.14136 10.96 7.98627 10.0849C8.83119 9.20971 9.97715 8.71805 11.172 8.71805H16.8557C17.0395 8.71805 17.2158 8.64241 17.3458 8.50777C17.4758 8.37313 17.5488 8.19052 17.5488 8.0001V6.35457C17.5488 5.78254 17.3839 5.22354 17.0752 4.74924C16.7664 4.27494 16.328 3.90694 15.816 3.69243L15.4223 3.52874C15.3007 3.47898 15.1951 3.39457 15.1178 3.28528C15.0404 3.17598 14.9946 3.04626 14.9854 2.9111C14.9763 2.77594 15.0043 2.64086 15.0661 2.52147C15.128 2.40209 15.2212 2.30327 15.335 2.23643L18.8104 0.384242C18.9312 0.319876 19.0699 0.293749 19.204 0.321009C20.9437 0.674617 22.5809 1.31051 24.0656 2.1788Z" fill="url(#earth-paint1_linear_31629_2231)"/>
<defs>
<linearGradient id="earth-paint0_linear_31629_2231" x1="10.4" y1="1.02378e-07" x2="16.2399" y2="34.2225" gradientUnits="userSpaceOnUse">
<stop stop-color="#33B3E5"/>
<stop offset="1" stop-color="#007CBF"/>
</linearGradient>
<linearGradient id="earth-paint1_linear_31629_2231" x1="16.5723" y1="0.310303" x2="17.9388" y2="39.5808" gradientUnits="userSpaceOnUse">
<stop stop-color="#66DE7D"/>
<stop offset="1" stop-color="#38AD5A"/>
</linearGradient>
</defs>
</svg>
