<svg class="icon"
     viewBox="0 0 24 24"
     fill="none"
     xmlns="http://www.w3.org/2000/svg"
>
  <path fill-rule="evenodd"
        clip-rule="evenodd"
        d="M7.00098 9.5C9.62433 9.5 11.751 7.37335 11.751 4.75C11.751 2.12665 9.62433 0 7.00098 0C4.37762 0 2.25098 2.12665 2.25098 4.75C2.25098 7.37335 4.37762 9.5 7.00098 9.5ZM13.8446 15.328C13.9185 15.255 13.9679 15.1608 13.9858 15.0585C14.0037 14.9561 13.9893 14.8508 13.9446 14.757C13.3319 13.4883 12.3758 12.4169 11.1847 11.6644C9.99366 10.9119 8.61544 10.5085 7.20661 10.5C5.59343 10.5072 4.02508 11.0316 2.73187 11.9959C1.43866 12.9603 0.488743 14.3139 0.0216125 15.858C-0.00121019 15.9326 -0.00604051 16.0115 0.00751696 16.0884C0.0210744 16.1652 0.0526342 16.2377 0.0996125 16.3C0.146186 16.3621 0.206578 16.4125 0.276006 16.4472C0.345433 16.4819 0.42199 16.5 0.499612 16.5H12.4646C12.5303 16.5001 12.5954 16.4873 12.6561 16.4622C12.7169 16.4372 12.7721 16.4004 12.8186 16.354L13.8446 15.328ZM15.0841 22.4832C15.1069 22.5673 15.1074 22.6558 15.0855 22.74C15.0636 22.8243 15.02 22.9014 14.9591 22.9636C14.8983 23.0259 14.8222 23.0712 14.7385 23.095L11.6385 23.981C11.5527 24.0056 11.4618 24.0067 11.3754 23.9843C11.289 23.9619 11.2102 23.9167 11.1471 23.8536C11.0841 23.7904 11.0391 23.7115 11.0168 23.6251C10.9945 23.5386 10.9958 23.4478 11.0205 23.362L11.9055 20.262C11.9294 20.1782 11.9747 20.102 12.0371 20.0412C12.0995 19.9803 12.1767 19.9368 12.2611 19.9149C12.3455 19.8931 12.4342 19.8937 12.5182 19.9167C12.6023 19.9397 12.6789 19.9843 12.7405 20.046L14.9555 22.261C15.017 22.3226 15.0613 22.3992 15.0841 22.4832ZM21.7716 16.936C21.8654 16.8422 21.918 16.7151 21.918 16.5825C21.918 16.4499 21.8654 16.3227 21.7716 16.229L18.7716 13.229C18.6779 13.1352 18.5507 13.0826 18.4181 13.0826C18.2855 13.0826 18.1584 13.1352 18.0646 13.229L13.0536 18.239C12.9599 18.3327 12.9072 18.4599 12.9072 18.5925C12.9072 18.7251 12.9599 18.8522 13.0536 18.946L16.0536 21.946C16.1474 22.0397 16.2745 22.0924 16.4071 22.0924C16.5397 22.0924 16.6669 22.0397 16.7606 21.946L21.7716 16.936ZM19.333 12.167C19.3333 12.0345 19.3862 11.9075 19.48 11.814C19.9719 11.3107 20.6433 11.0232 21.347 11.0145C22.0507 11.0059 22.729 11.2769 23.233 11.768C23.7239 12.2599 23.9996 12.9265 23.9996 13.6215C23.9996 14.3164 23.7239 14.983 23.233 15.475C23.1326 15.5761 22.9983 15.6367 22.856 15.645C22.7193 15.6533 22.5845 15.6093 22.479 15.522L19.479 12.522C19.4325 12.4753 19.3956 12.42 19.3706 12.359C19.3455 12.2981 19.3328 12.2328 19.333 12.167Z"
        fill="#00A0DF"
  />
</svg>
