<svg class="icon"
     width="24"
     height="24"
     viewBox="0 0 24 24"
     fill="none"
     xmlns="http://www.w3.org/2000/svg"
>
  <path fill-rule="evenodd"
        clip-rule="evenodd"
        d="M20.369 1.67353L22.3265 3.63199C22.7572 4.06408 22.9991 4.64931 22.9991 5.25942C22.9991 5.86954 22.7572 6.45477 22.3265 6.88686L21.0209 8.19526C20.9344 8.28169 20.8172 8.33024 20.6949 8.33024C20.5727 8.33024 20.4554 8.28169 20.369 8.19526L15.8048 3.63199C15.7184 3.54553 15.6698 3.42829 15.6698 3.30604C15.6698 3.18379 15.7184 3.06655 15.8048 2.98009L17.1123 1.67353C17.5444 1.24223 18.1301 1 18.7406 1C19.3512 1 19.9368 1.24223 20.369 1.67353ZM14.8274 4.61123C14.7847 4.56811 14.7338 4.53386 14.6778 4.51044C14.6218 4.48702 14.5617 4.4749 14.501 4.47476C14.4403 4.47477 14.3803 4.48675 14.3243 4.51001C14.2683 4.53327 14.2174 4.56735 14.1746 4.6103L4.10386 14.6838C4.01743 14.7703 3.96887 14.8875 3.96887 15.0097C3.96887 15.132 4.01743 15.2492 4.10386 15.3357L8.6662 19.898C8.75266 19.9845 8.8699 20.033 8.99215 20.033C9.1144 20.033 9.23164 19.9845 9.3181 19.898L19.3842 9.83192C19.4704 9.74551 19.5187 9.62846 19.5187 9.50644C19.5187 9.38441 19.4704 9.26737 19.3842 9.18095L14.8274 4.61123ZM3.17577 16.4265C3.11779 16.3687 3.04545 16.3274 2.96621 16.3068C2.88697 16.2862 2.80367 16.2871 2.72489 16.3094C2.64598 16.3315 2.5744 16.3743 2.51751 16.4333C2.46062 16.4923 2.42049 16.5654 2.40124 16.645L1.01262 22.4328C0.994298 22.5095 0.995949 22.5896 1.01742 22.6655C1.03889 22.7413 1.07946 22.8104 1.13526 22.8662C1.19141 22.9213 1.26057 22.9613 1.33633 22.9826C1.41208 23.0039 1.49198 23.0057 1.56862 22.9879L7.35178 21.6048C7.43152 21.5857 7.50474 21.5457 7.56387 21.4889C7.623 21.4321 7.66591 21.3605 7.68818 21.2816C7.71045 21.2027 7.71126 21.1193 7.69054 21.0399C7.66982 20.9606 7.62832 20.8882 7.57031 20.8303L3.17577 16.4265Z"
        fill="#00A0DF"
  />
</svg>
