<svg class="icon"
     width="24"
     height="24"
     viewBox="0 0 24 24"
     fill="none"
     xmlns="http://www.w3.org/2000/svg"
>
  <path d="M5.77137 5.01756C6.44194 4.39481 7.31297 4.03358 8.22776 4H21.9649C23.0893 4 24 4.91072 24 6.03513V17.2283C24 18.3527 23.0893 19.2635 21.9649 19.2635H8.22776C7.31297 19.2299 6.44194 18.8686 5.77137 18.2459L0.596037 13.0706C-0.198679 12.2758 -0.198679 10.9876 0.596037 10.1929L5.77137 5.01756ZM7.2102 16.8071C7.49207 17.0594 7.85025 17.208 8.22776 17.2283H21.7105C21.8509 17.2283 21.9649 17.1144 21.9649 16.9739V6.28952C21.9649 6.14909 21.8509 6.03513 21.7105 6.03513H8.22776C7.85025 6.05548 7.49105 6.20404 7.2102 6.4564L2.03487 11.6317L7.2102 16.8071ZM12.4161 8.69707C12.9126 8.2005 13.7185 8.2005 14.2151 8.69707L15.1706 9.65257C15.2703 9.75229 15.4311 9.75229 15.5308 9.65257L16.4863 8.69707C16.9829 8.2005 17.7888 8.2005 18.2854 8.69707C18.7819 9.19364 18.7819 9.99955 18.2854 10.4961L17.3289 11.4516C17.2301 11.5513 17.2301 11.7121 17.3289 11.8118L18.2854 12.7673C18.7819 13.2639 18.7819 14.0698 18.2854 14.5664C17.7888 15.063 16.9829 15.063 16.4863 14.5664L15.5308 13.6099C15.4311 13.5101 15.2703 13.5101 15.1706 13.6099L14.2151 14.5664C13.7185 15.063 12.9126 15.063 12.4161 14.5664C11.9195 14.0698 11.9195 13.2639 12.4161 12.7673L13.3726 11.8118C13.4713 11.7121 13.4713 11.5513 13.3726 11.4516L12.4161 10.4961C11.9195 9.99955 11.9195 9.19364 12.4161 8.69707Z"
        fill="#00A0DF"
  />
</svg>
