<svg class="icon" viewBox="0 0 360 264" fill="none" xmlns="http://www.w3.org/2000/svg">
  <path fill-rule="evenodd" clip-rule="evenodd"
    d="M110.398 204.064C109.662 205.442 110.183 207.157 111.561 207.893L113.918 209.152C115.296 209.888 117.009 209.368 117.747 207.99L129.758 185.506L122.409 181.58L110.398 204.064Z"
    fill="#19194B" />
  <path fill-rule="evenodd" clip-rule="evenodd"
    d="M163.23 203.387L151.219 225.87C150.484 227.25 151.004 228.963 152.382 229.699L154.739 230.958C156.117 231.695 157.832 231.174 158.568 229.796L170.579 207.312L163.23 203.387Z"
    fill="#19194B" />
  <path fill-rule="evenodd" clip-rule="evenodd"
    d="M212.561 192.227C211.266 191.914 209.897 192.225 208.869 193.068L206.817 194.751C205.79 195.598 205.218 196.877 205.275 198.209C205.639 206.828 200.062 214.871 191.65 217.425C182.58 220.178 172.706 215.796 168.679 207.231L166.872 205.329L126.049 183.522L123.461 183.077C114.108 184.494 104.975 178.721 102.221 169.651C99.6663 161.236 103.249 152.131 110.619 147.645C111.755 146.952 112.504 145.764 112.632 144.437L112.894 141.799C113.023 140.471 112.522 139.162 111.542 138.262C105.187 132.424 103.442 122.794 107.585 115.042C111.728 107.285 120.702 103.38 129.084 105.418C130.378 105.736 131.747 105.424 132.776 104.577L134.828 102.894C135.856 102.049 136.427 100.768 136.371 99.4357C136.005 90.8177 141.582 82.7751 149.994 80.2212C155.009 78.6966 160.271 79.3572 164.653 81.6969C167.609 83.2777 170.164 85.6217 171.974 88.5772C172.679 89.7281 173.864 90.5013 175.206 90.6328L177.846 90.8916C179.172 91.0239 180.481 90.5222 181.383 89.5403C187.217 83.1861 196.848 81.4444 204.604 85.5863C212.358 89.7288 216.263 98.7025 214.226 107.086C213.912 108.38 214.223 109.747 215.069 110.778L216.751 112.826C217.597 113.856 218.878 114.429 220.208 114.373C228.826 114.005 236.868 119.58 239.422 127.994C241.977 136.408 238.394 145.513 231.026 150.002C229.889 150.696 229.142 151.882 229.011 153.208L228.752 155.848C228.622 157.174 229.124 158.483 230.104 159.385C236.458 165.22 238.203 174.849 234.06 182.606C229.915 190.359 220.943 194.263 212.561 192.227ZM237.842 155.409C246.702 148.55 250.756 136.644 247.397 125.575C244.036 114.505 234.047 106.863 222.867 106.09C224.285 94.9746 218.734 83.688 208.529 78.2362C198.326 72.7857 185.858 74.4466 177.408 81.8037C170.549 72.942 158.646 68.8887 147.573 72.2485C136.506 75.6107 128.863 85.6022 128.088 96.7775C116.973 95.3605 105.688 100.911 100.236 111.116C94.784 121.32 96.4468 133.787 103.804 142.238C94.9416 149.094 90.8876 161.002 94.2481 172.07C96.4302 179.258 101.407 185 107.688 188.357C112.366 190.855 117.775 192.031 123.288 191.493L161.783 212.057C167.912 223.491 181.528 229.203 194.07 225.397C205.139 222.037 212.782 212.045 213.556 200.868C224.67 202.283 235.957 196.732 241.408 186.531C246.86 176.326 245.199 163.858 237.842 155.409Z"
    fill="#19194B" />
  <path fill-rule="evenodd" clip-rule="evenodd"
    d="M230.105 159.387C229.125 158.484 228.622 157.173 228.751 155.848L229.012 153.208C229.142 151.882 229.887 150.696 231.026 150.002C238.393 145.515 241.977 136.408 239.423 127.996C236.869 119.582 228.824 114.005 220.209 114.373C218.876 114.429 217.598 113.857 216.75 112.828L215.068 110.778C214.224 109.748 213.912 108.379 214.226 107.086C216.264 98.7038 212.358 89.7306 204.604 85.5858C196.848 81.4439 187.218 83.1874 181.384 89.5417C180.48 90.5223 179.171 91.024 177.846 90.8911L175.207 90.6323C173.865 90.5008 172.68 89.7294 171.974 88.5767C170.164 85.6212 167.61 83.2772 164.653 81.6965C160.271 79.3568 155.008 78.6985 149.995 80.2225C141.581 82.777 136.005 90.8172 136.372 99.437C136.429 100.767 135.858 102.048 134.827 102.894L132.777 104.576C131.748 105.424 130.379 105.735 129.085 105.42C120.701 103.382 111.727 107.285 107.585 115.041C103.443 122.796 105.186 132.426 111.541 138.262C112.522 139.162 113.024 140.473 112.894 141.799L112.633 144.439C112.503 145.765 111.756 146.951 110.617 147.645C103.25 152.13 99.6654 161.237 102.22 169.651C104.974 178.723 114.106 184.494 123.461 183.076L126.049 183.522L166.873 205.33L168.68 207.233C172.704 215.796 182.581 220.178 191.65 217.424C200.062 214.87 205.638 206.83 205.275 198.209C205.219 196.879 205.79 195.598 206.818 194.753L208.87 193.07C209.9 192.224 211.265 191.914 212.562 192.226C220.943 194.262 229.916 190.36 234.06 182.605C238.202 174.849 236.458 165.219 230.105 159.387Z"
    fill="white" />
  <path fill-rule="evenodd" clip-rule="evenodd"
    d="M198.149 170.335C198.066 166.802 197.514 163.262 196.46 159.789L196.071 158.509C195.617 157.014 194.037 156.17 192.543 156.624L189.983 157.401C188.489 157.855 187.645 159.435 188.098 160.929L188.487 162.208C190.889 170.121 190.065 178.493 186.169 185.787C178.205 200.695 159.698 206.436 144.718 198.732C129.514 190.915 123.51 171.696 131.565 156.615C135.461 149.324 141.963 143.985 149.876 141.582L151.153 141.195C152.65 140.74 153.492 139.159 153.038 137.664L152.261 135.107C151.808 133.612 150.229 132.768 148.731 133.223L147.454 133.61C143.982 134.664 140.731 136.175 137.747 138.068C135.544 133.792 134.97 128.756 136.273 124.037L143.686 127.996C145.064 128.732 146.779 128.211 147.515 126.833L148.144 125.653C150.104 121.988 154.665 120.603 158.332 122.56C161.379 124.188 162.843 127.609 162.131 130.824C161.862 132.049 162.46 133.299 163.566 133.892L166.638 135.53C167.742 136.121 169.116 135.922 169.984 135.017C172.26 132.641 175.917 131.955 178.964 133.583C182.008 135.208 183.474 138.63 182.763 141.846C182.491 143.069 183.089 144.321 184.197 144.911L187.268 146.552C188.372 147.143 189.748 146.946 190.613 146.038C192.889 143.661 196.548 142.977 199.593 144.603C203.262 146.562 204.647 151.124 202.686 154.791L202.057 155.972C201.321 157.35 201.841 159.062 203.22 159.8L210.631 163.758C207.434 167.468 202.928 169.79 198.149 170.335Z"
    fill="white" />
  <path fill-rule="evenodd" clip-rule="evenodd"
    d="M198.149 170.335C198.065 166.802 197.514 163.261 196.46 159.789L196.071 158.509C195.617 157.014 194.037 156.17 192.542 156.624L189.983 157.401C188.488 157.855 187.644 159.435 188.098 160.929L188.486 162.208C190.889 170.121 190.065 178.493 186.169 185.787C178.205 200.695 159.698 206.436 144.718 198.732C129.514 190.915 123.51 171.695 131.565 156.614C135.461 149.324 141.963 143.985 149.876 141.582L151.153 141.195C152.65 140.74 153.491 139.159 153.038 137.664L152.261 135.107C151.807 133.612 150.229 132.768 148.731 133.222L147.454 133.61C143.982 134.664 140.731 136.175 137.747 138.068C135.544 133.792 134.969 128.756 136.273 124.037L143.686 127.996C145.064 128.732 146.779 128.211 147.515 126.833L148.144 125.653C150.103 121.988 154.665 120.603 158.332 122.56C161.379 124.188 162.842 127.608 162.131 130.824C161.862 132.049 162.46 133.299 163.566 133.891L166.638 135.53C167.742 136.121 169.115 135.922 169.984 135.017C172.26 132.641 175.916 131.955 178.964 133.583C182.008 135.208 183.474 138.63 182.763 141.845C182.491 143.069 183.089 144.321 184.197 144.911L187.268 146.552C188.372 147.143 189.748 146.945 190.613 146.038C192.889 143.661 196.548 142.977 199.593 144.603C203.262 146.562 204.647 151.124 202.686 154.791L202.057 155.972C201.321 157.35 201.841 159.062 203.219 159.8L210.631 163.758C207.434 167.468 202.928 169.79 198.149 170.335ZM219.817 159.218L211.508 154.78C213.063 147.98 209.962 140.696 203.52 137.255C199.442 135.074 194.825 134.865 190.774 136.294C189.707 132.131 186.967 128.412 182.889 126.233C178.81 124.053 174.196 123.845 170.144 125.272C169.076 121.111 166.338 117.391 162.26 115.213C155.817 111.77 148.037 113.243 143.249 118.315L134.939 113.877C133.56 113.139 131.846 113.66 131.11 115.04L130.48 116.218C125.839 124.907 126.378 135.227 131.176 143.322C128.265 146.22 125.792 149.585 123.866 153.356C114.143 172.405 121.645 196.002 140.571 205.966C159.639 216.005 183.35 208.747 193.517 189.713C195.391 186.207 196.703 182.502 197.445 178.707C197.444 178.709 197.443 178.713 197.444 178.717C206.836 178.203 215.71 172.914 220.35 164.227L220.979 163.047C221.715 161.669 221.195 159.956 219.817 159.218Z"
    fill="#19194B" />
  <path fill-rule="evenodd" clip-rule="evenodd"
    d="M180.36 160.415L177.419 161.308L176.526 158.365C176.081 156.899 174.532 156.073 173.068 156.518C171.6 156.963 170.772 158.511 171.217 159.977L172.11 162.92L169.169 163.813C167.703 164.258 166.877 165.807 167.322 167.273C167.767 168.738 169.315 169.567 170.781 169.122L173.722 168.229L174.614 171.166C175.059 172.634 176.609 173.462 178.077 173.016C179.541 172.571 180.369 171.022 179.923 169.554L179.031 166.617L181.972 165.724C183.436 165.28 184.266 163.73 183.821 162.264C183.376 160.798 181.824 159.97 180.36 160.415Z"
    fill="#19194B" />
  <path fill-rule="evenodd" clip-rule="evenodd"
    d="M163.188 151.242C162.743 149.777 161.193 148.948 159.726 149.394L156.788 150.285L155.896 147.346C155.451 145.88 153.9 145.053 152.434 145.498C150.968 145.943 150.14 147.493 150.585 148.959L151.477 151.898L148.538 152.79C147.071 153.236 146.245 154.786 146.69 156.251C147.135 157.717 148.682 158.545 150.15 158.099L153.089 157.207L153.982 160.148C154.428 161.616 155.977 162.441 157.443 161.996C158.909 161.551 159.739 160.003 159.293 158.535L158.4 155.594L161.338 154.703C162.805 154.257 163.633 152.708 163.188 151.242Z"
    fill="#19194B" />
  <g filter="url(#filter0_d)">
    <path fill-rule="evenodd" clip-rule="evenodd"
      d="M279.12 87.9205L261.983 76.5391L271.984 60.2654C273.206 58.2722 272.119 55.6659 269.823 55.1035L239.967 47.7891C238.041 47.3173 236.016 47.9639 234.738 49.4559L212.996 74.8507C211.653 76.4192 211.993 78.807 213.728 79.9607L229.692 90.5674L218.428 108.907C216.716 111.689 219.509 115.07 222.603 113.964L278.384 94.0404C281.068 93.0822 281.499 89.5016 279.12 87.9205Z"
      fill="white" />
  </g>
  <g filter="url(#filter1_d)">
    <path fill-rule="evenodd" clip-rule="evenodd"
      d="M283.546 81.2563L283.549 81.2584C291.366 86.4549 290.009 98.3842 281.075 101.574M281.073 101.575L225.297 121.497C225.296 121.497 225.295 121.497 225.294 121.498C215.357 125.048 205.792 114.179 211.613 104.716C211.614 104.715 211.614 104.715 211.614 104.714L218.835 92.9586L209.298 86.6221C203.62 82.8459 202.41 74.9141 206.918 69.6481L228.663 44.25C231.924 40.4453 237.043 38.8362 241.871 40.0189L271.727 47.3333C279.185 49.1605 282.914 57.7441 278.804 64.4471L278.8 64.454L272.843 74.1477L283.546 81.2563M261.983 76.5391L279.12 87.9205C281.499 89.5016 281.068 93.0823 278.384 94.0404L222.603 113.964C219.509 115.07 216.716 111.689 218.428 108.907L229.693 90.5674L213.728 79.9607C211.993 78.807 211.653 76.4192 212.996 74.8507L234.738 49.4559C236.016 47.9639 238.041 47.3173 239.967 47.7891L269.823 55.1035C272.119 55.6659 273.206 58.2722 271.984 60.2654L261.983 76.5391Z"
      fill="white" />
  </g>
  <path fill-rule="evenodd" clip-rule="evenodd"
    d="M279.12 87.9205L261.983 76.5391L271.984 60.2654C273.206 58.2722 272.119 55.6659 269.823 55.1035L239.967 47.7891C238.041 47.3173 236.016 47.9639 234.738 49.4559L212.996 74.8507C211.653 76.4192 211.993 78.807 213.728 79.9607L229.692 90.5674L218.428 108.907C216.716 111.689 219.509 115.07 222.603 113.964L278.384 94.0404C281.068 93.0822 281.499 89.5016 279.12 87.9205Z"
    fill="url(#paint0_linear)" />
  <g filter="url(#filter2_d)">
    <path fill-rule="evenodd" clip-rule="evenodd"
      d="M143.524 63.6806L155.994 59.0114L152.069 47.2881C151.59 45.8526 152.657 44.3684 154.186 44.3496L174.08 44.1049C175.363 44.0891 176.546 44.793 177.134 45.9207L187.127 65.1121C187.745 66.2975 187.181 67.7532 185.918 68.2268L174.301 72.5792L178.721 85.7898C179.394 87.794 177.138 89.5175 175.349 88.3674L143.094 67.647C141.541 66.6502 141.794 64.3296 143.524 63.6806Z"
      fill="white" />
    <path
      d="M142.472 60.8711L142.471 60.8716C138.447 62.3805 137.826 67.8293 141.472 70.1711C141.473 70.1712 141.473 70.1713 141.473 70.1715L173.727 90.8909C177.808 93.5145 183.172 89.6309 181.566 84.8379L142.472 60.8711ZM142.472 60.8711L152.23 57.2175L149.224 48.2406L149.223 48.2377C148.088 44.837 150.627 41.3932 154.149 41.3499L174.043 41.1051C176.447 41.0756 178.678 42.3933 179.794 44.5338L179.795 44.5351L189.788 63.7265L189.788 63.7266C191.248 66.5309 189.897 69.9382 186.972 71.0357L186.971 71.0362L178.065 74.3728L181.565 84.8357L142.472 60.8711Z"
      stroke="white" stroke-width="6" stroke-linecap="round" stroke-linejoin="round" />
  </g>
  <path fill-rule="evenodd" clip-rule="evenodd"
    d="M143.524 63.6806L155.994 59.0114L152.069 47.2881C151.59 45.8526 152.657 44.3684 154.186 44.3496L174.08 44.1049C175.363 44.0891 176.546 44.793 177.134 45.9207L187.127 65.1121C187.745 66.2975 187.181 67.7532 185.918 68.2268L174.301 72.5792L178.721 85.7898C179.394 87.794 177.138 89.5175 175.349 88.3674L143.094 67.647C141.541 66.6502 141.794 64.3296 143.524 63.6806Z"
    fill="url(#paint1_linear)" />
  <defs>
    <filter id="filter0_d" x="196" y="39" width="100.408" height="99.6748" filterUnits="userSpaceOnUse"
      color-interpolation-filters="sRGB">
      <feFlood flood-opacity="0" result="BackgroundImageFix" />
      <feColorMatrix in="SourceAlpha" type="matrix" values="0 0 0 0 0 0 0 0 0 0 0 0 0 0 0 0 0 0 127 0" />
      <feOffset dy="4" />
      <feGaussianBlur stdDeviation="4" />
      <feColorMatrix type="matrix" values="0 0 0 0 0 0 0 0 0 0 0 0 0 0 0 0 0 0 0.24 0" />
      <feBlend mode="normal" in2="BackgroundImageFix" result="effect1_dropShadow" />
      <feBlend mode="normal" in="SourceGraphic" in2="effect1_dropShadow" result="shape" />
    </filter>
    <filter id="filter1_d" x="186.32" y="29.3247" width="119.765" height="119.025" filterUnits="userSpaceOnUse"
      color-interpolation-filters="sRGB">
      <feFlood flood-opacity="0" result="BackgroundImageFix" />
      <feColorMatrix in="SourceAlpha" type="matrix" values="0 0 0 0 0 0 0 0 0 0 0 0 0 0 0 0 0 0 127 0" />
      <feOffset dy="4" />
      <feGaussianBlur stdDeviation="4" />
      <feColorMatrix type="matrix" values="0 0 0 0 0 0 0 0 0 0 0 0 0 0 0 0 0 0 0.24 0" />
      <feBlend mode="normal" in2="BackgroundImageFix" result="effect1_dropShadow" />
      <feBlend mode="normal" in="SourceGraphic" in2="effect1_dropShadow" result="shape" />
    </filter>
    <filter id="filter2_d" x="127.727" y="33.8713" width="74.0062" height="73.3607" filterUnits="userSpaceOnUse"
      color-interpolation-filters="sRGB">
      <feFlood flood-opacity="0" result="BackgroundImageFix" />
      <feColorMatrix in="SourceAlpha" type="matrix" values="0 0 0 0 0 0 0 0 0 0 0 0 0 0 0 0 0 0 127 0" />
      <feOffset dy="4" />
      <feGaussianBlur stdDeviation="4" />
      <feColorMatrix type="matrix" values="0 0 0 0 0 0 0 0 0 0 0 0 0 0 0 0 0 0 0.24 0" />
      <feBlend mode="normal" in2="BackgroundImageFix" result="effect1_dropShadow" />
      <feBlend mode="normal" in="SourceGraphic" in2="effect1_dropShadow" result="shape" />
    </filter>
    <linearGradient id="paint0_linear" x1="254.413" y1="51.3283" x2="220" y2="138" gradientUnits="userSpaceOnUse">
      <stop stop-color="#FAC34B" />
      <stop offset="1" stop-color="#E99B26" />
    </linearGradient>
    <linearGradient id="paint1_linear" x1="164.454" y1="44.2233" x2="178.5" y2="121" gradientUnits="userSpaceOnUse">
      <stop stop-color="#FAC34B" />
      <stop offset="1" stop-color="#E99B26" />
    </linearGradient>
  </defs>
</svg>