<svg class="icon" 
     viewBox="0 0 40 40" 
     fill="none" 
     xmlns="http://www.w3.org/2000/svg"
>
<circle cx="20" cy="20" r="20" fill="#FEE2DB"/>
<path d="M29.1959 10.8033C24.115 5.72863 15.8812 5.73297 10.8047 10.812C5.72817 15.8909 5.7325 24.1218 10.8133 29.1964C15.8909 34.2678 24.1183 34.2678 29.1959 29.1964C34.268 24.1142 34.268 15.8855 29.1959 10.8033ZM25.0985 23.5539C25.4986 23.9993 25.4617 24.6843 25.0161 25.0843C24.6051 25.4528 23.9828 25.4539 23.5707 25.0875L20.1987 21.7167C20.0924 21.6116 19.9211 21.6116 19.8149 21.7167L16.4439 25.0875C16.0156 25.5005 15.338 25.5005 14.9097 25.0875C14.4857 24.6648 14.4857 23.9787 14.9086 23.5549L14.9097 23.5539L18.2817 20.1841C18.3869 20.079 18.388 19.9077 18.2828 19.8026L18.2817 19.8015L14.9097 16.4307C14.5063 15.9874 14.5389 15.3024 14.9823 14.8992C15.3943 14.5242 16.0243 14.5231 16.4385 14.897L19.8094 18.2679C19.9157 18.3741 20.087 18.3741 20.1933 18.2679L23.5653 14.897C23.9893 14.4743 24.6756 14.4743 25.0985 14.8981C25.5213 15.3219 25.5213 16.008 25.0985 16.4307L21.7264 19.8015C21.6212 19.9077 21.6212 20.0779 21.7264 20.1841L25.0985 23.5539Z" fill="url(#error_microillustration_paint0_linear)"/>
<path d="M25.0161 25.0843C25.4617 24.6843 25.4986 23.9993 25.0985 23.5539L21.7264 20.1841C21.6212 20.0779 21.6212 19.9077 21.7264 19.8015L25.0985 16.4307C25.5213 16.008 25.5213 15.3219 25.0985 14.8981C24.6756 14.4743 23.9893 14.4743 23.5653 14.897L20.1933 18.2679C20.087 18.3741 19.9157 18.3741 19.8094 18.2679L16.4385 14.897C16.0243 14.5231 15.3943 14.5242 14.9823 14.8992C14.5389 15.3024 14.5063 15.9874 14.9097 16.4307L18.2817 19.8015L18.2828 19.8026C18.388 19.9077 18.3869 20.079 18.2817 20.1841L14.9097 23.5539L14.9086 23.5549C14.4857 23.9787 14.4857 24.6648 14.9097 25.0875C15.338 25.5005 16.0156 25.5005 16.4439 25.0875L19.8149 21.7167C19.9211 21.6116 20.0924 21.6116 20.1987 21.7167L23.5707 25.0875C23.9828 25.4539 24.6051 25.4528 25.0161 25.0843Z" fill="white"/>
<defs>
<linearGradient id="error_microillustration_paint0_linear" x1="20" y1="7" x2="16.6971" y2="60.0165" gradientUnits="userSpaceOnUse">
<stop stop-color="#EB4B68"/>
<stop offset="1" stop-color="#CA365F"/>
</linearGradient>
</defs>
</svg>
