<svg class="icon"
     viewBox="0 0 24 24"
     fill="none"
     xmlns="http://www.w3.org/2000/svg"
>
  <path d="M12 0C9.62663 0 7.30655 0.703788 5.33316 2.02236C3.35977 3.34094 1.8217 5.21509 0.913451 7.4078C0.00519943 9.60051 -0.232441 12.0133 0.230582 14.3411C0.693605 16.6689 1.83649 18.8071 3.51472 20.4853C5.19295 22.1635 7.33115 23.3064 9.65892 23.7694C11.9867 24.2324 14.3995 23.9948 16.5922 23.0866C18.7849 22.1783 20.6591 20.6402 21.9776 18.6668C23.2962 16.6935 24 14.3734 24 12C24 8.8174 22.7357 5.76515 20.4853 3.51472C18.2348 1.26428 15.1826 0 12 0V0ZM14 8.387C14.1642 8.387 14.3267 8.41933 14.4784 8.48215C14.63 8.54497 14.7678 8.63704 14.8839 8.75312C15 8.86919 15.092 9.00699 15.1549 9.15865C15.2177 9.3103 15.25 9.47285 15.25 9.637C15.25 9.80115 15.2177 9.9637 15.1549 10.1154C15.092 10.267 15 10.4048 14.8839 10.5209C14.7678 10.637 14.63 10.729 14.4784 10.7918C14.3267 10.8547 14.1642 10.887 14 10.887H9.62801C9.56583 10.887 9.50587 10.9101 9.45983 10.9519C9.41379 10.9937 9.38497 11.0511 9.37901 11.113C9.35201 11.393 9.33701 11.687 9.33701 12C9.33701 12.121 9.33701 12.239 9.34401 12.354C9.34634 12.4187 9.3737 12.48 9.42034 12.525C9.46697 12.5699 9.52923 12.595 9.59401 12.595H12.77C13.1015 12.595 13.4195 12.7267 13.6539 12.9611C13.8883 13.1955 14.02 13.5135 14.02 13.845C14.02 14.1765 13.8883 14.4945 13.6539 14.7289C13.4195 14.9633 13.1015 15.095 12.77 15.095H10.49C10.4436 15.095 10.3981 15.1079 10.3586 15.1323C10.3191 15.1567 10.2872 15.1917 10.2664 15.2332C10.2456 15.2747 10.2368 15.3212 10.241 15.3675C10.2452 15.4137 10.2621 15.4579 10.29 15.495C11.257 16.718 13.007 17.245 15.765 17.245C16.0965 17.245 16.4145 17.3767 16.6489 17.6111C16.8833 17.8455 17.015 18.1635 17.015 18.495C17.015 18.8265 16.8833 19.1445 16.6489 19.3789C16.4145 19.6133 16.0965 19.745 15.765 19.745C13.926 19.745 8.97301 19.726 7.36501 15.255C7.34735 15.2066 7.31524 15.1648 7.27302 15.1353C7.2308 15.1058 7.18052 15.09 7.12901 15.09H6.27001C5.93848 15.09 5.62054 14.9583 5.38612 14.7239C5.1517 14.4895 5.02001 14.1715 5.02001 13.84C5.02001 13.5085 5.1517 13.1905 5.38612 12.9561C5.62054 12.7217 5.93848 12.59 6.27001 12.59H6.60001C6.63441 12.5898 6.66841 12.5826 6.69991 12.5687C6.73141 12.5549 6.75975 12.5348 6.78317 12.5096C6.80659 12.4844 6.82461 12.4546 6.8361 12.4222C6.84759 12.3898 6.85233 12.3553 6.85001 12.321C6.84201 12.216 6.83501 12.109 6.83501 11.995C6.83501 11.695 6.85101 11.422 6.87301 11.152C6.87577 11.1176 6.87138 11.083 6.86012 11.0504C6.84886 11.0178 6.83097 10.9879 6.80759 10.9625C6.7842 10.9372 6.75581 10.9169 6.72422 10.9031C6.69262 10.8892 6.6585 10.882 6.62401 10.882H6.31301C5.98148 10.882 5.66354 10.7503 5.42912 10.5159C5.1947 10.2815 5.06301 9.96352 5.06301 9.632C5.06301 9.30048 5.1947 8.98254 5.42912 8.74812C5.66354 8.5137 5.98148 8.382 6.31301 8.382H7.31301C7.36126 8.38208 7.4085 8.36813 7.44898 8.34186C7.48946 8.31558 7.52143 8.27811 7.54101 8.234C9.33201 4.252 14 4.25 15.769 4.25C16.1005 4.25 16.4185 4.3817 16.6529 4.61612C16.8873 4.85054 17.019 5.16848 17.019 5.5C17.019 5.83152 16.8873 6.14946 16.6529 6.38388C16.4185 6.6183 16.1005 6.75 15.769 6.75C13.469 6.75 11.876 7.115 10.847 7.942C10.8068 7.97421 10.7776 8.01804 10.7633 8.0675C10.749 8.11695 10.7503 8.16962 10.767 8.21831C10.7837 8.267 10.8151 8.30933 10.8568 8.33952C10.8985 8.36972 10.9485 8.3863 11 8.387H14Z"
        fill="#00A0DF"
  />
</svg>
