<svg class="icon"
     viewBox="0 0 40 40"
     fill="none"
     xmlns="http://www.w3.org/2000/svg"
>
    <ellipse rx="1.77778" ry="3.12901" transform="matrix(-0.773431 -0.633881 -0.633881 0.773431 26.6629 21.8659)" fill="#77490E"/>
    <ellipse cx="13.3439" cy="21.8659" rx="1.77778" ry="3.12901" transform="rotate(-39.337 13.3439 21.8659)" fill="#77490E"/>
    <path d="M30.1625 35.3107C30.1625 35.7527 29.8041 36.1111 29.362 36.1111H10.7407C10.2986 36.1111 9.94026 35.7527 9.94026 35.3107V34.9314C9.94026 33.9628 10.2018 33.0037 10.7099 32.1088C11.2181 31.2139 11.9628 30.4008 12.9017 29.7159C13.8406 29.031 14.9553 28.4877 16.182 28.117C17.4088 27.7463 18.7236 27.5555 20.0514 27.5555C21.3792 27.5555 22.694 27.7463 23.9207 28.117C25.1475 28.4877 26.2621 29.031 27.201 29.7159C28.1399 30.4008 28.8847 31.2139 29.3928 32.1088C29.901 33.0037 30.1625 33.9628 30.1625 34.9314V35.3107Z" fill="url(#facescan-paint0_linear)"/>
    <path d="M19.9748 23.7723C19.6704 23.7723 19.3691 23.8324 19.088 23.9491C18.8069 24.0659 18.5517 24.237 18.3369 24.4526C18.1221 24.6682 17.952 24.9241 17.8364 25.2057C17.7207 25.4872 17.6618 25.7888 17.663 26.0931V28.687C17.663 29.3001 17.9066 29.8881 18.3401 30.3216C18.7737 30.7552 19.3617 30.9987 19.9748 30.9987C20.5879 30.9987 21.1759 30.7552 21.6094 30.3216C22.043 29.8881 22.2865 29.3001 22.2865 28.687V26.0931C22.2877 25.7888 22.2288 25.4872 22.1132 25.2057C21.9975 24.9241 21.8274 24.6682 21.6126 24.4526C21.3979 24.237 21.1426 24.0659 20.8615 23.9491C20.5805 23.8324 20.2791 23.7723 19.9748 23.7723Z" fill="#FFCEBF"/>
    <path d="M19.9748 23.7723C19.3616 23.7723 18.7736 24.0158 18.3401 24.4494C17.9066 24.8829 17.663 25.4709 17.663 26.084V26.6301C17.663 27.2432 17.9066 27.8312 18.3401 28.2647C18.7736 28.6983 19.3616 28.9418 19.9748 28.9418C20.5879 28.9418 21.1759 28.6983 21.6094 28.2647C22.0429 27.8312 22.2865 27.2432 22.2865 26.6301V26.0931C22.2877 25.7888 22.2288 25.4872 22.1131 25.2057C21.9975 24.9241 21.8274 24.6682 21.6126 24.4526C21.3978 24.237 21.1426 24.0659 20.8615 23.9491C20.5805 23.8324 20.2791 23.7723 19.9748 23.7723Z" fill="#FFB59E" fill-opacity="0.5"/>
    <path d="M19.8751 5.33289C19.1259 5.33359 17.5371 7.47708 16.8116 7.66373C15.1188 8.04598 13.759 6.63438 11.7658 6.25212C11.6881 6.76549 11.7159 7.28929 11.8473 7.79158C11.9787 8.29388 12.2111 8.76413 12.5303 9.17365C11.4919 10.6703 10.6516 11.3793 10.4851 13.4908C10.3186 15.6023 10.9376 18.9485 10.9376 18.9485H28.8126V14.2704C28.8126 11.9 27.871 9.62673 26.1949 7.95062C24.5187 6.27451 22.2455 5.33289 19.8751 5.33289Z" fill="#77490E"/>
    <path d="M19.9748 5C18.9759 5 17.3706 5.81228 16.6451 5.99893C14.9522 6.38118 13.7587 6.63446 11.7655 6.2522C11.6423 7.20689 11.8616 8.17435 12.3844 8.9826C14.1672 9.01038 15.9439 8.76796 17.6541 8.2636C18.9742 7.92313 20.3547 7.88947 21.6898 8.1652C23.0249 8.44093 24.2791 9.01873 25.3563 9.8543C26.4335 10.6899 27.305 11.761 27.9041 12.9856C28.5031 14.2102 28.8138 15.5557 28.8123 16.919C30.963 12.9856 29.2981 8.66273 26.1349 7.8303C24.4588 6.15419 22.3452 5 19.9748 5Z" fill="#77490E"/>
    <path d="M29.768 18.2659C29.7237 17.9317 29.5791 17.6188 29.3532 17.3686C29.1273 17.1183 28.8308 16.9425 28.5029 16.8643L27.9659 16.7187C27.5702 16.607 27.2223 16.3683 26.9756 16.0393C26.7289 15.7104 26.5972 15.3096 26.6007 14.8984V13.0418C26.5997 12.6664 26.4753 12.3019 26.2467 12.0042C26.0181 11.7065 25.698 11.4922 25.3356 11.3944C23.6001 12.0872 21.734 10.3657 19.8657 10.3276C17.9974 10.3657 16.1495 12.0872 14.414 11.3944C14.05 11.4906 13.7278 11.7041 13.4974 12.0019C13.2671 12.2997 13.1414 12.6652 13.1398 13.0418V14.9166C13.1433 15.3278 12.3966 15.1598 12.1499 15.4887C11.9032 15.8176 12.1703 16.6252 11.7746 16.7369L11.2376 16.8825C10.9097 16.9607 10.6132 17.1365 10.3873 17.3868C10.1614 17.637 10.0168 17.9499 9.97255 18.2841C9.94823 18.5145 9.97278 18.7475 10.0446 18.9678C10.1164 19.188 10.2339 19.3907 10.3894 19.5625C10.5448 19.7343 10.7348 19.8713 10.9468 19.9647C11.1589 20.0581 11.3882 20.1057 11.6199 20.1044H11.72C11.933 22.1163 12.883 23.9783 14.387 25.3315C15.891 26.6847 17.8426 27.4334 19.8657 27.4334C21.8889 27.4334 23.8405 26.6847 25.3444 25.3315C26.8484 23.9783 27.7984 22.1163 28.0114 20.1044H28.1115C28.3457 20.1073 28.5778 20.0602 28.7923 19.9663C29.0068 19.8724 29.1989 19.7339 29.3556 19.5599C29.5124 19.3859 29.6302 19.1805 29.7013 18.9574C29.7724 18.7342 29.7952 18.4985 29.768 18.2659Z" fill="#FFCEBF"/>
    <path d="M12.0235 19.4323C12.3894 18.877 11.8711 17.6585 11.5662 17.1187L10.6515 14.805L12.9382 9.71509C15.2249 9.56085 19.9812 9.20609 20.713 9.02101C21.4447 8.83592 24.0668 9.71509 25.2864 10.1778L27.8018 14.805L28.7987 16.9872L27.8018 19.4323C27.8018 18.6611 27.7103 17.1187 27.3444 17.1187C26.9338 17.1187 25.4173 15.0673 25.2771 13.1412C25.2575 12.8719 24.9568 12.6803 24.7199 12.8098C23.0126 13.7428 20.2637 15.0116 18.4263 14.805C18.1552 14.7746 18.8293 13.6437 19.3214 12.8738C19.4044 12.7439 19.2803 12.5781 19.1323 12.6213C17.258 13.1677 16.2659 13.3636 13.6313 15.7633C13.3366 16.0318 13.1932 16.426 13.1856 16.8246C13.1383 19.3285 11.5999 20.0752 12.0235 19.4323Z" fill="#77490E"/>
    <path d="M11 1H5C2.79086 1 1 2.79086 1 5V11" stroke="#EBECF0" stroke-width="2" stroke-linecap="round"/>
    <path d="M39 11L39 5C39 2.79086 37.2091 1 35 1L29 1" stroke="#EBECF0" stroke-width="2" stroke-linecap="round"/>
    <path d="M29 39L35 39C37.2091 39 39 37.2091 39 35L39 29" stroke="#EBECF0" stroke-width="2" stroke-linecap="round"/>
    <path d="M1 29L1 35C1 37.2091 2.79086 39 5 39L11 39" stroke="#EBECF0" stroke-width="2" stroke-linecap="round"/>
    <rect x="6" y="18" width="28" height="2" rx="1" fill="#66DE7D"/>
    <defs>
        <linearGradient id="facescan-paint0_linear" x1="20.0514" y1="27.5555" x2="20.0666" y2="41.0729" gradientUnits="userSpaceOnUse">
            <stop stop-color="#00A0DF"/>
            <stop offset="1" stop-color="#007CBF"/>
        </linearGradient>
    </defs>
</svg>
