<svg class="icon" 
     viewBox="0 0 32 32" 
     fill="none" 
     xmlns="http://www.w3.org/2000/svg"
>
<path fill-rule="evenodd" clip-rule="evenodd" d="M16 32C24.8366 32 32 24.8366 32 16C32 7.16344 24.8366 0 16 0C7.16344 0 0 7.16344 0 16C0 24.8366 7.16344 32 16 32ZM17.5652 12.8696H20.5343L20.2442 15.6522H17.5652V24H14.087V15.6522H12V12.8696H14.087V11.3774C14.087 10.0689 14.6045 8 17.3363 8H20.3478V10.7896C20.3478 10.7896 18.56 10.7826 18.2692 10.7826C18.1701 10.7776 18.0711 10.7946 17.9793 10.8322C17.8874 10.8697 17.805 10.9271 17.7378 11.0001C17.6706 11.0732 17.6203 11.1601 17.5905 11.2547C17.5606 11.3494 17.552 11.4495 17.5652 11.5478V12.8696Z" fill="#19194B"/>
</svg>
