<svg class="icon" viewBox="0 0 360 264" fill="none" xmlns="http://www.w3.org/2000/svg">
<path fill-rule="evenodd" clip-rule="evenodd" d="M151.378 213.029C151.378 214.668 152.71 216 154.35 216H157.153C158.793 216 160.122 214.668 160.122 213.029V186.272H151.378V213.029Z" fill="#19194B"/>
<path fill-rule="evenodd" clip-rule="evenodd" d="M199.958 186.272V213.029C199.958 214.668 201.288 216 202.928 216H205.733C207.373 216 208.702 214.668 208.702 213.029V186.272H199.958Z" fill="#19194B"/>
<path fill-rule="evenodd" clip-rule="evenodd" d="M240.11 151.542C238.754 151.892 237.642 152.856 237.107 154.148L236.04 156.72C235.507 158.012 235.611 159.48 236.321 160.685C240.922 168.484 239.738 178.688 233.211 185.213C226.176 192.248 214.868 193.074 206.903 187.137L204.289 186.27H155.707L153.093 187.137C145.134 193.076 133.822 192.248 126.789 185.213C120.26 178.686 119.076 168.484 123.677 160.685C124.39 159.482 124.495 158.012 123.958 156.72L122.893 154.148C122.36 152.856 121.245 151.892 119.89 151.542C111.123 149.282 104.744 141.23 104.744 132C104.744 122.772 111.123 114.72 119.89 112.46C121.245 112.11 122.36 111.146 122.893 109.854L123.958 107.282C124.495 105.988 124.39 104.52 123.677 103.315C119.076 95.5196 120.262 85.3159 126.789 78.7888C130.677 74.8989 135.872 72.9056 141.09 72.9056C144.606 72.9056 148.131 73.8124 151.27 75.6536C152.491 76.3707 153.97 76.5011 155.28 75.9578L157.85 74.893C159.144 74.3596 160.108 73.2474 160.458 71.8922C162.718 63.1247 170.77 56.7477 179.998 56.7477C189.228 56.7477 197.28 63.1247 199.542 71.8922C199.892 73.2474 200.856 74.3576 202.148 74.893L204.718 75.9578C206.01 76.4932 207.478 76.3885 208.685 75.6793C216.48 71.0782 226.684 72.2616 233.211 78.7888C239.738 85.314 240.922 95.5176 236.321 103.317C235.611 104.522 235.507 105.99 236.04 107.282L237.107 109.854C237.642 111.146 238.754 112.11 240.11 112.46C248.875 114.72 255.254 122.772 255.254 132C255.254 141.23 248.875 149.282 240.11 151.542ZM245.305 104.951C250.114 94.2197 247.98 81.191 239.396 72.6034C230.809 64.0177 217.78 61.8841 207.049 66.6965C202.863 55.7066 192.142 48 179.998 48C167.858 48 157.135 55.7066 152.949 66.6965C142.218 61.8841 129.191 64.0177 120.603 72.6034C112.018 81.191 109.886 94.2217 114.695 104.951C103.705 109.137 96 119.858 96 132C96 144.144 103.705 154.865 114.695 159.051C109.882 169.78 112.016 182.811 120.603 191.396C126.178 196.971 133.626 199.826 141.102 199.826C146.669 199.824 152.257 198.24 157.094 195.016H202.904C214.234 202.57 229.665 201.126 239.396 191.396C247.98 182.813 250.114 169.782 245.305 159.051C256.293 154.865 263.998 144.144 263.998 132C263.998 119.858 256.293 109.137 245.305 104.951Z" fill="#19194B"/>
<path fill-rule="evenodd" clip-rule="evenodd" d="M240.11 112.459C238.755 112.11 237.642 111.145 237.107 109.853L236.04 107.281C235.507 105.989 235.611 104.522 236.321 103.316C240.922 95.517 239.738 85.3134 233.211 78.7882C226.684 72.261 216.48 71.0776 208.685 75.6787C207.478 76.3899 206.01 76.4926 204.718 75.9572L202.146 74.8924C200.856 74.357 199.892 73.2468 199.542 71.8915C197.28 63.1241 189.228 56.7471 179.998 56.7471C170.77 56.7471 162.718 63.1241 160.458 71.8915C160.108 73.2468 159.144 74.359 157.85 74.8924L155.28 75.9572C153.97 76.5005 152.491 76.3701 151.27 75.6549C148.131 73.8118 144.606 72.907 141.09 72.907C135.872 72.907 130.677 74.8983 126.789 78.7882C120.262 85.3153 119.076 95.519 123.677 103.316C124.391 104.52 124.495 105.989 123.958 107.281L122.893 109.853C122.36 111.145 121.246 112.11 119.89 112.459C111.123 114.719 104.744 122.772 104.744 132.001C104.744 141.229 111.123 149.281 119.89 151.541C121.246 151.891 122.358 152.855 122.893 154.147L123.958 156.719C124.495 158.013 124.391 159.481 123.677 160.686C119.076 168.484 120.26 178.685 126.789 185.212C133.822 192.249 145.134 193.077 153.093 187.137L155.707 186.269H204.289L206.903 187.137C214.868 193.075 226.176 192.249 233.211 185.212C239.738 178.687 240.922 168.484 236.321 160.684C235.611 159.479 235.507 158.011 236.04 156.719L237.107 154.147C237.642 152.855 238.755 151.891 240.11 151.541C248.875 149.281 255.254 141.229 255.254 132.001C255.254 122.772 248.875 114.719 240.11 112.459Z" fill="white"/>
<path fill-rule="evenodd" clip-rule="evenodd" d="M215.939 138.401C214.115 135.173 211.851 132.168 209.157 129.473L208.165 128.482C207.007 127.322 205.124 127.322 203.965 128.482L201.983 130.465C200.824 131.625 200.824 133.506 201.983 134.665L202.975 135.657C209.111 141.795 212.491 149.954 212.491 158.632C212.491 176.375 198.196 190.84 180.515 191.118C162.573 191.401 147.508 176.576 147.508 158.632C147.508 149.954 150.888 141.795 157.026 135.657L158.018 134.665C159.177 133.506 159.177 131.625 158.018 130.465L156.032 128.482C154.873 127.322 152.992 127.322 151.832 128.482L150.841 129.473C148.148 132.168 145.884 135.173 144.061 138.401C139.904 135.532 136.881 131.155 135.755 126.139H144.576C146.216 126.139 147.545 124.811 147.545 123.17V121.767C147.545 117.403 151.084 113.865 155.45 113.865C159.073 113.865 162.121 116.307 163.051 119.633C163.407 120.902 164.58 121.765 165.896 121.765H169.551C170.867 121.765 172.04 120.902 172.396 119.633C173.328 116.307 176.374 113.865 180 113.865C183.625 113.865 186.673 116.307 187.601 119.633C187.957 120.902 189.132 121.765 190.448 121.765H194.101C195.417 121.765 196.592 120.902 196.948 119.633C197.876 116.307 200.924 113.865 204.55 113.865C208.914 113.865 212.452 117.403 212.452 121.767V123.17C212.452 124.811 213.781 126.139 215.423 126.139H224.244C223.116 131.155 220.095 135.532 215.939 138.401Z" fill="white"/>
<path fill-rule="evenodd" clip-rule="evenodd" d="M192.317 139.961C189.857 139.961 187.862 141.954 187.862 144.416C187.862 146.875 189.857 148.869 192.317 148.869C194.776 148.869 196.771 146.875 196.771 144.416C196.771 141.954 194.776 139.961 192.317 139.961Z" fill="#19194B"/>
<path fill-rule="evenodd" clip-rule="evenodd" d="M167.765 139.961C165.306 139.961 163.31 141.954 163.31 144.416C163.31 146.875 165.306 148.869 167.765 148.869C170.225 148.869 172.22 146.875 172.22 144.416C172.22 141.954 170.225 139.961 167.765 139.961Z" fill="#19194B"/>
<path fill-rule="evenodd" clip-rule="evenodd" d="M187.422 183.956C187.422 188.057 184.098 191.38 179.998 191.38C175.899 191.38 172.574 188.057 172.574 183.956H187.422Z" fill="#19194B"/>
<path fill-rule="evenodd" clip-rule="evenodd" d="M215.938 138.401C214.115 135.173 211.851 132.168 209.156 129.474L208.165 128.482C207.007 127.322 205.124 127.322 203.965 128.482L201.983 130.465C200.823 131.625 200.823 133.506 201.983 134.665L202.975 135.657C209.111 141.795 212.491 149.954 212.491 158.633C212.491 176.375 198.196 190.84 180.515 191.118C162.573 191.401 147.508 176.576 147.508 158.633C147.508 149.954 150.888 141.795 157.026 135.657L158.017 134.665C159.177 133.506 159.177 131.625 158.017 130.465L156.032 128.482C154.872 127.322 152.992 127.322 151.832 128.482L150.84 129.474C148.148 132.168 145.884 135.173 144.06 138.401C139.904 135.533 136.881 131.155 135.755 126.139H144.576C146.216 126.139 147.545 124.811 147.545 123.17V121.767C147.545 117.403 151.083 113.865 155.449 113.865C159.072 113.865 162.121 116.307 163.051 119.633C163.407 120.902 164.58 121.765 165.896 121.765H169.551C170.866 121.765 172.04 120.902 172.395 119.633C173.328 116.307 176.374 113.865 179.999 113.865C183.624 113.865 186.673 116.307 187.601 119.633C187.957 120.902 189.132 121.765 190.448 121.765H194.101C195.416 121.765 196.592 120.902 196.947 119.633C197.876 116.307 200.924 113.865 204.549 113.865C208.913 113.865 212.451 117.403 212.451 121.767V123.17C212.451 124.811 213.781 126.139 215.423 126.139H224.243C223.115 131.155 220.095 135.533 215.938 138.401ZM230.504 117.393H220.614C218.69 110.329 212.216 105.119 204.549 105.119C199.695 105.119 195.318 107.207 192.273 110.532C189.229 107.207 184.853 105.119 179.999 105.119C175.145 105.119 170.77 107.207 167.723 110.532C164.679 107.207 160.301 105.119 155.447 105.119C147.78 105.119 141.308 110.329 139.382 117.393H129.495C127.855 117.393 126.525 118.725 126.525 120.364V121.767C126.525 132.107 132.128 141.396 140.573 146.517C139.313 150.638 138.687 154.978 138.77 159.423C139.187 181.865 157.804 200.002 180.254 199.869C202.874 199.73 221.237 181.286 221.237 158.633C221.237 154.458 220.616 150.381 219.429 146.503C219.429 146.505 219.431 146.509 219.433 146.511C227.873 141.39 233.473 132.105 233.473 121.767V120.364C233.473 118.725 232.144 117.393 230.504 117.393Z" fill="#19194B"/>
<g filter="url(#failure-image-filter0_d_36997_275026)">
<mask id="failure-image-path-10-outside-1_36997_275026" maskUnits="userSpaceOnUse" x="206.091" y="20.0736" width="90.0994" height="90.0994" fill="black">
<rect fill="white" x="206.091" y="20.0736" width="90.0994" height="90.0994"/>
<path fill-rule="evenodd" clip-rule="evenodd" d="M255.475 96.8284C272.986 94.4343 285.24 78.2988 282.846 60.7886C280.452 43.2783 264.316 31.0242 246.805 33.4183C229.297 35.8121 217.042 51.9477 219.436 69.458C221.83 86.9682 237.966 99.2222 255.475 96.8284Z"/>
</mask>
<path d="M254.391 88.9021C250.013 89.5006 246.95 93.5345 247.548 97.9121C248.147 102.29 252.181 105.353 256.558 104.755L254.391 88.9021ZM256.558 104.755C260.936 104.156 263.999 100.122 263.401 95.7447C262.802 91.3672 258.769 88.3036 254.391 88.9021L256.558 104.755ZM256.558 104.755C278.447 101.762 293.764 81.5927 290.772 59.7049L274.919 61.8722C276.715 75.0049 267.525 87.1065 254.391 88.9021L256.558 104.755ZM290.772 59.7049C287.779 37.817 267.61 22.4994 245.722 25.492L247.889 41.3446C261.023 39.5489 273.124 48.7396 274.919 61.8722L290.772 59.7049ZM245.722 25.492C223.835 28.4843 208.517 48.6538 211.509 70.5417L227.362 68.3743C225.566 55.2417 234.758 43.1399 247.889 41.3446L245.722 25.492ZM211.509 70.5417C214.502 92.4295 234.672 107.747 256.558 104.755L254.391 88.9021C241.26 90.6974 229.157 81.5069 227.362 68.3743L211.509 70.5417Z" fill="white" mask="url(#failure-image-path-10-outside-1_36997_275026)"/>
</g>
<circle cx="250.992" cy="65.01" r="32" transform="rotate(-7.78519 250.992 65.01)" fill="white"/>
<path d="M270.352 39.5143C256.269 28.8321 236.189 31.5882 225.502 45.6678C214.815 59.7474 217.57 79.8198 231.653 90.5019C245.728 101.177 265.793 98.4339 276.485 84.3725C287.161 70.2864 284.417 50.2179 270.352 39.5143ZM264.611 71.9773C265.735 72.9303 265.874 74.6132 264.92 75.7372C264.041 76.773 262.524 76.9832 261.397 76.2271L252.049 69.1305C251.754 68.9096 251.337 68.9667 251.113 69.2585L244.015 78.6034C243.108 79.7534 241.456 79.9793 240.273 79.115C239.099 78.2254 238.87 76.5522 239.76 75.3776L239.762 75.3746L246.862 66.032C247.084 65.7405 247.029 65.3225 246.738 65.1011L246.735 65.0989L237.387 58.0023C236.255 57.0557 236.106 55.3742 237.053 54.243C237.933 53.191 239.469 52.9783 240.604 53.7522L249.949 60.8491C250.244 61.0727 250.662 61.0156 250.885 60.7211L257.985 51.3758C258.878 50.2035 260.552 49.9747 261.725 50.8672C262.897 51.7598 263.126 53.4331 262.236 54.605L255.136 63.9503C254.915 64.2444 254.972 64.6594 255.264 64.8834L264.611 71.9773Z" fill="url(#failure-image-paint0_linear_36997_275026)"/>
<defs>
<filter id="failure-image-filter0_d_36997_275026" x="203.136" y="21.1187" width="96.0095" height="96.0093" filterUnits="userSpaceOnUse" color-interpolation-filters="sRGB">
<feFlood flood-opacity="0" result="BackgroundImageFix"/>
<feColorMatrix in="SourceAlpha" type="matrix" values="0 0 0 0 0 0 0 0 0 0 0 0 0 0 0 0 0 0 127 0" result="hardAlpha"/>
<feOffset dy="4"/>
<feGaussianBlur stdDeviation="4"/>
<feColorMatrix type="matrix" values="0 0 0 0 0 0 0 0 0 0 0 0 0 0 0 0 0 0 0.24 0"/>
<feBlend mode="normal" in2="BackgroundImageFix" result="effect1_dropShadow_36997_275026"/>
<feBlend mode="normal" in="SourceGraphic" in2="effect1_dropShadow_36997_275026" result="shape"/>
</filter>
<linearGradient id="failure-image-paint0_linear_36997_275026" x1="246.657" y1="33.3049" x2="256.28" y2="163.705" gradientUnits="userSpaceOnUse">
<stop stop-color="#EB4B68"/>
<stop offset="1" stop-color="#CA365F"/>
</linearGradient>
</defs>
</svg>
