<svg class="icon" viewBox="0 0 204 195" fill="none" xmlns="http://www.w3.org/2000/svg">
<path fill-rule="evenodd" clip-rule="evenodd" d="M55.3784 192.029C55.3784 193.668 56.7099 195 58.3496 195H61.1529C62.7926 195 64.1222 193.668 64.1222 192.029V165.272H55.3784V192.029Z" fill="#19194B"/>
<path fill-rule="evenodd" clip-rule="evenodd" d="M103.958 165.272V192.029C103.958 193.668 105.288 195 106.928 195H109.733C111.373 195 112.702 193.668 112.702 192.029V165.272H103.958Z" fill="#19194B"/>
<path fill-rule="evenodd" clip-rule="evenodd" d="M144.11 130.542C142.754 130.892 141.642 131.856 141.107 133.148L140.04 135.72C139.507 137.012 139.611 138.48 140.321 139.685C144.922 147.484 143.738 157.688 137.211 164.213C130.176 171.248 118.868 172.074 110.903 166.137L108.289 165.27H59.7067L57.0931 166.137C49.1336 172.076 37.8217 171.248 30.7888 164.213C24.2596 157.686 23.0763 147.484 27.6773 139.685C28.3905 138.482 28.4952 137.012 27.9578 135.72L26.893 133.148C26.3596 131.856 25.2454 130.892 23.8902 130.542C15.1227 128.282 8.74373 120.23 8.74373 111C8.74373 101.772 15.1227 93.7199 23.8902 91.4598C25.2454 91.1102 26.3596 90.1461 26.893 88.8541L27.9578 86.282C28.4952 84.988 28.3905 83.5202 27.6773 82.3151C23.0763 74.5196 24.2616 64.3159 30.7888 57.7888C34.6766 53.8989 39.8723 51.9056 45.0897 51.9056C48.6062 51.9056 52.1305 52.8124 55.2696 54.6536C56.4905 55.3707 57.9702 55.5011 59.28 54.9578L61.8502 53.893C63.1441 53.3596 64.1082 52.2474 64.4579 50.8922C66.7179 42.1247 74.7702 35.7477 83.9979 35.7477C93.2276 35.7477 101.28 42.1247 103.542 50.8922C103.892 52.2474 104.856 53.3576 106.148 53.893L108.718 54.9578C110.01 55.4932 111.478 55.3885 112.685 54.6793C120.48 50.0782 130.684 51.2616 137.211 57.7888C143.738 64.314 144.922 74.5176 140.321 82.3171C139.611 83.5221 139.507 84.99 140.04 86.282L141.107 88.8541C141.642 90.1461 142.754 91.1102 144.11 91.4598C152.875 93.7199 159.254 101.772 159.254 111C159.254 120.23 152.875 128.282 144.11 130.542ZM149.305 83.9508C154.114 73.2197 151.98 60.191 143.396 51.6034C134.809 43.0177 121.78 40.8841 111.049 45.6965C106.863 34.7066 96.1416 27 83.9979 27C71.8582 27 61.135 34.7066 56.9489 45.6965C46.2177 40.8841 33.191 43.0177 24.6034 51.6034C16.0177 60.191 13.8861 73.2217 18.6945 83.9508C7.7046 88.137 0 98.8582 0 111C0 123.144 7.7046 133.865 18.6945 138.051C13.8821 148.78 16.0157 161.811 24.6034 170.396C30.1783 175.971 37.6261 178.826 45.1015 178.826C50.6686 178.824 56.2574 177.24 61.0935 174.016H106.904C118.234 181.57 133.665 180.126 143.396 170.396C151.98 161.813 154.114 148.782 149.305 138.051C160.293 133.865 167.998 123.144 167.998 111C167.998 98.8582 160.293 88.137 149.305 83.9508Z" fill="#19194B"/>
<path fill-rule="evenodd" clip-rule="evenodd" d="M144.11 91.4592C142.755 91.1096 141.642 90.1455 141.107 88.8535L140.04 86.2813C139.507 84.9893 139.611 83.5215 140.321 82.3164C144.922 74.517 143.738 64.3134 137.211 57.7882C130.684 51.261 120.48 50.0776 112.685 54.6787C111.478 55.3899 110.01 55.4926 108.718 54.9572L106.146 53.8924C104.856 53.357 103.892 52.2468 103.542 50.8915C101.28 42.1241 93.2278 35.7471 83.9981 35.7471C74.7703 35.7471 66.718 42.1241 64.458 50.8915C64.1084 52.2468 63.1443 53.359 61.8503 53.8924L59.2801 54.9572C57.9704 55.5005 56.4907 55.3701 55.2698 54.6549C52.1307 52.8118 48.6063 51.907 45.0899 51.907C39.8725 51.907 34.6768 53.8983 30.7889 57.7882C24.2617 64.3153 23.0764 74.519 27.6775 82.3164C28.3906 83.5195 28.4953 84.9893 27.958 86.2813L26.8932 88.8535C26.3598 90.1455 25.2456 91.1096 23.8904 91.4592C15.1229 93.7192 8.7439 101.772 8.7439 111.001C8.7439 120.229 15.1229 128.281 23.8904 130.541C25.2456 130.891 26.3578 131.855 26.8932 133.147L27.958 135.719C28.4953 137.013 28.3906 138.481 27.6775 139.686C23.0764 147.484 24.2598 157.685 30.7889 164.212C37.8218 171.249 49.1338 172.077 57.0932 166.137L59.7069 165.269H108.289L110.903 166.137C118.868 172.075 130.176 171.249 137.211 164.212C143.738 157.687 144.922 147.484 140.321 139.684C139.611 138.479 139.507 137.011 140.04 135.719L141.107 133.147C141.642 131.855 142.755 130.891 144.11 130.541C152.875 128.281 159.254 120.229 159.254 111.001C159.254 101.772 152.875 93.7192 144.11 91.4592Z" fill="white"/>
<path fill-rule="evenodd" clip-rule="evenodd" d="M119.939 117.401C118.115 114.173 115.851 111.168 113.157 108.473L112.165 107.482C111.007 106.322 109.124 106.322 107.965 107.482L105.983 109.465C104.824 110.625 104.824 112.506 105.983 113.665L106.975 114.657C113.111 120.795 116.491 128.954 116.491 137.632C116.491 155.375 102.196 169.84 84.5152 170.118C66.5733 170.401 51.5079 155.576 51.5079 137.632C51.5079 128.954 54.888 120.795 61.026 114.657L62.0177 113.665C63.1774 112.506 63.1774 110.625 62.0177 109.465L60.0323 107.482C58.8727 106.322 56.9919 106.322 55.8323 107.482L54.8406 108.473C52.1479 111.168 49.884 114.173 48.0605 117.401C43.904 114.532 40.8814 110.155 39.7554 105.139H48.5762C50.2158 105.139 51.5454 103.811 51.5454 102.17V100.767C51.5454 96.4029 55.0836 92.8647 59.4495 92.8647C63.0727 92.8647 66.1209 95.3065 67.0514 98.6333C67.407 99.9016 68.5805 100.765 69.8962 100.765H73.5509C74.8666 100.765 76.0401 99.9016 76.3957 98.6333C77.3281 95.3065 80.3744 92.8647 83.9995 92.8647C87.6247 92.8647 90.6729 95.3065 91.6014 98.6333C91.957 99.9016 93.1325 100.765 94.4482 100.765H98.1009C99.4166 100.765 100.592 99.9016 100.948 98.6333C101.876 95.3065 104.924 92.8647 108.55 92.8647C112.914 92.8647 116.452 96.4029 116.452 100.767V102.17C116.452 103.811 117.781 105.139 119.423 105.139H128.244C127.116 110.155 124.095 114.532 119.939 117.401Z" fill="white"/>
<path fill-rule="evenodd" clip-rule="evenodd" d="M96.3167 118.961C93.8571 118.961 91.8618 120.954 91.8618 123.416C91.8618 125.875 93.8571 127.869 96.3167 127.869C98.7762 127.869 100.771 125.875 100.771 123.416C100.771 120.954 98.7762 118.961 96.3167 118.961Z" fill="#19194B"/>
<path fill-rule="evenodd" clip-rule="evenodd" d="M71.7651 118.961C69.3056 118.961 67.3103 120.954 67.3103 123.416C67.3103 125.875 69.3056 127.869 71.7651 127.869C74.2247 127.869 76.22 125.875 76.22 123.416C76.22 120.954 74.2247 118.961 71.7651 118.961Z" fill="#19194B"/>
<path fill-rule="evenodd" clip-rule="evenodd" d="M91.4224 162.956C91.4224 167.057 88.0975 170.38 83.9983 170.38C79.8991 170.38 76.5742 167.057 76.5742 162.956H91.4224Z" fill="#19194B"/>
<path fill-rule="evenodd" clip-rule="evenodd" d="M119.938 117.401C118.115 114.173 115.851 111.168 113.156 108.474L112.165 107.482C111.007 106.322 109.124 106.322 107.965 107.482L105.983 109.465C104.823 110.625 104.823 112.506 105.983 113.665L106.975 114.657C113.111 120.795 116.491 128.954 116.491 137.633C116.491 155.375 102.196 169.84 84.5149 170.118C66.573 170.401 51.5076 155.576 51.5076 137.633C51.5076 128.954 54.8877 120.795 61.0257 114.657L62.0175 113.665C63.1771 112.506 63.1771 110.625 62.0175 109.465L60.032 107.482C58.8724 106.322 56.9917 106.322 55.832 107.482L54.8403 108.474C52.1477 111.168 49.8837 114.173 48.0603 117.401C43.9037 114.533 40.8812 110.155 39.7551 105.139H48.5759C50.2156 105.139 51.5451 103.811 51.5451 102.17V100.767C51.5451 96.403 55.0833 92.8649 59.4493 92.8649C63.0724 92.8649 66.1206 95.3066 67.0511 98.6334C67.4067 99.9017 68.5802 100.765 69.8959 100.765H73.5507C74.8664 100.765 76.0398 99.9017 76.3954 98.6334C77.3279 95.3066 80.3742 92.8649 83.9993 92.8649C87.6244 92.8649 90.6726 95.3066 91.6011 98.6334C91.9567 99.9017 93.1322 100.765 94.4479 100.765H98.1007C99.4164 100.765 100.592 99.9017 100.947 98.6334C101.876 95.3066 104.924 92.8649 108.549 92.8649C112.913 92.8649 116.451 96.403 116.451 100.767V102.17C116.451 103.811 117.781 105.139 119.423 105.139H128.243C127.115 110.155 124.095 114.533 119.938 117.401ZM134.504 96.3932H124.614C122.69 89.3286 116.216 84.1191 108.549 84.1191C103.695 84.1191 99.3176 86.2073 96.2733 89.5321C93.229 86.2073 88.8532 84.1191 83.9993 84.1191C79.1454 84.1191 74.7696 86.2073 71.7233 89.5321C68.679 86.2073 64.3012 84.1191 59.4473 84.1191C51.7802 84.1191 45.3083 89.3286 43.3822 96.3932H33.4946C31.8549 96.3932 30.5254 97.7247 30.5254 99.3644V100.767C30.5254 111.107 36.128 120.396 44.5734 125.517C43.3131 129.638 42.6868 133.978 42.7698 138.423C43.1866 160.865 61.8041 179.002 84.2541 178.869C106.874 178.73 125.237 160.286 125.237 137.633C125.237 133.458 124.616 129.381 123.429 125.503C123.429 125.505 123.431 125.509 123.433 125.511C131.873 120.39 137.473 111.105 137.473 100.767V99.3644C137.473 97.7247 136.144 96.3932 134.504 96.3932Z" fill="#19194B"/>
<g filter="url(#failure-image-filter0_d_37967_6553)">
<mask id="failure-image-path-10-outside-1_37967_6553" maskUnits="userSpaceOnUse" x="110.091" y="-0.926421" width="90.0994" height="90.0994" fill="black">
<rect fill="white" x="110.091" y="-0.926421" width="90.0994" height="90.0994"/>
<path fill-rule="evenodd" clip-rule="evenodd" d="M159.475 75.8284C176.986 73.4343 189.24 57.2988 186.846 39.7886C184.452 22.2783 168.316 10.0242 150.805 12.4183C133.297 14.8121 121.042 30.9477 123.436 48.458C125.83 65.9682 141.966 78.2222 159.475 75.8284Z"/>
</mask>
<path d="M158.391 67.9021C154.013 68.5006 150.95 72.5345 151.548 76.9121C152.147 81.2896 156.181 84.3532 160.558 83.7547L158.391 67.9021ZM160.558 83.7547C164.936 83.1562 167.999 79.1223 167.401 74.7447C166.802 70.3672 162.769 67.3036 158.391 67.9021L160.558 83.7547ZM160.558 83.7547C182.447 80.7621 197.764 60.5927 194.772 38.7049L178.919 40.8722C180.715 54.0049 171.525 66.1065 158.391 67.9021L160.558 83.7547ZM194.772 38.7049C191.779 16.817 171.61 1.49944 149.722 4.49204L151.889 20.3446C165.023 18.5489 177.124 27.7396 178.919 40.8722L194.772 38.7049ZM149.722 4.49204C127.835 7.48432 112.517 27.6538 115.509 49.5417L131.362 47.3743C129.566 34.2417 138.758 22.1399 151.889 20.3446L149.722 4.49204ZM115.509 49.5417C118.502 71.4295 138.672 86.7469 160.558 83.7547L158.391 67.9021C145.26 69.6974 133.157 60.5069 131.362 47.3743L115.509 49.5417Z" fill="white" mask="url(#failure-image-path-10-outside-1_37967_6553)"/>
</g>
<circle cx="154.992" cy="44.01" r="32" transform="rotate(-7.78519 154.992 44.01)" fill="white"/>
<path d="M174.352 18.5143C160.269 7.83215 140.189 10.5882 129.502 24.6678C118.815 38.7474 121.57 58.8198 135.653 69.5019C149.728 80.1773 169.793 77.4339 180.485 63.3725C191.161 49.2864 188.417 29.2179 174.352 18.5143ZM168.611 50.9773C169.735 51.9303 169.874 53.6132 168.92 54.7372C168.041 55.773 166.524 55.9832 165.397 55.2271L156.049 48.1305C155.754 47.9096 155.337 47.9667 155.113 48.2585L148.015 57.6034C147.108 58.7534 145.456 58.9793 144.273 58.115C143.099 57.2254 142.87 55.5522 143.76 54.3776L143.762 54.3746L150.862 45.032C151.084 44.7405 151.029 44.3225 150.738 44.1011L150.735 44.0989L141.387 37.0023C140.255 36.0557 140.106 34.3742 141.053 33.243C141.933 32.191 143.469 31.9783 144.604 32.7522L153.949 39.8491C154.244 40.0727 154.662 40.0156 154.885 39.7211L161.985 30.3758C162.878 29.2035 164.552 28.9747 165.725 29.8672C166.897 30.7598 167.126 32.4331 166.236 33.605L159.136 42.9503C158.915 43.2444 158.972 43.6594 159.264 43.8834L168.611 50.9773Z" fill="url(#failure-image-paint0_linear_37967_6553)"/>
<defs>
<filter id="failure-image-filter0_d_37967_6553" x="107.136" y="0.118652" width="96.0095" height="96.0093" filterUnits="userSpaceOnUse" color-interpolation-filters="sRGB">
<feFlood flood-opacity="0" result="BackgroundImageFix"/>
<feColorMatrix in="SourceAlpha" type="matrix" values="0 0 0 0 0 0 0 0 0 0 0 0 0 0 0 0 0 0 127 0" result="hardAlpha"/>
<feOffset dy="4"/>
<feGaussianBlur stdDeviation="4"/>
<feColorMatrix type="matrix" values="0 0 0 0 0 0 0 0 0 0 0 0 0 0 0 0 0 0 0.24 0"/>
<feBlend mode="normal" in2="BackgroundImageFix" result="effect1_dropShadow_37967_6553"/>
<feBlend mode="normal" in="SourceGraphic" in2="effect1_dropShadow_37967_6553" result="shape"/>
</filter>
<linearGradient id="failure-image-paint0_linear_37967_6553" x1="150.657" y1="12.3049" x2="160.28" y2="142.705" gradientUnits="userSpaceOnUse">
<stop stop-color="#EB4B68"/>
<stop offset="1" stop-color="#CA365F"/>
</linearGradient>
</defs>
</svg>
