<svg 
  class="icon"
  viewBox="0 0 360 264" 
  fill="none" 
  xmlns="http://www.w3.org/2000/svg"
>
<rect x="117" y="58" width="126" height="166" rx="10.4865" fill="white" stroke="#19194B" stroke-width="8"/>
<rect x="146.875" y="58.7341" width="102" height="142" rx="3.89189" transform="rotate(12.674 146.875 58.7341)" fill="#DFE1E6"/>
<rect x="140.028" y="62" width="102" height="142" rx="3.89189" transform="rotate(7.70084 140.028 62)" fill="#F4F5F7"/>
<rect x="130" y="66" width="100" height="140" rx="2.89189" fill="white" stroke="#EBECF0" stroke-width="2"/>
<path d="M143.52 96.4798C143.52 95.0618 144.67 93.9122 146.088 93.9122H158.284C159.702 93.9122 160.851 95.0618 160.851 96.4798V108.676C160.851 110.094 159.702 111.243 158.284 111.243H146.088C144.67 111.243 143.52 110.094 143.52 108.676V96.4798Z" fill="white"/>
<path fill-rule="evenodd" clip-rule="evenodd" d="M142 96.6686C142 94.6425 143.642 93 145.669 93H157.791C159.817 93 161.459 94.6425 161.459 96.6686V108.791C161.459 110.817 159.817 112.459 157.791 112.459H145.669C143.642 112.459 142 110.817 142 108.791V96.6686Z" fill="#00A0DF"/>
<path d="M153.02 98.2722C152.901 98.187 152.753 98.1525 152.609 98.1763C152.465 98.2001 152.336 98.2802 152.251 98.399L147.095 105.592L145.373 103.869C145.322 103.818 145.261 103.777 145.195 103.749C145.128 103.721 145.056 103.707 144.984 103.707C144.911 103.707 144.84 103.721 144.773 103.749C144.706 103.777 144.645 103.817 144.594 103.869C144.543 103.92 144.502 103.981 144.474 104.047C144.447 104.114 144.432 104.186 144.432 104.258C144.432 104.331 144.447 104.403 144.474 104.47C144.502 104.536 144.543 104.597 144.594 104.648L146.774 106.83C146.831 106.885 146.9 106.927 146.975 106.954C147.049 106.981 147.129 106.991 147.208 106.985C147.287 106.978 147.364 106.955 147.434 106.916C147.503 106.878 147.564 106.825 147.612 106.761L153.147 99.0416C153.232 98.9228 153.266 98.775 153.243 98.6307C153.219 98.4864 153.139 98.3574 153.02 98.2722Z" fill="#00A0DF"/>
<path fill-rule="evenodd" clip-rule="evenodd" d="M155.811 97.1094C155.981 96.8715 156.239 96.711 156.528 96.6634C156.817 96.6158 157.113 96.6849 157.35 96.8555C157.588 97.0261 157.749 97.2842 157.796 97.573C157.844 97.8618 157.775 98.1577 157.604 98.3956L150.46 108.36L150.457 108.363C150.363 108.49 150.242 108.595 150.104 108.671C149.965 108.748 149.812 108.794 149.655 108.807C149.497 108.82 149.338 108.799 149.189 108.746C149.041 108.693 148.905 108.609 148.791 108.499L148.788 108.496L145.972 105.679C145.869 105.576 145.788 105.455 145.733 105.321C145.677 105.187 145.649 105.043 145.649 104.898C145.649 104.753 145.677 104.61 145.733 104.476C145.788 104.342 145.869 104.22 145.972 104.118C146.074 104.015 146.196 103.934 146.33 103.879C146.464 103.823 146.607 103.795 146.752 103.795C146.897 103.795 147.041 103.823 147.175 103.879C147.309 103.934 147.43 104.016 147.533 104.118L149.427 106.015L155.811 97.1094Z" fill="white"/>
<path d="M143.52 131.507C143.52 130.089 144.67 128.939 146.088 128.939H158.284C159.702 128.939 160.851 130.089 160.851 131.507V143.703C160.851 145.121 159.702 146.27 158.284 146.27H146.088C144.67 146.27 143.52 145.121 143.52 143.703V131.507Z" fill="white"/>
<path fill-rule="evenodd" clip-rule="evenodd" d="M142 131.696C142 129.669 143.642 128.027 145.669 128.027H157.791C159.817 128.027 161.459 129.669 161.459 131.696V143.818C161.459 145.844 159.817 147.486 157.791 147.486H145.669C143.642 147.486 142 145.844 142 143.818V131.696Z" fill="#00A0DF"/>
<path d="M153.02 133.299C152.901 133.214 152.753 133.179 152.609 133.203C152.465 133.227 152.336 133.307 152.251 133.426L147.095 140.619L145.373 138.896C145.322 138.845 145.261 138.804 145.195 138.776C145.128 138.748 145.056 138.734 144.984 138.734C144.911 138.734 144.84 138.748 144.773 138.776C144.706 138.804 144.645 138.844 144.594 138.896C144.543 138.947 144.502 139.008 144.474 139.074C144.447 139.141 144.432 139.213 144.432 139.285C144.432 139.358 144.447 139.43 144.474 139.496C144.502 139.563 144.543 139.624 144.594 139.675L146.774 141.857C146.831 141.912 146.9 141.954 146.975 141.981C147.049 142.008 147.129 142.018 147.208 142.012C147.287 142.005 147.364 141.982 147.434 141.943C147.503 141.905 147.564 141.852 147.612 141.788L153.147 134.069C153.232 133.95 153.266 133.802 153.243 133.658C153.219 133.513 153.139 133.384 153.02 133.299Z" fill="#00A0DF"/>
<path fill-rule="evenodd" clip-rule="evenodd" d="M155.811 132.136C155.981 131.898 156.239 131.738 156.528 131.69C156.817 131.643 157.113 131.712 157.35 131.882C157.588 132.053 157.749 132.311 157.796 132.6C157.844 132.889 157.775 133.185 157.604 133.423L150.46 143.387L150.457 143.39C150.363 143.517 150.242 143.622 150.104 143.698C149.965 143.775 149.812 143.821 149.655 143.834C149.497 143.847 149.338 143.826 149.189 143.773C149.041 143.72 148.905 143.636 148.791 143.526L148.788 143.523L145.972 140.706C145.869 140.603 145.788 140.482 145.733 140.348C145.677 140.214 145.649 140.07 145.649 139.925C145.649 139.78 145.677 139.637 145.733 139.503C145.788 139.369 145.869 139.247 145.972 139.145C146.074 139.042 146.196 138.961 146.33 138.906C146.464 138.85 146.607 138.822 146.752 138.822C146.897 138.822 147.041 138.85 147.175 138.906C147.309 138.961 147.43 139.043 147.533 139.145L149.427 141.042L155.811 132.136Z" fill="white"/>
<path d="M143.52 166.534C143.52 165.116 144.67 163.966 146.088 163.966H158.284C159.702 163.966 160.851 165.116 160.851 166.534V178.73C160.851 180.148 159.702 181.297 158.284 181.297H146.088C144.67 181.297 143.52 180.148 143.52 178.73V166.534Z" fill="white"/>
<path fill-rule="evenodd" clip-rule="evenodd" d="M142 166.723C142 164.697 143.642 163.054 145.669 163.054H157.791C159.817 163.054 161.459 164.697 161.459 166.723V178.845C161.459 180.871 159.817 182.514 157.791 182.514H145.669C143.642 182.514 142 180.871 142 178.845V166.723Z" fill="#00A0DF"/>
<path d="M153.02 168.326C152.901 168.241 152.753 168.207 152.609 168.23C152.465 168.254 152.336 168.334 152.251 168.453L147.095 175.647L145.373 173.923C145.322 173.872 145.261 173.831 145.195 173.803C145.128 173.776 145.056 173.761 144.984 173.761C144.911 173.761 144.84 173.775 144.773 173.803C144.706 173.831 144.645 173.871 144.594 173.923C144.543 173.974 144.502 174.035 144.474 174.102C144.447 174.168 144.432 174.24 144.432 174.313C144.432 174.385 144.447 174.457 144.474 174.524C144.502 174.591 144.543 174.651 144.594 174.703L146.774 176.884C146.831 176.939 146.9 176.981 146.975 177.008C147.049 177.035 147.129 177.045 147.208 177.039C147.287 177.032 147.364 177.009 147.434 176.971C147.503 176.932 147.564 176.879 147.612 176.816L153.147 169.096C153.232 168.977 153.266 168.829 153.243 168.685C153.219 168.54 153.139 168.412 153.02 168.326Z" fill="#00A0DF"/>
<path fill-rule="evenodd" clip-rule="evenodd" d="M155.811 167.163C155.981 166.925 156.239 166.765 156.528 166.717C156.817 166.67 157.113 166.739 157.35 166.909C157.588 167.08 157.749 167.338 157.796 167.627C157.844 167.916 157.775 168.212 157.604 168.45L150.46 178.414L150.457 178.417C150.363 178.544 150.242 178.649 150.104 178.725C149.965 178.802 149.812 178.848 149.655 178.861C149.497 178.874 149.338 178.853 149.189 178.8C149.041 178.747 148.905 178.663 148.791 178.553L148.788 178.55L145.972 175.733C145.869 175.63 145.788 175.509 145.733 175.375C145.677 175.241 145.649 175.097 145.649 174.952C145.649 174.807 145.677 174.664 145.733 174.53C145.788 174.396 145.869 174.274 145.972 174.172C146.074 174.069 146.196 173.988 146.33 173.933C146.464 173.877 146.607 173.849 146.752 173.849C146.897 173.849 147.041 173.877 147.175 173.933C147.309 173.988 147.43 174.07 147.533 174.172L149.427 176.069L155.811 167.163Z" fill="white"/>
<rect x="166.811" y="96.892" width="29.1892" height="3.89189" rx="1.94595" fill="#EBECF0"/>
<rect x="166.811" y="104.676" width="50.5946" height="3.89189" rx="1.94595" fill="#EBECF0"/>
<rect x="166.811" y="131.919" width="29.1892" height="3.89189" rx="1.94595" fill="#EBECF0"/>
<rect x="166.811" y="139.703" width="50.5946" height="3.89189" rx="1.94595" fill="#EBECF0"/>
<rect x="166.811" y="166.946" width="29.1892" height="3.89189" rx="1.94595" fill="#EBECF0"/>
<rect x="166.811" y="174.73" width="50.5946" height="3.89189" rx="1.94595" fill="#EBECF0"/>
<path d="M199.75 50.4C196.989 50.4 194.83 48.0974 193.899 45.4978C193.194 43.5315 192.068 41.7247 190.576 40.2177C187.904 37.5171 184.279 36 180.5 36C176.721 36 173.096 37.5171 170.424 40.2177C168.932 41.7247 167.806 43.5315 167.101 45.4978C166.17 48.0974 164.011 50.4 161.25 50.4H148.974C145.551 50.4 143.14 53.7629 144.239 57.0052L148.849 70.6052C149.537 72.6346 151.442 74 153.585 74H207.415C209.558 74 211.463 72.6346 212.151 70.6052L216.761 57.0052C217.86 53.7629 215.449 50.4 212.026 50.4H199.75Z" fill="url(#paint0_linear)"/>
<circle cx="180.5" cy="47.5" r="4.78788" fill="white" stroke="#19194B" stroke-width="3.42424"/>
<rect x="160" y="59" width="41" height="2" rx="1" fill="#F4F5F7"/>
<rect x="165" y="63" width="32" height="2" rx="1" fill="#F4F5F7"/>
<rect x="169" y="67" width="24" height="2" rx="1" fill="#F4F5F7"/>
<g filter="url(#filter0_d)">
<mask id="path-28-outside-1" maskUnits="userSpaceOnUse" x="147.803" y="132.719" width="135.499" height="124.005" fill="black">
<rect fill="white" x="147.803" y="132.719" width="135.499" height="124.005"/>
<path fill-rule="evenodd" clip-rule="evenodd" d="M260.904 172.13L253.936 178.136L253.936 178.136L192.385 231.196L192.385 231.195L192.385 231.196L192.385 231.195L168.332 239.459C165.738 240.35 163.385 237.62 164.648 235.186L176.367 212.614L176.367 212.614L181.012 208.61L181.012 208.61L243.724 154.549L243.724 154.549L254.219 145.501C256.761 143.31 260.597 143.594 262.788 146.136L270.872 155.513C273.063 158.055 272.779 161.892 270.237 164.083L264.387 169.125L264.388 169.126L260.904 172.13L260.904 172.13Z"/>
</mask>
<path fill-rule="evenodd" clip-rule="evenodd" d="M260.904 172.13L253.936 178.136L253.936 178.136L192.385 231.196L192.385 231.195L192.385 231.196L192.385 231.195L168.332 239.459C165.738 240.35 163.385 237.62 164.648 235.186L176.367 212.614L176.367 212.614L181.012 208.61L181.012 208.61L243.724 154.549L243.724 154.549L254.219 145.501C256.761 143.31 260.597 143.594 262.788 146.136L270.872 155.513C273.063 158.055 272.779 161.892 270.237 164.083L264.387 169.125L264.388 169.126L260.904 172.13L260.904 172.13Z" fill="white"/>
<path d="M253.936 178.136L249.394 182.051C251.556 184.559 255.342 184.84 257.85 182.678L253.936 178.136ZM260.904 172.13L264.818 176.671C267.327 174.509 267.607 170.723 265.445 168.215L260.904 172.13ZM253.936 178.136L258.477 174.221C256.315 171.713 252.529 171.433 250.021 173.595L253.936 178.136ZM192.385 231.196L187.843 235.11C188.882 236.315 190.356 237.058 191.942 237.175C193.528 237.293 195.095 236.775 196.3 235.737L192.385 231.196ZM192.385 231.195L196.926 227.281C194.764 224.772 190.978 224.492 188.47 226.654L192.385 231.195ZM192.385 231.196L187.843 235.11C190.005 237.619 193.791 237.899 196.299 235.737L192.385 231.196ZM192.385 231.195L196.926 227.281C195.325 225.424 192.755 224.728 190.436 225.525L192.385 231.195ZM168.332 239.459L170.28 245.13L170.28 245.13L168.332 239.459ZM164.648 235.186L159.327 232.424L159.327 232.424L164.648 235.186ZM176.367 212.614L181.688 215.377C182.818 213.201 182.509 210.556 180.908 208.699L176.367 212.614ZM176.367 212.614L172.452 208.073C169.944 210.235 169.663 214.021 171.825 216.529L176.367 212.614ZM181.012 208.61L185.553 204.695C183.391 202.187 179.605 201.906 177.097 204.068L181.012 208.61ZM181.012 208.61L176.471 212.525C178.633 215.033 182.419 215.313 184.927 213.151L181.012 208.61ZM243.724 154.549L247.639 159.091C248.844 158.052 249.586 156.578 249.704 154.992C249.821 153.407 249.304 151.839 248.266 150.634L243.724 154.549ZM243.724 154.549L239.809 150.007C238.604 151.045 237.862 152.52 237.744 154.106C237.627 155.691 238.144 157.259 239.182 158.463L243.724 154.549ZM254.219 145.501L258.134 150.043L254.219 145.501ZM262.788 146.136L267.33 142.221L262.788 146.136ZM270.872 155.513L266.33 159.428L270.872 155.513ZM264.387 169.125L260.472 164.584C257.964 166.746 257.683 170.532 259.845 173.04L264.387 169.125ZM264.388 169.126L268.302 173.668C270.811 171.506 271.091 167.72 268.929 165.211L264.388 169.126ZM260.904 172.13L256.989 167.588C254.48 169.75 254.2 173.536 256.362 176.045L260.904 172.13ZM257.85 182.678L264.818 176.671L256.989 167.588L250.021 173.595L257.85 182.678ZM249.394 182.051L249.394 182.051L258.477 174.221L258.477 174.221L249.394 182.051ZM196.3 235.737L257.85 182.678L250.021 173.595L188.47 226.654L196.3 235.737ZM187.843 235.11L187.843 235.11L196.926 227.281L196.926 227.281L187.843 235.11ZM188.47 226.654L188.47 226.654L196.299 235.737L196.3 235.737L188.47 226.654ZM196.926 227.281L196.926 227.281L187.843 235.11L187.843 235.11L196.926 227.281ZM170.28 245.13L194.333 236.866L190.436 225.525L166.384 233.789L170.28 245.13ZM159.327 232.424C155.569 239.661 162.568 247.78 170.28 245.13L166.384 233.789C168.909 232.921 171.2 235.579 169.97 237.949L159.327 232.424ZM171.045 209.852L159.327 232.424L169.97 237.949L181.688 215.377L171.045 209.852ZM180.908 208.699L180.908 208.699L171.825 216.529L171.825 216.529L180.908 208.699ZM180.282 217.156L184.927 213.151L177.097 204.068L172.452 208.073L180.282 217.156ZM176.471 212.525L176.471 212.525L185.554 204.695L185.553 204.695L176.471 212.525ZM239.809 150.008L177.097 204.068L184.927 213.151L247.639 159.091L239.809 150.008ZM239.182 158.463L239.183 158.464L248.266 150.634L248.265 150.634L239.182 158.463ZM250.304 140.96L239.809 150.007L247.639 159.09L258.134 150.043L250.304 140.96ZM267.33 142.221C262.976 137.171 255.354 136.607 250.304 140.96L258.134 150.043C258.144 150.034 258.15 150.03 258.152 150.029C258.154 150.028 258.156 150.027 258.159 150.026C258.164 150.025 258.176 150.022 258.192 150.023C258.208 150.025 258.22 150.029 258.225 150.031C258.227 150.032 258.229 150.033 258.231 150.035C258.233 150.036 258.238 150.041 258.247 150.051L267.33 142.221ZM275.413 151.598L267.33 142.221L258.247 150.051L266.33 159.428L275.413 151.598ZM274.152 168.624C279.202 164.271 279.766 156.648 275.413 151.598L266.33 159.428C266.339 159.438 266.343 159.444 266.344 159.446C266.345 159.449 266.346 159.451 266.347 159.453C266.348 159.458 266.351 159.47 266.35 159.486C266.348 159.503 266.344 159.514 266.342 159.519C266.341 159.521 266.339 159.523 266.338 159.525C266.336 159.527 266.332 159.532 266.322 159.541L274.152 168.624ZM268.302 173.667L274.152 168.624L266.322 159.541L260.472 164.584L268.302 173.667ZM268.929 165.211L268.928 165.211L259.845 173.04L259.846 173.041L268.929 165.211ZM264.818 176.671L268.302 173.668L260.473 164.585L256.989 167.588L264.818 176.671ZM265.445 168.215L265.445 168.215L256.362 176.045L256.362 176.045L265.445 168.215Z" fill="white" mask="url(#path-28-outside-1)"/>
</g>
<path d="M264.388 169.127L192.385 231.196L176.367 212.614L248.37 150.545L264.388 169.127Z" fill="#FADD7F"/>
<path d="M270.871 155.513C273.062 158.055 272.778 161.892 270.237 164.083L259.741 173.13L243.723 154.549L254.219 145.501C256.76 143.31 260.597 143.594 262.788 146.136L270.871 155.513Z" fill="#F99493"/>
<path d="M260.904 172.13L253.936 178.137L237.918 159.555L244.886 153.549L260.904 172.13Z" fill="#EBECF0"/>
<path d="M263.226 170.128L260.904 172.13L244.886 153.549L247.208 151.546L263.226 170.128Z" fill="#EB4B68"/>
<path d="M258.581 174.132L256.258 176.134L240.24 157.553L242.563 155.551L258.581 174.132Z" fill="#DFE1E6"/>
<path d="M253.936 178.136L251.613 180.139L235.595 161.557L237.918 159.555L253.936 178.136Z" fill="#F6C770"/>
<path d="M243.764 168.686L245.767 171.008L185.377 223.066L183.375 220.744L243.764 168.686Z" fill="#F6C770"/>
<path d="M192.385 231.196L176.367 212.614L164.649 235.187C163.385 237.621 165.738 240.351 168.332 239.46L192.385 231.196Z" fill="#FFCEBF"/>
<mask id="mask0" mask-type="alpha" maskUnits="userSpaceOnUse" x="164" y="212" width="29" height="28">
<path d="M192.385 231.196L176.367 212.614L164.649 235.187C163.385 237.621 165.738 240.351 168.332 239.46L192.385 231.196Z" fill="#FFCEBF"/>
</mask>
<g mask="url(#mask0)">
<rect x="180.771" y="241.207" width="15.3328" height="33.7321" transform="rotate(139.237 180.771 241.207)" fill="#344563"/>
</g>
<mask id="mask1" mask-type="alpha" maskUnits="userSpaceOnUse" x="176" y="208" width="22" height="24">
<rect x="197.03" y="227.191" width="6.13311" height="24.5324" transform="rotate(139.237 197.03 227.191)" fill="#C4C4C4"/>
</mask>
<g mask="url(#mask1)">
<path fill-rule="evenodd" clip-rule="evenodd" d="M184.665 221.656C182.901 223.176 183.264 226.488 185.476 229.054C187.688 231.62 190.91 232.467 192.674 230.946C194.438 229.426 194.075 226.113 191.863 223.548C189.652 220.982 186.429 220.135 184.665 221.656ZM176.657 212.364C174.894 213.884 175.257 217.197 177.468 219.762C179.68 222.328 182.902 223.175 184.666 221.654C186.43 220.134 186.067 216.822 183.855 214.256C181.644 211.69 178.421 210.843 176.657 212.364Z" fill="#FFCEBF"/>
</g>
<defs>
<filter id="filter0_d" x="150.281" y="134.031" width="136.061" height="123.612" filterUnits="userSpaceOnUse" color-interpolation-filters="sRGB">
<feFlood flood-opacity="0" result="BackgroundImageFix"/>
<feColorMatrix in="SourceAlpha" type="matrix" values="0 0 0 0 0 0 0 0 0 0 0 0 0 0 0 0 0 0 127 0"/>
<feOffset dy="4"/>
<feGaussianBlur stdDeviation="4"/>
<feColorMatrix type="matrix" values="0 0 0 0 0 0 0 0 0 0 0 0 0 0 0 0 0 0 0.24 0"/>
<feBlend mode="normal" in2="BackgroundImageFix" result="effect1_dropShadow"/>
<feBlend mode="normal" in="SourceGraphic" in2="effect1_dropShadow" result="shape"/>
</filter>
<linearGradient id="paint0_linear" x1="180.5" y1="36" x2="180.5" y2="74" gradientUnits="userSpaceOnUse">
<stop stop-color="#DFE1E6"/>
<stop offset="1" stop-color="#EBECF0"/>
</linearGradient>
</defs>
</svg>
