<svg class="icon" viewBox="0 0 48 48" fill="none" xmlns="http://www.w3.org/2000/svg">
<rect width="48" height="48" rx="14" fill="url(#finance-paint0_linear)"/>
<path d="M33 15C33 14.2044 32.6839 13.4413 32.1213 12.8787C31.5587 12.3161 30.7956 12 30 12H18C17.2044 12 16.4413 12.3161 15.8787 12.8787C15.3161 13.4413 15 14.2044 15 15V33C15 33.7956 15.3161 34.5587 15.8787 35.1213C16.4413 35.6839 17.2044 36 18 36H30C30.7956 36 31.5587 35.6839 32.1213 35.1213C32.6839 34.5587 33 33.7956 33 33V15ZM24 26C24.1978 26 24.3911 26.0586 24.5556 26.1685C24.72 26.2784 24.8482 26.4346 24.9239 26.6173C24.9996 26.8 25.0194 27.0011 24.9808 27.1951C24.9422 27.3891 24.847 27.5673 24.7071 27.7071C24.5673 27.847 24.3891 27.9422 24.1951 27.9808C24.0011 28.0194 23.8 27.9996 23.6173 27.9239C23.4346 27.8482 23.2784 27.72 23.1685 27.5556C23.0586 27.3911 23 27.1978 23 27C23 26.7348 23.1054 26.4804 23.2929 26.2929C23.4804 26.1054 23.7348 26 24 26ZM23 22.5C23 22.3022 23.0586 22.1089 23.1685 21.9444C23.2784 21.78 23.4346 21.6518 23.6173 21.5761C23.8 21.5004 24.0011 21.4806 24.1951 21.5192C24.3891 21.5578 24.5673 21.653 24.7071 21.7929C24.847 21.9327 24.9422 22.1109 24.9808 22.3049C25.0194 22.4989 24.9996 22.7 24.9239 22.8827C24.8482 23.0654 24.72 23.2216 24.5556 23.3315C24.3911 23.4414 24.1978 23.5 24 23.5C23.7348 23.5 23.4804 23.3946 23.2929 23.2071C23.1054 23.0196 23 22.7652 23 22.5ZM28.5 30.75C28.6989 30.75 28.8897 30.829 29.0303 30.9697C29.171 31.1103 29.25 31.3011 29.25 31.5C29.25 31.6989 29.171 31.8897 29.0303 32.0303C28.8897 32.171 28.6989 32.25 28.5 32.25H23C22.8011 32.25 22.6103 32.171 22.4697 32.0303C22.329 31.8897 22.25 31.6989 22.25 31.5C22.25 31.3011 22.329 31.1103 22.4697 30.9697C22.6103 30.829 22.8011 30.75 23 30.75H28.5ZM28.5 28C28.3022 28 28.1089 27.9414 27.9444 27.8315C27.78 27.7216 27.6518 27.5654 27.5761 27.3827C27.5004 27.2 27.4806 26.9989 27.5192 26.8049C27.5578 26.6109 27.653 26.4327 27.7929 26.2929C27.9327 26.153 28.1109 26.0578 28.3049 26.0192C28.4989 25.9806 28.7 26.0004 28.8827 26.0761C29.0654 26.1518 29.2216 26.28 29.3315 26.4444C29.4414 26.6089 29.5 26.8022 29.5 27C29.5 27.2652 29.3946 27.5196 29.2071 27.7071C29.0196 27.8946 28.7652 28 28.5 28ZM28.5 23.5C28.3022 23.5 28.1089 23.4414 27.9444 23.3315C27.78 23.2216 27.6518 23.0654 27.5761 22.8827C27.5004 22.7 27.4806 22.4989 27.5192 22.3049C27.5578 22.1109 27.653 21.9327 27.7929 21.7929C27.9327 21.653 28.1109 21.5578 28.3049 21.5192C28.4989 21.4806 28.7 21.5004 28.8827 21.5761C29.0654 21.6518 29.2216 21.78 29.3315 21.9444C29.4414 22.1089 29.5 22.3022 29.5 22.5C29.5 22.7652 29.3946 23.0196 29.2071 23.2071C29.0196 23.3946 28.7652 23.5 28.5 23.5ZM19.5 28C19.3022 28 19.1089 27.9414 18.9444 27.8315C18.78 27.7216 18.6518 27.5654 18.5761 27.3827C18.5004 27.2 18.4806 26.9989 18.5192 26.8049C18.5578 26.6109 18.653 26.4327 18.7929 26.2929C18.9327 26.153 19.1109 26.0578 19.3049 26.0192C19.4989 25.9806 19.7 26.0004 19.8827 26.0761C20.0654 26.1518 20.2216 26.28 20.3315 26.4444C20.4414 26.6089 20.5 26.8022 20.5 27C20.5 27.2652 20.3946 27.5196 20.2071 27.7071C20.0196 27.8946 19.7652 28 19.5 28ZM20.5 31.5C20.5 31.6978 20.4414 31.8911 20.3315 32.0556C20.2216 32.22 20.0654 32.3482 19.8827 32.4239C19.7 32.4996 19.4989 32.5194 19.3049 32.4808C19.1109 32.4422 18.9327 32.347 18.7929 32.2071C18.653 32.0673 18.5578 31.8891 18.5192 31.6951C18.4806 31.5011 18.5004 31.3 18.5761 31.1173C18.6518 30.9346 18.78 30.7784 18.9444 30.6685C19.1089 30.5586 19.3022 30.5 19.5 30.5C19.7652 30.5 20.0196 30.6054 20.2071 30.7929C20.3946 30.9804 20.5 31.2348 20.5 31.5ZM19.5 23.5C19.3022 23.5 19.1089 23.4414 18.9444 23.3315C18.78 23.2216 18.6518 23.0654 18.5761 22.8827C18.5004 22.7 18.4806 22.4989 18.5192 22.3049C18.5578 22.1109 18.653 21.9327 18.7929 21.7929C18.9327 21.653 19.1109 21.5578 19.3049 21.5192C19.4989 21.4806 19.7 21.5004 19.8827 21.5761C20.0654 21.6518 20.2216 21.78 20.3315 21.9444C20.4414 22.1089 20.5 22.3022 20.5 22.5C20.5 22.7652 20.3946 23.0196 20.2071 23.2071C20.0196 23.3946 19.7652 23.5 19.5 23.5ZM18 14H30C30.2652 14 30.5196 14.1054 30.7071 14.2929C30.8946 14.4804 31 14.7348 31 15V18.25C31 18.3163 30.9737 18.3799 30.9268 18.4268C30.8799 18.4737 30.8163 18.5 30.75 18.5H17.25C17.1837 18.5 17.1201 18.4737 17.0732 18.4268C17.0263 18.3799 17 18.3163 17 18.25V15C17 14.7348 17.1054 14.4804 17.2929 14.2929C17.4804 14.1054 17.7348 14 18 14Z" fill="white"/>
<defs>
<linearGradient id="finance-paint0_linear" x1="24" y1="0" x2="24" y2="48" gradientUnits="userSpaceOnUse">
<stop stop-color="#E99B26"/>
<stop offset="1" stop-color="#C87C1B"/>
</linearGradient>
</defs>
</svg>
