<svg class="icon"
     viewBox="0 0 24 24"
     fill="none"
     xmlns="http://www.w3.org/2000/svg"
>
  <path d="M11.1214 0.147063C10.886 0.0215781 10.6167 -0.0253776 10.3527 0.0130505C10.0887 0.0514786 9.84395 0.173278 9.6541 0.360669C9.46426 0.548059 9.33928 0.791227 9.29742 1.05467C9.25555 1.31812 9.299 1.58805 9.42141 1.82506C10.148 3.24838 10.53 4.8225 10.5366 6.42054C10.5432 8.01857 10.1742 9.59579 9.45941 11.0251C9.43752 11.064 9.40555 11.0964 9.36685 11.1188C9.32814 11.1412 9.28412 11.1527 9.23942 11.1522C9.19472 11.1517 9.15098 11.1391 9.1128 11.1159C9.07461 11.0926 9.04339 11.0595 9.02241 11.0201C8.75843 10.5283 8.56966 9.99978 8.46241 9.45206C8.43643 9.32615 8.3787 9.20897 8.29469 9.11166C8.21068 9.01435 8.10318 8.94013 7.98241 8.89606C7.8617 8.85184 7.73162 8.83955 7.60477 8.8604C7.47791 8.88125 7.3586 8.93453 7.25841 9.01506C5.85882 10.131 4.83979 11.6536 4.34171 13.3729C3.84364 15.0923 3.89105 16.9238 4.47741 18.6151C5.03096 20.2071 6.08486 21.5772 7.48159 22.5206C8.87832 23.464 10.5429 23.93 12.2264 23.8491C16.4554 23.8491 19.4124 21.7041 20.3424 17.9671C21.7214 12.4501 18.3374 3.97106 11.1214 0.147063ZM15.8584 18.0251C15.7381 18.852 15.3098 19.603 14.6593 20.1276C14.0088 20.6522 13.1841 20.9117 12.3504 20.8541C11.55 20.8544 10.7751 20.5728 10.1616 20.0588C9.54811 19.5448 9.13522 18.8311 8.99541 18.0431C8.98075 17.9614 8.98662 17.8774 9.01251 17.7986C9.03839 17.7198 9.08347 17.6487 9.14368 17.5917C9.20389 17.5347 9.27734 17.4935 9.35742 17.4719C9.4375 17.4503 9.52169 17.449 9.60241 17.4681C10.1036 17.4601 10.5949 17.327 11.0316 17.0807C11.4682 16.8345 11.8363 16.4829 12.1024 16.0581C12.4072 15.7354 12.6122 15.3315 12.6926 14.895C12.7729 14.4585 12.7253 14.0081 12.5554 13.5981C12.5053 13.5087 12.4838 13.4061 12.4939 13.3042C12.504 13.2023 12.5452 13.1059 12.6118 13.0281C12.6785 12.9503 12.7674 12.8949 12.8666 12.8693C12.9658 12.8437 13.0704 12.8492 13.1664 12.8851C14.1229 13.3203 14.907 14.0621 15.3945 14.9931C15.8821 15.924 16.0453 16.9909 15.8584 18.0251Z"
        fill="#00A0DF"
  />
</svg>
