<svg class="icon"
     viewBox="0 0 40 40"
     fill="none"
     xmlns="http://www.w3.org/2000/svg"
>
    <path fill-rule="evenodd" clip-rule="evenodd" d="M35.2301 21.9108C34.9025 20.424 34.4009 19.1503 33.7597 18.2233C33.5496 17.9196 33.5707 17.498 33.8459 17.2518C34.1211 17.0055 34.546 17.0277 34.763 17.3265C35.5915 18.4676 36.1741 19.9808 36.5359 21.623C36.9586 23.5413 37.0939 25.6979 36.9362 27.7825C36.7787 29.8641 36.3265 31.9068 35.5495 33.5853C34.6848 35.0811 34.0162 35.7497 32.2587 36.3705C30.7663 36.9674 29.4762 36.9077 28.34 36.3946C27.2396 35.8976 26.3451 35.0021 25.5611 34.0527C25.1656 33.5737 24.7852 33.0645 24.4154 32.5662C24.3875 32.5287 24.3597 32.4912 24.3319 32.4538C23.9881 31.9903 23.6529 31.5384 23.309 31.1097C22.7353 30.3946 22.1682 29.7845 21.5649 29.3425C21.267 29.1243 21.1401 28.7215 21.3128 28.3951C21.4856 28.0688 21.8924 27.9422 22.1966 28.1514C23.0166 28.7155 23.7182 29.4829 24.352 30.273C24.7126 30.7224 25.0625 31.1942 25.4032 31.6534C25.4319 31.6921 25.4605 31.7308 25.4891 31.7693C25.8602 32.2692 26.2215 32.7524 26.5921 33.2012C27.3403 34.1071 28.0755 34.8079 28.8904 35.1759C29.6694 35.5277 30.5801 35.6017 31.7621 35.1289C32.8178 34.7066 33.2931 34.4433 34.1742 33.2472C34.2829 33.0996 34.3758 32.9404 34.4484 32.7721C35.0747 31.3198 35.4621 29.5417 35.6028 27.6816C35.7516 25.7156 35.6222 23.6906 35.2301 21.9108Z" fill="#344563"/>
    <path d="M26.6593 8.85593L28.5152 10.7119L29.2576 9.96948L27.4017 8.11356L23.6898 7L23.3186 7.74237L26.6593 8.85593Z" fill="#DFE1E6"/>
    <path fill-rule="evenodd" clip-rule="evenodd" d="M30.019 14.6775C30.0839 14.483 30.2941 14.3779 30.4885 14.4428L31.0945 14.6447C31.5492 14.7963 31.8559 15.2218 31.8559 15.7012V17.3932C31.8559 17.5982 31.6897 17.7644 31.4847 17.7644C31.2797 17.7644 31.1135 17.5982 31.1135 17.3932V15.7012C31.1135 15.5414 31.0113 15.3995 30.8597 15.349L30.2538 15.147C30.0593 15.0822 29.9542 14.872 30.019 14.6775Z" fill="#7A869A"/>
    <path fill-rule="evenodd" clip-rule="evenodd" d="M28.2629 11.2019C28.014 10.953 28.0653 10.5364 28.3672 10.3553L29.0406 9.95124C29.3863 9.74382 29.8288 9.7983 30.1138 10.0834C30.2786 10.2481 30.5021 10.3407 30.7351 10.3407H31.396C31.6879 10.3407 31.9652 10.4682 32.1552 10.6899L33.8423 12.6581C33.9976 12.8394 34.083 13.0702 34.083 13.3089V14.2476C34.083 14.3641 34.1034 14.4798 34.1432 14.5893L35.3004 17.7716C35.4528 18.1906 35.2668 18.6572 34.8681 18.8566L34.4651 19.0581C34.2541 19.1636 33.9975 19.0781 33.892 18.867C33.7908 18.6647 33.5495 18.5763 33.3416 18.6654L31.8948 19.2855C31.4443 19.4786 30.9203 19.3167 30.6572 18.9032L28.6716 15.783C28.5695 15.6225 28.5152 15.4363 28.5152 15.2461V14.7265C28.5152 14.5291 28.4568 14.3361 28.3473 14.1718L28.0647 13.7479C27.882 13.4739 27.8459 13.1275 27.9682 12.8218L28.3827 11.7855C28.4631 11.5846 28.416 11.355 28.2629 11.2019ZM32.3579 15.1002L32.9394 16.457C33.1693 16.9934 32.9676 17.617 32.4673 17.9172C31.9218 18.2445 31.2146 18.0746 30.8774 17.5351L30.3741 16.7298C29.9647 16.0747 30.1723 15.2112 30.8347 14.8137L31.0578 14.6798C31.3237 14.5203 31.6527 14.5077 31.93 14.6463C32.1218 14.7423 32.2735 14.9031 32.3579 15.1002Z" fill="url(#fuelcolor-paint0_linear)"/>
    <rect x="25" y="6" width="2" height="5" rx="1" fill="#344563"/>
    <rect x="4" y="38" width="20" height="2" rx="1" fill="#344563"/>
    <path d="M4 18H24L22 38H6L4 18Z" fill="url(#fuelcolor-paint1_linear)"/>
    <rect x="2" width="24" height="17" rx="2" fill="url(#fuelcolor-paint2_linear)"/>
    <rect x="4" y="2" width="20" height="13" rx="1" fill="#F4F5F7"/>
    <rect x="6" y="4" width="7" height="1" rx="0.5" fill="#344563"/>
    <rect x="6" y="6" width="5" height="1" rx="0.5" fill="#344563"/>
    <rect x="6" y="10" width="3" height="3" rx="1.5" fill="#344563"/>
    <rect x="10" y="10" width="3" height="3" rx="1.5" fill="#344563"/>
    <rect x="14" y="10" width="3" height="3" rx="1.5" fill="#344563"/>
    <rect x="4" y="38" width="20" height="2" rx="1" fill="#344563"/>
    <rect x="2" width="24" height="18" rx="2" fill="url(#fuelcolor-paint3_linear)"/>
    <rect x="4" y="2" width="20" height="14" rx="1" fill="#F4F5F7"/>
    <rect x="6" y="4" width="10" height="2" rx="1" fill="#7A869A"/>
    <rect x="6" y="8" width="5" height="2" rx="1" fill="#7A869A"/>
    <defs>
        <linearGradient id="fuelcolor-paint0_linear" x1="31.6251" y1="9.82602" x2="31.6251" y2="27.7144" gradientUnits="userSpaceOnUse">
            <stop stop-color="#FAC34B"/>
            <stop offset="1" stop-color="#E99B26"/>
        </linearGradient>
        <linearGradient id="fuelcolor-paint1_linear" x1="14" y1="15" x2="14" y2="45.9062" gradientUnits="userSpaceOnUse">
            <stop stop-color="#00A0DF"/>
            <stop offset="1" stop-color="#66C6EC"/>
        </linearGradient>
        <linearGradient id="fuelcolor-paint2_linear" x1="14" y1="0" x2="14" y2="22.8438" gradientUnits="userSpaceOnUse">
            <stop stop-color="#00A0DF"/>
            <stop offset="1" stop-color="#66C6EC"/>
        </linearGradient>
        <linearGradient id="fuelcolor-paint3_linear" x1="14" y1="0" x2="14" y2="24.1875" gradientUnits="userSpaceOnUse">
            <stop stop-color="#00A0DF"/>
            <stop offset="1" stop-color="#66C6EC"/>
        </linearGradient>
    </defs>
</svg>
