<svg class="icon" viewBox="0 0 40 40" fill="none" xmlns="http://www.w3.org/2000/svg">
<path d="M13 5H17.5C17.8978 5 18.2794 5.15804 18.5607 5.43934C18.842 5.72064 19 6.10218 19 6.5V10C19 10.2652 19.1054 10.5196 19.2929 10.7071C19.4804 10.8946 19.7348 11 20 11C20.2652 11 20.5196 10.8946 20.7071 10.7071C20.8946 10.5196 21 10.2652 21 10V6.5C21 5.57174 20.6313 4.6815 19.9749 4.02513C19.3185 3.36875 18.4283 3 17.5 3H13C12.7348 3 12.4804 3.10536 12.2929 3.29289C12.1054 3.48043 12 3.73478 12 4C12 4.26522 12.1054 4.51957 12.2929 4.70711C12.4804 4.89464 12.7348 5 13 5Z" fill="url(#gamepad-paint0_linear)"/>
<path d="M32.5 9H7.50002C5.5109 9 3.60324 9.79018 2.19672 11.1967C0.790199 12.6032 2.26525e-05 14.5109 2.26525e-05 16.5V33.0333C-0.00163955 33.4905 0.0881912 33.9433 0.264225 34.3652C0.440258 34.7872 0.698935 35.1696 1.02502 35.49C1.6839 36.1408 2.57389 36.504 3.50002 36.5H3.54835C6.79669 36.4566 7.29502 35.5 10.535 29.2317L11.74 26.9083C12.1093 26.2784 12.6366 25.7556 13.2696 25.3918C13.9027 25.0279 14.6198 24.8354 15.35 24.8333H24.6483C25.3683 24.833 26.076 25.0192 26.7025 25.3738C27.329 25.7284 27.853 26.2393 28.2233 26.8567C28.7583 27.88 29.2233 28.7917 29.645 29.6017C32.655 35.44 33.1983 36.5 36.4317 36.5C36.9005 36.5016 37.3649 36.4104 37.7983 36.2316C38.2317 36.0528 38.6254 35.79 38.9567 35.4583C39.287 35.1328 39.5493 34.7449 39.7284 34.3172C39.9075 33.8895 39.9998 33.4304 40 32.9667V16.5C40 14.5109 39.2098 12.6032 37.8033 11.1967C36.3968 9.79018 34.4891 9 32.5 9ZM12.0834 19H10.8334C10.6123 19 10.4004 19.0878 10.2441 19.2441C10.0878 19.4004 10 19.6123 10 19.8333V21.0833C10 21.4148 9.86832 21.7328 9.6339 21.9672C9.39948 22.2016 9.08154 22.3333 8.75002 22.3333C8.4185 22.3333 8.10056 22.2016 7.86614 21.9672C7.63171 21.7328 7.50002 21.4148 7.50002 21.0833V19.8333C7.50002 19.6123 7.41222 19.4004 7.25594 19.2441C7.09966 19.0878 6.8877 19 6.66669 19H5.41669C5.08517 19 4.76722 18.8683 4.5328 18.6339C4.29838 18.3995 4.16669 18.0815 4.16669 17.75C4.16669 17.4185 4.29838 17.1005 4.5328 16.8661C4.76722 16.6317 5.08517 16.5 5.41669 16.5H6.66669C6.8877 16.5 7.09966 16.4122 7.25594 16.2559C7.41222 16.0996 7.50002 15.8877 7.50002 15.6667V14.4167C7.50002 14.0851 7.63171 13.7672 7.86614 13.5328C8.10056 13.2984 8.4185 13.1667 8.75002 13.1667C9.08154 13.1667 9.39948 13.2984 9.6339 13.5328C9.86832 13.7672 10 14.0851 10 14.4167V15.6667C10 15.8877 10.0878 16.0996 10.2441 16.2559C10.4004 16.4122 10.6123 16.5 10.8334 16.5H12.0834C12.4149 16.5 12.7328 16.6317 12.9672 16.8661C13.2017 17.1005 13.3333 17.4185 13.3333 17.75C13.3333 18.0815 13.2017 18.3995 12.9672 18.6339C12.7328 18.8683 12.4149 19 12.0834 19ZM26.6667 19C26.337 19 26.0148 18.9022 25.7407 18.7191C25.4666 18.536 25.253 18.2757 25.1269 17.9711C25.0007 17.6666 24.9677 17.3315 25.032 17.0082C25.0963 16.6849 25.2551 16.3879 25.4882 16.1548C25.7213 15.9217 26.0182 15.763 26.3415 15.6987C26.6648 15.6344 26.9999 15.6674 27.3045 15.7935C27.609 15.9197 27.8693 16.1333 28.0525 16.4074C28.2356 16.6815 28.3333 17.0037 28.3333 17.3333C28.3333 17.7754 28.1577 18.1993 27.8452 18.5118C27.5326 18.8244 27.1087 19 26.6667 19ZM30.8333 22.3333C30.5037 22.3333 30.1815 22.2356 29.9074 22.0524C29.6333 21.8693 29.4197 21.609 29.2935 21.3045C29.1674 20.9999 29.1344 20.6648 29.1987 20.3415C29.263 20.0182 29.4217 19.7212 29.6548 19.4881C29.8879 19.2551 30.1849 19.0963 30.5082 19.032C30.8315 18.9677 31.1666 19.0007 31.4711 19.1269C31.7757 19.253 32.036 19.4666 32.2191 19.7407C32.4023 20.0148 32.5 20.337 32.5 20.6667C32.5 21.1087 32.3244 21.5326 32.0119 21.8452C31.6993 22.1577 31.2754 22.3333 30.8333 22.3333ZM30.8333 15.6667C30.5037 15.6667 30.1815 15.5689 29.9074 15.3858C29.6333 15.2026 29.4197 14.9423 29.2935 14.6378C29.1674 14.3333 29.1344 13.9981 29.1987 13.6748C29.263 13.3515 29.4217 13.0546 29.6548 12.8215C29.8879 12.5884 30.1849 12.4297 30.5082 12.3654C30.8315 12.301 31.1666 12.3341 31.4711 12.4602C31.7757 12.5863 32.036 12.8 32.2191 13.074C32.4023 13.3481 32.5 13.6704 32.5 14C32.5 14.442 32.3244 14.8659 32.0119 15.1785C31.6993 15.4911 31.2754 15.6667 30.8333 15.6667ZM35 19C34.6704 19 34.3481 18.9022 34.0741 18.7191C33.8 18.536 33.5863 18.2757 33.4602 17.9711C33.3341 17.6666 33.3011 17.3315 33.3654 17.0082C33.4297 16.6849 33.5884 16.3879 33.8215 16.1548C34.0546 15.9217 34.3515 15.763 34.6749 15.6987C34.9982 15.6344 35.3333 15.6674 35.6378 15.7935C35.9424 15.9197 36.2027 16.1333 36.3858 16.4074C36.5689 16.6815 36.6667 17.0037 36.6667 17.3333C36.6667 17.7754 36.4911 18.1993 36.1785 18.5118C35.866 18.8244 35.442 19 35 19Z" fill="url(#gamepad-paint1_linear)"/>
<path d="M10.8337 19.0013H12.0837C12.4152 19.0013 12.7331 18.8696 12.9675 18.6352C13.202 18.4008 13.3337 18.0828 13.3337 17.7513C13.3337 17.4198 13.202 17.1018 12.9675 16.8674C12.7331 16.633 12.4152 16.5013 12.0837 16.5013H10.8337C10.6126 16.5013 10.4007 16.4135 10.2444 16.2572C10.0881 16.1009 10.0003 15.889 10.0003 15.668V14.418C10.0003 14.0864 9.86863 13.7685 9.63421 13.5341C9.39979 13.2997 9.08184 13.168 8.75032 13.168C8.4188 13.168 8.10086 13.2997 7.86644 13.5341C7.63202 13.7685 7.50032 14.0864 7.50032 14.418V15.668C7.50032 15.889 7.41253 16.1009 7.25625 16.2572C7.09997 16.4135 6.888 16.5013 6.66699 16.5013H5.41699C5.08547 16.5013 4.76753 16.633 4.53311 16.8674C4.29869 17.1018 4.16699 17.4198 4.16699 17.7513C4.16699 18.0828 4.29869 18.4008 4.53311 18.6352C4.76753 18.8696 5.08547 19.0013 5.41699 19.0013H6.66699C6.888 19.0013 7.09997 19.0891 7.25625 19.2454C7.41253 19.4017 7.50032 19.6136 7.50032 19.8346V21.0846C7.50032 21.4162 7.63202 21.7341 7.86644 21.9685C8.10086 22.2029 8.4188 22.3346 8.75032 22.3346C9.08184 22.3346 9.39979 22.2029 9.63421 21.9685C9.86863 21.7341 10.0003 21.4162 10.0003 21.0846V19.8346C10.0003 19.6136 10.0881 19.4017 10.2444 19.2454C10.4007 19.0891 10.6126 19.0013 10.8337 19.0013Z" fill="url(#gamepad-paint2_linear)"/>
<path d="M25.7407 18.7204C26.0148 18.9036 26.337 19.0013 26.6667 19.0013C27.1087 19.0013 27.5326 18.8257 27.8452 18.5131C28.1577 18.2006 28.3333 17.7767 28.3333 17.3346C28.3333 17.005 28.2356 16.6828 28.0524 16.4087C27.8693 16.1346 27.609 15.921 27.3045 15.7948C26.9999 15.6687 26.6648 15.6357 26.3415 15.7C26.0182 15.7643 25.7212 15.923 25.4882 16.1561C25.2551 16.3892 25.0963 16.6862 25.032 17.0095C24.9677 17.3328 25.0007 17.6679 25.1269 17.9724C25.253 18.277 25.4666 18.5373 25.7407 18.7204Z" fill="url(#gamepad-paint3_linear)"/>
<path d="M29.9077 22.0524C30.1818 22.2356 30.504 22.3333 30.8337 22.3333C31.2757 22.3333 31.6996 22.1577 32.0122 21.8452C32.3247 21.5326 32.5003 21.1087 32.5003 20.6667C32.5003 20.337 32.4026 20.0148 32.2194 19.7407C32.0363 19.4666 31.776 19.253 31.4715 19.1269C31.1669 19.0007 30.8318 18.9677 30.5085 19.032C30.1852 19.0963 29.8882 19.2551 29.6551 19.4882C29.4221 19.7212 29.2633 20.0182 29.199 20.3415C29.1347 20.6648 29.1677 20.9999 29.2939 21.3045C29.42 21.609 29.6336 21.8693 29.9077 22.0524Z" fill="url(#gamepad-paint4_linear)"/>
<path d="M34.0737 18.7204C34.3478 18.9036 34.67 19.0013 34.9997 19.0013C35.4417 19.0013 35.8656 18.8257 36.1782 18.5131C36.4907 18.2006 36.6663 17.7767 36.6663 17.3346C36.6663 17.005 36.5686 16.6828 36.3855 16.4087C36.2023 16.1346 35.942 15.921 35.6375 15.7948C35.3329 15.6687 34.9978 15.6357 34.6745 15.7C34.3512 15.7643 34.0542 15.923 33.8212 16.1561C33.5881 16.3892 33.4293 16.6862 33.365 17.0095C33.3007 17.3328 33.3337 17.6679 33.4599 17.9724C33.586 18.277 33.7996 18.5373 34.0737 18.7204Z" fill="url(#gamepad-paint5_linear)"/>
<path d="M29.9077 15.3845C30.1818 15.5676 30.504 15.6654 30.8337 15.6654C31.2757 15.6654 31.6996 15.4898 32.0122 15.1772C32.3247 14.8646 32.5003 14.4407 32.5003 13.9987C32.5003 13.6691 32.4026 13.3468 32.2194 13.0727C32.0363 12.7987 31.776 12.585 31.4715 12.4589C31.1669 12.3328 30.8318 12.2997 30.5085 12.3641C30.1852 12.4284 29.8882 12.5871 29.6551 12.8202C29.4221 13.0533 29.2633 13.3502 29.199 13.6735C29.1347 13.9968 29.1677 14.332 29.2939 14.6365C29.42 14.941 29.6336 15.2013 29.9077 15.3845Z" fill="url(#gamepad-paint6_linear)"/>
<circle cx="14" cy="26" r="3" fill="url(#gamepad-paint7_linear)"/>
<circle cx="26" cy="26" r="3" fill="url(#gamepad-paint8_linear)"/>
<defs>
<linearGradient id="gamepad-paint0_linear" x1="16.5" y1="3" x2="16.5" y2="11" gradientUnits="userSpaceOnUse">
<stop stop-color="#42526E"/>
<stop offset="1" stop-color="#344563"/>
</linearGradient>
<linearGradient id="gamepad-paint1_linear" x1="20" y1="1.79761" x2="20" y2="42" gradientUnits="userSpaceOnUse">
<stop stop-color="#F4F5F7"/>
<stop offset="1" stop-color="#DFE1E6"/>
</linearGradient>
<linearGradient id="gamepad-paint2_linear" x1="8.75032" y1="13.168" x2="10.567" y2="29.704" gradientUnits="userSpaceOnUse">
<stop stop-color="#00A0DF"/>
<stop offset="1" stop-color="#007CBF"/>
</linearGradient>
<linearGradient id="gamepad-paint3_linear" x1="26.6667" y1="15.668" x2="26.2432" y2="22.465" gradientUnits="userSpaceOnUse">
<stop stop-color="#EB4B68"/>
<stop offset="1" stop-color="#CA365F"/>
</linearGradient>
<linearGradient id="gamepad-paint4_linear" x1="30.8337" y1="19" x2="30.8337" y2="23.4792" gradientUnits="userSpaceOnUse">
<stop stop-color="#00A0DF"/>
<stop offset="1" stop-color="#66C6EC"/>
</linearGradient>
<linearGradient id="gamepad-paint5_linear" x1="34.9997" y1="15.668" x2="34.9997" y2="21.0152" gradientUnits="userSpaceOnUse">
<stop stop-color="#66DE7D"/>
<stop offset="1" stop-color="#38AD5A"/>
</linearGradient>
<linearGradient id="gamepad-paint6_linear" x1="30.841" y1="19.207" x2="30.841" y2="12.332" gradientUnits="userSpaceOnUse">
<stop stop-color="#E99B26"/>
<stop offset="1" stop-color="#FAC34B"/>
</linearGradient>
<linearGradient id="gamepad-paint7_linear" x1="14" y1="23" x2="14" y2="29" gradientUnits="userSpaceOnUse">
<stop stop-color="#42526E"/>
<stop offset="1" stop-color="#344563"/>
</linearGradient>
<linearGradient id="gamepad-paint8_linear" x1="26" y1="23" x2="26" y2="29" gradientUnits="userSpaceOnUse">
<stop stop-color="#42526E"/>
<stop offset="1" stop-color="#344563"/>
</linearGradient>
</defs>
</svg>
