<svg viewBox="0 0 48 48" fill="none" xmlns="http://www.w3.org/2000/svg">
<rect width="48" height="48" fill="white"/>
<path d="M21.5105 5.12966L21.5127 5.13081C27.3698 8.22426 31.6866 13.2102 34.2564 18.5539C36.8336 23.913 37.6106 29.5374 36.5215 33.88L36.5212 33.881C35.7908 36.8063 34.2804 39.0613 32.1605 40.593C30.0339 42.1294 27.2278 42.9849 23.8386 42.9849H23.8146L23.7907 42.986C21.1734 43.1115 18.586 42.3893 16.4152 40.928C14.2447 39.4669 12.6074 37.3453 11.7475 34.881C10.8294 32.2415 10.7552 29.3832 11.5351 26.6999C12.315 24.0166 13.9109 21.6398 16.1035 19.8974L16.1065 19.8949C16.1407 19.8676 16.1817 19.8492 16.2256 19.842C16.2696 19.8348 16.3146 19.8391 16.3562 19.8543L16.3575 19.8548C16.4009 19.8705 16.4391 19.897 16.4687 19.9312C16.4977 19.9646 16.5175 20.0044 16.5268 20.0468C16.7267 21.0604 17.0774 22.0384 17.5674 22.9484C17.6873 23.1726 17.8652 23.36 18.0821 23.4916C18.2996 23.6236 18.5484 23.6946 18.8024 23.6975C19.0565 23.7003 19.3068 23.635 19.5272 23.5081C19.7476 23.3812 19.9301 23.1972 20.0552 22.9751L20.0669 22.9543L20.0777 22.9329C21.3505 20.3963 22.0077 17.5969 21.9959 14.7604C21.9841 11.9239 21.3038 9.13003 20.01 6.60398L20.0078 6.59977C19.9003 6.39217 19.8622 6.15603 19.8989 5.9257C19.9356 5.69534 20.0454 5.48219 20.2127 5.31756C20.3801 5.15289 20.5964 5.04544 20.8302 5.01152C21.064 4.97759 21.3024 5.01909 21.5105 5.12966Z" fill="#FAC34B" stroke="#19194B" stroke-width="2"/>
<path d="M27.9312 37.7455C29.0255 36.866 29.746 35.6069 29.9484 34.2204C30.2628 32.4866 29.9882 30.6978 29.1681 29.137C28.3479 27.5762 27.0289 26.3325 25.4199 25.6028C25.2584 25.5427 25.0824 25.5335 24.9155 25.5764C24.7487 25.6193 24.5991 25.7122 24.487 25.8426C24.3748 25.973 24.3056 26.1346 24.2886 26.3055C24.2716 26.4764 24.3077 26.6484 24.392 26.7982C24.6778 27.4856 24.758 28.2408 24.6228 28.9726C24.4875 29.7045 24.1428 30.3817 23.63 30.9226C23.1824 31.6348 22.5631 32.2242 21.8286 32.6371C21.0941 33.05 20.2676 33.2732 19.4245 33.2865C19.2887 33.2546 19.147 33.2568 19.0123 33.293C18.8776 33.3292 18.7541 33.3982 18.6528 33.4938C18.5515 33.5894 18.4757 33.7087 18.4321 33.8408C18.3886 33.9729 18.3787 34.1137 18.4033 34.2506C18.6386 35.5718 19.3331 36.7683 20.3651 37.6301C21.3972 38.4919 22.7008 38.964 24.0472 38.9634C25.4496 39.0601 26.8369 38.625 27.9312 37.7455Z" fill="#E99B26"/>
</svg>
