<svg class="icon" viewBox="0 0 34 53" fill="none" xmlns="http://www.w3.org/2000/svg">
<mask id="green-flag-path-1-outside-1_28546_184854" maskUnits="userSpaceOnUse" x="0" y="0" width="34" height="53" fill="black">
<rect fill="white" width="34" height="53"/>
<path fill-rule="evenodd" clip-rule="evenodd" d="M4 3C3.44772 3 3 3.44772 3 4V49C3 49.5523 3.44772 50 4 50C4.55228 50 5 49.5523 5 49V25.4906C5.17779 25.5209 5.36642 25.5112 5.55443 25.4531L7.78067 24.7654C9.34873 24.2824 11.0018 24.1396 12.6295 24.3466C14.2571 24.5536 15.8219 25.1056 17.2191 25.9656C18.5833 26.8049 20.1073 27.351 21.694 27.5692C23.2807 27.7874 24.8955 27.6729 26.4356 27.2331L30.0206 26.2081C30.3028 26.1275 30.5511 25.9571 30.7278 25.7228C30.9045 25.4885 31.0001 25.2029 31 24.9094V9.4639C30.9998 9.25497 30.9512 9.04893 30.8579 8.86196C30.7647 8.675 30.6293 8.5122 30.4625 8.38636C30.2958 8.26052 30.1021 8.17506 29.8967 8.1367C29.6913 8.09834 29.4799 8.10812 29.2789 8.16527L26.4356 8.97781C24.8963 9.4173 23.2823 9.53158 21.6964 9.31338C20.1105 9.09517 18.5874 8.54927 17.2239 7.71038C15.8265 6.85081 14.2617 6.29914 12.6342 6.09218C11.0066 5.88521 9.35361 6.02771 7.78547 6.51017L5 7.36683V4C5 3.44772 4.55228 3 4 3Z"/>
</mask>
<path fill-rule="evenodd" clip-rule="evenodd" d="M4 3C3.44772 3 3 3.44772 3 4V49C3 49.5523 3.44772 50 4 50C4.55228 50 5 49.5523 5 49V25.4906C5.17779 25.5209 5.36642 25.5112 5.55443 25.4531L7.78067 24.7654C9.34873 24.2824 11.0018 24.1396 12.6295 24.3466C14.2571 24.5536 15.8219 25.1056 17.2191 25.9656C18.5833 26.8049 20.1073 27.351 21.694 27.5692C23.2807 27.7874 24.8955 27.6729 26.4356 27.2331L30.0206 26.2081C30.3028 26.1275 30.5511 25.9571 30.7278 25.7228C30.9045 25.4885 31.0001 25.2029 31 24.9094V9.4639C30.9998 9.25497 30.9512 9.04893 30.8579 8.86196C30.7647 8.675 30.6293 8.5122 30.4625 8.38636C30.2958 8.26052 30.1021 8.17506 29.8967 8.1367C29.6913 8.09834 29.4799 8.10812 29.2789 8.16527L26.4356 8.97781C24.8963 9.4173 23.2823 9.53158 21.6964 9.31338C20.1105 9.09517 18.5874 8.54927 17.2239 7.71038C15.8265 6.85081 14.2617 6.29914 12.6342 6.09218C11.0066 5.88521 9.35361 6.02771 7.78547 6.51017L5 7.36683V4C5 3.44772 4.55228 3 4 3Z" fill="white"/>
<path d="M5 25.4906L5.50275 22.5331L2 21.9376V25.4906H5ZM5.55443 25.4531L4.66904 22.5867L4.66903 22.5867L5.55443 25.4531ZM7.78067 24.7654L6.89754 21.8983L6.89528 21.899L7.78067 24.7654ZM12.6295 24.3466L12.251 27.3226L12.251 27.3226L12.6295 24.3466ZM17.2191 25.9656L15.6466 28.5204L15.6471 28.5208L17.2191 25.9656ZM21.694 27.5692L22.1027 24.5972L21.694 27.5692ZM26.4356 27.2331L27.2595 30.1177L27.2603 30.1175L26.4356 27.2331ZM30.0206 26.2081L29.1966 23.3234L29.1959 23.3236L30.0206 26.2081ZM30.7278 25.7228L33.123 27.5292L33.123 27.5291L30.7278 25.7228ZM31 24.9094H28V24.9102L31 24.9094ZM31 9.4639H34L34 9.4611L31 9.4639ZM30.8579 8.86196L33.5425 7.52296L33.5425 7.52294L30.8579 8.86196ZM30.4625 8.38636L32.2695 5.99159L32.2695 5.99158L30.4625 8.38636ZM29.8967 8.1367L30.4476 5.18771L30.4476 5.18771L29.8967 8.1367ZM29.2789 8.16527L28.4583 5.27968L28.4546 5.28074L29.2789 8.16527ZM26.4356 8.97781L27.2592 11.8625L27.2599 11.8623L26.4356 8.97781ZM21.6964 9.31338L21.2875 12.2854V12.2854L21.6964 9.31338ZM17.2239 7.71038L18.796 5.15528L18.7957 5.15507L17.2239 7.71038ZM7.78547 6.51017L8.66735 9.37763L8.66766 9.37753L7.78547 6.51017ZM5 7.36683H2V11.4281L5.88187 10.2343L5 7.36683ZM6 4C6 5.10457 5.10457 6 4 6V0C1.79086 0 0 1.79086 0 4H6ZM6 49V4H0V49H6ZM4 47C5.10457 47 6 47.8954 6 49H0C0 51.2091 1.79086 53 4 53V47ZM2 49C2 47.8954 2.89543 47 4 47V53C6.20914 53 8 51.2091 8 49H2ZM2 25.4906V49H8V25.4906H2ZM4.49725 28.4482C5.13001 28.5558 5.79447 28.5188 6.43984 28.3194L4.66903 22.5867C4.93836 22.5035 5.22557 22.4859 5.50275 22.5331L4.49725 28.4482ZM6.43982 28.3194L8.66606 27.6318L6.89528 21.899L4.66904 22.5867L6.43982 28.3194ZM8.6638 27.6325C9.82388 27.2752 11.0469 27.1695 12.251 27.3226L13.0079 21.3706C10.9568 21.1097 8.87359 21.2897 6.89754 21.8983L8.6638 27.6325ZM12.251 27.3226C13.4552 27.4758 14.6128 27.8841 15.6466 28.5204L18.7917 23.4108C17.0309 22.327 15.0591 21.6314 13.0079 21.3706L12.251 27.3226ZM15.6471 28.5208C17.3659 29.5782 19.2861 30.2663 21.2853 30.5413L22.1027 24.5972C20.9285 24.4357 19.8007 24.0316 18.7912 23.4105L15.6471 28.5208ZM21.2853 30.5413C23.2845 30.8162 25.3191 30.6719 27.2595 30.1177L25.6117 24.3484C24.4719 24.674 23.2769 24.7587 22.1027 24.5972L21.2853 30.5413ZM27.2603 30.1175L30.8453 29.0925L29.1959 23.3236L25.6109 24.3486L27.2603 30.1175ZM30.8446 29.0927C31.7538 28.833 32.5537 28.2841 33.123 27.5292L28.3326 23.9164C28.5485 23.6301 28.8518 23.4219 29.1966 23.3234L30.8446 29.0927ZM33.123 27.5291C33.6923 26.7742 34.0002 25.8543 34 24.9087L28 24.9102C27.9999 24.5516 28.1167 24.2027 28.3326 23.9164L33.123 27.5291ZM34 24.9094V9.4639H28V24.9094H34ZM34 9.4611C33.9994 8.78834 33.8428 8.12493 33.5425 7.52296L28.1733 10.201C28.0596 9.97293 28.0002 9.72159 28 9.46669L34 9.4611ZM33.5425 7.52294C33.2422 6.92095 32.8065 6.39678 32.2695 5.99159L28.6556 10.7811C28.4522 10.6276 28.2871 10.429 28.1733 10.201L33.5425 7.52294ZM32.2695 5.99158C31.7325 5.5864 31.1088 5.31123 30.4476 5.18771L29.3459 11.0857C29.0953 11.0389 28.8591 10.9346 28.6556 10.7811L32.2695 5.99158ZM30.4476 5.18771C29.7863 5.06419 29.1054 5.09567 28.4583 5.27968L30.0995 11.0509C29.8544 11.1206 29.5964 11.1325 29.3459 11.0857L30.4476 5.18771ZM28.4546 5.28074L25.6113 6.09328L27.2599 11.8623L30.1032 11.0498L28.4546 5.28074ZM25.612 6.09308C24.473 6.41827 23.2788 6.50283 22.1053 6.34138L21.2875 12.2854C23.2858 12.5603 25.3195 12.4163 27.2592 11.8625L25.612 6.09308ZM22.1053 6.34138C20.9319 6.17992 19.8049 5.77599 18.796 5.15528L15.6519 10.2655C17.3699 11.3225 19.2891 12.0104 21.2875 12.2854L22.1053 6.34138ZM18.7957 5.15507C17.0349 4.07202 15.0633 3.37692 13.0126 3.11614L12.2557 9.06821C13.4602 9.22137 14.6181 9.62961 15.6522 10.2657L18.7957 5.15507ZM13.0126 3.11614C10.9619 2.85537 8.87913 3.03492 6.90329 3.64281L8.66766 9.37753C9.82809 9.02051 11.0513 8.91506 12.2557 9.06821L13.0126 3.11614ZM6.9036 3.64272L4.11813 4.49938L5.88187 10.2343L8.66735 9.37763L6.9036 3.64272ZM2 4V7.36683H8V4H2ZM4 6C2.89543 6 2 5.10457 2 4H8C8 1.79086 6.20914 0 4 0V6Z" fill="white" mask="url(#green-flag-path-1-outside-1_28546_184854)"/>
<path d="M4 24.3063C4 25.1144 4.78237 25.6916 5.55443 25.4531L7.78067 24.7654C9.34873 24.2824 11.0018 24.1396 12.6295 24.3466C14.2571 24.5536 15.8219 25.1056 17.2191 25.9656C18.5833 26.8049 20.1073 27.351 21.694 27.5692C23.2807 27.7874 24.8955 27.6729 26.4356 27.2331L30.0206 26.2081C30.3028 26.1275 30.5511 25.9571 30.7278 25.7228C30.9045 25.4885 31.0001 25.2029 31 24.9094V9.4639C30.9998 9.25497 30.9512 9.04893 30.8579 8.86196C30.7647 8.675 30.6293 8.5122 30.4625 8.38636C30.2958 8.26052 30.1021 8.17506 29.8967 8.1367C29.6913 8.09834 29.4799 8.10812 29.2789 8.16527L26.4356 8.97781C24.8963 9.4173 23.2823 9.53158 21.6964 9.31338C20.1105 9.09517 18.5874 8.54927 17.2239 7.71038C15.8265 6.85081 14.2617 6.29914 12.6342 6.09218C11.0066 5.88521 9.35361 6.02771 7.78547 6.51017L4.8474 7.41376C4.34372 7.56867 4 8.03399 4 8.56095V24.3063Z" fill="url(#green-flag-paint0_linear_28546_184854)"/>
<rect x="3" y="3" width="2" height="47" rx="1" fill="#19194B"/>
<defs>
<linearGradient id="green-flag-paint0_linear_28546_184854" x1="4" y1="16.2009" x2="30" y2="17" gradientUnits="userSpaceOnUse">
<stop stop-color="#4ABE6B"/>
<stop offset="1" stop-color="#66DE7D"/>
</linearGradient>
</defs>
</svg>
