<svg class="icon" viewBox="0 0 48 48" fill="none" xmlns="http://www.w3.org/2000/svg">
<rect width="48" height="48" rx="14" fill="url(#health-paint0_linear)"/>
<path fill-rule="evenodd" clip-rule="evenodd" d="M24.0391 12.001C27.3148 11.971 30.5624 12.6075 33.5844 13.8719C34.0263 14.0624 34.4029 14.3778 34.6682 14.7792C34.9336 15.1806 35.076 15.6507 35.0781 16.1319V23.4353C35.0404 26.0505 34.205 28.5919 32.6837 30.7194C31.1624 32.847 29.0277 34.4593 26.5652 35.3407L25.4947 35.7409C24.5554 36.0864 23.5238 36.0864 22.5844 35.7409L21.5119 35.3407C19.0497 34.4589 16.9154 32.8464 15.3944 30.719C13.8733 28.5915 13.0379 26.0503 13 23.4353V16.1319C13.0022 15.6509 13.1445 15.1809 13.4096 14.7795C13.6747 14.3781 14.0511 14.0627 14.4927 13.8719C17.5152 12.6079 20.763 11.9714 24.0391 12.001ZM24.8041 28.7393L29.5349 23.8928C30.0547 23.3834 30.3981 22.7263 30.5165 22.0146C30.6348 21.3029 30.522 20.5727 30.194 19.9275C29.9458 19.4398 29.5832 19.017 29.1359 18.694C28.6886 18.3709 28.1696 18.1569 27.6215 18.0695C27.0735 17.9821 26.5121 18.0239 25.9837 18.1913C25.4553 18.3588 24.975 18.6471 24.5824 19.0326C24.5116 19.1025 24.4274 19.1579 24.3348 19.1957C24.2421 19.2336 24.1427 19.253 24.0424 19.253C23.942 19.253 23.8426 19.2336 23.7499 19.1957C23.6573 19.1579 23.5731 19.1025 23.5023 19.0326C23.1113 18.6435 22.6305 18.3528 22.1006 18.1851C21.5707 18.0174 21.0075 17.9778 20.4587 18.0695C19.8226 18.1709 19.2274 18.4425 18.7384 18.8545C18.2494 19.2666 17.8855 19.803 17.6868 20.4048C17.4881 21.0066 17.4622 21.6506 17.612 22.266C17.7618 22.8813 18.0815 23.4442 18.5359 23.8928L23.2719 28.7393C23.3709 28.8408 23.4898 28.9216 23.6215 28.9767C23.7532 29.0319 23.8948 29.0604 24.038 29.0604C24.1812 29.0604 24.3228 29.0319 24.4545 28.9767C24.5862 28.9216 24.7051 28.8408 24.8041 28.7393Z" fill="white"/>
<defs>
<linearGradient id="health-paint0_linear" x1="24" y1="0" x2="24" y2="48" gradientUnits="userSpaceOnUse">
<stop stop-color="#EB4B68"/>
<stop offset="1" stop-color="#CA365F"/>
</linearGradient>
</defs>
</svg>
