<svg class="icon" viewBox="0 0 48 48" fill="none" xmlns="http://www.w3.org/2000/svg">
<rect width="48" height="48" rx="14" fill="url(#health-card-paint0_linear)"/>
<path fill-rule="evenodd" clip-rule="evenodd" d="M36 17.7895C36 17.3149 35.7893 16.8597 35.4142 16.5241C35.0391 16.1885 34.5304 16 34 16H14C13.4696 16 12.9609 16.1885 12.5858 16.5241C12.2107 16.8597 12 17.3149 12 17.7895V31.2105C12 31.6851 12.2107 32.1403 12.5858 32.4759C12.9609 32.8115 13.4696 33 14 33H34C34.5304 33 35.0391 32.8115 35.4142 32.4759C35.7893 32.1403 36 31.6851 36 31.2105V17.7895ZM20.75 23H21.75C21.9488 23.0003 22.1394 23.0794 22.28 23.22C22.4206 23.3606 22.4997 23.5512 22.5 23.75V25.25C22.4997 25.4488 22.4206 25.6394 22.28 25.78C22.1394 25.9206 21.9488 25.9997 21.75 26H20.75C20.6837 26 20.6201 26.0263 20.5732 26.0732C20.5263 26.1201 20.5 26.1837 20.5 26.25V27.25C20.4997 27.4488 20.4206 27.6394 20.28 27.78C20.1394 27.9206 19.9488 27.9997 19.75 28H18.25C18.0512 27.9997 17.8606 27.9206 17.72 27.78C17.5794 27.6394 17.5003 27.4488 17.5 27.25V26.25C17.5 26.1837 17.4737 26.1201 17.4268 26.0732C17.3799 26.0263 17.3163 26 17.25 26H16.25C16.0512 25.9997 15.8606 25.9206 15.72 25.78C15.5794 25.6394 15.5003 25.4488 15.5 25.25V23.75C15.5003 23.5512 15.5794 23.3606 15.72 23.22C15.8606 23.0794 16.0512 23.0003 16.25 23H17.25C17.3163 23 17.3799 22.9737 17.4268 22.9268C17.4737 22.8799 17.5 22.8163 17.5 22.75V21.75C17.5003 21.5512 17.5794 21.3606 17.72 21.22C17.8606 21.0794 18.0512 21.0003 18.25 21H19.75C19.9488 21.0003 20.1394 21.0794 20.28 21.22C20.4206 21.3606 20.4997 21.5512 20.5 21.75V22.75C20.5 22.8163 20.5263 22.8799 20.5732 22.9268C20.6201 22.9737 20.6837 23 20.75 23ZM31.25 22.75H26.5C26.3011 22.75 26.1103 22.829 25.9697 22.9697C25.829 23.1103 25.75 23.3011 25.75 23.5C25.75 23.6989 25.829 23.8897 25.9697 24.0303C26.1103 24.171 26.3011 24.25 26.5 24.25H31.25C31.4489 24.25 31.6397 24.171 31.7803 24.0303C31.921 23.8897 32 23.6989 32 23.5C32 23.3011 31.921 23.1103 31.7803 22.9697C31.6397 22.829 31.4489 22.75 31.25 22.75ZM26.5 25.75H30C30.1989 25.75 30.3897 25.829 30.5303 25.9697C30.671 26.1103 30.75 26.3011 30.75 26.5C30.75 26.6989 30.671 26.8897 30.5303 27.0303C30.3897 27.171 30.1989 27.25 30 27.25H26.5C26.3011 27.25 26.1103 27.171 25.9697 27.0303C25.829 26.8897 25.75 26.6989 25.75 26.5C25.75 26.3011 25.829 26.1103 25.9697 25.9697C26.1103 25.829 26.3011 25.75 26.5 25.75Z" fill="white"/>
<defs>
<linearGradient id="health-card-paint0_linear" x1="24" y1="0" x2="24" y2="48" gradientUnits="userSpaceOnUse">
<stop stop-color="#EB4B68"/>
<stop offset="1" stop-color="#CA365F"/>
</linearGradient>
</defs>
</svg>
