<svg class="icon"
     width="24"
     height="24"
     viewBox="0 0 24 24"
     fill="none"
     xmlns="http://www.w3.org/2000/svg"
>
  <path fill-rule="evenodd"
        clip-rule="evenodd"
        d="M12.0391 0.00101405C15.3148 -0.0289994 18.5624 0.60752 21.5844 1.87187C22.0263 2.06243 22.4029 2.37775 22.6682 2.77918C22.9336 3.18062 23.076 3.65073 23.0781 4.13191V11.4353C23.0404 14.0505 22.205 16.5919 20.6837 18.7194C19.1624 20.847 17.0277 22.4593 14.5652 23.3407L13.4947 23.7409C12.5554 24.0864 11.5238 24.0864 10.5844 23.7409L9.5119 23.3407C7.04973 22.4589 4.91543 20.8464 3.39436 18.719C1.87329 16.5915 1.03794 14.0503 1 11.4353V4.13191C1.00216 3.65087 1.14451 3.18089 1.40962 2.7795C1.67473 2.3781 2.05111 2.06269 2.49268 1.87187C5.51519 0.607923 8.76305 -0.0285774 12.0391 0.00101405ZM12.8041 16.7393L17.5349 11.8928C18.0547 11.3834 18.3981 10.7263 18.5165 10.0146C18.6348 9.30291 18.522 8.5727 18.194 7.92746C17.9458 7.43978 17.5832 7.017 17.1359 6.69397C16.6886 6.37094 16.1696 6.1569 15.6215 6.06951C15.0735 5.98211 14.5121 6.02386 13.9837 6.19131C13.4553 6.35876 12.975 6.64712 12.5824 7.03261C12.5116 7.10247 12.4274 7.15791 12.3348 7.19574C12.2421 7.23357 12.1427 7.25304 12.0424 7.25304C11.942 7.25304 11.8426 7.23357 11.7499 7.19574C11.6573 7.15791 11.5731 7.10247 11.5023 7.03261C11.1113 6.6435 10.6305 6.35277 10.1006 6.1851C9.57073 6.01742 9.00748 5.97775 8.45866 6.06946C7.82263 6.1709 7.2274 6.44255 6.73839 6.85455C6.24937 7.26655 5.88551 7.80295 5.6868 8.4048C5.48808 9.00665 5.4622 9.65064 5.61201 10.266C5.76181 10.8813 6.0815 11.4442 6.53593 11.8928L11.2719 16.7393C11.3709 16.8408 11.4898 16.9216 11.6215 16.9767C11.7532 17.0319 11.8948 17.0604 12.038 17.0604C12.1812 17.0604 12.3228 17.0319 12.4545 16.9767C12.5862 16.9216 12.7051 16.8408 12.8041 16.7393Z"
        fill="#00A0DF"
  />
</svg>
