<svg class="icon" viewBox="0 0 48 48" fill="none" xmlns="http://www.w3.org/2000/svg">
<rect width="48" height="48" rx="14" fill="url(#health-affiliation-paint0_linear)"/>
<path d="M36 18.125C35.9995 17.8268 35.8808 17.541 35.6699 17.3301C35.459 17.1192 35.1732 17.0005 34.875 17H31.5C31.3674 17 31.2402 16.9473 31.1464 16.8536C31.0527 16.7598 31 16.6326 31 16.5V13.125C30.9995 12.8268 30.8808 12.541 30.6699 12.3301C30.459 12.1192 30.1732 12.0005 29.875 12H26.125C25.8268 12.0005 25.541 12.1192 25.3301 12.3301C25.1192 12.541 25.0005 12.8268 25 13.125V16.5C25 16.6326 24.9473 16.7598 24.8536 16.8536C24.7598 16.9473 24.6326 17 24.5 17H21.125C20.8268 17.0005 20.541 17.1192 20.3301 17.3301C20.1192 17.541 20.0005 17.8268 20 18.125V21.875C20.0005 22.1732 20.1192 22.459 20.3301 22.6699C20.541 22.8808 20.8268 22.9995 21.125 23H24.5C24.6326 23 24.7598 23.0527 24.8536 23.1464C24.9473 23.2402 25 23.3674 25 23.5V26.875C25.0005 27.1732 25.1192 27.459 25.3301 27.6699C25.541 27.8808 25.8268 27.9995 26.125 28H29.875C30.1732 27.9995 30.459 27.8808 30.6699 27.6699C30.8808 27.459 30.9995 27.1732 31 26.875V23.5C31 23.3674 31.0527 23.2402 31.1464 23.1464C31.2402 23.0527 31.3674 23 31.5 23H34.875C35.1732 22.9995 35.459 22.8808 35.6699 22.6699C35.8808 22.459 35.9995 22.1732 36 21.875V18.125Z" fill="white"/>
<path d="M32.005 29.8496H31.995L28.474 31.0176C28.4399 31.0291 28.4087 31.0477 28.3823 31.0722C28.3559 31.0967 28.335 31.1264 28.321 31.1596C28.165 31.5129 27.91 31.8134 27.5868 32.025C27.2637 32.2365 26.8862 32.3499 26.5 32.3516H22.5C22.3674 32.3516 22.2402 32.2989 22.1464 32.2051C22.0527 32.1113 22 31.9842 22 31.8516C22 31.719 22.0527 31.5918 22.1464 31.498C22.2402 31.4042 22.3674 31.3516 22.5 31.3516H26.5C26.7652 31.3516 27.0196 31.2462 27.2071 31.0587C27.3946 30.8711 27.5 30.6168 27.5 30.3516C27.5 30.0863 27.3946 29.832 27.2071 29.6445C27.0196 29.4569 26.7652 29.3516 26.5 29.3516H23C21.8516 28.4539 20.4554 27.9303 19 27.8516H16.944C16.3233 27.8513 15.7111 27.9958 15.156 28.2736L12.138 29.7826C12.0967 29.8034 12.0619 29.8353 12.0376 29.8746C12.0132 29.914 12.0002 29.9593 12 30.0056V35.4056C11.9999 35.4501 12.0119 35.4939 12.0346 35.5323C12.0573 35.5706 12.0899 35.6022 12.129 35.6236C12.1679 35.6453 12.2118 35.6562 12.2563 35.6551C12.3008 35.654 12.3442 35.6411 12.382 35.6176L15.6 33.5986C15.7268 33.5202 15.8693 33.4706 16.0174 33.4533C16.1655 33.436 16.3155 33.4515 16.457 33.4986C26.423 36.8566 23.085 36.8716 34.323 31.1866C34.4001 31.147 34.4661 31.0887 34.5148 31.017C34.5636 30.9453 34.5936 30.8625 34.602 30.7763C34.6105 30.69 34.5971 30.603 34.5632 30.5232C34.5294 30.4434 34.476 30.3734 34.408 30.3196C34.0824 30.04 33.6898 29.8497 33.2685 29.7673C32.8473 29.6849 32.412 29.7133 32.005 29.8496Z" fill="white"/>
<defs>
<linearGradient id="health-affiliation-paint0_linear" x1="24" y1="0" x2="24" y2="48" gradientUnits="userSpaceOnUse">
<stop stop-color="#66DE7D"/>
<stop offset="1" stop-color="#4ABE6B"/>
</linearGradient>
</defs>
</svg>
