<svg class="icon"
     viewBox="0 0 40 40"
     fill="none"
     xmlns="http://www.w3.org/2000/svg"
>
    <path d="M39.883 20C39.883 31.0457 30.981 40 19.9999 40C9.01886 40 0.116928 31.0457 0.116928 20C0.116928 8.95433 9.01886 3.05176e-05 19.9999 3.05176e-05C30.981 3.05176e-05 39.883 8.95433 39.883 20ZM10.9901 20C10.9901 25.0053 15.024 29.0628 19.9999 29.0628C24.9759 29.0628 29.0098 25.0053 29.0098 20C29.0098 14.9948 24.9759 10.9372 19.9999 10.9372C15.024 10.9372 10.9901 14.9948 10.9901 20Z" fill="white"/>
    <circle cx="7.64633" cy="7.52944" r="6.52941" stroke="#00A0DF" stroke-width="2"/>
    <circle cx="32.3522" cy="7.52941" r="6.52941" stroke="#00A0DF" stroke-width="2"/>
    <circle cx="32.3521" cy="32.4705" r="6.52941" stroke="#00A0DF" stroke-width="2"/>
    <circle cx="7.64632" cy="32.4705" r="6.52941" stroke="#00A0DF" stroke-width="2"/>
    <path d="M39.883 20C39.883 31.0457 30.981 40 19.9999 40C9.01886 40 0.116928 31.0457 0.116928 20C0.116928 8.95433 9.01886 3.05176e-05 19.9999 3.05176e-05C30.981 3.05176e-05 39.883 8.95433 39.883 20ZM10.9901 20C10.9901 25.0053 15.024 29.0628 19.9999 29.0628C24.9759 29.0628 29.0098 25.0053 29.0098 20C29.0098 14.9948 24.9759 10.9372 19.9999 10.9372C15.024 10.9372 10.9901 14.9948 10.9901 20Z" fill="url(#helpcolor-paint0_linear)"/>
    <mask id="helpcolor-mask0" mask-type="alpha" maskUnits="userSpaceOnUse" x="0" y="0" width="40" height="40">
    <path d="M39.8832 20C39.8832 31.0457 30.9813 40 20.0002 40C9.01909 40 0.117157 31.0457 0.117157 20C0.117157 8.9543 9.01909 0 20.0002 0C30.9813 0 39.8832 8.9543 39.8832 20ZM10.9904 20C10.9904 25.0052 15.0242 29.0628 20.0002 29.0628C24.9762 29.0628 29.01 25.0052 29.01 20C29.01 14.9947 24.9762 10.9372 20.0002 10.9372C15.0242 10.9372 10.9904 14.9947 10.9904 20Z" fill="#FEE2DB"/>
    </mask>
    <g mask="url(#helpcolor-mask0)">
    <rect x="30.4423" y="2.2627" width="10.0582" height="40.2353" transform="rotate(45 30.4423 2.2627)" fill="#F4F5F7"/>
    <rect x="37.6079" y="30.5479" width="10.0571" height="40.2353" transform="rotate(135 37.6079 30.5479)" fill="#F4F5F7"/>
    </g>
    <defs>
        <linearGradient id="helpcolor-paint0_linear" x1="19.9999" y1="3.05176e-05" x2="19.9999" y2="61" gradientUnits="userSpaceOnUse">
            <stop stop-color="#EB4B68"/>
            <stop offset="1" stop-color="#CA365F"/>
        </linearGradient>
    </defs>
</svg>
