<svg class="icon"
     viewBox="0 0 24 24"
     fill="none"
     xmlns="http://www.w3.org/2000/svg"
>
  <path fill-rule="evenodd"
        clip-rule="evenodd"
        d="M12.135 7.10728C11.7767 7.08251 11.4185 7.15671 11.0995 7.32177C10.7805 7.48684 10.5131 7.73641 10.3263 8.04322C10.1396 8.35003 10.0408 8.70226 10.0407 9.06143C10.0406 9.60244 9.60196 10.0409 9.06095 10.0408C8.51993 10.0407 8.08144 9.60207 8.08154 9.06105C8.08168 8.34272 8.27928 7.63825 8.65274 7.02463C9.0262 6.41102 9.56115 5.91187 10.1991 5.58174C10.8371 5.25162 11.5536 5.10322 12.2702 5.15277C12.9868 5.20231 13.676 5.4479 14.2625 5.86268C14.849 6.27747 15.3101 6.84549 15.5956 7.50466C15.8811 8.16384 15.9798 8.8888 15.8811 9.60031C15.7824 10.3118 15.49 10.9825 15.0358 11.5391C14.5817 12.0956 13.9833 12.5166 13.306 12.7561C13.2105 12.7899 13.1278 12.8524 13.0693 12.9352C13.0108 13.0179 12.9794 13.1168 12.9795 13.2181V14.2041C12.9795 14.7451 12.5409 15.1837 11.9999 15.1837C11.4589 15.1837 11.0203 14.7451 11.0203 14.2041L11.0203 13.2191C11.0203 13.219 11.0203 13.2193 11.0203 13.2191C11.0202 12.7127 11.177 12.2181 11.4693 11.8045C11.7618 11.3907 12.1753 11.0778 12.653 10.9089C12.9916 10.7892 13.2908 10.5787 13.5179 10.3004C13.7449 10.0222 13.8911 9.68682 13.9405 9.33106C13.9899 8.9753 13.9405 8.61282 13.7978 8.28323C13.655 7.95364 13.4244 7.66963 13.1312 7.46224C12.838 7.25485 12.4934 7.13206 12.135 7.10728Z"
        fill="#00A0DF"
  />
  <path fill-rule="evenodd"
        clip-rule="evenodd"
        d="M11.2517 16.3903C11.4732 16.2423 11.7336 16.1633 12 16.1633C12.3572 16.1633 12.6998 16.3052 12.9524 16.5578C13.205 16.8104 13.347 17.153 13.347 17.5102C13.347 17.7766 13.268 18.037 13.12 18.2585C12.9719 18.48 12.7616 18.6527 12.5155 18.7546C12.2693 18.8566 11.9985 18.8832 11.7372 18.8313C11.476 18.7793 11.236 18.651 11.0476 18.4626C10.8592 18.2743 10.7309 18.0343 10.679 17.773C10.627 17.5117 10.6537 17.2409 10.7556 16.9948C10.8576 16.7486 11.0302 16.5383 11.2517 16.3903Z"
        fill="#00A0DF"
  />
  <path fill-rule="evenodd"
        clip-rule="evenodd"
        d="M12 1.95918C6.45461 1.95918 1.95918 6.45461 1.95918 12C1.95918 17.5454 6.45461 22.0408 12 22.0408C17.5454 22.0408 22.0408 17.5454 22.0408 12C22.0408 6.45461 17.5454 1.95918 12 1.95918ZM0 12C0 5.37258 5.37258 0 12 0C18.6274 0 24 5.37258 24 12C24 18.6274 18.6274 24 12 24C5.37258 24 0 18.6274 0 12Z"
        fill="#00A0DF"
  />
</svg>
