<svg class="icon"
     viewBox="0 0 40 40"
     fill="none"
     xmlns="http://www.w3.org/2000/svg"
>
    <path d="M4.8 39H35.2V20H39L20 1L1 20H4.8V39Z" fill="url(#house-paint0_linear)"/>
    <path d="M27.6 8.87143V6.06667C27.6 5.36711 28.1671 4.8 28.8667 4.8H32.0333C32.7329 4.8 33.3 5.36711 33.3 6.06667V14.3" fill="#CA365F"/>
    <path d="M7.33333 26.3333H14.9333V39H7.33333V26.3333Z" fill="url(#house-paint1_linear)"/>
    <path d="M17.4667 26.3333H32.6667V35.2H17.4667V26.3333Z" fill="#4CBCE8"/>
    <path d="M32.6667 35.2V26.3333L17.4667 35.2H32.6667Z" fill="#33B3E5"/>
    <path opacity="0.2" d="M1 20L20 1L39 20H34.3493C33.6775 20 33.0331 19.7331 32.558 19.258L20 6.7L7.442 19.258C6.9669 19.7331 6.32254 20 5.65066 20H1Z" fill="url(#house-paint2_linear)"/>
    <path fill-rule="evenodd" clip-rule="evenodd" d="M20.3445 3.9649C20.1542 3.78091 19.8458 3.78091 19.6555 3.9649L3.495 20.536C2.92424 21.088 1.99884 21.088 1.42807 20.536C0.857308 19.984 0.857308 19.0891 1.42807 18.5371L17.5886 1.96598C18.9204 0.678008 21.0796 0.678007 22.4114 1.96598L38.5719 18.5371C39.1427 19.0891 39.1427 19.984 38.5719 20.536C38.0012 21.088 37.0758 21.088 36.505 20.536L20.3445 3.9649Z" fill="#EB4B68"/>
    <circle cx="13.0333" cy="33.3" r="0.633333" fill="#FAC34B"/>
    <path d="M17.4807 13.6807C17.1461 14.0152 16.8801 14.4116 16.6976 14.8473C16.5152 15.2829 16.4199 15.7493 16.4173 16.2198C16.4147 16.6903 16.5048 17.1557 16.6825 17.5893C16.8601 18.023 17.1218 18.4165 17.4527 18.7473C17.7835 19.0782 18.177 19.3399 18.6107 19.5175C19.0443 19.6952 19.5097 19.7853 19.9802 19.7827C20.4507 19.7801 20.9171 19.6848 21.3527 19.5024C21.7884 19.3199 22.1848 19.0539 22.5193 18.7193C22.8538 18.3848 23.1199 17.9884 23.3024 17.5528C23.4848 17.1171 23.5801 16.6507 23.5827 16.1802C23.5853 15.7097 23.4952 15.2444 23.3175 14.8107C23.1399 14.377 22.8782 13.9835 22.5473 13.6527C22.2165 13.3218 21.823 13.0601 21.3893 12.8825C20.9556 12.7048 20.4903 12.6147 20.0198 12.6173C19.5493 12.6199 19.0829 12.7152 18.6472 12.8976C18.2116 13.0801 17.8152 13.3462 17.4807 13.6807Z" fill="#33B3E5"/>
    <path opacity="0.5" d="M20.0215 12.6124C19.5518 12.6152 19.086 12.7107 18.6507 12.8933C18.2154 13.0759 17.8192 13.3421 17.4847 13.6766C17.1502 14.0111 16.8841 14.4073 16.7014 14.8426C16.5188 15.2779 16.4233 15.7437 16.4205 16.2134C16.4251 16.5443 16.4742 16.8725 16.5663 17.1891L23.3861 15.0533C23.1624 14.3381 22.7157 13.7159 22.1108 13.2771C21.5058 12.8382 20.774 12.6054 20.0215 12.6124Z" fill="#66C6EC"/>
    <rect x="16.2" y="33.9333" width="17.7333" height="1.26667" rx="0.633333" fill="#B39371"/>
    <defs>
        <linearGradient id="house-paint0_linear" x1="20" y1="-8.95238" x2="20" y2="146.033" gradientUnits="userSpaceOnUse">
            <stop stop-color="#F4F5F7"/>
            <stop offset="1" stop-color="#DFE1E6"/>
        </linearGradient>
        <linearGradient id="house-paint1_linear" x1="13.489" y1="38.2279" x2="1.21202" y2="-6.56804" gradientUnits="userSpaceOnUse">
            <stop stop-color="#B39371"/>
            <stop offset="1" stop-color="#774C2B"/>
        </linearGradient>
        <linearGradient id="house-paint2_linear" x1="20" y1="6.7" x2="20" y2="20" gradientUnits="userSpaceOnUse">
            <stop stop-color="#7A869A"/>
            <stop offset="1" stop-color="#7A869A" stop-opacity="0"/>
        </linearGradient>
    </defs>
</svg>
