<svg class="icon" viewBox="0 0 40 40" fill="none" xmlns="http://www.w3.org/2000/svg">
<circle cx="20" cy="20" r="20" fill="#CFF6FF"/>
<path d="M20 7C17.4288 7 14.9154 7.76244 12.7776 9.1909C10.6398 10.6194 8.97351 12.6497 7.98957 15.0251C7.00563 17.4006 6.74819 20.0144 7.2498 22.5362C7.75141 25.0579 8.98954 27.3743 10.8076 29.1924C12.6257 31.0105 14.9421 32.2486 17.4638 32.7502C19.9856 33.2518 22.5995 32.9944 24.9749 32.0104C27.3503 31.0265 29.3807 29.3603 30.8091 27.2224C32.2376 25.0846 33 22.5712 33 20C32.9963 16.5533 31.6254 13.2489 29.1883 10.8117C26.7511 8.37456 23.4467 7.00373 20 7ZM20.2708 12.4167C20.5922 12.4167 20.9064 12.512 21.1736 12.6905C21.4409 12.8691 21.6492 13.1229 21.7721 13.4198C21.8951 13.7167 21.9273 14.0435 21.8646 14.3587C21.8019 14.6739 21.6471 14.9635 21.4199 15.1907C21.1926 15.418 20.9031 15.5727 20.5879 15.6354C20.2726 15.6981 19.9459 15.666 19.649 15.543C19.352 15.42 19.0983 15.2117 18.9197 14.9445C18.7411 14.6772 18.6458 14.3631 18.6458 14.0417C18.6458 13.6107 18.817 13.1974 19.1218 12.8926C19.4265 12.5879 19.8399 12.4167 20.2708 12.4167ZM22.7083 27.0417H18.375C18.0877 27.0417 17.8121 26.9275 17.609 26.7244C17.4058 26.5212 17.2917 26.2457 17.2917 25.9583C17.2917 25.671 17.4058 25.3955 17.609 25.1923C17.8121 24.9891 18.0877 24.875 18.375 24.875H19.1875C19.2593 24.875 19.3282 24.8465 19.379 24.7957C19.4298 24.7449 19.4583 24.676 19.4583 24.6042V19.7292C19.4583 19.6573 19.4298 19.5884 19.379 19.5377C19.3282 19.4869 19.2593 19.4583 19.1875 19.4583H18.375C18.0877 19.4583 17.8121 19.3442 17.609 19.141C17.4058 18.9379 17.2917 18.6623 17.2917 18.375C17.2917 18.0877 17.4058 17.8121 17.609 17.609C17.8121 17.4058 18.0877 17.2917 18.375 17.2917H19.4583C20.033 17.2917 20.5841 17.5199 20.9904 17.9263C21.3967 18.3326 21.625 18.8837 21.625 19.4583V24.6042C21.625 24.676 21.6535 24.7449 21.7043 24.7957C21.7551 24.8465 21.824 24.875 21.8958 24.875H22.7083C22.9957 24.875 23.2712 24.9891 23.4744 25.1923C23.6775 25.3955 23.7917 25.671 23.7917 25.9583C23.7917 26.2457 23.6775 26.5212 23.4744 26.7244C23.2712 26.9275 22.9957 27.0417 22.7083 27.0417Z" fill="url(#info-microillustration-paint0_linear)"/>
<path d="M21.174 12.6909C20.9067 12.5123 20.5926 12.417 20.2712 12.417C19.8402 12.417 19.4269 12.5882 19.1221 12.8929C18.8174 13.1977 18.6462 13.611 18.6462 14.042C18.6462 14.3634 18.7415 14.6776 18.92 14.9448C19.0986 15.212 19.3524 15.4203 19.6493 15.5433C19.9462 15.6663 20.273 15.6985 20.5882 15.6358C20.9034 15.5731 21.1929 15.4183 21.4202 15.191C21.6475 14.9638 21.8022 14.6742 21.8649 14.359C21.9276 14.0438 21.8955 13.7171 21.7725 13.4201C21.6495 13.1232 21.4412 12.8694 21.174 12.6909Z" fill="white"/>
<path d="M18.3753 27.042H22.7087C22.996 27.042 23.2715 26.9279 23.4747 26.7247C23.6779 26.5215 23.792 26.246 23.792 25.9587C23.792 25.6713 23.6779 25.3958 23.4747 25.1926C23.2715 24.9895 22.996 24.8753 22.7087 24.8753H21.8962C21.8243 24.8753 21.7554 24.8468 21.7046 24.796C21.6539 24.7452 21.6253 24.6763 21.6253 24.6045V19.4587C21.6253 18.884 21.3971 18.3329 20.9907 17.9266C20.5844 17.5203 20.0333 17.292 19.4587 17.292H18.3753C18.088 17.292 17.8125 17.4061 17.6093 17.6093C17.4061 17.8125 17.292 18.088 17.292 18.3753C17.292 18.6626 17.4061 18.9382 17.6093 19.1414C17.8125 19.3445 18.088 19.4587 18.3753 19.4587H19.1878C19.2597 19.4587 19.3285 19.4872 19.3793 19.538C19.4301 19.5888 19.4587 19.6577 19.4587 19.7295V24.6045C19.4587 24.6763 19.4301 24.7452 19.3793 24.796C19.3285 24.8468 19.2597 24.8753 19.1878 24.8753H18.3753C18.088 24.8753 17.8125 24.9895 17.6093 25.1926C17.4061 25.3958 17.292 25.6713 17.292 25.9587C17.292 26.246 17.4061 26.5215 17.6093 26.7247C17.8125 26.9279 18.088 27.042 18.3753 27.042Z" fill="white"/>
<defs>
<linearGradient id="info-microillustration-paint0_linear" x1="18.5" y1="33" x2="20" y2="1.5" gradientUnits="userSpaceOnUse">
<stop stop-color="#00A0DF"/>
<stop offset="1" stop-color="#66C6EC"/>
</linearGradient>
</defs>
</svg>
