<svg class="icon"
     viewBox="0 0 32 32"
     fill="none"
     xmlns="http://www.w3.org/2000/svg"
>
<path fill-rule="evenodd" clip-rule="evenodd" d="M16 32C24.8366 32 32 24.8366 32 16C32 7.16344 24.8366 0 16 0C7.16344 0 0 7.16344 0 16C0 24.8366 7.16344 32 16 32ZM8 12.1739C8 9.86872 9.86872 8 12.1739 8H19.8261C22.1313 8 24 9.86872 24 12.1739V19.8261C24 22.1313 22.1313 24 19.8261 24H12.1739C9.86872 24 8 22.1313 8 19.8261V12.1739ZM20.1739 16C20.1739 18.3052 18.3052 20.1739 16 20.1739C13.6948 20.1739 11.8261 18.3052 11.8261 16C11.8261 13.6948 13.6948 11.8261 16 11.8261C18.3052 11.8261 20.1739 13.6948 20.1739 16ZM20.8696 12.1739C21.4459 12.1739 21.913 11.7067 21.913 11.1304C21.913 10.5541 21.4459 10.087 20.8696 10.087C20.2933 10.087 19.8261 10.5541 19.8261 11.1304C19.8261 11.7067 20.2933 12.1739 20.8696 12.1739Z" fill="#19194B"/>
</svg>
