<svg class="icon" viewBox="0 0 48 48" fill="none" xmlns="http://www.w3.org/2000/svg">
<rect width="48" height="48" rx="14" fill="url(#investment-paint0_linear)"/>
<path fill-rule="evenodd" clip-rule="evenodd" d="M24.8203 15.111C25.5895 16.2622 26 17.6155 26 19C25.9976 20.8558 25.2594 22.6349 23.9471 23.9471C22.6349 25.2594 20.8558 25.9976 19 26C17.6155 26 16.2622 25.5895 15.111 24.8203C13.9599 24.0511 13.0627 22.9579 12.5328 21.6788C12.003 20.3997 11.8644 18.9922 12.1345 17.6344C12.4046 16.2765 13.0713 15.0292 14.0503 14.0503C15.0292 13.0713 16.2765 12.4046 17.6344 12.1345C18.9922 11.8644 20.3997 12.003 21.6788 12.5328C22.9579 13.0627 24.0511 13.9599 24.8203 15.111ZM18.1768 23.0732C18.2237 23.1201 18.25 23.1837 18.25 23.25L18.253 23.608C18.253 23.8069 18.332 23.9977 18.4727 24.1383C18.6133 24.279 18.8041 24.358 19.003 24.358C19.2019 24.358 19.3927 24.279 19.5333 24.1383C19.674 23.9977 19.753 23.8069 19.753 23.608V23.208C19.7527 23.1491 19.7733 23.092 19.8112 23.0469C19.8492 23.0018 19.9019 22.9717 19.96 22.962C20.4301 22.8785 20.8603 22.6442 21.1857 22.2947C21.511 21.9451 21.7137 21.4992 21.7633 21.0243C21.8128 20.5494 21.7065 20.0712 21.4604 19.662C21.2143 19.2528 20.8418 18.9348 20.399 18.756L18.164 17.856C18.0087 17.7983 17.8789 17.6874 17.7976 17.5431C17.7164 17.3987 17.689 17.2302 17.7203 17.0675C17.7516 16.9048 17.8396 16.7585 17.9686 16.6546C18.0977 16.5507 18.2594 16.4959 18.425 16.5H20.625C20.8239 16.5 21.0147 16.421 21.1553 16.2803C21.296 16.1397 21.375 15.9489 21.375 15.75C21.375 15.5511 21.296 15.3603 21.1553 15.2197C21.0147 15.079 20.8239 15 20.625 15H20C19.9337 15 19.8701 14.9737 19.8232 14.9268C19.7763 14.8799 19.75 14.8163 19.75 14.75V14.4C19.75 14.2011 19.671 14.0103 19.5303 13.8697C19.3897 13.729 19.1989 13.65 19 13.65C18.8011 13.65 18.6103 13.729 18.4697 13.8697C18.329 14.0103 18.25 14.2011 18.25 14.4V14.8C18.2495 14.859 18.2279 14.9158 18.1893 14.9604C18.1506 15.0049 18.0973 15.0342 18.039 15.043C17.5689 15.1265 17.1387 15.3608 16.8134 15.7103C16.488 16.0599 16.2853 16.5058 16.2357 16.9807C16.1862 17.4556 16.2925 17.9338 16.5386 18.343C16.7847 18.7522 17.1572 19.0702 17.6 19.249L19.836 20.144C19.9913 20.2017 20.1211 20.3126 20.2024 20.4569C20.2836 20.6013 20.311 20.7698 20.2797 20.9325C20.2484 21.0952 20.1604 21.2415 20.0314 21.3454C19.9023 21.4493 19.7406 21.5041 19.575 21.5H17.375C17.1761 21.5 16.9853 21.579 16.8447 21.7197C16.704 21.8603 16.625 22.0511 16.625 22.25C16.625 22.4489 16.704 22.6397 16.8447 22.7803C16.9853 22.921 17.1761 23 17.375 23H18C18.0663 23 18.1299 23.0263 18.1768 23.0732ZM35.8538 22.6464C35.9475 22.7402 36.0002 22.8674 36.0002 23V28C36.0018 28.1004 35.9732 28.1989 35.9181 28.2828C35.8629 28.3666 35.7838 28.432 35.6911 28.4703C35.5983 28.5086 35.4961 28.518 35.3979 28.4975C35.2996 28.4769 35.2099 28.4273 35.1402 28.355L33.6792 26.893C33.6334 26.8474 33.5718 26.8212 33.5071 26.8199C33.4425 26.8186 33.3798 26.8422 33.3322 26.886L28.2852 31.539C27.9058 31.8863 27.4152 32.0871 26.9011 32.1054C26.3871 32.1238 25.8834 31.9584 25.4802 31.639L22.5802 29.315C22.5339 29.2782 22.4762 29.259 22.4171 29.2606C22.358 29.2623 22.3014 29.2847 22.2572 29.324L15.1022 35.684C14.9794 35.793 14.8364 35.8767 14.6812 35.9305C14.5261 35.9842 14.3619 36.0068 14.198 35.997C13.867 35.9774 13.5574 35.827 13.3372 35.579C13.2282 35.4562 13.1445 35.3132 13.0908 35.158C13.0371 35.0029 13.0144 34.8386 13.0242 34.6748C13.0339 34.5109 13.0759 34.3505 13.1476 34.2028C13.2193 34.0551 13.3194 33.923 13.4422 33.814L20.7562 27.314L20.9752 27.12C21.3549 26.7839 21.8409 26.5925 22.3478 26.5796C22.8547 26.5666 23.3499 26.7328 23.7462 27.049L26.6462 29.366C26.6928 29.4033 26.7513 29.4226 26.811 29.4204C26.8706 29.4182 26.9275 29.3946 26.9712 29.354L31.5542 25.129C31.5789 25.1061 31.5987 25.0784 31.6125 25.0476C31.6262 25.0169 31.6337 24.9837 31.6343 24.95C31.635 24.9163 31.6288 24.8828 31.6163 24.8516C31.6037 24.8203 31.585 24.7919 31.5612 24.768L30.1462 23.354C30.0761 23.2841 30.0284 23.1949 30.009 23.0978C29.9896 23.0007 29.9995 22.9 30.0374 22.8085C30.0754 22.7171 30.1396 22.6389 30.222 22.584C30.3044 22.5291 30.4012 22.4998 30.5002 22.5H35.5002C35.6328 22.5 35.76 22.5527 35.8538 22.6464Z" fill="white"/>
<defs>
<linearGradient id="investment-paint0_linear" x1="24" y1="0" x2="24" y2="48" gradientUnits="userSpaceOnUse">
<stop stop-color="#66C6EC"/>
<stop offset="1" stop-color="#00A0DF"/>
</linearGradient>
</defs>
</svg>
