<svg class="icon"
     viewBox="0 0 40 40"
     fill="none"
     xmlns="http://www.w3.org/2000/svg"
>
    <path d="M39.9999 16.8519C39.9999 16.626 39.9082 16.4093 39.745 16.2495C39.5817 16.0898 39.3603 16 39.1295 16H30.4256C30.2533 15.9997 30.0847 16.0495 29.9413 16.1431C29.7978 16.2367 29.686 16.3698 29.62 16.5257C29.554 16.6815 29.5368 16.8531 29.5705 17.0185C29.6042 17.184 29.6874 17.3359 29.8094 17.455L32.2726 19.8642C32.314 19.9049 32.3466 19.9533 32.3685 20.0066C32.3903 20.0599 32.401 20.1169 32.3999 20.1743C32.3987 20.2317 32.3858 20.2883 32.3618 20.3407C32.3379 20.3931 32.3034 20.4402 32.2604 20.4793L24.2825 27.6778C24.2063 27.7471 24.1073 27.7872 24.0035 27.7909C23.8996 27.7947 23.7979 27.7618 23.7167 27.6983L18.6685 23.7506C17.9785 23.2118 17.1165 22.9286 16.2341 22.9507C15.3518 22.9729 14.5057 23.2989 13.8448 23.8715L13.4636 24.2021L0.731559 35.2768C0.517817 35.4625 0.34354 35.6876 0.218677 35.9392C0.0938153 36.1908 0.0208139 36.4641 0.00384115 36.7433C-0.0131316 37.0226 0.0262567 37.3024 0.119757 37.5667C0.213258 37.831 0.359039 38.0748 0.548778 38.284C0.931974 38.7065 1.47096 38.9627 2.04715 38.9962C2.33246 39.0129 2.61831 38.9743 2.88839 38.8828C3.15848 38.7913 3.4075 38.6486 3.62124 38.4629L16.0765 27.6267C16.1533 27.5598 16.2519 27.5215 16.3547 27.5187C16.4576 27.5159 16.5582 27.5487 16.6387 27.6114L21.687 31.571C22.3888 32.1152 23.2657 32.3969 24.1605 32.3657C25.0552 32.3345 25.9094 31.9924 26.5698 31.4006L35.3555 23.4729C35.4384 23.3983 35.5474 23.358 35.66 23.3602C35.7725 23.3624 35.8798 23.407 35.9596 23.4848L38.5028 25.9757C38.6241 26.0989 38.7803 26.1835 38.9514 26.2185C39.1224 26.2535 39.3002 26.2374 39.4617 26.1721C39.6232 26.1069 39.7609 25.9955 39.8569 25.8526C39.9529 25.7097 40.0027 25.5419 39.9999 25.3709V16.8519Z" fill="url(#invest-paint0_linear)"/>
    <path d="M13.4999 0C7.71196 0 3 4.71201 3 10.5C3 16.288 7.71196 21 13.4999 21C19.2878 21 23.9998 16.288 23.9998 10.5C24.0369 4.71201 19.3249 0 13.4999 0Z" fill="url(#invest-paint1_linear)"/>
    <mask id="invest-mask0" mask-type="alpha" maskUnits="userSpaceOnUse" x="3" y="0" width="21" height="21">
        <path d="M13.4999 0C7.71196 0 3 4.71201 3 10.5C3 16.288 7.71196 21 13.4999 21C19.2878 21 23.9998 16.288 23.9998 10.5C24.0369 4.71201 19.3249 0 13.4999 0Z" fill="url(#invest-paint2_linear)"/>
    </mask>
    <g mask="url(#invest-mask0)">
        <path d="M24 21V0L3 21H24Z" fill="url(#invest-paint3_linear)"/>
    </g>
    <path opacity="0.5" d="M13.5459 1.75C8.72267 1.75 4.79604 5.67668 4.79604 10.5C4.79604 15.3233 8.72267 19.25 13.5459 19.25C18.3692 19.25 22.2959 15.3233 22.2959 10.5C22.3268 5.67668 18.4001 1.75 13.5459 1.75V1.75Z" stroke="#E99B26" stroke-width="0.83125"/>
    <path d="M13.9365 5.42017C15.0547 5.56656 15.9772 6.03502 16.4524 6.7377C16.5363 6.88409 16.5922 7.03049 16.5922 7.20616C16.5922 7.64533 16.2567 7.99668 15.8374 7.99668C15.6417 7.99668 15.4461 7.87956 15.2504 7.67461C14.8031 7.23544 14.0763 6.88409 13.2936 6.88409C12.1195 6.88409 11.7002 7.46966 11.7002 8.05523C11.7002 9.98761 16.8158 9.07998 16.8158 12.7398C16.8158 14.3501 15.8374 15.4041 13.9645 15.6091V16.4289C13.9645 16.8095 13.657 17.1316 13.2936 17.1316C12.9302 17.1316 12.6506 16.8095 12.6506 16.4289V15.6091C11.2809 15.4334 10.2186 14.6722 9.74341 13.8524C9.6875 13.7353 9.63159 13.5889 9.63159 13.4425C9.63159 13.0033 9.96704 12.652 10.3864 12.652C10.6938 12.652 10.8616 12.8276 11.0013 12.974C11.5884 13.5889 12.3431 14.0866 13.2936 14.0866C14.5795 14.0866 15.1945 13.6474 15.1945 12.7398C15.1945 10.6025 10.0789 11.5687 10.0789 8.05523C10.0789 6.7377 10.8616 5.62512 12.6506 5.42017V4.57109C12.6506 4.19047 12.9581 3.86841 13.2936 3.86841C13.657 3.86841 13.9645 4.19047 13.9645 4.57109V5.42017H13.9365Z" fill="#A76013"/>
    <defs>
        <linearGradient id="invest-paint0_linear" x1="35.0747" y1="18.7154" x2="19.5468" y2="53.417" gradientUnits="userSpaceOnUse">
            <stop stop-color="#66DE7D"/>
            <stop offset="1" stop-color="#4ABE6B"/>
        </linearGradient>
        <linearGradient id="invest-paint1_linear" x1="13.5461" y1="43.3125" x2="13.5461" y2="1.33255e-07" gradientUnits="userSpaceOnUse">
            <stop stop-color="#E99B26"/>
            <stop offset="1" stop-color="#FAC34B"/>
        </linearGradient>
        <linearGradient id="invest-paint2_linear" x1="13.5461" y1="43.3125" x2="13.5461" y2="1.33255e-07" gradientUnits="userSpaceOnUse">
            <stop stop-color="#413017"/>
            <stop offset="1" stop-color="#FAC34B"/>
        </linearGradient>
        <linearGradient id="invest-paint3_linear" x1="13.7625" y1="21" x2="21.1125" y2="3.4125" gradientUnits="userSpaceOnUse">
            <stop stop-color="#E99B26" stop-opacity="0.26"/>
            <stop offset="1" stop-color="#FAC34B"/>
        </linearGradient>
    </defs>
</svg>
