<svg class="icon"
     viewBox="0 0 40 40"
     fill="none"
     xmlns="http://www.w3.org/2000/svg"
>
    <g clip-path="url(#job-clip0)">
        <path d="M1 17C1 15.3431 2.34315 14 4 14H36C37.6569 14 39 15.3431 39 17V32C39 33.6569 37.6569 35 36 35H4C2.34315 35 1 33.6569 1 32V17Z" fill="#A76013"/>
        <path d="M14 16.5V12V11C14 7.68629 16.6863 5 20 5V5C23.3137 5 26 7.68629 26 11V12V16.5" stroke="#C87C1B" stroke-width="2" stroke-linecap="round"/>
        <path d="M0 11C0 10.4477 0.447715 10 1 10H39C39.5523 10 40 10.4477 40 11V20.0642C40 20.5773 39.6116 21.0072 39.1011 21.0591L20.1011 22.9897C20.0339 22.9966 19.9661 22.9966 19.8989 22.9897L0.898908 21.0591C0.388397 21.0072 0 20.5773 0 20.0642V11Z" fill="url(#job-paint0_linear)"/>
        <path d="M8.5 17C8.5 16.4477 8.94772 16 9.5 16H10.5C11.0523 16 11.5 16.4477 11.5 17V29.6667C11.5 29.883 11.4298 30.0936 11.3 30.2667L10.8 30.9333C10.4 31.4667 9.6 31.4667 9.2 30.9333L8.7 30.2667C8.57018 30.0936 8.5 29.883 8.5 29.6667V17Z" fill="url(#job-paint1_linear)"/>
        <rect x="7" y="15" width="6" height="2" rx="1" fill="#A76013"/>
        <g filter="url(#job-filter0_d)">
            <rect x="8" y="25" width="4" height="3" rx="1.5" fill="url(#job-paint2_linear)"/>
        </g>
        <path d="M28.5 17C28.5 16.4477 28.9477 16 29.5 16H30.5C31.0523 16 31.5 16.4477 31.5 17V29.6667C31.5 29.883 31.4298 30.0936 31.3 30.2667L30.8 30.9333C30.4 31.4667 29.6 31.4667 29.2 30.9333L28.7 30.2667C28.5702 30.0936 28.5 29.883 28.5 29.6667V17Z" fill="url(#job-paint3_linear)"/>
        <g filter="url(#job-filter1_d)">
            <rect x="28" y="25" width="4" height="3" rx="1.5" fill="url(#job-paint4_linear)"/>
        </g>
        <rect x="27" y="15" width="6" height="2" rx="1" fill="#A76013"/>
    </g>
    <defs>
        <filter id="job-filter0_d" x="4" y="23" width="12" height="11" filterUnits="userSpaceOnUse" color-interpolation-filters="sRGB">
            <feFlood flood-opacity="0" result="BackgroundImageFix"/>
            <feColorMatrix in="SourceAlpha" type="matrix" values="0 0 0 0 0 0 0 0 0 0 0 0 0 0 0 0 0 0 127 0"/>
            <feOffset dy="2"/>
            <feGaussianBlur stdDeviation="2"/>
            <feColorMatrix type="matrix" values="0 0 0 0 0 0 0 0 0 0 0 0 0 0 0 0 0 0 0.1 0"/>
            <feBlend mode="normal" in2="BackgroundImageFix" result="effect1_dropShadow"/>
            <feBlend mode="normal" in="SourceGraphic" in2="effect1_dropShadow" result="shape"/>
        </filter>
        <filter id="job-filter1_d" x="24" y="23" width="12" height="11" filterUnits="userSpaceOnUse" color-interpolation-filters="sRGB">
            <feFlood flood-opacity="0" result="BackgroundImageFix"/>
            <feColorMatrix in="SourceAlpha" type="matrix" values="0 0 0 0 0 0 0 0 0 0 0 0 0 0 0 0 0 0 127 0"/>
            <feOffset dy="2"/>
            <feGaussianBlur stdDeviation="2"/>
            <feColorMatrix type="matrix" values="0 0 0 0 0 0 0 0 0 0 0 0 0 0 0 0 0 0 0.1 0"/>
            <feBlend mode="normal" in2="BackgroundImageFix" result="effect1_dropShadow"/>
            <feBlend mode="normal" in="SourceGraphic" in2="effect1_dropShadow" result="shape"/>
        </filter>
        <linearGradient id="job-paint0_linear" x1="20" y1="49" x2="-2.87082" y2="17.725" gradientUnits="userSpaceOnUse">
            <stop stop-color="#A76013"/>
            <stop offset="1" stop-color="#E99B26"/>
        </linearGradient>
        <linearGradient id="job-paint1_linear" x1="10" y1="16" x2="10" y2="46" gradientUnits="userSpaceOnUse">
            <stop stop-color="#FAC34B"/>
            <stop offset="1" stop-color="#E99B26"/>
        </linearGradient>
        <linearGradient id="job-paint2_linear" x1="10" y1="25" x2="10" y2="28.6" gradientUnits="userSpaceOnUse">
            <stop stop-color="#F4F5F7"/>
            <stop offset="1" stop-color="#DFE1E6"/>
        </linearGradient>
        <linearGradient id="job-paint3_linear" x1="30" y1="16" x2="30" y2="46" gradientUnits="userSpaceOnUse">
            <stop stop-color="#FAC34B"/>
            <stop offset="1" stop-color="#E99B26"/>
        </linearGradient>
        <linearGradient id="job-paint4_linear" x1="30" y1="25" x2="30" y2="28.6" gradientUnits="userSpaceOnUse">
            <stop stop-color="#F4F5F7"/>
            <stop offset="1" stop-color="#DFE1E6"/>
        </linearGradient>
        <clipPath id="job-clip0">
            <rect width="40" height="40" fill="white"/>
        </clipPath>
    </defs>
</svg>
