<svg class="icon" viewBox="0 0 360 264" fill="none" xmlns="http://www.w3.org/2000/svg">
<g filter="url(#lana-sim-shipped-filter0_d)">
<path d="M94.5425 124.744L168.178 30.123L263.947 102.259L278 208.137L108.595 230.622L94.5425 124.744Z" fill="white"/>
<path d="M91.3816 122.284C90.7225 123.131 90.4308 124.207 90.572 125.271L104.625 231.149C104.916 233.342 106.93 234.884 109.122 234.592L278.527 212.108C280.72 211.817 282.261 209.803 281.97 207.61L267.917 101.732C267.776 100.669 267.214 99.7059 266.357 99.0602L170.588 26.9238C168.841 25.6077 166.361 25.9368 165.017 27.6631L91.3816 122.284Z" stroke="white" stroke-width="8.01048" stroke-linecap="round" stroke-linejoin="round"/>
</g>
<path d="M94.5423 124.744L185.2 112.711L263.947 102.259L278 208.137L108.595 230.622L94.5423 124.744Z" fill="#EBECF0"/>
<path d="M94.5424 124.744L263.947 102.259L176.576 36.4484C171.917 32.9389 165.303 33.8166 161.721 38.4201L94.5424 124.744Z" fill="#EBECF0"/>
<path d="M263.947 102.259L187.676 177.029L278 208.137L263.947 102.259Z" fill="#FAFBFC"/>
<path d="M94.5423 124.744L187.676 177.029L108.595 230.622L94.5423 124.744Z" fill="#FAFBFC"/>
<path d="M108.595 230.622L278 208.137L206.744 158.336L193.397 171.421C190.007 174.744 184.831 175.431 180.691 173.107L164.393 163.957L108.595 230.622Z" fill="#F4F5F7"/>
<mask id="lana-sim-shipped-mask0" mask-type="alpha" maskUnits="userSpaceOnUse" x="85" y="15" width="179" height="160">
<path d="M85.2323 37.4847L254.637 15L263.947 102.259L193.397 171.42C190.007 174.744 184.831 175.431 180.691 173.107L94.5424 124.744L85.2323 37.4847Z" fill="#C4C4C4"/>
</mask>
<g mask="url(#lana-sim-shipped-mask0)">
<g filter="url(#lana-sim-shipped-filter1_d)">
<rect x="240.455" y="61.5455" width="190.909" height="120" rx="10.9091" transform="rotate(90 240.455 61.5455)" fill="#00A0DF"/>
</g>
<mask id="lana-sim-shipped-mask1" mask-type="alpha" maskUnits="userSpaceOnUse" x="120" y="61" width="121" height="192">
<path d="M229.545 61.5455C235.57 61.5455 240.455 66.4296 240.455 72.4546L240.455 241.545C240.455 247.57 235.57 252.455 229.545 252.455L131.364 252.455C125.339 252.455 120.455 247.57 120.455 241.545L120.455 72.4545C120.455 66.4296 125.339 61.5455 131.364 61.5455L229.545 61.5455Z" fill="url(#lana-sim-shipped-paint0_linear)"/>
</mask>
<g mask="url(#lana-sim-shipped-mask1)">
<path d="M140.059 82.1262C140.056 81.3317 139.813 80.5564 139.361 79.9007C139.321 79.8418 139.269 79.7916 139.209 79.7532C139.149 79.7148 139.082 79.6889 139.011 79.6771C138.941 79.6653 138.868 79.6679 138.799 79.6846C138.729 79.7015 138.664 79.7321 138.607 79.7747L138.432 79.905C138.326 79.9844 138.253 80.1005 138.229 80.2303C138.206 80.3601 138.232 80.494 138.303 80.6056C138.598 81.0591 138.756 81.5865 138.76 82.1262C138.76 83.2124 138.24 83.9803 137.119 83.9803L136.97 83.9803C137.092 83.3697 137.157 82.7488 137.161 82.1262C137.161 80.3884 136.307 79.0849 134.782 79.0849C133.432 79.0849 132.411 80.1505 132.411 81.6472C132.41 82.515 132.743 83.3502 133.342 83.9825L133.052 83.9825C132.912 83.9825 132.778 84.0377 132.679 84.1359C132.58 84.2341 132.525 84.3672 132.525 84.506L132.525 84.7678C132.525 84.9066 132.58 85.0398 132.679 85.138C132.778 85.2362 132.912 85.2913 133.052 85.2913L137.133 85.2913C138.912 85.2924 140.059 84.0368 140.059 82.1262ZM134.648 83.9803C133.964 83.3189 133.602 82.5683 133.602 81.7124C133.602 80.8934 134.058 80.3004 134.761 80.3004C135.715 80.3004 135.999 81.3344 135.999 82.0926C136.003 82.7254 135.962 83.3577 135.875 83.9847L134.648 83.9803ZM133.78 77.9857L133.78 76.6823L141.926 76.6823C142.066 76.6823 142.201 76.627 142.3 76.5286C142.399 76.4302 142.455 76.2968 142.455 76.1577L142.455 74.7207C142.455 74.6518 142.441 74.5837 142.414 74.5201C142.388 74.4565 142.349 74.3988 142.3 74.3501C142.251 74.3014 142.192 74.263 142.128 74.2367C142.064 74.2104 141.995 74.1971 141.926 74.1972L141.729 74.1972C141.66 74.1971 141.591 74.2104 141.527 74.2367C141.463 74.263 141.404 74.3014 141.355 74.3501C141.306 74.3988 141.267 74.4565 141.241 74.5201C141.214 74.5837 141.2 74.6518 141.2 74.7207L141.2 75.3724L133.78 75.3724L133.78 74.069C133.78 73.9302 133.724 73.797 133.625 73.6988C133.526 73.6006 133.392 73.5455 133.252 73.5455L133.054 73.5455C132.914 73.5455 132.78 73.6006 132.681 73.6988C132.582 73.797 132.527 73.9302 132.527 74.069L132.527 77.9792C132.527 78.118 132.582 78.2512 132.681 78.3494C132.78 78.4476 132.914 78.5028 133.054 78.5028L133.252 78.5028C133.391 78.5028 133.524 78.4484 133.623 78.3518C133.722 78.255 133.778 78.1235 133.78 77.9857ZM140.06 96.8852C140.057 96.091 139.813 95.316 139.361 94.6607C139.321 94.6019 139.269 94.5518 139.209 94.5135C139.149 94.4752 139.081 94.4494 139.011 94.4377C138.94 94.4261 138.868 94.4287 138.799 94.4455C138.729 94.4625 138.664 94.4931 138.607 94.5358L138.432 94.665C138.326 94.7445 138.254 94.8606 138.23 94.9903C138.206 95.1201 138.232 95.2539 138.303 95.3656C138.598 95.8191 138.756 96.3465 138.76 96.8862C138.76 97.9724 138.24 98.7403 137.119 98.7403L136.97 98.7403C137.092 98.1297 137.157 97.5088 137.161 96.8862C137.161 95.1484 136.307 93.845 134.782 93.845C133.432 93.845 132.411 94.9094 132.411 96.4062C132.41 97.2739 132.743 98.1092 133.342 98.7414L133.052 98.7414C132.912 98.7414 132.778 98.7966 132.679 98.8948C132.58 98.993 132.525 99.1262 132.525 99.265L132.525 99.5213C132.524 99.5902 132.538 99.6584 132.564 99.722C132.591 99.7857 132.63 99.8435 132.679 99.8922C132.728 99.9409 132.786 99.9796 132.85 100.006C132.914 100.032 132.983 100.046 133.052 100.046L137.133 100.046C138.912 100.05 140.059 98.7979 140.059 96.8862L140.06 96.8852ZM134.649 98.7393C133.965 98.0778 133.604 97.3272 133.604 96.4724C133.604 95.6524 134.059 95.0604 134.762 95.0604C135.716 95.0604 136 96.0944 136 96.8526C136.004 97.4851 135.963 98.117 135.876 98.7436L134.649 98.7393ZM133.992 104.34C134.104 104.339 134.213 104.304 134.304 104.238C134.394 104.172 134.462 104.08 134.495 103.974C134.595 104.025 134.708 104.043 134.819 104.026C134.93 104.009 135.032 103.958 135.112 103.879C135.191 103.801 135.243 103.699 135.26 103.589C135.277 103.479 135.259 103.366 135.207 103.268C135.314 103.234 135.408 103.168 135.474 103.078C135.541 102.988 135.577 102.879 135.577 102.768C135.577 102.656 135.541 102.548 135.474 102.458C135.408 102.368 135.314 102.302 135.207 102.268C135.259 102.17 135.277 102.057 135.26 101.947C135.243 101.837 135.191 101.735 135.112 101.657C135.032 101.578 134.93 101.526 134.819 101.509C134.708 101.492 134.595 101.511 134.495 101.562C134.462 101.456 134.395 101.363 134.304 101.297C134.214 101.231 134.104 101.195 133.992 101.195C133.88 101.195 133.77 101.231 133.68 101.297C133.589 101.363 133.522 101.456 133.489 101.562C133.389 101.511 133.276 101.492 133.165 101.509C133.054 101.526 132.952 101.578 132.872 101.657C132.793 101.735 132.741 101.837 132.724 101.947C132.707 102.057 132.726 102.17 132.777 102.268C132.67 102.302 132.576 102.368 132.51 102.458C132.443 102.548 132.407 102.656 132.407 102.768C132.407 102.879 132.443 102.988 132.51 103.078C132.576 103.168 132.67 103.234 132.777 103.268C132.726 103.366 132.707 103.479 132.724 103.589C132.741 103.699 132.793 103.801 132.872 103.879C132.952 103.958 133.054 104.009 133.165 104.026C133.276 104.043 133.389 104.025 133.489 103.974C133.523 104.081 133.591 104.174 133.683 104.241C133.774 104.307 133.885 104.342 133.999 104.341L133.992 104.34ZM140.056 89.8935C140.056 89.1842 139.735 88.4814 139.233 87.9003L139.427 87.9003C139.566 87.9003 139.701 87.8452 139.799 87.747C139.898 87.6488 139.954 87.5156 139.954 87.3768L139.954 87.115C139.954 86.9762 139.898 86.8431 139.799 86.7449C139.701 86.6467 139.566 86.5915 139.427 86.5915L133.053 86.5915C132.913 86.5915 132.779 86.6467 132.68 86.7449C132.581 86.8431 132.526 86.9762 132.526 87.115L132.526 87.3768C132.526 87.5156 132.581 87.6488 132.68 87.747C132.779 87.8452 132.913 87.9003 133.053 87.9003L138.013 87.9003C138.499 88.4434 138.785 89.1494 138.785 89.7859C138.785 90.7505 138.219 91.5955 136.912 91.5977L133.053 91.5977C132.984 91.5977 132.915 91.6112 132.851 91.6376C132.787 91.664 132.729 91.7027 132.68 91.7514C132.631 91.8001 132.592 91.8579 132.565 91.9216C132.539 91.9852 132.526 92.0534 132.526 92.1223L132.526 92.3841C132.526 92.5229 132.581 92.656 132.68 92.7542C132.779 92.8524 132.913 92.9076 133.053 92.9076L136.905 92.9076C138.869 92.9022 140.059 91.7193 140.059 89.8891L140.056 89.8935Z" fill="#19194B"/>
<path fill-rule="evenodd" clip-rule="evenodd" d="M141.827 120.196L141.827 111.824C141.827 110.321 140.608 109.103 139.106 109.103L134.501 109.103C132.998 109.103 131.78 110.321 131.78 111.824L131.78 120.196C131.78 121.699 132.998 122.918 134.501 122.918L139.106 122.918C140.608 122.918 141.827 121.699 141.827 120.196ZM142.455 111.824C142.455 109.974 140.955 108.475 139.106 108.475L134.501 108.475C132.651 108.475 131.152 109.974 131.152 111.824L131.152 120.196C131.152 122.046 132.651 123.545 134.501 123.545L139.106 123.545C140.955 123.545 142.455 122.046 142.455 120.196L142.455 111.824Z" fill="#19194B"/>
<path d="M134.856 113.295C134.856 114.187 135.39 114.758 136.144 114.815L136.144 114.118C135.679 114.074 135.44 113.729 135.44 113.327C135.44 112.768 135.817 112.416 136.533 112.416L136.583 112.416C137.261 112.416 137.663 112.787 137.663 113.308C137.663 113.71 137.481 113.999 137.042 114.061L137.042 114.796C137.946 114.708 138.272 114.024 138.272 113.295C138.272 112.379 137.613 111.638 136.571 111.638L136.52 111.638C135.472 111.638 134.856 112.353 134.856 113.295Z" fill="#19194B"/>
<path d="M134.856 117.008C134.856 117.849 135.233 118.408 135.924 118.515L135.924 117.78C135.604 117.724 135.422 117.485 135.422 117.027C135.422 116.461 135.773 116.147 136.395 116.122L136.395 118.527L136.615 118.527C137.789 118.527 138.272 117.793 138.272 116.976C138.272 116.041 137.594 115.344 136.577 115.344L136.527 115.344C135.491 115.344 134.856 116.041 134.856 117.008ZM136.904 116.135C137.412 116.21 137.72 116.518 137.72 116.976C137.72 117.447 137.469 117.736 136.904 117.774L136.904 116.135Z" fill="#19194B"/>
<path d="M134.919 119.319L134.919 120.079L139.723 120.079L139.723 119.319L134.919 119.319Z" fill="#19194B"/>
</g>
<path d="M206.455 129L206.455 79C206.455 76.2386 204.216 74 201.455 74L174.455 74C171.693 74 169.455 76.2386 169.455 79L169.455 123.343C169.455 124.669 169.981 125.941 170.919 126.879L176.576 132.536C177.514 133.473 178.785 134 180.111 134L201.455 134C204.216 134 206.455 131.761 206.455 129Z" fill="white" stroke="#19194B" stroke-width="2"/>
<rect x="199.455" y="84" width="26" height="18.7778" rx="2.88889" transform="rotate(90 199.455 84)" fill="url(#lana-sim-shipped-paint1_linear)"/>
<rect x="189.343" y="97" width="7.22222" height="1.44444" transform="rotate(90 189.343 97)" fill="#C87C1B"/>
<rect x="199.455" y="89.7778" width="7.22222" height="1.44444" transform="rotate(-180 199.455 89.7778)" fill="#C87C1B"/>
<rect x="185.01" y="92.6667" width="5.77778" height="1.44444" transform="rotate(90 185.01 92.6667)" fill="#C87C1B"/>
<rect x="192.232" y="105.667" width="11.5556" height="1.44444" transform="rotate(-180 192.232 105.667)" fill="#C87C1B"/>
<rect x="190.788" y="110" width="5.77778" height="1.44444" transform="rotate(-90 190.788 110)" fill="#C87C1B"/>
<rect x="180.677" y="97" width="18.7778" height="1.44444" fill="#C87C1B"/>
<path d="M192.232 84L192.232 92.6667L180.677 92.6667" stroke="#C87C1B" stroke-width="1.44444"/>
<rect x="198.455" y="73" width="2" height="21" transform="rotate(90 198.455 73)" fill="white"/>
</g>
<defs>
<filter id="lana-sim-shipped-filter0_d" x="75.8513" y="16.7718" width="220.841" height="237.883" filterUnits="userSpaceOnUse" color-interpolation-filters="sRGB">
<feFlood flood-opacity="0" result="BackgroundImageFix"/>
<feColorMatrix in="SourceAlpha" type="matrix" values="0 0 0 0 0 0 0 0 0 0 0 0 0 0 0 0 0 0 127 0"/>
<feOffset dy="5.34032"/>
<feGaussianBlur stdDeviation="5.34032"/>
<feColorMatrix type="matrix" values="0 0 0 0 0 0 0 0 0 0 0 0 0 0 0 0 0 0 0.24 0"/>
<feBlend mode="normal" in2="BackgroundImageFix" result="effect1_dropShadow"/>
<feBlend mode="normal" in="SourceGraphic" in2="effect1_dropShadow" result="shape"/>
</filter>
<filter id="lana-sim-shipped-filter1_d" x="109.545" y="53.3636" width="141.818" height="212.727" filterUnits="userSpaceOnUse" color-interpolation-filters="sRGB">
<feFlood flood-opacity="0" result="BackgroundImageFix"/>
<feColorMatrix in="SourceAlpha" type="matrix" values="0 0 0 0 0 0 0 0 0 0 0 0 0 0 0 0 0 0 127 0"/>
<feOffset dy="2.72727"/>
<feGaussianBlur stdDeviation="5.45455"/>
<feColorMatrix type="matrix" values="0 0 0 0 0 0 0 0 0 0 0 0 0 0 0 0 0 0 0.1 0"/>
<feBlend mode="normal" in2="BackgroundImageFix" result="effect1_dropShadow"/>
<feBlend mode="normal" in="SourceGraphic" in2="effect1_dropShadow" result="shape"/>
</filter>
<linearGradient id="lana-sim-shipped-paint0_linear" x1="240.455" y1="157" x2="-50.974" y2="157" gradientUnits="userSpaceOnUse">
<stop stop-color="#00A0DF"/>
<stop offset="1" stop-color="#007CBF"/>
</linearGradient>
<linearGradient id="lana-sim-shipped-paint1_linear" x1="216.788" y1="129.5" x2="221.619" y2="76.4958" gradientUnits="userSpaceOnUse">
<stop stop-color="#C87C1B"/>
<stop offset="1" stop-color="#FBD677"/>
</linearGradient>
</defs>
</svg>
