<svg class="icon"
     viewBox="0 0 40 40"
     fill="none"
     xmlns="http://www.w3.org/2000/svg"
>
    <g clip-path="url(#lanacardsend-clip0)">
        <path d="M2 17.6138H21.1681H37.8178V40H2L2 17.6138Z" fill="#EBECF0"/>
        <path d="M2.03648 17.6291L37.8543 17.6291L22.7514 2.76224C21.1946 1.22972 18.6962 1.22972 17.1393 2.76224L2.03648 17.6291Z" fill="#EBECF0"/>
        <rect x="6" y="12" width="28" height="19.6" rx="2.8" fill="url(#lanacardsend-paint0_linear)"/>
        <circle cx="29.1" cy="26" r="2.1" fill="#FAC34B"/>
        <circle cx="26.3" cy="26" r="2.1" fill="#EB4B68"/>
        <mask id="lanacardsend-mask0" mask-type="alpha" maskUnits="userSpaceOnUse" x="6" y="12" width="10" height="20">
            <rect x="15.8" y="31.6" width="9.8" height="19.6" rx="2.8" transform="rotate(-180 15.8 31.6)" fill="white"/>
        </mask>
        <g mask="url(#lanacardsend-mask0)">
            <path d="M8.07293 29.64C7.54012 30.0106 6.9508 30.2 6.35 30.2C5.69915 30.2 5.10093 30.0149 4.61247 29.6292C4.2304 29.3329 3.91903 28.9502 3.71697 28.4823C3.38892 28.6148 3.05507 28.6893 2.71443 28.6893C2.55082 28.6893 2.38713 28.6651 2.24236 28.6363L2.238 28.6355C1.65109 28.51 1.05098 28.2005 0.633568 27.765C0.149555 27.2599 -0.0883538 26.6986 -0.201342 26.087L-0.204476 26.07L-0.205925 26.0528C-0.250624 25.5222 -0.224496 25.0063 -0.0450206 24.516C-0.456235 24.2869 -0.862954 23.9727 -1.15438 23.5574C-1.52026 23.0452 -1.7 22.4233 -1.7 21.8C-1.7 21.2239 -1.5105 20.6176 -1.22941 20.0811L-1.22288 20.0686L-1.21535 20.0568C-0.923235 19.5964 -0.513497 19.261 -0.0528002 19.0501C-0.234714 18.5506 -0.298404 18.0385 -0.201341 17.513L-0.200634 17.5092C-0.0804241 16.8968 0.216154 16.2706 0.633569 15.835C1.11758 15.33 1.65554 15.0817 2.24167 14.9638L2.25602 14.9609L2.27058 14.9594C2.40986 14.9449 2.54925 14.9376 2.6887 14.9376C3.04479 14.9376 3.39431 14.9868 3.72712 15.1168C3.92414 14.6828 4.22516 14.2663 4.61561 13.9684L4.62125 13.9641L4.62708 13.96C5.15988 13.5894 5.7492 13.4 6.35 13.4C6.99848 13.4 7.59389 13.5941 8.0844 13.9684L8.08626 13.9698C8.46892 14.2663 8.78075 14.6493 8.98303 15.1177C9.31109 14.9852 9.64494 14.9108 9.98557 14.9108C10.1492 14.9108 10.3129 14.9349 10.4576 14.9637L10.462 14.9646C11.0489 15.09 11.649 15.3995 12.0664 15.835C12.5302 16.319 12.8456 16.8316 12.9059 17.5472C12.95 18.0699 12.9253 18.5784 12.7529 19.0622C13.1695 19.2678 13.5693 19.5822 13.8553 19.9902L13.8594 19.9961L13.8633 20.0022C14.2185 20.5581 14.4 21.1731 14.4 21.8C14.4 22.4767 14.214 23.098 13.8553 23.6098L13.8539 23.6118C13.5695 24.0115 13.2018 24.3372 12.7522 24.5483C12.9346 25.0483 12.9985 25.561 12.9013 26.087L12.9006 26.0908C12.7804 26.7032 12.4839 27.3294 12.0664 27.765C11.5824 28.27 11.0445 28.5183 10.4583 28.6362L10.444 28.6391L10.4294 28.6406C10.2901 28.6551 10.1508 28.6624 10.0113 28.6624C9.65521 28.6624 9.3057 28.6132 8.97289 28.4832C8.77586 28.9172 8.47484 29.3337 8.0844 29.6316L8.07875 29.636L8.07293 29.64Z" fill="#19194B"/>
            <path d="M6.33399 29.0576C5.89552 29.0576 5.51424 28.9316 5.21556 28.706C4.89148 28.4473 4.67542 28.1289 4.56103 27.7507C4.50384 27.5451 4.36404 27.3858 4.17975 27.3062C4.09714 27.2731 4.00182 27.2465 3.9065 27.2465C3.80483 27.2465 3.6968 27.2731 3.60148 27.3195C3.2901 27.4787 3.01049 27.5583 2.73724 27.5583C2.64192 27.5583 2.55295 27.5517 2.46399 27.5318C2.05729 27.4456 1.65059 27.2333 1.39005 26.9546C1.11044 26.6627 0.938864 26.3244 0.849899 25.8667C0.805416 25.3558 0.868963 24.9843 1.03418 24.6659C1.1295 24.4868 1.14222 24.2878 1.08502 24.102C1.02783 23.9163 0.888027 23.757 0.722805 23.6774C0.290686 23.4718 -0.0524668 23.2064 -0.268526 22.9079C-0.49094 22.6094 -0.605324 22.2113 -0.605324 21.7934C-0.605324 21.4418 -0.484582 21.0172 -0.281233 20.6258C-0.00798148 20.2211 0.373298 20.0354 0.652904 19.9425C0.849899 19.8828 1.00241 19.7368 1.07867 19.5445C1.15492 19.3521 1.15492 19.1398 1.0596 18.9408C0.849899 18.5096 0.786352 18.1181 0.856254 17.7466C0.938865 17.3221 1.14221 16.8975 1.40911 16.6255C1.68872 16.3336 2.01281 16.1545 2.45128 16.0616C2.55295 16.055 2.64827 16.055 2.73724 16.055C3.08675 16.055 3.36635 16.1147 3.60148 16.2606C3.70315 16.3203 3.81118 16.3469 3.93192 16.3469C4.01453 16.3469 4.1035 16.327 4.17975 16.3004C4.36404 16.2208 4.5102 16.0616 4.5801 15.8692C4.70084 15.4911 4.94231 15.1328 5.22192 14.9073C5.57143 14.6685 5.95906 14.5424 6.35941 14.5424C6.79788 14.5424 7.17916 14.6685 7.47783 14.894C7.80192 15.1527 8.01798 15.4712 8.13237 15.8493C8.18956 16.055 8.32936 16.2142 8.51365 16.2938C8.59626 16.327 8.69158 16.3535 8.7869 16.3535C8.88857 16.3535 8.9966 16.327 9.09192 16.2805C9.4033 16.1213 9.68291 16.0417 9.95616 16.0417C10.0515 16.0417 10.1404 16.0483 10.2294 16.0682C10.6361 16.1545 11.0428 16.3668 11.3034 16.6454C11.6592 17.0169 11.8117 17.3088 11.8435 17.6869C11.888 18.2177 11.8371 18.6091 11.6656 18.9209C11.5639 19.1066 11.5575 19.3255 11.6211 19.5246C11.6973 19.7169 11.8499 19.8695 12.0341 19.9425C12.3964 20.0685 12.7332 20.3206 12.9556 20.6125C13.1843 20.9774 13.3051 21.3821 13.3051 21.7934C13.3051 22.2511 13.1843 22.6492 12.9683 22.961C12.7204 23.2993 12.4154 23.5249 12.0532 23.6443C11.8562 23.704 11.7037 23.8499 11.6274 24.0423C11.5512 24.2347 11.5512 24.447 11.6465 24.646C11.8562 25.0772 11.9198 25.4686 11.8499 25.8401C11.7672 26.2647 11.5639 26.6893 11.297 26.9613C11.0174 27.2532 10.6933 27.4323 10.2548 27.5252C10.1532 27.5318 10.0578 27.5318 9.96887 27.5318C9.61936 27.5318 9.33975 27.4721 9.10463 27.3261C9.00296 27.2664 8.89493 27.2399 8.77419 27.2399C8.69158 27.2399 8.60261 27.2598 8.52635 27.2863C8.34207 27.3659 8.19591 27.5252 8.12601 27.7175C8.00527 28.0957 7.76379 28.4539 7.48419 28.6795C7.11562 28.9316 6.72162 29.0576 6.33399 29.0576Z" fill="white"/>
        </g>
        <rect x="17.9" y="16.2" width="11.9" height="1.4" rx="0.7" fill="#19194B"/>
        <rect x="17.9" y="19" width="4.9" height="1.4" rx="0.7" fill="#19194B"/>
        <rect x="17.9" y="21.8" width="4.9" height="1.4" rx="0.7" fill="#19194B"/>
        <rect x="23.5" y="19" width="4.9" height="1.4" rx="0.7" fill="#19194B"/>
        <path d="M37.8178 18L19.9089 31.4317L37.8178 40.3861V18Z" fill="#DFE1E6"/>
        <path d="M2 18L19.9089 31.4317L2 40.3861V18Z" fill="#DFE1E6"/>
        <path d="M2 40.3861H37.8178L24.3861 28.0737C21.733 30.0636 18.0848 30.0636 15.4317 28.0737L2 40.3861Z" fill="#EBECF0"/>
        </g>
    <defs>
        <linearGradient id="lanacardsend-paint0_linear" x1="20" y1="12" x2="20" y2="59.6" gradientUnits="userSpaceOnUse">
            <stop stop-color="#00A0DF"/>
            <stop offset="1" stop-color="#007CBF"/>
        </linearGradient>
        <clipPath id="lanacardsend-clip0">
            <rect width="40" height="40" fill="white"/>
        </clipPath>
    </defs>
</svg>
