<svg viewBox="0 0 360 264" fill="none" xmlns="http://www.w3.org/2000/svg">
  <g filter="url(#filter0_d)">
    <rect x="82.0903" y="23" width="254.45" height="159.94" rx="14.54" transform="rotate(7.71504 82.0903 23)"
      fill="white" />
    <rect x="79.5202" y="19.6244" width="260.45" height="165.94" rx="17.54" transform="rotate(7.71504 79.5202 19.6244)"
      stroke="white" stroke-width="6" stroke-linecap="round" stroke-linejoin="round" />
  </g>
  <rect x="82.0903" y="23" width="254.45" height="159.94" rx="14.54" transform="rotate(7.71504 82.0903 23)"
    fill="#00A0DF" />
  <mask id="mask0" mask-type="alpha" maskUnits="userSpaceOnUse" x="60" y="23" width="275" height="193">
    <path
      d="M80.1384 37.4084C81.2164 29.4509 88.5412 23.8739 96.4987 24.9519L319.829 55.207C327.786 56.2851 333.363 63.6098 332.285 71.5674L314.718 201.243C313.64 209.2 306.315 214.777 298.357 213.699L75.0274 183.444C67.0699 182.366 61.4929 175.041 62.5709 167.084L80.1384 37.4084Z"
      fill="url(#paint0_linear)" />
  </mask>
  <g mask="url(#mask0)">
    <path fill-rule="evenodd" clip-rule="evenodd"
      d="M294.125 150.316C293.916 151.862 295.002 153.288 296.548 153.497L299.192 153.855C300.739 154.065 302.163 152.98 302.373 151.434L305.79 126.208L297.543 125.09L294.125 150.316Z"
      fill="#19194B" />
    <path fill-rule="evenodd" clip-rule="evenodd"
      d="M385.674 103.685C384.351 103.842 383.179 104.609 382.509 105.758L381.174 108.047C380.506 109.197 380.417 110.594 380.932 111.821C384.276 119.762 381.857 129.231 374.866 134.549C367.332 140.282 356.561 139.616 349.805 133.001L347.451 131.849L301.626 125.641L299.049 126.125C290.783 130.707 280.219 128.481 274.484 120.95C269.159 113.962 269.346 104.192 274.682 97.427C275.508 96.3839 275.794 95.0115 275.453 93.7248L274.777 91.1637C274.439 89.8775 273.511 88.8262 272.277 88.3233C264.296 85.0723 259.307 76.6655 260.486 67.9638C261.665 59.264 268.71 52.4875 277.269 51.4771C278.592 51.3206 279.766 50.5541 280.434 49.4041L281.767 47.1152C282.439 45.9639 282.528 44.5667 282.009 43.3394C278.665 35.402 281.086 25.9335 288.076 20.6138C292.24 17.4433 297.396 16.228 302.317 16.8947C305.634 17.344 308.843 18.6493 311.568 20.7863C312.628 21.6184 314.008 21.9304 315.312 21.5855L317.873 20.9101C319.161 20.5726 320.213 19.6471 320.716 18.4141C323.967 10.4371 332.377 5.4538 341.081 6.63296C349.787 7.81238 356.568 14.8535 357.582 23.4085C357.738 24.7308 358.506 25.9008 359.656 26.5706L361.945 27.9029C363.095 28.5728 364.493 28.6616 365.722 28.1472C373.663 24.8056 383.136 27.2251 388.459 34.2129C393.782 41.1989 393.595 50.97 388.259 57.7353C387.436 58.7808 387.15 60.1513 387.488 61.4376L388.166 63.9989C388.506 65.2854 389.432 66.3364 390.666 66.8392C398.645 70.0901 403.634 78.4968 402.455 87.1967C401.276 95.8984 394.231 102.675 385.674 103.685ZM396.526 60.4237C402.432 50.921 402.083 38.365 395.084 29.1718C388.08 19.9799 376.063 16.3035 365.326 19.4693C362.781 8.57319 353.653 -0.0625131 342.198 -1.61428C330.748 -3.16554 319.649 2.72989 314.296 12.5562C304.789 6.6478 292.229 6.99471 283.032 13.9919C273.837 20.9911 270.162 33.0039 273.327 43.7337C262.426 46.2761 253.789 55.3994 252.239 66.8465C250.688 78.2954 256.586 89.3878 266.417 94.7389C260.508 104.239 260.856 116.797 267.86 125.989C272.406 131.957 279.067 135.601 286.118 136.556C291.369 137.265 296.843 136.486 301.817 134.064L345.028 139.918C354.749 148.488 369.489 149.098 379.911 141.169C389.104 134.173 392.781 122.161 389.616 111.429C400.515 108.886 409.152 99.7629 410.703 88.314C412.253 76.8669 406.355 65.7745 396.526 60.4237Z"
      fill="#19194B" />
    <path fill-rule="evenodd" clip-rule="evenodd"
      d="M390.666 66.8388C389.432 66.336 388.506 65.2849 388.166 63.9984L387.488 61.4371C387.15 60.1509 387.437 58.7804 388.259 57.7349C393.596 50.9696 393.783 41.1985 388.459 34.2125C383.136 27.2246 373.663 24.8051 365.722 28.1468C364.493 28.6631 363.095 28.5724 361.945 27.9025L359.654 26.5699C358.506 25.9003 357.738 24.7304 357.582 23.408C356.568 14.8531 349.787 7.81196 341.081 6.63254C332.377 5.45338 323.967 10.4366 320.716 18.4137C320.213 19.6467 319.161 20.5721 317.873 20.9097L315.312 21.5851C314.008 21.93 312.629 21.6179 311.568 20.7877C308.843 18.6488 305.634 17.3454 302.317 16.8961C297.396 16.2294 292.241 17.4429 288.077 20.6134C281.086 25.9331 278.665 35.4015 282.009 43.3408C282.528 44.5663 282.439 45.9654 281.767 47.1148L280.434 49.4037C279.766 50.5536 278.592 51.3202 277.269 51.4767C268.71 52.487 261.665 59.2635 260.486 67.9652C259.308 76.6651 264.296 85.0718 272.277 88.3229C273.511 88.8258 274.437 89.8768 274.777 91.1633L275.453 93.7244C275.794 95.013 275.508 96.3835 274.681 97.4285C269.346 104.192 269.159 113.961 274.484 120.949C280.219 128.482 290.783 130.708 299.05 126.125L301.626 125.641L347.451 131.849L349.806 133.001C356.56 139.617 367.332 140.284 374.866 134.548C381.857 129.231 384.276 119.762 380.932 111.821C380.417 110.594 380.506 109.197 381.174 108.047L382.509 105.758C383.179 104.608 384.351 103.842 385.674 103.685C394.231 102.674 401.276 95.8979 402.455 87.1981C403.634 78.4964 398.645 70.0896 390.666 66.8388Z"
      fill="white" />
    <path fill-rule="evenodd" clip-rule="evenodd"
      d="M364.553 88.2076C363.245 84.9313 361.494 81.8091 359.296 78.9243L358.487 77.8626C357.543 76.6213 355.768 76.3808 354.526 77.3259L352.403 78.9426C351.161 79.8878 350.921 81.6609 351.867 82.9024L352.676 83.9641C357.679 90.535 359.826 98.6592 358.717 106.841C356.451 123.569 341.12 135.379 324.407 133.382C307.447 131.356 295.13 115.455 297.422 98.5373C298.53 90.3553 302.761 83.095 309.334 78.0925L310.396 77.2842C311.638 76.3391 311.878 74.566 310.933 73.3245L309.313 71.2008C308.368 69.9594 306.594 69.719 305.352 70.6641L304.29 71.4724C301.406 73.6688 298.886 76.2124 296.754 79.0228C293.2 75.7872 290.908 71.2737 290.486 66.4008L298.807 67.528C300.353 67.7375 301.777 66.6558 301.987 65.108L302.166 63.7856C302.723 59.6713 306.512 56.7877 310.631 57.3456C314.048 57.8086 316.611 60.5002 317.064 63.7555C317.238 64.9967 318.234 65.9606 319.475 66.1287L322.923 66.5957C324.164 66.7639 325.381 66.0999 325.878 64.9496C327.183 61.9323 330.368 60.0195 333.787 60.4827C337.207 60.9459 339.77 63.6375 340.221 66.8927C340.394 68.1338 341.393 69.098 342.634 69.2661L346.079 69.7328C347.32 69.901 348.539 69.2373 349.037 68.087C350.338 65.0691 353.525 63.1566 356.944 63.6198C361.06 64.1774 363.946 67.9653 363.389 72.0797L363.209 73.402C363 74.9498 364.084 76.3713 365.633 76.5811L373.953 77.7082C372.248 82.293 368.84 86.0344 364.553 88.2076Z"
      fill="white" />
    <path fill-rule="evenodd" clip-rule="evenodd"
      d="M318.914 83.5224C316.594 83.2081 314.458 84.8324 314.143 87.1531C313.829 89.4719 315.457 91.6062 317.777 91.9205C320.097 92.2348 322.233 90.6104 322.547 88.2916C322.862 85.9709 321.234 83.8367 318.914 83.5224Z"
      fill="#19194B" />
    <path fill-rule="evenodd" clip-rule="evenodd"
      d="M331.837 127.513C331.313 131.379 327.752 134.087 323.886 133.563C320.019 133.04 317.307 129.482 317.831 125.615L331.837 127.513Z"
      fill="#19194B" />
    <path fill-rule="evenodd" clip-rule="evenodd"
      d="M364.553 88.2076C363.245 84.9313 361.494 81.8091 359.296 78.9243L358.487 77.8626C357.543 76.6213 355.768 76.3807 354.526 77.3259L352.403 78.9426C351.161 79.8877 350.921 81.6609 351.867 82.9024L352.676 83.9641C357.679 90.535 359.826 98.6591 358.717 106.841C356.451 123.569 341.12 135.379 324.407 133.382C307.447 131.356 295.13 115.455 297.422 98.5373C298.53 90.3553 302.761 83.095 309.334 78.0925L310.396 77.2842C311.638 76.3391 311.878 74.566 310.933 73.3245L309.313 71.2008C308.368 69.9594 306.594 69.719 305.352 70.6641L304.29 71.4724C301.406 73.6688 298.886 76.2124 296.754 79.0227C293.2 75.7872 290.908 71.2736 290.486 66.4008L298.807 67.528C300.353 67.7375 301.777 66.6558 301.987 65.108L302.166 63.7856C302.723 59.6713 306.512 56.7877 310.631 57.3456C314.048 57.8086 316.611 60.5001 317.064 63.7555C317.238 64.9967 318.234 65.9606 319.475 66.1287L322.923 66.5957C324.164 66.7639 325.381 66.0999 325.878 64.9496C327.183 61.9323 330.368 60.0195 333.787 60.4827C337.207 60.9459 339.77 63.6375 340.221 66.8926C340.394 68.1338 341.393 69.0979 342.634 69.2661L346.079 69.7328C347.32 69.901 348.539 69.2372 349.037 68.087C350.338 65.0691 353.525 63.1566 356.944 63.6198C361.06 64.1774 363.946 67.9653 363.389 72.0796L363.209 73.402C363 74.9498 364.084 76.3713 365.633 76.5811L373.953 77.7082C372.248 82.293 368.84 86.0344 364.553 88.2076ZM380.975 70.2628L371.647 68.9991C370.734 62.0929 365.293 56.3541 358.061 55.3744C353.483 54.7542 349.087 56.1634 345.79 58.909C343.344 55.3854 339.483 52.8576 334.904 52.2373C330.326 51.617 325.932 53.0266 322.634 55.7719C320.187 52.2483 316.324 49.7202 311.746 49.0999C304.514 48.1202 297.744 52.2047 295.025 58.6189L285.698 57.3554C284.152 57.1459 282.727 58.2314 282.518 59.7772L282.339 61.0996C281.018 70.8481 285.116 80.3216 292.429 86.2284C290.713 89.9526 289.568 93.9645 289.079 98.1658C286.606 119.377 301.85 138.856 323.043 141.599C344.397 144.358 364.073 129.316 366.967 107.959C367.5 104.023 367.435 100.1 366.811 96.2919C366.811 96.2938 366.812 96.2977 366.814 96.2999C375.428 92.5506 381.897 84.5125 383.217 74.7659L383.396 73.4435C383.606 71.8976 382.522 70.4724 380.975 70.2628Z"
      fill="#19194B" />
  </g>
  <path fill-rule="evenodd" clip-rule="evenodd"
    d="M124.589 49.1019C123.384 48.9387 122.108 49.3171 121.015 50.0308L121.058 49.711C121.124 49.2195 120.78 48.7669 120.288 48.7003L119.843 48.64C119.352 48.5734 118.899 48.918 118.833 49.4095L117.377 60.1572C117.31 60.6489 117.654 61.1013 118.146 61.1679L118.591 61.2282C119.083 61.2948 119.535 60.9504 119.602 60.4587L120.735 52.0939C121.768 51.4007 123.033 51.079 124.115 51.2255C125.754 51.4475 127.061 52.5957 126.767 54.8025L125.885 61.3099C125.819 61.8016 126.163 62.254 126.655 62.3206L127.099 62.3809C127.591 62.4475 128.044 62.1029 128.11 61.611L128.988 55.1154C129.437 51.8014 127.7 49.5234 124.589 49.1019ZM147.763 62.6546C147.816 62.2568 147.601 61.8847 147.256 61.7219C147.475 61.4103 147.48 60.9803 147.236 60.6607C146.993 60.3411 146.577 60.2305 146.218 60.3593C146.153 59.9834 145.852 59.6767 145.454 59.6228C145.056 59.5688 144.684 59.7844 144.521 60.1294C144.209 59.9097 143.779 59.9058 143.459 60.149C143.14 60.3924 143.029 60.808 143.158 61.1667C142.782 61.2319 142.475 61.5332 142.421 61.931C142.367 62.329 142.583 62.7012 142.928 62.8638C142.709 63.1756 142.704 63.6056 142.948 63.9252C143.191 64.2447 143.607 64.3554 143.966 64.2266C144.031 64.6023 144.332 64.909 144.73 64.963C145.128 65.0169 145.5 64.8013 145.663 64.4565C145.975 64.6762 146.405 64.6801 146.725 64.4368C147.044 64.1935 147.155 63.7779 147.026 63.419C147.402 63.354 147.709 63.0525 147.763 62.6546ZM138.394 60.2669C137.115 61.2665 135.758 61.7034 134.303 61.5063C132.91 61.3176 132 60.4134 132.16 59.2256C132.378 57.6178 134.2 57.3765 135.489 57.5511C136.552 57.6951 137.644 57.9006 138.675 58.1947L138.394 60.2669ZM136.48 50.7128C135.057 50.5201 133.711 50.8028 132.538 51.3786C132.078 51.6047 131.904 52.1728 132.153 52.6208L132.334 52.9459C132.563 53.3557 133.067 53.5178 133.494 53.324C134.318 52.9508 135.234 52.7759 136.183 52.9044C138.026 53.1541 139.215 54.208 138.959 56.0965L138.925 56.3481C137.911 56.0079 136.878 55.742 135.818 55.5984C132.859 55.1976 130.452 56.3386 130.104 58.9094C129.795 61.1871 131.372 63.1533 133.916 63.4979C135.402 63.6992 136.808 63.346 138.096 62.4662L138.03 62.9552C137.963 63.4469 138.308 63.8993 138.799 63.9659L139.245 64.0262C139.736 64.0928 140.189 63.7483 140.255 63.2567L141.187 56.3764C141.594 53.3751 139.728 51.1529 136.48 50.7128ZM102.924 56.9532L100.715 56.6539L102.577 42.9133C102.643 42.4216 102.299 41.9692 101.807 41.9026L99.3589 41.5709C98.8672 41.5043 98.4147 41.8488 98.3481 42.3404L98.3029 42.6741C98.2363 43.1657 98.5808 43.6182 99.0726 43.6848L100.185 43.8355L98.4896 56.3524L96.2801 56.053C95.7885 55.9864 95.336 56.3309 95.2694 56.8224L95.2242 57.1562C95.1576 57.6479 95.5021 58.1003 95.9937 58.1669L102.638 59.067C103.13 59.1336 103.582 58.7892 103.649 58.2975L103.694 57.9637C103.761 57.4722 103.416 57.0198 102.924 56.9532ZM113.31 56.8687C112.031 57.8683 110.674 58.3053 109.219 58.1082C107.826 57.9194 106.916 57.0152 107.077 55.8274C107.294 54.2196 109.117 53.9784 110.405 54.153C111.468 54.2969 112.561 54.5025 113.591 54.7966L113.31 56.8687ZM111.396 47.3146C109.973 47.1219 108.627 47.4047 107.454 47.9804C106.994 48.2066 106.82 48.7746 107.069 49.2226L107.25 49.5477C107.479 49.9575 107.983 50.1196 108.411 49.9259C109.235 49.5526 110.151 49.3777 111.099 49.5062C112.942 49.7559 114.131 50.8099 113.875 52.6984L113.841 52.95C112.827 52.6098 111.794 52.3438 110.734 52.2003C107.775 51.7994 105.368 52.9404 105.02 55.5112C104.711 57.789 106.288 59.7552 108.832 60.0997C110.318 60.3011 111.725 59.9479 113.012 59.068L112.946 59.5571C112.88 60.0487 113.224 60.5011 113.716 60.5678L114.161 60.628C114.653 60.6947 115.105 60.3502 115.172 59.8585L116.104 52.9783C116.51 49.9769 114.644 47.7547 111.396 47.3146Z"
    fill="#19194B" />
  <path
    d="M258.999 199.04L259.372 196.292C259.419 196.063 259.417 195.827 259.364 195.599C259.312 195.37 259.211 195.156 259.069 194.969C258.926 194.782 258.745 194.627 258.537 194.514C258.329 194.401 258.099 194.334 257.863 194.316C257.559 194.254 257.245 194.275 256.952 194.374C256.659 194.474 256.4 194.65 256.199 194.883C256.082 194.615 255.894 194.382 255.655 194.21C255.415 194.038 255.134 193.933 254.839 193.906C254.586 193.859 254.325 193.878 254.081 193.961C253.838 194.044 253.621 194.189 253.453 194.38L253.526 193.84L252.561 193.709L251.968 198.088L252.942 198.22L253.268 195.811C253.268 195.658 253.301 195.507 253.367 195.37C253.432 195.232 253.528 195.11 253.646 195.013C253.765 194.915 253.904 194.846 254.054 194.808C254.203 194.77 254.359 194.766 254.511 194.794C255.151 194.881 255.42 195.337 255.32 196.079L254.989 198.516L255.963 198.648L256.292 196.22C256.293 196.068 256.327 195.918 256.393 195.78C256.458 195.643 256.554 195.521 256.672 195.424C256.791 195.327 256.929 195.257 257.079 195.219C257.228 195.181 257.384 195.176 257.535 195.204C258.194 195.293 258.453 195.748 258.353 196.49L258.023 198.927L258.999 199.04ZM274.003 196.614L272.417 196.399L272.597 195.071L271.623 194.939L271.443 196.267L270.562 196.148L270.444 197.018L271.343 197.14L271.07 199.155C270.933 200.172 271.25 200.831 272.391 200.985C272.817 201.044 273.251 200.983 273.642 200.81L273.475 199.957C273.195 200.074 272.89 200.119 272.588 200.088C272.124 200.025 271.987 199.708 272.047 199.269L272.317 197.272L273.894 197.486L274.003 196.614ZM282.246 197.619C282.012 197.58 281.771 197.605 281.55 197.69C281.329 197.775 281.136 197.917 280.99 198.102L281.062 197.57L280.107 197.441L279.514 201.819L280.478 201.95L280.811 199.495C280.909 198.772 281.279 198.411 281.891 198.494C282.098 198.519 282.298 198.585 282.479 198.686L282.9 197.81C282.69 197.702 282.464 197.631 282.23 197.598L282.246 197.619ZM269.744 196.392C269.242 195.997 268.635 195.753 267.998 195.689C266.875 195.537 266.07 195.969 265.953 196.839C265.856 197.553 266.334 198.066 267.308 198.338L267.763 198.465C268.282 198.61 268.514 198.781 268.48 199.028C268.434 199.367 268.056 199.512 267.397 199.422C266.865 199.366 266.368 199.134 265.984 198.765L265.42 199.444C265.93 199.907 266.576 200.198 267.263 200.272C268.543 200.445 269.366 199.95 269.479 199.117C269.592 198.283 269.054 197.865 268.107 197.597L267.652 197.47C267.242 197.359 266.92 197.231 266.959 196.938C266.999 196.645 267.344 196.468 267.873 196.539C268.361 196.611 268.822 196.805 269.213 197.103L269.744 196.392ZM295.645 199.434C295.411 199.395 295.171 199.42 294.95 199.505C294.729 199.59 294.535 199.732 294.39 199.917L294.462 199.386L293.506 199.256L292.913 203.635L293.878 203.765L294.21 201.311C294.308 200.587 294.678 200.227 295.291 200.31C295.497 200.335 295.697 200.4 295.879 200.501L296.3 199.625C296.09 199.518 295.863 199.446 295.629 199.413L295.645 199.434ZM282.905 200.04C282.852 200.346 282.864 200.66 282.941 200.962C283.017 201.264 283.157 201.546 283.35 201.792C283.544 202.038 283.787 202.241 284.064 202.389C284.341 202.537 284.647 202.626 284.96 202.651C285.535 202.758 286.13 202.649 286.626 202.345L286.267 201.512C285.899 201.718 285.474 201.801 285.054 201.749C284.701 201.672 284.39 201.467 284.183 201.175C283.975 200.882 283.887 200.524 283.935 200.17C283.983 199.817 284.163 199.495 284.441 199.268C284.719 199.041 285.073 198.926 285.434 198.946C285.852 199.008 286.24 199.201 286.54 199.497L287.108 198.791C286.71 198.365 286.166 198.102 285.583 198.052C285.274 197.993 284.956 197.997 284.65 198.066C284.343 198.135 284.055 198.266 283.803 198.452C283.551 198.637 283.341 198.872 283.187 199.143C283.033 199.413 282.938 199.713 282.907 200.022L282.905 200.04ZM291.94 201.264L292.235 199.084L291.271 198.953L291.199 199.485C291.063 199.254 290.874 199.059 290.647 198.915C290.42 198.77 290.162 198.681 289.894 198.655C289.279 198.572 288.657 198.733 288.163 199.104C287.67 199.474 287.347 200.023 287.265 200.631C287.183 201.238 287.348 201.854 287.725 202.342C288.101 202.83 288.659 203.152 289.274 203.235C289.539 203.281 289.812 203.264 290.069 203.185C290.326 203.106 290.56 202.968 290.752 202.782L290.68 203.314L291.645 203.444L291.94 201.264ZM288.35 200.778C288.4 200.522 288.525 200.287 288.71 200.101C288.894 199.915 289.129 199.787 289.387 199.731C289.644 199.676 289.913 199.697 290.159 199.79C290.406 199.884 290.619 200.047 290.774 200.258C290.928 200.47 291.017 200.722 291.029 200.982C291.04 201.242 290.975 201.5 290.84 201.724C290.705 201.947 290.507 202.127 290.27 202.24C290.033 202.353 289.767 202.396 289.505 202.362C289.321 202.339 289.144 202.279 288.984 202.186C288.825 202.092 288.686 201.967 288.578 201.818C288.469 201.669 288.393 201.5 288.354 201.321C288.315 201.142 288.313 200.957 288.35 200.778ZM277.019 196.911C276.403 196.836 275.782 197.006 275.294 197.383C274.807 197.761 274.491 198.314 274.418 198.923C274.344 199.532 274.518 200.145 274.902 200.628C275.285 201.111 275.847 201.425 276.463 201.5C277.126 201.624 277.811 201.5 278.385 201.154L278.017 200.385C277.611 200.626 277.136 200.726 276.665 200.669C276.343 200.653 276.039 200.513 275.818 200.279C275.598 200.045 275.478 199.736 275.484 199.417L278.777 199.863C278.793 199.744 278.809 199.625 278.827 199.497C279.013 198.123 278.274 197.09 277.031 196.922L277.019 196.911ZM276.903 197.763C277.048 197.779 277.188 197.824 277.316 197.894C277.443 197.964 277.556 198.058 277.647 198.17C277.737 198.283 277.805 198.413 277.845 198.551C277.886 198.689 277.898 198.834 277.882 198.977L275.563 198.663C275.619 198.371 275.789 198.113 276.037 197.945C276.284 197.776 276.588 197.71 276.885 197.76L276.903 197.763ZM300.876 202.484L301.411 198.536L300.484 198.41L300.173 200.7C300.038 200.47 299.849 200.275 299.622 200.13C299.395 199.986 299.137 199.897 298.869 199.871C298.254 199.787 297.631 199.949 297.138 200.319C296.645 200.69 296.322 201.239 296.24 201.847C296.157 202.454 296.323 203.07 296.699 203.558C297.076 204.046 297.633 204.368 298.248 204.451C298.514 204.497 298.786 204.48 299.043 204.401C299.3 204.322 299.535 204.184 299.727 203.998L299.655 204.529L300.582 204.655L300.876 202.484ZM302.275 204.255C302.336 204.262 302.394 204.281 302.447 204.311C302.498 204.339 302.542 204.377 302.579 204.422C302.614 204.467 302.641 204.518 302.658 204.572C302.674 204.629 302.678 204.688 302.67 204.747C302.662 204.805 302.642 204.861 302.612 204.911C302.581 204.959 302.542 205.002 302.496 205.036C302.449 205.069 302.396 205.093 302.339 205.108C302.281 205.124 302.219 205.129 302.158 205.12C302.07 205.108 301.988 205.071 301.92 205.014C301.853 204.957 301.803 204.882 301.777 204.798C301.761 204.742 301.757 204.682 301.765 204.624C301.772 204.566 301.792 204.51 301.823 204.459C301.853 204.411 301.893 204.369 301.939 204.335C301.986 204.302 302.039 204.277 302.095 204.263C302.159 204.247 302.225 204.245 302.289 204.257L302.275 204.255ZM302.171 205.029C302.217 205.035 302.264 205.032 302.309 205.02C302.351 205.007 302.391 204.987 302.425 204.961C302.492 204.906 302.535 204.829 302.547 204.744C302.558 204.659 302.537 204.573 302.488 204.503C302.461 204.468 302.428 204.438 302.391 204.415C302.351 204.391 302.306 204.375 302.26 204.369C302.214 204.363 302.167 204.366 302.122 204.379C302.078 204.39 302.037 204.41 302.001 204.437C301.934 204.491 301.891 204.569 301.879 204.654C301.868 204.738 301.889 204.824 301.938 204.895C301.966 204.93 302.001 204.961 302.04 204.983C302.084 205.009 302.133 205.026 302.185 205.031L302.171 205.029ZM302.272 204.488C302.316 204.491 302.357 204.51 302.388 204.541C302.401 204.554 302.41 204.57 302.415 204.588C302.42 204.606 302.42 204.624 302.417 204.642C302.415 204.658 302.411 204.673 302.403 204.686C302.396 204.699 302.385 204.711 302.373 204.72C302.343 204.741 302.307 204.751 302.27 204.748L302.384 204.918L302.277 204.903L302.173 204.735L302.131 204.73L302.11 204.881L302.022 204.869L302.077 204.466L302.272 204.488ZM302.16 204.552L302.145 204.662L302.247 204.675C302.264 204.683 302.284 204.686 302.303 204.683C302.307 204.677 302.309 204.67 302.31 204.663C302.311 204.656 302.31 204.649 302.308 204.642C302.312 204.636 302.315 204.629 302.316 204.622C302.317 204.615 302.316 204.607 302.314 204.6C302.296 204.593 302.277 204.59 302.258 204.593L302.16 204.552ZM297.31 202.001C297.36 201.745 297.485 201.51 297.669 201.324C297.853 201.138 298.089 201.01 298.346 200.954C298.604 200.899 298.872 200.92 299.119 201.013C299.365 201.107 299.579 201.27 299.733 201.481C299.888 201.693 299.977 201.945 299.988 202.205C300 202.465 299.934 202.723 299.8 202.947C299.665 203.17 299.467 203.35 299.229 203.463C298.992 203.577 298.727 203.619 298.465 203.585C298.281 203.562 298.104 203.502 297.944 203.409C297.784 203.315 297.646 203.19 297.537 203.041C297.429 202.893 297.353 202.723 297.314 202.544C297.274 202.365 297.273 202.18 297.31 202.001ZM264.736 197.588L265.033 195.399L264.068 195.268L263.996 195.799C263.861 195.569 263.672 195.374 263.445 195.229C263.218 195.085 262.96 194.996 262.692 194.97C262.077 194.886 261.454 195.048 260.961 195.418C260.468 195.789 260.145 196.338 260.062 196.946C259.98 197.553 260.145 198.169 260.522 198.657C260.899 199.145 261.456 199.466 262.071 199.55C262.337 199.596 262.609 199.579 262.866 199.5C263.123 199.421 263.357 199.283 263.549 199.097L263.477 199.628L264.442 199.759L264.736 197.588ZM261.146 197.102C261.197 196.846 261.322 196.611 261.506 196.425C261.69 196.239 261.925 196.11 262.183 196.055C262.441 196 262.709 196.021 262.956 196.114C263.202 196.208 263.416 196.371 263.57 196.582C263.725 196.794 263.813 197.046 263.825 197.306C263.837 197.566 263.771 197.824 263.636 198.048C263.501 198.271 263.303 198.451 263.066 198.564C262.829 198.677 262.563 198.72 262.302 198.686C262.117 198.664 261.938 198.605 261.777 198.512C261.617 198.419 261.477 198.294 261.368 198.145C261.258 197.996 261.181 197.826 261.141 197.646C261.102 197.466 261.1 197.281 261.137 197.101L261.146 197.102Z"
    fill="#231F20" />
  <path d="M288.602 164.614L273.992 162.635L270.479 188.562L285.089 190.542L288.602 164.614Z" fill="#FF5F00" />
  <path
    d="M273.162 175.728C273.498 173.23 274.405 170.843 275.814 168.746C277.223 166.649 279.098 164.898 281.296 163.626C279.092 161.381 276.295 159.791 273.225 159.039C270.154 158.287 266.935 158.403 263.934 159.374C260.933 160.344 258.272 162.13 256.254 164.527C254.237 166.924 252.945 169.836 252.526 172.93C252.107 176.024 252.577 179.174 253.884 182.022C255.191 184.87 257.281 187.299 259.916 189.033C262.55 190.767 265.623 191.735 268.783 191.827C271.942 191.919 275.062 191.131 277.784 189.554C276.004 187.743 274.663 185.557 273.862 183.162C273.062 180.766 272.822 178.224 273.162 175.728Z"
    fill="#EB001B" />
  <path
    d="M306.557 180.25C306.138 183.344 304.845 186.256 302.828 188.653C300.81 191.051 298.149 192.836 295.147 193.807C292.146 194.777 288.926 194.892 285.856 194.14C282.785 193.388 279.988 191.797 277.784 189.552C279.981 188.278 281.855 186.527 283.264 184.431C284.674 182.335 285.582 179.949 285.92 177.452C286.258 174.955 286.018 172.413 285.217 170.018C284.416 167.622 283.076 165.436 281.297 163.624C284.019 162.046 287.138 161.257 290.298 161.349C293.458 161.44 296.531 162.408 299.166 164.142C301.801 165.876 303.892 168.305 305.199 171.153C306.506 174.001 306.977 177.152 306.558 180.246L306.557 180.25Z"
    fill="#F79E1B" />
  <path
    d="M303.578 190.248L303.65 189.717L303.868 189.746L303.883 189.636L303.331 189.561L303.316 189.671L303.552 189.703L303.48 190.235L303.578 190.248ZM304.649 190.393L304.736 189.752L304.569 189.729L304.312 190.161L304.18 189.676L304.031 189.656L303.944 190.298L304.065 190.314L304.13 189.833L304.254 190.274L304.38 190.291L304.617 189.899L304.551 190.385L304.649 190.393Z"
    fill="#F79E1B" />
  <g filter="url(#filter1_d)">
    <mask id="path-18-outside-1" maskUnits="userSpaceOnUse" x="18.4774" y="96.9684" width="128.646" height="152.199"
      fill="black">
      <rect fill="white" x="18.4774" y="96.9684" width="128.646" height="152.199" />
      <path fill-rule="evenodd" clip-rule="evenodd"
        d="M35.758 126.005C30.3688 127.698 27.3727 133.44 29.066 138.829L43.6296 185.18L62.5627 231.086C64.5856 235.991 70.0229 238.535 75.0845 236.944L117.773 223.531C122.067 222.182 124.881 218.238 124.936 213.91L132.336 211.584C135.031 210.738 136.529 207.867 135.682 205.172L108.663 119.18C107.817 116.485 104.946 114.987 102.251 115.834L99.405 116.728C97.7116 111.339 91.9702 108.343 86.5811 110.036L35.758 126.005Z" />
    </mask>
    <path
      d="M29.066 138.829L23.3419 140.628L29.066 138.829ZM43.6296 185.18L37.9055 186.978L37.9835 187.227L38.0828 187.467L43.6296 185.18ZM62.5627 231.086L57.0159 233.374L57.0159 233.374L62.5627 231.086ZM124.936 213.91L123.138 208.185L118.992 209.488L118.937 213.833L124.936 213.91ZM99.405 116.728L93.681 118.527L95.4796 124.251L101.204 122.452L99.405 116.728ZM34.7901 137.031C34.0901 134.803 35.3287 132.429 37.5566 131.729L33.9595 120.281C25.409 122.968 20.6553 132.077 23.3419 140.628L34.7901 137.031ZM49.3537 183.381L34.7901 137.031L23.3419 140.628L37.9055 186.978L49.3537 183.381ZM68.1095 228.798L49.1763 182.892L38.0828 187.467L57.0159 233.374L68.1095 228.798ZM73.2859 231.22C71.1935 231.878 68.9457 230.826 68.1095 228.798L57.0159 233.374C60.2254 241.156 68.8523 245.192 76.883 242.668L73.2859 231.22ZM115.974 217.807L73.2859 231.22L76.883 242.668L119.571 229.256L115.974 217.807ZM118.937 213.833C118.914 215.623 117.744 217.251 115.974 217.807L119.571 229.256C126.39 227.113 130.848 220.853 130.936 213.986L118.937 213.833ZM130.538 205.86L123.138 208.185L126.735 219.634L134.135 217.308L130.538 205.86ZM129.958 206.971C129.812 206.504 130.071 206.007 130.538 205.86L134.135 217.308C139.991 215.468 143.246 209.23 141.406 203.374L129.958 206.971ZM102.939 120.978L129.958 206.971L141.406 203.374L114.387 117.381L102.939 120.978ZM104.05 121.558C103.583 121.704 103.086 121.445 102.939 120.978L114.387 117.381C112.547 111.525 106.309 108.27 100.453 110.11L104.05 121.558ZM101.204 122.452L104.05 121.558L100.453 110.11L97.6065 111.004L101.204 122.452ZM88.3796 115.76C90.6074 115.06 92.9809 116.299 93.681 118.527L105.129 114.929C102.442 106.379 93.3329 101.626 84.7825 104.312L88.3796 115.76ZM37.5566 131.729L88.3796 115.76L84.7825 104.312L33.9595 120.281L37.5566 131.729Z"
      fill="white" mask="url(#path-18-outside-1)" />
    <path
      d="M91.939 118.984L102.292 115.731C104.987 114.884 107.857 116.382 108.704 119.077L135.75 205.154C136.596 207.848 135.098 210.719 132.404 211.566L122.051 214.819L91.939 118.984Z"
      fill="#007CBF" />
    <rect x="93.6315" y="118.452" width="9.09188" height="100.454" transform="rotate(-17.4429 93.6315 118.452)"
      fill="#005DA0" />
    <path
      d="M30.2858 138.446C28.8041 133.73 31.4257 128.706 36.1413 127.225L86.9643 111.256C91.6799 109.774 96.7037 112.396 98.1853 117.111L112.732 163.409L123.445 211.84C124.448 216.373 121.818 220.92 117.39 222.312L74.7012 235.725C70.2723 237.116 65.5147 234.89 63.7447 230.599L44.8327 184.743L30.2858 138.446Z"
      fill="#00A0DF" stroke="#19194B" stroke-width="2.55709" />
    <path
      d="M30.4154 138.405C28.9563 133.761 31.5381 128.814 36.182 127.354L87.0051 111.386C91.649 109.927 96.5965 112.508 98.0556 117.152L112.601 163.444L123.313 211.87C124.3 216.334 121.71 220.812 117.349 222.182L74.6605 235.595C70.2989 236.965 65.6135 234.773 63.8704 230.547L44.9606 184.697L30.4154 138.405Z"
      fill="#007CBF" stroke="#19194B" stroke-width="2.82897" />
    <rect x="38.824" y="135.763" width="53.2727" height="42.6182" rx="5.11418"
      transform="rotate(-17.4429 38.824 135.763)" fill="#66DE7D" />
    <path fill-rule="evenodd" clip-rule="evenodd"
      d="M73.178 156.239C77.6692 154.828 80.1659 150.044 78.7548 145.553C77.3437 141.062 72.5592 138.565 68.0679 139.976C63.5773 141.387 61.0803 146.172 62.4914 150.663C63.9025 155.154 68.6873 157.65 73.178 156.239Z"
      fill="white" />
    <path fill-rule="evenodd" clip-rule="evenodd"
      d="M70.4226 152.73C70.1441 152.818 69.8421 152.789 69.585 152.65L65.7691 150.594C65.243 150.31 65.0465 149.654 65.3297 149.128C65.6133 148.602 66.2697 148.404 66.7956 148.688L69.6333 150.218L73.0403 143.47C73.3097 142.937 73.9606 142.723 74.4937 142.992C75.0271 143.262 75.2414 143.913 74.9717 144.446L71.0641 152.185C70.9326 152.446 70.7012 152.643 70.4226 152.73Z"
      fill="#66DE7D" />
    <rect x="55.2172" y="181.538" width="13.6378" height="13.6378" rx="3.40945"
      transform="rotate(-17.4429 55.2172 181.538)" fill="white" />
    <rect x="72.2938" y="176.173" width="13.6378" height="13.6378" rx="3.40945"
      transform="rotate(-17.4429 72.2938 176.173)" fill="white" />
    <rect x="89.3703" y="170.808" width="13.6378" height="13.6378" rx="3.40945"
      transform="rotate(-17.4429 89.3703 170.808)" fill="white" />
    <rect x="60.5827" y="198.615" width="13.6378" height="13.6378" rx="3.40945"
      transform="rotate(-17.4429 60.5827 198.615)" fill="white" />
    <rect x="77.6592" y="193.25" width="13.6378" height="13.6378" rx="3.40945"
      transform="rotate(-17.4429 77.6592 193.25)" fill="white" />
    <rect x="94.7359" y="187.884" width="13.6378" height="13.6378" rx="3.40945"
      transform="rotate(-17.4429 94.7359 187.884)" fill="white" />
    <rect x="65.9484" y="215.692" width="13.6378" height="13.6378" rx="3.40945"
      transform="rotate(-17.4429 65.9484 215.692)" fill="#EB4B68" />
    <rect x="83.0249" y="210.326" width="13.6378" height="13.6378" rx="3.40945"
      transform="rotate(-17.4429 83.0249 210.326)" fill="#FAC34B" />
    <rect x="100.101" y="204.961" width="13.6378" height="13.6378" rx="3.40945"
      transform="rotate(-17.4429 100.101 204.961)" fill="#66DE7D" />
  </g>
  <defs>
    <filter id="filter0_d" x="46.7566" y="12.6932" width="301.343" height="220.376" filterUnits="userSpaceOnUse"
      color-interpolation-filters="sRGB">
      <feFlood flood-opacity="0" result="BackgroundImageFix" />
      <feColorMatrix in="SourceAlpha" type="matrix" values="0 0 0 0 0 0 0 0 0 0 0 0 0 0 0 0 0 0 127 0" />
      <feOffset dy="3.55562" />
      <feGaussianBlur stdDeviation="3.55562" />
      <feColorMatrix type="matrix" values="0 0 0 0 0 0 0 0 0 0 0 0 0 0 0 0 0 0 0.24 0" />
      <feBlend mode="normal" in2="BackgroundImageFix" result="effect1_dropShadow" />
      <feBlend mode="normal" in="SourceGraphic" in2="effect1_dropShadow" result="shape" />
    </filter>
    <filter id="filter1_d" x="13.1553" y="93.4722" width="139.013" height="162.435" filterUnits="userSpaceOnUse"
      color-interpolation-filters="sRGB">
      <feFlood flood-opacity="0" result="BackgroundImageFix" />
      <feColorMatrix in="SourceAlpha" type="matrix" values="0 0 0 0 0 0 0 0 0 0 0 0 0 0 0 0 0 0 127 0" />
      <feOffset dy="1.77403" />
      <feGaussianBlur stdDeviation="2.66104" />
      <feColorMatrix type="matrix" values="0 0 0 0 0 0 0 0 0 0 0 0 0 0 0 0 0 0 0.32 0" />
      <feBlend mode="normal" in2="BackgroundImageFix" result="effect1_dropShadow" />
      <feBlend mode="normal" in="SourceGraphic" in2="effect1_dropShadow" result="shape" />
    </filter>
    <linearGradient id="paint0_linear" x1="208.164" y1="40.0795" x2="156.019" y2="424.989"
      gradientUnits="userSpaceOnUse">
      <stop stop-color="#00A0DF" />
      <stop offset="1" stop-color="#007CBF" />
    </linearGradient>
  </defs>
</svg>