<svg class="icon" viewBox="0 0 214 143" fill="none" xmlns="http://www.w3.org/2000/svg">
  <g filter="url(#lana-card-empty-filter0_d)">
    <rect x="11.5455"
          y="9"
          width="190.909"
          height="120"
          rx="10.9091"
          fill="#00A0DF"
    />
  </g>
  <mask id="lana-card-empty-mask0"
        mask-type="alpha"
        maskUnits="userSpaceOnUse"
        x="11"
        y="9"
        width="192"
        height="120"
  >
    <path
            d="M11.5455 19.9091C11.5455 13.8842 16.4296 9 22.4546 9H191.545C197.57 9 202.455 13.8842 202.455 19.9091V118.091C202.455 124.116 197.57 129 191.545 129H22.4545C16.4296 129 11.5455 124.116 11.5455 118.091V19.9091Z"
            fill="url(#lana-card-empty-paint0_linear)"
    />
  </mask>
  <g mask="url(#lana-card-empty-mask0)">
    <path fill-rule="evenodd"
          clip-rule="evenodd"
          d="M182.015 82.3016C182.015 83.472 182.966 84.4225 184.137 84.4225H186.139C187.31 84.4225 188.259 83.472 188.259 82.3016V63.2021H182.015V82.3016Z"
          fill="#19194B"
    />
    <path fill-rule="evenodd"
          clip-rule="evenodd"
          d="M245.384 38.411C244.416 38.6606 243.621 39.3488 243.239 40.2711L242.477 42.1071C242.096 43.0294 242.171 44.0771 242.678 44.9373C245.963 50.5047 245.118 57.7883 240.457 62.4461C235.433 67.4678 227.357 68.0572 221.668 63.8196L219.802 63.2006H185.106L183.239 63.8196C177.555 68.0586 169.476 67.4678 164.454 62.4461C159.791 57.7869 158.946 50.5047 162.232 44.9373C162.741 44.0785 162.816 43.0294 162.432 42.1071L161.671 40.2711C161.29 39.3488 160.495 38.6606 159.527 38.411C153.265 36.7978 148.71 31.0499 148.71 24.4615C148.71 17.8746 153.265 12.1267 159.527 10.5135C160.495 10.2639 161.29 9.5757 161.671 8.65344L162.432 6.81739C162.816 5.89372 162.741 4.84595 162.232 3.98574C158.946 -1.57882 159.792 -8.86239 164.454 -13.5216C167.23 -16.2983 170.941 -17.7211 174.667 -17.7211C177.178 -17.7211 179.695 -17.0739 181.937 -15.7596C182.809 -15.2477 183.866 -15.1546 184.801 -15.5424L186.637 -16.3025C187.561 -16.6832 188.249 -17.4772 188.499 -18.4446C190.113 -24.7029 195.864 -29.255 202.454 -29.255C209.045 -29.255 214.796 -24.7029 216.412 -18.4446C216.661 -17.4772 217.35 -16.6847 218.272 -16.3025L220.108 -15.5424C221.031 -15.1603 222.079 -15.235 222.941 -15.7412C228.508 -19.0256 235.795 -18.1809 240.457 -13.5216C245.118 -8.86381 245.963 -1.58023 242.678 3.98716C242.171 4.84737 242.096 5.89513 242.477 6.81739L243.239 8.65344C243.621 9.5757 244.416 10.2639 245.384 10.5135C251.644 12.1267 256.199 17.8746 256.199 24.4615C256.199 31.0499 251.644 36.7978 245.384 38.411ZM249.094 5.15337C252.528 -2.50672 251.004 -11.8068 244.874 -17.9369C238.741 -24.0655 229.437 -25.5885 221.773 -22.1533C218.783 -29.9982 211.126 -35.4993 202.454 -35.4993C193.784 -35.4993 186.126 -29.9982 183.136 -22.1533C175.472 -25.5885 166.169 -24.0655 160.036 -17.9369C153.905 -11.8068 152.382 -2.50531 155.816 5.15337C147.968 8.14154 142.465 15.7946 142.465 24.4615C142.465 33.1299 147.968 40.783 155.816 43.7711C152.379 51.4298 153.903 60.7313 160.036 66.86C164.018 70.8395 169.337 72.8774 174.675 72.8774C178.651 72.8758 182.642 71.7448 186.096 69.4434H218.813C226.904 74.836 237.924 73.8051 244.874 66.86C251.004 60.7328 252.528 51.4312 249.094 43.7711C256.941 40.783 262.444 33.1299 262.444 24.4615C262.444 15.7946 256.941 8.14154 249.094 5.15337Z"
          fill="#19194B"
    />
    <path fill-rule="evenodd"
          clip-rule="evenodd"
          d="M245.384 10.5131C244.416 10.2635 243.621 9.57531 243.239 8.65306L242.477 6.81701C242.096 5.89475 242.171 4.84698 242.678 3.98677C245.963 -1.58061 245.118 -8.86419 240.457 -13.522C235.795 -18.1812 228.508 -19.0259 222.941 -15.7416C222.079 -15.234 221.031 -15.1606 220.108 -15.5428L218.271 -16.3029C217.35 -16.685 216.661 -17.4776 216.412 -18.4449C214.796 -24.7033 209.045 -29.2554 202.454 -29.2554C195.864 -29.2554 190.113 -24.7033 188.499 -18.4449C188.249 -17.4776 187.561 -16.6836 186.637 -16.3029L184.801 -15.5428C183.866 -15.155 182.809 -15.2481 181.937 -15.7585C179.695 -17.0742 177.178 -17.7201 174.667 -17.7201C170.941 -17.7201 167.23 -16.2986 164.454 -13.522C159.792 -8.86277 158.946 -1.5792 162.232 3.98677C162.741 4.84557 162.816 5.89475 162.432 6.81701L161.671 8.65306C161.291 9.57531 160.495 10.2635 159.527 10.5131C153.266 12.1263 148.71 17.8742 148.71 24.4626C148.71 31.0495 153.266 36.7974 159.527 38.4107C160.495 38.6603 161.289 39.3484 161.671 40.2707L162.432 42.1067C162.816 43.0304 162.741 44.0782 162.232 44.9384C158.946 50.5043 159.791 57.7865 164.454 62.4457C169.476 67.4688 177.555 68.0597 183.239 63.8193L185.106 63.2002H219.802L221.668 63.8193C227.357 68.0583 235.433 67.4688 240.457 62.4457C245.118 57.7879 245.963 50.5043 242.678 44.937C242.171 44.0768 242.096 43.029 242.477 42.1067L243.239 40.2707C243.621 39.3484 244.416 38.6603 245.384 38.4107C251.644 36.7974 256.199 31.0495 256.199 24.4626C256.199 17.8742 251.644 12.1263 245.384 10.5131Z"
          fill="white"
    />
    <path fill-rule="evenodd"
          clip-rule="evenodd"
          d="M228.121 29.0309C226.819 26.7267 225.202 24.5818 223.278 22.6583L222.57 21.9504C221.743 21.1226 220.398 21.1226 219.57 21.9504L218.155 23.3662C217.327 24.194 217.327 25.5365 218.155 26.3643L218.863 27.0722C223.245 31.4536 225.659 37.2776 225.659 43.4725C225.659 56.1374 215.45 66.4627 202.823 66.6615C190.01 66.8632 179.25 56.2812 179.25 43.4725C179.25 37.2776 181.664 31.4536 186.048 27.0722L186.756 26.3643C187.584 25.5365 187.584 24.194 186.756 23.3662L185.338 21.9504C184.51 21.1226 183.167 21.1226 182.339 21.9504L181.631 22.6583C179.708 24.5818 178.091 26.7267 176.788 29.0309C173.82 26.9833 171.661 23.8584 170.857 20.2779H177.157C178.328 20.2779 179.277 19.3303 179.277 18.1584V17.1572C179.277 14.0421 181.804 11.5165 184.922 11.5165C187.51 11.5165 189.687 13.2595 190.351 15.6342C190.605 16.5395 191.443 17.1558 192.383 17.1558H194.993C195.932 17.1558 196.771 16.5395 197.024 15.6342C197.69 13.2595 199.866 11.5165 202.455 11.5165C205.044 11.5165 207.221 13.2595 207.884 15.6342C208.138 16.5395 208.977 17.1558 209.917 17.1558H212.526C213.465 17.1558 214.305 16.5395 214.559 15.6342C215.222 13.2595 217.399 11.5165 219.988 11.5165C223.104 11.5165 225.631 14.0421 225.631 17.1572V18.1584C225.631 19.3303 226.581 20.2779 227.753 20.2779H234.053C233.247 23.8584 231.09 26.9833 228.121 29.0309Z"
          fill="white"
    />
    <path fill-rule="evenodd"
          clip-rule="evenodd"
          d="M193.718 30.144C191.961 30.144 190.536 31.5669 190.536 33.324C190.536 35.0797 191.961 36.5025 193.718 36.5025C195.474 36.5025 196.899 35.0797 196.899 33.324C196.899 31.5669 195.474 30.144 193.718 30.144Z"
          fill="#19194B"
    />
    <path fill-rule="evenodd"
          clip-rule="evenodd"
          d="M207.756 61.549C207.756 64.4765 205.382 66.8484 202.454 66.8484C199.527 66.8484 197.152 64.4765 197.152 61.549H207.756Z"
          fill="#19194B"
    />
    <path fill-rule="evenodd"
          clip-rule="evenodd"
          d="M228.121 29.0308C226.819 26.7266 225.202 24.5817 223.278 22.6582L222.569 21.9503C221.743 21.1226 220.398 21.1226 219.57 21.9503L218.155 23.3662C217.327 24.1939 217.327 25.5364 218.155 26.3642L218.863 27.0721C223.245 31.4535 225.659 37.2776 225.659 43.4725C225.659 56.1373 215.45 66.4626 202.823 66.6615C190.01 66.8631 179.25 56.2811 179.25 43.4725C179.25 37.2776 181.664 31.4535 186.048 27.0721L186.756 26.3642C187.584 25.5364 187.584 24.1939 186.756 23.3662L185.338 21.9503C184.51 21.1226 183.167 21.1226 182.339 21.9503L181.63 22.6582C179.707 24.5817 178.091 26.7266 176.788 29.0308C173.82 26.9833 171.661 23.8583 170.857 20.2779H177.157C178.328 20.2779 179.277 19.3302 179.277 18.1584V17.1571C179.277 14.0421 181.804 11.5164 184.922 11.5164C187.51 11.5164 189.687 13.2594 190.351 15.6341C190.605 16.5395 191.443 17.1557 192.383 17.1557H194.993C195.932 17.1557 196.77 16.5395 197.024 15.6341C197.69 13.2594 199.866 11.5164 202.455 11.5164C205.044 11.5164 207.221 13.2594 207.884 15.6341C208.138 16.5395 208.977 17.1557 209.917 17.1557H212.526C213.465 17.1557 214.305 16.5395 214.559 15.6341C215.222 13.2594 217.399 11.5164 219.988 11.5164C223.104 11.5164 225.631 14.0421 225.631 17.1571V18.1584C225.631 19.3302 226.581 20.2779 227.753 20.2779H234.053C233.247 23.8583 231.09 26.9833 228.121 29.0308ZM238.524 14.035H231.461C230.087 8.9922 225.463 5.27356 219.988 5.27356C216.521 5.27356 213.395 6.76412 211.221 9.13745C209.046 6.76412 205.921 5.27356 202.455 5.27356C198.988 5.27356 195.863 6.76412 193.688 9.13745C191.514 6.76412 188.387 5.27356 184.921 5.27356C179.445 5.27356 174.823 8.9922 173.447 14.035H166.386C165.215 14.035 164.266 14.9855 164.266 16.1559V17.1571C164.266 24.538 168.267 31.1687 174.298 34.8239C173.398 37.7655 172.951 40.8637 173.01 44.0366C173.308 60.0562 186.604 73.003 202.637 72.9077C218.791 72.8084 231.905 59.643 231.905 43.4725C231.905 40.4928 231.462 37.5822 230.614 34.814C230.614 34.8154 230.616 34.8182 230.617 34.8196C236.644 31.1644 240.644 24.5366 240.644 17.1571V16.1559C240.644 14.9855 239.695 14.035 238.524 14.035Z"
          fill="#19194B"
    />
  </g>
  <path fill-rule="evenodd"
        clip-rule="evenodd"
        d="M45.7715 24.1256C44.8595 24.1256 43.9492 24.5355 43.2078 25.1762V24.9341C43.2078 24.562 42.9061 24.2602 42.5339 24.2602H42.1968C41.8246 24.2602 41.5229 24.562 41.5229 24.9341V33.0716C41.5229 33.4438 41.8246 33.7455 42.1968 33.7455H42.5339C42.9061 33.7455 43.2078 33.4438 43.2078 33.0716V26.7383C43.9058 26.1189 44.8142 25.7522 45.6332 25.7522C46.8741 25.7522 47.9618 26.4742 47.9651 28.1446V33.0716C47.9651 33.4438 48.2669 33.7455 48.639 33.7455H48.9758C49.3481 33.7455 49.65 33.4437 49.6499 33.0713L49.6482 28.1535C49.6482 25.6444 48.1273 24.1256 45.7715 24.1256ZM64.3662 31.8678C64.3662 31.5666 64.1686 31.3117 63.8957 31.2253C64.0273 30.9716 63.9872 30.6515 63.774 30.4384C63.5608 30.2253 63.2406 30.1849 62.9867 30.3168C62.9005 30.0439 62.6456 29.8462 62.3443 29.8462C62.0428 29.8462 61.7879 30.0439 61.7017 30.3168C61.4478 30.1849 61.1276 30.2253 60.9144 30.4384C60.7012 30.6515 60.6611 30.9716 60.7927 31.2253C60.5201 31.3117 60.3222 31.5666 60.3222 31.8678C60.3222 32.1691 60.5201 32.4241 60.7927 32.5103C60.6611 32.7642 60.7012 33.0843 60.9144 33.2974C61.1276 33.5105 61.4478 33.5509 61.7017 33.419C61.7879 33.6917 62.0428 33.8895 62.3443 33.8895C62.6456 33.8895 62.9005 33.6917 62.9867 33.419C63.2406 33.5509 63.5608 33.5105 63.774 33.2974C63.9872 33.0843 64.0273 32.7642 63.8957 32.5103C64.1686 32.4241 64.3662 32.1691 64.3662 31.8678ZM57.1604 31.0361C56.3102 31.9082 55.3449 32.3697 54.2434 32.3697C53.1885 32.3697 52.4208 31.7892 52.4208 30.8898C52.4208 29.6725 53.7512 29.3096 54.7269 29.3096C55.5314 29.3096 56.3647 29.3524 57.1604 29.4673V31.0361ZM54.7746 24.1256C53.6975 24.1256 52.7251 24.4715 51.9111 25.0177C51.5917 25.2322 51.5194 25.672 51.75 25.98L51.9176 26.2034C52.1286 26.4851 52.5198 26.5549 52.818 26.3677C53.3933 26.0072 54.0567 25.7849 54.7746 25.7849C56.1705 25.7849 57.1604 26.4488 57.1604 27.8786V28.0691C56.3721 27.9183 55.5771 27.8247 54.7746 27.8247C52.5343 27.8247 50.8598 28.9155 50.8598 30.8619C50.8598 32.5865 52.2305 33.8895 54.1562 33.8895C55.2815 33.8895 56.2915 33.4852 57.1604 32.7013V33.0716C57.1604 33.4438 57.462 33.7455 57.8341 33.7455H58.1715C58.5437 33.7455 58.8452 33.4438 58.8452 33.0716V27.8623C58.8452 25.5899 57.2342 24.1256 54.7746 24.1256ZM30.4552 32.145H28.7825V21.7415C28.7825 21.3693 28.4808 21.0676 28.1084 21.0676H26.255C25.8827 21.0676 25.581 21.3693 25.581 21.7415V21.9942C25.581 22.3664 25.8827 22.6681 26.255 22.6681H27.0975V32.145H25.4246C25.0524 32.145 24.7507 32.4467 24.7507 32.8188V33.0716C24.7507 33.4438 25.0524 33.7455 25.4246 33.7455H30.4552C30.8275 33.7455 31.1293 33.4438 31.1293 33.0716V32.8188C31.1293 32.4467 30.8275 32.145 30.4552 32.145ZM38.1686 31.0361C37.3182 31.9082 36.3532 32.3697 35.2516 32.3697C34.1968 32.3697 33.429 31.7892 33.429 30.8898C33.429 29.6725 34.7594 29.3096 35.7352 29.3096C36.5395 29.3096 37.3729 29.3524 38.1686 29.4673V31.0361ZM35.7829 24.1256C34.7056 24.1256 33.7333 24.4715 32.9193 25.0177C32.5998 25.2322 32.5275 25.672 32.7583 25.98L32.9257 26.2034C33.1369 26.4851 33.528 26.5549 33.8263 26.3677C34.4014 26.0072 35.0648 25.7849 35.7829 25.7849C37.1786 25.7849 38.1686 26.4488 38.1686 27.8786V28.0691C37.3804 27.9183 36.5852 27.8247 35.7829 27.8247C33.5425 27.8247 31.868 28.9155 31.868 30.8619C31.868 32.5865 33.2386 33.8895 35.1645 33.8895C36.2896 33.8895 37.2999 33.4852 38.1686 32.7013V33.0716C38.1686 33.4438 38.4702 33.7455 38.8426 33.7455H39.1795C39.5518 33.7455 39.8536 33.4438 39.8536 33.0716V27.8623C39.8536 25.5899 38.2422 24.1256 35.7829 24.1256Z"
        fill="#19194B"
  />
  <path
          d="M160.807 122.065V119.985C160.819 119.81 160.793 119.634 160.731 119.47C160.67 119.305 160.573 119.156 160.448 119.031C160.323 118.906 160.173 118.809 160.007 118.746C159.841 118.684 159.663 118.657 159.486 118.667C159.254 118.652 159.022 118.699 158.815 118.802C158.607 118.906 158.431 119.063 158.306 119.256C158.192 119.069 158.029 118.915 157.833 118.811C157.638 118.707 157.418 118.657 157.197 118.667C157.003 118.657 156.811 118.698 156.639 118.784C156.466 118.87 156.32 119 156.213 119.159V118.75H155.483V122.065H156.22V120.241C156.205 120.128 156.214 120.012 156.249 119.903C156.284 119.794 156.343 119.694 156.421 119.61C156.5 119.526 156.596 119.46 156.703 119.416C156.811 119.373 156.926 119.354 157.042 119.36C157.527 119.36 157.772 119.672 157.772 120.234V122.079H158.51V120.241C158.495 120.128 158.505 120.013 158.54 119.904C158.575 119.795 158.634 119.695 158.712 119.611C158.791 119.527 158.887 119.461 158.994 119.418C159.101 119.374 159.216 119.355 159.332 119.36C159.83 119.36 160.069 119.672 160.069 120.234V122.079L160.807 122.065ZM171.717 118.75H170.516V117.744H169.779V118.75H169.112V119.409H169.793V120.935C169.793 121.705 170.095 122.162 170.959 122.162C171.282 122.163 171.598 122.074 171.872 121.906L171.661 121.288C171.465 121.404 171.243 121.468 171.015 121.476C170.664 121.476 170.53 121.254 170.53 120.921V119.409H171.724L171.717 118.75ZM177.947 118.667C177.769 118.662 177.593 118.704 177.437 118.789C177.281 118.875 177.152 119 177.062 119.152V118.75H176.339V122.065H177.069V120.206C177.069 119.659 177.308 119.353 177.771 119.353C177.928 119.351 178.083 119.38 178.228 119.437L178.453 118.743C178.286 118.684 178.11 118.654 177.933 118.653L177.947 118.667ZM168.529 119.014C168.115 118.771 167.64 118.65 167.159 118.667C166.309 118.667 165.754 119.069 165.754 119.728C165.754 120.269 166.162 120.602 166.913 120.706L167.264 120.754C167.665 120.81 167.854 120.914 167.854 121.101C167.854 121.358 167.588 121.503 167.089 121.503C166.688 121.515 166.294 121.393 165.972 121.157L165.621 121.718C166.047 122.012 166.556 122.162 167.075 122.148C168.044 122.148 168.606 121.698 168.606 121.066C168.606 120.435 168.163 120.179 167.433 120.075L167.082 120.026C166.766 119.985 166.513 119.922 166.513 119.7C166.513 119.478 166.752 119.312 167.152 119.312C167.522 119.316 167.885 119.414 168.206 119.596L168.529 119.014ZM188.092 118.667C187.914 118.662 187.738 118.704 187.582 118.789C187.426 118.875 187.297 119 187.207 119.152V118.75H186.484V122.065H187.214V120.206C187.214 119.659 187.453 119.353 187.917 119.353C188.073 119.351 188.228 119.38 188.373 119.437L188.598 118.743C188.431 118.684 188.255 118.654 188.078 118.653L188.092 118.667ZM178.681 120.401C178.672 120.634 178.713 120.866 178.8 121.082C178.888 121.299 179.02 121.495 179.189 121.658C179.357 121.822 179.558 121.948 179.779 122.03C180 122.112 180.236 122.148 180.472 122.135C180.91 122.157 181.341 122.016 181.68 121.739L181.329 121.157C181.076 121.347 180.768 121.451 180.451 121.455C180.181 121.433 179.929 121.312 179.745 121.116C179.562 120.919 179.46 120.661 179.46 120.394C179.46 120.126 179.562 119.869 179.745 119.672C179.929 119.475 180.181 119.354 180.451 119.333C180.768 119.336 181.076 119.441 181.329 119.631L181.68 119.048C181.341 118.772 180.91 118.631 180.472 118.653C180.236 118.64 180 118.675 179.779 118.757C179.558 118.839 179.357 118.966 179.189 119.129C179.02 119.292 178.888 119.489 178.8 119.705C178.713 119.922 178.672 120.154 178.681 120.387V120.401ZM185.522 120.401V118.75H184.791V119.152C184.667 118.995 184.507 118.868 184.324 118.784C184.141 118.7 183.94 118.659 183.738 118.667C183.272 118.667 182.825 118.85 182.496 119.175C182.167 119.5 181.982 119.941 181.982 120.401C181.982 120.861 182.167 121.302 182.496 121.627C182.825 121.952 183.272 122.135 183.738 122.135C183.94 122.142 184.141 122.102 184.324 122.017C184.507 121.933 184.667 121.807 184.791 121.649V122.051H185.522V120.401ZM182.804 120.401C182.815 120.206 182.884 120.018 183.003 119.861C183.121 119.704 183.283 119.585 183.469 119.518C183.655 119.451 183.857 119.439 184.049 119.484C184.242 119.529 184.417 119.628 184.553 119.77C184.69 119.912 184.781 120.09 184.816 120.283C184.851 120.475 184.828 120.673 184.75 120.853C184.672 121.033 184.543 121.186 184.378 121.294C184.213 121.403 184.02 121.461 183.822 121.462C183.683 121.464 183.545 121.437 183.417 121.383C183.289 121.33 183.173 121.251 183.078 121.151C182.982 121.052 182.908 120.933 182.861 120.804C182.814 120.675 182.794 120.538 182.804 120.401ZM173.989 118.667C173.524 118.673 173.08 118.862 172.755 119.192C172.43 119.522 172.252 119.965 172.258 120.425C172.265 120.885 172.456 121.323 172.79 121.644C173.124 121.964 173.573 122.141 174.039 122.135C174.544 122.16 175.041 121.999 175.433 121.684L175.081 121.15C174.804 121.369 174.461 121.491 174.105 121.496C173.864 121.517 173.624 121.444 173.436 121.292C173.249 121.141 173.128 120.923 173.101 120.685H175.594C175.594 120.595 175.594 120.505 175.594 120.408C175.594 119.367 174.941 118.674 174 118.674L173.989 118.667ZM173.989 119.312C174.099 119.31 174.207 119.329 174.309 119.368C174.411 119.407 174.504 119.466 174.583 119.54C174.662 119.615 174.725 119.704 174.769 119.803C174.813 119.902 174.837 120.008 174.839 120.116H173.083C173.096 119.894 173.197 119.685 173.363 119.535C173.53 119.384 173.75 119.304 173.975 119.312H173.989ZM192.289 120.408V117.418H191.586V119.152C191.462 118.995 191.302 118.868 191.119 118.784C190.936 118.7 190.735 118.659 190.533 118.667C190.067 118.667 189.621 118.85 189.291 119.175C188.962 119.5 188.777 119.941 188.777 120.401C188.777 120.861 188.962 121.302 189.291 121.627C189.621 121.952 190.067 122.135 190.533 122.135C190.735 122.142 190.936 122.102 191.119 122.017C191.302 121.933 191.462 121.807 191.586 121.649V122.051H192.289V120.408ZM193.507 121.583C193.553 121.583 193.598 121.591 193.641 121.607C193.681 121.624 193.718 121.647 193.75 121.677C193.78 121.707 193.805 121.742 193.823 121.781C193.841 121.821 193.85 121.865 193.85 121.909C193.85 121.953 193.841 121.997 193.823 122.037C193.805 122.076 193.78 122.112 193.75 122.141C193.718 122.171 193.681 122.195 193.641 122.211C193.599 122.229 193.553 122.239 193.507 122.239C193.441 122.238 193.376 122.219 193.32 122.183C193.264 122.148 193.219 122.097 193.191 122.037C193.174 121.997 193.165 121.953 193.165 121.909C193.165 121.865 193.174 121.821 193.191 121.781C193.209 121.742 193.234 121.707 193.265 121.677C193.297 121.647 193.333 121.624 193.374 121.607C193.419 121.589 193.469 121.581 193.518 121.583H193.507ZM193.507 122.169C193.542 122.169 193.577 122.162 193.609 122.148C193.639 122.135 193.667 122.116 193.69 122.093C193.734 122.046 193.758 121.984 193.758 121.92C193.758 121.855 193.734 121.793 193.69 121.746C193.667 121.723 193.639 121.704 193.609 121.691C193.577 121.677 193.542 121.67 193.507 121.67C193.472 121.67 193.438 121.677 193.405 121.691C193.374 121.703 193.345 121.722 193.321 121.746C193.277 121.793 193.253 121.855 193.253 121.92C193.253 121.984 193.277 122.046 193.321 122.093C193.345 122.117 193.374 122.136 193.405 122.148C193.441 122.163 193.479 122.171 193.518 122.169H193.507ZM193.528 121.757C193.561 121.755 193.593 121.765 193.62 121.784C193.63 121.793 193.639 121.804 193.644 121.817C193.65 121.83 193.652 121.843 193.651 121.857C193.652 121.869 193.65 121.88 193.646 121.891C193.641 121.902 193.635 121.911 193.627 121.92C193.606 121.938 193.58 121.949 193.553 121.951L193.655 122.065H193.574L193.479 121.951H193.448V122.065H193.381V121.76L193.528 121.757ZM193.451 121.816V121.899H193.528C193.542 121.903 193.557 121.903 193.57 121.899C193.573 121.894 193.574 121.889 193.574 121.883C193.574 121.878 193.573 121.872 193.57 121.868C193.573 121.863 193.574 121.857 193.574 121.852C193.574 121.846 193.573 121.841 193.57 121.836C193.557 121.832 193.542 121.832 193.528 121.836L193.451 121.816ZM189.588 120.408C189.6 120.212 189.669 120.025 189.787 119.868C189.905 119.711 190.067 119.592 190.253 119.525C190.439 119.458 190.641 119.446 190.834 119.491C191.027 119.536 191.202 119.635 191.338 119.777C191.474 119.919 191.565 120.097 191.6 120.29C191.635 120.482 191.612 120.68 191.535 120.86C191.457 121.04 191.328 121.193 191.163 121.301C190.998 121.41 190.805 121.468 190.607 121.469C190.468 121.47 190.33 121.444 190.202 121.39C190.073 121.337 189.958 121.258 189.862 121.158C189.767 121.059 189.693 120.94 189.646 120.811C189.599 120.682 189.579 120.545 189.588 120.408ZM164.926 120.408V118.75H164.195V119.152C164.071 118.995 163.911 118.868 163.728 118.784C163.545 118.7 163.344 118.659 163.142 118.667C162.676 118.667 162.23 118.85 161.9 119.175C161.571 119.5 161.386 119.941 161.386 120.401C161.386 120.861 161.571 121.302 161.9 121.627C162.23 121.952 162.676 122.135 163.142 122.135C163.344 122.142 163.545 122.102 163.728 122.017C163.911 121.933 164.071 121.807 164.195 121.649V122.051H164.926V120.408ZM162.208 120.408C162.219 120.212 162.289 120.025 162.407 119.868C162.525 119.711 162.687 119.592 162.873 119.525C163.059 119.458 163.261 119.446 163.453 119.491C163.646 119.536 163.821 119.635 163.957 119.777C164.094 119.919 164.185 120.097 164.22 120.29C164.255 120.482 164.232 120.68 164.154 120.86C164.076 121.04 163.947 121.193 163.782 121.301C163.617 121.41 163.424 121.468 163.226 121.469C163.086 121.471 162.948 121.445 162.819 121.392C162.69 121.339 162.574 121.261 162.477 121.161C162.381 121.061 162.306 120.943 162.259 120.813C162.211 120.683 162.191 120.545 162.201 120.408H162.208Z"
          fill="#231F20"
  />
  <path d="M179.348 93.4882H168.286V113.119H179.348V93.4882Z" fill="#FF5F00"/>
  <path
          d="M168.989 103.307C168.987 101.416 169.42 99.5492 170.257 97.8483C171.093 96.1475 172.311 94.6569 173.817 93.4894C171.952 92.0421 169.713 91.1421 167.354 90.8923C164.996 90.6424 162.613 91.0529 160.48 92.0767C158.347 93.1005 156.548 94.6963 155.289 96.6819C154.031 98.6674 153.364 100.962 153.364 103.305C153.364 105.647 154.031 107.942 155.289 109.928C156.548 111.913 158.347 113.509 160.48 114.533C162.613 115.557 164.996 115.967 167.354 115.717C169.713 115.467 171.952 114.567 173.817 113.12C172.311 111.953 171.094 110.463 170.258 108.763C169.421 107.063 168.987 105.197 168.989 103.307Z"
          fill="#EB001B"
  />
  <path
          d="M194.273 103.305C194.273 105.648 193.605 107.943 192.347 109.928C191.088 111.914 189.289 113.51 187.155 114.534C185.021 115.557 182.639 115.967 180.281 115.717C177.922 115.467 175.682 114.567 173.817 113.119C175.322 111.951 176.539 110.46 177.376 108.76C178.213 107.06 178.648 105.194 178.648 103.303C178.648 101.413 178.213 99.5472 177.376 97.8469C176.539 96.1466 175.322 94.6562 173.817 93.4881C175.682 92.0403 177.922 91.1398 180.281 90.8896C182.639 90.6395 185.021 91.0496 187.155 92.0733C189.289 93.097 191.088 94.6928 192.347 96.6784C193.605 98.664 194.273 100.959 194.273 103.302V103.305Z"
          fill="#F79E1B"
  />
  <path
          d="M193.065 111.038V110.636H193.23V110.552H192.812V110.636H192.991V111.038H193.065ZM193.876 111.038V110.552H193.75L193.602 110.899L193.455 110.552H193.342V111.038H193.434V110.674L193.57 110.99H193.665L193.802 110.674V111.042L193.876 111.038Z"
          fill="#F79E1B"
  />
  <defs>
    <filter id="lana-card-empty-filter0_d"
            x="0.63638"
            y="0.818182"
            width="212.727"
            height="141.818"
            filterUnits="userSpaceOnUse"
            color-interpolation-filters="sRGB"
    >
      <feFlood flood-opacity="0" result="BackgroundImageFix"/>
      <feColorMatrix in="SourceAlpha" type="matrix" values="0 0 0 0 0 0 0 0 0 0 0 0 0 0 0 0 0 0 127 0"/>
      <feOffset dy="2.72727"/>
      <feGaussianBlur stdDeviation="5.45455"/>
      <feColorMatrix type="matrix" values="0 0 0 0 0 0 0 0 0 0 0 0 0 0 0 0 0 0 0.1 0"/>
      <feBlend mode="normal" in2="BackgroundImageFix" result="effect1_dropShadow"/>
      <feBlend mode="normal" in="SourceGraphic" in2="effect1_dropShadow" result="shape"/>
    </filter>
    <linearGradient id="lana-card-empty-paint0_linear"
                    x1="107"
                    y1="9"
                    x2="107"
                    y2="300.429"
                    gradientUnits="userSpaceOnUse"
    >
      <stop stop-color="#00A0DF"/>
      <stop offset="1" stop-color="#007CBF"/>
    </linearGradient>
  </defs>
</svg>
