<svg class="icon"
     viewBox="0 0 40 40"
     fill="none"
     xmlns="http://www.w3.org/2000/svg"
>
    <rect y="6" width="40" height="27" rx="4" fill="#FAFBFC"/>
    <mask id="lanaaccount-mask0" mask-type="alpha" maskUnits="userSpaceOnUse" x="0" y="6" width="40" height="27">
        <rect y="6" width="40" height="27" rx="4" fill="#F4F5F7"/>
    </mask>
    <g mask="url(#lanaaccount-mask0)">
        <path d="M40 33V6L0 33H40Z" fill="url(#lanaaccount-paint0_linear)"/>
    </g>
    <path fill-rule="evenodd" clip-rule="evenodd" d="M9.13451 11C9.70461 11 10.1668 11.4622 10.1668 12.0323V13.3225H12.2312C12.8013 13.3225 13.2635 13.7847 13.2635 14.3548C13.2635 14.9249 12.8013 15.387 12.2312 15.387H9.14354L9.13451 15.3871L9.12549 15.387H7.8844C7.85699 15.387 7.82958 15.386 7.80225 15.3838C7.70365 15.3759 7.60452 15.3895 7.51171 15.4237C7.41889 15.4579 7.3346 15.5118 7.26466 15.5818C7.19472 15.6517 7.1408 15.736 7.10662 15.8288C7.07243 15.9216 7.05881 16.0207 7.06668 16.1193C7.06886 16.1467 7.06995 16.1741 7.06995 16.2015C7.06995 16.1999 7.07008 16.2003 7.07079 16.2028C7.07752 16.226 7.13722 16.4315 7.64768 16.8372C8.15578 17.241 8.85576 17.6475 9.65025 18.1058L9.69196 18.1298L9.69198 18.1299L9.69199 18.1299C10.4353 18.5586 11.2646 19.0369 11.9057 19.5464C12.5009 20.0194 13.2585 20.7649 13.2635 21.7883C13.2693 22.1678 13.1991 22.5446 13.0571 22.8966C12.9139 23.2514 12.7007 23.5736 12.4302 23.8441C12.1597 24.1146 11.8375 24.3278 11.4827 24.4709C11.1312 24.6127 10.755 24.6829 10.3761 24.6773H10.1668V25.9677C10.1668 26.5378 9.70461 27 9.13451 27C8.56442 27 8.10226 26.5378 8.10226 25.9677V24.6773H6.0377C5.4676 24.6773 5.00544 24.2152 5.00544 23.6451C5.00544 23.075 5.4676 22.6128 6.0377 22.6128H10.3845L10.4035 22.613C10.5085 22.6149 10.6128 22.5957 10.7103 22.5564C10.8077 22.5171 10.8961 22.4585 10.9704 22.3843C11.0447 22.31 11.1032 22.2215 11.1425 22.1241C11.1818 22.0267 11.2011 21.9224 11.1992 21.8174L11.199 21.7984C11.199 21.8 11.1989 21.7995 11.1981 21.7971C11.1914 21.7739 11.1317 21.5684 10.6213 21.1627C10.1131 20.7589 9.41317 20.3524 8.61868 19.8941L8.57697 19.87C7.83363 19.4413 7.00436 18.963 6.3632 18.4535C5.77446 17.9856 5.02685 17.2512 5.00589 16.2448C4.98073 15.8612 5.03634 15.4764 5.1693 15.1153C5.30676 14.7421 5.52359 14.4032 5.80483 14.1219C6.08607 13.8407 6.42501 13.6239 6.79824 13.4864C7.15709 13.3542 7.5394 13.2985 7.92072 13.3225H8.10226V12.0323C8.10226 11.4622 8.56442 11 9.13451 11Z" fill="#19194B"/>
    <rect x="17" y="18" width="11" height="2" rx="1" fill="#19194B"/>
    <rect x="29" y="18" width="7" height="2" rx="1" fill="#19194B"/>
    <rect x="17" y="14" width="9" height="2" rx="1" fill="#19194B"/>
    <rect x="17" y="22" width="4" height="2" rx="1" fill="#7A869A"/>
    <rect x="22" y="22" width="4" height="2" rx="1" fill="#7A869A"/>
    <rect x="27" y="22" width="4" height="2" rx="1" fill="#7A869A"/>
    <rect x="32" y="22" width="4" height="2" rx="1" fill="#7A869A"/>
    <defs>
        <linearGradient id="lanaaccount-paint0_linear" x1="22.5" y1="5" x2="16" y2="34" gradientUnits="userSpaceOnUse">
            <stop stop-color="#EBECF0"/>
            <stop offset="1" stop-color="#EBECF0" stop-opacity="0"/>
        </linearGradient>
    </defs>
</svg>
