<svg class="icon" viewBox="0 0 360 264" fill="none" xmlns="http://www.w3.org/2000/svg">
  <g filter="url(#filter0_d)">
    <path d="M94.5425 124.744L168.178 30.1229L263.947 102.259L278 208.137L108.595 230.622L94.5425 124.744Z"
      fill="white" />
    <path
      d="M91.3816 122.284C90.7225 123.131 90.4308 124.207 90.572 125.271L104.625 231.149C104.916 233.342 106.93 234.883 109.122 234.592L278.527 212.108C280.72 211.817 282.261 209.803 281.97 207.61L267.917 101.732C267.776 100.669 267.214 99.7058 266.357 99.0602L170.588 26.9237C168.841 25.6076 166.361 25.9368 165.017 27.663L91.3816 122.284Z"
      stroke="white" stroke-width="8.01048" stroke-linecap="round" stroke-linejoin="round" />
  </g>
  <path d="M94.5423 124.744L185.2 112.711L263.947 102.259L278 208.137L108.595 230.622L94.5423 124.744Z"
    fill="#EBECF0" />
  <path
    d="M94.5424 124.744L263.947 102.259L176.576 36.4484C171.917 32.9389 165.303 33.8166 161.721 38.4201L94.5424 124.744Z"
    fill="#EBECF0" />
  <path d="M263.947 102.259L187.676 177.028L278 208.137L263.947 102.259Z" fill="#FAFBFC" />
  <path d="M94.5423 124.744L187.676 177.028L108.595 230.622L94.5423 124.744Z" fill="#FAFBFC" />
  <path
    d="M108.595 230.622L278 208.137L206.744 158.336L193.397 171.421C190.007 174.744 184.831 175.431 180.691 173.107L164.393 163.957L108.595 230.622Z"
    fill="#F4F5F7" />
  <mask id="mask0" mask-type="alpha" maskUnits="userSpaceOnUse" x="83" y="15" width="192" height="171">
    <path
      d="M85.2323 37.4847L254.637 15L263.947 102.259L193.397 171.421C190.007 174.744 184.831 175.431 180.691 173.107L94.5424 124.744L85.2323 37.4847Z"
      fill="#C4C4C4" />
  </mask>
  <g mask="url(#mask0)">
    <g filter="url(#filter1_d)">
      <rect x="118.3" y="258.889" width="196.823" height="123.717" rx="11.247" transform="rotate(-90 118.3 258.889)"
        fill="#00A0DF" />
    </g>
    <mask id="mask1" mask-type="alpha" maskUnits="userSpaceOnUse" x="118" y="62" width="125" height="197">
      <path
        d="M129.547 258.889C123.335 258.889 118.3 253.854 118.3 247.642L118.3 73.3134C118.3 67.1018 123.335 62.0663 129.547 62.0663L230.77 62.0663C236.981 62.0663 242.017 67.1018 242.017 73.3134L242.017 247.642C242.017 253.854 236.981 258.889 230.77 258.889L129.547 258.889Z"
        fill="url(#paint0_linear)" />
    </mask>
    <g mask="url(#mask1)">
      <path fill-rule="evenodd" clip-rule="evenodd"
        d="M193.872 83.1394C195.079 83.1394 196.059 82.159 196.059 80.9517L196.059 78.8877C196.059 77.6804 195.079 76.7015 193.872 76.7015L174.181 76.7015L174.181 83.1394L193.872 83.1394Z"
        fill="#19194B" />
      <path fill-rule="evenodd" clip-rule="evenodd"
        d="M148.622 17.8075C148.879 18.8053 149.589 19.6242 150.539 20.0184L152.432 20.8039C153.383 21.1966 154.463 21.1195 155.35 20.5973C161.09 17.2097 168.599 18.0809 173.401 22.8868C178.579 28.0665 179.186 36.3925 174.817 42.2573L174.179 44.1817L174.179 79.9524L174.817 81.8768C179.188 87.7373 178.579 96.0661 173.401 101.244C168.598 106.052 161.09 106.923 155.35 103.535C154.465 103.01 153.383 102.933 152.432 103.329L150.539 104.113C149.589 104.506 148.879 105.326 148.622 106.324C146.959 112.779 141.033 117.476 134.24 117.476C127.449 117.476 121.523 112.779 119.86 106.324C119.603 105.326 118.893 104.506 117.942 104.113L116.049 103.329C115.097 102.933 114.017 103.01 113.13 103.535C107.393 106.923 99.884 106.05 95.0804 101.244C92.2178 98.3818 90.7508 94.5563 90.7508 90.7148C90.7508 88.1256 91.4182 85.5307 92.7731 83.2194C93.3009 82.3205 93.3969 81.231 92.997 80.2666L92.2134 78.3742C91.8209 77.4215 91.0023 76.7117 90.005 76.4542C83.5528 74.7902 78.8597 68.8613 78.8597 62.0671C78.8597 55.2713 83.5528 49.3425 90.005 47.677C91.0023 47.4196 91.8194 46.7097 92.2134 45.7585L92.997 43.8661C93.391 42.9148 93.314 41.834 92.792 40.9453C89.406 35.2056 90.2769 27.6927 95.0804 22.8868C99.8825 18.0809 107.392 17.2097 113.132 20.5973C114.018 21.1195 115.099 21.1966 116.049 20.8039L117.942 20.0184C118.893 19.6242 119.603 18.8053 119.86 17.8075C121.523 11.3536 127.449 6.65677 134.24 6.65677C141.033 6.65677 146.959 11.3536 148.622 17.8075ZM114.334 13.982C106.437 10.4415 96.8483 12.0125 90.5284 18.3326C84.2099 24.6556 82.6397 34.2485 86.1813 42.1497C78.0935 45.2319 72.422 53.1258 72.422 62.0671C72.422 71.0054 78.0935 78.9008 86.1813 81.983C82.6397 89.8842 84.2099 99.4756 90.5284 105.799C96.8483 112.12 106.438 113.69 114.334 110.149C117.415 118.241 125.305 123.914 134.24 123.914C143.177 123.914 151.067 118.241 154.148 110.149C162.044 113.693 171.634 112.122 177.952 105.799C182.055 101.694 184.156 96.2101 184.156 90.706C184.154 86.6071 182.988 82.4921 180.615 78.9313L180.615 45.2014C186.175 36.8594 185.112 25.4978 177.952 18.3326C171.635 12.0125 162.045 10.4415 154.148 13.982C151.067 5.89167 143.177 0.218854 134.24 0.218854C125.305 0.218854 117.415 5.89167 114.334 13.982Z"
        fill="#19194B" />
      <path fill-rule="evenodd" clip-rule="evenodd"
        d="M119.86 17.8074C119.602 18.8052 118.893 19.6242 117.942 20.0183L116.049 20.8038C115.098 21.1965 114.018 21.1195 113.131 20.5973C107.391 17.2096 99.8822 18.0809 95.0801 22.8868C90.2765 27.6926 89.4057 35.2055 92.7917 40.9452C93.3151 41.834 93.3907 42.9147 92.9967 43.866L92.2131 45.7598C91.8191 46.7097 91.002 47.4195 90.0047 47.6769C83.5524 49.3424 78.8594 55.2712 78.8594 62.067C78.8594 68.8613 83.5524 74.7901 90.0047 76.4541C91.002 76.7116 91.8205 77.4214 92.2131 78.3741L92.9967 80.2665C93.3965 81.2309 93.3006 82.3204 92.7743 83.2193C91.4178 85.5306 90.752 88.1256 90.752 90.7147C90.752 94.5562 92.2175 98.3817 95.0801 101.244C99.8837 106.05 107.393 106.923 113.131 103.535C114.017 103.01 115.098 102.933 116.049 103.329L117.942 104.113C118.893 104.505 119.602 105.326 119.86 106.324C121.523 112.779 127.449 117.476 134.241 117.476C141.032 117.476 146.958 112.779 148.621 106.324C148.879 105.326 149.588 104.507 150.539 104.113L152.432 103.329C153.384 102.933 154.465 103.01 155.351 103.535C161.09 106.923 168.598 106.052 173.401 101.244C178.58 96.066 179.189 87.7372 174.817 81.8767L174.179 79.9523L174.179 44.1816L174.817 42.2572C179.187 36.3924 178.58 28.0665 173.401 22.8868C168.599 18.0809 161.09 17.2096 155.35 20.5973C154.463 21.1195 153.383 21.1965 152.432 20.8038L150.539 20.0183C149.588 19.6242 148.879 18.8052 148.621 17.8074C146.958 11.3535 141.032 6.6567 134.241 6.6567C127.449 6.6567 121.523 11.3535 119.86 17.8074Z"
        fill="white" />
      <path fill-rule="evenodd" clip-rule="evenodd"
        d="M138.951 35.6046C136.575 36.9472 134.364 38.6141 132.381 40.5981L131.651 41.3283C130.798 42.1807 130.798 43.5669 131.651 44.4207L133.111 45.8797C133.964 46.7335 135.348 46.7335 136.202 45.8797L136.932 45.1495C141.449 40.6316 147.453 38.1428 153.84 38.1428C166.897 38.1428 177.542 48.6681 177.747 61.6864C177.955 74.8968 167.045 85.9894 153.84 85.9894C147.453 85.9894 141.449 83.5006 136.932 78.9813L136.202 78.2511C135.348 77.3972 133.964 77.3972 133.111 78.2511L131.651 79.7129C130.798 80.5667 130.798 81.9515 131.651 82.8053L132.381 83.5355C134.364 85.5181 136.575 87.185 138.951 88.5276C136.84 91.588 133.618 93.8135 129.927 94.6426L129.927 88.1479C129.927 86.9406 128.95 85.9617 127.742 85.9617L126.709 85.9617C123.498 85.9617 120.894 83.3566 120.894 80.142C120.894 77.4743 122.691 75.2299 125.139 74.5448C126.073 74.283 126.708 73.419 126.708 72.4502L126.708 69.7593C126.708 68.7905 126.073 67.9265 125.139 67.6647C122.691 66.9782 120.894 64.7352 120.894 62.0661C120.894 59.397 122.691 57.1526 125.139 56.4689C126.073 56.2071 126.708 55.3416 126.708 54.3729L126.708 51.6834C126.708 50.7146 126.073 49.8492 125.139 49.5873C122.691 48.9037 120.894 46.6593 120.894 43.9902C120.894 40.777 123.498 38.1719 126.709 38.1719L127.742 38.1719C128.95 38.1719 129.927 37.193 129.927 35.9842L129.927 29.4896C133.618 30.3201 136.84 32.5442 138.951 35.6046Z"
        fill="white" />
      <path fill-rule="evenodd" clip-rule="evenodd"
        d="M140.099 71.074C140.099 72.8849 141.566 74.354 143.377 74.354C145.187 74.354 146.654 72.8849 146.654 71.074C146.654 69.263 145.187 67.7939 143.377 67.7939C141.566 67.7939 140.099 69.263 140.099 71.074Z"
        fill="#19194B" />
      <path fill-rule="evenodd" clip-rule="evenodd"
        d="M172.476 56.6007C175.495 56.6007 177.94 59.0487 177.94 62.0669C177.94 65.0852 175.495 67.5332 172.476 67.5332L172.476 56.6007Z"
        fill="#19194B" />
      <path fill-rule="evenodd" clip-rule="evenodd"
        d="M138.951 35.6045C136.575 36.9471 134.364 38.614 132.381 40.598L131.651 41.3282C130.798 42.1806 130.798 43.5668 131.651 44.4206L133.111 45.8796C133.964 46.7334 135.348 46.7334 136.202 45.8796L136.932 45.1494C141.449 40.6315 147.453 38.1427 153.84 38.1427C166.897 38.1427 177.542 48.668 177.747 61.6864C177.955 74.8967 167.045 85.9893 153.84 85.9893C147.453 85.9893 141.449 83.5005 136.932 78.9812L136.202 78.251C135.348 77.3971 133.964 77.3971 133.111 78.251L131.651 79.7128C130.798 80.5666 130.798 81.9514 131.651 82.8052L132.381 83.5354C134.364 85.518 136.575 87.1849 138.951 88.5275C136.84 91.5879 133.618 93.8134 129.927 94.6425L129.927 88.1479C129.927 86.9406 128.95 85.9616 127.742 85.9616L126.709 85.9616C123.498 85.9616 120.894 83.3565 120.894 80.1419C120.894 77.4742 122.691 75.2298 125.139 74.5447C126.073 74.2829 126.708 73.4189 126.708 72.4502L126.708 69.7592C126.708 68.7905 126.073 67.9265 125.139 67.6646C122.691 66.9781 120.894 64.7351 120.894 62.066C120.894 59.3969 122.691 57.1525 125.139 56.4688C126.073 56.207 126.708 55.3415 126.708 54.3728L126.708 51.6833C126.708 50.7146 126.073 49.8491 125.139 49.5873C122.691 48.9036 120.894 46.6592 120.894 43.9901C120.894 40.777 123.498 38.1718 126.709 38.1718L127.742 38.1718C128.95 38.1718 129.927 37.1929 129.927 35.9842L129.927 29.4895C133.618 30.3201 136.84 32.5441 138.951 35.6045ZM123.491 24.88L123.491 32.1616C118.292 33.5783 114.458 38.3449 114.458 43.9901C114.458 47.564 115.995 50.7873 118.441 53.0288C115.995 55.2703 114.458 58.4921 114.458 62.066C114.458 65.6399 115.995 68.8617 118.441 71.1047C115.995 73.3462 114.458 76.5695 114.458 80.1434C114.458 85.7885 118.292 90.5537 123.491 91.9719L123.491 99.252C123.491 100.459 124.471 101.438 125.677 101.438L126.709 101.438C134.319 101.438 141.155 97.3131 144.923 91.0948C147.956 92.0228 151.15 92.4839 154.422 92.4228C170.937 92.1159 184.285 78.4081 184.187 61.8784C184.085 45.2236 170.511 31.7034 153.84 31.7034C150.768 31.7034 147.767 32.1601 144.913 33.0343C144.915 33.0343 144.918 33.0328 144.919 33.0314C141.151 26.8175 134.318 22.6938 126.709 22.6938L125.677 22.6938C124.471 22.6938 123.491 23.6727 123.491 24.88Z"
        fill="#19194B" />
    </g>
    <path
      d="M234.867 105.005L232.722 105.005C232.542 104.992 232.361 105.018 232.191 105.082C232.022 105.146 231.868 105.245 231.739 105.374C231.611 105.503 231.511 105.658 231.446 105.829C231.381 106 231.353 106.183 231.364 106.366C231.348 106.605 231.396 106.844 231.503 107.058C231.61 107.272 231.772 107.453 231.972 107.582C231.778 107.7 231.619 107.868 231.512 108.07C231.405 108.271 231.354 108.498 231.364 108.726C231.354 108.926 231.395 109.124 231.484 109.302C231.574 109.479 231.707 109.631 231.871 109.74L231.45 109.74L231.45 110.493L234.867 110.493L234.867 109.733L232.987 109.733C232.87 109.749 232.751 109.739 232.638 109.703C232.526 109.667 232.423 109.607 232.336 109.526C232.249 109.445 232.181 109.346 232.137 109.235C232.092 109.124 232.072 109.005 232.079 108.886C232.079 108.386 232.401 108.133 232.98 108.133L234.882 108.133L234.882 107.372L232.987 107.372C232.87 107.388 232.751 107.377 232.639 107.341C232.527 107.305 232.424 107.245 232.337 107.164C232.251 107.083 232.183 106.984 232.138 106.874C232.093 106.763 232.073 106.644 232.079 106.525C232.079 106.011 232.401 105.765 232.98 105.765L234.882 105.765L234.867 105.005ZM231.45 93.7558L231.45 94.994L230.413 94.994L230.413 95.7543L231.45 95.7543L231.45 96.4422L232.129 96.4422L232.129 95.7398L233.702 95.7398C234.496 95.7398 234.967 95.4285 234.967 94.5378C234.969 94.2051 234.877 93.8788 234.703 93.5965L234.067 93.8138C234.185 94.0157 234.252 94.2449 234.26 94.4799C234.26 94.842 234.031 94.9795 233.688 94.9795L232.129 94.9795L232.129 93.7486L231.45 93.7558ZM231.364 87.3332C231.358 87.5168 231.402 87.6984 231.49 87.859C231.578 88.0196 231.707 88.1531 231.864 88.2455L231.45 88.2455L231.45 88.9913L234.867 88.9913L234.867 88.2383L232.951 88.2383C232.386 88.2383 232.072 87.9921 232.072 87.5142C232.069 87.3531 232.099 87.1932 232.157 87.0435L231.442 86.8118C231.382 86.9838 231.35 87.165 231.349 87.3476L231.364 87.3332ZM231.721 97.0432C231.471 97.4695 231.347 97.9596 231.364 98.4552C231.364 99.3313 231.778 99.9034 232.458 99.9034C233.015 99.9034 233.359 99.4834 233.466 98.7086L233.516 98.3466C233.573 97.9338 233.68 97.7383 233.873 97.7383C234.138 97.7383 234.288 98.0135 234.288 98.5276C234.3 98.9411 234.174 99.3466 233.931 99.6789L234.51 100.041C234.812 99.6023 234.968 99.0769 234.953 98.5421C234.953 97.5428 234.488 96.9635 233.838 96.9635C233.187 96.9635 232.922 97.4197 232.815 98.1728L232.765 98.5348C232.722 98.8607 232.658 99.1213 232.429 99.1213C232.2 99.1213 232.029 98.8751 232.029 98.4624C232.033 98.0809 232.134 97.707 232.322 97.3763L231.721 97.0432ZM231.364 76.8737C231.358 77.0573 231.402 77.2389 231.49 77.3995C231.578 77.5601 231.707 77.6936 231.864 77.786L231.45 77.786L231.45 78.5318L234.867 78.5318L234.867 77.7788L232.951 77.7788C232.386 77.7788 232.072 77.5326 232.072 77.0547C232.069 76.8936 232.099 76.7337 232.157 76.584L231.442 76.3523C231.382 76.5243 231.35 76.7055 231.349 76.8882L231.364 76.8737ZM233.151 86.5765C233.391 86.5854 233.631 86.5435 233.854 86.4534C234.077 86.3633 234.28 86.227 234.448 86.0532C234.616 85.8794 234.747 85.6719 234.831 85.4441C234.916 85.2163 234.952 84.9731 234.939 84.7301C234.962 84.2779 234.816 83.8335 234.531 83.4846L233.931 83.8467C234.127 84.107 234.235 84.4244 234.238 84.7518C234.216 85.0301 234.091 85.2898 233.888 85.4791C233.686 85.6685 233.42 85.7736 233.144 85.7736C232.868 85.7736 232.603 85.6685 232.4 85.4791C232.197 85.2898 232.072 85.0301 232.05 84.7518C232.054 84.4244 232.162 84.107 232.358 83.8467L231.757 83.4846C231.472 83.8335 231.327 84.2779 231.349 84.7301C231.336 84.9731 231.372 85.2163 231.457 85.4441C231.542 85.6719 231.672 85.8794 231.84 86.0532C232.009 86.227 232.211 86.3633 232.434 86.4534C232.657 86.5435 232.897 86.5854 233.137 86.5765L233.151 86.5765ZM233.151 79.5238L231.45 79.5238L231.45 80.2769L231.864 80.2769C231.702 80.4048 231.572 80.57 231.485 80.7588C231.398 80.9477 231.356 81.1548 231.364 81.363C231.364 81.8431 231.552 82.3036 231.887 82.6431C232.223 82.9825 232.677 83.1733 233.151 83.1733C233.625 83.1733 234.08 82.9825 234.415 82.6431C234.751 82.3036 234.939 81.8431 234.939 81.363C234.946 81.1548 234.905 80.9477 234.818 80.7588C234.731 80.57 234.601 80.4048 234.438 80.2769L234.853 80.2769L234.853 79.5238L233.151 79.5238ZM233.151 82.3261C232.95 82.3141 232.757 82.2427 232.595 82.1209C232.433 81.999 232.311 81.8319 232.241 81.6402C232.172 81.4485 232.16 81.2405 232.206 81.0418C232.253 80.8432 232.355 80.6625 232.501 80.5221C232.648 80.3817 232.831 80.2878 233.03 80.2517C233.228 80.2157 233.432 80.2392 233.618 80.3193C233.803 80.3994 233.961 80.5327 234.073 80.7027C234.184 80.8727 234.244 81.0721 234.245 81.2761C234.247 81.4195 234.22 81.5617 234.164 81.6937C234.109 81.8258 234.028 81.9449 233.925 82.0435C233.822 82.1421 233.701 82.2181 233.567 82.2667C233.434 82.3154 233.293 82.3356 233.151 82.3261ZM231.364 91.4134C231.37 91.8935 231.565 92.3513 231.905 92.686C232.245 93.0207 232.702 93.205 233.176 93.1983C233.65 93.1916 234.102 92.9944 234.433 92.6502C234.764 92.3059 234.945 91.8428 234.939 91.3627C234.965 90.8418 234.8 90.3296 234.474 89.9254L233.924 90.2874C234.15 90.5733 234.276 90.9275 234.281 91.2939C234.302 91.5428 234.227 91.7903 234.07 91.9837C233.914 92.177 233.69 92.3011 233.444 92.3294L233.444 89.7589C233.351 89.7589 233.259 89.7589 233.158 89.7589C232.086 89.7589 231.371 90.4323 231.371 91.4025L231.364 91.4134ZM232.029 91.4134C232.026 91.3007 232.046 91.1887 232.086 91.0836C232.127 90.9786 232.187 90.8827 232.264 90.8013C232.341 90.7199 232.433 90.6548 232.535 90.6094C232.637 90.5641 232.747 90.5396 232.858 90.5373L232.858 92.3475C232.629 92.3344 232.413 92.2308 232.258 92.0589C232.103 91.887 232.021 91.6605 232.029 91.4279L232.029 91.4134ZM233.158 72.5472L230.077 72.5472L230.077 73.2713L231.864 73.2713C231.702 73.3992 231.572 73.5644 231.485 73.7533C231.398 73.9421 231.356 74.1492 231.364 74.3575C231.364 74.8376 231.552 75.298 231.887 75.6375C232.223 75.977 232.677 76.1677 233.151 76.1677C233.625 76.1677 234.08 75.977 234.415 75.6375C234.751 75.298 234.939 74.8376 234.939 74.3575C234.946 74.1492 234.905 73.9421 234.818 73.7533C234.731 73.5644 234.601 73.3992 234.438 73.2713L234.853 73.2713L234.853 72.5472L233.158 72.5472ZM234.37 71.2909C234.37 71.2439 234.378 71.1971 234.395 71.1534C234.412 71.1118 234.436 71.0737 234.467 71.0411C234.498 71.0093 234.534 70.9836 234.574 70.9651C234.616 70.9468 234.661 70.9373 234.706 70.9373C234.752 70.9373 234.797 70.9468 234.839 70.9651C234.879 70.9836 234.915 71.0093 234.946 71.0411C234.977 71.0737 235.001 71.1118 235.018 71.1534C235.036 71.1967 235.046 71.2436 235.046 71.2909C235.046 71.3596 235.026 71.4266 234.989 71.4843C234.952 71.542 234.9 71.588 234.839 71.6168C234.797 71.6349 234.752 71.6443 234.706 71.6443C234.661 71.6443 234.616 71.6349 234.574 71.6168C234.534 71.5983 234.498 71.5726 234.467 71.5408C234.436 71.5082 234.412 71.4701 234.395 71.4285C234.377 71.3814 234.368 71.3308 234.37 71.2801L234.37 71.2909ZM234.975 71.2909C234.975 71.2548 234.968 71.219 234.953 71.186C234.939 71.1548 234.92 71.1266 234.896 71.1027C234.847 71.0574 234.783 71.0323 234.717 71.0323C234.651 71.0323 234.587 71.0574 234.538 71.1027C234.514 71.1265 234.495 71.1548 234.481 71.186C234.467 71.2191 234.46 71.2548 234.46 71.2909C234.46 71.327 234.467 71.3627 234.481 71.3959C234.494 71.4285 234.514 71.458 234.538 71.4828C234.587 71.5281 234.651 71.5532 234.717 71.5532C234.783 71.5532 234.847 71.5281 234.896 71.4828C234.92 71.4579 234.94 71.4284 234.953 71.3959C234.969 71.3594 234.976 71.3198 234.975 71.2801L234.975 71.2909ZM234.549 71.2692C234.548 71.2354 234.558 71.2021 234.578 71.1751C234.587 71.164 234.598 71.1553 234.611 71.1496C234.624 71.1439 234.639 71.1415 234.653 71.1425C234.665 71.142 234.677 71.144 234.688 71.1483C234.699 71.1527 234.709 71.1593 234.717 71.1679C234.736 71.1888 234.747 71.2156 234.749 71.2439L234.867 71.1389L234.867 71.2222L234.749 71.3199L234.749 71.3525L234.867 71.3525L234.867 71.4213L234.553 71.4213L234.549 71.2692ZM234.61 71.3489L234.696 71.3489L234.696 71.2692C234.7 71.2551 234.7 71.24 234.696 71.2258C234.691 71.2232 234.685 71.2219 234.68 71.2219C234.674 71.2219 234.669 71.2232 234.664 71.2258C234.659 71.2232 234.653 71.2219 234.647 71.2219C234.642 71.2219 234.636 71.2232 234.631 71.2258C234.627 71.24 234.627 71.2551 234.631 71.2692L234.61 71.3489ZM233.158 75.3314C232.957 75.3194 232.764 75.248 232.602 75.1262C232.441 75.0043 232.318 74.8372 232.249 74.6455C232.18 74.4538 232.167 74.2458 232.214 74.0471C232.26 73.8485 232.362 73.6678 232.509 73.5274C232.655 73.387 232.838 73.293 233.037 73.257C233.235 73.221 233.44 73.2445 233.625 73.3246C233.81 73.4047 233.968 73.538 234.08 73.708C234.191 73.878 234.251 74.0774 234.252 74.2814C234.254 74.4248 234.227 74.567 234.172 74.699C234.116 74.8311 234.035 74.9502 233.932 75.0488C233.829 75.1474 233.708 75.2234 233.575 75.272C233.441 75.3207 233.3 75.3409 233.158 75.3314ZM233.158 100.758L231.45 100.758L231.45 101.511L231.864 101.511C231.702 101.639 231.572 101.804 231.485 101.993C231.398 102.182 231.356 102.389 231.364 102.597C231.364 103.077 231.552 103.538 231.887 103.877C232.223 104.216 232.677 104.407 233.151 104.407C233.625 104.407 234.08 104.216 234.415 103.877C234.751 103.538 234.939 103.077 234.939 102.597C234.946 102.389 234.905 102.182 234.818 101.993C234.731 101.804 234.601 101.639 234.438 101.511L234.853 101.511L234.853 100.758L233.158 100.758ZM233.158 103.56C232.957 103.548 232.764 103.477 232.602 103.355C232.441 103.233 232.318 103.066 232.249 102.874C232.18 102.682 232.167 102.474 232.214 102.276C232.26 102.077 232.362 101.896 232.509 101.756C232.655 101.616 232.838 101.522 233.037 101.486C233.235 101.45 233.44 101.473 233.625 101.553C233.81 101.633 233.968 101.767 234.08 101.937C234.191 102.107 234.251 102.306 234.252 102.51C234.255 102.654 234.228 102.797 234.174 102.93C234.119 103.063 234.038 103.183 233.935 103.282C233.832 103.382 233.71 103.458 233.576 103.507C233.443 103.556 233.3 103.577 233.158 103.567L233.158 103.56Z"
      fill="#231F20" />
    <path d="M205.405 85.8885L205.405 97.293L225.644 97.293L225.644 85.8885L205.405 85.8885Z" fill="#FF5F00" />
    <path
      d="M215.527 96.5689C213.578 96.571 211.654 96.1239 209.9 95.2614C208.147 94.3989 206.61 93.1437 205.406 91.5908C203.914 93.5136 202.986 95.8227 202.729 98.2542C202.471 100.686 202.894 103.142 203.95 105.341C205.005 107.541 206.651 109.395 208.698 110.693C210.745 111.99 213.111 112.678 215.526 112.678C217.941 112.678 220.307 111.99 222.354 110.693C224.401 109.395 226.046 107.541 227.102 105.341C228.157 103.142 228.58 100.686 228.323 98.2542C228.065 95.8227 227.137 93.5136 225.645 91.5908C224.442 93.1432 222.906 94.3982 221.153 95.2606C219.4 96.1231 217.476 96.5705 215.527 96.5689Z"
      fill="#EB001B" />
    <path
      d="M215.526 70.5017C217.941 70.5018 220.307 71.1899 222.355 72.4876C224.402 73.7852 226.047 75.6399 227.102 77.8397C228.158 80.0395 228.581 82.4957 228.323 84.9273C228.065 87.359 227.136 89.6682 225.644 91.5908C224.439 90.039 222.903 88.7844 221.15 87.9217C219.397 87.059 217.473 86.6108 215.524 86.6108C213.575 86.6108 211.652 87.059 209.899 87.9217C208.146 88.7844 206.609 90.039 205.405 91.5908C203.912 89.6682 202.984 87.359 202.726 84.9274C202.468 82.4957 202.891 80.0395 203.946 77.8397C205.002 75.6399 206.647 73.7852 208.694 72.4876C210.741 71.1899 213.107 70.5018 215.523 70.5017L215.526 70.5017Z"
      fill="#F79E1B" />
    <path
      d="M223.499 71.7471L223.084 71.7471L223.084 71.577L222.998 71.577L222.998 72.0078L223.084 72.0078L223.084 71.8232L223.499 71.8232L223.499 71.7471ZM223.499 70.9108L222.998 70.9108L222.998 71.0412L223.356 71.1932L222.998 71.3453L222.998 71.4611L223.499 71.4611L223.499 71.367L223.123 71.367L223.449 71.2258L223.449 71.1281L223.123 70.9869L223.502 70.9869L223.499 70.9108Z"
      fill="#F79E1B" />
  </g>
  <defs>
    <filter id="filter0_d" x="63.8003" y="4.54542" width="233.875" height="251.092" filterUnits="userSpaceOnUse"
      color-interpolation-filters="sRGB">
      <feFlood flood-opacity="0" result="BackgroundImageFix" />
      <feColorMatrix in="SourceAlpha" type="matrix" values="0 0 0 0 0 0 0 0 0 0 0 0 0 0 0 0 0 0 127 0" />
      <feOffset dy="5.34032" />
      <feGaussianBlur stdDeviation="5.34032" />
      <feColorMatrix type="matrix" values="0 0 0 0 0 0 0 0 0 0 0 0 0 0 0 0 0 0 0.24 0" />
      <feBlend mode="normal" in2="BackgroundImageFix" result="effect1_dropShadow" />
      <feBlend mode="normal" in="SourceGraphic" in2="effect1_dropShadow" result="shape" />
    </filter>
    <filter id="filter1_d" x="107.053" y="53.6311" width="146.211" height="219.317" filterUnits="userSpaceOnUse"
      color-interpolation-filters="sRGB">
      <feFlood flood-opacity="0" result="BackgroundImageFix" />
      <feColorMatrix in="SourceAlpha" type="matrix" values="0 0 0 0 0 0 0 0 0 0 0 0 0 0 0 0 0 0 127 0" />
      <feOffset dy="2.81175" />
      <feGaussianBlur stdDeviation="5.62351" />
      <feColorMatrix type="matrix" values="0 0 0 0 0 0 0 0 0 0 0 0 0 0 0 0 0 0 0.1 0" />
      <feBlend mode="normal" in2="BackgroundImageFix" result="effect1_dropShadow" />
      <feBlend mode="normal" in="SourceGraphic" in2="effect1_dropShadow" result="shape" />
    </filter>
    <linearGradient id="paint0_linear" x1="118.3" y1="160.478" x2="418.756" y2="160.478" gradientUnits="userSpaceOnUse">
      <stop stop-color="#00A0DF" />
      <stop offset="1" stop-color="#007CBF" />
    </linearGradient>
  </defs>
</svg>