<svg viewBox="0 0 48 48" fill="none" xmlns="http://www.w3.org/2000/svg">
  <rect x="4" y="4" width="40" height="12" rx="4" fill="#DFE1E6" />
  <rect opacity="0.5" x="8" y="8" width="32" height="4" rx="2" fill="#7A869A" />
  <path
    d="M11.8775 14.7351C12.3329 12.0027 14.697 10 17.4671 10H30.533C33.303 10 35.6671 12.0027 36.1225 14.7351L39.9003 37.4017C40.476 40.8558 37.8124 44 34.3107 44H13.6893C10.1876 44 7.52404 40.8558 8.09971 37.4017L11.8775 14.7351Z"
    fill="url(#paint0_linear)" />
  <rect x="32.7476" y="14.25" width="14.1667" height="1.66667" rx="0.833333" transform="rotate(86.9336 32.7476 14.25)"
    fill="#19194B" />
  <rect x="29.1877" y="14.25" width="5.83333" height="1.66667" rx="0.833333" transform="rotate(88.5198 29.1877 14.25)"
    fill="#19194B" />
  <rect x="25.9457" y="14.25" width="5.83333" height="1.66667" rx="0.833333" transform="rotate(90 25.9457 14.25)"
    fill="#19194B" />
  <circle cx="16.6726" cy="19.7812" r="2.26436" transform="rotate(94.8959 16.6726 19.7812)" fill="#FAC34B" />
  <circle cx="16.9302" cy="16.7732" r="2.26436" transform="rotate(94.8959 16.9302 16.7732)" fill="#EB4B68" />
  <mask id="mask0" mask-type="alpha" maskUnits="userSpaceOnUse" x="8" y="10" width="32" height="34">
    <path
      d="M11.8775 14.7351C12.3329 12.0027 14.697 10 17.4671 10H30.533C33.303 10 35.6671 12.0027 36.1225 14.7351L39.9003 37.4017C40.476 40.8558 37.8124 44 34.3107 44H13.6893C10.1876 44 7.52404 40.8558 8.09971 37.4017L11.8775 14.7351Z"
      fill="url(#paint1_linear)" />
  </mask>
  <g mask="url(#mask0)">
    <path
      d="M37.9759 39.814C38.6585 40.7952 39.0072 41.8806 39.0072 42.987C39.0072 44.1857 38.6663 45.2874 37.956 46.187C37.4103 46.8906 36.7054 47.4641 35.8438 47.8362C36.0877 48.4404 36.2249 49.0552 36.2249 49.6825C36.2249 49.9839 36.1804 50.2853 36.1274 50.5519L36.1258 50.56C35.8948 51.6409 35.3249 52.7461 34.5227 53.5148C33.5926 54.4062 32.5587 54.8443 31.4324 55.0524L31.4011 55.0582L31.3694 55.0609C30.3923 55.1432 29.4421 55.0951 28.5391 54.7645C28.1172 55.5219 27.5385 56.2709 26.7738 56.8076C25.8305 57.4814 24.6852 57.8125 23.5372 57.8125C22.4763 57.8125 21.3597 57.4635 20.3716 56.9458L20.3486 56.9338L20.3267 56.9199C19.4789 56.3819 18.8611 55.6273 18.4728 54.7789C17.5529 55.1139 16.6097 55.2312 15.6421 55.0524L15.635 55.0511C14.5071 54.8297 13.3539 54.2835 12.5517 53.5148C11.6216 52.6234 11.1644 51.6327 10.9472 50.5532L10.9419 50.5268L10.9391 50.5C10.9124 50.2435 10.899 49.9868 10.899 49.7299C10.899 49.0741 10.9896 48.4304 11.2289 47.8175C10.4297 47.4547 9.66272 46.9003 9.11397 46.1812L9.10603 46.1708L9.09857 46.1601C8.41596 45.1788 8.06722 44.0935 8.06722 42.987C8.06722 41.7928 8.42459 40.6962 9.11397 39.7929L9.11661 39.7894C9.66256 39.0847 10.368 38.5104 11.2307 38.1379C10.9867 37.5337 10.8495 36.9189 10.8495 36.2915C10.8495 35.9902 10.894 35.6887 10.947 35.4221L10.9486 35.4141C11.1796 34.3332 11.7496 33.228 12.5517 32.4593C13.443 31.6051 14.387 31.0242 15.705 30.9132C16.6676 30.8321 17.604 30.8776 18.495 31.195C18.8736 30.4278 19.4527 29.6914 20.2042 29.1648L20.215 29.1571L20.2262 29.15C21.2501 28.4958 22.3826 28.1616 23.5372 28.1616C24.7834 28.1616 25.9277 28.5041 26.8703 29.1648L26.8739 29.1673C27.6101 29.6911 28.21 30.3682 28.5986 31.1963C29.5195 30.8604 30.4637 30.7427 31.4324 30.9216L31.4394 30.9229C32.5673 31.1443 33.7206 31.6905 34.5227 32.4593C35.4529 33.3507 35.9101 34.3414 36.1272 35.4208L36.1325 35.4473L36.1353 35.4741C36.1621 35.7306 36.1755 35.9873 36.1755 36.2441C36.1755 36.8999 36.0849 37.5436 35.8455 38.1566C36.6448 38.5194 37.4117 39.0738 37.9605 39.7929L37.9684 39.8033L37.9759 39.814Z"
      fill="#19194B" />
    <path
      d="M36.9034 43.0165C36.9034 43.824 36.6712 44.5262 36.2558 45.0763C35.7793 45.6731 35.1929 46.0711 34.4965 46.2817C34.1177 46.387 33.8245 46.6445 33.6779 46.9839C33.6168 47.136 33.5679 47.3116 33.5679 47.4871C33.5679 47.6744 33.6168 47.8733 33.7023 48.0489C33.9956 48.6224 34.1422 49.1373 34.1422 49.6405C34.1422 49.8161 34.1299 49.9799 34.0933 50.1438C33.9345 50.8928 33.5435 51.6418 33.0304 52.1216C32.4928 52.6366 31.8697 52.9525 31.0267 53.1164C30.0859 53.1983 29.4017 53.0813 28.8153 52.777C28.4854 52.6014 28.1189 52.578 27.7768 52.6834C27.4347 52.7887 27.1415 53.0462 26.9949 53.3504C26.6161 54.1463 26.1274 54.7782 25.5776 55.1761C25.0278 55.5858 24.2948 55.7964 23.5251 55.7964C22.8775 55.7964 22.0956 55.5741 21.3748 55.1995C20.6295 54.6963 20.2874 53.9941 20.1163 53.4792C20.0064 53.1164 19.7376 52.8355 19.3833 52.6951C19.029 52.5546 18.638 52.5546 18.2715 52.7302C17.4773 53.1164 16.7565 53.2334 16.0723 53.1047C15.2904 52.9525 14.5084 52.578 14.0075 52.0865C13.4699 51.5716 13.1401 50.9747 12.969 50.1672C12.9568 49.9799 12.9568 49.8044 12.9568 49.6405C12.9568 48.9969 13.0668 48.4819 13.3356 48.0489C13.4455 47.8616 13.4944 47.6627 13.4944 47.4403C13.4944 47.2882 13.4577 47.1243 13.4089 46.9839C13.2623 46.6445 12.969 46.3753 12.6147 46.2466C11.9183 46.0242 11.2586 45.5795 10.8432 45.0646C10.4033 44.4209 10.1712 43.707 10.1712 42.9697C10.1712 42.1622 10.4033 41.46 10.8187 40.9099C11.2952 40.3131 11.8817 39.9152 12.5781 39.7045C12.9568 39.5992 13.25 39.3417 13.3966 39.0023C13.4577 38.8502 13.5066 38.6746 13.5066 38.4991C13.5066 38.3118 13.4577 38.1129 13.3722 37.9373C13.079 37.3639 12.9324 36.8489 12.9324 36.3457C12.9324 36.1701 12.9446 36.0063 12.9812 35.8425C13.1401 35.0934 13.531 34.3444 14.0442 33.8646C14.7284 33.2092 15.2659 32.9284 15.9623 32.8698C16.9398 32.7879 17.6606 32.8815 18.2348 33.1975C18.5769 33.3848 18.9801 33.3965 19.3466 33.2794C19.7009 33.139 19.9819 32.8581 20.1163 32.5187C20.3485 31.8517 20.8127 31.2314 21.3503 30.8218C22.0223 30.4005 22.7676 30.1781 23.5251 30.1781C24.3681 30.1781 25.1011 30.4005 25.6754 30.7984C26.2985 31.2548 26.7139 31.8165 26.9338 32.4836C27.0437 32.8464 27.3125 33.1273 27.6668 33.2677C28.0211 33.4082 28.4121 33.4082 28.7786 33.2326C29.5728 32.8464 30.2936 32.7294 30.9778 32.8581C31.7597 33.0103 32.5417 33.3848 33.0426 33.8763C33.5802 34.3913 33.91 34.9881 34.0811 35.7956C34.0933 35.9829 34.0933 36.1584 34.0933 36.3223L34.0933 36.3223C34.0933 36.966 33.9833 37.4809 33.7146 37.9139C33.6046 38.1012 33.5557 38.3001 33.5557 38.5225C33.5557 38.6746 33.5924 38.8385 33.6412 38.9789C33.7879 39.3183 34.0811 39.5875 34.4354 39.7162C35.1318 39.9386 35.7915 40.3833 36.2069 40.8982C36.6712 41.577 36.9034 42.3026 36.9034 43.0165Z"
      fill="white" />
    <path
      d="M36.9034 43.0165C36.9034 43.824 36.6712 44.5262 36.2558 45.0763C35.7793 45.6731 35.1929 46.0711 34.4965 46.2817C34.1177 46.387 33.8245 46.6445 33.6779 46.9839C33.6168 47.136 33.5679 47.3116 33.5679 47.4871C33.5679 47.6744 33.6168 47.8733 33.7023 48.0489C33.9956 48.6224 34.1422 49.1373 34.1422 49.6405C34.1422 49.8161 34.1299 49.9799 34.0933 50.1438C33.9345 50.8928 33.5435 51.6418 33.0304 52.1216C32.4928 52.6366 31.8697 52.9525 31.0267 53.1164C30.0859 53.1983 29.4017 53.0813 28.8153 52.777C28.4854 52.6014 28.1189 52.578 27.7768 52.6834C27.4347 52.7887 27.1415 53.0462 26.9949 53.3504C26.6161 54.1463 26.1274 54.7782 25.5776 55.1761C25.0278 55.5858 24.2948 55.7964 23.5251 55.7964C22.8775 55.7964 22.0956 55.5741 21.3748 55.1995C20.6295 54.6963 20.2874 53.9941 20.1163 53.4792C20.0064 53.1164 19.7376 52.8355 19.3833 52.6951C19.029 52.5546 18.638 52.5546 18.2715 52.7302C17.4773 53.1164 16.7565 53.2334 16.0723 53.1047C15.2904 52.9525 14.5084 52.578 14.0075 52.0865C13.4699 51.5716 13.1401 50.9747 12.969 50.1672C12.9568 49.9799 12.9568 49.8044 12.9568 49.6405C12.9568 48.9969 13.0668 48.4819 13.3356 48.0489C13.4455 47.8616 13.4944 47.6627 13.4944 47.4403C13.4944 47.2882 13.4577 47.1243 13.4089 46.9839C13.2623 46.6445 12.969 46.3753 12.6147 46.2466C11.9183 46.0242 11.2586 45.5795 10.8432 45.0646C10.4033 44.4209 10.1712 43.707 10.1712 42.9697C10.1712 42.1622 10.4033 41.46 10.8187 40.9099C11.2952 40.3131 11.8817 39.9152 12.5781 39.7045C12.9568 39.5992 13.25 39.3417 13.3966 39.0023C13.4577 38.8502 13.5066 38.6746 13.5066 38.4991C13.5066 38.3118 13.4577 38.1129 13.3722 37.9373C13.079 37.3639 12.9324 36.8489 12.9324 36.3457C12.9324 36.1701 12.9446 36.0063 12.9812 35.8425C13.1401 35.0934 13.531 34.3444 14.0442 33.8646C14.7284 33.2092 15.2659 32.9284 15.9623 32.8698C16.9398 32.7879 17.6606 32.8815 18.2348 33.1975C18.5769 33.3848 18.9801 33.3965 19.3466 33.2794C19.7009 33.139 19.9819 32.8581 20.1163 32.5187C20.3485 31.8517 20.8127 31.2314 21.3503 30.8218C22.0223 30.4005 22.7676 30.1781 23.5251 30.1781C24.3681 30.1781 25.1011 30.4005 25.6754 30.7984C26.2985 31.2548 26.7139 31.8165 26.9338 32.4836C27.0437 32.8464 27.3125 33.1273 27.6668 33.2677C28.0211 33.4082 28.4121 33.4082 28.7786 33.2326C29.5728 32.8464 30.2936 32.7294 30.9778 32.8581C31.7597 33.0103 32.5417 33.3848 33.0426 33.8763C33.5802 34.3913 33.91 34.9881 34.0811 35.7956C34.0933 35.9829 34.0933 36.1584 34.0933 36.3223L34.0933 36.3223C34.0933 36.966 33.9833 37.4809 33.7146 37.9139C33.6046 38.1012 33.5557 38.3001 33.5557 38.5225C33.5557 38.6746 33.5924 38.8385 33.6412 38.9789C33.7879 39.3183 34.0811 39.5875 34.4354 39.7162C35.1318 39.9386 35.7915 40.3833 36.2069 40.8982C36.6712 41.577 36.9034 42.3026 36.9034 43.0165Z"
      stroke="black" />
  </g>
  <defs>
    <linearGradient id="paint0_linear" x1="24" y1="10" x2="24" y2="92.5714" gradientUnits="userSpaceOnUse">
      <stop stop-color="#00A0DF" />
      <stop offset="1" stop-color="#007CBF" />
    </linearGradient>
    <linearGradient id="paint1_linear" x1="24" y1="10" x2="24" y2="92.5714" gradientUnits="userSpaceOnUse">
      <stop stop-color="#00A0DF" />
      <stop offset="1" stop-color="#007CBF" />
    </linearGradient>
  </defs>
</svg>