<svg class="icon" fill="none" viewBox="0 0 48 48" xmlns="http://www.w3.org/2000/svg">
    <rect x="4" y="4" width="40" height="40" rx="10" fill="url(#a)"/>
    <path d="m21.432 12.8c0.7942-0.5295 1.6727-0.8 2.5683-0.8 0.9702 0 1.862 0.2645 2.5901 0.8154 0.5696 0.4233 1.0337 0.9701 1.3349 1.6385 0.489-0.1893 0.9867-0.2957 1.4945-0.2957 0.2439 0 0.4879 0.0345 0.7037 0.0756l0.0065 0.0013c0.8749 0.1792 1.7695 0.6213 2.3917 1.2435 0.7215 0.7215 1.0761 1.5234 1.2446 2.3972l0.0047 0.0242 0.0021 0.0246c0.0666 0.758 0.0277 1.495-0.2398 2.1955 0.6129 0.3272 1.2192 0.7761 1.6537 1.3693 0.5454 0.7317 0.8133 1.6201 0.8133 2.5106 0 0.823-0.2825 1.6891-0.7015 2.4556l-0.0097 0.0178-0.0113 0.017c-0.4354 0.6576-1.0462 1.1368-1.7329 1.4381 0.2711 0.7135 0.3661 1.4452 0.2214 2.1957l-0.0011 0.0055c-0.1792 0.8749-0.6213 1.7695-1.2435 2.3917-0.7215 0.7215-1.5234 1.0761-2.3972 1.2446l-0.0214 0.0041-0.0217 0.0022c-0.2076 0.0207-0.4154 0.0311-0.6232 0.0311-0.5309 0-1.0519-0.0702-1.548-0.2559-0.2937 0.62-0.7424 1.2149-1.3245 1.6405l-0.0084 0.0062-0.0087 0.0058c-0.7942 0.5295-1.6727 0.8-2.5683 0.8-0.9667 0-1.8542-0.2772-2.5854-0.812l-0.0028-2e-3c-0.5704-0.4235-1.0353-0.9707-1.3368-1.6399-0.489 0.1893-0.9867 0.2957-1.4945 0.2957-0.2439 0-0.4879-0.0345-0.7037-0.0756l-0.0065-0.0013c-0.8749-0.1792-1.7695-0.6213-2.3917-1.2435-0.6913-0.6914-1.1615-1.4236-1.2514-2.446-0.0657-0.7467-0.0288-1.4731 0.2281-2.1642-0.621-0.2937-1.2171-0.7429-1.6433-1.3258l-0.0062-0.0084-0.0058-0.0087c-0.5295-0.7942-0.8-1.6727-0.8-2.5683 0-0.9667 0.2772-1.8542 0.812-2.5854l2e-3 -0.0028c0.424-0.5711 0.9721-1.0364 1.6423-1.3379-0.2718-0.7143-0.3671-1.4467-0.2223-2.1981l0.0011-0.0055c0.1792-0.8749 0.6213-1.7695 1.2435-2.3917 0.7215-0.7215 1.5234-1.0761 2.3972-1.2446l0.0214-0.0041 0.0217-0.0022c0.2076-0.0207 0.4154-0.0311 0.6232-0.0311 0.5309 0 1.0519 0.0702 1.548 0.2559 0.2937-0.62 0.7424-1.2149 1.3245-1.6405l0.0084-0.0062 0.0087-0.0058z" fill="#19194B"/>
    <path d="m24.024 13.632c0.6536 0 1.222 0.18 1.6672 0.5022 0.4831 0.3697 0.8052 0.8246 0.9757 1.3648 0.0853 0.2937 0.2937 0.5212 0.5684 0.6349 0.1231 0.0474 0.2652 0.0853 0.4073 0.0853 0.1516 0 0.3126-0.0379 0.4547-0.1042 0.4642-0.2275 0.881-0.3412 1.2883-0.3412 0.1421 0 0.2747 0.0095 0.4073 0.0379 0.6063 0.1232 1.2126 0.4265 1.6009 0.8245 0.4168 0.417 0.6726 0.9003 0.8052 1.5543 0.0663 0.7297-0.0284 1.2604-0.2747 1.7153-0.1421 0.2559-0.161 0.5402-0.0758 0.8056 0.0853 0.2653 0.2937 0.4928 0.54 0.6065 0.6441 0.2938 1.1557 0.6729 1.4777 1.0994 0.3316 0.4264 0.5021 0.9951 0.5021 1.5921 0 0.5023-0.18 1.1089-0.4831 1.668-0.4073 0.5781-0.9757 0.8435-1.3925 0.9762-0.2937 0.0853-0.521 0.2938-0.6347 0.5686s-0.1137 0.5781 0.0284 0.8624c0.3126 0.616 0.4074 1.1752 0.3032 1.7059-0.1232 0.6065-0.4263 1.2131-0.8242 1.6016-0.4168 0.417-0.8999 0.6729-1.5535 0.8056-0.1516 0.0095-0.2937 0.0095-0.4263 0.0095-0.521 0-0.9378-0.0853-1.2883-0.2938-0.1516-0.0853-0.3126-0.1232-0.4926-0.1232-0.1231 0-0.2558 0.0284-0.3694 0.0663-0.2747 0.1137-0.4926 0.3412-0.5968 0.616-0.18 0.5402-0.54 1.052-0.9568 1.3742-0.521 0.3412-1.0988 0.5213-1.6956 0.5213-0.6536 0-1.222-0.1801-1.6672-0.5023-0.4831-0.3696-0.8052-0.8245-0.9757-1.3647-0.0853-0.2938-0.2937-0.5213-0.5684-0.635-0.1231-0.0474-0.2652-0.0853-0.4073-0.0853-0.1516 0-0.3126 0.0379-0.4547 0.1042-0.4642 0.2275-0.881 0.3412-1.2883 0.3412-0.1421 0-0.2747-0.0095-0.4074-0.0379-0.6062-0.1232-1.2125-0.4265-1.6009-0.8245-0.5304-0.5307-0.7578-0.9477-0.8051-1.4879-0.0664-0.7582 0.0094-1.3173 0.2652-1.7628 0.1516-0.2653 0.161-0.5781 0.0663-0.8624-0.1137-0.2748-0.341-0.4928-0.6157-0.597-0.54-0.1801-1.042-0.5402-1.3736-0.9572-0.341-0.5213-0.521-1.0994-0.521-1.687 0-0.6539 0.18-1.2225 0.5021-1.6679 0.3694-0.4834 0.8241-0.8056 1.364-0.9762 0.2937-0.0853 0.5211-0.2938 0.6347-0.5686 0.1137-0.2749 0.1137-0.5781-0.0284-0.8624-0.3126-0.6161-0.4073-1.1752-0.3031-1.7059 0.1231-0.6066 0.4263-1.2131 0.8241-1.6017 0.4168-0.417 0.8999-0.6728 1.5536-0.8055 0.1515-0.0095 0.2936-0.0095 0.4262-0.0095 0.521 0 0.9378 0.0853 1.2883 0.2938 0.1516 0.0853 0.3126 0.1232 0.4926 0.1232 0.1232 0 0.2558-0.0284 0.3695-0.0663 0.2747-0.1138 0.4925-0.3412 0.5968-0.6161 0.1799-0.5402 0.5399-1.0519 0.9567-1.3741 0.5494-0.3602 1.1367-0.5402 1.7146-0.5402z" fill="#fff"/>
    <defs>
        <linearGradient id="a" x1="24" x2="24" y1="4" y2="101.14" gradientUnits="userSpaceOnUse">
            <stop stop-color="#00A0DF" offset="0"/>
            <stop stop-color="#007CBF" offset="1"/>
        </linearGradient>
    </defs>
</svg>
