<svg class="icon" id="Capa_1" data-name="Capa 1" xmlns="http://www.w3.org/2000/svg" xmlns:xlink="http://www.w3.org/1999/xlink" viewBox="0 0 40 40">
  <defs>
    <linearGradient id="Degradado_sin_nombre" data-name="Degradado sin nombre" x1="20" y1="33.89" x2="20" y2="-48.682" gradientTransform="matrix(1, 0, 0, -1, 0, 39.89)" gradientUnits="userSpaceOnUse">
      <stop offset="0" stop-color="#00a0df"/>
      <stop offset="1" stop-color="#007cbf"/>
    </linearGradient>
    <clipPath id="clip-path" transform="translate(0 0)">
      <path d="M7.877,10.735A5.668,5.668,0,0,1,13.467,6H26.533a5.668,5.668,0,0,1,5.59,4.735L35.9,33.4A5.666,5.666,0,0,1,30.311,40H9.689A5.666,5.666,0,0,1,4.1,33.4Z" fill="none"/>
    </clipPath>
  </defs>
  <rect width="40" height="12" rx="4" fill="#dfe1e6"/>
  <path d="M6,4H34a2,2,0,0,1,2,2h0a2,2,0,0,1-2,2H6A2,2,0,0,1,4,6H4A2,2,0,0,1,6,4Z" transform="translate(0 0)" fill="#7a869a" opacity="0.5" style="isolation: isolate"/>
  <path d="M7.877,10.735A5.668,5.668,0,0,1,13.467,6H26.533a5.668,5.668,0,0,1,5.59,4.735L35.9,33.4A5.666,5.666,0,0,1,30.311,40H9.689A5.666,5.666,0,0,1,4.1,33.4Z" transform="translate(0 0)" fill="url(#Degradado_sin_nombre)"/>
  <rect x="27.461" y="10.284" width="1.667" height="14.167" rx="0.833" transform="translate(-0.889 1.538) rotate(-3.066)" fill="#19194b"/>
  <rect x="23.597" y="10.271" width="1.667" height="5.833" rx="0.833" transform="translate(-0.332 0.635) rotate(-1.48)" fill="#19194b"/>
  <rect x="20.279" y="10.25" width="1.667" height="5.833" rx="0.833" fill="#19194b"/>
  <circle cx="12.673" cy="15.781" r="2.264" fill="#fac34b"/>
  <circle cx="12.93" cy="12.773" r="2.264" fill="#eb4b68"/>
  <g clip-path="url(#clip-path)">
    <g>
      <path d="M34.912,40a5.808,5.808,0,0,0,.095-1.013,5.518,5.518,0,0,0-1.031-3.173l-.008-.011-.007-.01a5.556,5.556,0,0,0-2.115-1.636,5.218,5.218,0,0,0,.329-1.913,7.354,7.354,0,0,0-.04-.77l0-.027-.006-.026a5.405,5.405,0,0,0-1.6-2.962,6.341,6.341,0,0,0-3.084-1.536h-.007A5.319,5.319,0,0,0,24.6,27.2a5.212,5.212,0,0,0-1.725-2.029l0,0a5.737,5.737,0,0,0-3.333-1,6.118,6.118,0,0,0-3.311.988l-.011.007-.011.008A5.418,5.418,0,0,0,14.5,27.2a6.576,6.576,0,0,0-2.79-.282,4.967,4.967,0,0,0-3.153,1.546,5.912,5.912,0,0,0-1.6,2.955l0,.008a4.523,4.523,0,0,0-.1.87,4.908,4.908,0,0,0,.382,1.846,5.335,5.335,0,0,0-2.114,1.651l0,0A5.216,5.216,0,0,0,4.178,40Z" transform="translate(0 0)" fill="#19194b"/>
      <path d="M32.768,40a3.7,3.7,0,0,0,.135-.984,3.75,3.75,0,0,0-.7-2.118,3.859,3.859,0,0,0-1.772-1.182,1.379,1.379,0,0,1-.794-.737,1.433,1.433,0,0,1-.085-.456,1.165,1.165,0,0,1,.159-.609,2.93,2.93,0,0,0,.378-1.592c0-.164,0-.339-.012-.526a3.526,3.526,0,0,0-1.038-1.92,4.2,4.2,0,0,0-2.065-1.018,3.462,3.462,0,0,0-2.2.375,1.371,1.371,0,0,1-1.112.035,1.226,1.226,0,0,1-.733-.784A3.362,3.362,0,0,0,21.675,26.8a3.737,3.737,0,0,0-2.15-.62,4.089,4.089,0,0,0-2.175.644,3.765,3.765,0,0,0-1.234,1.7,1.371,1.371,0,0,1-.769.76,1.416,1.416,0,0,1-1.112-.081,3.922,3.922,0,0,0-2.273-.328,2.979,2.979,0,0,0-1.918.995,3.9,3.9,0,0,0-1.063,1.977,2.317,2.317,0,0,0-.049.5,3.479,3.479,0,0,0,.44,1.591,1.308,1.308,0,0,1,.135.562,1.377,1.377,0,0,1-.11.5,1.239,1.239,0,0,1-.819.7A3.507,3.507,0,0,0,6.819,36.91a3.361,3.361,0,0,0-.648,2.06A3.5,3.5,0,0,0,6.33,40Z" transform="translate(0 0)" fill="#fff"/>
    </g>
  </g>
</svg>
