<svg class="icon" viewBox="0 0 32 32" fill="none" xmlns="http://www.w3.org/2000/svg">
<path d="M0 6.88C0 5.28942 1.28942 4 2.88 4H25.92C27.5106 4 28.8 5.28942 28.8 6.88V20.56C28.8 22.1506 27.5106 23.44 25.92 23.44H2.88C1.28942 23.44 0 22.1506 0 20.56V6.88Z" fill="#FAFBFC"/>
<path d="M2.88 23.44H25.92C27.5106 23.44 28.8 22.1505 28.8 20.56V6.87996C28.8 6.00069 28.406 5.21345 27.7849 4.68518L1.01514 22.7547C1.51761 23.1821 2.16869 23.44 2.88 23.44Z" fill="url(#lana-account-upgrade-paint0_linear_31629_2355)"/>
<path fill-rule="evenodd" clip-rule="evenodd" d="M6.57685 7.59998C6.98732 7.59998 7.32007 7.93273 7.32007 8.3432V9.27219H8.80649C9.21696 9.27219 9.54971 9.60494 9.54971 10.0154C9.54971 10.4259 9.21696 10.7586 8.80649 10.7586H6.58461L6.57685 10.7587L6.56909 10.7586H5.67677C5.65703 10.7586 5.6373 10.7579 5.61762 10.7563C5.54663 10.7506 5.47526 10.7604 5.40843 10.785C5.3416 10.8096 5.28091 10.8485 5.23055 10.8988C5.1802 10.9492 5.14137 11.0099 5.11676 11.0767C5.09215 11.1435 5.08234 11.2149 5.08801 11.2859C5.08958 11.3056 5.09037 11.3253 5.09037 11.345C5.09037 11.3439 5.09045 11.3442 5.09096 11.346C5.09582 11.3627 5.1388 11.5107 5.50633 11.8027C5.87216 12.0935 6.37614 12.3862 6.94818 12.7161L6.97821 12.7335L6.97823 12.7335C7.51343 13.0421 8.11049 13.3865 8.57213 13.7534C9.00067 14.094 9.54614 14.6307 9.54969 15.3676C9.55386 15.6408 9.50334 15.9121 9.40108 16.1655C9.29802 16.4209 9.14453 16.653 8.94977 16.8477C8.75502 17.0425 8.52299 17.196 8.26757 17.299C8.0145 17.4011 7.7436 17.4517 7.47078 17.4477H7.32007V18.3767C7.32007 18.7872 6.98732 19.1199 6.57685 19.1199C6.16638 19.1199 5.83362 18.7872 5.83362 18.3767V17.4477H4.34714C3.93667 17.4477 3.60392 17.1149 3.60392 16.7044C3.60392 16.294 3.93667 15.9612 4.34714 15.9612H7.47686L7.49052 15.9613C7.56613 15.9627 7.64125 15.9489 7.71138 15.9206C7.78151 15.8923 7.84522 15.8501 7.89869 15.7966C7.95217 15.7432 7.99432 15.6795 8.02261 15.6093C8.05091 15.5392 8.06478 15.4641 8.06339 15.3885L8.06326 15.3748C8.06326 15.3759 8.06317 15.3756 8.06266 15.3739C8.05781 15.3572 8.01483 15.2092 7.6473 14.9171C7.28147 14.6264 6.77748 14.3337 6.20545 14.0037L6.17542 13.9864L6.17541 13.9864L6.17539 13.9864C5.6402 13.6777 5.04313 13.3333 4.5815 12.9665C4.15761 12.6296 3.61933 12.1008 3.60424 11.3762C3.58612 11.1 3.62616 10.823 3.7219 10.563C3.82086 10.2943 3.97699 10.0502 4.17948 9.84775C4.38197 9.64526 4.62601 9.48914 4.89473 9.39017C5.1531 9.29502 5.42837 9.25488 5.70291 9.27219H5.83362V8.3432C5.83362 7.93273 6.16638 7.59998 6.57685 7.59998Z" fill="#19194B"/>
<path d="M12.24 13.36C12.24 12.9624 12.5624 12.64 12.96 12.64H19.44C19.8376 12.64 20.16 12.9624 20.16 13.36C20.16 13.7577 19.8376 14.08 19.44 14.08H12.96C12.5624 14.08 12.24 13.7577 12.24 13.36Z" fill="#19194B"/>
<path d="M20.88 13.36C20.88 12.9624 21.2024 12.64 21.6 12.64H25.2C25.5976 12.64 25.92 12.9624 25.92 13.36C25.92 13.7577 25.5976 14.08 25.2 14.08H21.6C21.2024 14.08 20.88 13.7577 20.88 13.36Z" fill="#19194B"/>
<path d="M12.24 10.48C12.24 10.0824 12.5624 9.76001 12.96 9.76001H18C18.3976 9.76001 18.72 10.0824 18.72 10.48C18.72 10.8777 18.3976 11.2 18 11.2H12.96C12.5624 11.2 12.24 10.8777 12.24 10.48Z" fill="#19194B"/>
<path d="M12.24 16.24C12.24 15.8424 12.5624 15.52 12.96 15.52H14.4C14.7976 15.52 15.12 15.8424 15.12 16.24C15.12 16.6377 14.7976 16.96 14.4 16.96H12.96C12.5624 16.96 12.24 16.6377 12.24 16.24Z" fill="#7A869A"/>
<path d="M15.84 16.24C15.84 15.8424 16.1624 15.52 16.56 15.52H18C18.3976 15.52 18.72 15.8424 18.72 16.24C18.72 16.6377 18.3976 16.96 18 16.96H16.56C16.1624 16.96 15.84 16.6377 15.84 16.24Z" fill="#7A869A"/>
<g clip-path="url(#lana-account-upgrade-clip0_31629_2355)">
<path d="M25.6 28.8C26.8658 28.8 28.1032 28.4247 29.1556 27.7215C30.2081 27.0182 31.0284 26.0187 31.5128 24.8492C31.9972 23.6798 32.124 22.393 31.877 21.1515C31.6301 19.91 31.0205 18.7696 30.1255 17.8746C29.2304 16.9795 28.09 16.37 26.8486 16.123C25.6071 15.8761 24.3203 16.0028 23.1508 16.4872C21.9814 16.9716 20.9818 17.7919 20.2786 18.8444C19.5753 19.8969 19.2 21.1342 19.2 22.4001C19.2018 24.0969 19.8767 25.7237 21.0765 26.9235C22.2764 28.1233 23.9032 28.7982 25.6 28.8ZM22.8229 21.4902C22.8229 21.4898 22.8231 21.4895 22.8233 21.4893L25.2229 19.0897C25.3229 18.9897 25.4586 18.9335 25.6 18.9335C25.7414 18.9335 25.877 18.9897 25.9771 19.0897L28.3771 21.4897C28.4742 21.5902 28.528 21.725 28.5268 21.8648C28.5255 22.0046 28.4694 22.1384 28.3706 22.2373C28.2717 22.3362 28.1379 22.3923 27.9981 22.3935C27.8582 22.3947 27.7235 22.3409 27.6229 22.2438L26.3611 20.9819C26.3423 20.9632 26.3185 20.9504 26.2925 20.9453C26.2665 20.9401 26.2395 20.9429 26.2151 20.9531C26.1907 20.9634 26.1698 20.9806 26.1553 21.0028C26.1407 21.0249 26.1331 21.0509 26.1333 21.0774L26.1333 25.6C26.1333 25.7415 26.0771 25.8772 25.9771 25.9772C25.8771 26.0772 25.7414 26.1334 25.6 26.1334C25.4585 26.1334 25.3229 26.0772 25.2229 25.9772C25.1229 25.8772 25.0667 25.7415 25.0667 25.6L25.0667 21.0774C25.0667 21.051 25.0589 21.0252 25.0443 21.0032C25.0296 20.9812 25.0088 20.9641 24.9844 20.954C24.96 20.9439 24.9331 20.9412 24.9072 20.9464C24.8814 20.9516 24.8576 20.9643 24.8389 20.983L23.5771 22.2449C23.4765 22.342 23.3418 22.3958 23.2019 22.3945C23.0621 22.3933 22.9283 22.3372 22.8294 22.2384C22.7305 22.1395 22.6744 22.0057 22.6732 21.8659C22.672 21.7262 22.7256 21.5916 22.8226 21.4911C22.8228 21.4909 22.8229 21.4905 22.8229 21.4902Z" fill="url(#lana-account-upgrade-paint1_linear_31629_2355)"/>
</g>
<defs>
<linearGradient id="lana-account-upgrade-paint0_linear_31629_2355" x1="16.2" y1="3.27998" x2="11.52" y2="24.16" gradientUnits="userSpaceOnUse">
<stop stop-color="#EBECF0"/>
<stop offset="1" stop-color="#EBECF0" stop-opacity="0"/>
</linearGradient>
<linearGradient id="lana-account-upgrade-paint1_linear_31629_2355" x1="25.6" y1="28.8" x2="25.6" y2="11.6001" gradientUnits="userSpaceOnUse">
<stop stop-color="#00A0DF"/>
<stop offset="1" stop-color="#66C6EC"/>
</linearGradient>
<clipPath id="lana-account-upgrade-clip0_31629_2355">
<rect width="12.8" height="12.8" fill="white" transform="translate(19.2 16)"/>
</clipPath>
</defs>
</svg>
