<svg class="icon"
     viewBox="4 10 40 28"
     fill="none"
     xmlns="http://www.w3.org/2000/svg"
>
  <rect x="4"
        y="10"
        width="40"
        height="28"
        rx="4"
        fill="url(#lana-card-small-paint0_linear)"
  />
  <circle cx="37" cy="30" r="3" fill="#FAC34B"/>
  <circle cx="33" cy="30" r="3" fill="#EB4B68"/>
  <mask id="lana-card-small-mask0"
        mask-type="alpha"
        maskUnits="userSpaceOnUse"
        x="4"
        y="10"
        width="14"
        height="28"
  >
    <rect x="18"
          y="38"
          width="14"
          height="28"
          rx="4"
          transform="rotate(-180 18 38)"
          fill="#C4C4C4"
    />
  </mask>
  <g mask="url(#lana-card-small-mask0)">
    <path d="M6.96133 35.2C6.20018 35.7295 5.35829 36 4.50001 36C3.57022 36 2.71562 35.7355 2.01782 35.1846C1.472 34.7613 1.02719 34.2145 0.738537 33.5461C0.269884 33.7354 -0.207043 33.8418 -0.693666 33.8418C-0.927395 33.8418 -1.16124 33.8073 -1.36805 33.7662L-1.37429 33.7649C-2.21273 33.5857 -3.07002 33.1436 -3.66633 32.5214C-4.35778 31.7999 -4.69765 30.998 -4.85906 30.1242L-4.86353 30.1L-4.8656 30.0754C-4.92946 29.3174 -4.89213 28.5804 -4.63574 27.8799C-5.22319 27.5527 -5.80422 27.1038 -6.22054 26.5106C-6.74322 25.7789 -6.99999 24.8905 -6.99999 24C-6.99999 23.177 -6.72928 22.3109 -6.32773 21.5444L-6.31839 21.5266L-6.30764 21.5096C-5.89033 20.852 -5.305 20.3728 -4.64685 20.0715C-4.90673 19.358 -4.99772 18.6263 -4.85906 17.8758L-4.85805 17.8703C-4.68632 16.9954 -4.26263 16.1008 -3.66633 15.4786C-2.97488 14.7571 -2.20637 14.4024 -1.36905 14.234L-1.34854 14.2299L-1.32775 14.2277C-1.12876 14.207 -0.92964 14.1966 -0.730433 14.1966C-0.221722 14.1966 0.277581 14.2668 0.753025 14.4525C1.03449 13.8325 1.46452 13.2376 2.0223 12.812L2.03037 12.8058L2.03868 12.8C2.79983 12.2705 3.64172 12 4.50001 12C5.42641 12 6.277 12.2772 6.97772 12.812L6.98038 12.814C7.52703 13.2375 7.9725 13.7847 8.26147 14.4539C8.73013 14.2646 9.20705 14.1582 9.69368 14.1582C9.92741 14.1582 10.1613 14.1927 10.3681 14.2338L10.3743 14.2351C11.2127 14.4143 12.07 14.8564 12.6663 15.4786C13.3289 16.17 13.7795 16.9022 13.8656 17.9246C13.9285 18.6713 13.8932 19.3977 13.647 20.0888C14.2421 20.3825 14.8134 20.8317 15.2219 21.4146L15.2278 21.423L15.2333 21.4317C15.7408 22.2259 16 23.1044 16 24C16 24.9667 15.7343 25.8542 15.2219 26.5854L15.2199 26.5882C14.8136 27.1593 14.2883 27.6246 13.646 27.9261C13.9065 28.6404 13.9979 29.3728 13.8591 30.1242L13.8581 30.1297C13.6863 31.0046 13.2626 31.8992 12.6663 32.5214C11.9749 33.2429 11.2064 33.5975 10.3691 33.766L10.3485 33.7701L10.3278 33.7723C10.1288 33.793 9.92966 33.8034 9.73045 33.8034C9.22174 33.8034 8.72244 33.7332 8.24699 33.5475C7.96552 34.1675 7.53549 34.7624 6.97772 35.188L6.96965 35.1942L6.96133 35.2Z" fill="#19194B"/>
    <path d="M4.47713 34.368C3.85074 34.368 3.30606 34.188 2.87939 33.8658C2.4164 33.4961 2.10774 33.0412 1.94434 32.501C1.86264 32.2073 1.66292 31.9798 1.39965 31.8661C1.28164 31.8187 1.14546 31.7808 1.00929 31.7808C0.864043 31.7808 0.709714 31.8187 0.573543 31.885C0.128715 32.1125 -0.270721 32.2262 -0.661081 32.2262C-0.797252 32.2262 -0.924347 32.2167 -1.05144 32.1883C-1.63244 32.0651 -2.21344 31.7618 -2.58564 31.3638C-2.98508 30.9468 -3.23019 30.4635 -3.35728 29.8095C-3.42083 29.0798 -3.33005 28.5491 -3.09402 28.0942C-2.95784 27.8383 -2.93969 27.554 -3.02139 27.2886C-3.10309 27.0233 -3.30281 26.7958 -3.53884 26.6821C-4.15616 26.3883 -4.64637 26.0092 -4.95503 25.5827C-5.27277 25.1563 -5.43617 24.5876 -5.43617 23.9906C-5.43617 23.4883 -5.26368 22.8817 -4.97318 22.3226C-4.58282 21.7445 -4.03814 21.4791 -3.6387 21.3464C-3.35728 21.2611 -3.13941 21.0526 -3.03047 20.7778C-2.92153 20.503 -2.92153 20.1997 -3.0577 19.9154C-3.35728 19.2994 -3.44806 18.7402 -3.3482 18.2095C-3.23019 17.603 -2.93969 16.9964 -2.55841 16.6079C-2.15897 16.1909 -1.69598 15.935 -1.06959 15.8023C-0.924345 15.7928 -0.788173 15.7928 -0.66108 15.7928C-0.161783 15.7928 0.237653 15.8781 0.573544 16.0866C0.718794 16.1719 0.873123 16.2098 1.04561 16.2098C1.16362 16.2098 1.29072 16.1814 1.39965 16.1435C1.66292 16.0298 1.87172 15.8023 1.97157 15.5275C2.14406 14.9873 2.48903 14.4755 2.88846 14.1533C3.38776 13.8121 3.94153 13.632 4.51345 13.632C5.13984 13.632 5.68452 13.8121 6.1112 14.1343C6.57418 14.5039 6.88284 14.9588 7.04624 15.499C7.12795 15.7928 7.32766 16.0203 7.59093 16.134C7.70894 16.1814 7.84512 16.2193 7.98129 16.2193C8.12654 16.2193 8.28087 16.1814 8.41704 16.1151C8.86187 15.8876 9.2613 15.7739 9.65166 15.7739C9.78783 15.7739 9.91493 15.7834 10.042 15.8118C10.623 15.935 11.204 16.2383 11.5762 16.6363C12.0846 17.167 12.3025 17.584 12.3479 18.1242C12.4114 18.8824 12.3388 19.4415 12.0937 19.887C11.9484 20.1523 11.9393 20.4651 12.0301 20.7494C12.1391 21.0242 12.3569 21.2422 12.6202 21.3464C13.1377 21.5265 13.6188 21.8866 13.9365 22.3036C14.2633 22.8249 14.4358 23.403 14.4358 23.9906C14.4358 24.6445 14.2633 25.2131 13.9547 25.6585C13.6006 26.1419 13.1649 26.4641 12.6474 26.6347C12.366 26.72 12.1481 26.9285 12.0392 27.2033C11.9303 27.4782 11.9303 27.7814 12.0664 28.0657C12.366 28.6818 12.4568 29.2409 12.3569 29.7716C12.2389 30.3782 11.9484 30.9847 11.5671 31.3733C11.1677 31.7903 10.7047 32.0461 10.0783 32.1788C9.93308 32.1883 9.79691 32.1883 9.66982 32.1883C9.17052 32.1883 8.77108 32.103 8.43519 31.8945C8.28994 31.8092 8.13562 31.7713 7.96313 31.7713C7.84512 31.7713 7.71802 31.7997 7.60908 31.8376C7.34582 31.9514 7.13702 32.1788 7.03716 32.4537C6.86468 32.9939 6.51971 33.5056 6.12027 33.8278C5.59374 34.188 5.0309 34.368 4.47713 34.368Z" fill="white"/>
  </g>
  <rect x="21"
        y="16"
        width="17"
        height="2"
        rx="1"
        fill="#19194B"
  />
  <rect x="21"
        y="20"
        width="7"
        height="2"
        rx="1"
        fill="#19194B"
  />
  <rect x="21"
        y="24"
        width="7"
        height="2"
        rx="1"
        fill="#19194B"
  />
  <rect x="29"
        y="20"
        width="7"
        height="2"
        rx="1"
        fill="#19194B"
  />
  <defs>
    <linearGradient id="lana-card-small-paint0_linear"
                    x1="24"
                    y1="10"
                    x2="24"
                    y2="78"
                    gradientUnits="userSpaceOnUse"
    >
      <stop stop-color="#00A0DF"/>
      <stop offset="1" stop-color="#007CBF"/>
    </linearGradient>
  </defs>
</svg>
