<svg class="icon" fill="none" viewBox="0 0 40 28" xmlns="http://www.w3.org/2000/svg">
  <rect x="1" y="1" width="38" height="26" rx="3" fill="#00A0DF" stroke="#19194B" stroke-width="2"/>
  <circle cx="33" cy="20" r="3" fill="#FAC34B"/>
  <circle cx="29" cy="20" r="3" fill="#EB4B68"/>
  <mask id="a" x="2" y="2" width="15" height="24" mask-type="alpha" maskUnits="userSpaceOnUse">
    <rect transform="rotate(180 17 26)" x="17" y="26" width="15" height="24" fill="#C4C4C4"/>
  </mask>
  <g mask="url(#a)">
    <path d="m-4.8531 17.178c-1.293-0.4271-2.2303-1.6878-2.2303-3.178s0.93729-2.7516 2.2303-3.178c-0.62463-1.2559-0.4332-2.8394 0.57693-3.8935 1.0095-1.054 2.527-1.2538 3.7305-0.60132 0.40869-1.3492 1.6175-2.3272 3.0456-2.3272 1.4281 0 2.6363 0.97802 3.0456 2.3272 1.2036-0.65248 2.7211-0.45273 3.7305 0.60132 1.0102 1.054 1.2016 2.6376 0.57694 3.8935 1.2923 0.4264 2.2302 1.6878 2.2302 3.178s-0.9379 2.7509-2.2302 3.178c0.62462 1.2552 0.43322 2.8387-0.57694 3.8928-1.0095 1.054-2.527 1.2538-3.7305 0.6013-0.40935 1.3499-1.6175 2.3279-3.0456 2.3279s-2.6369-0.978-3.0456-2.3279c-1.2035 0.6525-2.7211 0.4527-3.7305-0.6013-1.0101-1.0541-1.2016-2.6376-0.57693-3.8928z" fill="#19194B"/>
    <path d="m5.1569 8.4466c-0.14264 0-0.28639-0.02887-0.42277-0.08777-0.36968-0.16014-0.62769-0.51584-0.67487-0.93082-0.09362-0.8238-0.76407-1.4447-1.5591-1.4447-0.7954 0-1.4655 0.62093-1.5591 1.4444-0.047178 0.41498-0.30518 0.77106-0.67487 0.9312-0.37006 0.15976-0.79319 0.09855-1.1076-0.16052-0.62327-0.51315-1.5175-0.45695-2.0799 0.13011-0.56209 0.58744-0.61553 1.5217-0.12421 2.1727 0.24768 0.3284 0.30629 0.7707 0.15296 1.1568-0.15296 0.3861-0.4939 0.6556-0.89123 0.7049-0.78839 0.0973-1.3829 0.7972-1.3829 1.6279 0 0.8308 0.59452 1.5306 1.3826 1.628 0.3977 0.0493 0.73864 0.3187 0.8916 0.7049 0.15333 0.3861 0.09472 0.8284-0.15296 1.1567-0.49132 0.651-0.43788 1.5853 0.12421 2.1723 0.56208 0.5875 1.4563 0.6433 2.0799 0.1302 0.3144-0.2587 0.73753-0.3199 1.1076-0.1602 0.36969 0.1602 0.62769 0.5162 0.67487 0.9312 0.093622 0.8234 0.7637 1.4444 1.5591 1.4444 0.79503 0 1.4655-0.6213 1.5591-1.4448 0.04718-0.4149 0.30519-0.7706 0.67487-0.9308 0.37006-0.1597 0.79356-0.0981 1.1076 0.1602 0.62327 0.5135 1.5174 0.4573 2.0795-0.1302 0.56246-0.587 0.6159-1.5213 0.12421-2.1723-0.24768-0.3283-0.30592-0.7706-0.15296-1.1567 0.15333-0.3862 0.49427-0.6556 0.8916-0.7049 0.78803-0.0974 1.3826-0.7972 1.3826-1.628 0-0.8307-0.59453-1.5306-1.3826-1.6279-0.3977-0.0493-0.73864-0.3188-0.8916-0.7049s-0.09472-0.8284 0.15297-1.1568c0.49168-0.65133 0.43824-1.5852-0.12422-2.1727-0.56245-0.58705-1.4563-0.64326-2.0795-0.13011-0.1983 0.1636-0.44045 0.24829-0.68482 0.24829z" clip-rule="evenodd" fill="#fff" fill-rule="evenodd"/>
  </g>
  <rect x="17" y="6" width="17" height="2" rx="1" fill="#19194B"/>
  <rect x="17" y="10" width="7" height="2" rx="1" fill="#19194B"/>
  <rect x="17" y="14" width="7" height="2" rx="1" fill="#19194B"/>
  <rect x="25" y="10" width="7" height="2" rx="1" fill="#19194B"/>
</svg>
