<svg id="light-icon"
     class="icon"
     xmlns="http://www.w3.org/2000/svg"
     xmlns:xlink="http://www.w3.org/1999/xlink"
     viewBox="0 0 36 39.333"
>
  <defs>
    <linearGradient id="light-icon-gradient-1"
                    x1="20"
                    y1="19.89"
                    x2="20"
                    y2="9.89"
                    gradientTransform="matrix(1, 0, 0, -1, 0, 39.89)"
                    gradientUnits="userSpaceOnUse"
    >
      <stop offset="0" stop-color="#e99b26"/>
      <stop offset="1" stop-color="#fac34b"/>
    </linearGradient>
    <linearGradient id="light-icon-gradient-2"
                    x1="20"
                    y1="29.89"
                    x2="20"
                    y2="8.39"
                    gradientTransform="matrix(1, 0, 0, -1, 0, 39.89)"
                    gradientUnits="userSpaceOnUse"
    >
      <stop offset="0" stop-color="#00a0df"/>
      <stop offset="1" stop-color="#66c6ec"/>
    </linearGradient>
  </defs>
  <path d="M29,25c0,2.761-4.029,5-9,5s-9-2.239-9-5,4.029-5,9-5S29,22.239,29,25Z" transform="translate(-2 0)" fill="url(#light-icon-gradient-1)"/>
  <path d="M20.03,32A1.667,1.667,0,0,1,21.7,33.667v4a1.667,1.667,0,0,1-3.334,0v-4A1.667,1.667,0,0,1,20.03,32Z" transform="translate(-2 0)" fill="#fac34b" fill-rule="evenodd"/>
  <path d="M11.775,30.176a1.668,1.668,0,0,1,.746,2.236l-2,4a1.667,1.667,0,0,1-2.982-1.491l2-4A1.667,1.667,0,0,1,11.775,30.176Z" transform="translate(-2 0)" fill="#fac34b" fill-rule="evenodd"/>
  <path d="M28.284,30.176a1.667,1.667,0,0,1,2.237.745l2,4a1.667,1.667,0,0,1-2.982,1.491l-2-4A1.667,1.667,0,0,1,28.284,30.176Z" transform="translate(-2 0)" fill="#fac34b" fill-rule="evenodd"/>
  <rect x="17" width="2" height="7" fill="#19194b"/>
  <path d="M14,8a2,2,0,0,1,2-2h8a2,2,0,0,1,2,2v4H14Z" transform="translate(-2 0)" fill="#007cbf"/>
  <path d="M3,0H37a1,1,0,0,1,1,1h0a1,1,0,0,1-1,1H3A1,1,0,0,1,2,1H2A1,1,0,0,1,3,0Z" transform="translate(-2 0)" fill="#ebecf0"/>
  <path d="M4,24.414A14.415,14.415,0,0,1,18.414,10h3.172A14.415,14.415,0,0,1,36,24.414,1.586,1.586,0,0,1,34.414,26H5.586A1.586,1.586,0,0,1,4,24.414Z" transform="translate(-2 0)" fill="url(#light-icon-gradient-2)"/>
</svg>
