<svg class="icon"
     viewBox="0 0 32 32" 
     fill="none" 
     xmlns="http://www.w3.org/2000/svg"
>
<path fill-rule="evenodd" clip-rule="evenodd" d="M24.0003 23.9851H20.6853V18.7971C20.6853 17.5601 20.6633 15.9691 18.9623 15.9691C17.2373 15.9691 16.9743 17.3171 16.9743 18.7091V23.9851H13.6623V13.3171H16.8403V14.7761H16.8863C17.3283 13.9371 18.4103 13.0521 20.0233 13.0521C23.3803 13.0521 24.0003 15.2611 24.0003 18.1341V23.9851ZM9.924 11.8601C8.859 11.8601 8 10.9981 8 9.93711C8 8.87611 8.859 8.01411 9.924 8.01411C10.984 8.01411 11.845 8.87611 11.845 9.93711C11.845 10.9981 10.984 11.8601 9.924 11.8601ZM11.582 23.9851H8.26302V13.3171H11.582V23.9851ZM16 0C7.163 0 0 7.163 0 16C0 24.836 7.163 32 16 32C24.837 32 32 24.836 32 16C32 7.163 24.837 0 16 0Z" fill="#19194B"/>
</svg>
