<svg class="icon"
     width="24"
     height="24"
     viewBox="0 0 24 24"
     fill="none"
     xmlns="http://www.w3.org/2000/svg"
>
  <path fill-rule="evenodd"
        clip-rule="evenodd"
        d="M9.12208 19.4475C9.39363 19.7063 9.73251 19.8836 10.1 19.959C10.2122 19.9826 10.3129 20.0441 10.3852 20.1331C10.4575 20.2222 10.4969 20.3333 10.497 20.448V20.458C9.49358 22.1234 8.68756 23.3598 8.4672 23.6978C8.44357 23.7341 8.42668 23.76 8.417 23.775C8.37142 23.8439 8.30947 23.9004 8.23671 23.9395C8.16394 23.9786 8.08261 23.9991 8 23.9991C7.91739 23.9991 7.83606 23.9786 7.76329 23.9395C7.69053 23.9004 7.62858 23.8439 7.583 23.775C7.273 23.307 0 12.243 0 8C0 5.87827 0.842855 3.84344 2.34315 2.34315C3.84344 0.842855 5.87827 0 8 0C10.1217 0 12.1566 0.842855 13.6569 2.34315C15.1571 3.84344 16 5.87827 16 8C15.9222 9.14372 15.6532 10.2663 15.204 11.321C15.1734 11.3986 15.1239 11.4674 15.06 11.521L9.209 16.474C8.9228 16.7165 8.71058 17.0347 8.59658 17.3921C8.48259 17.7495 8.47141 18.1318 8.56434 18.4952C8.65726 18.8587 8.85054 19.1887 9.12208 19.4475ZM6.61107 10.0787C7.0222 10.3534 7.50555 10.5 8 10.5C8.66304 10.5 9.29893 10.2366 9.76777 9.76777C10.2366 9.29893 10.5 8.66304 10.5 8C10.5 7.50555 10.3534 7.0222 10.0787 6.61107C9.80397 6.19995 9.41352 5.87952 8.95671 5.6903C8.49989 5.50108 7.99723 5.45157 7.51227 5.54804C7.02732 5.6445 6.58186 5.8826 6.23223 6.23223C5.8826 6.58186 5.6445 7.02732 5.54804 7.51227C5.45157 7.99723 5.50108 8.49989 5.6903 8.95671C5.87952 9.41352 6.19995 9.80397 6.61107 10.0787ZM17.3224 12.118L23.8224 17.618C23.9007 17.6841 23.9568 17.7726 23.9831 17.8716C24.0094 17.9706 24.0046 18.0753 23.9695 18.1715C23.9344 18.2677 23.8706 18.3508 23.7867 18.4096C23.7028 18.4683 23.6029 18.4999 23.5004 18.5H22.5004C22.3678 18.5 22.2407 18.5527 22.1469 18.6465C22.0531 18.7402 22.0004 18.8674 22.0004 19V23.5C22.0004 23.6326 21.9478 23.7598 21.854 23.8536C21.7602 23.9473 21.633 24 21.5004 24H19.0004C18.8678 24 18.7407 23.9473 18.6469 23.8536C18.5531 23.7598 18.5004 23.6326 18.5004 23.5V21.25C18.5004 20.8522 18.3424 20.4707 18.0611 20.1894C17.7798 19.9081 17.3983 19.75 17.0004 19.75C16.6026 19.75 16.2211 19.9081 15.9398 20.1894C15.6585 20.4707 15.5004 20.8522 15.5004 21.25V23.5C15.5004 23.6326 15.4478 23.7598 15.354 23.8536C15.2602 23.9473 15.133 24 15.0004 24H12.4984C12.3658 24 12.2387 23.9473 12.1449 23.8536C12.0511 23.7598 11.9984 23.6326 11.9984 23.5V19C11.9984 18.8674 11.9458 18.7402 11.852 18.6465C11.7582 18.5527 11.631 18.5 11.4984 18.5H10.4984C10.3959 18.5001 10.2959 18.4687 10.2118 18.41C10.1278 18.3513 10.0638 18.2682 10.0285 18.172C9.99329 18.0757 9.98848 17.9709 10.0148 17.8719C10.041 17.7728 10.0971 17.6842 10.1754 17.618L16.6754 12.118C16.7658 12.0414 16.8804 11.9993 16.9989 11.9993C17.1174 11.9993 17.2321 12.0414 17.3224 12.118Z"
        fill="#00A0DF"
  />
</svg>
