<svg class="icon" viewBox="0 0 40 40" fill="none" xmlns="http://www.w3.org/2000/svg">
<path d="M20 0C16.0444 0 12.1776 1.17298 8.8886 3.37061C5.59962 5.56823 3.03617 8.69181 1.52242 12.3463C0.00866572 16.0008 -0.387401 20.0222 0.384303 23.9018C1.15601 27.7814 3.06082 31.3451 5.85787 34.1421C8.65492 36.9392 12.2186 38.844 16.0982 39.6157C19.9778 40.3874 23.9991 39.9913 27.6537 38.4776C31.3082 36.9638 34.4318 34.4004 36.6294 31.1114C38.827 27.8224 40 23.9556 40 20C39.9938 14.6976 37.8847 9.61407 34.1353 5.86468C30.3859 2.11529 25.3024 0.00617537 20 0Z" fill="url(#lock-circle-paint0_linear)"/>
<path d="M26.2497 17.9167H25.6247V15.625C25.6247 14.1332 25.032 12.7024 23.9771 11.6475C22.9223 10.5926 21.4915 10 19.9997 10C18.5078 10 17.0771 10.5926 16.0222 11.6475C14.9673 12.7024 14.3747 14.1332 14.3747 15.625V17.9167H13.7497C13.3076 17.9167 12.8837 18.0923 12.5712 18.4048C12.2586 18.7174 12.083 19.1413 12.083 19.5833V28.3333C12.083 28.7754 12.2586 29.1993 12.5712 29.5118C12.8837 29.8244 13.3076 30 13.7497 30H26.2497C26.6917 30 27.1156 29.8244 27.4282 29.5118C27.7407 29.1993 27.9163 28.7754 27.9163 28.3333V19.5833C27.9163 19.1413 27.7407 18.7174 27.4282 18.4048C27.1156 18.0923 26.6917 17.9167 26.2497 17.9167ZM19.9997 25.4167C19.67 25.4167 19.3478 25.3189 19.0737 25.1358C18.7996 24.9526 18.586 24.6923 18.4599 24.3878C18.3337 24.0833 18.3007 23.7482 18.365 23.4248C18.4293 23.1015 18.5881 22.8046 18.8212 22.5715C19.0543 22.3384 19.3512 22.1797 19.6745 22.1154C19.9978 22.051 20.3329 22.0841 20.6375 22.2102C20.942 22.3363 21.2023 22.55 21.3855 22.824C21.5686 23.0981 21.6663 23.4204 21.6663 23.75C21.6663 24.192 21.4907 24.6159 21.1782 24.9285C20.8656 25.2411 20.4417 25.4167 19.9997 25.4167ZM23.5413 17.5C23.5413 17.6105 23.4974 17.7165 23.4193 17.7946C23.3412 17.8728 23.2352 17.9167 23.1247 17.9167H16.8747C16.7642 17.9167 16.6582 17.8728 16.58 17.7946C16.5019 17.7165 16.458 17.6105 16.458 17.5V15.625C16.458 14.6857 16.8311 13.7849 17.4953 13.1207C18.1595 12.4565 19.0604 12.0833 19.9997 12.0833C20.939 12.0833 21.8398 12.4565 22.504 13.1207C23.1682 13.7849 23.5413 14.6857 23.5413 15.625V17.5Z" fill="url(#lock-circle-paint1_linear)"/>
<defs>
<linearGradient id="lock-circle-paint0_linear" x1="20" y1="0" x2="20" y2="48" gradientUnits="userSpaceOnUse">
<stop stop-color="#F4F5F7"/>
<stop offset="1" stop-color="#DFE1E6"/>
</linearGradient>
<linearGradient id="lock-circle-paint1_linear" x1="32.4025" y1="-9" x2="9.30029" y2="33.37" gradientUnits="userSpaceOnUse">
<stop stop-color="#42526E"/>
<stop offset="1" stop-color="#AAB5C7"/>
</linearGradient>
</defs>
</svg>
