<svg class="icon"
     viewBox="0 0 360 264"
     fill="none"
     xmlns="http://www.w3.org/2000/svg"
>
  <style>
    @keyframes a0_t { 0% { transform: translate(180px,145.617px) rotate(0deg) translate(-59.9998px,-42.6812px); animation-timing-function: cubic-bezier(0,0,0.58,1); } 10% { transform: translate(180px,145.617px) rotate(5deg) translate(-59.9998px,-42.6812px); animation-timing-function: cubic-bezier(0,0,0.58,1); } 20% { transform: translate(180px,145.617px) rotate(-5deg) translate(-59.9998px,-42.6812px); animation-timing-function: cubic-bezier(0,0,0.58,1); } 30% { transform: translate(180px,145.617px) rotate(5deg) translate(-59.9998px,-42.6812px); animation-timing-function: cubic-bezier(0,0,0.58,1); } 40% { transform: translate(180px,145.617px) rotate(0deg) translate(-59.9998px,-42.6812px); } 100% { transform: translate(180px,145.617px) rotate(0deg) translate(-59.9998px,-42.6812px); } }
    @keyframes a0_d { 0% { d: path('M0.307354,0.597638C0.478641,0.344014,0.71188,0.138307,0.984989,4.85417e-06L119.027,0.231895C119.301,0.370506,119.533,0.577511,119.703,0.83276C119.873,1.08801,119.974,1.38282,119.995,1.6885C120.017,1.99417,119.96,2.30031,119.828,2.57712C119.697,2.85393,119.496,3.09198,119.245,3.26812C119.245,3.26812,65.1356,41.0506,65.1356,41.0506C63.6075,42.1122,61.791,42.6812,59.9299,42.6812C58.0689,42.6812,56.2523,42.1122,54.7242,41.0506C54.7242,41.0506,0.731235,3.02898,0.731235,3.02898C0.484516,2.85035,0.288135,2.61107,0.161113,2.33431C0.0340917,2.05755,-0.0192759,1.75269,0.00619867,1.44927C0.032398,1.1444,0.136066,0.851262,0.307354,0.597638C0.307354,0.597638,0.307354,0.597638,0.307354,0.597638Z'); } 50% { d: path('M0.307354,0.597638C0.478641,0.344014,0.71188,0.138307,0.984989,4.85417e-06L119.027,0.231895C119.301,0.370506,119.533,0.577511,119.703,0.83276C119.873,1.08801,119.974,1.38282,119.995,1.6885C120.017,1.99417,119.96,2.30031,119.828,2.57712C119.697,2.85393,119.496,3.09198,119.245,3.26812C119.245,3.26812,65.1356,41.0506,65.1356,41.0506C63.6075,42.1122,61.791,42.6812,59.9299,42.6812C58.0689,42.6812,56.2523,42.1122,54.7242,41.0506C54.7242,41.0506,0.731235,3.02898,0.731235,3.02898C0.484516,2.85035,0.288135,2.61107,0.161113,2.33431C0.0340917,2.05755,-0.0192759,1.75269,0.00619867,1.44927C0.032398,1.1444,0.136066,0.851262,0.307354,0.597638C0.307354,0.597638,0.307354,0.597638,0.307354,0.597638Z'); animation-timing-function: cubic-bezier(0,0,0.58,1); } 70% { d: path('M0.307354,-0.597628C0.478641,-0.344004,0.71188,-0.138297,0.984989,4.85417e-06L119.027,-0.231885C119.301,-0.370496,119.533,-0.577501,119.703,-0.83275C119.873,-1.088,119.974,-1.38281,119.995,-1.68849C120.017,-1.99416,119.96,-2.3003,119.828,-2.57711C119.697,-2.85392,119.496,-3.09197,119.245,-3.26811C119.245,-3.26811,65.1356,-41.0506,65.1356,-41.0506C63.6075,-42.1122,61.791,-42.6812,59.9299,-42.6812C58.0689,-42.6812,56.2523,-42.1122,54.7242,-41.0506C54.7242,-41.0506,0.731235,-3.02897,0.731235,-3.02897C0.484516,-2.85034,0.288135,-2.61106,0.161113,-2.3343C0.0340917,-2.05754,-0.0192759,-1.75268,0.00619867,-1.44926C0.032398,-1.14439,0.136066,-0.851252,0.307354,-0.597628C0.307354,-0.597628,0.307354,-0.597628,0.307354,-0.597628Z'); } 100% { d: path('M0.307354,-0.597628C0.478641,-0.344004,0.71188,-0.138297,0.984989,4.85417e-06L119.027,-0.231885C119.301,-0.370496,119.533,-0.577501,119.703,-0.83275C119.873,-1.088,119.974,-1.38281,119.995,-1.68849C120.017,-1.99416,119.96,-2.3003,119.828,-2.57711C119.697,-2.85392,119.496,-3.09197,119.245,-3.26811C119.245,-3.26811,65.1356,-41.0506,65.1356,-41.0506C63.6075,-42.1122,61.791,-42.6812,59.9299,-42.6812C58.0689,-42.6812,56.2523,-42.1122,54.7242,-41.0506C54.7242,-41.0506,0.731235,-3.02897,0.731235,-3.02897C0.484516,-2.85034,0.288135,-2.61106,0.161113,-2.3343C0.0340917,-2.05754,-0.0192759,-1.75268,0.00619867,-1.44926C0.032398,-1.14439,0.136066,-0.851252,0.307354,-0.597628C0.307354,-0.597628,0.307354,-0.597628,0.307354,-0.597628Z'); } }
    @keyframes Document_t { 0% { transform: translate(138px,151.754px); } 50% { transform: translate(138px,151.754px); animation-timing-function: cubic-bezier(0,0,0.58,1); } 70% { transform: translate(138px,68.754px); } 100% { transform: translate(138px,68.754px); } }
    @keyframes a1_t { 0% { transform: translate(179.5px,147.5px) rotate(0deg) translate(-63.5px,-36.1166px); animation-timing-function: cubic-bezier(0,0,0.58,1); } 10% { transform: translate(179.5px,147.5px) rotate(5deg) translate(-63.5px,-36.1166px); animation-timing-function: cubic-bezier(0,0,0.58,1); } 20% { transform: translate(179.5px,147.5px) rotate(-5deg) translate(-63.5px,-36.1166px); animation-timing-function: cubic-bezier(0,0,0.58,1); } 30% { transform: translate(179.5px,147.5px) rotate(5deg) translate(-63.5px,-36.1166px); animation-timing-function: cubic-bezier(0,0,0.58,1); } 40% { transform: translate(179.5px,147.5px) rotate(0deg) translate(-63.5px,-36.1166px); } 100% { transform: translate(179.5px,147.5px) rotate(0deg) translate(-63.5px,-36.1166px); } }
    @keyframes a2_t { 0% { transform: translate(183.674px,136.494px) rotate(0deg) translate(60.3257px,-32.1089px); animation-timing-function: cubic-bezier(0,0,0.58,1); } 10% { transform: translate(183.674px,136.494px) rotate(5deg) translate(60.3257px,-32.1089px); animation-timing-function: cubic-bezier(0,0,0.58,1); } 20% { transform: translate(183.674px,136.494px) rotate(-5deg) translate(60.3257px,-32.1089px); animation-timing-function: cubic-bezier(0,0,0.58,1); } 30% { transform: translate(183.674px,136.494px) rotate(5deg) translate(60.3257px,-32.1089px); animation-timing-function: cubic-bezier(0,0,0.58,1); } 40% { transform: translate(183.674px,136.494px) rotate(0deg) translate(60.3257px,-32.1089px); } 100% { transform: translate(183.674px,136.494px) rotate(0deg) translate(60.3257px,-32.1089px); } }
    @keyframes a2_o { 0% { opacity: 1; } 40% { opacity: 1; } 50% { opacity: 0; } 100% { opacity: 0; } }
  </style>
  <path d="M0.307354,0.597638C0.478641,0.344014,0.71188,0.138307,0.984989,4.85417e-06L119.027,0.231895C119.301,0.370506,119.533,0.577511,119.703,0.83276C119.873,1.08801,119.974,1.38282,119.995,1.6885C120.017,1.99417,119.96,2.30031,119.828,2.57712C119.697,2.85393,119.496,3.09198,119.245,3.26812L65.1356,41.0506C63.6075,42.1122,61.791,42.6812,59.9299,42.6812C58.0689,42.6812,56.2523,42.1122,54.7242,41.0506L0.731235,3.02898C0.484516,2.85035,0.288135,2.61107,0.161113,2.33431C0.0340917,2.05755,-0.0192759,1.75269,0.00619867,1.44927C0.032398,1.1444,0.136066,0.851262,0.307354,0.597638Z" fill="#EBECF0" transform="translate(180,145.617) translate(-59.9998,-42.6812)" style="animation: 2s linear both a0_t, 2s linear both a0_d;"/>
  <g id="Document" fill="none" transform="translate(180,200.754) translate(-42,-49)" style="animation: 2s linear both Document_t;">
    <rect width="84" height="98" rx="7" fill="white" stroke="#19194B" stroke-width="8" transform="translate(-138,-72) translate(138,72)"/>
    <path d="M164.644,124.613C164.329,124.13,163.838,123.793,163.278,123.675C162.717,123.557,162.133,123.669,161.654,123.985L161.294,124.223C161.185,124.295,161.06,124.336,160.93,124.342C160.8,124.347,160.671,124.317,160.557,124.255C160.443,124.193,160.348,124.1,160.281,123.988C160.215,123.875,160.179,123.746,160.179,123.615L160.179,123.182C160.179,122.603,159.952,122.048,159.547,121.639C159.141,121.23,158.592,121,158.019,121C157.446,121,156.897,121.23,156.491,121.639C156.086,122.048,155.859,122.603,155.859,123.182L155.859,123.563C155.859,123.695,155.823,123.824,155.756,123.937C155.689,124.05,155.593,124.143,155.478,124.205C155.363,124.267,155.233,124.296,155.103,124.29C154.973,124.283,154.847,124.241,154.738,124.168L154.424,123.956C153.947,123.642,153.367,123.531,152.81,123.647C152.253,123.763,151.764,124.096,151.448,124.574C151.133,125.052,151.016,125.636,151.125,126.2C151.233,126.764,151.558,127.262,152.028,127.586L153.203,128.375C153.301,128.442,153.382,128.532,153.437,128.638C153.493,128.744,153.522,128.863,153.523,128.983C153.522,129.101,153.492,129.218,153.437,129.322C153.381,129.427,153.301,129.516,153.203,129.582L152.028,130.361C151.782,130.514,151.569,130.716,151.401,130.953C151.233,131.191,151.115,131.46,151.052,131.745C150.989,132.029,150.983,132.324,151.035,132.611C151.087,132.898,151.195,133.171,151.354,133.415C151.512,133.659,151.717,133.869,151.957,134.031C152.197,134.194,152.467,134.306,152.75,134.361C153.034,134.417,153.325,134.414,153.608,134.354C153.891,134.293,154.158,134.176,154.395,134.009L154.753,133.774C154.861,133.701,154.987,133.66,155.117,133.654C155.247,133.649,155.376,133.679,155.49,133.742C155.604,133.804,155.699,133.897,155.765,134.01C155.832,134.122,155.867,134.251,155.867,134.382L155.867,134.818C155.867,135.397,156.095,135.952,156.5,136.361C156.905,136.77,157.455,137,158.028,137C158.601,137,159.15,136.77,159.555,136.361C159.96,135.952,160.188,135.397,160.188,134.818L160.188,134.437C160.188,134.306,160.224,134.177,160.291,134.064C160.359,133.951,160.455,133.859,160.57,133.797C160.685,133.736,160.814,133.706,160.944,133.713C161.074,133.72,161.2,133.762,161.308,133.835L161.622,134.044C162.099,134.358,162.679,134.469,163.236,134.353C163.793,134.237,164.283,133.904,164.598,133.426C164.914,132.948,165.03,132.364,164.922,131.8C164.813,131.236,164.489,130.738,164.019,130.414L162.85,129.625C162.75,129.56,162.668,129.47,162.611,129.364C162.554,129.258,162.524,129.139,162.524,129.019C162.524,128.898,162.554,128.78,162.611,128.674C162.668,128.568,162.75,128.478,162.85,128.412L164.028,127.633C164.265,127.475,164.468,127.273,164.628,127.036C164.787,126.799,164.898,126.532,164.956,126.252C165.013,125.972,165.015,125.682,164.961,125.401C164.908,125.12,164.8,124.852,164.644,124.613Z" fill="#00A0DF" transform="translate(-138,-72)"/>
    <path d="M186.644,124.613C186.329,124.13,185.838,123.793,185.278,123.675C184.717,123.557,184.133,123.669,183.654,123.985L183.294,124.223C183.185,124.295,183.06,124.336,182.93,124.342C182.8,124.347,182.671,124.317,182.557,124.255C182.443,124.193,182.348,124.1,182.281,123.988C182.215,123.875,182.179,123.746,182.179,123.615L182.179,123.182C182.179,122.603,181.952,122.048,181.547,121.639C181.141,121.23,180.592,121,180.019,121C179.446,121,178.897,121.23,178.491,121.639C178.086,122.048,177.859,122.603,177.859,123.182L177.859,123.563C177.859,123.695,177.823,123.824,177.756,123.937C177.689,124.05,177.593,124.143,177.478,124.205C177.363,124.267,177.233,124.296,177.103,124.29C176.973,124.283,176.847,124.241,176.738,124.168L176.424,123.956C175.947,123.642,175.367,123.531,174.81,123.647C174.253,123.763,173.764,124.096,173.448,124.574C173.133,125.052,173.016,125.636,173.125,126.2C173.233,126.764,173.558,127.262,174.028,127.586L175.203,128.375C175.301,128.442,175.382,128.532,175.437,128.638C175.493,128.744,175.522,128.863,175.523,128.983C175.522,129.101,175.492,129.218,175.437,129.322C175.381,129.427,175.301,129.516,175.203,129.582L174.028,130.361C173.782,130.514,173.569,130.716,173.401,130.953C173.233,131.191,173.115,131.46,173.052,131.745C172.989,132.029,172.983,132.324,173.035,132.611C173.087,132.898,173.195,133.171,173.354,133.415C173.512,133.659,173.717,133.869,173.957,134.031C174.197,134.194,174.467,134.306,174.75,134.361C175.034,134.417,175.325,134.414,175.608,134.354C175.891,134.293,176.158,134.176,176.395,134.009L176.753,133.774C176.861,133.701,176.987,133.66,177.117,133.654C177.247,133.649,177.376,133.679,177.49,133.742C177.604,133.804,177.699,133.897,177.765,134.01C177.832,134.122,177.867,134.251,177.867,134.382L177.867,134.818C177.867,135.397,178.095,135.952,178.5,136.361C178.905,136.77,179.455,137,180.028,137C180.601,137,181.15,136.77,181.555,136.361C181.96,135.952,182.188,135.397,182.188,134.818L182.188,134.437C182.188,134.306,182.224,134.177,182.291,134.064C182.359,133.951,182.455,133.859,182.57,133.797C182.685,133.736,182.814,133.706,182.944,133.713C183.074,133.72,183.2,133.762,183.308,133.835L183.622,134.044C184.099,134.358,184.679,134.469,185.236,134.353C185.793,134.237,186.283,133.904,186.598,133.426C186.914,132.948,187.03,132.364,186.922,131.8C186.813,131.236,186.489,130.738,186.019,130.414L184.85,129.625C184.75,129.56,184.668,129.47,184.611,129.364C184.554,129.258,184.524,129.139,184.524,129.019C184.524,128.898,184.554,128.78,184.611,128.674C184.668,128.568,184.75,128.478,184.85,128.412L186.028,127.633C186.265,127.475,186.468,127.273,186.628,127.036C186.787,126.799,186.898,126.532,186.956,126.252C187.013,125.972,187.015,125.682,186.961,125.401C186.908,125.12,186.8,124.852,186.644,124.613Z" fill="#00A0DF" transform="translate(-138,-72)"/>
    <path d="M208.644,124.613C208.329,124.13,207.838,123.793,207.278,123.675C206.717,123.557,206.133,123.669,205.654,123.985L205.294,124.223C205.185,124.295,205.06,124.336,204.93,124.342C204.8,124.347,204.671,124.317,204.557,124.255C204.443,124.193,204.348,124.1,204.281,123.988C204.215,123.875,204.179,123.746,204.179,123.615L204.179,123.182C204.179,122.603,203.952,122.048,203.547,121.639C203.141,121.23,202.592,121,202.019,121C201.446,121,200.897,121.23,200.491,121.639C200.086,122.048,199.859,122.603,199.859,123.182L199.859,123.563C199.859,123.695,199.823,123.824,199.756,123.937C199.689,124.05,199.593,124.143,199.478,124.205C199.363,124.267,199.233,124.296,199.103,124.29C198.973,124.283,198.847,124.241,198.738,124.168L198.424,123.956C197.947,123.642,197.367,123.531,196.81,123.647C196.253,123.763,195.764,124.096,195.448,124.574C195.133,125.052,195.016,125.636,195.125,126.2C195.233,126.764,195.558,127.262,196.028,127.586L197.203,128.375C197.301,128.442,197.382,128.532,197.437,128.638C197.493,128.744,197.522,128.863,197.523,128.983C197.522,129.101,197.492,129.218,197.437,129.322C197.381,129.427,197.301,129.516,197.203,129.582L196.028,130.361C195.782,130.514,195.569,130.716,195.401,130.953C195.233,131.191,195.115,131.46,195.052,131.745C194.989,132.029,194.983,132.324,195.035,132.611C195.087,132.898,195.195,133.171,195.354,133.415C195.512,133.659,195.717,133.869,195.957,134.031C196.197,134.194,196.467,134.306,196.75,134.361C197.034,134.417,197.325,134.414,197.608,134.354C197.891,134.293,198.158,134.176,198.395,134.009L198.753,133.774C198.861,133.701,198.987,133.66,199.117,133.654C199.247,133.649,199.376,133.679,199.49,133.742C199.604,133.804,199.699,133.897,199.765,134.01C199.832,134.122,199.867,134.251,199.867,134.382L199.867,134.818C199.867,135.397,200.095,135.952,200.5,136.361C200.905,136.77,201.455,137,202.028,137C202.601,137,203.15,136.77,203.555,136.361C203.96,135.952,204.188,135.397,204.188,134.818L204.188,134.437C204.188,134.306,204.224,134.177,204.291,134.064C204.359,133.951,204.455,133.859,204.57,133.797C204.685,133.736,204.814,133.706,204.944,133.713C205.074,133.72,205.2,133.762,205.308,133.835L205.622,134.044C206.099,134.358,206.679,134.469,207.236,134.353C207.793,134.237,208.283,133.904,208.598,133.426C208.914,132.948,209.03,132.364,208.922,131.8C208.813,131.236,208.489,130.738,208.019,130.414L206.85,129.625C206.75,129.56,206.668,129.47,206.611,129.364C206.554,129.258,206.524,129.139,206.524,129.019C206.524,128.898,206.554,128.78,206.611,128.674C206.668,128.568,206.75,128.478,206.85,128.412L208.028,127.633C208.265,127.475,208.468,127.273,208.628,127.036C208.787,126.799,208.898,126.532,208.956,126.252C209.013,125.972,209.015,125.682,208.961,125.401C208.908,125.12,208.8,124.852,208.644,124.613Z" fill="#00A0DF" transform="translate(-138,-72)"/>
    <rect width="28" height="5" rx="2.5" fill="#EBECF0" transform="translate(-138,-72) translate(150,86)"/>
    <rect width="60" height="5" rx="2.5" fill="#EBECF0" transform="translate(-138,-72) translate(150,95)"/>
    <rect width="39" height="5" rx="2.5" fill="#EBECF0" transform="translate(-138,-72) translate(150,103)"/>
  </g>
  <rect width="360" height="116.383" fill="#ffffff" rx="0" stroke="none" transform="translate(66.514,180.392) translate(-66.514,-32.7751)"/>
  <path d="M1.38072,0.302829C1.61972,0.311328,1.85204,0.383955,2.05333,0.5131L59.9981,40.8925C62.4029,42.5683,65.5971,42.5683,68.002,40.8927L125.947,0.518431C126.148,0.389041,126.381,0.31639,126.621,0.308114C126.86,0.299838,127.097,0.356245,127.307,0.471403C127.518,0.586561,127.693,0.756212,127.815,0.962517C127.937,1.16882,128.001,1.40416,128,1.64377L128,55.0144C128,57.8434,126.876,60.5565,124.876,62.5569C122.875,64.5573,120.162,65.6811,117.333,65.6811L10.6667,65.6811C7.83769,65.6811,5.12458,64.5573,3.12419,62.5569C1.12381,60.5565,0,57.8434,0,55.0144L0,1.6331C0.000397988,1.39394,0.065114,1.15929,0.187366,0.953744C0.309619,0.748194,0.484907,0.579312,0.694862,0.464791C0.904817,0.35027,1.14171,0.29433,1.38072,0.302829Z" fill="#EBECF0" transform="translate(179.5,147.5) translate(-63.5,-36.1166)" style="animation: 2s linear both a1_t;"/>
  <ellipse rx="11.6213" ry="11.6213" fill="#eb4b68" stroke="#ffffff" opacity="1" stroke-width="4" transform="translate(183.674,136.494) translate(60.3257,-32.1089)" style="animation: 2s linear both a2_t, 2s linear both a2_o;"/>
</svg>
