<svg class="icon"
     viewBox="0 0 40 40"
     fill="none"
     xmlns="http://www.w3.org/2000/svg"
>
    <g clip-path="url(#mailcolor-clip0)">
        <path d="M2 17.6138H21.1681H37.8178V40H2L2 17.6138Z" fill="#EBECF0"/>
        <path d="M2.03649 17.6291L37.8543 17.6291L22.7515 2.76224C21.1946 1.22972 18.6962 1.22972 17.1393 2.76224L2.03649 17.6291Z" fill="#EBECF0"/>
        <rect x="6" y="12" width="28" height="19.6" rx="2.8" fill="white"/>
        <path d="M37.8178 18L19.9089 31.4317L37.8178 40.3861V18Z" fill="#DFE1E6"/>
        <path d="M1.99999 18L19.9089 31.4317L1.99999 40.3861V18Z" fill="#DFE1E6"/>
        <path d="M2 40.3861H37.8178L24.3861 28.0737C21.733 30.0636 18.0848 30.0636 15.4317 28.0737L2 40.3861Z" fill="#EBECF0"/>
        <path d="M19.75 27.501C20.2493 27.5015 20.7465 27.4366 21.229 27.308C21.4157 27.2521 21.5733 27.1258 21.6685 26.9557C21.7636 26.7857 21.7889 26.5852 21.7388 26.3969C21.6888 26.2086 21.5674 26.0471 21.4004 25.9467C21.2334 25.8463 21.0338 25.8148 20.844 25.859C19.986 26.0877 19.078 26.042 18.2473 25.7284C17.4166 25.4147 16.705 24.8488 16.2124 24.1101C15.7197 23.3714 15.4707 22.4969 15.5004 21.6095C15.53 20.7221 15.8368 19.8662 16.3777 19.162C16.9185 18.4578 17.6663 17.9407 18.5161 17.6832C19.3658 17.4256 20.2749 17.4407 21.1157 17.7261C21.9565 18.0116 22.6868 18.5532 23.2041 19.2749C23.7214 19.9965 23.9997 20.8621 24 21.75V22.25C24 22.4489 23.921 22.6397 23.7803 22.7803C23.6397 22.921 23.4489 23 23.25 23C23.0511 23 22.8603 22.921 22.7197 22.7803C22.579 22.6397 22.5 22.4489 22.5 22.25C22.4953 22.1932 22.4839 22.1371 22.466 22.083C22.4845 21.9728 22.4958 21.8616 22.5 21.75C22.5 21.2061 22.3387 20.6744 22.0365 20.2222C21.7344 19.7699 21.3049 19.4175 20.8024 19.2093C20.2999 19.0012 19.747 18.9467 19.2135 19.0528C18.6801 19.159 18.1901 19.4209 17.8055 19.8055C17.4209 20.1901 17.159 20.6801 17.0528 21.2135C16.9467 21.747 17.0012 22.2999 17.2093 22.8024C17.4175 23.3049 17.7699 23.7344 18.2222 24.0365C18.6744 24.3387 19.2061 24.5 19.75 24.5C20.4366 24.4983 21.0973 24.2376 21.6 23.77C21.9051 24.1053 22.3047 24.3401 22.7461 24.4436C23.1874 24.5471 23.6498 24.5144 24.0722 24.3498C24.4946 24.1852 24.8571 23.8964 25.112 23.5215C25.3669 23.1467 25.5022 22.7033 25.5 22.25V21.75C25.5 20.6128 25.1628 19.5011 24.531 18.5555C23.8991 17.6099 23.0011 16.8729 21.9504 16.4377C20.8998 16.0025 19.7436 15.8886 18.6282 16.1105C17.5128 16.3324 16.4883 16.88 15.6841 17.6841C14.88 18.4883 14.3324 19.5128 14.1105 20.6282C13.8886 21.7436 14.0025 22.8998 14.4377 23.9504C14.8729 25.0011 15.6099 25.8991 16.5555 26.531C17.5011 27.1628 18.6128 27.501 19.75 27.501ZM19.75 23.001C19.5028 23.001 19.2612 22.9277 19.0556 22.7904C18.8501 22.6531 18.6899 22.4579 18.5952 22.2296C18.5006 22.0012 18.4758 21.75 18.5239 21.5075C18.5721 21.2651 18.6911 21.0423 18.8658 20.8675C19.0405 20.6926 19.2631 20.5735 19.5055 20.5251C19.7479 20.4768 19.9992 20.5014 20.2277 20.5959C20.4561 20.6903 20.6514 20.8504 20.7889 21.0558C20.9263 21.2612 20.9998 21.5028 21 21.75C21 22.0816 20.8683 22.3997 20.6339 22.6342C20.3996 22.8688 20.0816 23.0007 19.75 23.001Z" fill="url(#mailcolor-paint0_linear)"/>
    </g>
    <defs>
        <linearGradient id="mailcolor-paint0_linear" x1="19.75" y1="16" x2="19.75" y2="31.4545" gradientUnits="userSpaceOnUse">
            <stop stop-color="#00A0DF"/>
            <stop offset="1" stop-color="#66C6EC"/>
        </linearGradient>
        <clipPath id="mailcolor-clip0">
            <rect width="40" height="40" fill="white"/>
        </clipPath>
    </defs>
</svg>
