<svg class="icon" viewBox="0 0 147 146" fill="none" xmlns="http://www.w3.org/2000/svg">
<g clip-path="url(#medal-level-5-clip0)">
<path d="M36.9353 91.4671C36.8042 89.3692 38.4703 87.5957 40.5723 87.5957H105.696C107.798 87.5957 109.464 89.3692 109.333 91.4671L106.326 139.587C106.15 142.39 103.004 143.95 100.667 142.392L75.1555 125.384C73.9315 124.568 72.3368 124.568 71.1128 125.384L45.6012 142.392C43.2644 143.95 40.118 142.39 39.9428 139.587L36.9353 91.4671Z" fill="url(#medal-level-5-paint0_linear)"/>
<mask id="medal-level-5-mask0" mask-type="alpha" maskUnits="userSpaceOnUse" x="37" y="87" width="72" height="59">
<path d="M37.5793 101.77C37.0992 94.0891 43.1994 87.5957 50.8955 87.5957H95.3729C103.069 87.5957 109.169 94.0891 108.689 101.77L105.931 145.901L80.5351 128.97C76.0535 125.983 70.2149 125.983 65.7333 128.97L40.3374 145.901L37.5793 101.77Z" fill="white"/>
</mask>
<g mask="url(#medal-level-5-mask0)">
<path opacity="0.48" d="M54.9141 91.2397H91.3549L87.7108 145.901H58.5581L54.9141 91.2397Z" fill="#F4F5F7"/>
</g>
<path d="M67.438 1.27059C71.0847 -0.239936 75.1821 -0.239935 78.8289 1.27059L109.533 13.9887C113.18 15.4992 116.077 18.3966 117.588 22.0433L130.306 52.7476C131.816 56.3943 131.816 60.4917 130.306 64.1384L117.588 94.8427C116.077 98.4894 113.18 101.387 109.533 102.897L78.8288 115.615C75.1821 117.126 71.0847 117.126 67.438 115.615L36.7337 102.897C33.087 101.387 30.1897 98.4894 28.6791 94.8427L15.961 64.1384C14.4505 60.4917 14.4505 56.3943 15.961 52.7476L28.6792 22.0433C30.1897 18.3966 33.087 15.4992 36.7337 13.9887L67.438 1.27059Z" fill="url(#medal-level-5-paint1_linear)"/>
<g opacity="0.5" filter="url(#medal-level-5-filter0_i)">
<path d="M68.5053 11.9903C71.4683 10.763 74.7974 10.763 77.7604 11.9903L102.708 22.3238C105.671 23.5511 108.025 25.9051 109.252 28.8681L119.585 53.8153C120.813 56.7783 120.813 60.1075 119.585 63.0704L109.252 88.0177C108.025 90.9806 105.671 93.3347 102.708 94.562L77.7604 104.895C74.7974 106.123 71.4683 106.123 68.5053 104.895L43.5581 94.562C40.5951 93.3347 38.241 90.9806 37.0137 88.0177L26.6802 63.0704C25.4529 60.1075 25.4529 56.7783 26.6802 53.8153L37.0137 28.8681C38.241 25.9051 40.5951 23.5511 43.5581 22.3238L68.5053 11.9903Z" fill="#007CBF"/>
</g>
<g filter="url(#medal-level-5-filter1_d)">
<path d="M73.8624 32.9343C72.0491 32.9343 70.2577 33.4805 68.6193 34.5728C67.1556 35.6433 66.0851 37.2817 65.5389 38.8984C64.2937 38.1993 62.9174 37.9371 61.4318 37.9371C60.9949 37.9371 60.558 37.959 60.1211 38.0027C58.3078 38.3522 56.6912 39.0731 55.2275 40.5368C53.9823 41.7821 53.0647 43.6172 52.6933 45.4304C52.3438 47.2436 52.6933 49.035 53.589 50.8483C51.7758 51.3944 50.3339 52.4867 49.2635 53.9286C48.193 55.3923 47.625 57.1837 47.625 59.1717C47.625 60.9849 48.1712 62.7763 49.2635 64.4148C50.3339 65.8785 51.9724 66.949 53.589 67.4951C52.6933 69.1336 52.5186 70.925 52.6933 72.913C52.8681 74.901 53.7638 76.3429 55.2275 77.8066C56.4727 79.0518 58.3078 79.9694 60.1211 80.3407C60.5798 80.4281 61.0605 80.4937 61.5192 80.4937C62.8519 80.4937 64.1845 80.1223 65.5389 79.445C66.0851 81.2583 67.1774 82.7001 68.6193 83.7706C70.083 84.8411 71.8744 85.4091 73.8624 85.4091C75.6756 85.4091 77.467 84.8629 79.1055 83.7706C80.5692 82.7001 81.6397 81.0617 82.1858 79.445C83.431 80.1441 84.8074 80.4063 86.2929 80.4063C86.7298 80.4063 87.1668 80.3844 87.6037 80.3407C89.4169 79.9912 91.0336 79.2703 92.4973 77.8066C93.7425 76.5613 94.66 74.7263 95.0314 72.913C95.381 71.0998 95.0314 69.3084 94.1357 67.4951C95.949 66.949 97.5656 65.8567 98.6361 64.24C99.5318 62.6016 100.1 60.8102 100.1 59.1717C100.1 57.3585 99.5536 55.5671 98.4613 54.1034C97.3908 52.6397 95.7523 51.5692 94.1357 50.8483C95.0314 49.2098 95.2062 47.4184 95.0314 45.4304C94.6819 43.6172 93.961 42.0005 92.4973 40.5368C91.252 39.2916 89.4169 38.374 87.6037 38.0027C87.1449 37.9153 86.6643 37.8497 86.2055 37.8497C84.8729 37.8497 83.5403 38.2211 82.1858 38.8984C81.6397 37.0851 80.5473 35.6433 79.1055 34.5728C77.6636 33.4805 75.8722 32.9343 73.8624 32.9343Z" fill="#99D9F2"/>
</g>
<mask id="medal-level-5-mask1" mask-type="alpha" maskUnits="userSpaceOnUse" x="14" y="0" width="118" height="117">
<path fill-rule="evenodd" clip-rule="evenodd" d="M78.8289 1.27059C75.1821 -0.239935 71.0847 -0.239936 67.438 1.27059L36.7337 13.9887C33.087 15.4992 30.1897 18.3966 28.6792 22.0433L15.961 52.7476C14.4505 56.3943 14.4505 60.4917 15.961 64.1384L28.6791 94.8427C30.1897 98.4894 33.087 101.387 36.7337 102.897L67.438 115.615C71.0847 117.126 75.1821 117.126 78.8288 115.615L109.533 102.897C113.18 101.387 116.077 98.4894 117.588 94.8427L130.306 64.1384C131.816 60.4917 131.816 56.3943 130.306 52.7476L117.588 22.0433C116.077 18.3966 113.18 15.4992 109.533 13.9887L78.8289 1.27059ZM77.7611 11.9904C74.7982 10.7631 71.469 10.7631 68.506 11.9904L43.5588 22.3239C40.5958 23.5512 38.2418 25.9053 37.0145 28.8682L26.681 53.8155C25.4537 56.7784 25.4537 60.1076 26.681 63.0705L37.0145 88.0178C38.2418 90.9807 40.5958 93.3348 43.5588 94.5621L68.506 104.896C71.469 106.123 74.7981 106.123 77.7611 104.896L102.708 94.5621C105.671 93.3348 108.025 90.9807 109.253 88.0178L119.586 63.0705C120.813 60.1076 120.813 56.7784 119.586 53.8155L109.253 28.8682C108.025 25.9053 105.671 23.5512 102.708 22.3239L77.7611 11.9904Z" fill="url(#medal-level-5-paint2_linear)"/>
</mask>
<g mask="url(#medal-level-5-mask1)">
<path opacity="0.2" d="M14.8289 0.137677L14.8288 116.748L131.439 0.137688L14.8289 0.137677Z" fill="white"/>
</g>
<mask id="medal-level-5-mask2" mask-type="alpha" maskUnits="userSpaceOnUse" x="47" y="32" width="54" height="54">
<path d="M74.0059 32.9343C72.1828 32.9343 70.3816 33.4835 68.7341 34.5818C67.2624 35.6581 66.1861 37.3055 65.637 38.931C64.3849 38.2281 63.0011 37.9645 61.5074 37.9645C61.0681 37.9645 60.6288 37.9865 60.1894 38.0304C58.3663 38.3818 56.7408 39.1067 55.2691 40.5784C54.0171 41.8305 53.0945 43.6756 52.7211 45.4988C52.3696 47.3219 52.7211 49.1231 53.6217 50.9463C51.7985 51.4954 50.3488 52.5937 49.2724 54.0435C48.1961 55.5152 47.625 57.3164 47.625 59.3153C47.625 61.1384 48.1741 62.9396 49.2724 64.5871C50.3488 66.0588 51.9962 67.1351 53.6217 67.6842C52.7211 69.3317 52.5453 71.1329 52.7211 73.1318C52.8968 75.1306 53.7974 76.5804 55.2691 78.0521C56.5212 79.3041 58.3663 80.2267 60.1894 80.6001C60.6507 80.688 61.134 80.7539 61.5953 80.7539C62.9352 80.7539 64.2751 80.3805 65.637 79.6995C66.1861 81.5227 67.2844 82.9724 68.7341 84.0488C70.2058 85.1251 72.007 85.6962 74.0059 85.6962C75.8291 85.6962 77.6303 85.1471 79.2777 84.0488C80.7494 82.9724 81.8258 81.325 82.3749 79.6995C83.627 80.4024 85.0108 80.666 86.5045 80.666C86.9438 80.666 87.3831 80.6441 87.8224 80.6001C89.6456 80.2487 91.2711 79.5238 92.7428 78.0521C93.9948 76.8 94.9174 74.9549 95.2908 73.1318C95.6423 71.3086 95.2908 69.5074 94.3902 67.6842C96.2134 67.1351 97.8388 66.0368 98.9152 64.4113C99.8158 62.7639 100.387 60.9627 100.387 59.3153C100.387 57.4921 99.8377 55.6909 98.7394 54.2192C97.6631 52.7475 96.0157 51.6712 94.3902 50.9463C95.2908 49.2989 95.4665 47.4977 95.2908 45.4988C94.9394 43.6756 94.2145 42.0501 92.7428 40.5784C91.4907 39.3264 89.6456 38.4038 87.8224 38.0304C87.3611 37.9425 86.8779 37.8766 86.4166 37.8766C85.0767 37.8766 83.7368 38.2501 82.3749 38.931C81.8258 37.1078 80.7275 35.6581 79.2777 34.5818C77.828 33.4835 76.0268 32.9343 74.0059 32.9343Z" fill="#66C6EC"/>
</mask>
<g mask="url(#medal-level-5-mask2)">
<path opacity="0.2" d="M14.8289 0.137677L14.8288 116.748L131.439 0.137688L14.8289 0.137677Z" fill="white"/>
</g>
</g>
<defs>
<filter id="medal-level-5-filter0_i" x="25.7598" y="11.0698" width="94.7461" height="94.7461" filterUnits="userSpaceOnUse" color-interpolation-filters="sRGB">
<feFlood flood-opacity="0" result="BackgroundImageFix"/>
<feBlend mode="normal" in="SourceGraphic" in2="BackgroundImageFix" result="shape"/>
<feColorMatrix in="SourceAlpha" type="matrix" values="0 0 0 0 0 0 0 0 0 0 0 0 0 0 0 0 0 0 127 0" result="hardAlpha"/>
<feOffset/>
<feGaussianBlur stdDeviation="3.09747"/>
<feComposite in2="hardAlpha" operator="arithmetic" k2="-1" k3="1"/>
<feColorMatrix type="matrix" values="0 0 0 0 0 0 0 0 0 0.364706 0 0 0 0 0.627451 0 0 0 1 0"/>
<feBlend mode="normal" in2="shape" result="effect1_innerShadow"/>
</filter>
<filter id="medal-level-5-filter1_d" x="42.3775" y="27.6869" width="62.9697" height="62.9697" filterUnits="userSpaceOnUse" color-interpolation-filters="sRGB">
<feFlood flood-opacity="0" result="BackgroundImageFix"/>
<feColorMatrix in="SourceAlpha" type="matrix" values="0 0 0 0 0 0 0 0 0 0 0 0 0 0 0 0 0 0 127 0"/>
<feOffset/>
<feGaussianBlur stdDeviation="2.62374"/>
<feColorMatrix type="matrix" values="0 0 0 0 0 0 0 0 0 0.364706 0 0 0 0 0.627451 0 0 0 0.24 0"/>
<feBlend mode="normal" in2="BackgroundImageFix" result="effect1_dropShadow"/>
<feBlend mode="normal" in="SourceGraphic" in2="effect1_dropShadow" result="shape"/>
</filter>
<linearGradient id="medal-level-5-paint0_linear" x1="73.1342" y1="87.5957" x2="73.1342" y2="165.943" gradientUnits="userSpaceOnUse">
<stop stop-color="#005DA0"/>
<stop offset="1" stop-color="#00A0DF"/>
</linearGradient>
<linearGradient id="medal-level-5-paint1_linear" x1="218.897" y1="187.808" x2="-1.57026" y2="-27.1929" gradientUnits="userSpaceOnUse">
<stop stop-color="#33B3E5"/>
<stop offset="1" stop-color="#CFF6FF"/>
</linearGradient>
<linearGradient id="medal-level-5-paint2_linear" x1="-87.8655" y1="58.443" x2="141.874" y2="58.4429" gradientUnits="userSpaceOnUse">
<stop stop-color="#00A0DF"/>
<stop offset="1" stop-color="#99D9F2"/>
</linearGradient>
<clipPath id="medal-level-5-clip0">
<rect width="145.763" height="145.763" fill="white" transform="translate(0.251953 0.137695)"/>
</clipPath>
</defs>
</svg>
