<svg class="icon" viewBox="0 0 32 40" fill="none" xmlns="http://www.w3.org/2000/svg">
<path d="M6.06646 25.0711C6.03018 24.4907 6.49114 24 7.0727 24H25.0904C25.672 24 26.1329 24.4907 26.0966 25.0711L25.2646 38.3844C25.2161 39.1599 24.3456 39.5914 23.6991 39.1604L16.6408 34.4549C16.3021 34.2291 15.861 34.2291 15.5223 34.4549L8.46403 39.1604C7.81752 39.5914 6.94701 39.1599 6.89854 38.3844L6.06646 25.0711Z" fill="#F4F5F7"/>
<path opacity="0.9" d="M20.3294 36.9135L18.1298 35.4471C16.8899 34.6205 15.2746 34.6205 14.0346 35.4471L11.8347 36.9137L11.041 25.0085H21.1231L20.3294 36.9135Z" fill="white"/>
<path d="M32 16C32 24.8366 24.8366 32 16 32C7.16344 32 0 24.8366 0 16C0 7.16344 7.16344 0 16 0C24.8366 0 32 7.16344 32 16Z" fill="#FAFBFC"/>
<path fill-rule="evenodd" clip-rule="evenodd" d="M16 31.5C24.5604 31.5 31.5 24.5604 31.5 16C31.5 7.43959 24.5604 0.5 16 0.5C7.43959 0.5 0.5 7.43959 0.5 16C0.5 24.5604 7.43959 31.5 16 31.5ZM16 32C24.8366 32 32 24.8366 32 16C32 7.16344 24.8366 0 16 0C7.16344 0 0 7.16344 0 16C0 24.8366 7.16344 32 16 32Z" fill="#EBECF0"/>
<path d="M15.9484 8.53333C15.4481 8.53333 14.9538 8.68402 14.5017 8.98541C14.0978 9.28077 13.8025 9.73286 13.6518 10.1789C13.3082 9.98603 12.9284 9.91369 12.5186 9.91369C12.398 9.91369 12.2774 9.91972 12.1569 9.93178C11.6566 10.0282 11.2105 10.2271 10.8067 10.631C10.4631 10.9746 10.2099 11.4809 10.1074 11.9812C10.011 12.4815 10.1074 12.9758 10.3546 13.4761C9.85427 13.6268 9.45643 13.9282 9.16107 14.326C8.86571 14.7299 8.70898 15.2242 8.70898 15.7727C8.70898 16.273 8.85968 16.7673 9.16107 17.2194C9.45643 17.6233 9.90852 17.9186 10.3546 18.0693C10.1074 18.5214 10.0592 19.0157 10.1074 19.5642C10.1557 20.1127 10.4028 20.5106 10.8067 20.9144C11.1502 21.258 11.6566 21.5112 12.1569 21.6137C12.2835 21.6378 12.4161 21.6559 12.5427 21.6559C12.9104 21.6559 13.2781 21.5534 13.6518 21.3665C13.8025 21.8668 14.1039 22.2647 14.5017 22.56C14.9056 22.8554 15.3998 23.0121 15.9484 23.0121C16.4487 23.0121 16.943 22.8614 17.3951 22.56C17.7989 22.2647 18.0943 21.8126 18.245 21.3665C18.5886 21.5594 18.9683 21.6317 19.3782 21.6317C19.4988 21.6317 19.6193 21.6257 19.7399 21.6137C20.2402 21.5172 20.6862 21.3183 21.0901 20.9144C21.4337 20.5708 21.6868 20.0645 21.7893 19.5642C21.8858 19.0639 21.7893 18.5696 21.5422 18.0693C22.0425 17.9186 22.4885 17.6172 22.7839 17.1712C23.031 16.7191 23.1878 16.2248 23.1878 15.7727C23.1878 15.2724 23.0371 14.7781 22.7357 14.3743C22.4403 13.9704 21.9882 13.675 21.5422 13.4761C21.7893 13.024 21.8375 12.5298 21.7893 11.9812C21.6929 11.4809 21.494 11.0349 21.0901 10.631C20.7465 10.2874 20.2402 10.0342 19.7399 9.93178C19.6133 9.90766 19.4807 9.88958 19.3541 9.88958C18.9864 9.88958 18.6187 9.99205 18.245 10.1789C18.0943 9.67861 17.7929 9.28077 17.3951 8.98541C16.9972 8.68402 16.5029 8.53333 15.9484 8.53333Z" fill="#F4F5F7"/>
<path fill-rule="evenodd" clip-rule="evenodd" d="M14.363 8.7774C14.8541 8.45002 15.3963 8.28333 15.9484 8.28333C16.5486 8.28333 17.0977 8.44687 17.5451 8.78542C17.9093 9.05606 18.2031 9.40797 18.3876 9.84008C18.7049 9.71167 19.0266 9.63958 19.3541 9.63958C19.5028 9.63958 19.6526 9.66065 19.7866 9.68619L19.79 9.68684L19.79 9.68686C20.3314 9.79773 20.884 10.0713 21.2669 10.4542C21.7118 10.8992 21.9306 11.3932 22.0348 11.9339L22.0372 11.9465L22.0384 11.9593C22.0812 12.4466 22.0535 12.9156 21.8741 13.3586C22.2685 13.5635 22.6601 13.8478 22.9368 14.2257C23.2724 14.676 23.4378 15.2233 23.4378 15.7727C23.4378 16.2788 23.2638 16.8145 23.0033 17.2911L22.9982 17.3004L22.9924 17.3092C22.7152 17.7277 22.3221 18.0293 21.8801 18.2136C22.0615 18.6694 22.1267 19.1348 22.0348 19.6115L22.0343 19.6144L22.0342 19.6144C21.9234 20.1557 21.6498 20.7083 21.2669 21.0912C20.8219 21.5361 20.3279 21.7549 19.7872 21.8591L19.776 21.8613L19.7647 21.8624C19.636 21.8753 19.5071 21.8817 19.3782 21.8817C19.0331 21.8817 18.6968 21.8338 18.3789 21.7069C18.1982 22.1054 17.9141 22.4901 17.5426 22.7618L17.5339 22.7682L17.5337 22.768C17.0427 23.0954 16.5005 23.2621 15.9484 23.2621C15.351 23.2621 14.8041 23.0909 14.3541 22.7618L14.3527 22.7608C13.988 22.49 13.6939 22.1379 13.5091 21.7054C13.1918 21.8338 12.8702 21.9059 12.5427 21.9059C12.394 21.9059 12.2442 21.8848 12.1101 21.8592L12.1067 21.8586L12.1067 21.8586C11.5654 21.7477 11.0128 21.4741 10.6299 21.0912C10.2007 20.662 9.91346 20.2125 9.8584 19.5861C9.81611 19.1051 9.84252 18.6419 10.0158 18.204C9.61678 18.0233 9.23132 17.739 8.95928 17.367L8.95286 17.3582L8.95306 17.3581C8.62568 16.867 8.45898 16.3248 8.45898 15.7727C8.45898 15.1753 8.6302 14.6284 8.95928 14.1785L8.96034 14.177L8.96034 14.177C9.23136 13.812 9.58395 13.5176 10.017 13.3329C9.83536 12.8767 9.76999 12.411 9.86195 11.9339L9.8625 11.9311L9.86252 11.9311C9.97339 11.3897 10.247 10.8371 10.6299 10.4542C11.0748 10.0093 11.5688 9.79053 12.1096 9.6863L12.1207 9.68415L12.132 9.68302C12.2608 9.67014 12.3897 9.66369 12.5186 9.66369C12.8636 9.66369 13.1999 9.71159 13.5178 9.83851C13.6985 9.44008 13.9826 9.0553 14.3541 8.78362L14.3629 8.7772L14.363 8.7774ZM14.645 9.19038C14.2915 9.45057 14.0251 9.8549 13.8886 10.2589L13.7922 10.5444L13.5294 10.3969C13.2333 10.2307 12.8989 10.1637 12.5186 10.1637C12.4101 10.1637 12.3016 10.1689 12.1931 10.1794C11.7379 10.2688 11.3433 10.4479 10.9834 10.8078C10.6795 11.1117 10.4469 11.5711 10.3526 12.03C10.2693 12.4642 10.3499 12.9023 10.5787 13.3654L10.7096 13.6303L10.4267 13.7155C9.98273 13.8492 9.62857 14.116 9.36234 14.4743C9.10103 14.832 8.95898 15.2734 8.95898 15.7727C8.95898 16.2196 9.09269 16.6643 9.36604 17.0761C9.62623 17.4296 10.0306 17.696 10.4346 17.8325L10.7168 17.9278L10.5739 18.1892C10.3593 18.5818 10.3106 19.0205 10.3565 19.5423C10.3979 20.013 10.6049 20.3591 10.9834 20.7377C11.2873 21.0415 11.7466 21.2741 12.2053 21.3684C12.3239 21.3909 12.4387 21.4059 12.5427 21.4059C12.8627 21.4059 13.1921 21.3169 13.54 21.1429L13.8055 21.0101L13.8912 21.2944C14.0249 21.7384 14.2917 22.0925 14.65 22.3587C15.0076 22.6201 15.449 22.7621 15.9484 22.7621C16.3952 22.7621 16.84 22.6284 17.2518 22.3551C17.6053 22.0949 17.8716 21.6905 18.0081 21.2865L18.1046 21.001L18.3674 21.1485C18.6634 21.3147 18.9978 21.3817 19.3782 21.3817C19.4866 21.3817 19.5951 21.3765 19.7037 21.366C20.1589 21.2766 20.5535 21.0975 20.9133 20.7377C21.2173 20.4337 21.4498 19.9743 21.5441 19.5155C21.6275 19.0813 21.5468 18.6432 21.318 18.18L21.1872 17.9151L21.4701 17.8299C21.9186 17.6948 22.3105 17.4284 22.5697 17.0418C22.8003 16.617 22.9378 16.1679 22.9378 15.7727C22.9378 15.3219 22.802 14.8811 22.5353 14.5238L22.5339 14.5219L22.5339 14.5218C22.2738 14.1662 21.8646 13.8936 21.4404 13.7045L21.1928 13.5941L21.3228 13.3562C21.5356 12.9669 21.5853 12.5321 21.5414 12.016C21.4519 11.5614 21.2728 11.1673 20.9133 10.8078C20.6094 10.5039 20.1501 10.2713 19.6914 10.177C19.5729 10.1545 19.4581 10.1396 19.3541 10.1396C19.0341 10.1396 18.7047 10.2286 18.3568 10.4025L18.0912 10.5353L18.0056 10.251C17.8718 9.80678 17.6047 9.45244 17.246 9.18614L17.2441 9.18469L17.2441 9.18468C16.8959 8.92093 16.4568 8.78333 15.9484 8.78333C15.5015 8.78333 15.0568 8.91703 14.645 9.19038Z" fill="#EBECF0"/>
<path opacity="0.14" d="M16 0C7.1657 0 0.00365613 7.15979 1.39936e-06 15.9932C4.66482e-07 15.9955 0 15.9977 0 16C0 16.0023 4.66088e-07 16.0045 1.39817e-06 16.0068C0.00182752 20.4224 1.79234 24.4198 4.68629 27.3137L27.3137 4.68629C24.4183 1.79086 20.4183 0 16 0Z" fill="white"/>
<path opacity="0.14" d="M21.2265 10.7735C21.1841 10.7243 21.1391 10.6757 21.0911 10.6277C20.7475 10.2841 20.2411 10.031 19.7408 9.92848C19.6143 9.90437 19.4816 9.88629 19.3551 9.88629C18.9874 9.88629 18.6197 9.98876 18.2459 10.1756C18.0953 9.67531 17.7939 9.27748 17.396 8.98211C16.9982 8.68072 16.5039 8.53003 15.9494 8.53003C15.449 8.53003 14.9548 8.68072 14.5027 8.98211C14.0988 9.27748 13.8035 9.72956 13.6528 10.1756C13.3092 9.98273 12.9294 9.9104 12.5195 9.9104C12.399 9.9104 12.2784 9.91642 12.1579 9.92848C11.6576 10.0249 11.2115 10.2238 10.8076 10.6277C10.4641 10.9713 10.2109 11.4776 10.1084 11.9779C10.012 12.4782 10.1084 12.9725 10.3556 13.4728C9.85524 13.6235 9.45741 13.9249 9.16205 14.3227C8.86668 14.7266 8.70996 15.2209 8.70996 15.7694C8.70996 16.2697 8.86066 16.764 9.16205 17.2161C9.45741 17.62 9.90949 17.9153 10.3556 18.066C10.1084 18.5181 10.0602 19.0124 10.1084 19.5609C10.1566 20.1094 10.4038 20.5073 10.8076 20.9111C10.8539 20.9574 10.9032 21.0021 10.955 21.045L21.2265 10.7735Z" fill="white"/>
</svg>
