<svg class="icon" viewBox="0 0 30 40" fill="none" xmlns="http://www.w3.org/2000/svg">
<path d="M5.06644 25.0624C5.03046 24.4867 5.48767 24 6.06449 24H23.9356C24.5124 24 24.9696 24.4867 24.9336 25.0624L24.1083 38.2674C24.0603 39.0365 23.1968 39.4645 22.5556 39.037L15.5547 34.3698C15.2188 34.1459 14.7812 34.1459 14.4453 34.3698L7.4445 39.037C6.80326 39.4645 5.93983 39.0365 5.89175 38.2674L5.06644 25.0624Z" fill="url(#medal-level6-paint0_linear_28552_186595)"/>
<path opacity="0.48" d="M19.2128 36.8085L17.0309 35.354C15.8011 34.5341 14.1989 34.5341 12.9691 35.354L10.7872 36.8085L10 25H20L19.2128 36.8085Z" fill="#F4F5F7"/>
<path d="M11.3821 0.913996C13.4971 -0.304665 16.1029 -0.304665 18.2179 0.913996L26.1821 5.50292C28.2971 6.72158 29.6 8.97376 29.6 11.4111V20.5889C29.6 23.0262 28.2971 25.2784 26.1821 26.4971L18.2179 31.086C16.1029 32.3047 13.4971 32.3047 11.3821 31.086L3.41791 26.4971C1.3029 25.2784 0 23.0262 0 20.5889V11.4111C0 8.97376 1.3029 6.72158 3.41791 5.50292L11.3821 0.913996Z" fill="url(#medal-level6-paint1_linear_28552_186595)"/>
<path opacity="0.5" d="M12.1213 3.7312C13.779 2.75627 15.8214 2.75627 17.4791 3.7312L23.7213 7.40233C25.379 8.37726 26.4002 10.179 26.4002 12.1289V19.4711C26.4002 21.421 25.379 23.2227 23.7213 24.1977L17.4791 27.8688C15.8214 28.8437 13.779 28.8437 12.1213 27.8688L5.8791 24.1977C4.22139 23.2227 3.2002 21.421 3.2002 19.4711V12.1289C3.2002 10.179 4.22139 8.37726 5.8791 7.40233L12.1213 3.7312Z" fill="#38AD5A"/>
<path d="M14.7996 8.79993C14.302 8.79993 13.8104 8.9498 13.3608 9.24955C12.9591 9.54331 12.6654 9.99293 12.5155 10.4366C12.1738 10.2447 11.7961 10.1728 11.3885 10.1728C11.2686 10.1728 11.1487 10.1788 11.0288 10.1908C10.5312 10.2867 10.0875 10.4845 9.68587 10.8862C9.34416 11.2279 9.09237 11.7315 8.99045 12.2291C8.89453 12.7267 8.99045 13.2182 9.23624 13.7158C8.73866 13.8657 8.34299 14.1655 8.04923 14.5611C7.75548 14.9628 7.59961 15.4544 7.59961 15.9999C7.59961 16.4975 7.74948 16.9891 8.04923 17.4387C8.34299 17.8404 8.79261 18.1341 9.23624 18.284C8.99045 18.7336 8.94249 19.2252 8.99045 19.7708C9.03841 20.3163 9.28421 20.712 9.68587 21.1137C10.0276 21.4554 10.5312 21.7072 11.0288 21.8091C11.1546 21.8331 11.2865 21.851 11.4124 21.851C11.7781 21.851 12.1438 21.7491 12.5155 21.5633C12.6654 22.0609 12.9651 22.4565 13.3608 22.7503C13.7625 23.0441 14.2541 23.1999 14.7996 23.1999C15.2972 23.1999 15.7888 23.05 16.2384 22.7503C16.6401 22.4565 16.9338 22.0069 17.0837 21.5633C17.4254 21.7551 17.8031 21.8271 18.2108 21.8271C18.3307 21.8271 18.4506 21.8211 18.5705 21.8091C19.068 21.7132 19.5117 21.5153 19.9133 21.1137C20.2551 20.7719 20.5069 20.2684 20.6088 19.7708C20.7047 19.2732 20.6088 18.7816 20.363 18.284C20.8606 18.1341 21.3042 17.8344 21.5979 17.3908C21.8437 16.9411 21.9996 16.4495 21.9996 15.9999C21.9996 15.5023 21.8497 15.0107 21.55 14.6091C21.2562 14.2074 20.8066 13.9137 20.363 13.7158C20.6088 13.2662 20.6567 12.7746 20.6088 12.2291C20.5128 11.7315 20.315 11.2879 19.9133 10.8862C19.5716 10.5445 19.068 10.2927 18.5705 10.1908C18.4446 10.1668 18.3127 10.1488 18.1868 10.1488C17.8211 10.1488 17.4554 10.2507 17.0837 10.4366C16.9338 9.93898 16.6341 9.54331 16.2384 9.24955C15.8427 8.9498 15.3511 8.79993 14.7996 8.79993Z" fill="#A5F5A5"/>
<path opacity="0.2" d="M25.7475 5.25251L18.2179 0.913996C16.1029 -0.304665 13.4971 -0.304665 11.3821 0.913996L3.41791 5.50292C1.3029 6.72158 0 8.97376 0 11.4111V20.5889C0 23.0262 1.3029 25.2784 3.41791 26.4971L4.10628 26.8937L6.46037 24.5396L5.87892 24.1977C4.22121 23.2227 3.20001 21.421 3.20001 19.4711V12.1289C3.20001 10.179 4.22121 8.37726 5.87892 7.40233L12.1211 3.7312C13.7788 2.75627 15.8212 2.75627 17.4789 3.7312L23.6434 7.35662L25.7475 5.25251Z" fill="white"/>
<path opacity="0.2" d="M20.0404 10.9594C20.021 10.9388 20.0011 10.9182 19.9807 10.8978C19.6371 10.5543 19.1308 10.3011 18.6305 10.1986C18.5039 10.1745 18.3713 10.1564 18.2447 10.1564C17.877 10.1564 17.5093 10.2589 17.1356 10.4458C16.9849 9.94545 16.6835 9.54762 16.2857 9.25226C15.8878 8.95087 15.3936 8.80017 14.839 8.80017C14.3387 8.80017 13.8444 8.95087 13.3923 9.25226C12.9885 9.54762 12.6931 9.9997 12.5424 10.4458C12.1988 10.2529 11.8191 10.1805 11.4092 10.1805C11.2886 10.1805 11.1681 10.1866 11.0475 10.1986C10.5472 10.2951 10.1011 10.494 9.69729 10.8978C9.3537 11.2414 9.10053 11.7478 8.99806 12.2481C8.90162 12.7484 8.99806 13.2427 9.2452 13.743C8.74489 13.8937 8.34706 14.1951 8.05169 14.5929C7.75633 14.9968 7.59961 15.491 7.59961 16.0396C7.59961 16.5399 7.7503 17.0342 8.05169 17.4862C8.34706 17.8901 8.79914 18.1855 9.2452 18.3362C8.99806 18.7882 8.94984 19.2825 8.99806 19.8311C9.04628 20.3796 9.29342 20.7774 9.69729 21.1813C9.71736 21.2014 9.738 21.2211 9.75915 21.2406L20.0404 10.9594Z" fill="white"/>
<defs>
<linearGradient id="medal-level6-paint0_linear_28552_186595" x1="15" y1="24" x2="15" y2="45.5" gradientUnits="userSpaceOnUse">
<stop stop-color="#20804E"/>
<stop offset="1" stop-color="#66DE7D"/>
</linearGradient>
<linearGradient id="medal-level6-paint1_linear_28552_186595" x1="51.8" y1="51.5" x2="-8.39904" y2="-2.80352" gradientUnits="userSpaceOnUse">
<stop stop-color="#4ABE6B"/>
<stop offset="1" stop-color="#8BEB95"/>
</linearGradient>
</defs>
</svg>
