<svg class="icon" viewBox="0 0 32 40" fill="none" xmlns="http://www.w3.org/2000/svg">
<path d="M6.06644 25.0624C6.03046 24.4867 6.48767 24 7.06449 24H24.9356C25.5124 24 25.9696 24.4867 25.9336 25.0624L25.1083 38.2674C25.0603 39.0365 24.1968 39.4645 23.5556 39.037L16.5547 34.3698C16.2188 34.1459 15.7812 34.1459 15.4453 34.3698L8.4445 39.037C7.80326 39.4645 6.93983 39.0365 6.89175 38.2674L6.06644 25.0624Z" fill="url(#medal-level10-paint0_linear_28552_186659)"/>
<path opacity="0.48" d="M20.2128 36.8085L18.0309 35.354C16.8011 34.5341 15.1989 34.5341 13.9691 35.354L11.7872 36.8085L11 25H21L20.2128 36.8085Z" fill="#F4F5F7"/>
<path d="M14.4371 0.310885C15.4378 -0.103629 16.5622 -0.103628 17.5629 0.310886L25.9887 3.80097C26.9895 4.21548 27.7845 5.01055 28.199 6.01128L31.6891 14.4371C32.1036 15.4378 32.1036 16.5622 31.6891 17.5629L28.199 25.9887C27.7845 26.9895 26.9894 27.7845 25.9887 28.199L17.5629 31.6891C16.5622 32.1036 15.4378 32.1036 14.4371 31.6891L6.01128 28.199C5.01055 27.7845 4.21548 26.9895 3.80096 25.9887L0.310885 17.5629C-0.103629 16.5622 -0.103628 15.4378 0.310886 14.4371L3.80097 6.01128C4.21548 5.01055 5.01055 4.21548 6.01128 3.80096L14.4371 0.310885Z" fill="url(#medal-level10-paint1_linear_28552_186659)"/>
<path opacity="0.5" d="M14.7301 3.25259C15.5432 2.9158 16.4568 2.9158 17.2699 3.25259L24.1158 6.08828C24.9289 6.42508 25.5749 7.07107 25.9117 7.88416L28.7474 14.7301C29.0842 15.5432 29.0842 16.4568 28.7474 17.2699L25.9117 24.1158C25.5749 24.9289 24.9289 25.5749 24.1158 25.9117L17.2699 28.7474C16.4568 29.0842 15.5432 29.0842 14.7301 28.7474L7.88416 25.9117C7.07107 25.5749 6.42508 24.9289 6.08828 24.1158L3.25259 17.2699C2.9158 16.4568 2.9158 15.5432 3.25259 14.7301L6.08828 7.88416C6.42508 7.07107 7.07107 6.42508 7.88416 6.08828L14.7301 3.25259Z" fill="#E99B26"/>
<path opacity="0.2" d="M27.3137 4.68629C26.938 4.31062 26.4891 4.00822 25.9887 3.80097L17.5629 0.310886C16.5622 -0.103628 15.4378 -0.103629 14.4371 0.310885L6.01128 3.80096C5.01055 4.21548 4.21548 5.01055 3.80097 6.01128L0.310886 14.4371C0.104068 14.9364 0.000440099 15.4665 1.39882e-06 15.9966C-4.66077e-07 15.9989 -4.66273e-07 16.0011 1.39823e-06 16.0034C0.000440006 16.5335 0.104068 17.0636 0.310885 17.5629L3.80096 25.9887C4.00822 26.4891 4.31062 26.938 4.68629 27.3137L6.80761 25.1924C6.50238 24.8872 6.25668 24.5224 6.08828 24.1158L3.25259 17.2699C2.9158 16.4568 2.9158 15.5432 3.25259 14.7301L6.08828 7.88416C6.42508 7.07107 7.07107 6.42508 7.88416 6.08828L14.7301 3.25259C15.5432 2.9158 16.4568 2.9158 17.2699 3.25259L24.1158 6.08828C24.5224 6.25668 24.8872 6.50238 25.1924 6.80761L27.3137 4.68629Z" fill="white"/>
<path d="M6.06644 25.0624C6.03046 24.4867 6.48767 24 7.06449 24H24.9356C25.5124 24 25.9696 24.4867 25.9336 25.0624L25.1083 38.2674C25.0603 39.0365 24.1968 39.4645 23.5556 39.037L16.5547 34.3698C16.2188 34.1459 15.7812 34.1459 15.4453 34.3698L8.4445 39.037C7.80326 39.4645 6.93983 39.0365 6.89175 38.2674L6.06644 25.0624Z" fill="url(#medal-level10-paint2_linear_28552_186659)"/>
<path opacity="0.48" d="M20.2128 36.8085L18.0309 35.354C16.8011 34.5341 15.1989 34.5341 13.9691 35.354L11.7872 36.8085L11 25H21L20.2128 36.8085Z" fill="#F4F5F7"/>
<path d="M14.4371 0.310885C15.4378 -0.103629 16.5622 -0.103628 17.5629 0.310886L25.9887 3.80097C26.9895 4.21548 27.7845 5.01055 28.199 6.01128L31.6891 14.4371C32.1036 15.4378 32.1036 16.5622 31.6891 17.5629L28.199 25.9887C27.7845 26.9895 26.9894 27.7845 25.9887 28.199L17.5629 31.6891C16.5622 32.1036 15.4378 32.1036 14.4371 31.6891L6.01128 28.199C5.01055 27.7845 4.21548 26.9895 3.80096 25.9887L0.310885 17.5629C-0.103629 16.5622 -0.103628 15.4378 0.310886 14.4371L3.80097 6.01128C4.21548 5.01055 5.01055 4.21548 6.01128 3.80096L14.4371 0.310885Z" fill="url(#medal-level10-paint3_linear_28552_186659)"/>
<path opacity="0.5" d="M14.7301 3.25259C15.5432 2.9158 16.4568 2.9158 17.2699 3.25259L24.1158 6.08828C24.9289 6.42508 25.5749 7.07107 25.9117 7.88416L28.7474 14.7301C29.0842 15.5432 29.0842 16.4568 28.7474 17.2699L25.9117 24.1158C25.5749 24.9289 24.9289 25.5749 24.1158 25.9117L17.2699 28.7474C16.4568 29.0842 15.5432 29.0842 14.7301 28.7474L7.88416 25.9117C7.07107 25.5749 6.42508 24.9289 6.08828 24.1158L3.25259 17.2699C2.9158 16.4568 2.9158 15.5432 3.25259 14.7301L6.08828 7.88416C6.42508 7.07107 7.07107 6.42508 7.88416 6.08828L14.7301 3.25259Z" fill="#98A4CD"/>
<path opacity="0.2" d="M27.3137 4.68629C26.938 4.31062 26.4891 4.00822 25.9887 3.80097L17.5629 0.310886C16.5622 -0.103628 15.4378 -0.103629 14.4371 0.310885L6.01128 3.80096C5.01055 4.21548 4.21548 5.01055 3.80097 6.01128L0.310886 14.4371C0.104068 14.9364 0.000440099 15.4665 1.39882e-06 15.9966C-4.66077e-07 15.9989 -4.66273e-07 16.0011 1.39823e-06 16.0034C0.000440006 16.5335 0.104068 17.0636 0.310885 17.5629L3.80096 25.9887C4.00822 26.4891 4.31062 26.938 4.68629 27.3137L6.80761 25.1924C6.50238 24.8872 6.25668 24.5224 6.08828 24.1158L3.25259 17.2699C2.9158 16.4568 2.9158 15.5432 3.25259 14.7301L6.08828 7.88416C6.42508 7.07107 7.07107 6.42508 7.88416 6.08828L14.7301 3.25259C15.5432 2.9158 16.4568 2.9158 17.2699 3.25259L24.1158 6.08828C24.5224 6.25668 24.8872 6.50238 25.1924 6.80761L27.3137 4.68629Z" fill="white"/>
<path d="M15.7996 9C15.302 9 14.8104 9.14988 14.3608 9.44963C13.9591 9.74338 13.6654 10.193 13.5155 10.6366C13.1738 10.4448 12.7961 10.3729 12.3885 10.3729C12.2686 10.3729 12.1487 10.3789 12.0288 10.3908C11.5312 10.4868 11.0875 10.6846 10.6859 11.0863C10.3442 11.428 10.0924 11.9316 9.99045 12.4291C9.89453 12.9267 9.99045 13.4183 10.2362 13.9159C9.73866 14.0658 9.34299 14.3655 9.04923 14.7612C8.75548 15.1629 8.59961 15.6545 8.59961 16.2C8.59961 16.6976 8.74948 17.1892 9.04923 17.6388C9.34299 18.0405 9.79261 18.3342 10.2362 18.4841C9.99045 18.9337 9.94249 19.4253 9.99045 19.9709C10.0384 20.5164 10.2842 20.9121 10.6859 21.3137C11.0276 21.6555 11.5312 21.9072 12.0288 22.0092C12.1546 22.0331 12.2865 22.0511 12.4124 22.0511C12.7781 22.0511 13.1438 21.9492 13.5155 21.7634C13.6654 22.2609 13.9651 22.6566 14.3608 22.9504C14.7625 23.2441 15.2541 23.4 15.7996 23.4C16.2972 23.4 16.7888 23.2501 17.2384 22.9504C17.6401 22.6566 17.9338 22.207 18.0837 21.7634C18.4254 21.9552 18.8031 22.0271 19.2108 22.0271C19.3307 22.0271 19.4506 22.0211 19.5705 22.0092C20.068 21.9132 20.5117 21.7154 20.9133 21.3137C21.2551 20.972 21.5069 20.4684 21.6088 19.9709C21.7047 19.4733 21.6088 18.9817 21.363 18.4841C21.8606 18.3342 22.3042 18.0345 22.5979 17.5908C22.8437 17.1412 22.9996 16.6496 22.9996 16.2C22.9996 15.7024 22.8497 15.2108 22.55 14.8092C22.2562 14.4075 21.8066 14.1137 21.363 13.9159C21.6088 13.4663 21.6567 12.9747 21.6088 12.4291C21.5128 11.9316 21.315 11.4879 20.9133 11.0863C20.5716 10.7445 20.068 10.4928 19.5705 10.3908C19.4446 10.3669 19.3127 10.3489 19.1868 10.3489C18.8211 10.3489 18.4554 10.4508 18.0837 10.6366C17.9338 10.1391 17.6341 9.74338 17.2384 9.44963C16.8427 9.14988 16.3511 9 15.7996 9Z" fill="#EBF2FE"/>
<path opacity="0.2" d="M21.0404 11.1594C21.021 11.1388 21.0011 11.1183 20.9807 11.0979C20.6371 10.7543 20.1308 10.5012 19.6305 10.3987C19.5039 10.3746 19.3713 10.3565 19.2447 10.3565C18.877 10.3565 18.5093 10.459 18.1356 10.6458C17.9849 10.1455 17.6835 9.74769 17.2857 9.45233C16.8878 9.15094 16.3936 9.00024 15.839 9.00024C15.3387 9.00024 14.8444 9.15094 14.3923 9.45233C13.9885 9.74769 13.6931 10.1998 13.5424 10.6458C13.1988 10.4529 12.8191 10.3806 12.4092 10.3806C12.2886 10.3806 12.1681 10.3866 12.0475 10.3987C11.5472 10.4951 11.1011 10.6941 10.6973 11.0979C10.3537 11.4415 10.1005 11.9478 9.99806 12.4481C9.90162 12.9485 9.99806 13.4427 10.2452 13.943C9.74489 14.0937 9.34706 14.3951 9.05169 14.793C8.75633 15.1968 8.59961 15.6911 8.59961 16.2396C8.59961 16.7399 8.7503 17.2342 9.05169 17.6863C9.34706 18.0902 9.79914 18.3855 10.2452 18.5362C9.99806 18.9883 9.94984 19.4826 9.99806 20.0311C10.0463 20.5797 10.2934 20.9775 10.6973 21.3814C10.7174 21.4014 10.738 21.4212 10.7592 21.4406L21.0404 11.1594Z" fill="white"/>
<defs>
<linearGradient id="medal-level10-paint0_linear_28552_186659" x1="16" y1="24" x2="16" y2="45.5" gradientUnits="userSpaceOnUse">
<stop stop-color="#A76013"/>
<stop offset="1" stop-color="#E99B26"/>
</linearGradient>
<linearGradient id="medal-level10-paint1_linear_28552_186659" x1="-27.2709" y1="16" x2="34.4752" y2="16" gradientUnits="userSpaceOnUse">
<stop stop-color="#E99B26"/>
<stop offset="1" stop-color="#FBD677"/>
</linearGradient>
<linearGradient id="medal-level10-paint2_linear_28552_186659" x1="16" y1="24" x2="16" y2="45.5" gradientUnits="userSpaceOnUse">
<stop stop-color="#494993"/>
<stop offset="1" stop-color="#7878C9"/>
</linearGradient>
<linearGradient id="medal-level10-paint3_linear_28552_186659" x1="20.5405" y1="17" x2="-8.24593" y2="1.72266" gradientUnits="userSpaceOnUse">
<stop stop-color="#CEDAEF"/>
<stop offset="1" stop-color="#E6F2FE"/>
</linearGradient>
</defs>
</svg>
