<svg class="icon" viewBox="0 0 32 40" fill="none" xmlns="http://www.w3.org/2000/svg">
<path d="M6.06646 25.0711C6.03018 24.4907 6.49114 24 7.0727 24H25.0904C25.672 24 26.1329 24.4907 26.0966 25.0711L25.2646 38.3844C25.2161 39.1599 24.3456 39.5914 23.6991 39.1604L16.6408 34.4549C16.3021 34.2291 15.861 34.2291 15.5223 34.4549L8.46403 39.1604C7.81752 39.5914 6.94701 39.1599 6.89854 38.3844L6.06646 25.0711Z" fill="url(#medal-level1-paint0_linear_28552_186545)"/>
<path opacity="0.48" d="M20.3294 36.9135L18.1298 35.4471C16.8899 34.6205 15.2746 34.6205 14.0346 35.4471L11.8347 36.9137L11.041 25.0085H21.1231L20.3294 36.9135Z" fill="#F4F5F7"/>
<path d="M32 16C32 24.8366 24.8366 32 16 32C7.16344 32 0 24.8366 0 16C0 7.16344 7.16344 0 16 0C24.8366 0 32 7.16344 32 16Z" fill="url(#medal-level1-paint1_linear_28552_186545)"/>
<path opacity="0.5" d="M28.8002 16C28.8002 23.0692 23.0694 28.8 16.0002 28.8C8.93095 28.8 3.2002 23.0692 3.2002 16C3.2002 8.93071 8.93095 3.19995 16.0002 3.19995C23.0694 3.19995 28.8002 8.93071 28.8002 16Z" fill="url(#medal-level1-paint2_radial_28552_186545)"/>
<path d="M15.9484 8.53333C15.4481 8.53333 14.9538 8.68402 14.5017 8.98541C14.0978 9.28077 13.8025 9.73286 13.6518 10.1789C13.3082 9.98603 12.9284 9.91369 12.5186 9.91369C12.398 9.91369 12.2774 9.91972 12.1569 9.93178C11.6566 10.0282 11.2105 10.2271 10.8067 10.631C10.4631 10.9746 10.2099 11.4809 10.1074 11.9812C10.011 12.4815 10.1074 12.9758 10.3546 13.4761C9.85427 13.6268 9.45643 13.9282 9.16107 14.326C8.86571 14.7299 8.70898 15.2242 8.70898 15.7727C8.70898 16.273 8.85968 16.7673 9.16107 17.2194C9.45643 17.6233 9.90852 17.9186 10.3546 18.0693C10.1074 18.5214 10.0592 19.0157 10.1074 19.5642C10.1557 20.1127 10.4028 20.5106 10.8067 20.9144C11.1502 21.258 11.6566 21.5112 12.1569 21.6137C12.2835 21.6378 12.4161 21.6559 12.5427 21.6559C12.9104 21.6559 13.2781 21.5534 13.6518 21.3665C13.8025 21.8668 14.1039 22.2647 14.5017 22.56C14.9056 22.8554 15.3998 23.0121 15.9484 23.0121C16.4487 23.0121 16.943 22.8614 17.3951 22.56C17.7989 22.2647 18.0943 21.8126 18.245 21.3665C18.5886 21.5594 18.9683 21.6317 19.3782 21.6317C19.4988 21.6317 19.6193 21.6257 19.7399 21.6137C20.2402 21.5172 20.6862 21.3183 21.0901 20.9144C21.4337 20.5708 21.6868 20.0645 21.7893 19.5642C21.8858 19.0639 21.7893 18.5696 21.5422 18.0693C22.0425 17.9186 22.4885 17.6172 22.7839 17.1712C23.031 16.7191 23.1878 16.2248 23.1878 15.7727C23.1878 15.2724 23.0371 14.7781 22.7357 14.3743C22.4403 13.9704 21.9882 13.675 21.5422 13.4761C21.7893 13.024 21.8375 12.5298 21.7893 11.9812C21.6929 11.4809 21.494 11.0349 21.0901 10.631C20.7465 10.2874 20.2402 10.0342 19.7399 9.93178C19.6133 9.90766 19.4807 9.88958 19.3541 9.88958C18.9864 9.88958 18.6187 9.99205 18.245 10.1789C18.0943 9.67861 17.7929 9.28077 17.3951 8.98541C16.9972 8.68402 16.5029 8.53333 15.9484 8.53333Z" fill="#EBC9A7"/>
<path opacity="0.14" d="M16 0C7.1657 0 0.00365613 7.15979 1.39936e-06 15.9932C4.66482e-07 15.9955 0 15.9977 0 16C0 16.0023 4.66088e-07 16.0045 1.39817e-06 16.0068C0.00182752 20.4224 1.79234 24.4198 4.68629 27.3137L6.94906 25.0509C4.63271 22.7346 3.20001 19.5346 3.20001 16C3.20001 8.93071 8.93077 3.19995 16 3.19995C19.5346 3.19995 22.7347 4.63265 25.051 6.949L27.3137 4.68629C24.4183 1.79086 20.4183 0 16 0Z" fill="white"/>
<path opacity="0.14" d="M21.2265 10.7735C21.1841 10.7243 21.1391 10.6757 21.0911 10.6277C20.7475 10.2841 20.2411 10.031 19.7408 9.92848C19.6143 9.90437 19.4816 9.88629 19.3551 9.88629C18.9874 9.88629 18.6197 9.98876 18.2459 10.1756C18.0953 9.67531 17.7939 9.27748 17.396 8.98211C16.9982 8.68072 16.5039 8.53003 15.9494 8.53003C15.449 8.53003 14.9548 8.68072 14.5027 8.98211C14.0988 9.27748 13.8035 9.72956 13.6528 10.1756C13.3092 9.98273 12.9294 9.9104 12.5195 9.9104C12.399 9.9104 12.2784 9.91642 12.1579 9.92848C11.6576 10.0249 11.2115 10.2238 10.8076 10.6277C10.4641 10.9713 10.2109 11.4776 10.1084 11.9779C10.012 12.4782 10.1084 12.9725 10.3556 13.4728C9.85524 13.6235 9.45741 13.9249 9.16205 14.3227C8.86668 14.7266 8.70996 15.2209 8.70996 15.7694C8.70996 16.2697 8.86066 16.764 9.16205 17.2161C9.45741 17.62 9.90949 17.9153 10.3556 18.066C10.1084 18.5181 10.0602 19.0124 10.1084 19.5609C10.1566 20.1094 10.4038 20.5073 10.8076 20.9111C10.8539 20.9574 10.9032 21.0021 10.955 21.045L21.2265 10.7735Z" fill="white"/>
<defs>
<linearGradient id="medal-level1-paint0_linear_28552_186545" x1="16.0815" y1="24" x2="16.1464" y2="38.5" gradientUnits="userSpaceOnUse">
<stop stop-color="#700E45"/>
<stop offset="1" stop-color="#A92556"/>
</linearGradient>
<linearGradient id="medal-level1-paint1_linear_28552_186545" x1="-27.2709" y1="16" x2="34.4752" y2="16" gradientUnits="userSpaceOnUse">
<stop stop-color="#775329"/>
<stop offset="1" stop-color="#B88965"/>
</linearGradient>
<radialGradient id="medal-level1-paint2_radial_28552_186545" cx="0" cy="0" r="1" gradientUnits="userSpaceOnUse" gradientTransform="translate(16.0002 16) rotate(90) scale(12.8)">
<stop offset="0.902055" stop-color="#D4A380"/>
<stop offset="1" stop-color="#88664B"/>
</radialGradient>
</defs>
</svg>
