<svg class="icon" viewBox="0 0 88 88" fill="none" xmlns="http://www.w3.org/2000/svg">
<g clip-path="url(#medal-level-3-clip0)">
<path d="M22.1461 55.1373C22.0669 53.8707 23.0728 52.8 24.3418 52.8H63.6582C64.9272 52.8 65.9331 53.8707 65.8539 55.1373L64.0382 84.1882C63.9325 85.8804 62.0329 86.822 60.6222 85.8815L45.2203 75.6136C44.4814 75.121 43.5186 75.121 42.7797 75.6136L27.3778 85.8815C25.9671 86.822 24.0675 85.8804 23.9618 84.1882L22.1461 55.1373Z" fill="url(#medal-level-3-paint0_linear)"/>
<mask id="medal-level-3-mask0" mask-type="alpha" maskUnits="userSpaceOnUse" x="22" y="52" width="44" height="36">
<path d="M22.5348 61.3574C22.245 56.7202 25.9278 52.8 30.5741 52.8H57.4259C62.0722 52.8 65.755 56.7202 65.4652 61.3574L63.8 88L48.4681 77.7788C45.7624 75.975 42.2376 75.975 39.5319 77.7788L24.2 88L22.5348 61.3574Z" fill="white"/>
</mask>
<g mask="url(#medal-level-3-mask0)">
<path opacity="0.48" d="M33 55H55L52.8 88H35.2L33 55Z" fill="#F4F5F7"/>
</g>
<path d="M36.0406 2.01079C40.6936 -0.670263 46.4264 -0.670263 51.0794 2.01079L68.6006 12.1064C73.2536 14.7875 76.12 19.7423 76.12 25.1044V45.2956C76.12 50.6577 73.2536 55.6125 68.6006 58.2936L51.0794 68.3892C46.4264 71.0703 40.6936 71.0703 36.0406 68.3892L18.5194 58.2936C13.8664 55.6125 11 50.6577 11 45.2956V25.1044C11 19.7423 13.8664 14.7875 18.5194 12.1064L36.0406 2.01079Z" fill="url(#medal-level-3-paint1_linear)"/>
<g opacity="0.5" filter="url(#medal-level-3-filter0_i)">
<path d="M37.6655 8.20861C41.3124 6.06376 45.8057 6.06377 49.4527 8.20861L63.1855 16.2851C66.8324 18.43 69.0791 22.3938 69.0791 26.6835V42.8365C69.0791 47.1262 66.8324 51.09 63.1855 53.2348L49.4526 61.3113C45.8057 63.4562 41.3124 63.4562 37.6655 61.3113L23.9327 53.2348C20.2857 51.09 18.0391 47.1262 18.0391 42.8365V26.6835C18.0391 22.3938 20.2857 18.43 23.9327 16.2851L37.6655 8.20861Z" fill="#E99B26"/>
</g>
<g filter="url(#medal-level-3-filter1_d)">
<path d="M43.5587 19.3599C42.4641 19.3599 41.3826 19.6896 40.3934 20.349C39.5097 20.9953 38.8635 21.9845 38.5337 22.9605C37.782 22.5384 36.9511 22.3801 36.0542 22.3801C35.7904 22.3801 35.5266 22.3933 35.2629 22.4197C34.1682 22.6307 33.1922 23.066 32.3085 23.9496C31.5568 24.7014 31.0028 25.8093 30.7786 26.904C30.5676 27.9987 30.7786 29.0802 31.3193 30.1748C30.2247 30.5046 29.3542 31.164 28.7079 32.0345C28.0617 32.9182 27.7188 33.9997 27.7188 35.1999C27.7188 36.2945 28.0485 37.376 28.7079 38.3652C29.3542 39.2489 30.3434 39.8951 31.3193 40.2249C30.7786 41.214 30.6731 42.2955 30.7786 43.4957C30.8841 44.6959 31.4249 45.5664 32.3085 46.4501C33.0603 47.2019 34.1682 47.7558 35.2629 47.98C35.5398 48.0328 35.83 48.0723 36.107 48.0723C36.9115 48.0723 37.716 47.8481 38.5337 47.4393C38.8635 48.5339 39.5229 49.4044 40.3934 50.0507C41.277 50.6969 42.3585 51.0399 43.5587 51.0399C44.6534 51.0399 45.7349 50.7101 46.7241 50.0507C47.6078 49.4044 48.254 48.4152 48.5838 47.4393C49.3355 47.8613 50.1664 48.0196 51.0633 48.0196C51.3271 48.0196 51.5908 48.0064 51.8546 47.98C52.9493 47.769 53.9253 47.3337 54.809 46.4501C55.5607 45.6983 56.1147 44.5904 56.3389 43.4957C56.5499 42.4011 56.3389 41.3196 55.7981 40.2249C56.8928 39.8951 57.8688 39.2357 58.5151 38.2597C59.0558 37.2705 59.3987 36.189 59.3987 35.1999C59.3987 34.1052 59.069 33.0237 58.4096 32.14C57.7633 31.2563 56.7741 30.6101 55.7981 30.1748C56.3389 29.1857 56.4444 28.1042 56.3389 26.904C56.1279 25.8093 55.6926 24.8333 54.809 23.9496C54.0572 23.1979 52.9493 22.6439 51.8546 22.4197C51.5777 22.367 51.2875 22.3274 51.0105 22.3274C50.206 22.3274 49.4015 22.5516 48.5838 22.9605C48.254 21.8658 47.5946 20.9953 46.7241 20.349C45.8536 19.6896 44.7721 19.3599 43.5587 19.3599Z" fill="#FBD677"/>
<path d="M43.5587 19.3599C42.4641 19.3599 41.3826 19.6896 40.3934 20.349C39.5097 20.9953 38.8635 21.9845 38.5337 22.9605C37.782 22.5384 36.9511 22.3801 36.0542 22.3801C35.7904 22.3801 35.5266 22.3933 35.2629 22.4197C34.1682 22.6307 33.1922 23.066 32.3085 23.9496C31.5568 24.7014 31.0028 25.8093 30.7786 26.904C30.5676 27.9987 30.7786 29.0802 31.3193 30.1748C30.2247 30.5046 29.3542 31.164 28.7079 32.0345C28.0617 32.9182 27.7188 33.9997 27.7188 35.1999C27.7188 36.2945 28.0485 37.376 28.7079 38.3652C29.3542 39.2489 30.3434 39.8951 31.3193 40.2249C30.7786 41.214 30.6731 42.2955 30.7786 43.4957C30.8841 44.6959 31.4249 45.5664 32.3085 46.4501C33.0603 47.2019 34.1682 47.7558 35.2629 47.98C35.5398 48.0328 35.83 48.0723 36.107 48.0723C36.9115 48.0723 37.716 47.8481 38.5337 47.4393C38.8635 48.5339 39.5229 49.4044 40.3934 50.0507C41.277 50.6969 42.3585 51.0399 43.5587 51.0399C44.6534 51.0399 45.7349 50.7101 46.7241 50.0507C47.6078 49.4044 48.254 48.4152 48.5838 47.4393C49.3355 47.8613 50.1664 48.0196 51.0633 48.0196C51.3271 48.0196 51.5908 48.0064 51.8546 47.98C52.9493 47.769 53.9253 47.3337 54.809 46.4501C55.5607 45.6983 56.1147 44.5904 56.3389 43.4957C56.5499 42.4011 56.3389 41.3196 55.7981 40.2249C56.8928 39.8951 57.8688 39.2357 58.5151 38.2597C59.0558 37.2705 59.3987 36.189 59.3987 35.1999C59.3987 34.1052 59.069 33.0237 58.4096 32.14C57.7633 31.2563 56.7741 30.6101 55.7981 30.1748C56.3389 29.1857 56.4444 28.1042 56.3389 26.904C56.1279 25.8093 55.6926 24.8333 54.809 23.9496C54.0572 23.1979 52.9493 22.6439 51.8546 22.4197C51.5777 22.367 51.2875 22.3274 51.0105 22.3274C50.206 22.3274 49.4015 22.5516 48.5838 22.9605C48.254 21.8658 47.5946 20.9953 46.7241 20.349C45.8536 19.6896 44.7721 19.3599 43.5587 19.3599Z" stroke="#C87C1B"/>
</g>
<mask id="medal-level-3-mask1" mask-type="alpha" maskUnits="userSpaceOnUse" x="11" y="0" width="66" height="71">
<path fill-rule="evenodd" clip-rule="evenodd" d="M51.0794 2.01079C46.4264 -0.670263 40.6936 -0.670263 36.0406 2.01079L18.5194 12.1064C13.8664 14.7875 11 19.7423 11 25.1044V45.2956C11 50.6577 13.8664 55.6125 18.5194 58.2936L36.0406 68.3892C40.6936 71.0703 46.4264 71.0703 51.0794 68.3892L68.6006 58.2936C73.2536 55.6125 76.12 50.6577 76.12 45.2956V25.1044C76.12 19.7423 73.2536 14.7875 68.6006 12.1064L51.0794 2.01079ZM49.4519 8.2086C45.8049 6.06376 41.3117 6.06376 37.6647 8.2086L23.9319 16.2851C20.2849 18.4299 18.0383 22.3938 18.0383 26.6835V42.8365C18.0383 47.1262 20.2849 51.09 23.9319 53.2348L37.6647 61.3113C41.3117 63.4562 45.8049 63.4562 49.4519 61.3113L63.1847 53.2348C66.8317 51.09 69.0783 47.1262 69.0783 42.8365V26.6835C69.0783 22.3938 66.8317 18.4299 63.1847 16.2851L49.4519 8.2086Z" fill="url(#medal-level-3-paint2_linear)"/>
</mask>
<g mask="url(#medal-level-3-mask1)">
<path opacity="0.2" d="M8.79923 2.4363e-05L8.79922 70.4L79.1992 3.05176e-05L8.79923 2.4363e-05Z" fill="white"/>
</g>
<mask id="medal-level-3-mask2" mask-type="alpha" maskUnits="userSpaceOnUse" x="27" y="19" width="33" height="33">
<path d="M43.6454 19.3601C42.5447 19.3601 41.4573 19.6916 40.4627 20.3547C39.5742 21.0045 38.9244 21.9991 38.5929 22.9804C37.837 22.556 37.0016 22.3969 36.0998 22.3969C35.8346 22.3969 35.5694 22.4102 35.3041 22.4367C34.2035 22.6489 33.2221 23.0865 32.3336 23.975C31.5777 24.7309 31.0208 25.8448 30.7953 26.9455C30.5832 28.0462 30.7953 29.1336 31.339 30.2343C30.2384 30.5658 29.3631 31.2289 28.7133 32.1041C28.0635 32.9926 27.7188 34.08 27.7188 35.2868C27.7188 36.3874 28.0503 37.4749 28.7133 38.4694C29.3631 39.3579 30.3577 40.0077 31.339 40.3393C30.7953 41.3339 30.6893 42.4213 30.7953 43.628C30.9014 44.8348 31.4451 45.71 32.3336 46.5985C33.0895 47.3544 34.2035 47.9114 35.3041 48.1368C35.5826 48.1899 35.8744 48.2297 36.1529 48.2297C36.9618 48.2297 37.7707 48.0042 38.5929 47.5931C38.9244 48.6938 39.5875 49.569 40.4627 50.2188C41.3512 50.8686 42.4386 51.2134 43.6454 51.2134C44.7461 51.2134 45.8335 50.8819 46.8281 50.2188C47.7166 49.569 48.3664 48.5745 48.6979 47.5931C49.4538 48.0175 50.2893 48.1766 51.191 48.1766C51.4562 48.1766 51.7215 48.1634 51.9867 48.1368C53.0874 47.9247 54.0687 47.487 54.9572 46.5985C55.7131 45.8427 56.27 44.7287 56.4955 43.628C56.7077 42.5274 56.4955 41.44 55.9518 40.3393C57.0525 40.0077 58.0338 39.3447 58.6836 38.3634C59.2273 37.3688 59.5721 36.2814 59.5721 35.2868C59.5721 34.1861 59.2405 33.0987 58.5775 32.2102C57.9277 31.3217 56.9331 30.6719 55.9518 30.2343C56.4955 29.2397 56.6016 28.1523 56.4955 26.9455C56.2833 25.8448 55.8457 24.8635 54.9572 23.975C54.2013 23.2191 53.0874 22.6621 51.9867 22.4367C51.7082 22.3837 51.4165 22.3439 51.138 22.3439C50.329 22.3439 49.5201 22.5693 48.6979 22.9804C48.3664 21.8797 47.7033 21.0045 46.8281 20.3547C45.9529 19.6916 44.8654 19.3601 43.6454 19.3601Z" fill="#EBC9A7"/>
</mask>
<g mask="url(#medal-level-3-mask2)">
<path opacity="0.2" d="M8.79923 2.4363e-05L8.79922 70.4L79.1992 3.05176e-05L8.79923 2.4363e-05Z" fill="white"/>
</g>
</g>
<defs>
<filter id="medal-level-3-filter0_i" x="18.0391" y="6.59998" width="51.04" height="56.32" filterUnits="userSpaceOnUse" color-interpolation-filters="sRGB">
<feFlood flood-opacity="0" result="BackgroundImageFix"/>
<feBlend mode="normal" in="SourceGraphic" in2="BackgroundImageFix" result="shape"/>
<feColorMatrix in="SourceAlpha" type="matrix" values="0 0 0 0 0 0 0 0 0 0 0 0 0 0 0 0 0 0 127 0" result="hardAlpha"/>
<feOffset/>
<feGaussianBlur stdDeviation="1.87"/>
<feComposite in2="hardAlpha" operator="arithmetic" k2="-1" k3="1"/>
<feColorMatrix type="matrix" values="0 0 0 0 0.654902 0 0 0 0 0.376471 0 0 0 0 0.0745098 0 0 0 1 0"/>
<feBlend mode="normal" in2="shape" result="effect1_innerShadow"/>
</filter>
<filter id="medal-level-3-filter1_d" x="24.5508" y="16.1919" width="38.016" height="38.016" filterUnits="userSpaceOnUse" color-interpolation-filters="sRGB">
<feFlood flood-opacity="0" result="BackgroundImageFix"/>
<feColorMatrix in="SourceAlpha" type="matrix" values="0 0 0 0 0 0 0 0 0 0 0 0 0 0 0 0 0 0 127 0"/>
<feOffset/>
<feGaussianBlur stdDeviation="1.584"/>
<feColorMatrix type="matrix" values="0 0 0 0 0.654902 0 0 0 0 0.376471 0 0 0 0 0.0745098 0 0 0 0.24 0"/>
<feBlend mode="normal" in2="BackgroundImageFix" result="effect1_dropShadow"/>
<feBlend mode="normal" in="SourceGraphic" in2="effect1_dropShadow" result="shape"/>
</filter>
<linearGradient id="medal-level-3-paint0_linear" x1="44" y1="52.8" x2="44" y2="100.1" gradientUnits="userSpaceOnUse">
<stop stop-color="#A76013"/>
<stop offset="1" stop-color="#E99B26"/>
</linearGradient>
<linearGradient id="medal-level-3-paint1_linear" x1="-44.4962" y1="35.2" x2="81.157" y2="35.2" gradientUnits="userSpaceOnUse">
<stop stop-color="#E99B26"/>
<stop offset="1" stop-color="#FBD677"/>
</linearGradient>
<linearGradient id="medal-level-3-paint2_linear" x1="-44.4963" y1="35.2" x2="81.1571" y2="35.2" gradientUnits="userSpaceOnUse">
<stop stop-color="#E99B26"/>
<stop offset="1" stop-color="#FBD677"/>
</linearGradient>
<clipPath id="medal-level-3-clip0">
<rect width="88" height="88" fill="white"/>
</clipPath>
</defs>
</svg>
