<svg class="icon" viewBox="0 0 72 72" fill="none" xmlns="http://www.w3.org/2000/svg">
<g clip-path="url(#medal-level-0-clip0)">
<path d="M18.1205 45.1282C18.0552 44.0834 18.8849 43.2002 19.9317 43.2002H52.3636C53.4104 43.2002 54.2401 44.0834 54.1748 45.1282L52.6771 69.0921C52.5898 70.488 51.0229 71.2647 49.8592 70.4889L37.1543 62.019C36.5447 61.6126 35.7506 61.6126 35.141 62.019L22.4361 70.4889C21.2724 71.2647 19.7055 70.488 19.6182 69.0921L18.1205 45.1282Z" fill="#F4F5F7"/>
<mask id="medal-level-0-mask0" mask-type="alpha" maskUnits="userSpaceOnUse" x="18" y="43" width="36" height="30">
<path d="M18.4412 50.2591C18.2021 46.4339 21.24 43.2002 25.0727 43.2002H47.2226C51.0553 43.2002 54.0932 46.4339 53.8541 50.2591L52.4806 72.2365L39.8333 63.805C37.6015 62.3171 34.6939 62.3171 32.462 63.805L19.8148 72.2365L18.4412 50.2591Z" fill="white"/>
</mask>
<g mask="url(#medal-level-0-mask0)">
<path opacity="0.9" d="M27.0742 45.0151H45.2219L43.4071 72.2366H28.889L27.0742 45.0151Z" fill="white"/>
</g>
<circle cx="35.9992" cy="28.8" r="28.35" fill="#FAFBFC" stroke="#EBECF0" stroke-width="0.9"/>
<path d="M35.9079 15.3599C35.0073 15.3599 34.1176 15.6311 33.3038 16.1736C32.5769 16.7053 32.0452 17.519 31.774 18.3219C31.1555 17.9747 30.472 17.8445 29.7342 17.8445C29.5172 17.8445 29.3002 17.8554 29.0832 17.8771C28.1826 18.0507 27.3797 18.4087 26.6528 19.1357C26.0343 19.7541 25.5786 20.6655 25.3942 21.5661C25.2206 22.4666 25.3942 23.3563 25.839 24.2569C24.9385 24.5282 24.2224 25.0707 23.6907 25.7868C23.1591 26.5137 22.877 27.4034 22.877 28.3908C22.877 29.2913 23.1482 30.181 23.6907 30.9948C24.2224 31.7217 25.0361 32.2534 25.839 32.5246C25.3942 33.3384 25.3074 34.2281 25.3942 35.2154C25.481 36.2028 25.9258 36.9189 26.6528 37.6459C27.2712 38.2643 28.1826 38.72 29.0832 38.9045C29.311 38.9479 29.5497 38.9804 29.7776 38.9804C30.4394 38.9804 31.1013 38.796 31.774 38.4596C32.0452 39.3602 32.5877 40.0763 33.3038 40.6079C34.0308 41.1396 34.9205 41.4217 35.9079 41.4217C36.8084 41.4217 37.6981 41.1504 38.5119 40.6079C39.2388 40.0763 39.7705 39.2625 40.0417 38.4596C40.6602 38.8068 41.3437 38.937 42.0815 38.937C42.2985 38.937 42.5155 38.9262 42.7325 38.9045C43.6331 38.7309 44.436 38.3728 45.1629 37.6459C45.7814 37.0274 46.2371 36.116 46.4216 35.2154C46.5952 34.3149 46.4216 33.4252 45.9767 32.5246C46.8773 32.2534 47.6802 31.7109 48.2118 30.908C48.6567 30.0942 48.9388 29.2045 48.9388 28.3908C48.9388 27.4902 48.6675 26.6005 48.125 25.8736C47.5934 25.1466 46.7796 24.615 45.9767 24.2569C46.4216 23.4431 46.5084 22.5534 46.4216 21.5661C46.248 20.6655 45.8899 19.8626 45.1629 19.1357C44.5445 18.5172 43.6331 18.0615 42.7325 17.8771C42.5047 17.8337 42.266 17.8011 42.0381 17.8011C41.3763 17.8011 40.7144 17.9856 40.0417 18.3219C39.7705 17.4214 39.228 16.7053 38.5119 16.1736C37.7958 15.6311 36.9061 15.3599 35.9079 15.3599Z" fill="#F4F5F7" stroke="#EBECF0" stroke-width="0.9"/>
<mask id="medal-level-0-mask1" mask-type="alpha" maskUnits="userSpaceOnUse" x="7" y="0" width="58" height="58">
<path d="M64.7992 28.8C64.7992 44.7058 51.905 57.6 35.9992 57.6C20.0934 57.6 7.19922 44.7058 7.19922 28.8C7.19922 12.8942 20.0934 0 35.9992 0C51.905 0 64.7992 12.8942 64.7992 28.8Z" fill="url(#medal-level-0-paint0_linear)"/>
</mask>
<g mask="url(#medal-level-0-mask1)">
<path opacity="0.14" d="M7.20079 9.41466e-05L7.20078 57.6001L64.8008 9.91821e-05L7.20079 9.41466e-05Z" fill="white"/>
</g>
<mask id="medal-level-0-mask2" mask-type="alpha" maskUnits="userSpaceOnUse" x="22" y="15" width="27" height="27">
<path d="M35.9098 15.3545C35.0093 15.3545 34.1196 15.6257 33.3058 16.1682C32.5788 16.6999 32.0472 17.5137 31.7759 18.3166C31.1575 17.9694 30.4739 17.8392 29.7361 17.8392C29.5191 17.8392 29.3021 17.85 29.0851 17.8717C28.1846 18.0453 27.3817 18.4034 26.6547 19.1303C26.0363 19.7488 25.5806 20.6602 25.3961 21.5607C25.2225 22.4613 25.3961 23.351 25.841 24.2515C24.9404 24.5228 24.2243 25.0653 23.6927 25.7814C23.161 26.5083 22.8789 27.398 22.8789 28.3854C22.8789 29.286 23.1502 30.1757 23.6927 30.9894C24.2243 31.7164 25.0381 32.248 25.841 32.5193C25.3961 33.333 25.3093 34.2227 25.3961 35.2101C25.4829 36.1974 25.9278 36.9135 26.6547 37.6405C27.2732 38.2589 28.1846 38.7146 29.0851 38.8991C29.313 38.9425 29.5517 38.975 29.7795 38.975C30.4414 38.975 31.1032 38.7906 31.7759 38.4542C32.0472 39.3548 32.5897 40.0709 33.3058 40.6026C34.0328 41.1342 34.9225 41.4163 35.9098 41.4163C36.8104 41.4163 37.7001 41.1451 38.5138 40.6026C39.2408 40.0709 39.7724 39.2571 40.0437 38.4542C40.6621 38.8014 41.3457 38.9316 42.0835 38.9316C42.3005 38.9316 42.5175 38.9208 42.7345 38.8991C43.635 38.7255 44.4379 38.3674 45.1649 37.6405C45.7834 37.022 46.2391 36.1106 46.4235 35.2101C46.5971 34.3095 46.4235 33.4198 45.9787 32.5193C46.8792 32.248 47.6821 31.7055 48.2138 30.9026C48.6586 30.0889 48.9407 29.1992 48.9407 28.3854C48.9407 27.4848 48.6695 26.5951 48.127 25.8682C47.5953 25.1412 46.7816 24.6096 45.9787 24.2515C46.4235 23.4378 46.5103 22.5481 46.4235 21.5607C46.2499 20.6602 45.8919 19.8573 45.1649 19.1303C44.5464 18.5119 43.635 18.0562 42.7345 17.8717C42.5066 17.8283 42.2679 17.7958 42.0401 17.7958C41.3782 17.7958 40.7164 17.9802 40.0437 18.3166C39.7724 17.416 39.2299 16.6999 38.5138 16.1682C37.7977 15.6257 36.908 15.3545 35.9098 15.3545Z" fill="#F4F5F7"/>
</mask>
<g mask="url(#medal-level-0-mask2)">
<path opacity="0.14" d="M7.20079 0.00107071L7.20078 57.6011L64.8008 0.00107574L7.20079 0.00107071Z" fill="white"/>
</g>
</g>
<defs>
<linearGradient id="medal-level-0-paint0_linear" x1="-41.8884" y1="28.8" x2="69.2546" y2="28.8" gradientUnits="userSpaceOnUse">
<stop stop-color="#775329"/>
<stop offset="1" stop-color="#B88965"/>
</linearGradient>
<clipPath id="medal-level-0-clip0">
<rect width="72" height="72" fill="white"/>
</clipPath>
</defs>
</svg>
