<svg class="icon"
     viewBox="0 0 40 40"
     fill="none"
     xmlns="http://www.w3.org/2000/svg"
>
    <path d="M10.0664 25.0624C10.0304 24.4867 10.4876 24 11.0645 24H28.9355C29.5124 24 29.9696 24.4867 29.9336 25.0624L29.1083 38.2674C29.0602 39.0365 28.1968 39.4645 27.5555 39.037L20.5547 34.3698C20.2188 34.1459 19.7812 34.1459 19.4453 34.3698L12.4445 39.037C11.8032 39.4645 10.9398 39.0365 10.8917 38.2674L10.0664 25.0624Z" fill="url(#medal-paint0_linear)"/>
    <mask id="medal-mask0" mask-type="alpha" maskUnits="userSpaceOnUse" x="10" y="24" width="20" height="16">
        <path d="M10.2431 27.8897C10.1114 25.7819 11.7854 24 13.8973 24H26.1027C28.2146 24 29.8886 25.7819 29.7569 27.8897L29 40L22.0309 35.354C20.8011 34.5341 19.1989 34.5341 17.9691 35.354L11 40L10.2431 27.8897Z" fill="white"/>
    </mask>
    <g mask="url(#medal-mask0)">
        <path d="M15 25H25L24 40H16L15 25Z" fill="#F4F5F7"/>
    </g>
    <g clip-path="url(#medal-clip0)">
        <path d="M19.9999 0C12.007 0 5.5 6.50707 5.5 14.5C5.5 22.4929 12.007 29 19.9999 29C27.9927 29 34.4997 22.4929 34.4997 14.5C34.5509 6.50707 28.0439 0 19.9999 0Z" fill="url(#medal-paint1_linear)"/>
        <mask id="medal-mask1" mask-type="alpha" maskUnits="userSpaceOnUse" x="5" y="0" width="30" height="29">
            <path d="M19.9999 0C12.007 0 5.5 6.50707 5.5 14.5C5.5 22.4929 12.007 29 19.9999 29C27.9927 29 34.4997 22.4929 34.4997 14.5C34.5509 6.50707 28.0439 0 19.9999 0Z" fill="url(#medal-paint2_linear)"/>
        </mask>
        <g mask="url(#medal-mask1)">
            <path d="M34.5 29V0L5.5 29H34.5Z" fill="url(#medal-paint3_linear)"/>
        </g>
        <path opacity="0.5" d="M20.0634 2.41663C13.4027 2.41663 7.98024 7.83918 7.98024 14.5C7.98024 21.1607 13.4027 26.5833 20.0634 26.5833C26.7242 26.5833 32.1467 21.1607 32.1467 14.5C32.1894 7.83918 26.7669 2.41663 20.0634 2.41663V2.41663Z" stroke="#E99B26" stroke-width="1.14792"/>
    </g>
    <path d="M27.9511 12.2309C27.877 12.0317 27.7438 11.8598 27.5695 11.7383C27.3951 11.6168 27.1878 11.5513 26.9752 11.5507H22.7502C22.6784 11.5507 22.6082 11.5284 22.5495 11.4869C22.4908 11.4454 22.4465 11.3867 22.4226 11.3188L20.906 7.02027C20.8317 6.82159 20.6985 6.65034 20.5243 6.52944C20.35 6.40854 20.1429 6.34375 19.9308 6.34375C19.7187 6.34375 19.5116 6.40854 19.3374 6.52944C19.1631 6.65034 19.0299 6.82159 18.9556 7.02027L18.9521 7.03137L17.439 11.3188C17.4152 11.3865 17.3709 11.4452 17.3124 11.4867C17.2538 11.5282 17.1838 11.5506 17.1121 11.5507H12.8857C12.6718 11.5505 12.463 11.6162 12.2878 11.7389C12.1125 11.8616 11.9794 12.0353 11.9063 12.2363C11.8333 12.4374 11.8239 12.6561 11.8796 12.8626C11.9352 13.0692 12.0531 13.2536 12.2173 13.3907L15.8155 16.3754C15.8693 16.42 15.9084 16.4799 15.9276 16.5472C15.9468 16.6144 15.9452 16.6859 15.9231 16.7523L14.4113 21.2854C14.3415 21.495 14.3401 21.7214 14.4074 21.9318C14.4747 22.1423 14.6072 22.3258 14.7857 22.456C14.9642 22.5861 15.1795 22.6561 15.4005 22.6558C15.6214 22.6555 15.8365 22.5849 16.0147 22.4543L19.7254 19.7334C19.7849 19.6898 19.8567 19.6663 19.9305 19.6663C20.0042 19.6663 20.0761 19.6898 20.1356 19.7334L23.8448 22.4536C24.0229 22.5847 24.2381 22.6557 24.4593 22.6562C24.6804 22.6568 24.896 22.587 25.0748 22.4569C25.2536 22.3267 25.3863 22.143 25.4536 21.9324C25.521 21.7218 25.5196 21.4952 25.4496 21.2854L23.9379 16.7495C23.9157 16.6831 23.9141 16.6116 23.9333 16.5444C23.9525 16.4771 23.9916 16.4172 24.0454 16.3726L27.6506 13.3838C27.8126 13.2455 27.9283 13.0607 27.9821 12.8546C28.0358 12.6484 28.025 12.4307 27.9511 12.2309Z" fill="#C87C1B"/>
    <defs>
        <linearGradient id="medal-paint0_linear" x1="20" y1="24" x2="20" y2="45.5" gradientUnits="userSpaceOnUse">
            <stop stop-color="#00A0DF"/>
            <stop offset="1" stop-color="#66C6EC"/>
        </linearGradient>
        <linearGradient id="medal-paint1_linear" x1="20.0636" y1="59.8125" x2="20.0636" y2="1.84018e-07" gradientUnits="userSpaceOnUse">
            <stop stop-color="#E99B26"/>
            <stop offset="1" stop-color="#FAC34B"/>
        </linearGradient>
        <linearGradient id="medal-paint2_linear" x1="20.0636" y1="59.8125" x2="20.0636" y2="1.84018e-07" gradientUnits="userSpaceOnUse">
            <stop stop-color="#413017"/>
            <stop offset="1" stop-color="#FAC34B"/>
        </linearGradient>
        <linearGradient id="medal-paint3_linear" x1="20.3625" y1="29" x2="30.5125" y2="4.7125" gradientUnits="userSpaceOnUse">
            <stop stop-color="#E99B26" stop-opacity="0.26"/>
            <stop offset="1" stop-color="#FAC34B"/>
        </linearGradient>
        <clipPath id="medal-clip0">
            <rect width="29" height="29" fill="white" transform="translate(5.5)"/>
        </clipPath>
    </defs>
</svg>
