<svg class="icon" viewBox="0 0 88 88" fill="none" xmlns="http://www.w3.org/2000/svg">
<g clip-path="url(#medal-level-2-clip0)">
<path d="M22.1473 55.1565C22.0675 53.8795 23.0816 52.8 24.361 52.8H64C65.2794 52.8 66.2935 53.8795 66.2137 55.1565L64.3831 84.4457C64.2765 86.1518 62.3613 87.1011 60.939 86.1529L45.4108 75.8008C44.6658 75.3041 43.6952 75.3041 42.9501 75.8008L27.4219 86.1529C25.9996 87.1011 24.0845 86.1518 23.9779 84.4457L22.1473 55.1565Z" fill="url(#medal-level-2-paint0_linear)"/>
<mask id="medal-level-2-mask0" mask-type="alpha" maskUnits="userSpaceOnUse" x="22" y="52" width="44" height="37">
<path d="M22.5392 61.4276C22.247 56.7524 25.96 52.8 30.6444 52.8H57.7165C62.4009 52.8 66.1139 56.7524 65.8217 61.4276L64.1429 88.2888L48.6852 77.9837C45.9574 76.1651 42.4036 76.1651 39.6758 77.9837L24.218 88.2888L22.5392 61.4276Z" fill="white"/>
</mask>
<g mask="url(#medal-level-2-mask0)">
<path opacity="0.48" d="M33.0898 55.0188H55.2703L53.0523 88.2895H35.3079L33.0898 55.0188Z" fill="#F4F5F7"/>
</g>
<circle cx="44.0008" cy="35.2" r="35.2" fill="url(#medal-level-2-paint1_linear)"/>
<g opacity="0.5" filter="url(#medal-level-2-filter0_i)">
<path d="M37.9603 8.69556C41.6273 6.53898 46.1451 6.53898 49.812 8.69556L63.62 16.8163C67.2869 18.9728 69.5458 22.9584 69.5458 27.2715V43.5129C69.5458 47.826 67.2869 51.8116 63.62 53.9682L49.812 62.0888C46.1451 64.2454 41.6273 64.2454 37.9603 62.0888L24.1524 53.9682C20.4855 51.8116 18.2266 47.826 18.2266 43.5129V27.2715C18.2266 22.9584 20.4855 18.9728 24.1524 16.8163L37.9603 8.69556Z" fill="#8894B1"/>
</g>
<g filter="url(#medal-level-2-filter1_d)">
<path d="M43.8856 19.468C42.785 19.468 41.6976 19.7995 40.703 20.4626C39.8145 21.1124 39.1647 22.107 38.8331 23.0883C38.0773 22.664 37.2418 22.5048 36.34 22.5048C36.0748 22.5048 35.8096 22.5181 35.5444 22.5446C34.4437 22.7568 33.4624 23.1944 32.5739 24.0829C31.818 24.8388 31.261 25.9527 31.0356 27.0534C30.8234 28.1541 31.0356 29.2415 31.5793 30.3422C30.4786 30.6737 29.6034 31.3368 28.9536 32.212C28.3038 33.1005 27.959 34.1879 27.959 35.3947C27.959 36.4954 28.2905 37.5828 28.9536 38.5774C29.6034 39.4659 30.598 40.1157 31.5793 40.4472C31.0356 41.4418 30.9295 42.5292 31.0356 43.736C31.1417 44.9427 31.6854 45.818 32.5739 46.7065C33.3298 47.4623 34.4437 48.0193 35.5444 48.2448C35.8229 48.2978 36.1146 48.3376 36.3931 48.3376C37.202 48.3376 38.0109 48.1121 38.8331 47.701C39.1647 48.8017 39.8277 49.677 40.703 50.3268C41.5915 50.9766 42.6789 51.3213 43.8856 51.3213C44.9863 51.3213 46.0737 50.9898 47.0683 50.3268C47.9568 49.677 48.6066 48.6824 48.9382 47.701C49.694 48.1254 50.5295 48.2845 51.4312 48.2845C51.6965 48.2845 51.9617 48.2713 52.2269 48.2448C53.3276 48.0326 54.3089 47.595 55.1974 46.7065C55.9533 45.9506 56.5103 44.8366 56.7357 43.736C56.9479 42.6353 56.7357 41.5479 56.192 40.4472C57.2927 40.1157 58.274 39.4526 58.9238 38.4713C59.4675 37.4767 59.8123 36.3893 59.8123 35.3947C59.8123 34.294 59.4808 33.2066 58.8177 32.3181C58.1679 31.4296 57.1733 30.7798 56.192 30.3422C56.7357 29.3476 56.8418 28.2602 56.7357 27.0534C56.5235 25.9527 56.0859 24.9714 55.1974 24.0829C54.4415 23.327 53.3276 22.77 52.2269 22.5446C51.9484 22.4916 51.6567 22.4518 51.3782 22.4518C50.5693 22.4518 49.7603 22.6772 48.9382 23.0883C48.6066 21.9876 47.9436 21.1124 47.0683 20.4626C46.1931 19.7995 45.1057 19.468 43.8856 19.468Z" fill="#E8E8E8"/>
</g>
<mask id="medal-level-2-mask1" mask-type="alpha" maskUnits="userSpaceOnUse" x="27" y="19" width="33" height="33">
<path d="M43.8915 19.4702C42.7908 19.4702 41.7034 19.8017 40.7088 20.4648C39.8203 21.1146 39.1705 22.1092 38.839 23.0905C38.0831 22.6662 37.2477 22.507 36.3459 22.507C36.0807 22.507 35.8155 22.5203 35.5502 22.5468C34.4496 22.759 33.4682 23.1966 32.5797 24.0851C31.8238 24.841 31.2669 25.9549 31.0414 27.0556C30.8293 28.1563 31.0414 29.2437 31.5851 30.3444C30.4845 30.6759 29.6092 31.339 28.9594 32.2142C28.3096 33.1027 27.9648 34.1901 27.9648 35.3969C27.9648 36.4976 28.2964 37.585 28.9594 38.5796C29.6092 39.4681 30.6038 40.1179 31.5851 40.4494C31.0414 41.444 30.9353 42.5314 31.0414 43.7382C31.1475 44.9449 31.6912 45.8202 32.5797 46.7087C33.3356 47.4645 34.4496 48.0215 35.5502 48.2469C35.8287 48.3 36.1205 48.3398 36.3989 48.3398C37.2079 48.3398 38.0168 48.1143 38.839 47.7032C39.1705 48.8039 39.8336 49.6792 40.7088 50.329C41.5973 50.9787 42.6847 51.3235 43.8915 51.3235C44.9922 51.3235 46.0796 50.992 47.0742 50.329C47.9627 49.6792 48.6125 48.6846 48.944 47.7032C49.6999 48.1276 50.5353 48.2867 51.4371 48.2867C51.7023 48.2867 51.9676 48.2735 52.2328 48.2469C53.3335 48.0348 54.3148 47.5972 55.2033 46.7087C55.9592 45.9528 56.5161 44.8388 56.7416 43.7382C56.9538 42.6375 56.7416 41.5501 56.1979 40.4494C57.2985 40.1179 58.2799 39.4548 58.9297 38.4735C59.4734 37.4789 59.8182 36.3915 59.8182 35.3969C59.8182 34.2962 59.4866 33.2088 58.8236 32.3203C58.1738 31.4318 57.1792 30.782 56.1979 30.3444C56.7416 29.3498 56.8477 28.2624 56.7416 27.0556C56.5294 25.9549 56.0918 24.9736 55.2033 24.0851C54.4474 23.3292 53.3335 22.7722 52.2328 22.5468C51.9543 22.4938 51.6626 22.454 51.3841 22.454C50.5751 22.454 49.7662 22.6794 48.944 23.0905C48.6125 21.9898 47.9494 21.1146 47.0742 20.4648C46.199 19.8017 45.1115 19.4702 43.8915 19.4702Z" fill="#EBC9A7"/>
</mask>
<g mask="url(#medal-level-2-mask1)">
<path opacity="0.24" d="M8.79923 -9.77073e-05L8.79922 70.3999L79.1992 -9.15527e-05L8.79923 -9.77073e-05Z" fill="white"/>
</g>
<mask id="medal-level-2-mask2" mask-type="alpha" maskUnits="userSpaceOnUse" x="8" y="0" width="72" height="71">
<path fill-rule="evenodd" clip-rule="evenodd" d="M44.0008 70.4C63.4412 70.4 79.2008 54.6404 79.2008 35.2C79.2008 15.7596 63.4412 0 44.0008 0C24.5604 0 8.80078 15.7596 8.80078 35.2C8.80078 54.6404 24.5604 70.4 44.0008 70.4ZM49.8128 8.69546C46.1459 6.53888 41.628 6.53888 37.9611 8.69546L24.1532 16.8162C20.4863 18.9727 18.2273 22.9583 18.2273 27.2714V43.5128C18.2273 47.826 20.4863 51.8115 24.1532 53.9681L37.9611 62.0887C41.628 64.2453 46.1459 64.2453 49.8128 62.0888L63.6208 53.9681C67.2877 51.8115 69.5466 47.826 69.5466 43.5128V27.2714C69.5466 22.9583 67.2877 18.9727 63.6208 16.8162L49.8128 8.69546Z" fill="url(#medal-level-2-paint2_linear)"/>
</mask>
<g mask="url(#medal-level-2-mask2)">
<path opacity="0.24" d="M8.79923 -9.77073e-05L8.79922 70.3999L79.1992 -9.15527e-05L8.79923 -9.77073e-05Z" fill="white"/>
</g>
</g>
<defs>
<filter id="medal-level-2-filter0_i" x="18.2266" y="7.07812" width="51.3192" height="56.6282" filterUnits="userSpaceOnUse" color-interpolation-filters="sRGB">
<feFlood flood-opacity="0" result="BackgroundImageFix"/>
<feBlend mode="normal" in="SourceGraphic" in2="BackgroundImageFix" result="shape"/>
<feColorMatrix in="SourceAlpha" type="matrix" values="0 0 0 0 0 0 0 0 0 0 0 0 0 0 0 0 0 0 127 0" result="hardAlpha"/>
<feOffset/>
<feGaussianBlur stdDeviation="1.88023"/>
<feComposite in2="hardAlpha" operator="arithmetic" k2="-1" k3="1"/>
<feColorMatrix type="matrix" values="0 0 0 0 0.258824 0 0 0 0 0.321569 0 0 0 0 0.431373 0 0 0 1 0"/>
<feBlend mode="normal" in2="shape" result="effect1_innerShadow"/>
</filter>
<filter id="medal-level-2-filter1_d" x="24.7737" y="16.2827" width="38.224" height="38.224" filterUnits="userSpaceOnUse" color-interpolation-filters="sRGB">
<feFlood flood-opacity="0" result="BackgroundImageFix"/>
<feColorMatrix in="SourceAlpha" type="matrix" values="0 0 0 0 0 0 0 0 0 0 0 0 0 0 0 0 0 0 127 0"/>
<feOffset/>
<feGaussianBlur stdDeviation="1.59267"/>
<feColorMatrix type="matrix" values="0 0 0 0 0.478431 0 0 0 0 0.52549 0 0 0 0 0.603922 0 0 0 0.24 0"/>
<feBlend mode="normal" in2="BackgroundImageFix" result="effect1_dropShadow"/>
<feBlend mode="normal" in="SourceGraphic" in2="effect1_dropShadow" result="shape"/>
</filter>
<linearGradient id="medal-level-2-paint0_linear" x1="44.1805" y1="52.8" x2="44.1805" y2="100.488" gradientUnits="userSpaceOnUse">
<stop stop-color="#344563"/>
<stop offset="1" stop-color="#6B778C"/>
</linearGradient>
<linearGradient id="medal-level-2-paint1_linear" x1="-51.1951" y1="35.2" x2="84.6462" y2="35.2" gradientUnits="userSpaceOnUse">
<stop stop-color="#7A869A"/>
<stop offset="1" stop-color="#DFE1E6"/>
</linearGradient>
<linearGradient id="medal-level-2-paint2_linear" x1="-51.1951" y1="35.2" x2="84.6462" y2="35.2" gradientUnits="userSpaceOnUse">
<stop stop-color="#7A869A"/>
<stop offset="1" stop-color="#DFE1E6"/>
</linearGradient>
<clipPath id="medal-level-2-clip0">
<rect width="88" height="88" fill="white"/>
</clipPath>
</defs>
</svg>
