<svg class="icon" viewBox="0 0 72 72" fill="none" xmlns="http://www.w3.org/2000/svg">
<g clip-path="url(#medal-level-4-clip0)">
<path d="M18.1215 45.1122C18.0567 44.076 18.8797 43.2 19.918 43.2H52.0859C53.1242 43.2 53.9472 44.076 53.8824 45.1122L52.3969 68.8812C52.3103 70.2657 50.7562 71.0361 49.6019 70.2666L37.0004 61.8656C36.3958 61.4625 35.6081 61.4625 35.0035 61.8656L22.402 70.2666C21.2477 71.0361 19.6936 70.2657 19.607 68.8812L18.1215 45.1122Z" fill="url(#medal-level-4-paint0_linear)"/>
<mask id="medal-level-4-mask0" mask-type="alpha" maskUnits="userSpaceOnUse" x="18" y="43" width="36" height="29">
<path d="M18.4395 50.2014C18.2024 46.4074 21.2156 43.2 25.0171 43.2H46.9868C50.7883 43.2 53.8015 46.4074 53.5644 50.2014L52.202 72L39.6576 63.6371C37.4439 62.1613 34.56 62.1613 32.3463 63.6371L19.802 72L18.4395 50.2014Z" fill="white"/>
</mask>
<g mask="url(#medal-level-4-mask0)">
<path opacity="0.48" d="M27.002 44.9998H45.002L43.202 71.9998H28.802L27.002 44.9998Z" fill="#F4F5F7"/>
</g>
<path d="M29.4897 1.64519C33.2967 -0.548397 37.9872 -0.548397 41.7942 1.64519L56.1297 9.90525C59.9367 12.0988 62.282 16.1528 62.282 20.5399V37.0601C62.282 41.4472 59.9367 45.5012 56.1297 47.6948L41.7942 55.9548C37.9872 58.1484 33.2967 58.1484 29.4897 55.9548L15.1542 47.6948C11.3472 45.5012 9.00195 41.4472 9.00195 37.0601V20.5399C9.00195 16.1528 11.3472 12.0988 15.1542 9.90525L29.4897 1.64519Z" fill="url(#medal-level-4-paint1_linear)"/>
<g opacity="0.5" filter="url(#medal-level-4-filter0_i)">
<path d="M33.3779 5.85457C34.8415 5.24835 36.4859 5.24835 37.9495 5.85457L50.2722 10.9588C51.7357 11.565 52.8985 12.7278 53.5048 14.1914L58.609 26.5141C59.2152 27.9777 59.2152 29.6221 58.609 31.0857L53.5048 43.4084C52.8985 44.872 51.7357 46.0348 50.2722 46.641L37.9494 51.7452C36.4859 52.3515 34.8415 52.3515 33.3779 51.7452L21.0552 46.641C19.5916 46.0348 18.4288 44.872 17.8226 43.4084L12.7183 31.0857C12.1121 29.6221 12.1121 27.9777 12.7183 26.5141L17.8226 14.1914C18.4288 12.7278 19.5916 11.565 21.0552 10.9588L33.3779 5.85457Z" fill="#98A4CD"/>
</g>
<g filter="url(#medal-level-4-filter1_d)">
<path d="M36.3604 16.2C35.4647 16.2 34.5799 16.4697 33.7705 17.0093C33.0475 17.538 32.5188 18.3474 32.249 19.1459C31.6339 18.8006 30.9541 18.6711 30.2203 18.6711C30.0045 18.6711 29.7887 18.6819 29.5728 18.7035C28.6772 18.8761 27.8787 19.2322 27.1557 19.9552C26.5406 20.5703 26.0874 21.4768 25.9039 22.3724C25.7312 23.2681 25.9039 24.1529 26.3463 25.0486C25.4507 25.3184 24.7385 25.8579 24.2097 26.5701C23.681 27.2931 23.4004 28.178 23.4004 29.1599C23.4004 30.0556 23.6702 30.9405 24.2097 31.7498C24.7385 32.4728 25.5478 33.0015 26.3463 33.2713C25.9039 34.0806 25.8176 34.9655 25.9039 35.9475C25.9902 36.9295 26.4327 37.6417 27.1557 38.3647C27.7707 38.9798 28.6772 39.433 29.5728 39.6164C29.7995 39.6596 30.0369 39.692 30.2635 39.692C30.9217 39.692 31.58 39.5085 32.249 39.174C32.5188 40.0697 33.0583 40.7819 33.7705 41.3106C34.4935 41.8394 35.3784 42.1199 36.3604 42.1199C37.256 42.1199 38.1409 41.8502 38.9502 41.3106C39.6732 40.7819 40.202 39.9725 40.4718 39.174C41.0868 39.5193 41.7667 39.6488 42.5005 39.6488C42.7163 39.6488 42.9321 39.638 43.1479 39.6164C44.0436 39.4438 44.8421 39.0877 45.5651 38.3647C46.1802 37.7496 46.6334 36.8431 46.8169 35.9475C46.9895 35.0518 46.8169 34.167 46.3744 33.2713C47.2701 33.0015 48.0686 32.462 48.5974 31.6635C49.0398 30.8541 49.3204 29.9693 49.3204 29.1599C49.3204 28.2643 49.0506 27.3794 48.5111 26.6564C47.9823 25.9334 47.173 25.4047 46.3744 25.0486C46.8169 24.2393 46.9032 23.3544 46.8169 22.3724C46.6442 21.4768 46.2881 20.6782 45.5651 19.9552C44.95 19.3401 44.0436 18.8869 43.1479 18.7035C42.9213 18.6603 42.6839 18.6279 42.4573 18.6279C41.7991 18.6279 41.1408 18.8114 40.4718 19.1459C40.202 18.2502 39.6624 17.538 38.9502 17.0093C38.238 16.4697 37.3532 16.2 36.3604 16.2Z" fill="#EBF2FE"/>
</g>
<mask id="medal-level-4-mask1" mask-type="alpha" maskUnits="userSpaceOnUse" x="23" y="16" width="27" height="27">
<path d="M36.4313 16.2C35.5307 16.2 34.641 16.4712 33.8273 17.0137C33.1003 17.5454 32.5687 18.3591 32.2974 19.162C31.679 18.8148 30.9954 18.6846 30.2576 18.6846C30.0406 18.6846 29.8236 18.6955 29.6066 18.7172C28.7061 18.8908 27.9032 19.2488 27.1762 19.9758C26.5578 20.5942 26.1021 21.5056 25.9176 22.4062C25.744 23.3067 25.9176 24.1964 26.3625 25.097C25.4619 25.3682 24.7458 25.9107 24.2141 26.6268C23.6825 27.3538 23.4004 28.2435 23.4004 29.2309C23.4004 30.1314 23.6716 31.0211 24.2141 31.8349C24.7458 32.5618 25.5595 33.0935 26.3625 33.3647C25.9176 34.1785 25.8308 35.0682 25.9176 36.0555C26.0044 37.0429 26.4493 37.759 27.1762 38.4859C27.7947 39.1044 28.7061 39.5601 29.6066 39.7446C29.8345 39.788 30.0732 39.8205 30.301 39.8205C30.9629 39.8205 31.6247 39.6361 32.2974 39.2997C32.5687 40.2003 33.1112 40.9164 33.8273 41.448C34.5542 41.9797 35.4439 42.2618 36.4313 42.2618C37.3319 42.2618 38.2216 41.9905 39.0353 41.448C39.7623 40.9164 40.2939 40.1026 40.5652 39.2997C41.1836 39.6469 41.8672 39.7771 42.605 39.7771C42.822 39.7771 43.039 39.7663 43.256 39.7446C44.1565 39.571 44.9594 39.2129 45.6864 38.4859C46.3048 37.8675 46.7605 36.9561 46.945 36.0555C47.1186 35.155 46.945 34.2653 46.5001 33.3647C47.4007 33.0935 48.2036 32.551 48.7352 31.7481C49.1801 30.9343 49.4622 30.0446 49.4622 29.2309C49.4622 28.3303 49.191 27.4406 48.6484 26.7136C48.1168 25.9867 47.303 25.455 46.5001 25.097C46.945 24.2832 47.0318 23.3935 46.945 22.4062C46.7714 21.5056 46.4133 20.7027 45.6864 19.9758C45.0679 19.3573 44.1565 18.9016 43.256 18.7172C43.0281 18.6738 42.7894 18.6412 42.5616 18.6412C41.8997 18.6412 41.2379 18.8257 40.5652 19.162C40.2939 18.2615 39.7514 17.5454 39.0353 17.0137C38.3192 16.4712 37.4295 16.2 36.4313 16.2Z" fill="#EBC9A7"/>
</mask>
<g mask="url(#medal-level-4-mask1)">
<path opacity="0.4" d="M7.20079 -0.000149994L7.20078 57.5998L64.8008 -0.000144958L7.20079 -0.000149994Z" fill="white"/>
</g>
<g opacity="0.4">
<mask id="medal-level-4-mask2" mask-type="alpha" maskUnits="userSpaceOnUse" x="7" y="0" width="58" height="58">
<path d="M7.20079 9.41466e-05L7.20078 57.6001L64.8008 9.91821e-05L7.20079 9.41466e-05Z" fill="white"/>
</mask>
<g mask="url(#medal-level-4-mask2)">
<path fill-rule="evenodd" clip-rule="evenodd" d="M41.7942 1.64519C37.9872 -0.548397 33.2967 -0.548397 29.4897 1.64519L15.1542 9.90525C11.3472 12.0988 9.00195 16.1528 9.00195 20.5399V37.0601C9.00195 41.4472 11.3472 45.5012 15.1542 47.6948L29.4897 55.9548C33.2967 58.1484 37.9872 58.1484 41.7942 55.9548L56.1297 47.6948C59.9367 45.5012 62.282 41.4472 62.282 37.0601V20.5399C62.282 16.1528 59.9367 12.0988 56.1297 9.90525L41.7942 1.64519ZM37.9502 5.85464C36.4867 5.24841 34.8422 5.24841 33.3787 5.85464L21.0559 10.9589C19.5924 11.5651 18.4296 12.7279 17.8234 14.1915L12.7191 26.5142C12.1129 27.9777 12.1129 29.6222 12.7191 31.0857L17.8234 43.4085C18.4296 44.872 19.5924 46.0348 21.0559 46.6411L33.3787 51.7453C34.8422 52.3515 36.4867 52.3515 37.9502 51.7453L50.273 46.6411C51.7365 46.0348 52.8993 44.872 53.5055 43.4085L58.6098 31.0857C59.216 29.6222 59.216 27.9778 58.6098 26.5142L53.5055 14.1915C52.8993 12.7279 51.7365 11.5651 50.273 10.9589L37.9502 5.85464Z" fill="white"/>
</g>
</g>
</g>
<defs>
<filter id="medal-level-4-filter0_i" x="12.2637" y="5.3999" width="46.8" height="46.8" filterUnits="userSpaceOnUse" color-interpolation-filters="sRGB">
<feFlood flood-opacity="0" result="BackgroundImageFix"/>
<feBlend mode="normal" in="SourceGraphic" in2="BackgroundImageFix" result="shape"/>
<feColorMatrix in="SourceAlpha" type="matrix" values="0 0 0 0 0 0 0 0 0 0 0 0 0 0 0 0 0 0 127 0" result="hardAlpha"/>
<feOffset/>
<feGaussianBlur stdDeviation="1.53837"/>
<feComposite in2="hardAlpha" operator="arithmetic" k2="-1" k3="1"/>
<feColorMatrix type="matrix" values="0 0 0 0 0.588235 0 0 0 0 0.666667 0 0 0 0 0.811765 0 0 0 1 0"/>
<feBlend mode="normal" in2="shape" result="effect1_innerShadow"/>
</filter>
<filter id="medal-level-4-filter1_d" x="20.8084" y="13.608" width="31.104" height="31.104" filterUnits="userSpaceOnUse" color-interpolation-filters="sRGB">
<feFlood flood-opacity="0" result="BackgroundImageFix"/>
<feColorMatrix in="SourceAlpha" type="matrix" values="0 0 0 0 0 0 0 0 0 0 0 0 0 0 0 0 0 0 127 0"/>
<feOffset/>
<feGaussianBlur stdDeviation="1.296"/>
<feColorMatrix type="matrix" values="0 0 0 0 0.541176 0 0 0 0 0.6 0 0 0 0 0.737255 0 0 0 1 0"/>
<feBlend mode="normal" in2="BackgroundImageFix" result="effect1_dropShadow"/>
<feBlend mode="normal" in="SourceGraphic" in2="effect1_dropShadow" result="shape"/>
</filter>
<linearGradient id="medal-level-4-paint0_linear" x1="36.002" y1="43.2" x2="36.002" y2="81.9" gradientUnits="userSpaceOnUse">
<stop stop-color="#494993"/>
<stop offset="1" stop-color="#7878C9"/>
</linearGradient>
<linearGradient id="medal-level-4-paint1_linear" x1="43.202" y1="30.6" x2="-6.29805" y2="6.3" gradientUnits="userSpaceOnUse">
<stop stop-color="#CEDAEF"/>
<stop offset="1" stop-color="#E6F2FE"/>
</linearGradient>
<clipPath id="medal-level-4-clip0">
<rect width="72" height="72" fill="white"/>
</clipPath>
</defs>
</svg>
