<svg class="icon"
     viewBox="0 0 40 40"
     fill="none"
     xmlns="http://www.w3.org/2000/svg"
>
    <g clip-path="url(#medicbox-clip0)">
        <path d="M1 18C1 15.7909 2.79086 14 5 14H35C37.2091 14 39 15.7909 39 18V31C39 33.2091 37.2091 35 35 35H5C2.79086 35 1 33.2091 1 31V18Z" fill="url(#medicbox-paint0_linear)"/>
        <path fill-rule="evenodd" clip-rule="evenodd" d="M20 6C17.2386 6 15 8.23858 15 11V16.5C15 17.0523 14.5523 17.5 14 17.5C13.4477 17.5 13 17.0523 13 16.5V11C13 7.13401 16.134 4 20 4C23.866 4 27 7.13401 27 11V16.5C27 17.0523 26.5523 17.5 26 17.5C25.4477 17.5 25 17.0523 25 16.5V11C25 8.23858 22.7614 6 20 6Z" fill="url(#medicbox-paint1_linear)"/>
        <path d="M0 14C0 11.7909 1.79086 10 4 10H36C38.2091 10 40 11.7909 40 14V17.3536C40 19.4062 38.4464 21.1256 36.4044 21.3331L20.4044 22.9589C20.1355 22.9862 19.8645 22.9862 19.5956 22.9589L3.59563 21.3331C1.55359 21.1256 0 19.4062 0 17.3536V14Z" fill="url(#medicbox-paint2_linear)"/>
        <circle cx="20" cy="23" r="7" fill="#F4F5F7"/>
        <path d="M24 23.8889C24 24.0068 23.9532 24.1198 23.8698 24.2032C23.7865 24.2865 23.6734 24.3333 23.5556 24.3333H21.7778C21.6599 24.3333 21.5469 24.3802 21.4635 24.4635C21.3802 24.5469 21.3333 24.6599 21.3333 24.7778V26.5556C21.3333 26.6734 21.2865 26.7865 21.2032 26.8698C21.1198 26.9532 21.0068 27 20.8889 27H19.1111C18.9932 27 18.8802 26.9532 18.7968 26.8698C18.7135 26.7865 18.6667 26.6734 18.6667 26.5556V24.7778C18.6667 24.6599 18.6198 24.5469 18.5365 24.4635C18.4531 24.3802 18.3401 24.3333 18.2222 24.3333H16.4444C16.3266 24.3333 16.2135 24.2865 16.1302 24.2032C16.0468 24.1198 16 24.0068 16 23.8889V22.1111C16 21.9932 16.0468 21.8802 16.1302 21.7968C16.2135 21.7135 16.3266 21.6667 16.4444 21.6667H18.2222C18.3401 21.6667 18.4531 21.6198 18.5365 21.5365C18.6198 21.4531 18.6667 21.3401 18.6667 21.2222V19.4444C18.6667 19.3266 18.7135 19.2135 18.7968 19.1302C18.8802 19.0468 18.9932 19 19.1111 19H20.8889C21.0068 19 21.1198 19.0468 21.2032 19.1302C21.2865 19.2135 21.3333 19.3266 21.3333 19.4444V21.2222C21.3333 21.3401 21.3802 21.4531 21.4635 21.5365C21.5469 21.6198 21.6599 21.6667 21.7778 21.6667H23.5556C23.6734 21.6667 23.7865 21.7135 23.8698 21.7968C23.9532 21.8802 24 21.9932 24 22.1111V23.8889Z" fill="#EB4B68"/>
    </g>
    <defs>
        <linearGradient id="medicbox-paint0_linear" x1="20" y1="8.5" x2="20" y2="39.2" gradientUnits="userSpaceOnUse">
            <stop stop-color="#F4F5F7"/>
            <stop offset="1" stop-color="#DFE1E6"/>
        </linearGradient>
        <linearGradient id="medicbox-paint1_linear" x1="4.06897" y1="33.7" x2="42.4962" y2="-13.9146" gradientUnits="userSpaceOnUse">
            <stop stop-color="#DFE1E6"/>
            <stop offset="1" stop-color="#DFE1E6"/>
        </linearGradient>
        <linearGradient id="medicbox-paint2_linear" x1="-25.5172" y1="38.6" x2="-6.34114" y2="-31.8991" gradientUnits="userSpaceOnUse">
            <stop stop-color="#DFE1E6"/>
            <stop offset="1" stop-color="#DFE1E6"/>
        </linearGradient>
        <clipPath id="medicbox-clip0">
            <rect width="40" height="40" fill="white"/>
        </clipPath>
    </defs>
</svg>
