<svg class="icon" viewBox="0 0 114 109" fill="none" xmlns="http://www.w3.org/2000/svg">
<g filter="url(#microapp-microillustration-filter0_d)">
<mask id="microapp-microillustration-path-1-outside-1" maskUnits="userSpaceOnUse" x="15.655" y="12.4291" width="82.0347" height="76.845" fill="black">
<rect fill="white" x="15.655" y="12.4291" width="82.0347" height="76.845"/>
<path fill-rule="evenodd" clip-rule="evenodd" d="M27.5685 26.1854C28.1455 21.6777 32.2675 18.4912 36.7753 19.0682L39.7984 19.4551L47.6579 20.4612L50.6811 20.8481C55.1888 21.4251 58.3753 25.5471 57.7983 30.0548L56.4054 40.9375C55.8284 45.4452 51.7064 48.6317 47.1986 48.0547L44.1755 47.6677L36.316 46.6617L33.2928 46.2748C28.7851 45.6978 25.5986 41.5758 26.1756 37.0681L27.5685 26.1854ZM32.4468 76.8897L29.4236 76.5028C24.9159 75.9258 21.7294 71.8038 22.3064 67.296L23.6994 56.4134C24.2764 51.9057 28.3983 48.7192 32.9061 49.2962L35.9293 49.6831L43.7887 50.6891L46.8119 51.0761C51.3196 51.6531 54.5061 55.7751 53.9292 60.2828L52.5362 71.1655C51.9592 75.6732 47.8372 78.8597 43.3295 78.2827L40.3063 77.8957L32.4468 76.8897ZM77.4276 51.924L80.4508 52.311C84.9585 52.888 89.0805 49.7015 89.6575 45.1938L91.0505 34.3111C91.6275 29.8034 88.441 25.6814 83.9332 25.1044L80.91 24.7174L73.0506 23.7114L70.0274 23.3244C65.5197 22.7475 61.3977 25.9339 60.8207 30.4417L59.4277 41.3243C58.8507 45.8321 62.0372 49.9541 66.545 50.531L69.5681 50.918L77.4276 51.924ZM76.5816 82.539L73.5584 82.152L65.699 81.146L62.6758 80.759C58.168 80.182 54.9815 76.0601 55.5585 71.5523L56.9515 60.6697C57.5285 56.1619 61.6505 52.9754 66.1582 53.5524L69.1814 53.9394L77.0409 54.9454L80.0641 55.3324C84.5718 55.9094 87.7583 60.0314 87.1813 64.5391L85.7883 75.4217C85.2113 79.9295 81.0893 83.116 76.5816 82.539Z"/>
</mask>
<path fill-rule="evenodd" clip-rule="evenodd" d="M27.5685 26.1854C28.1455 21.6777 32.2675 18.4912 36.7753 19.0682L39.7984 19.4551L47.6579 20.4612L50.6811 20.8481C55.1888 21.4251 58.3753 25.5471 57.7983 30.0548L56.4054 40.9375C55.8284 45.4452 51.7064 48.6317 47.1986 48.0547L44.1755 47.6677L36.316 46.6617L33.2928 46.2748C28.7851 45.6978 25.5986 41.5758 26.1756 37.0681L27.5685 26.1854ZM32.4468 76.8897L29.4236 76.5028C24.9159 75.9258 21.7294 71.8038 22.3064 67.296L23.6994 56.4134C24.2764 51.9057 28.3983 48.7192 32.9061 49.2962L35.9293 49.6831L43.7887 50.6891L46.8119 51.0761C51.3196 51.6531 54.5061 55.7751 53.9292 60.2828L52.5362 71.1655C51.9592 75.6732 47.8372 78.8597 43.3295 78.2827L40.3063 77.8957L32.4468 76.8897ZM77.4276 51.924L80.4508 52.311C84.9585 52.888 89.0805 49.7015 89.6575 45.1938L91.0505 34.3111C91.6275 29.8034 88.441 25.6814 83.9332 25.1044L80.91 24.7174L73.0506 23.7114L70.0274 23.3244C65.5197 22.7475 61.3977 25.9339 60.8207 30.4417L59.4277 41.3243C58.8507 45.8321 62.0372 49.9541 66.545 50.531L69.5681 50.918L77.4276 51.924ZM76.5816 82.539L73.5584 82.152L65.699 81.146L62.6758 80.759C58.168 80.182 54.9815 76.0601 55.5585 71.5523L56.9515 60.6697C57.5285 56.1619 61.6505 52.9754 66.1582 53.5524L69.1814 53.9394L77.0409 54.9454L80.0641 55.3324C84.5718 55.9094 87.7583 60.0314 87.1813 64.5391L85.7883 75.4217C85.2113 79.9295 81.0893 83.116 76.5816 82.539Z" fill="white"/>
<path d="M39.7984 19.4551L39.1636 24.4147L39.7984 19.4551ZM47.6579 20.4612L48.2927 15.5016L47.6579 20.4612ZM50.6811 20.8481L50.0463 25.8077L50.6811 20.8481ZM36.316 46.6617L36.9508 41.7022L36.316 46.6617ZM33.2928 46.2748L32.658 51.2343L33.2928 46.2748ZM32.4468 76.8897L33.0816 71.9302L32.4468 76.8897ZM53.9292 60.2828L48.9696 59.648L53.9292 60.2828ZM52.5362 71.1655L57.4957 71.8003L52.5362 71.1655ZM43.3295 78.2827L43.9643 73.3232L43.3295 78.2827ZM40.3063 77.8957L39.6715 82.8553L40.3063 77.8957ZM83.9332 25.1044L84.5681 20.1449L83.9332 25.1044ZM80.91 24.7174L80.2752 29.677L80.91 24.7174ZM73.0506 23.7114L72.4158 28.671L73.0506 23.7114ZM70.0274 23.3244L70.6622 18.3649L70.0274 23.3244ZM66.1582 53.5524L66.793 48.5929L66.1582 53.5524ZM69.1814 53.9394L68.5466 58.8989L69.1814 53.9394ZM77.0409 54.9454L76.406 59.9049L77.0409 54.9454ZM80.0641 55.3324L80.6989 50.3728L80.0641 55.3324ZM87.1813 64.5391L82.2218 63.9043L87.1813 64.5391ZM85.7883 75.4217L90.7479 76.0566L85.7883 75.4217ZM37.4101 14.1086C30.1633 13.181 23.5366 18.3038 22.609 25.5506L32.5281 26.8202C32.7545 25.0516 34.3718 23.8013 36.1404 24.0277L37.4101 14.1086ZM40.4333 14.4956L37.4101 14.1086L36.1404 24.0277L39.1636 24.4147L40.4333 14.4956ZM48.2927 15.5016L40.4333 14.4956L39.1636 24.4147L47.0231 25.4207L48.2927 15.5016ZM51.3159 15.8886L48.2927 15.5016L47.0231 25.4207L50.0463 25.8077L51.3159 15.8886ZM62.7579 30.6897C63.6855 23.4428 58.5627 16.8162 51.3159 15.8886L50.0463 25.8077C51.8149 26.034 53.0652 27.6513 52.8388 29.42L62.7579 30.6897ZM61.3649 41.5723L62.7579 30.6897L52.8388 29.42L51.4458 40.3027L61.3649 41.5723ZM46.5638 53.0143C53.8106 53.9418 60.4373 48.8191 61.3649 41.5723L51.4458 40.3027C51.2194 42.0713 49.6021 43.3216 47.8335 43.0952L46.5638 53.0143ZM43.5406 52.6273L46.5638 53.0143L47.8335 43.0952L44.8103 42.7082L43.5406 52.6273ZM35.6812 51.6213L43.5406 52.6273L44.8103 42.7082L36.9508 41.7022L35.6812 51.6213ZM32.658 51.2343L35.6812 51.6213L36.9508 41.7022L33.9276 41.3152L32.658 51.2343ZM21.216 36.4332C20.2884 43.68 25.4112 50.3067 32.658 51.2343L33.9276 41.3152C32.159 41.0888 30.9087 39.4715 31.1351 37.7029L21.216 36.4332ZM22.609 25.5506L21.216 36.4332L31.1351 37.7029L32.5281 26.8202L22.609 25.5506ZM28.7888 81.4623L31.812 81.8493L33.0816 71.9302L30.0584 71.5432L28.7888 81.4623ZM17.3469 66.6612C16.4193 73.908 21.542 80.5347 28.7888 81.4623L30.0584 71.5432C28.2898 71.3168 27.0395 69.6995 27.2659 67.9309L17.3469 66.6612ZM18.7398 55.7786L17.3469 66.6612L27.2659 67.9309L28.6589 57.0482L18.7398 55.7786ZM33.5409 44.3366C26.2941 43.409 19.6674 48.5318 18.7398 55.7786L28.6589 57.0482C28.8853 55.2796 30.5026 54.0293 32.2713 54.2557L33.5409 44.3366ZM36.5641 44.7236L33.5409 44.3366L32.2713 54.2557L35.2944 54.6427L36.5641 44.7236ZM44.4235 45.7296L36.5641 44.7236L35.2944 54.6427L43.1539 55.6487L44.4235 45.7296ZM47.4467 46.1166L44.4235 45.7296L43.1539 55.6487L46.1771 56.0356L47.4467 46.1166ZM58.8887 60.9176C59.8163 53.6708 54.6935 47.0442 47.4467 46.1166L46.1771 56.0356C47.9457 56.262 49.196 57.8793 48.9696 59.648L58.8887 60.9176ZM57.4957 71.8003L58.8887 60.9176L48.9696 59.648L47.5766 70.5306L57.4957 71.8003ZM42.6946 83.2422C49.9414 84.1698 56.5681 79.0471 57.4957 71.8003L47.5766 70.5306C47.3502 72.2993 45.7329 73.5496 43.9643 73.3232L42.6946 83.2422ZM39.6715 82.8553L42.6946 83.2422L43.9643 73.3232L40.9411 72.9362L39.6715 82.8553ZM31.812 81.8493L39.6715 82.8553L40.9411 72.9362L33.0816 71.9302L31.812 81.8493ZM81.0856 47.3515L78.0624 46.9645L76.7928 56.8836L79.816 57.2705L81.0856 47.3515ZM84.698 44.5589C84.4716 46.3276 82.8543 47.5778 81.0856 47.3515L79.816 57.2705C87.0628 58.1981 93.6894 53.0754 94.617 45.8286L84.698 44.5589ZM86.0909 33.6763L84.698 44.5589L94.617 45.8286L96.01 34.9459L86.0909 33.6763ZM83.2984 30.0639C85.0671 30.2903 86.3173 31.9076 86.0909 33.6763L96.01 34.9459C96.9376 27.6991 91.8149 21.0724 84.5681 20.1449L83.2984 30.0639ZM80.2752 29.677L83.2984 30.0639L84.5681 20.1449L81.5449 19.7579L80.2752 29.677ZM72.4158 28.671L80.2752 29.677L81.5449 19.7579L73.6854 18.7519L72.4158 28.671ZM69.3926 28.284L72.4158 28.671L73.6854 18.7519L70.6622 18.3649L69.3926 28.284ZM65.7802 31.0765C66.0066 29.3079 67.6239 28.0576 69.3926 28.284L70.6622 18.3649C63.4154 17.4373 56.7887 22.56 55.8612 29.8069L65.7802 31.0765ZM64.3872 41.9592L65.7802 31.0765L55.8612 29.8069L54.4682 40.6895L64.3872 41.9592ZM67.1798 45.5715C65.4111 45.3451 64.1609 43.7278 64.3872 41.9592L54.4682 40.6895C53.5406 47.9363 58.6633 54.563 65.9101 55.4906L67.1798 45.5715ZM70.203 45.9585L67.1798 45.5715L65.9101 55.4906L68.9333 55.8776L70.203 45.9585ZM78.0624 46.9645L70.203 45.9585L68.9333 55.8776L76.7928 56.8836L78.0624 46.9645ZM72.9236 87.1116L75.9468 87.4985L77.2164 77.5794L74.1932 77.1925L72.9236 87.1116ZM74.1932 77.1925L66.3338 76.1865L65.0641 86.1055L72.9236 87.1116L74.1932 77.1925ZM66.3338 76.1865L63.3106 75.7995L62.0409 85.7186L65.0641 86.1055L66.3338 76.1865ZM63.3106 75.7995C61.5419 75.5731 60.2917 73.9558 60.5181 72.1871L50.599 70.9175C49.6714 78.1643 54.7941 84.791 62.0409 85.7186L63.3106 75.7995ZM60.5181 72.1871L61.911 61.3045L51.992 60.0349L50.599 70.9175L60.5181 72.1871ZM61.911 61.3045C62.1374 59.5358 63.7547 58.2856 65.5234 58.512L66.793 48.5929C59.5462 47.6653 52.9196 52.788 51.992 60.0349L61.911 61.3045ZM65.5234 58.512L68.5466 58.8989L69.8162 48.9799L66.793 48.5929L65.5234 58.512ZM68.5466 58.8989L76.406 59.9049L77.6757 49.9859L69.8162 48.9799L68.5466 58.8989ZM80.6989 50.3728L77.6757 49.9859L76.406 59.9049L79.4292 60.2919L80.6989 50.3728ZM92.1408 65.1739C93.0684 57.9271 87.9457 51.3004 80.6989 50.3728L79.4292 60.2919C81.1979 60.5183 82.4481 62.1356 82.2218 63.9043L92.1408 65.1739ZM90.7479 76.0566L92.1408 65.1739L82.2218 63.9043L80.8288 74.7869L90.7479 76.0566ZM75.9468 87.4985C83.1936 88.4261 89.8203 83.3034 90.7479 76.0566L80.8288 74.7869C80.6024 76.5556 78.9851 77.8058 77.2164 77.5794L75.9468 87.4985Z" fill="white" mask="url(#microapp-microillustration-path-1-outside-1)"/>
</g>
<rect x="54.8213" y="49.5586" width="4" height="3" transform="rotate(7.2942 54.8213 49.5586)" fill="white"/>
<g clip-path="url(#microapp-microillustration-clip0)">
<rect x="27.7656" y="48.6445" width="27.4286" height="27.4286" rx="8.22857" transform="rotate(7.2942 27.7656 48.6445)" fill="#CA365F"/>
<rect x="31.6367" y="18.4141" width="27.4286" height="27.4286" rx="8.22857" transform="rotate(7.2942 31.6367 18.4141)" fill="#007CBF"/>
<rect x="28.6133" y="18.0273" width="27.4286" height="27.4286" rx="8.22857" transform="rotate(7.2942 28.6133 18.0273)" fill="url(#microapp-microillustration-paint0_linear)"/>
<rect x="64.8896" y="22.6719" width="27.4286" height="27.4286" rx="8.22857" transform="rotate(7.2942 64.8896 22.6719)" fill="#D79F36"/>
<rect x="61.8662" y="22.2852" width="27.4286" height="27.4286" rx="8.22857" transform="rotate(7.2942 61.8662 22.2852)" fill="url(#microapp-microillustration-paint1_linear)"/>
<rect x="24.7441" y="48.2578" width="27.4286" height="27.4286" rx="8.22857" transform="rotate(7.2942 24.7441 48.2578)" fill="url(#microapp-microillustration-paint2_linear)"/>
<rect x="61.0195" y="52.9023" width="27.4286" height="27.4286" rx="8.22857" transform="rotate(7.2942 61.0195 52.9023)" fill="#4ABE6B"/>
<rect x="57.9961" y="52.5156" width="27.4286" height="27.4286" rx="8.22857" transform="rotate(7.2942 57.9961 52.5156)" fill="url(#microapp-microillustration-paint3_linear)"/>
</g>
<defs>
<filter id="microapp-microillustration-filter0_d" x="0.327868" y="0.925345" width="112.701" height="107.427" filterUnits="userSpaceOnUse" color-interpolation-filters="sRGB">
<feFlood flood-opacity="0" result="BackgroundImageFix"/>
<feColorMatrix in="SourceAlpha" type="matrix" values="0 0 0 0 0 0 0 0 0 0 0 0 0 0 0 0 0 0 127 0"/>
<feOffset dy="3.83478"/>
<feGaussianBlur stdDeviation="7.66956"/>
<feColorMatrix type="matrix" values="0 0 0 0 0 0 0 0 0 0 0 0 0 0 0 0 0 0 0.24 0"/>
<feBlend mode="normal" in2="BackgroundImageFix" result="effect1_dropShadow"/>
<feBlend mode="normal" in="SourceGraphic" in2="effect1_dropShadow" result="shape"/>
</filter>
<linearGradient id="microapp-microillustration-paint0_linear" x1="42.3276" y1="18.0273" x2="42.3276" y2="84.6396" gradientUnits="userSpaceOnUse">
<stop stop-color="#00A0DF"/>
<stop offset="1" stop-color="#007CBF"/>
</linearGradient>
<linearGradient id="microapp-microillustration-paint1_linear" x1="75.6407" y1="78.8566" x2="75.6407" y2="22.2852" gradientUnits="userSpaceOnUse">
<stop stop-color="#E99B26"/>
<stop offset="1" stop-color="#FAC34B"/>
</linearGradient>
<linearGradient id="microapp-microillustration-paint2_linear" x1="38.4584" y1="48.2578" x2="34.9741" y2="104.187" gradientUnits="userSpaceOnUse">
<stop stop-color="#EB4B68"/>
<stop offset="1" stop-color="#CA365F"/>
</linearGradient>
<linearGradient id="microapp-microillustration-paint3_linear" x1="71.7104" y1="52.5156" x2="71.7104" y2="100.516" gradientUnits="userSpaceOnUse">
<stop stop-color="#66DE7D"/>
<stop offset="1" stop-color="#4ABE6B"/>
</linearGradient>
<clipPath id="microapp-microillustration-clip0">
<rect width="64" height="64" fill="white" transform="translate(29 15) rotate(7.2942)"/>
</clipPath>
</defs>
</svg>
