<svg class="icon" viewBox="0 0 40 40" fill="none" xmlns="http://www.w3.org/2000/svg">
<g clip-path="url(#clip0-micro-tools)">
<path opacity="0.5" fill-rule="evenodd" clip-rule="evenodd" d="M9.87591 14.9567C9.73427 14.9186 9.5851 14.9187 9.44347 14.9567C8.17163 15.2978 6.8324 15.298 5.56045 14.9573C4.2885 14.6166 3.12866 13.9471 2.19755 13.016C1.26645 12.0849 0.596892 10.925 0.256213 9.65308C-0.0844661 8.38113 -0.0842615 7.0419 0.256806 5.77005C0.294568 5.62881 0.368824 5.49999 0.472118 5.39652C0.575413 5.29306 0.70411 5.21859 0.845289 5.18059C0.986468 5.14259 1.13516 5.14241 1.27643 5.18005C1.4177 5.21769 1.54659 5.29184 1.65014 5.39505L4.13847 7.88672C4.27309 8.02085 4.44951 8.10494 4.63847 8.12505L7.29014 8.42005C7.41431 8.4338 7.53997 8.41946 7.65785 8.37809C7.77572 8.33672 7.88279 8.26937 7.97113 8.18104C8.05946 8.0927 8.12681 7.98564 8.16818 7.86776C8.20955 7.74989 8.22389 7.62422 8.21014 7.50005L7.91681 4.85839C7.89624 4.6692 7.81155 4.49276 7.67681 4.35839L5.18514 1.85839C5.08193 1.75483 5.00778 1.62595 4.97014 1.48468C4.93249 1.3434 4.93268 1.19471 4.97068 1.05353C5.00867 0.912356 5.08314 0.783658 5.18661 0.680364C5.29008 0.577069 5.4189 0.502813 5.56014 0.465052C6.83209 0.123617 8.17153 0.123133 9.44373 0.463648C10.7159 0.804164 11.876 1.47367 12.8074 2.40484C13.7387 3.336 14.4084 4.49599 14.7492 5.76813C15.0899 7.04027 15.0897 8.3797 14.7485 9.65172C14.7102 9.79321 14.7099 9.94229 14.7477 10.0839C14.7854 10.2255 14.8599 10.3547 14.9635 10.4584L21.631 16.9109C21.7873 17.0671 21.875 17.2791 21.875 17.5C21.875 17.721 21.7873 17.9329 21.631 18.0892L18.096 21.6242C17.9398 21.7804 17.7278 21.8682 17.5069 21.8682C17.2859 21.8682 17.074 21.7804 16.9177 21.6242L10.2501 15.1734C10.1466 15.0695 10.0175 14.9947 9.87591 14.9567ZM29.9176 25.255C30.059 25.293 30.2078 25.293 30.3492 25.2552C30.3497 25.2551 30.3503 25.255 30.3509 25.255C30.3514 25.255 30.352 25.2549 30.3525 25.2548C31.6241 24.9139 32.963 24.9138 34.2347 25.2544C35.5067 25.5951 36.6665 26.2646 37.5976 27.1957C38.5287 28.1268 39.1983 29.2867 39.5389 30.5586C39.8796 31.8306 39.8794 33.1698 39.5384 34.4417C39.5006 34.5829 39.4263 34.7117 39.323 34.8152C39.2197 34.9187 39.091 34.9931 38.9499 35.0311C38.8087 35.0691 38.66 35.0693 38.5187 35.0317C38.3775 34.994 38.2486 34.9199 38.145 34.8167L35.645 32.3167C35.5104 32.1825 35.334 32.0984 35.145 32.0783L32.495 31.7833C32.3707 31.7693 32.2449 31.7834 32.1268 31.8247C32.0087 31.8659 31.9014 31.9332 31.8129 32.0216C31.7244 32.11 31.6569 32.2171 31.6154 32.3352C31.5739 32.4532 31.5596 32.579 31.5734 32.7033L31.8684 35.355C31.8894 35.5437 31.9733 35.7198 32.1067 35.855L34.6067 38.345C34.7103 38.4485 34.7848 38.5775 34.8227 38.719C34.8606 38.8605 34.8606 39.0095 34.8225 39.1509C34.7845 39.2924 34.7099 39.4213 34.6061 39.5247C34.5024 39.6281 34.3733 39.7024 34.2317 39.74C32.9602 40.0778 31.6223 40.0757 30.3518 39.7339C29.0814 39.392 27.9231 38.7225 26.9928 37.7922C26.0625 36.8619 25.393 35.7036 25.0511 34.4332C24.7093 33.1627 24.7072 31.8248 25.045 30.5533C25.0833 30.4118 25.0836 30.2628 25.0458 30.1211C25.0081 29.9795 24.9336 29.8503 24.83 29.7466L18.125 23.125C17.9688 22.9687 17.881 22.7568 17.881 22.5358C17.881 22.3149 17.9688 22.1029 18.125 21.9467L21.66 18.4183C21.8195 18.2683 22.0302 18.1848 22.2492 18.1848C22.4682 18.1848 22.6789 18.2683 22.8384 18.4183L29.5434 25.0383C29.6469 25.1422 29.7759 25.217 29.9176 25.255Z" fill="#7A869A"/>
<path d="M34.0566 10.3167C34.1266 10.3167 34.1949 10.3167 34.2649 10.3167C34.6751 10.2861 35.074 10.1675 35.4343 9.96907C35.7946 9.77064 36.1081 9.49698 36.3533 9.16668L39.6333 4.77835C39.8981 4.42242 40.0269 3.98347 39.9964 3.54085C39.9658 3.09823 39.7779 2.68115 39.4666 2.36501L37.6366 0.541681C37.3298 0.23561 36.9252 0.0470639 36.4936 0.00898382C36.0619 -0.0290963 35.6306 0.0857112 35.2749 0.333347L30.7749 3.45835C30.4302 3.69716 30.1423 4.00898 29.9318 4.37165C29.7212 4.73431 29.5931 5.13891 29.5566 5.55668C29.5235 5.94296 29.5718 6.33188 29.6983 6.69835C29.7485 6.84581 29.7564 7.0044 29.721 7.15612C29.6857 7.30783 29.6085 7.4466 29.4983 7.55668L13.4906 23.4917C13.2565 23.726 13.125 24.0437 13.125 24.375C13.125 24.7063 13.2565 25.024 13.4906 25.2583L14.6706 26.4383C14.7867 26.5545 14.9245 26.6466 15.0762 26.7095C15.2279 26.7724 15.3905 26.8047 15.5547 26.8047C15.719 26.8047 15.8816 26.7724 16.0333 26.7095C16.185 26.6466 16.3228 26.5545 16.4389 26.4383L32.5149 10.4333C32.6195 10.3274 32.7506 10.2515 32.8945 10.2134C33.0384 10.1753 33.1899 10.1764 33.3333 10.2167C33.5689 10.282 33.8121 10.3156 34.0566 10.3167Z" fill="url(#paint0_linear-micro-tools)"/>
<path d="M11.9317 21C11.778 20.8408 11.5941 20.7138 11.3907 20.6265C11.1874 20.5391 10.9687 20.4932 10.7474 20.4912C10.5261 20.4893 10.3066 20.5315 10.1018 20.6153C9.89697 20.6991 9.71088 20.8228 9.55439 20.9793C9.3979 21.1358 9.27415 21.3219 9.19035 21.5267C9.10655 21.7316 9.06438 21.951 9.0663 22.1723C9.06822 22.3936 9.1142 22.6123 9.20155 22.8157C9.2889 23.019 9.41587 23.2029 9.57505 23.3567L10.1634 23.945C10.3196 24.1013 10.4074 24.3132 10.4074 24.5342C10.4074 24.7551 10.3196 24.9671 10.1634 25.1233L0.978383 34.3117C0.513023 34.7778 0.196203 35.3714 0.0679194 36.0175C-0.0603642 36.6635 0.00563985 37.3331 0.257599 37.9417C0.509558 38.5503 0.936177 39.0706 1.4836 39.4369C2.03102 39.8033 2.6747 39.9992 3.33338 40C3.7717 40.0014 4.20592 39.9156 4.61078 39.7476C5.01565 39.5797 5.38308 39.3329 5.69172 39.0217L14.8751 29.8383C15.0313 29.6821 15.2432 29.5943 15.4642 29.5943C15.6852 29.5943 15.8971 29.6821 16.0534 29.8383L16.6417 30.4267C16.7965 30.5815 16.9802 30.7044 17.1824 30.7882C17.3846 30.8721 17.6014 30.9153 17.8203 30.9153C18.0392 30.9154 18.256 30.8724 18.4583 30.7887C18.6606 30.705 18.8444 30.5822 18.9992 30.4275C19.1541 30.2728 19.2769 30.089 19.3608 29.8868C19.4446 29.6846 19.4878 29.4678 19.4879 29.2489C19.488 29.03 19.4449 28.8132 19.3612 28.6109C19.2775 28.4087 19.1548 28.2248 19 28.07L11.9317 21Z" fill="url(#paint1_linear-micro-tools)"/>
</g>
<defs>
<linearGradient id="paint0_linear-micro-tools" x1="47.6156" y1="-25.4609" x2="20.8626" y2="36.6853" gradientUnits="userSpaceOnUse">
<stop stop-color="#42526E"/>
<stop offset="1" stop-color="#AAB5C7"/>
</linearGradient>
<linearGradient id="paint1_linear-micro-tools" x1="9.78873" y1="60.7281" x2="9.78873" y2="20.4912" gradientUnits="userSpaceOnUse">
<stop stop-color="#E99B26"/>
<stop offset="1" stop-color="#FAC34B"/>
</linearGradient>
<clipPath id="clip0-micro-tools">
<rect width="40" height="40" fill="white"/>
</clipPath>
</defs>
</svg>
