<svg class="icon" viewBox="0 0 40 40" fill="none" xmlns="http://www.w3.org/2000/svg">
<g clip-path="url(#deposit-mini-clip0_38784_2750)">
<path d="M40 20C40 31.0457 31.0457 40 20 40C8.9543 40 0 31.0457 0 20C0 8.9543 8.9543 0 20 0C31.0457 0 40 8.9543 40 20Z" fill="#E7FDE1"/>
<path fill-rule="evenodd" clip-rule="evenodd" d="M7 20C7 12.8205 12.8205 7 20 7C27.1795 7 33 12.8205 33 20C33 27.1795 27.1795 33 20 33C12.8205 33 7 27.1795 7 20Z" fill="url(#deposit-mini-paint0_linear_38784_2750)"/>
<path d="M12.4167 19.9995C12.4167 20.2509 12.5166 20.492 12.6944 20.6698C12.8722 20.8475 13.1133 20.9474 13.3647 20.9474H18.8942C18.9361 20.9474 18.9763 20.964 19.0059 20.9937C19.0355 21.0233 19.0522 21.0635 19.0522 21.1054V26.6349C19.0522 26.8863 19.152 27.1274 19.3298 27.3052C19.5076 27.4829 19.7487 27.5828 20.0001 27.5828C20.2515 27.5828 20.4926 27.4829 20.6704 27.3052C20.8481 27.1274 20.948 26.8863 20.948 26.6349V21.1054C20.948 21.0635 20.9646 21.0233 20.9943 20.9937C21.0239 20.964 21.0641 20.9474 21.106 20.9474H26.6355C26.8869 20.9474 27.128 20.8475 27.3058 20.6698C27.4835 20.492 27.5834 20.2509 27.5834 19.9995C27.5834 19.7481 27.4835 19.507 27.3058 19.3292C27.128 19.1514 26.8869 19.0516 26.6355 19.0516H21.106C21.0641 19.0516 21.0239 19.0349 20.9943 19.0053C20.9646 18.9757 20.948 18.9355 20.948 18.8936V13.3641C20.948 13.1127 20.8481 12.8715 20.6704 12.6938C20.4926 12.516 20.2515 12.4161 20.0001 12.4161C19.7487 12.4161 19.5076 12.516 19.3298 12.6938C19.152 12.8715 19.0522 13.1127 19.0522 13.3641V18.8936C19.0522 18.9355 19.0355 18.9757 19.0059 19.0053C18.9763 19.0349 18.9361 19.0516 18.8942 19.0516H13.3647C13.1133 19.0516 12.8722 19.1514 12.6944 19.3292C12.5166 19.507 12.4167 19.7481 12.4167 19.9995Z" fill="white"/>
</g>
<defs>
<linearGradient id="deposit-mini-paint0_linear_38784_2750" x1="20" y1="7" x2="20" y2="48.7083" gradientUnits="userSpaceOnUse">
<stop stop-color="#66DE7D"/>
<stop offset="1" stop-color="#38AD5A"/>
</linearGradient>
<clipPath id="deposit-mini-clip0_38784_2750">
<rect width="40" height="40" fill="white"/>
</clipPath>
</defs>
</svg>
