<svg class="icon" viewBox="0 0 40 40" fill="none" xmlns="http://www.w3.org/2000/svg">
<path d="M16.6954 9.64169C16.6954 9.64169 16.0418 7.47273 17.7278 3.86411C19.4137 0.255486 22.5108 -0.56853 24.282 0.340728C24.8332 0.61663 25.2861 1.0555 25.5793 1.59774C25.8724 2.13997 25.9916 2.75929 25.9206 3.37159C25.9206 3.37159 29.264 2.65176 29.766 5.34165C30.268 8.03154 28.582 9.02604 26.4131 9.13023C25.1821 9.16651 23.9986 9.61324 23.0507 10.3994L16.6954 9.64169Z" fill="url(#paint0_linear)"/>
<path d="M26 11.0669C26 12.9321 23.3146 15.3366 20 15.3366C16.6854 15.3366 14 12.9321 14 11.0669C14 9.20173 16.6854 8.55005 20 8.55005C23.3146 8.55005 26 9.21297 26 11.0669Z" fill="url(#paint1_linear)"/>
<path d="M26.0968 13.2178C25.0408 12.4127 23.8087 12 22.4808 12H20H18.5859C16.8853 12 15.0688 12.1821 13.72 13.2178C9.1282 16.7278 4 22.9378 4 28.3378C3.9964 35.95 8.2408 40 19.9084 40C31.576 40 35.8204 35.95 35.8204 28.3324C35.8204 22.9414 30.6904 16.7278 26.0968 13.2178Z" fill="url(#paint2_linear)"/>
<path d="M15 17C15 14.2394 17.2339 12 19.9934 12C22.753 12 25 14.2394 25 17" stroke="#C87C1B" stroke-width="0.947145" stroke-linecap="round" stroke-linejoin="round"/>
<path d="M20.7938 20.872C22.0389 21.0486 23.0661 21.6137 23.5953 22.4614C23.6887 22.638 23.751 22.8146 23.751 23.0265C23.751 23.5563 23.3774 23.9801 22.9105 23.9801C22.6926 23.9801 22.4747 23.8389 22.2568 23.5916C21.7588 23.0618 20.9494 22.638 20.0778 22.638C18.7704 22.638 18.3035 23.3444 18.3035 24.0508C18.3035 26.3819 24 25.287 24 29.702C24 31.6446 22.9105 32.9161 20.8249 33.1634V34.1523C20.8249 34.6115 20.4825 35 20.0778 35C19.6732 35 19.3619 34.6115 19.3619 34.1523V33.1634C17.8366 32.9514 16.6537 32.0331 16.1245 31.0441C16.0623 30.9029 16 30.7263 16 30.5497C16 30.0199 16.3735 29.596 16.8405 29.596C17.1829 29.596 17.3696 29.8079 17.5253 29.9845C18.179 30.7263 19.0195 31.3267 20.0778 31.3267C21.5097 31.3267 22.1946 30.7969 22.1946 29.702C22.1946 27.1236 16.4981 28.2892 16.4981 24.0508C16.4981 22.4614 17.3696 21.1192 19.3619 20.872V19.8477C19.3619 19.3885 19.7043 19 20.0778 19C20.4825 19 20.8249 19.3885 20.8249 19.8477V20.872H20.7938Z" fill="#A76013"/>
<defs>
<linearGradient id="paint0_linear" x1="20.626" y1="11.536" x2="23.4118" y2="2.42637" gradientUnits="userSpaceOnUse">
<stop stop-color="#C87C1B"/>
<stop offset="1" stop-color="#FBD677"/>
</linearGradient>
<linearGradient id="paint1_linear" x1="20.6742" y1="13.4826" x2="20.6742" y2="8.76354" gradientUnits="userSpaceOnUse">
<stop stop-color="#A76013"/>
<stop offset="1" stop-color="#E99B26"/>
</linearGradient>
<linearGradient id="paint2_linear" x1="19.9102" y1="57.2675" x2="25.0805" y2="18.8093" gradientUnits="userSpaceOnUse">
<stop stop-color="#C87C1B"/>
<stop offset="1" stop-color="#FBD677"/>
</linearGradient>
</defs>
</svg>
