<svg class="icon" viewBox="0 0 72 84" fill="none" xmlns="http://www.w3.org/2000/svg">
<path fill-rule="evenodd" clip-rule="evenodd" d="M42.7087 25.4352C42.3851 24.2275 41.4537 23.5104 40.1084 23.1748C40.8548 22.6909 41.6708 22.3116 42.5345 22.0527C46.0723 20.9202 48.4177 18.5305 46.3973 14.308C44.3769 10.0856 39.171 12.7553 39.171 12.7553C39.0173 11.7121 38.5462 10.7415 37.8217 9.97536C37.0973 9.20917 36.1545 8.68454 35.1216 8.47269C31.7924 7.75445 27.0396 10.4873 25.8515 17.1965C25.0814 21.5456 25.6678 24.4598 26.1756 25.972C23.7547 27.2562 22.3708 28.8469 22.8803 30.7483C23.111 31.6091 23.7065 32.4468 24.5644 33.175C24.1268 33.5482 23.7253 33.9629 23.3701 34.4261C17.3368 42.259 11.6126 54.7907 14.0035 63.7135C17.3678 76.2933 26.1743 81.1062 45.4535 75.9403C64.7327 70.7745 69.9529 62.2032 66.5802 49.6161C64.1933 40.7081 52.9655 32.7123 43.8212 28.9463C43.361 28.7574 42.8952 28.6033 42.4252 28.484C42.8358 27.387 42.947 26.3245 42.7087 25.4352Z" fill="url(#money-bag-color-tilted-paint0_linear_38272_286255)"/>
<path d="M26.1467 25.4175C26.1467 25.4175 24.1065 22.1229 25.2945 15.4137C26.4826 8.70446 31.2354 5.9716 34.5646 6.68985C35.5976 6.90169 36.5403 7.42633 37.2647 8.19252C37.9892 8.9587 38.4603 9.92929 38.614 10.9725C38.614 10.9725 43.8199 8.30276 45.8403 12.5252C47.8607 16.7476 45.5153 19.1374 41.9775 20.2698C39.9596 20.8748 38.2018 22.137 36.9835 23.8557L26.1467 25.4175Z" fill="url(#money-bag-color-tilted-paint1_linear_38272_286255)"/>
<path d="M42.1518 23.6534C42.9776 26.7353 39.6049 31.8974 34.1279 33.365C28.651 34.8325 23.1491 32.0483 22.3233 28.9664C21.4975 25.8844 25.6462 23.6187 31.1232 22.1511C36.6002 20.6836 41.3309 20.59 42.1518 23.6534Z" fill="url(#money-bag-color-tilted-paint2_linear_38272_286255)"/>
<path d="M43.2642 27.1644C41.1628 26.3017 38.9442 26.1652 36.75 26.7532L32.6508 27.8515L30.3142 28.4776C27.5042 29.2305 24.5833 30.3358 22.8131 32.6443C16.7798 40.4771 11.0556 53.0088 13.4465 61.9316C16.8108 74.5114 25.6173 79.3243 44.8965 74.1585C64.1757 68.9926 69.3959 60.4213 66.0232 47.8342C63.6363 38.9263 52.4086 30.9304 43.2642 27.1644Z" fill="url(#money-bag-color-tilted-paint3_linear_38272_286255)"/>
<path fill-rule="evenodd" clip-rule="evenodd" d="M32.8493 28.6367C28.723 29.7424 26.2782 33.9866 27.3849 38.1172C27.5007 38.5494 27.2443 38.9936 26.8121 39.1094C26.3799 39.2252 25.9357 38.9687 25.8199 38.5366C24.4822 33.5441 27.4368 28.4096 32.43 27.0717C37.4205 25.7345 42.5702 28.6945 43.9087 33.6897C44.0245 34.1219 43.768 34.5661 43.3358 34.6819C42.9036 34.7977 42.4594 34.5412 42.3436 34.109C41.2375 29.9811 36.9784 27.5303 32.8493 28.6367Z" fill="#C87C1B"/>
<path d="M37.8925 42.1602C40.0281 41.9007 41.9757 42.3797 43.2254 43.5461C43.4579 43.7965 43.639 44.0608 43.7328 44.411C43.9674 45.2864 43.5378 46.1521 42.7663 46.3588C42.4062 46.4553 41.9836 46.3183 41.5141 46.0063C40.4565 45.3514 38.9316 45.0094 37.4914 45.3953C35.3311 45.9741 34.8723 47.3481 35.1851 48.5153C36.2172 52.3672 45.1451 48.0359 47.0999 55.3311C47.96 58.541 46.7227 61.1244 43.386 62.4563L43.8238 64.0905C44.0271 64.8492 43.6333 65.6428 42.9647 65.8219C42.296 66.0011 41.6096 65.4969 41.4063 64.7382L40.9685 63.1041C38.3543 63.4292 35.9932 62.4356 34.6809 61.0357C34.5155 60.8298 34.3344 60.5656 34.2562 60.2738C34.0216 59.3984 34.4512 58.5326 35.2227 58.3259C35.7885 58.1743 36.191 58.4418 36.5263 58.6647C37.9349 59.6008 39.5895 60.2209 41.3383 59.7523C43.7044 59.1183 44.6014 57.9397 44.1166 56.1305C42.975 51.87 34.0783 56.3181 32.2018 49.3147C31.4981 46.6884 32.344 44.0848 35.5264 42.7942L35.0729 41.1017C34.8696 40.343 35.2634 39.5494 35.8807 39.384C36.5493 39.2048 37.2871 39.6952 37.4904 40.4539L37.9439 42.1464L37.8925 42.1602Z" fill="#A76013"/>
<defs>
<linearGradient id="money-bag-color-tilted-paint0_linear_38272_286255" x1="49.5724" y1="91.8086" x2="39.4129" y2="11.7481" gradientUnits="userSpaceOnUse">
<stop stop-color="#C87C1B"/>
<stop offset="1" stop-color="#FBD677"/>
</linearGradient>
<linearGradient id="money-bag-color-tilted-paint1_linear_38272_286255" x1="33.4803" y1="26.8072" x2="34.0501" y2="10.5214" gradientUnits="userSpaceOnUse">
<stop stop-color="#C87C1B"/>
<stop offset="1" stop-color="#FBD677"/>
</linearGradient>
<linearGradient id="money-bag-color-tilted-paint2_linear_38272_286255" x1="34.4211" y1="30.0031" x2="32.3317" y2="22.2054" gradientUnits="userSpaceOnUse">
<stop stop-color="#A76013"/>
<stop offset="1" stop-color="#E99B26"/>
</linearGradient>
<linearGradient id="money-bag-color-tilted-paint3_linear_38272_286255" x1="52.5447" y1="102.69" x2="44.0605" y2="36.8537" gradientUnits="userSpaceOnUse">
<stop stop-color="#C87C1B"/>
<stop offset="1" stop-color="#FBD677"/>
</linearGradient>
</defs>
</svg>
