<svg class="icon" viewBox="0 0 24 24" fill="none" xmlns="http://www.w3.org/2000/svg">
<path d="M9.43166 0.800016C10.2259 0.27052 11.1044 0 12 0C12.9702 0 13.862 0.264483 14.5901 0.815411C15.1597 1.23871 15.6238 1.78548 15.925 2.45386C16.414 2.26462 16.9117 2.1582 17.4195 2.1582C17.6634 2.1582 17.9074 2.19272 18.1232 2.23382L18.1297 2.23506C19.0046 2.41426 19.8992 2.85637 20.5214 3.47861C21.2429 4.20012 21.5975 5.00205 21.766 5.87577L21.7707 5.90001L21.7728 5.92459C21.8394 6.68255 21.8005 7.41958 21.533 8.12008C22.1459 8.44729 22.7522 8.89621 23.1867 9.4894C23.7321 10.2211 24 11.1095 24 12C24 12.823 23.7175 13.6891 23.2985 14.4556L23.2888 14.4734L23.2775 14.4904C22.8421 15.148 22.2313 15.6272 21.5446 15.9285C21.8157 16.642 21.9107 17.3737 21.766 18.1242L21.7649 18.1297C21.5857 19.0046 21.1436 19.8992 20.5214 20.5214C19.7999 21.2429 18.998 21.5975 18.1242 21.766L18.1028 21.7701L18.0811 21.7723C17.8735 21.793 17.6657 21.8034 17.4579 21.8034C16.927 21.8034 16.406 21.7332 15.9099 21.5475C15.6162 22.1675 15.1675 22.7624 14.5854 23.188L14.577 23.1942L14.5683 23.2C13.7741 23.7295 12.8956 24 12 24C11.0333 24 10.1458 23.7228 9.41457 23.188L9.41179 23.186C8.84137 22.7625 8.37653 22.2153 8.07499 21.5461C7.58596 21.7354 7.0883 21.8418 6.58052 21.8418C6.33663 21.8418 6.09261 21.8073 5.87681 21.7662L5.87031 21.7649C4.99541 21.5857 4.10084 21.1436 3.47861 20.5214C2.78726 19.83 2.31707 19.0978 2.22719 18.0754C2.16155 17.3287 2.19837 16.6023 2.45527 15.9112C1.83429 15.6175 1.23825 15.1683 0.811959 14.5854L0.805802 14.577L0.800016 14.5683C0.27052 13.7741 0 12.8956 0 12C0 11.0333 0.277211 10.1458 0.811959 9.41457L0.813994 9.41178C1.23801 8.84067 1.78608 8.37538 2.45633 8.07388C2.18448 7.35957 2.08918 6.62716 2.23402 5.87577L2.23508 5.87031C2.41427 4.99541 2.85637 4.10084 3.47861 3.47861C4.20012 2.7571 5.00205 2.40245 5.87577 2.23402L5.89718 2.2299L5.91887 2.22773C6.1265 2.20696 6.33428 2.19657 6.54215 2.19657C7.07298 2.19657 7.59399 2.26685 8.0901 2.45253C8.38381 1.83254 8.83254 1.23762 9.41457 0.811959L9.42298 0.805802L9.43166 0.800016Z" fill="#19194B"/>
<path d="M12.0239 1.63184C12.6775 1.63184 13.2459 1.8119 13.6911 2.13412C14.1742 2.50373 14.4963 2.95864 14.6668 3.49883C14.7521 3.79263 14.9605 4.02008 15.2352 4.1338C15.3583 4.18119 15.5004 4.2191 15.6425 4.2191C15.7941 4.2191 15.9551 4.18119 16.0972 4.11485C16.5614 3.8874 16.9782 3.77367 17.3855 3.77367C17.5276 3.77367 17.6602 3.78315 17.7928 3.81158C18.3991 3.93478 19.0054 4.23805 19.3937 4.63609C19.8105 5.05309 20.0663 5.53642 20.1989 6.19034C20.2652 6.92009 20.1705 7.45081 19.9242 7.90571C19.7821 8.16159 19.7632 8.44591 19.8484 8.71127C19.9337 8.97663 20.1421 9.20408 20.3884 9.3178C21.0325 9.6116 21.5441 9.99068 21.8661 10.4172C22.1977 10.8436 22.3682 11.4123 22.3682 12.0093C22.3682 12.5116 22.1882 13.1181 21.8851 13.6773C21.4778 14.2554 20.9094 14.5208 20.4926 14.6534C20.1989 14.7387 19.9716 14.9472 19.8579 15.2221C19.7442 15.4969 19.7442 15.8002 19.8863 16.0845C20.1989 16.7005 20.2937 17.2597 20.1895 17.7904C20.0663 18.3969 19.7632 19.0035 19.3653 19.392C18.9485 19.809 18.4654 20.0649 17.8118 20.1976C17.6602 20.207 17.5181 20.207 17.3855 20.207C16.8645 20.207 16.4477 20.1218 16.0972 19.9133C15.9456 19.828 15.7846 19.7901 15.6046 19.7901C15.4815 19.7901 15.3488 19.8185 15.2352 19.8564C14.9605 19.9701 14.7426 20.1976 14.6384 20.4724C14.4584 21.0126 14.0984 21.5244 13.6816 21.8466C13.1606 22.1878 12.5828 22.3678 11.986 22.3678C11.3324 22.3678 10.764 22.1878 10.3188 21.8655C9.83566 21.4959 9.51359 21.041 9.34308 20.5008C9.25782 20.207 9.04942 19.9796 8.77471 19.8659C8.65156 19.8185 8.50947 19.7806 8.36738 19.7806C8.21581 19.7806 8.05477 19.8185 7.91268 19.8848C7.44851 20.1123 7.03171 20.226 6.62438 20.226C6.48229 20.226 6.34967 20.2165 6.21705 20.1881C5.61079 20.0649 5.00453 19.7616 4.61614 19.3636C4.08566 18.8329 3.85831 18.4159 3.81095 17.8757C3.74464 17.1175 3.82042 16.5583 4.07619 16.1129C4.22775 15.8476 4.23723 15.5348 4.1425 15.2505C4.02883 14.9757 3.80148 14.7577 3.52677 14.6534C2.98682 14.4734 2.48476 14.1132 2.15321 13.6962C1.81219 13.175 1.6322 12.5969 1.6322 12.0093C1.6322 11.3554 1.81219 10.7868 2.13426 10.3413C2.5037 9.858 2.9584 9.53578 3.49835 9.36519C3.792 9.27989 4.01935 9.0714 4.13303 8.79656C4.2467 8.52172 4.2467 8.21845 4.10461 7.93414C3.792 7.31812 3.69728 6.75897 3.80148 6.22825C3.92462 5.62172 4.22775 5.01518 4.62561 4.62661C5.04242 4.20962 5.52553 3.95374 6.17916 3.82106C6.33072 3.81158 6.47281 3.81158 6.60543 3.81158C7.12644 3.81158 7.54324 3.89687 7.89374 4.10537C8.0453 4.19067 8.20634 4.22857 8.38632 4.22857C8.50947 4.22857 8.64209 4.20014 8.75576 4.16223C9.03047 4.04851 9.24835 3.82106 9.35255 3.54622C9.53253 3.00602 9.8925 2.49426 10.3093 2.17203C10.8587 1.8119 11.446 1.63184 12.0239 1.63184Z" fill="white"/>
</svg>
