<svg class="icon"
     viewBox="0 0 40 40"
     fill="none"
     xmlns="http://www.w3.org/2000/svg"
>
  <path d="M35.3459 13.6438C38.0454 14.498 40 17.0196 40 19.9998C40 22.9804 38.0454 25.5032 35.3459 26.3559C36.6479 28.8676 36.2509 32.0347 34.1423 34.1429C32.0338 36.2508 28.8665 36.6504 26.3548 35.3456C25.5021 38.0438 22.9812 40 20.0016 40C17.0189 40 14.4979 38.0438 13.6452 35.3456C11.1335 36.6504 7.96613 36.2508 5.85763 34.1429C3.74912 32.0347 3.35207 28.8676 4.65411 26.3559C1.95768 25.5032 0 22.9804 0 19.9998C0 17.0196 1.95768 14.498 4.65411 13.6438C3.35207 11.1336 3.74912 7.96651 5.85763 5.8583C7.96613 3.7504 11.1335 3.35085 13.6452 4.65567C14.4979 1.95615 17.0189 0 20.0016 0C22.9812 0 25.5021 1.95615 26.3548 4.65567C28.8665 3.35085 32.0338 3.7504 34.1423 5.8583C36.2509 7.96651 36.6479 11.1336 35.3459 13.6438Z"
        fill="#FAC34B"
  />
  <path d="M20 12C18.4178 12 16.871 12.4692 15.5554 13.3482C14.2398 14.2273 13.2145 15.4767 12.609 16.9385C12.0035 18.4003 11.845 20.0089 12.1537 21.5607C12.4624 23.1126 13.2243 24.538 14.3431 25.6569C15.462 26.7757 16.8874 27.5376 18.4393 27.8463C19.9911 28.155 21.5997 27.9965 23.0615 27.391C24.5233 26.7855 25.7727 25.7602 26.6518 24.4446C27.5308 23.129 28 21.5822 28 20C27.9977 17.879 27.1541 15.8455 25.6543 14.3457C24.1545 12.8459 22.121 12.0023 20 12V12ZM23.4667 23.4807C23.3458 23.6086 23.1799 23.6844 23.004 23.6922C22.8282 23.6999 22.6563 23.6388 22.5247 23.522L19.2187 20.4913C19.1501 20.4291 19.0952 20.3533 19.0576 20.2687C19.0199 20.1841 19.0003 20.0926 19 20V16.3333C19 16.1565 19.0702 15.987 19.1953 15.8619C19.3203 15.7369 19.4899 15.6667 19.6667 15.6667C19.8435 15.6667 20.013 15.7369 20.1381 15.8619C20.2631 15.987 20.3333 16.1565 20.3333 16.3333V19.7067L23.4227 22.5387C23.4875 22.5976 23.5401 22.6688 23.5774 22.7481C23.6148 22.8274 23.6361 22.9133 23.6402 23.0009C23.6442 23.0884 23.631 23.1759 23.6013 23.2584C23.5715 23.3408 23.5258 23.4166 23.4667 23.4813V23.4807Z"
        fill="white"
  />
</svg>
