<svg class="icon" viewBox="0 0 40 40" fill="none" xmlns="http://www.w3.org/2000/svg">
<path d="M16.1475 3.20002C17.3389 2.40578 18.6566 2 20 2C21.4553 2 22.793 2.39673 23.8852 3.22312C24.7395 3.85806 25.4357 4.67822 25.8875 5.68079C26.6211 5.39693 27.3676 5.2373 28.1292 5.2373C28.4951 5.2373 28.8611 5.28908 29.1848 5.35073L29.1945 5.35259C30.5069 5.62139 31.8487 6.28456 32.7821 7.21791C33.8644 8.30017 34.3963 9.50307 34.649 10.8137L34.656 10.85L34.6592 10.8869C34.7592 12.0238 34.7007 13.1294 34.2994 14.1801C35.2189 14.6709 36.1283 15.3443 36.78 16.2341C37.5981 17.3317 38 18.6643 38 20C38 21.2345 37.5763 22.5337 36.9478 23.6834L36.9332 23.7101L36.9163 23.7355C36.2631 24.722 35.347 25.4408 34.3168 25.8927C34.7236 26.963 34.866 28.0605 34.649 29.1863L34.6474 29.1945C34.3786 30.5069 33.7154 31.8487 32.7821 32.7821C31.6998 33.8644 30.4969 34.3963 29.1863 34.649L29.1542 34.6552L29.1217 34.6584C28.8103 34.6896 28.4986 34.7051 28.1868 34.7051C27.3905 34.7051 26.609 34.5997 25.8648 34.3212C25.4243 35.2512 24.7512 36.1436 23.8782 36.7821L23.8655 36.7913L23.8525 36.8C22.6611 37.5942 21.3434 38 20 38C18.55 38 17.2186 37.5842 16.1218 36.7821L16.1177 36.779C15.2621 36.1438 14.5648 35.3229 14.1125 34.3192C13.3789 34.6031 12.6325 34.7627 11.8708 34.7627C11.5049 34.7627 11.1389 34.7109 10.8152 34.6493L10.8055 34.6474C9.49312 34.3786 8.15126 33.7154 7.21791 32.7821C6.18089 31.7451 5.4756 30.6466 5.34078 29.1131C5.24232 27.9931 5.29756 26.9035 5.6829 25.8668C4.75144 25.4263 3.85737 24.7525 3.21794 23.8782L3.2087 23.8655L3.20002 23.8525C2.40578 22.6611 2 21.3434 2 20C2 18.55 2.41582 17.2186 3.21794 16.1218L3.22099 16.1177C3.85701 15.261 4.67912 14.5631 5.6845 14.1108C5.27672 13.0394 5.13376 11.9407 5.35103 10.8137L5.35261 10.8055C5.62141 9.49312 6.28456 8.15126 7.21791 7.21791C8.30017 6.13565 9.50307 5.60368 10.8137 5.35103L10.8458 5.34485L10.8783 5.34159C11.1897 5.31045 11.5014 5.29485 11.8132 5.29485C12.6095 5.29485 13.391 5.40027 14.1352 5.67879C14.5757 4.74881 15.2488 3.85643 16.1218 3.21794L16.1345 3.2087L16.1475 3.20002Z" fill="#19194B"/>
<path d="M20.0358 4.448C21.0162 4.448 21.8688 4.7181 22.5366 5.20143C23.2613 5.75584 23.7444 6.4382 24.0002 7.2485C24.1281 7.68918 24.4407 8.03036 24.8527 8.20095C25.0374 8.27203 25.2506 8.32889 25.4637 8.32889C25.6911 8.32889 25.9326 8.27203 26.1458 8.17252C26.842 7.83134 27.4672 7.66075 28.0782 7.66075C28.2914 7.66075 28.4903 7.67497 28.6892 7.71761C29.5986 7.90242 30.508 8.35732 31.0906 8.95438C31.7158 9.57987 32.0994 10.3049 32.2984 11.2858C32.3978 12.3804 32.2557 13.1765 31.8863 13.8588C31.6732 14.2426 31.6447 14.6691 31.7726 15.0671C31.9005 15.4652 32.2131 15.8064 32.5825 15.9769C33.5488 16.4176 34.3161 16.9863 34.7992 17.626C35.2965 18.2657 35.5523 19.1186 35.5523 20.0142C35.5523 20.7676 35.2823 21.6775 34.8276 22.5162C34.2166 23.3833 33.3641 23.7814 32.7388 23.9804C32.2984 24.1083 31.9573 24.4211 31.7868 24.8333C31.6163 25.2456 31.6163 25.7005 31.8295 26.127C32.2984 27.051 32.4405 27.8897 32.2842 28.6858C32.0994 29.5956 31.6447 30.5054 31.048 31.0883C30.4227 31.7138 29.6981 32.0976 28.7176 32.2966C28.4903 32.3108 28.2771 32.3108 28.0782 32.3108C27.2967 32.3108 26.6715 32.1829 26.1458 31.8701C25.9184 31.7422 25.6769 31.6853 25.4069 31.6853C25.2222 31.6853 25.0232 31.728 24.8527 31.7848C24.4407 31.9554 24.1138 32.2966 23.9575 32.7089C23.6876 33.5192 23.1476 34.2868 22.5224 34.7701C21.7409 35.2819 20.8741 35.552 19.979 35.552C18.9985 35.552 18.146 35.2819 17.4781 34.7986C16.7535 34.2442 16.2704 33.5618 16.0146 32.7515C15.8867 32.3108 15.5741 31.9696 15.162 31.799C14.9773 31.728 14.7642 31.6711 14.551 31.6711C14.3237 31.6711 14.0821 31.728 13.869 31.8275C13.1727 32.1687 12.5475 32.3392 11.9365 32.3392C11.7234 32.3392 11.5245 32.325 11.3255 32.2824C10.4161 32.0976 9.50676 31.6427 8.92418 31.0456C8.12846 30.2495 7.78744 29.624 7.7164 28.8137C7.61693 27.6765 7.7306 26.8378 8.11425 26.1696C8.3416 25.7716 8.35581 25.3025 8.21372 24.876C8.04321 24.4637 7.70219 24.1368 7.29012 23.9804C6.48019 23.7103 5.7271 23.1701 5.22978 22.5446C4.71825 21.7627 4.44827 20.8956 4.44827 20.0142C4.44827 19.0333 4.71825 18.1804 5.20136 17.5122C5.75552 16.7872 6.43756 16.3039 7.24749 16.048C7.68798 15.9201 8.029 15.6073 8.19951 15.1951C8.37002 14.7828 8.37002 14.3279 8.15688 13.9015C7.68798 12.9774 7.54588 12.1387 7.70219 11.3426C7.88691 10.4328 8.3416 9.52301 8.93839 8.94017C9.56359 8.31467 10.2883 7.93085 11.2687 7.73183C11.4961 7.71761 11.7092 7.71761 11.9081 7.71761C12.6896 7.71761 13.3148 7.84556 13.8406 8.1583C14.0679 8.28624 14.3095 8.34311 14.5795 8.34311C14.7642 8.34311 14.9631 8.30046 15.1336 8.2436C15.5457 8.07301 15.8725 7.73183 16.0288 7.31957C16.2988 6.50928 16.8387 5.74163 17.4639 5.25829C18.2881 4.7181 19.169 4.448 20.0358 4.448Z" fill="white"/>
</svg>
