<svg class="icon"
     width="40"
     height="40"
     viewBox="0 0 40 40"
     fill="none"
     xmlns="http://www.w3.org/2000/svg"
>
  <path d="M35.3459 13.6438C38.0454 14.498 40 17.0196 40 19.9998C40 22.9804 38.0454 25.5032 35.3459 26.3559C36.6479 28.8676 36.2509 32.0347 34.1423 34.1429C32.0338 36.2508 28.8665 36.6504 26.3548 35.3456C25.5021 38.0438 22.9812 40 20.0016 40C17.0189 40 14.4979 38.0438 13.6452 35.3456C11.1335 36.6504 7.96613 36.2508 5.85763 34.1429C3.74912 32.0347 3.35207 28.8676 4.65411 26.3559C1.95768 25.5032 0 22.9804 0 19.9998C0 17.0196 1.95768 14.498 4.65411 13.6438C3.35207 11.1336 3.74912 7.96651 5.85763 5.8583C7.96613 3.7504 11.1335 3.35085 13.6452 4.65567C14.4979 1.95615 17.0189 0 20.0016 0C22.9812 0 25.5021 1.95615 26.3548 4.65567C28.8665 3.35085 32.0338 3.7504 34.1423 5.8583C36.2509 7.96651 36.6479 11.1336 35.3459 13.6438Z"
        fill="#38AD5A"
  />
  <path d="M27.414 13.2861C27.2626 13.1717 27.0908 13.0891 26.9082 13.0429C26.7256 12.9966 26.536 12.9877 26.35 13.0166C26.1641 13.0455 25.9855 13.1116 25.8246 13.2113C25.6636 13.3109 25.5234 13.4421 25.4119 13.5973L18.6227 23.0383L14.3056 19.4991C14.0079 19.2654 13.6327 19.1606 13.2605 19.207C12.8883 19.2534 12.5486 19.4474 12.3143 19.7473C12.08 20.0473 11.9698 20.4294 12.0071 20.8117C12.0445 21.1939 12.2266 21.546 12.5143 21.7924L17.9958 26.2851C18.1473 26.4065 18.3209 26.4957 18.5064 26.5476C18.6919 26.5995 18.8857 26.613 19.0763 26.5873C19.267 26.5617 19.4507 26.4973 19.6169 26.398C19.783 26.2987 19.9281 26.1665 20.0438 26.0092L27.7223 15.3387C27.8337 15.1832 27.9141 15.0067 27.9589 14.8194C28.0036 14.6321 28.012 14.4375 27.9833 14.2469C27.9547 14.0563 27.8897 13.8733 27.792 13.7084C27.6943 13.5436 27.5659 13.4001 27.414 13.2861Z"
        fill="white"
  />
</svg>
