<svg viewBox="0 0 40 40" fill="none" xmlns="http://www.w3.org/2000/svg">
  <rect y="6" width="40" height="27" rx="5" fill="#F4F5F7"/>
  <mask id="mask0" mask-type="alpha" maskUnits="userSpaceOnUse" x="0" y="6" width="40" height="27">
    <rect y="6" width="40" height="27" rx="4" fill="#F4F5F7"/>
  </mask>
  <g mask="url(#mask0)">
    <path d="M40 33V6L0 33H40Z" fill="url(#paint0_linear)"/>
  </g>
  <path d="M16.9997 18.9999C16.9997 18.4477 17.4474 17.9999 17.9997 17.9999H26.9997C27.5519 17.9999 27.9997 18.4477 27.9997 18.9999C27.9997 19.5522 27.5519 19.9999 26.9997 19.9999H17.9997C17.4474 19.9999 16.9997 19.5522 16.9997 18.9999Z" fill="#19194B"/>
  <path d="M29 18.9999C29 18.4477 29.4477 17.9999 30 17.9999H35C35.5523 17.9999 36 18.4477 36 18.9999C36 19.5522 35.5523 19.9999 35 19.9999H30C29.4477 19.9999 29 19.5522 29 18.9999Z" fill="#19194B"/>
  <path d="M17.0006 15C17.0006 14.4477 17.4483 14 18.0006 14H25.0006C25.5528 14 26.0006 14.4477 26.0006 15C26.0006 15.5523 25.5528 16 25.0006 16H18.0006C17.4483 16 17.0006 15.5523 17.0006 15Z" fill="#19194B"/>
  <path d="M16.9997 24.0001C16.9997 23.4478 17.4474 23.0001 17.9997 23.0001H19.9997C20.5519 23.0001 20.9997 23.4478 20.9997 24.0001C20.9997 24.5524 20.5519 25.0001 19.9997 25.0001H17.9997C17.4474 25.0001 16.9997 24.5524 16.9997 24.0001Z" fill="#00A0DF"/>
  <path d="M21.9997 24.0001C21.9997 23.4478 22.4474 23.0001 22.9997 23.0001H24.9997C25.5519 23.0001 25.9997 23.4478 25.9997 24.0001C25.9997 24.5524 25.5519 25.0001 24.9997 25.0001H22.9997C22.4474 25.0001 21.9997 24.5524 21.9997 24.0001Z" fill="#00A0DF"/>
  <path d="M26.9997 24.0001C26.9997 23.4478 27.4474 23.0001 27.9997 23.0001H29.9997C30.5519 23.0001 30.9997 23.4478 30.9997 24.0001C30.9997 24.5524 30.5519 25.0001 29.9997 25.0001H27.9997C27.4474 25.0001 26.9997 24.5524 26.9997 24.0001Z" fill="#00A0DF"/>
  <path fill-rule="evenodd" clip-rule="evenodd" d="M12.6781 15.2388C12.6781 17.0276 11.228 18.4777 9.43916 18.4777C7.65037 18.4777 6.20027 17.0276 6.20027 15.2388C6.20027 13.45 7.65037 11.9999 9.43916 11.9999C11.228 11.9999 12.6781 13.45 12.6781 15.2388ZM5.48541 21.0016C6.5342 19.9528 7.95617 19.3628 9.43938 19.3611C10.9226 19.3628 12.3446 19.9528 13.3934 21.0016C14.4422 22.0504 15.0321 23.4724 15.0338 24.9556C15.0338 25.0337 15.0028 25.1086 14.9476 25.1638C14.8924 25.219 14.8175 25.25 14.7394 25.25H4.13938C4.06129 25.25 3.9864 25.219 3.93118 25.1638C3.87596 25.1086 3.84494 25.0337 3.84494 24.9556C3.84665 23.4724 4.43662 22.0504 5.48541 21.0016Z" fill="#00A0DF"/>
  <path d="M16.9997 18.9999C16.9997 18.4477 17.4474 17.9999 17.9997 17.9999H26.9997C27.5519 17.9999 27.9997 18.4477 27.9997 18.9999C27.9997 19.5522 27.5519 19.9999 26.9997 19.9999H17.9997C17.4474 19.9999 16.9997 19.5522 16.9997 18.9999Z" fill="#19194B"/>
  <path d="M29 18.9999C29 18.4477 29.4477 17.9999 30 17.9999H35C35.5523 17.9999 36 18.4477 36 18.9999C36 19.5522 35.5523 19.9999 35 19.9999H30C29.4477 19.9999 29 19.5522 29 18.9999Z" fill="#19194B"/>
  <path d="M17.0006 15C17.0006 14.4477 17.4483 14 18.0006 14H25.0006C25.5528 14 26.0006 14.4477 26.0006 15C26.0006 15.5523 25.5528 16 25.0006 16H18.0006C17.4483 16 17.0006 15.5523 17.0006 15Z" fill="#19194B"/>
  <path d="M16.9997 24.0001C16.9997 23.4478 17.4474 23.0001 17.9997 23.0001H19.9997C20.5519 23.0001 20.9997 23.4478 20.9997 24.0001C20.9997 24.5524 20.5519 25.0001 19.9997 25.0001H17.9997C17.4474 25.0001 16.9997 24.5524 16.9997 24.0001Z" fill="#00A0DF"/>
  <path d="M21.9997 24.0001C21.9997 23.4478 22.4474 23.0001 22.9997 23.0001H24.9997C25.5519 23.0001 25.9997 23.4478 25.9997 24.0001C25.9997 24.5524 25.5519 25.0001 24.9997 25.0001H22.9997C22.4474 25.0001 21.9997 24.5524 21.9997 24.0001Z" fill="#00A0DF"/>
  <path d="M26.9997 24.0001C26.9997 23.4478 27.4474 23.0001 27.9997 23.0001H29.9997C30.5519 23.0001 30.9997 23.4478 30.9997 24.0001C30.9997 24.5524 30.5519 25.0001 29.9997 25.0001H27.9997C27.4474 25.0001 26.9997 24.5524 26.9997 24.0001Z" fill="#00A0DF"/>
  <path fill-rule="evenodd" clip-rule="evenodd" d="M12.6781 15.2388C12.6781 17.0276 11.228 18.4777 9.43916 18.4777C7.65037 18.4777 6.20027 17.0276 6.20027 15.2388C6.20027 13.45 7.65037 11.9999 9.43916 11.9999C11.228 11.9999 12.6781 13.45 12.6781 15.2388ZM5.48541 21.0016C6.5342 19.9528 7.95617 19.3628 9.43938 19.3611C10.9226 19.3628 12.3446 19.9528 13.3934 21.0016C14.4422 22.0504 15.0321 23.4724 15.0338 24.9556C15.0338 25.0337 15.0028 25.1086 14.9476 25.1638C14.8924 25.219 14.8175 25.25 14.7394 25.25H4.13938C4.06129 25.25 3.9864 25.219 3.93118 25.1638C3.87596 25.1086 3.84494 25.0337 3.84494 24.9556C3.84665 23.4724 4.43662 22.0504 5.48541 21.0016Z" fill="#00A0DF"/>
  <defs>
    <linearGradient id="paint0_linear" x1="22.5" y1="5" x2="16" y2="34" gradientUnits="userSpaceOnUse">
      <stop stop-color="#EBECF0"/>
      <stop offset="1" stop-color="#EBECF0" stop-opacity="0"/>
    </linearGradient>
  </defs>
</svg>
