<svg class="icon" viewBox="0 0 146 108" fill="none" xmlns="http://www.w3.org/2000/svg">
<path d="M0.876465 9.67977C0.876465 4.33378 5.21024 0 10.5562 0H80.7346C86.0805 0 90.4143 4.33378 90.4143 9.67977V82.278C90.4143 87.624 86.0805 91.9578 80.7346 91.9578H10.5562C5.21024 91.9578 0.876465 87.624 0.876465 82.278V9.67977Z" fill="url(#opened-safe-paint0_linear_27756_213191)"/>
<path d="M10.5562 91.9578H20.2359V94.3777C20.2359 95.7142 19.1525 96.7976 17.816 96.7976H12.9761C11.6396 96.7976 10.5562 95.7142 10.5562 94.3777V91.9578Z" fill="url(#opened-safe-paint1_linear_27756_213191)"/>
<path d="M12.9761 16.9396C12.9761 14.2666 15.143 12.0997 17.816 12.0997H73.4746C76.1476 12.0997 78.3145 14.2666 78.3145 16.9396V75.0182C78.3145 77.6912 76.1476 79.8581 73.4746 79.8581H17.816C15.143 79.8581 12.9761 77.6912 12.9761 75.0182V16.9396Z" fill="url(#opened-safe-paint2_linear_27756_213191)"/>
<path d="M68.6348 91.9578H78.3145V94.3777C78.3145 95.7142 77.2311 96.7976 75.8946 96.7976H71.0547C69.7182 96.7976 68.6348 95.7142 68.6348 94.3777V91.9578Z" fill="url(#opened-safe-paint3_linear_27756_213191)"/>
<g clip-path="url(#opened-safe-clip0_27756_213191)">
<path d="M57.3889 63.1757L66.3255 60.6092L63.3311 50.1831L57.3889 63.1757Z" fill="#00A0DF"/>
<path d="M75.2624 58.0426L66.3258 60.6092L63.3315 50.1831L75.2624 58.0426Z" fill="#007CBF"/>
<path d="M60.3679 62.3203L66.3256 60.6092L63.3313 50.1832L60.3679 62.3203Z" fill="#66C6EC"/>
<path d="M72.2834 58.8981L66.3256 60.6092L63.3313 50.1831L72.2834 58.8981Z" fill="#99D9F2"/>
<path d="M57.389 63.1758L66.3256 60.6092L69.3199 71.0352L57.389 63.1758Z" fill="#99D9F2"/>
<path d="M75.262 58.0426L66.3254 60.6092L69.3197 71.0352L75.262 58.0426Z" fill="#00A0DF"/>
<path d="M60.368 62.3202L66.3257 60.6092L69.32 71.0352L60.368 62.3202Z" fill="#CFF6FF"/>
<path d="M72.2835 58.8982L66.3258 60.6092L69.3201 71.0353L72.2835 58.8982Z" fill="#66C6EC"/>
</g>
<mask id="opened-safe-mask0_27756_213191" style="mask-type:alpha" maskUnits="userSpaceOnUse" x="12" y="12" width="67" height="68">
<path d="M12.9761 16.9396C12.9761 14.2666 15.143 12.0997 17.816 12.0997H73.4746C76.1476 12.0997 78.3145 14.2666 78.3145 16.9396V75.0182C78.3145 77.6912 76.1476 79.8581 73.4746 79.8581H17.816C15.143 79.8581 12.9761 77.6912 12.9761 75.0182V16.9396Z" fill="url(#opened-safe-paint4_linear_27756_213191)"/>
</mask>
<g mask="url(#opened-safe-mask0_27756_213191)">
<g clip-path="url(#opened-safe-clip1_27756_213191)">
<path d="M46.2696 69.0828L55.3821 67.2353L53.2267 56.6041L46.2696 69.0828Z" fill="#00A0DF"/>
<path d="M64.4943 65.3879L55.3818 67.2353L53.2264 56.6041L64.4943 65.3879Z" fill="#007CBF"/>
<path d="M49.3068 68.467L55.3817 67.2353L53.2263 56.6041L49.3068 68.467Z" fill="#66C6EC"/>
<path d="M61.4567 66.0036L55.3817 67.2353L53.2263 56.6041L61.4567 66.0036Z" fill="#99D9F2"/>
<path d="M46.2689 69.0828L55.3814 67.2354L57.5368 77.8666L46.2689 69.0828Z" fill="#99D9F2"/>
<path d="M64.494 65.3878L55.3816 67.2353L57.5369 77.8665L64.494 65.3878Z" fill="#00A0DF"/>
<path d="M49.307 68.467L55.382 67.2353L57.5374 77.8666L49.307 68.467Z" fill="#CFF6FF"/>
<path d="M61.4569 66.0037L55.3819 67.2353L57.5373 77.8665L61.4569 66.0037Z" fill="#66C6EC"/>
</g>
<g clip-path="url(#opened-safe-clip2_27756_213191)">
<path d="M48.0011 83.659L56.4291 79.7322L51.8479 69.8996L48.0011 83.659Z" fill="#00A0DF"/>
<path d="M64.8571 75.8055L56.4291 79.7322L51.8479 69.8996L64.8571 75.8055Z" fill="#007CBF"/>
<path d="M50.8107 82.35L56.4294 79.7322L51.8481 69.8996L50.8107 82.35Z" fill="#66C6EC"/>
<path d="M62.048 77.1144L56.4294 79.7322L51.8481 69.8996L62.048 77.1144Z" fill="#99D9F2"/>
<path d="M48.0013 83.659L56.4293 79.7322L61.0105 89.5649L48.0013 83.659Z" fill="#99D9F2"/>
<path d="M64.8573 75.8055L56.4293 79.7322L61.0105 89.5649L64.8573 75.8055Z" fill="#00A0DF"/>
<path d="M50.8104 82.3501L56.429 79.7323L61.0103 89.5649L50.8104 82.3501Z" fill="#CFF6FF"/>
<path d="M62.0477 77.1144L56.429 79.7322L61.0103 89.5649L62.0477 77.1144Z" fill="#66C6EC"/>
</g>
</g>
<g clip-path="url(#opened-safe-clip3_27756_213191)">
<path d="M69.8421 67.6818L80.8442 64.5221L77.1578 51.6864L69.8421 67.6818Z" fill="#00A0DF"/>
<path d="M91.8465 61.3623L80.8445 64.5221L77.1581 51.6864L91.8465 61.3623Z" fill="#007CBF"/>
<path d="M73.5096 66.6286L80.8443 64.5221L77.1579 51.6864L73.5096 66.6286Z" fill="#66C6EC"/>
<path d="M88.179 62.4156L80.8443 64.5221L77.158 51.6864L88.179 62.4156Z" fill="#99D9F2"/>
<path d="M69.8424 67.6818L80.8445 64.5221L84.5308 77.3578L69.8424 67.6818Z" fill="#99D9F2"/>
<path d="M91.8463 61.3623L80.8443 64.5221L84.5307 77.3578L91.8463 61.3623Z" fill="#00A0DF"/>
<path d="M73.5094 66.6286L80.8441 64.5221L84.5305 77.3578L73.5094 66.6286Z" fill="#CFF6FF"/>
<path d="M88.1789 62.4156L80.8442 64.5221L84.5305 77.3578L88.1789 62.4156Z" fill="#66C6EC"/>
</g>
<g clip-path="url(#opened-safe-clip4_27756_213191)">
<path d="M82.0998 97.4855L89.5733 88.8152L79.4579 80.0961L82.0998 97.4855Z" fill="#00A0DF"/>
<path d="M97.0471 80.1448L89.5735 88.8152L79.4581 80.0961L97.0471 80.1448Z" fill="#007CBF"/>
<path d="M84.591 94.5954L89.5734 88.8152L79.4579 80.096L84.591 94.5954Z" fill="#66C6EC"/>
<path d="M94.5558 83.0349L89.5735 88.8152L79.4581 80.096L94.5558 83.0349Z" fill="#99D9F2"/>
<path d="M82.0999 97.4856L89.5735 88.8152L99.6889 97.5344L82.0999 97.4856Z" fill="#99D9F2"/>
<path d="M97.0472 80.1448L89.5736 88.8152L99.6891 97.5343L97.0472 80.1448Z" fill="#00A0DF"/>
<path d="M84.5911 94.5954L89.5735 88.8152L99.6889 97.5343L84.5911 94.5954Z" fill="#CFF6FF"/>
<path d="M94.556 83.035L89.5736 88.8152L99.689 97.5343L94.556 83.035Z" fill="#66C6EC"/>
</g>
<g clip-path="url(#opened-safe-clip5_27756_213191)">
<path d="M87.8374 90.8312L98.4872 86.6346L93.5912 74.2099L87.8374 90.8312Z" fill="#00A0DF"/>
<path d="M109.137 82.438L98.4875 86.6346L93.5915 74.2099L109.137 82.438Z" fill="#007CBF"/>
<path d="M91.3872 89.4324L98.4871 86.6346L93.5911 74.2099L91.3872 89.4324Z" fill="#66C6EC"/>
<path d="M105.587 83.8369L98.4871 86.6346L93.5911 74.2099L105.587 83.8369Z" fill="#99D9F2"/>
<path d="M87.8374 90.8313L98.4871 86.6347L103.383 99.0594L87.8374 90.8313Z" fill="#99D9F2"/>
<path d="M109.137 82.438L98.4869 86.6346L103.383 99.0593L109.137 82.438Z" fill="#00A0DF"/>
<path d="M91.3872 89.4323L98.487 86.6346L103.383 99.0593L91.3872 89.4323Z" fill="#CFF6FF"/>
<path d="M105.587 83.8369L98.487 86.6347L103.383 99.0594L105.587 83.8369Z" fill="#66C6EC"/>
</g>
<g clip-path="url(#opened-safe-clip6_27756_213191)">
<path d="M104.713 87.3298L113.437 89.6674L116.165 79.4892L104.713 87.3298Z" fill="#00A0DF"/>
<path d="M122.161 92.005L113.437 89.6674L116.165 79.4892L122.161 92.005Z" fill="#007CBF"/>
<path d="M107.621 88.109L113.437 89.6674L116.164 79.4893L107.621 88.109Z" fill="#66C6EC"/>
<path d="M119.253 91.2258L113.437 89.6674L116.164 79.4893L119.253 91.2258Z" fill="#99D9F2"/>
<path d="M104.713 87.3298L113.437 89.6674L110.71 99.8456L104.713 87.3298Z" fill="#99D9F2"/>
<path d="M122.161 92.005L113.437 89.6674L110.71 99.8455L122.161 92.005Z" fill="#00A0DF"/>
<path d="M107.621 88.109L113.437 89.6674L110.71 99.8455L107.621 88.109Z" fill="#CFF6FF"/>
<path d="M119.253 91.2258L113.437 89.6674L110.71 99.8456L119.253 91.2258Z" fill="#66C6EC"/>
</g>
<g clip-path="url(#opened-safe-clip7_27756_213191)">
<path d="M124.394 86.2699L130.289 93.1124L138.272 86.2346L124.394 86.2699Z" fill="#00A0DF"/>
<path d="M136.185 99.9549L130.289 93.1124L138.272 86.2345L136.185 99.9549Z" fill="#007CBF"/>
<path d="M126.359 88.5507L130.289 93.1124L138.272 86.2346L126.359 88.5507Z" fill="#66C6EC"/>
<path d="M134.219 97.6741L130.289 93.1124L138.272 86.2346L134.219 97.6741Z" fill="#99D9F2"/>
<path d="M124.394 86.2698L130.289 93.1124L122.306 99.9902L124.394 86.2698Z" fill="#99D9F2"/>
<path d="M136.185 99.9549L130.289 93.1124L122.306 99.9902L136.185 99.9549Z" fill="#00A0DF"/>
<path d="M126.359 88.5507L130.289 93.1124L122.306 99.9902L126.359 88.5507Z" fill="#CFF6FF"/>
<path d="M134.219 97.6741L130.289 93.1124L122.306 99.9902L134.219 97.6741Z" fill="#66C6EC"/>
</g>
<g clip-path="url(#opened-safe-clip8_27756_213191)">
<path d="M59.9217 70.1378L71.063 72.7647L74.1276 59.7665L59.9217 70.1378Z" fill="#00A0DF"/>
<path d="M82.2039 75.3916L71.0626 72.7647L74.1273 59.7665L82.2039 75.3916Z" fill="#007CBF"/>
<path d="M63.6355 71.0134L71.0631 72.7647L74.1277 59.7665L63.6355 71.0134Z" fill="#66C6EC"/>
<path d="M78.4905 74.5159L71.063 72.7647L74.1276 59.7665L78.4905 74.5159Z" fill="#99D9F2"/>
<path d="M59.9216 70.1378L71.0629 72.7647L67.9982 85.7628L59.9216 70.1378Z" fill="#99D9F2"/>
<path d="M82.2043 75.3915L71.063 72.7647L67.9984 85.7629L82.2043 75.3915Z" fill="#00A0DF"/>
<path d="M63.6355 71.0134L71.063 72.7647L67.9983 85.7628L63.6355 71.0134Z" fill="#CFF6FF"/>
<path d="M78.4904 74.5159L71.0629 72.7647L67.9982 85.7629L78.4904 74.5159Z" fill="#66C6EC"/>
</g>
<path d="M15.3965 16.9396C15.3965 14.2666 17.5634 12.0997 20.2364 12.0997H61.3754C64.0484 12.0997 66.2153 14.2666 66.2153 16.9396V75.0182C66.2153 77.6912 64.0484 79.858 61.3754 79.858H20.2364C17.5634 79.858 15.3965 77.6912 15.3965 75.0182V16.9396Z" fill="#DFE1E6"/>
<path d="M12.9766 16.9396C12.9766 14.2666 15.1435 12.0997 17.8164 12.0997H56.5355C59.2085 12.0997 61.3754 14.2666 61.3754 16.9396V75.0182C61.3754 77.6912 59.2085 79.858 56.5355 79.858H17.8164C15.1435 79.858 12.9766 77.6912 12.9766 75.0182V16.9396Z" fill="#F4F5F7"/>
<path d="M39.9415 66.5484C39.9415 68.5531 38.6645 70.1783 37.0894 70.1783C35.5142 70.1783 34.2373 68.5531 34.2373 66.5484C34.2373 64.5436 35.5142 62.9185 37.0894 62.9185C38.6645 62.9185 39.9415 64.5436 39.9415 66.5484Z" fill="url(#opened-safe-paint5_linear_27756_213191)"/>
<path d="M51.3501 66.5484C51.3501 68.5531 50.0732 70.1783 48.4981 70.1783C46.9229 70.1783 45.646 68.5531 45.646 66.5484C45.646 64.5436 46.9229 62.9185 48.4981 62.9185C50.0732 62.9185 51.3501 64.5436 51.3501 66.5484Z" fill="url(#opened-safe-paint6_linear_27756_213191)"/>
<path d="M29.7437 38.7191C29.0754 38.7191 28.5337 38.1773 28.5337 37.5091C28.5337 36.8408 29.0754 36.2991 29.7437 36.2991L55.8445 36.2991C56.5127 36.2991 57.0544 36.8408 57.0544 37.5091C57.0544 38.1773 56.5127 38.7191 55.8445 38.7191L29.7437 38.7191Z" fill="url(#opened-safe-paint7_linear_27756_213191)"/>
<path d="M34.0541 50.3428C33.6828 50.8153 33.0809 50.8153 32.7096 50.3428C32.3383 49.8703 32.3383 49.1042 32.7096 48.6316L51.5323 24.6754C51.9036 24.2029 52.5055 24.2029 52.8768 24.6754C53.2481 25.148 53.2481 25.9141 52.8768 26.3866L34.0541 50.3428Z" fill="url(#opened-safe-paint8_linear_27756_213191)"/>
<path d="M32.7108 26.3866C32.3395 25.9141 32.3395 25.148 32.7108 24.6755C33.0821 24.203 33.684 24.203 34.0553 24.6755L52.878 48.6317C53.2493 49.1042 53.2493 49.8703 52.878 50.3428C52.5068 50.8154 51.9048 50.8154 51.5335 50.3428L32.7108 26.3866Z" fill="url(#opened-safe-paint9_linear_27756_213191)"/>
<path d="M41.8433 20.3102C41.8433 19.7851 42.2689 19.3595 42.794 19.3595C43.319 19.3595 43.7446 19.7851 43.7446 20.3102V54.7079C43.7446 55.233 43.319 55.6586 42.794 55.6586C42.2689 55.6586 41.8433 55.233 41.8433 54.7079V20.3102Z" fill="url(#opened-safe-paint10_linear_27756_213191)"/>
<path d="M51.3498 37.5091C51.3498 43.5233 47.519 48.3988 42.7935 48.3988C38.0681 48.3988 34.2373 43.5233 34.2373 37.5091C34.2373 31.4948 38.0681 26.6193 42.7935 26.6193C47.519 26.6193 51.3498 31.4948 51.3498 37.5091Z" fill="url(#opened-safe-paint11_linear_27756_213191)"/>
<path d="M47.5465 37.5091C47.5465 40.8503 45.4183 43.5589 42.793 43.5589C40.1677 43.5589 38.0396 40.8503 38.0396 37.5091C38.0396 34.1678 40.1677 31.4592 42.793 31.4592C45.4183 31.4592 47.5465 34.1678 47.5465 37.5091Z" fill="url(#opened-safe-paint12_linear_27756_213191)"/>
<path d="M10.5566 21.2609C10.5566 20.2108 11.4079 19.3595 12.458 19.3595C13.5081 19.3595 14.3594 20.2108 14.3594 21.2609V29.5578C14.3594 30.6079 13.5081 31.4592 12.458 31.4592C11.4079 31.4592 10.5566 30.6079 10.5566 29.5578V21.2609Z" fill="url(#opened-safe-paint13_linear_27756_213191)"/>
<path d="M10.5566 62.3999C10.5566 61.3498 11.4079 60.4985 12.458 60.4985C13.5081 60.4985 14.3594 61.3498 14.3594 62.3999V70.6969C14.3594 71.747 13.5081 72.5982 12.458 72.5982C11.4079 72.5982 10.5566 71.747 10.5566 70.6969V62.3999Z" fill="url(#opened-safe-paint14_linear_27756_213191)"/>
<defs>
<linearGradient id="opened-safe-paint0_linear_27756_213191" x1="-56.2425" y1="202.307" x2="208.512" y2="-105.705" gradientUnits="userSpaceOnUse">
<stop stop-color="#DFE1E6"/>
<stop offset="1" stop-color="#DFE1E6"/>
</linearGradient>
<linearGradient id="opened-safe-paint1_linear_27756_213191" x1="22.9785" y1="87.3599" x2="20.2355" y2="100.069" gradientUnits="userSpaceOnUse">
<stop stop-color="#42526E"/>
<stop offset="1" stop-color="#AAB5C7"/>
</linearGradient>
<linearGradient id="opened-safe-paint2_linear_27756_213191" x1="96.8271" y1="-52.2707" x2="27.382" y2="102.865" gradientUnits="userSpaceOnUse">
<stop stop-color="#42526E"/>
<stop offset="1" stop-color="#AAB5C7"/>
</linearGradient>
<linearGradient id="opened-safe-paint3_linear_27756_213191" x1="81.0571" y1="87.3599" x2="78.3141" y2="100.069" gradientUnits="userSpaceOnUse">
<stop stop-color="#42526E"/>
<stop offset="1" stop-color="#AAB5C7"/>
</linearGradient>
<linearGradient id="opened-safe-paint4_linear_27756_213191" x1="96.8271" y1="-52.2707" x2="27.382" y2="102.865" gradientUnits="userSpaceOnUse">
<stop stop-color="#42526E"/>
<stop offset="1" stop-color="#AAB5C7"/>
</linearGradient>
<linearGradient id="opened-safe-paint5_linear_27756_213191" x1="37.0894" y1="62.9185" x2="35.9184" y2="77.6865" gradientUnits="userSpaceOnUse">
<stop stop-color="#66DE7D"/>
<stop offset="1" stop-color="#4ABE6B"/>
</linearGradient>
<linearGradient id="opened-safe-paint6_linear_27756_213191" x1="48.4981" y1="62.9185" x2="47.3271" y2="77.6865" gradientUnits="userSpaceOnUse">
<stop stop-color="#EB4B68"/>
<stop offset="1" stop-color="#CA365F"/>
</linearGradient>
<linearGradient id="opened-safe-paint7_linear_27756_213191" x1="1.43898" y1="35.6135" x2="4.35493" y2="50.4479" gradientUnits="userSpaceOnUse">
<stop stop-color="#42526E"/>
<stop offset="1" stop-color="#AAB5C7"/>
</linearGradient>
<linearGradient id="opened-safe-paint8_linear_27756_213191" x1="12.4976" y1="73.3864" x2="23.6381" y2="79.7976" gradientUnits="userSpaceOnUse">
<stop stop-color="#42526E"/>
<stop offset="1" stop-color="#AAB5C7"/>
</linearGradient>
<linearGradient id="opened-safe-paint9_linear_27756_213191" x1="14.6051" y1="-1.04891" x2="5.19106" y2="9.04998" gradientUnits="userSpaceOnUse">
<stop stop-color="#42526E"/>
<stop offset="1" stop-color="#AAB5C7"/>
</linearGradient>
<linearGradient id="opened-safe-paint10_linear_27756_213191" x1="44.2834" y1="-15.1247" x2="32.3531" y2="-13.6769" gradientUnits="userSpaceOnUse">
<stop stop-color="#42526E"/>
<stop offset="1" stop-color="#AAB5C7"/>
</linearGradient>
<linearGradient id="opened-safe-paint11_linear_27756_213191" x1="56.1983" y1="5.92882" x2="30.9381" y2="51.9084" gradientUnits="userSpaceOnUse">
<stop stop-color="#42526E"/>
<stop offset="1" stop-color="#AAB5C7"/>
</linearGradient>
<linearGradient id="opened-safe-paint12_linear_27756_213191" x1="31.9748" y1="58.0786" x2="67.1404" y2="25.0653" gradientUnits="userSpaceOnUse">
<stop stop-color="#DFE1E6"/>
<stop offset="1" stop-color="#DFE1E6"/>
</linearGradient>
<linearGradient id="opened-safe-paint13_linear_27756_213191" x1="15.4369" y1="7.86477" x2="-0.38671" y2="19.3858" gradientUnits="userSpaceOnUse">
<stop stop-color="#42526E"/>
<stop offset="1" stop-color="#AAB5C7"/>
</linearGradient>
<linearGradient id="opened-safe-paint14_linear_27756_213191" x1="15.4369" y1="49.0038" x2="-0.38671" y2="60.5249" gradientUnits="userSpaceOnUse">
<stop stop-color="#42526E"/>
<stop offset="1" stop-color="#AAB5C7"/>
</linearGradient>
<clipPath id="opened-safe-clip0_27756_213191">
<rect width="21.695" height="21.695" fill="white" transform="translate(52.9053 53.1775) rotate(-16.0239)"/>
</clipPath>
<clipPath id="opened-safe-clip1_27756_213191">
<rect width="21.695" height="21.695" fill="white" transform="translate(42.5952 58.7595) rotate(-11.4609)"/>
</clipPath>
<clipPath id="opened-safe-clip2_27756_213191">
<rect width="21.695" height="21.695" fill="white" transform="translate(42.0156 74.4808) rotate(-24.9817)"/>
</clipPath>
<clipPath id="opened-safe-clip3_27756_213191">
<rect width="26.7092" height="26.7092" fill="white" transform="translate(64.3223 55.3727) rotate(-16.0239)"/>
</clipPath>
<clipPath id="opened-safe-clip4_27756_213191">
<rect width="26.7092" height="26.7092" fill="white" transform="translate(70.7393 90.2114) rotate(-49.2398)"/>
</clipPath>
<clipPath id="opened-safe-clip5_27756_213191">
<rect width="26.7092" height="26.7092" fill="white" transform="translate(81.1665 79.106) rotate(-21.5072)"/>
</clipPath>
<clipPath id="opened-safe-clip6_27756_213191">
<rect width="21.0744" height="21.0744" fill="white" transform="translate(105.986 76.762) rotate(15)"/>
</clipPath>
<clipPath id="opened-safe-clip7_27756_213191">
<rect width="21.0744" height="21.0744" fill="white" transform="translate(131.395 78.2516) rotate(49.2531)"/>
</clipPath>
<clipPath id="opened-safe-clip8_27756_213191">
<rect width="26.7092" height="26.7092" fill="white" transform="translate(61.1294 56.7018) rotate(13.2667)"/>
</clipPath>
</defs>
</svg>
