<svg class="icon" viewBox="0 0 301 245" fill="none" xmlns="http://www.w3.org/2000/svg">
<g clip-path="url(#clip0)">
<path d="M97.1329 18.769C76.6917 18.769 60.0505 35.4104 60.0505 55.8518C60.0505 76.2932 76.6917 92.9345 97.1329 92.9345C117.574 92.9345 134.215 76.2932 134.215 55.8518C134.346 35.4104 117.705 18.769 97.1329 18.769Z" fill="url(#paint0_linear)"/>
<path d="M98.987 18.769C79.5679 18.769 63.7588 35.4104 63.7588 55.8518C63.7588 76.2932 79.5679 92.9345 98.987 92.9345C118.406 92.9345 134.215 76.2932 134.215 55.8518C134.34 35.4104 118.531 18.769 98.987 18.769Z" fill="url(#paint1_linear)"/>
<g opacity="0.5" filter="url(#filter0_i)">
<path d="M98.9872 24.3315C82.481 24.3315 69.0432 38.4767 69.0432 55.8519C69.0432 73.227 82.481 87.3722 98.9872 87.3722C115.493 87.3722 128.931 73.227 128.931 55.8519C129.037 38.4767 115.599 24.3315 98.9872 24.3315Z" fill="#E99B26"/>
</g>
<path d="M96.2061 37.3105C94.9888 37.3105 93.7861 37.6965 92.6862 38.4684C91.7035 39.2249 90.9849 40.3828 90.6182 41.5252C89.7822 41.0312 88.8583 40.8459 87.8609 40.8459C87.5676 40.8459 87.2743 40.8614 86.981 40.8922C85.7636 41.1392 84.6783 41.6487 83.6957 42.6831C82.8597 43.563 82.2437 44.8599 81.9944 46.1412C81.7597 47.4226 81.9944 48.6886 82.5957 49.9699C81.3784 50.3559 80.4104 51.1278 79.6918 52.1467C78.9731 53.1811 78.5918 54.447 78.5918 55.8519C78.5918 57.1333 78.9585 58.3992 79.6918 59.5571C80.4104 60.5915 81.5104 61.3479 82.5957 61.7339C81.9944 62.8918 81.8771 64.1577 81.9944 65.5626C82.1117 66.9675 82.713 67.9864 83.6957 69.0208C84.5317 69.9008 85.7636 70.5492 86.981 70.8116C87.289 70.8734 87.6116 70.9197 87.9196 70.9197C88.8143 70.9197 89.7089 70.6572 90.6182 70.1786C90.9849 71.46 91.7182 72.4789 92.6862 73.2354C93.6688 73.9919 94.8715 74.3933 96.2061 74.3933C97.4234 74.3933 98.6261 74.0073 99.726 73.2354C100.709 72.4789 101.427 71.3211 101.794 70.1786C102.63 70.6727 103.554 70.8579 104.551 70.8579C104.845 70.8579 105.138 70.8425 105.431 70.8116C106.649 70.5646 107.734 70.0551 108.717 69.0208C109.552 68.1408 110.168 66.844 110.418 65.5626C110.652 64.2812 110.418 63.0153 109.816 61.7339C111.034 61.3479 112.119 60.576 112.838 59.4336C113.439 58.2757 113.82 57.0098 113.82 55.8519C113.82 54.5705 113.454 53.3046 112.72 52.2702C112.002 51.2359 110.902 50.4794 109.816 49.9699C110.418 48.8121 110.535 47.5461 110.418 46.1412C110.183 44.8599 109.699 43.7174 108.717 42.6831C107.881 41.8031 106.649 41.1547 105.431 40.8922C105.123 40.8305 104.801 40.7842 104.493 40.7842C103.598 40.7842 102.703 41.0466 101.794 41.5252C101.427 40.2438 100.694 39.2249 99.726 38.4684C98.7581 37.6965 97.5554 37.3105 96.2061 37.3105Z" fill="url(#paint2_linear)" fill-opacity="0.88"/>
<g filter="url(#filter1_d)">
<path d="M98.9874 37.3105C97.77 37.3105 96.5674 37.6965 95.4674 38.4684C94.4848 39.2249 93.7661 40.3828 93.3995 41.5252C92.5635 41.0312 91.6395 40.8459 90.6422 40.8459C90.3489 40.8459 90.0555 40.8614 89.7622 40.8922C88.5449 41.1392 87.4596 41.6487 86.4769 42.6831C85.641 43.563 85.025 44.8599 84.7756 46.1412C84.541 47.4226 84.7756 48.6886 85.377 49.9699C84.1597 50.3559 83.1917 51.1278 82.473 52.1467C81.7544 53.1811 81.373 54.447 81.373 55.8519C81.373 57.1333 81.7397 58.3992 82.473 59.5571C83.1917 60.5915 84.2917 61.3479 85.377 61.7339C84.7756 62.8918 84.6583 64.1577 84.7756 65.5626C84.893 66.9675 85.4943 67.9864 86.4769 69.0208C87.3129 69.9008 88.5449 70.5492 89.7622 70.8116C90.0702 70.8734 90.3929 70.9197 90.7009 70.9197C91.5955 70.9197 92.4902 70.6572 93.3995 70.1786C93.7661 71.46 94.4994 72.4789 95.4674 73.2354C96.4501 73.9919 97.6527 74.3933 98.9874 74.3933C100.205 74.3933 101.407 74.0073 102.507 73.2354C103.49 72.4789 104.209 71.3211 104.575 70.1786C105.411 70.6727 106.335 70.8579 107.333 70.8579C107.626 70.8579 107.919 70.8425 108.212 70.8116C109.43 70.5646 110.515 70.0551 111.498 69.0208C112.334 68.1408 112.95 66.844 113.199 65.5626C113.434 64.2812 113.199 63.0153 112.598 61.7339C113.815 61.3479 114.9 60.576 115.619 59.4336C116.22 58.2757 116.602 57.0098 116.602 55.8519C116.602 54.5705 116.235 53.3046 115.502 52.2702C114.783 51.2359 113.683 50.4794 112.598 49.9699C113.199 48.8121 113.316 47.5461 113.199 46.1412C112.964 44.8599 112.48 43.7174 111.498 42.6831C110.662 41.8031 109.43 41.1547 108.212 40.8922C107.905 40.8305 107.582 40.7842 107.274 40.7842C106.379 40.7842 105.485 41.0466 104.575 41.5252C104.209 40.2438 103.475 39.2249 102.507 38.4684C101.539 37.6965 100.337 37.3105 98.9874 37.3105Z" fill="#FBD677"/>
<path d="M98.9874 37.3105C97.77 37.3105 96.5674 37.6965 95.4674 38.4684C94.4848 39.2249 93.7661 40.3828 93.3995 41.5252C92.5635 41.0312 91.6395 40.8459 90.6422 40.8459C90.3489 40.8459 90.0555 40.8614 89.7622 40.8922C88.5449 41.1392 87.4596 41.6487 86.4769 42.6831C85.641 43.563 85.025 44.8599 84.7756 46.1412C84.541 47.4226 84.7756 48.6886 85.377 49.9699C84.1597 50.3559 83.1917 51.1278 82.473 52.1467C81.7544 53.1811 81.373 54.447 81.373 55.8519C81.373 57.1333 81.7397 58.3992 82.473 59.5571C83.1917 60.5915 84.2917 61.3479 85.377 61.7339C84.7756 62.8918 84.6583 64.1577 84.7756 65.5626C84.893 66.9675 85.4943 67.9864 86.4769 69.0208C87.3129 69.9008 88.5449 70.5492 89.7622 70.8116C90.0702 70.8734 90.3929 70.9197 90.7009 70.9197C91.5955 70.9197 92.4902 70.6572 93.3995 70.1786C93.7661 71.46 94.4994 72.4789 95.4674 73.2354C96.4501 73.9919 97.6527 74.3933 98.9874 74.3933C100.205 74.3933 101.407 74.0073 102.507 73.2354C103.49 72.4789 104.209 71.3211 104.575 70.1786C105.411 70.6727 106.335 70.8579 107.333 70.8579C107.626 70.8579 107.919 70.8425 108.212 70.8116C109.43 70.5646 110.515 70.0551 111.498 69.0208C112.334 68.1408 112.95 66.844 113.199 65.5626C113.434 64.2812 113.199 63.0153 112.598 61.7339C113.815 61.3479 114.9 60.576 115.619 59.4336C116.22 58.2757 116.602 57.0098 116.602 55.8519C116.602 54.5705 116.235 53.3046 115.502 52.2702C114.783 51.2359 113.683 50.4794 112.598 49.9699C113.199 48.8121 113.316 47.5461 113.199 46.1412C112.964 44.8599 112.48 43.7174 111.498 42.6831C110.662 41.8031 109.43 41.1547 108.212 40.8922C107.905 40.8305 107.582 40.7842 107.274 40.7842C106.379 40.7842 105.485 41.0466 104.575 41.5252C104.209 40.2438 103.475 39.2249 102.507 38.4684C101.539 37.6965 100.337 37.3105 98.9874 37.3105Z" stroke="#C87C1B"/>
</g>
</g>
<rect x="89.5447" y="206.027" width="97.8663" height="10.7251" rx="4.0219" fill="url(#paint3_linear)"/>
<rect x="89.5447" y="206.027" width="97.8663" height="10.7251" rx="4.0219" fill="url(#paint4_linear)"/>
<rect x="94.907" y="195.302" width="97.8663" height="10.7251" rx="4.0219" fill="url(#paint5_linear)"/>
<rect x="94.907" y="195.302" width="97.8663" height="10.7251" rx="4.0219" fill="url(#paint6_linear)"/>
<rect x="94.907" y="184.577" width="97.8663" height="10.7251" rx="4.0219" fill="url(#paint7_linear)"/>
<rect x="94.907" y="184.577" width="97.8663" height="10.7251" rx="4.0219" fill="url(#paint8_linear)"/>
<rect x="89.5447" y="173.852" width="97.8663" height="10.7251" rx="4.0219" fill="url(#paint9_linear)"/>
<rect x="89.5447" y="173.852" width="97.8663" height="10.7251" rx="4.0219" fill="url(#paint10_linear)"/>
<rect x="94.907" y="163.127" width="97.8663" height="10.7251" rx="4.0219" fill="url(#paint11_linear)"/>
<rect x="94.907" y="163.127" width="97.8663" height="10.7251" rx="4.0219" fill="url(#paint12_linear)"/>
<rect x="89.5447" y="152.402" width="97.8663" height="10.7251" rx="4.0219" fill="url(#paint13_linear)"/>
<rect x="89.5447" y="152.402" width="97.8663" height="10.7251" rx="4.0219" fill="url(#paint14_linear)"/>
<rect x="106.973" y="141.677" width="97.8663" height="10.7251" rx="4.0219" fill="url(#paint15_linear)"/>
<rect x="106.973" y="141.677" width="97.8663" height="10.7251" rx="4.0219" fill="url(#paint16_linear)"/>
<rect x="92.2263" y="130.952" width="97.8663" height="10.7251" rx="4.0219" fill="url(#paint17_linear)"/>
<rect x="92.2263" y="130.952" width="97.8663" height="10.7251" rx="4.0219" fill="url(#paint18_linear)"/>
<g clip-path="url(#clip1)">
<rect x="125.482" y="68.9507" width="59.7562" height="41.8294" rx="5.97562" transform="rotate(26.1793 125.482 68.9507)" fill="url(#paint19_linear)"/>
<circle cx="156.543" cy="117.514" r="4.48172" transform="rotate(26.1793 156.543 117.514)" fill="#FAC34B"/>
<circle cx="151.18" cy="114.878" r="4.48172" transform="rotate(26.1793 151.18 114.878)" fill="#EB4B68"/>
<mask id="mask0" mask-type="alpha" maskUnits="userSpaceOnUse" x="109" y="70" width="34" height="44">
<rect x="125.798" y="115.716" width="20.9147" height="41.8293" rx="5.97562" transform="rotate(-153.821 125.798 115.716)" fill="white"/>
</mask>
<g mask="url(#mask0)">
<path d="M112.844 104.687C111.475 104.895 110.168 104.703 109.017 104.137C107.771 103.525 106.799 102.607 106.227 101.408C105.774 100.481 105.538 99.4547 105.592 98.3684C104.839 98.3132 104.129 98.1416 103.477 97.8209C103.163 97.6668 102.873 97.4664 102.622 97.275L102.615 97.2692C101.609 96.4764 100.751 95.3186 100.362 94.0914C99.9102 92.6684 99.9831 91.3693 100.343 90.0915L100.353 90.0561L100.366 90.0218C100.78 88.9635 101.316 88 102.121 87.2299C101.549 86.404 101.066 85.4192 100.899 84.3496C100.681 83.0241 100.922 81.6638 101.509 80.47C102.051 79.3666 102.985 78.3839 104.028 77.6209L104.053 77.6032L104.078 77.5876C105.071 76.981 106.172 76.7243 107.253 76.7542C107.375 75.6263 107.735 74.5854 108.415 73.6705L108.42 73.6639C109.227 72.6041 110.385 71.6841 111.594 71.2429C112.997 70.7313 114.261 70.7624 115.494 71.0884L115.525 71.0964L115.554 71.1072C115.834 71.2105 116.108 71.3278 116.375 71.4591C117.057 71.7944 117.68 72.2177 118.195 72.78C118.981 72.1343 119.95 71.6201 120.978 71.4171L120.993 71.4142L121.008 71.4119C122.378 71.2037 123.685 71.3959 124.835 71.9616C126.077 72.5721 127.035 73.5044 127.622 74.6831L127.624 74.6876C128.078 75.6157 128.314 76.6429 128.261 77.7305C129.014 77.7856 129.723 77.9573 130.376 78.278C130.689 78.4321 130.98 78.6325 131.23 78.8239L131.238 78.8297C132.244 79.6225 133.101 80.7803 133.491 82.0075C133.923 83.371 134.045 84.6497 133.487 86.0771C133.079 87.1196 132.553 88.0702 131.767 88.8345C132.371 89.6205 132.841 90.5992 133.005 91.6499L133.007 91.6651L133.009 91.6803C133.166 93.0796 132.934 94.4282 132.344 95.6289C131.707 96.9249 130.766 97.9397 129.597 98.5822L129.592 98.5847C128.671 99.0825 127.66 99.3601 126.6 99.341C126.479 100.47 126.119 101.512 125.437 102.428L125.432 102.435C124.625 103.495 123.468 104.415 122.258 104.856C120.856 105.368 119.592 105.337 118.358 105.01L118.328 105.002L118.299 104.992C118.018 104.888 117.744 104.771 117.477 104.64C116.795 104.304 116.172 103.881 115.657 103.319C114.871 103.965 113.902 104.479 112.874 104.682L112.859 104.685L112.844 104.687Z" fill="#19194B"/>
<path d="M110.063 101.934C109.223 101.521 108.612 100.921 108.252 100.207C107.875 99.4068 107.761 98.5935 107.898 97.7616C107.982 97.3139 107.864 96.8773 107.586 96.5513C107.459 96.41 107.301 96.2695 107.119 96.1797C106.924 96.084 106.692 96.0331 106.466 96.0323C105.72 96.044 105.109 95.9332 104.586 95.676C104.403 95.5862 104.239 95.4897 104.088 95.3679C103.39 94.8198 102.811 94.0302 102.574 93.2513C102.313 92.429 102.303 91.6195 102.564 90.659C102.96 89.6388 103.431 88.9871 104.048 88.5328C104.399 88.2795 104.61 87.9103 104.676 87.5007C104.741 87.0911 104.623 86.6545 104.382 86.3465C103.748 85.5458 103.341 84.7144 103.208 83.9393C103.063 83.1581 103.219 82.2881 103.612 81.4876C103.943 80.8142 104.574 80.1147 105.332 79.5566C106.237 79.0388 107.142 79.042 107.765 79.1274C108.198 79.1985 108.628 79.0626 108.955 78.766C109.282 78.4693 109.482 78.0627 109.487 77.5918C109.491 76.5685 109.738 75.759 110.222 75.1133C110.78 74.378 111.569 73.7563 112.336 73.4866C113.146 73.1908 113.936 73.1529 114.863 73.3879C115.064 73.4709 115.247 73.5607 115.417 73.6444C116.086 73.9735 116.566 74.3511 116.878 74.852C117.017 75.0621 117.199 75.2147 117.43 75.3283C117.588 75.4061 117.778 75.4518 117.949 75.4727C118.376 75.4938 118.806 75.3265 119.121 75.0238C119.709 74.4133 120.508 73.9545 121.256 73.7858C122.15 73.6575 123.012 73.7811 123.778 74.158C124.618 74.5709 125.23 75.1713 125.589 75.8845C125.966 76.6851 126.08 77.4984 125.943 78.3303C125.859 78.7781 125.977 79.2146 126.255 79.5406C126.382 79.6819 126.54 79.8225 126.722 79.9122C126.917 80.008 127.149 80.0589 127.375 80.0597C128.121 80.0479 128.732 80.1587 129.255 80.416C129.438 80.5057 129.602 80.6022 129.754 80.7241C130.451 81.2722 131.03 82.0617 131.267 82.8406C131.599 83.8872 131.616 84.5899 131.321 85.344C130.906 86.4023 130.44 87.1041 129.818 87.5397C129.449 87.7997 129.23 88.213 129.165 88.654C129.13 89.0943 129.278 89.5301 129.562 89.8434C130.137 90.4259 130.545 91.2258 130.696 91.9942C130.791 92.9084 130.641 93.7972 130.254 94.5849C129.823 95.4616 129.217 96.1103 128.509 96.504C127.716 96.9186 126.92 97.0634 126.113 96.9511C125.68 96.88 125.25 97.0159 124.923 97.3125C124.596 97.6092 124.396 98.0158 124.391 98.4867C124.387 99.51 124.14 100.319 123.656 100.965C123.098 101.701 122.309 102.322 121.542 102.592C120.732 102.888 119.942 102.926 119.015 102.691C118.814 102.608 118.631 102.518 118.461 102.434C117.792 102.105 117.312 101.727 117 101.226C116.861 101.016 116.679 100.864 116.448 100.75C116.29 100.672 116.101 100.627 115.929 100.606C115.502 100.585 115.072 100.752 114.757 101.055C114.169 101.665 113.37 102.124 112.622 102.293C111.679 102.428 110.805 102.299 110.063 101.934Z" fill="white"/>
</g>
<rect x="144.32" y="88.1992" width="25.3964" height="2.98781" rx="1.49391" transform="rotate(26.1793 144.32 88.1992)" fill="#19194B"/>
<rect x="141.683" y="93.5615" width="10.4573" height="2.98781" rx="1.49391" transform="rotate(26.1793 141.683 93.5615)" fill="#19194B"/>
<rect x="139.046" y="98.9243" width="10.4573" height="2.98781" rx="1.49391" transform="rotate(26.1793 139.046 98.9243)" fill="#19194B"/>
<rect x="152.408" y="98.835" width="10.4573" height="2.98781" rx="1.49391" transform="rotate(26.1793 152.408 98.835)" fill="#19194B"/>
</g>
<path d="M82.6277 178.799H148.828V245H92.0849C86.8618 245 82.6277 240.766 82.6277 235.543V178.799Z" fill="url(#paint20_linear)"/>
<path d="M122.939 146.582C122.491 146.024 121.813 145.699 121.096 145.699H60.9618C58.9769 145.699 57.8755 147.997 59.1188 149.544L82.6273 178.799H148.828L122.939 146.582Z" fill="url(#paint21_linear)"/>
<path d="M148.237 178.799H214.438V235.543C214.438 240.766 210.204 245 204.981 245H148.237V178.799Z" fill="url(#paint22_linear)"/>
<path d="M174.126 146.582C174.575 146.024 175.253 145.699 175.969 145.699H236.104C238.089 145.699 239.19 147.997 237.947 149.544L214.438 178.799H148.237L174.126 146.582Z" fill="url(#paint23_linear)"/>
<rect x="106.862" y="178.799" width="16.5502" height="66.2008" fill="url(#paint24_linear)"/>
<path d="M80.8542 145.699H97.4044L123.412 178.799H106.862L80.8542 145.699Z" fill="url(#paint25_linear)"/>
<rect x="173.063" y="178.799" width="16.5502" height="66.2008" fill="url(#paint26_linear)"/>
<path d="M215.62 145.699H199.07L173.063 178.799H189.613L215.62 145.699Z" fill="url(#paint27_linear)"/>
<g clip-path="url(#clip2)">
<path d="M204.169 62.5791C186.802 62.5791 172.664 76.7173 172.664 94.084C172.664 111.451 186.802 125.589 204.169 125.589C221.535 125.589 235.673 111.451 235.673 94.084C235.785 76.7173 221.647 62.5791 204.169 62.5791Z" fill="url(#paint28_linear)"/>
<path d="M205.744 62.5791C189.246 62.5791 175.815 76.7173 175.815 94.084C175.815 111.451 189.246 125.589 205.744 125.589C222.242 125.589 235.673 111.451 235.673 94.084C235.779 76.7173 222.348 62.5791 205.744 62.5791Z" fill="url(#paint29_linear)"/>
<g opacity="0.5" filter="url(#filter2_i)">
<path d="M205.744 67.3047C191.721 67.3047 180.304 79.3222 180.304 94.0839C180.304 108.846 191.721 120.863 205.744 120.863C219.768 120.863 231.184 108.846 231.184 94.0839C231.274 79.3222 219.858 67.3047 205.744 67.3047Z" fill="#E99B26"/>
</g>
<path d="M203.382 78.3315C202.347 78.3315 201.326 78.6594 200.391 79.3153C199.556 79.9579 198.946 80.9416 198.634 81.9122C197.924 81.4925 197.139 81.3351 196.292 81.3351C196.042 81.3351 195.793 81.3482 195.544 81.3745C194.51 81.5843 193.588 82.0172 192.753 82.896C192.043 83.6436 191.519 84.7453 191.308 85.834C191.108 86.9226 191.308 87.9981 191.818 89.0868C190.784 89.4147 189.962 90.0705 189.351 90.9361C188.741 91.8149 188.417 92.8904 188.417 94.084C188.417 95.1726 188.728 96.2482 189.351 97.2319C189.962 98.1106 190.896 98.7533 191.818 99.0812C191.308 100.065 191.208 101.14 191.308 102.334C191.407 103.528 191.918 104.393 192.753 105.272C193.463 106.02 194.51 106.571 195.544 106.794C195.806 106.846 196.08 106.885 196.342 106.885C197.102 106.885 197.862 106.662 198.634 106.256C198.946 107.344 199.569 108.21 200.391 108.853C201.226 109.495 202.248 109.836 203.382 109.836C204.416 109.836 205.438 109.509 206.372 108.853C207.207 108.21 207.817 107.226 208.129 106.256C208.839 106.675 209.624 106.833 210.471 106.833C210.721 106.833 210.97 106.82 211.219 106.794C212.253 106.584 213.175 106.151 214.01 105.272C214.72 104.524 215.244 103.423 215.456 102.334C215.655 101.245 215.456 100.17 214.945 99.0812C215.979 98.7533 216.901 98.0975 217.512 97.1269C218.022 96.1432 218.346 95.0677 218.346 94.084C218.346 92.9954 218.035 91.9198 217.412 91.0411C216.801 90.1623 215.867 89.5196 214.945 89.0868C215.456 88.103 215.555 87.0275 215.456 85.834C215.256 84.7453 214.845 83.7747 214.01 82.896C213.3 82.1483 212.253 81.5975 211.219 81.3745C210.957 81.322 210.683 81.2827 210.422 81.2827C209.662 81.2827 208.901 81.5056 208.129 81.9122C207.817 80.8236 207.194 79.9579 206.372 79.3153C205.55 78.6594 204.528 78.3315 203.382 78.3315Z" fill="url(#paint30_linear)" fill-opacity="0.88"/>
<g filter="url(#filter3_d)">
<path d="M205.744 78.3315C204.71 78.3315 203.688 78.6594 202.754 79.3153C201.919 79.9579 201.309 80.9416 200.997 81.9122C200.287 81.4925 199.502 81.3351 198.654 81.3351C198.405 81.3351 198.156 81.3482 197.907 81.3745C196.873 81.5843 195.951 82.0172 195.116 82.896C194.405 83.6436 193.882 84.7453 193.67 85.834C193.471 86.9226 193.67 87.9981 194.181 89.0868C193.147 89.4147 192.325 90.0705 191.714 90.9361C191.104 91.8149 190.78 92.8904 190.78 94.084C190.78 95.1726 191.091 96.2482 191.714 97.2319C192.325 98.1106 193.259 98.7533 194.181 99.0812C193.67 100.065 193.571 101.14 193.67 102.334C193.77 103.528 194.281 104.393 195.116 105.272C195.826 106.02 196.873 106.571 197.907 106.794C198.169 106.846 198.443 106.885 198.704 106.885C199.464 106.885 200.224 106.662 200.997 106.256C201.309 107.344 201.932 108.21 202.754 108.853C203.589 109.495 204.61 109.836 205.744 109.836C206.779 109.836 207.8 109.509 208.735 108.853C209.57 108.21 210.18 107.226 210.492 106.256C211.202 106.675 211.987 106.833 212.834 106.833C213.083 106.833 213.333 106.82 213.582 106.794C214.616 106.584 215.538 106.151 216.373 105.272C217.083 104.524 217.607 103.423 217.818 102.334C218.018 101.245 217.818 100.17 217.308 99.0812C218.342 98.7533 219.264 98.0975 219.874 97.1269C220.385 96.1432 220.709 95.0677 220.709 94.084C220.709 92.9954 220.398 91.9198 219.775 91.0411C219.164 90.1623 218.23 89.5196 217.308 89.0868C217.818 88.103 217.918 87.0275 217.818 85.834C217.619 84.7453 217.208 83.7747 216.373 82.896C215.663 82.1483 214.616 81.5975 213.582 81.3745C213.32 81.322 213.046 81.2827 212.784 81.2827C212.024 81.2827 211.264 81.5056 210.492 81.9122C210.18 80.8236 209.557 79.9579 208.735 79.3153C207.912 78.6594 206.891 78.3315 205.744 78.3315Z" fill="#FBD677"/>
<path d="M205.744 78.3315C204.71 78.3315 203.688 78.6594 202.754 79.3153C201.919 79.9579 201.309 80.9416 200.997 81.9122C200.287 81.4925 199.502 81.3351 198.654 81.3351C198.405 81.3351 198.156 81.3482 197.907 81.3745C196.873 81.5843 195.951 82.0172 195.116 82.896C194.405 83.6436 193.882 84.7453 193.67 85.834C193.471 86.9226 193.67 87.9981 194.181 89.0868C193.147 89.4147 192.325 90.0705 191.714 90.9361C191.104 91.8149 190.78 92.8904 190.78 94.084C190.78 95.1726 191.091 96.2482 191.714 97.2319C192.325 98.1106 193.259 98.7533 194.181 99.0812C193.67 100.065 193.571 101.14 193.67 102.334C193.77 103.528 194.281 104.393 195.116 105.272C195.826 106.02 196.873 106.571 197.907 106.794C198.169 106.846 198.443 106.885 198.704 106.885C199.464 106.885 200.224 106.662 200.997 106.256C201.309 107.344 201.932 108.21 202.754 108.853C203.589 109.495 204.61 109.836 205.744 109.836C206.779 109.836 207.8 109.509 208.735 108.853C209.57 108.21 210.18 107.226 210.492 106.256C211.202 106.675 211.987 106.833 212.834 106.833C213.083 106.833 213.333 106.82 213.582 106.794C214.616 106.584 215.538 106.151 216.373 105.272C217.083 104.524 217.607 103.423 217.818 102.334C218.018 101.245 217.818 100.17 217.308 99.0812C218.342 98.7533 219.264 98.0975 219.874 97.1269C220.385 96.1432 220.709 95.0677 220.709 94.084C220.709 92.9954 220.398 91.9198 219.775 91.0411C219.164 90.1623 218.23 89.5196 217.308 89.0868C217.818 88.103 217.918 87.0275 217.818 85.834C217.619 84.7453 217.208 83.7747 216.373 82.896C215.663 82.1483 214.616 81.5975 213.582 81.3745C213.32 81.322 213.046 81.2827 212.784 81.2827C212.024 81.2827 211.264 81.5056 210.492 81.9122C210.18 80.8236 209.557 79.9579 208.735 79.3153C207.912 78.6594 206.891 78.3315 205.744 78.3315Z" stroke="#C87C1B"/>
</g>
</g>
<path opacity="0.8" d="M37.1563 7.52159C37.6947 5.94539 38.6103 4.52468 39.8232 3.3831C41.0361 2.24153 42.5097 1.41368 44.1156 0.971618L48.1966 5.32061C46.5956 5.7625 45.1269 6.5889 43.9182 7.72791C42.7096 8.86692 41.7975 10.284 41.2615 11.856L37.1563 7.52159Z" fill="#66DE7D"/>
<path opacity="0.8" d="M39.2604 25.1172C40.5662 26.1512 41.5995 27.4887 42.2704 29.0133C42.9412 30.5378 43.2294 32.2033 43.1096 33.8646L37.6473 36.2586C37.7655 34.602 37.4772 32.9416 36.8073 31.4219C36.1374 29.9022 35.1063 28.5692 33.8037 27.5389L39.2604 25.1172Z" fill="#EB4B68"/>
<path opacity="0.91" d="M8.534 22.0276C7.11221 22.1274 5.68757 21.8782 4.38407 21.3018C3.08056 20.7253 1.9377 19.839 1.05495 18.7199L3.12604 14.0558C4.00699 15.1709 5.14711 16.0539 6.44718 16.6279C7.74725 17.2019 9.16789 17.4495 10.5855 17.3492L8.534 22.0276Z" fill="#FAC34B"/>
<path opacity="0.87" d="M18.813 20.3551C19.9875 21.4887 20.8672 22.8921 21.3754 24.4433C21.8837 25.9945 22.0052 27.6464 21.7292 29.2553L16.1725 31.0668C16.4465 29.4625 16.3243 27.8155 15.8165 26.2691C15.3088 24.7228 14.4308 23.3239 13.2591 22.1943L18.813 20.3551Z" fill="#7878C9"/>
<path opacity="0.87" d="M158.238 48.5079C159.413 49.6415 160.292 51.045 160.801 52.5962C161.309 54.1473 161.43 55.7992 161.155 57.4081L155.598 59.2197C155.872 57.6153 155.75 55.9683 155.242 54.422C154.734 52.8756 153.856 51.4768 152.684 50.3471L158.238 48.5079Z" fill="#7878C9"/>
<path opacity="0.81" d="M292.201 89.8324C293.22 89.0069 294.425 88.4429 295.711 88.1895C296.998 87.9361 298.327 88.001 299.583 88.3785L300.483 92.9864C299.231 92.6108 297.906 92.547 296.623 92.8005C295.34 93.0539 294.139 93.617 293.124 94.4406L292.201 89.8324Z" fill="#FAC34B"/>
<path opacity="0.92" d="M59.1599 23.3889C58.3373 24.3357 57.2958 25.0671 56.1259 25.5195C54.9561 25.9719 53.6934 26.1316 52.4478 25.9845L50.8343 21.7935C52.0764 21.9392 53.3352 21.7792 54.5014 21.3274C55.6675 20.8756 56.7056 20.1457 57.5253 19.2012L59.1599 23.3889Z" fill="#FAC34B"/>
<path opacity="0.92" d="M58.197 94.799C57.3744 95.7459 56.3329 96.4773 55.163 96.9297C53.9932 97.3821 52.7305 97.5417 51.4849 97.3947L49.8714 93.2037C51.1135 93.3494 52.3724 93.1894 53.5385 92.7376C54.7046 92.2858 55.7427 91.5559 56.5624 90.6113L58.197 94.799Z" fill="#FAC34B"/>
<path opacity="0.84" d="M95.0917 25.8471C94.2831 24.554 93.8029 23.0829 93.6928 21.5618C93.5826 20.0407 93.8459 18.5158 94.4596 17.1197L99.9065 16.7334C99.2955 18.1259 99.034 19.6465 99.1448 21.1631C99.2555 22.6797 99.7353 24.1462 100.542 25.4351L95.0917 25.8471Z" fill="#FAC34B"/>
<path opacity="0.92" d="M115.211 35.694C113.954 34.6016 112.983 33.2184 112.382 31.6649C111.781 30.1114 111.569 28.4345 111.764 26.7804L117.33 24.6376C117.137 26.2871 117.349 27.9589 117.949 29.5075C118.549 31.0561 119.518 32.4347 120.773 33.5232L115.211 35.694Z" fill="#EB4B68"/>
<path opacity="0.79" d="M169.706 16.3016C169.579 18.1127 169.012 19.8656 168.054 21.4077C167.096 22.9497 165.775 24.2342 164.207 25.1494L158.691 21.71C160.254 20.7965 161.57 19.5148 162.524 17.9767C163.479 16.4385 164.043 14.6904 164.168 12.8844L169.706 16.3016Z" fill="#00A0DF"/>
<path opacity="0.74" d="M196.488 32.1696C198.26 31.7924 200.097 31.854 201.84 32.3491C203.583 32.8442 205.179 33.7578 206.488 35.0103L204.706 41.2483C203.4 40.0003 201.808 39.0905 200.07 38.5979C198.332 38.1053 196.5 38.045 194.733 38.4221L196.488 32.1696Z" fill="#7878C9"/>
<path opacity="0.76" d="M227.267 3.63488C227.239 5.21701 226.826 6.76852 226.062 8.15438C225.299 9.54025 224.208 10.7185 222.885 11.5865L217.927 8.84461C219.245 7.97819 220.332 6.80269 221.093 5.42039C221.853 4.03808 222.265 2.49084 222.291 0.913297L227.267 3.63488Z" fill="#EB4B68"/>
<path opacity="0.84" d="M282.323 25.6404C281.303 27.2742 279.899 28.6338 278.233 29.601C276.568 30.5682 274.691 31.1137 272.766 31.1899L269.312 25.2207C271.231 25.1433 273.102 24.5982 274.762 23.6328C276.422 22.6673 277.822 21.3108 278.838 19.6813L282.323 25.6404Z" fill="#7878C9"/>
<path opacity="0.81" d="M23.0691 48.2621C22.9756 50.0552 22.4453 51.7983 21.5244 53.3397C20.6034 54.8811 19.3197 56.174 17.7849 57.106L12.2708 53.8003C13.8005 52.8699 15.0796 51.5799 15.9969 50.0424C16.9143 48.5049 17.442 46.7666 17.5342 44.9786L23.0691 48.2621Z" fill="#7878C9"/>
<path opacity="0.77" d="M33.0998 56.3407C34.4085 56.2028 35.7309 56.3868 36.9522 56.8767C38.1735 57.3666 39.2565 58.1476 40.107 59.1516L38.3464 63.5217C37.4977 62.5212 36.4173 61.7433 35.1993 61.2555C33.9812 60.7678 32.6625 60.5851 31.3578 60.7234L33.0998 56.3407Z" fill="#66DE7D"/>
<path opacity="0.77" d="M66.0317 102.08C67.3403 101.942 68.6628 102.126 69.8841 102.616C71.1054 103.106 72.1884 103.887 73.0389 104.891L71.2783 109.261C70.4295 108.26 69.3492 107.483 68.1311 106.995C66.9131 106.507 65.5944 106.324 64.2896 106.463L66.0317 102.08Z" fill="#66DE7D"/>
<path opacity="0.86" d="M65.8604 34.9535C67.1841 35.0225 68.4709 35.4139 69.6088 36.0938C70.7467 36.7737 71.7012 37.7213 72.3892 38.8543L69.9488 42.9249C69.262 41.7957 68.3097 40.8514 67.1747 40.1743C66.0397 39.4971 64.7564 39.1075 63.4365 39.0394L65.8604 34.9535Z" fill="#FAC34B"/>
<path opacity="0.98" d="M78.9921 15.6597C77.4246 14.9623 76.0513 13.8924 74.9917 12.5431C73.9321 11.1938 73.2183 9.60603 72.9125 7.9179L77.7494 4.1312C78.0555 5.81422 78.7682 7.39693 79.8255 8.74164C80.8829 10.0864 82.2528 11.1523 83.8161 11.8468L78.9921 15.6597Z" fill="#EB4B68"/>
<path opacity="0.79" d="M155.158 73.1524C154.965 71.5822 155.158 69.9885 155.721 68.5101C156.285 67.0317 157.201 65.7134 158.39 64.6699L163.68 66.6947C162.495 67.736 161.583 69.0511 161.022 70.5255C160.461 72 160.269 73.5891 160.463 75.1547L155.158 73.1524Z" fill="#FAC34B"/>
<path opacity="0.71" d="M185.785 29.6795C186.236 31.2485 186.296 32.9037 185.96 34.5012C185.625 36.0987 184.904 37.5901 183.861 38.8454L178.143 37.6359C179.182 36.3835 179.9 34.896 180.233 33.303C180.567 31.7099 180.506 30.0595 180.056 28.4954L185.785 29.6795Z" fill="#7878C9"/>
<path opacity="0.79" d="M226.573 67.8826C225.702 68.4062 224.717 68.709 223.702 68.7647C222.688 68.8204 221.675 68.6273 220.752 68.2022L220.558 64.5694C221.478 64.9926 222.488 65.1844 223.5 65.1283C224.511 65.0721 225.494 64.7696 226.362 64.2471L226.573 67.8826Z" fill="#00A0DF"/>
<path opacity="0.72" d="M274.884 66.2469C274.268 64.5567 274.075 62.7416 274.321 60.9596C274.567 59.1776 275.245 57.4827 276.295 56.0224L282.674 56.9125C281.628 58.3692 280.953 60.0596 280.709 61.8366C280.465 63.6136 280.659 65.4233 281.274 67.1083L274.884 66.2469Z" fill="#66DE7D"/>
<path opacity="0.72" d="M185.818 69.2772C185.202 67.5869 185.009 65.7718 185.255 63.9898C185.501 62.2078 186.178 60.5129 187.229 59.0527L193.608 59.9428C192.562 61.3995 191.887 63.0899 191.643 64.8669C191.399 66.6439 191.593 68.4536 192.207 70.1385L185.818 69.2772Z" fill="#66DE7D"/>
<path opacity="0.72" d="M130.852 12.971C130.236 11.2808 130.043 9.46568 130.289 7.68367C130.535 5.90167 131.213 4.20678 132.263 2.7465L138.642 3.6366C137.596 5.09335 136.921 6.78375 136.677 8.56073C136.433 10.3377 136.627 12.1474 137.242 13.8324L130.852 12.971Z" fill="#66DE7D"/>
<path opacity="0.72" d="M19.5783 137.65C18.9626 135.959 18.7693 134.144 19.0152 132.362C19.2612 130.58 19.9389 128.885 20.9894 127.425L27.3686 128.315C26.3222 129.772 25.6475 131.462 25.4034 133.239C25.1593 135.016 25.3531 136.826 25.968 138.511L19.5783 137.65Z" fill="#66DE7D"/>
<path opacity="0.9" d="M33.5369 81.5636C32.3376 81.564 31.1565 81.2712 30.0962 80.7108C29.0359 80.1504 28.1287 79.3394 27.4534 78.3483L29.4655 74.5549C30.1395 75.5426 31.0447 76.3507 32.1022 76.9088C33.1598 77.4669 34.3377 77.7581 35.5335 77.7571L33.5369 81.5636Z" fill="#00A0DF"/>
<path opacity="0.98" d="M16.3055 78.2608C15.6195 80.0492 14.5068 81.6429 13.0643 82.9032C11.6218 84.1634 9.89315 85.052 8.0288 85.4917L3.5241 80.32C5.38273 79.8803 7.10577 78.9932 8.5433 77.7357C9.98084 76.4782 11.0893 74.8885 11.7723 73.1048L16.3055 78.2608Z" fill="#EB4B68"/>
<path opacity="0.98" d="M246.894 36.7007C246.208 38.4892 245.096 40.0829 243.653 41.3431C242.211 42.6034 240.482 43.492 238.618 43.9316L234.113 38.7599C235.972 38.3203 237.695 37.4331 239.132 36.1756C240.57 34.9181 241.678 33.3284 242.361 31.5448L246.894 36.7007Z" fill="#EB4B68"/>
<path opacity="0.93" d="M75.7562 82.5586C76.0879 81.3195 76.7174 80.1802 77.5899 79.2398C78.4624 78.2995 79.5515 77.5867 80.7624 77.1634L84.1246 80.2925C82.9175 80.7154 81.832 81.4268 80.9626 82.365C80.0933 83.3031 79.4663 84.4395 79.1363 85.6752L75.7562 82.5586Z" fill="#FAC34B"/>
<path opacity="0.81" d="M138.74 83.1076C138.383 84.3545 137.727 85.4951 136.828 86.4304C135.929 87.3656 134.816 88.067 133.584 88.4736L130.24 85.2509C131.468 84.8447 132.578 84.1445 133.473 83.2115C134.369 82.2784 135.023 81.1407 135.378 79.8972L138.74 83.1076Z" fill="#FAC34B"/>
<path opacity="0.98" d="M149.007 80.982C150.182 80.2755 151.512 79.8668 152.881 79.7917C154.25 79.7165 155.617 79.9771 156.862 80.5508L157.124 85.4533C155.882 84.8821 154.519 84.6232 153.154 84.699C151.789 84.7748 150.463 85.183 149.292 85.8881L149.007 80.982Z" fill="#7878C9"/>
<path opacity="0.85" d="M198.901 14.8776C200.781 14.6129 202.698 14.8116 204.484 15.4566C206.269 16.1016 207.871 17.1734 209.148 18.5785L206.829 24.9696C205.554 23.5695 203.957 22.5019 202.176 21.8599C200.395 21.2179 198.484 21.0208 196.609 21.2859L198.901 14.8776Z" fill="#66DE7D"/>
<path opacity="0.98" d="M250.739 88.7084C249.301 87.3203 248.224 85.6018 247.602 83.7024C246.979 81.803 246.83 79.7803 247.168 77.8103L253.973 75.592C253.637 77.5565 253.787 79.5732 254.408 81.4667C255.03 83.3602 256.105 85.0731 257.54 86.4563L250.739 88.7084Z" fill="#00A0DF"/>
<path opacity="0.86" d="M265.545 87.7874C264.7 87.9214 263.836 87.847 263.026 87.5706C262.217 87.2942 261.488 86.8242 260.901 86.2015L261.895 83.3053C262.48 83.9258 263.208 84.3939 264.015 84.669C264.822 84.9441 265.684 85.0179 266.526 84.8838L265.545 87.7874Z" fill="#FAC34B"/>
<path opacity="0.85" d="M0.409595 107.295C1.58722 105.939 3.07826 104.892 4.75297 104.244C6.42767 103.597 8.23527 103.368 10.0185 103.579L12.3284 109.578C10.5502 109.37 8.74805 109.599 7.07862 110.246C5.4092 110.892 3.92311 111.937 2.74967 113.29L0.409595 107.295Z" fill="#7878C9"/>
<path opacity="0.72" d="M43.3922 121.58C42.2328 120.911 41.2545 119.968 40.5424 118.835C39.8303 117.702 39.4059 116.411 39.3063 115.077L43.3681 112.533C43.4684 113.864 43.8923 115.15 44.6031 116.28C45.3138 117.409 46.2899 118.348 47.4462 119.014L43.3922 121.58Z" fill="#7878C9"/>
<path opacity="0.87" d="M74.7927 142.011C74.3785 140.352 74.3761 138.616 74.7858 136.956C75.1954 135.295 76.0047 133.76 77.1432 132.484L83.0867 133.959C81.9524 135.233 81.1465 136.764 80.7391 138.42C80.3316 140.076 80.3351 141.807 80.749 143.461L74.7927 142.011Z" fill="#FAC34B"/>
<path opacity="0.99" d="M134.453 111.301C133.458 111.765 132.365 111.979 131.269 111.924C130.173 111.869 129.107 111.548 128.164 110.987L128.366 107.062C129.307 107.621 130.37 107.941 131.463 107.995C132.556 108.049 133.645 107.835 134.637 107.372L134.453 111.301Z" fill="#FAC34B"/>
<path opacity="0.98" d="M164.325 130.014C162.913 129.689 161.602 129.023 160.506 128.075C159.41 127.127 158.562 125.926 158.037 124.575L161.437 120.656C161.962 122.002 162.808 123.2 163.901 124.144C164.995 125.089 166.302 125.752 167.711 126.076L164.325 130.014Z" fill="#66DE7D"/>
<path opacity="0.89" d="M211.816 128.154C211.002 129.511 209.868 130.648 208.513 131.466C207.159 132.284 205.625 132.759 204.045 132.849L201.123 127.996C202.698 127.905 204.227 127.43 205.577 126.613C206.927 125.797 208.056 124.662 208.868 123.309L211.816 128.154Z" fill="#00A0DF"/>
<path opacity="0.78" d="M227.304 111.535C228.981 112.389 230.424 113.64 231.508 115.179C232.591 116.718 233.282 118.499 233.52 120.366L228.003 124.237C227.765 122.375 227.075 120.6 225.993 119.067C224.912 117.533 223.473 116.286 221.8 115.435L227.304 111.535Z" fill="#EB4B68"/>
<path opacity="0.81" d="M286.355 108.219C285.64 109.906 284.523 111.392 283.102 112.549C281.681 113.705 279.999 114.497 278.202 114.855L274.068 109.761C275.86 109.403 277.536 108.612 278.953 107.458C280.369 106.304 281.482 104.821 282.194 103.139L286.355 108.219Z" fill="#00A0DF"/>
<path opacity="0.79" d="M30.5574 162.294C28.6547 162.63 26.6987 162.496 24.8596 161.904C23.0206 161.311 21.3542 160.278 20.0055 158.895L22.1368 152.313C23.4825 153.692 25.1447 154.72 26.9788 155.31C28.8129 155.9 30.7632 156.032 32.6602 155.696L30.5574 162.294Z" fill="#EB4B68"/>
<path opacity="0.8" d="M65.1338 155.793C65.3066 157.432 65.076 159.09 64.4621 160.62C63.8481 162.151 62.8695 163.508 61.6113 164.574L56.1347 162.367C57.3886 161.304 58.3635 159.95 58.9747 158.423C59.5858 156.897 59.8148 155.244 59.6416 153.609L65.1338 155.793Z" fill="#00A0DF"/>
<path opacity="0.82" d="M103.672 143.522C102.906 142.757 102.339 141.816 102.02 140.781C101.701 139.747 101.639 138.65 101.841 137.586L105.547 136.449C105.347 137.51 105.409 138.604 105.727 139.635C106.046 140.666 106.612 141.604 107.376 142.367L103.672 143.522Z" fill="#66DE7D"/>
<path opacity="0.81" d="M127.232 153.245C128.031 151.802 129.17 150.577 130.551 149.676C131.931 148.774 133.512 148.224 135.154 148.072L138.374 153.021C136.737 153.173 135.162 153.723 133.786 154.622C132.41 155.522 131.274 156.745 130.478 158.183L127.232 153.245Z" fill="#00A0DF"/>
<path opacity="0.85" d="M143.606 164.533C144.266 163.717 145.116 163.075 146.081 162.662C147.045 162.25 148.097 162.08 149.142 162.166L150.614 165.623C149.571 165.538 148.523 165.708 147.561 166.12C146.599 166.532 145.753 167.173 145.095 167.986L143.606 164.533Z" fill="#00A0DF"/>
<path opacity="0.83" d="M181.434 137.818C182.619 138.005 183.74 138.479 184.699 139.198C185.659 139.918 186.428 140.861 186.94 141.945L184.359 145.377C183.848 144.296 183.081 143.357 182.123 142.64C181.166 141.923 180.048 141.451 178.867 141.265L181.434 137.818Z" fill="#00A0DF"/>
<path opacity="0.93" d="M238.202 163.822C237.919 162.364 237.995 160.858 238.426 159.437C238.857 158.015 239.629 156.72 240.674 155.665L245.762 157.215C244.72 158.268 243.952 159.559 243.523 160.977C243.094 162.395 243.019 163.896 243.302 165.349L238.202 163.822Z" fill="#7878C9"/>
<path opacity="0.97" d="M274.307 158.029C273.016 157.534 271.866 156.731 270.957 155.69C270.047 154.649 269.406 153.401 269.088 152.055L272.821 148.804C273.138 150.146 273.779 151.389 274.686 152.427C275.594 153.464 276.741 154.264 278.028 154.757L274.307 158.029Z" fill="#EB4B68"/>
<path opacity="0.84" d="M160.307 166.883C159.641 167.737 158.776 168.415 157.787 168.858C156.799 169.301 155.717 169.495 154.636 169.425L153.055 165.883C154.133 165.953 155.211 165.758 156.197 165.316C157.182 164.873 158.044 164.197 158.708 163.345L160.307 166.883Z" fill="#FAC34B"/>
<path opacity="0.96" d="M195.281 163.936C196.106 165.364 196.569 166.971 196.631 168.619C196.693 170.267 196.351 171.905 195.635 173.391L189.734 173.602C190.447 172.121 190.787 170.487 190.724 168.844C190.662 167.201 190.199 165.599 189.376 164.175L195.281 163.936Z" fill="#EB4B68"/>
<defs>
<filter id="filter0_i" x="69.0432" y="24.3315" width="59.8886" height="63.0407" filterUnits="userSpaceOnUse" color-interpolation-filters="sRGB">
<feFlood flood-opacity="0" result="BackgroundImageFix"/>
<feBlend mode="normal" in="SourceGraphic" in2="BackgroundImageFix" result="shape"/>
<feColorMatrix in="SourceAlpha" type="matrix" values="0 0 0 0 0 0 0 0 0 0 0 0 0 0 0 0 0 0 127 0" result="hardAlpha"/>
<feOffset/>
<feGaussianBlur stdDeviation="1.97002"/>
<feComposite in2="hardAlpha" operator="arithmetic" k2="-1" k3="1"/>
<feColorMatrix type="matrix" values="0 0 0 0 0.654902 0 0 0 0 0.376471 0 0 0 0 0.0745098 0 0 0 1 0"/>
<feBlend mode="normal" in2="shape" result="effect1_innerShadow"/>
</filter>
<filter id="filter1_d" x="77.6648" y="33.6023" width="42.6452" height="44.4993" filterUnits="userSpaceOnUse" color-interpolation-filters="sRGB">
<feFlood flood-opacity="0" result="BackgroundImageFix"/>
<feColorMatrix in="SourceAlpha" type="matrix" values="0 0 0 0 0 0 0 0 0 0 0 0 0 0 0 0 0 0 127 0"/>
<feOffset/>
<feGaussianBlur stdDeviation="1.85414"/>
<feColorMatrix type="matrix" values="0 0 0 0 0.654902 0 0 0 0 0.376471 0 0 0 0 0.0745098 0 0 0 0.24 0"/>
<feBlend mode="normal" in2="BackgroundImageFix" result="effect1_dropShadow"/>
<feBlend mode="normal" in="SourceGraphic" in2="effect1_dropShadow" result="shape"/>
</filter>
<filter id="filter2_i" x="180.304" y="67.3047" width="50.8804" height="53.5583" filterUnits="userSpaceOnUse" color-interpolation-filters="sRGB">
<feFlood flood-opacity="0" result="BackgroundImageFix"/>
<feBlend mode="normal" in="SourceGraphic" in2="BackgroundImageFix" result="shape"/>
<feColorMatrix in="SourceAlpha" type="matrix" values="0 0 0 0 0 0 0 0 0 0 0 0 0 0 0 0 0 0 127 0" result="hardAlpha"/>
<feOffset/>
<feGaussianBlur stdDeviation="1.6737"/>
<feComposite in2="hardAlpha" operator="arithmetic" k2="-1" k3="1"/>
<feColorMatrix type="matrix" values="0 0 0 0 0.654902 0 0 0 0 0.376471 0 0 0 0 0.0745098 0 0 0 1 0"/>
<feBlend mode="normal" in2="shape" result="effect1_innerShadow"/>
</filter>
<filter id="filter3_d" x="187.629" y="75.1811" width="36.2306" height="37.8059" filterUnits="userSpaceOnUse" color-interpolation-filters="sRGB">
<feFlood flood-opacity="0" result="BackgroundImageFix"/>
<feColorMatrix in="SourceAlpha" type="matrix" values="0 0 0 0 0 0 0 0 0 0 0 0 0 0 0 0 0 0 127 0"/>
<feOffset/>
<feGaussianBlur stdDeviation="1.57525"/>
<feColorMatrix type="matrix" values="0 0 0 0 0.654902 0 0 0 0 0.376471 0 0 0 0 0.0745098 0 0 0 0.24 0"/>
<feBlend mode="normal" in2="BackgroundImageFix" result="effect1_dropShadow"/>
<feBlend mode="normal" in="SourceGraphic" in2="effect1_dropShadow" result="shape"/>
</filter>
<linearGradient id="paint0_linear" x1="21.1137" y1="55.8518" x2="131.435" y2="55.8518" gradientUnits="userSpaceOnUse">
<stop stop-color="#A76013"/>
<stop offset="0.509476" stop-color="#E99B26"/>
</linearGradient>
<linearGradient id="paint1_linear" x1="16.4783" y1="55.8518" x2="134.216" y2="55.8518" gradientUnits="userSpaceOnUse">
<stop stop-color="#E99B26"/>
<stop offset="1" stop-color="#FBD677"/>
</linearGradient>
<linearGradient id="paint2_linear" x1="115.675" y1="55.8519" x2="73.9565" y2="55.8519" gradientUnits="userSpaceOnUse">
<stop stop-color="#A76013"/>
<stop offset="1" stop-color="#E99B26"/>
</linearGradient>
<linearGradient id="paint3_linear" x1="78.8033" y1="211.39" x2="111.028" y2="211.39" gradientUnits="userSpaceOnUse">
<stop stop-color="#D68A21"/>
<stop offset="1" stop-color="#FBD677"/>
</linearGradient>
<linearGradient id="paint4_linear" x1="138.478" y1="219.434" x2="138.478" y2="206.027" gradientUnits="userSpaceOnUse">
<stop stop-color="#E99B26"/>
<stop offset="1" stop-color="#FBD677" stop-opacity="0"/>
</linearGradient>
<linearGradient id="paint5_linear" x1="84.1656" y1="200.665" x2="116.39" y2="200.665" gradientUnits="userSpaceOnUse">
<stop stop-color="#D68A21"/>
<stop offset="1" stop-color="#FBD677"/>
</linearGradient>
<linearGradient id="paint6_linear" x1="143.84" y1="208.709" x2="143.84" y2="195.302" gradientUnits="userSpaceOnUse">
<stop stop-color="#E99B26"/>
<stop offset="1" stop-color="#FBD677" stop-opacity="0"/>
</linearGradient>
<linearGradient id="paint7_linear" x1="84.1656" y1="189.94" x2="116.39" y2="189.94" gradientUnits="userSpaceOnUse">
<stop stop-color="#D68A21"/>
<stop offset="1" stop-color="#FBD677"/>
</linearGradient>
<linearGradient id="paint8_linear" x1="143.84" y1="197.983" x2="143.84" y2="184.577" gradientUnits="userSpaceOnUse">
<stop stop-color="#E99B26"/>
<stop offset="1" stop-color="#FBD677" stop-opacity="0"/>
</linearGradient>
<linearGradient id="paint9_linear" x1="78.8033" y1="179.215" x2="111.028" y2="179.215" gradientUnits="userSpaceOnUse">
<stop stop-color="#D68A21"/>
<stop offset="1" stop-color="#FBD677"/>
</linearGradient>
<linearGradient id="paint10_linear" x1="138.478" y1="187.258" x2="138.478" y2="173.852" gradientUnits="userSpaceOnUse">
<stop stop-color="#E99B26"/>
<stop offset="1" stop-color="#FBD677" stop-opacity="0"/>
</linearGradient>
<linearGradient id="paint11_linear" x1="84.1656" y1="168.489" x2="116.39" y2="168.489" gradientUnits="userSpaceOnUse">
<stop stop-color="#D68A21"/>
<stop offset="1" stop-color="#FBD677"/>
</linearGradient>
<linearGradient id="paint12_linear" x1="143.84" y1="176.533" x2="143.84" y2="163.127" gradientUnits="userSpaceOnUse">
<stop stop-color="#E99B26"/>
<stop offset="1" stop-color="#FBD677" stop-opacity="0"/>
</linearGradient>
<linearGradient id="paint13_linear" x1="78.8033" y1="157.764" x2="111.028" y2="157.764" gradientUnits="userSpaceOnUse">
<stop stop-color="#D68A21"/>
<stop offset="1" stop-color="#FBD677"/>
</linearGradient>
<linearGradient id="paint14_linear" x1="138.478" y1="165.808" x2="138.478" y2="152.402" gradientUnits="userSpaceOnUse">
<stop stop-color="#E99B26"/>
<stop offset="1" stop-color="#FBD677" stop-opacity="0"/>
</linearGradient>
<linearGradient id="paint15_linear" x1="96.2312" y1="147.039" x2="128.456" y2="147.039" gradientUnits="userSpaceOnUse">
<stop stop-color="#D68A21"/>
<stop offset="1" stop-color="#FBD677"/>
</linearGradient>
<linearGradient id="paint16_linear" x1="155.906" y1="155.083" x2="155.906" y2="141.677" gradientUnits="userSpaceOnUse">
<stop stop-color="#E99B26"/>
<stop offset="1" stop-color="#FBD677" stop-opacity="0"/>
</linearGradient>
<linearGradient id="paint17_linear" x1="81.4849" y1="136.314" x2="113.709" y2="136.314" gradientUnits="userSpaceOnUse">
<stop stop-color="#D68A21"/>
<stop offset="1" stop-color="#FBD677"/>
</linearGradient>
<linearGradient id="paint18_linear" x1="141.159" y1="144.358" x2="141.159" y2="130.952" gradientUnits="userSpaceOnUse">
<stop stop-color="#E99B26"/>
<stop offset="1" stop-color="#FBD677" stop-opacity="0"/>
</linearGradient>
<linearGradient id="paint19_linear" x1="155.361" y1="68.9507" x2="155.361" y2="170.536" gradientUnits="userSpaceOnUse">
<stop stop-color="#00A0DF"/>
<stop offset="1" stop-color="#007CBF"/>
</linearGradient>
<linearGradient id="paint20_linear" x1="118.092" y1="183.528" x2="118.138" y2="245" gradientUnits="userSpaceOnUse">
<stop stop-color="#00A0DF"/>
<stop offset="1" stop-color="#007CBF"/>
</linearGradient>
<linearGradient id="paint21_linear" x1="99.1142" y1="148.063" x2="99.1061" y2="178.799" gradientUnits="userSpaceOnUse">
<stop stop-color="#00A0DF"/>
<stop offset="1" stop-color="#007CBF"/>
</linearGradient>
<linearGradient id="paint22_linear" x1="183.702" y1="183.528" x2="183.748" y2="245" gradientUnits="userSpaceOnUse">
<stop stop-color="#33B3E5"/>
<stop offset="1" stop-color="#00A0DF"/>
</linearGradient>
<linearGradient id="paint23_linear" x1="197.951" y1="148.063" x2="192.581" y2="196.533" gradientUnits="userSpaceOnUse">
<stop stop-color="#33B3E5"/>
<stop offset="1" stop-color="#007CBF"/>
</linearGradient>
<linearGradient id="paint24_linear" x1="115.137" y1="178.799" x2="115.137" y2="253.866" gradientUnits="userSpaceOnUse">
<stop stop-color="#FAC34B"/>
<stop offset="1" stop-color="#C87C1B"/>
</linearGradient>
<linearGradient id="paint25_linear" x1="71.397" y1="123.238" x2="115.137" y2="183.232" gradientUnits="userSpaceOnUse">
<stop stop-color="#FAC34B"/>
<stop offset="1" stop-color="#C87C1B"/>
</linearGradient>
<linearGradient id="paint26_linear" x1="181.338" y1="178.799" x2="181.338" y2="252.684" gradientUnits="userSpaceOnUse">
<stop stop-color="#FBD677"/>
<stop offset="1" stop-color="#E99B26"/>
</linearGradient>
<linearGradient id="paint27_linear" x1="215.62" y1="132.695" x2="181.338" y2="183.232" gradientUnits="userSpaceOnUse">
<stop stop-color="#FAC34B"/>
<stop offset="1" stop-color="#E99B26"/>
</linearGradient>
<linearGradient id="paint28_linear" x1="139.584" y1="94.084" x2="233.311" y2="94.084" gradientUnits="userSpaceOnUse">
<stop stop-color="#A76013"/>
<stop offset="0.509476" stop-color="#E99B26"/>
</linearGradient>
<linearGradient id="paint29_linear" x1="135.646" y1="94.084" x2="235.674" y2="94.084" gradientUnits="userSpaceOnUse">
<stop stop-color="#E99B26"/>
<stop offset="1" stop-color="#FBD677"/>
</linearGradient>
<linearGradient id="paint30_linear" x1="219.922" y1="94.084" x2="184.479" y2="94.084" gradientUnits="userSpaceOnUse">
<stop stop-color="#A76013"/>
<stop offset="1" stop-color="#E99B26"/>
</linearGradient>
<clipPath id="clip0">
<rect width="74.1655" height="74.1655" fill="white" transform="translate(60.0505 18.769)"/>
</clipPath>
<clipPath id="clip1">
<rect width="59.7562" height="59.7562" fill="white" transform="translate(129.438 60.9072) rotate(26.1793)"/>
</clipPath>
<clipPath id="clip2">
<rect width="63.0098" height="63.0098" fill="white" transform="translate(172.664 62.5791)"/>
</clipPath>
</defs>
</svg>
