<svg class="icon" fill="none" viewBox="0 0 48 48" xmlns="http://www.w3.org/2000/svg">
    <path d="m38.514 31.524h-0.019l-6.0702 2.0679c-0.0588 0.0204-0.1127 0.0532-0.1582 0.0963-0.0455 0.0432-0.0815 0.0957-0.1058 0.1541-0.2704 0.62-0.7102 1.1471-1.2666 1.518-0.5565 0.3709-1.2059 0.5698-1.8703 0.5728h-6.9018c-0.2288 0-0.4482-0.0929-0.61-0.2582s-0.2527-0.3895-0.2527-0.6233 0.0909-0.458 0.2527-0.6233 0.3812-0.2581 0.61-0.2581h6.9018c0.4577 0 0.8965-0.1858 1.2201-0.5164s0.5054-0.779 0.5054-1.2465c0-0.4676-0.1818-0.916-0.5054-1.2466s-0.7624-0.5163-1.2201-0.5163h-6.0391c-1.9814-1.5825-4.3905-2.5055-6.9018-2.6444h-3.5527c-1.0717 3e-4 -2.1285 0.2557-3.0869 0.7457l-5.2057 2.6585c-0.07169 0.0367-0.13195 0.0931-0.17401 0.1628-0.04206 0.0698-0.06426 0.1501-0.0641 0.2321v9.5091c-4.7e-4 0.0787 0.01982 0.1562 0.05873 0.2242s0.09501 0.124 0.16242 0.1622c0.0674 0.0382 0.14363 0.0572 0.22069 0.055 0.07706-0.0023 0.15211-0.0256 0.21728-0.0677l5.5577-3.5434c0.2188-0.1383 0.4647-0.2257 0.7202-0.2562 0.2555-0.0304 0.5145-0.0032 0.7586 0.0799 17.196 5.9198 11.436 5.9462 30.827-4.0759 0.1322-0.0711 0.2448-0.1749 0.3276-0.3019 0.0828-0.1271 0.1331-0.2733 0.1463-0.4253s-0.0111-0.305-0.0707-0.445c-0.0595-0.1399-0.1525-0.2624-0.2703-0.3562-0.5609-0.4928-1.2372-0.8287-1.963-0.9749-0.7257-0.1461-1.4762-0.0975-2.1781 0.141z" fill="url(#d)"/>
    <path d="m31 4c-6.6148 0-12 5.3852-12 12 0 6.6148 5.3851 12 12 12 6.6147 0 12-5.3852 12-12 0.0424-6.6148-5.3428-12-12-12z" fill="url(#c)"/>
    <mask id="e" x="19" y="4" width="24" height="24" mask-type="alpha" maskUnits="userSpaceOnUse">
        <path d="m31 4c-6.6148 0-12 5.3852-12 12 0 6.6148 5.3851 12 12 12 6.6147 0 12-5.3852 12-12 0.0424-6.6148-5.3428-12-12-12z" fill="url(#b)"/>
    </mask>
    <g mask="url(#e)">
        <path d="M43 28V4L19 28H43Z" fill="url(#a)"/>
    </g>
    <path d="m31.052 6c-5.5123 0-9.9999 4.4876-9.9999 10s4.4876 10 9.9999 10 9.9999-4.4876 9.9999-10c0.0353-5.5124-4.4522-10-9.9999-10z" opacity=".5" stroke="#E99B26" stroke-width=".95"/>
    <path d="m31.499 10.194c1.2779 0.1673 2.3322 0.7027 2.8753 1.5057 0.0958 0.1673 0.1597 0.3347 0.1597 0.5354 0 0.5019-0.3833 0.9035-0.8626 0.9035-0.2236 0-0.4472-0.1339-0.6709-0.3681-0.5111-0.5019-1.3418-0.9035-2.2363-0.9035-1.3418 0-1.821 0.6693-1.821 1.3385 0 2.2084 5.8464 1.1711 5.8464 5.3538 0 1.8403-1.1182 3.0449-3.2586 3.2792v0.9369c0 0.435-0.3515 0.803-0.7668 0.803s-0.7348-0.368-0.7348-0.803v-0.9369c-1.5654-0.2008-2.7794-1.0708-3.3225-2.0077-0.0639-0.1338-0.1278-0.3011-0.1278-0.4685 0-0.5019 0.3834-0.9034 0.8626-0.9034 0.3514 0 0.5431 0.2008 0.7028 0.3681 0.6709 0.7027 1.5335 1.2715 2.6197 1.2715 1.4696 0 2.1724-0.5019 2.1724-1.5392 0-2.4427-5.8464-1.3385-5.8464-5.3538 0-1.5058 0.8946-2.7773 2.9392-3.0115v-0.97038c0-0.435 0.3514-0.80307 0.7348-0.80307 0.4153 0 0.7668 0.36807 0.7668 0.80307v0.97038h-0.032z" fill="#A76013"/>
    <defs>
        <linearGradient id="d" x1="23.5" x2="23.5" y1="28" y2="76.285" gradientUnits="userSpaceOnUse">
            <stop stop-color="#FAF0E1" offset="0"/>
            <stop stop-color="#D7C0A4" offset="1"/>
        </linearGradient>
        <linearGradient id="c" x1="31.053" x2="31.053" y1="53.5" y2="4" gradientUnits="userSpaceOnUse">
            <stop stop-color="#E99B26" offset="0"/>
            <stop stop-color="#FAC34B" offset="1"/>
        </linearGradient>
        <linearGradient id="b" x1="31.053" x2="31.053" y1="53.5" y2="4" gradientUnits="userSpaceOnUse">
            <stop stop-color="#413017" offset="0"/>
            <stop stop-color="#FAC34B" offset="1"/>
        </linearGradient>
        <linearGradient id="a" x1="31.3" x2="39.7" y1="28" y2="7.9" gradientUnits="userSpaceOnUse">
            <stop stop-color="#E99B26" stop-opacity=".26" offset="0"/>
            <stop stop-color="#FAC34B" offset="1"/>
        </linearGradient>
    </defs>
</svg>
