<svg class="icon"
     viewBox="0 0 24 24"
     fill="none"
     xmlns="http://www.w3.org/2000/svg"
>
  <path fill-rule="evenodd"
        clip-rule="evenodd"
        d="M17.086 0.586L21.414 4.914C21.7891 5.28899 21.9999 5.79761 22 6.328V22C22 22.5304 21.7893 23.0391 21.4142 23.4142C21.0391 23.7893 20.5304 24 20 24H4C3.46957 24 2.96086 23.7893 2.58579 23.4142C2.21071 23.0391 2 22.5304 2 22V2C2 1.46957 2.21071 0.960859 2.58579 0.585786C2.96086 0.210714 3.46957 0 4 0H15.672C16.2024 0.000113275 16.711 0.210901 17.086 0.586ZM7.37025 15.8772H7.9386C8.45275 15.8772 8.94584 15.6729 9.30939 15.3094C9.67295 14.9458 9.87719 14.4527 9.87719 13.9386C9.87719 13.4244 9.67295 12.9314 9.30939 12.5678C8.94584 12.2042 8.45275 12 7.9386 12H6.57018C6.49515 12 6.42086 12.0148 6.35156 12.0436C6.28226 12.0723 6.21933 12.1145 6.16636 12.1676C6.11339 12.2208 6.07143 12.2839 6.04288 12.3532C6.01433 12.4226 5.99976 12.497 6 12.572V18.0457C6 18.1969 6.06007 18.3419 6.167 18.4489C6.27393 18.5558 6.41896 18.6159 6.57018 18.6159C6.7214 18.6159 6.86642 18.5558 6.97335 18.4489C7.08028 18.3419 7.14035 18.1969 7.14035 18.0457V16.1071C7.14035 16.0461 7.16457 15.9876 7.20769 15.9445C7.2508 15.9014 7.30928 15.8772 7.37025 15.8772ZM10.729 18.4477C10.8359 18.5542 10.9807 18.614 11.1316 18.614C12.0087 18.614 12.8498 18.2656 13.47 17.6454C14.0902 17.0252 14.4386 16.1841 14.4386 15.307C14.4386 14.4299 14.0902 13.5888 13.47 12.9686C12.8498 12.3484 12.0087 12 11.1316 12C11.0566 12 10.9823 12.0148 10.913 12.0436C10.8437 12.0723 10.7807 12.1145 10.7278 12.1676C10.6748 12.2208 10.6328 12.2839 10.6043 12.3532C10.5757 12.4226 10.5612 12.497 10.5614 12.572V18.0457C10.5619 18.1966 10.6222 18.3411 10.729 18.4477ZM16.6053 13.1404H18.4298C18.581 13.1404 18.7261 13.0803 18.833 12.9733C18.9399 12.8664 19 12.7214 19 12.5702C19 12.419 18.9399 12.2739 18.833 12.167C18.7261 12.0601 18.581 12 18.4298 12H16.6053C16.2119 12.0005 15.8349 12.1571 15.5569 12.4354C15.2789 12.7137 15.1228 13.0909 15.1228 13.4843V18.0457C15.1228 18.1969 15.1829 18.3419 15.2898 18.4489C15.3967 18.5558 15.5418 18.6159 15.693 18.6159C15.8442 18.6159 15.9892 18.5558 16.0962 18.4489C16.2031 18.3419 16.2632 18.1969 16.2632 18.0457V16.1071C16.2632 16.0461 16.2874 15.9876 16.3305 15.9445C16.3736 15.9014 16.4321 15.8772 16.4931 15.8772H17.5175C17.6688 15.8772 17.8138 15.8171 17.9207 15.7102C18.0276 15.6033 18.0877 15.4582 18.0877 15.307C18.0877 15.1558 18.0276 15.0108 17.9207 14.9038C17.8138 14.7969 17.6688 14.7368 17.5175 14.7368H16.4931C16.4321 14.7368 16.3736 14.7126 16.3305 14.6695C16.2874 14.6264 16.2632 14.5679 16.2632 14.5069V13.4825C16.2632 13.3917 16.2992 13.3047 16.3634 13.2406C16.4275 13.1764 16.5145 13.1404 16.6053 13.1404ZM11.7018 13.4715C11.7018 13.2781 11.9034 13.28 11.9992 13.3219H12.0001C12.3861 13.4906 12.7146 13.7681 12.9453 14.1207C13.176 14.4732 13.2989 14.8853 13.2989 15.3066C13.2989 15.7279 13.176 16.14 12.9453 16.4925C12.7146 16.845 12.3861 17.1226 12.0001 17.2913C11.9679 17.3045 11.933 17.3098 11.8983 17.3066C11.8637 17.3035 11.8303 17.292 11.801 17.2732C11.7717 17.2544 11.7474 17.2288 11.7301 17.1986C11.7128 17.1684 11.7031 17.1345 11.7018 17.0997V13.4715ZM7.93817 13.1404H7.36982C7.30885 13.1404 7.25037 13.1646 7.20726 13.2077C7.16414 13.2508 7.13992 13.3093 7.13992 13.3703V14.507C7.13992 14.5679 7.16414 14.6264 7.20726 14.6695C7.25037 14.7126 7.30885 14.7369 7.36982 14.7369H7.93817C8.14988 14.7369 8.35291 14.6528 8.50261 14.5031C8.65231 14.3534 8.73641 14.1503 8.73641 13.9386C8.73641 13.7269 8.65231 13.5239 8.50261 13.3742C8.35291 13.2245 8.14988 13.1404 7.93817 13.1404Z"
        fill="#00A0DF"
  />
</svg>
