<svg class="icon"
     viewBox="0 0 40 40" 
     fill="none" 
     xmlns="http://www.w3.org/2000/svg"
>
<circle cx="20" cy="20" r="20" fill="#FEF8DB"/>
<path d="M20 7C12.8208 7 7 12.8208 7 20C7 27.1792 12.8208 33 20 33C27.1792 33 33 27.1792 33 20C32.9924 12.824 27.176 7.00758 20 7ZM25.6333 25.6561C25.2249 26.0883 24.5467 26.1176 24.1026 25.7232L18.7303 20.7984C18.505 20.5937 18.3761 20.3044 18.375 20V14.0417C18.375 13.4437 18.8603 12.9583 19.4583 12.9583C20.0563 12.9583 20.5417 13.4437 20.5417 14.0417V19.5233L25.5618 24.1253C26.0049 24.5283 26.0374 25.213 25.6344 25.6561H25.6333Z" fill="url(#pending_microillustration_paint0_linear)"/>
<path d="M24.1026 25.7233C24.5467 26.1176 25.2249 26.0883 25.6333 25.6561H25.6344C26.0374 25.213 26.0049 24.5283 25.5618 24.1253L20.5417 19.5233V14.0417C20.5417 13.4437 20.0563 12.9583 19.4583 12.9583C18.8603 12.9583 18.375 13.4437 18.375 14.0417V20C18.3761 20.3044 18.505 20.5937 18.7303 20.7984L24.1026 25.7233Z" fill="white"/>
<defs>
<linearGradient id="pending_microillustration_paint0_linear" x1="20" y1="7" x2="16.6971" y2="60.0165" gradientUnits="userSpaceOnUse">
<stop stop-color="#FAC34B"/>
<stop offset="1" stop-color="#D79F36"/>
</linearGradient>
</defs>
</svg>
