<svg class="icon"
     viewBox="0 0 293 192"
     fill="none"
     xmlns="http://www.w3.org/2000/svg"
>
  <mask id="mask0"
        mask-type="alpha"
        maskUnits="userSpaceOnUse"
        x="-11"
        y="0"
        width="304"
        height="192"
  >
    <rect x="-11" width="304" height="192" fill="#C4C4C4" />
  </mask>
  <g mask="url(#mask0)">
    <path d="M-48.656 149.724C-52.244 152.555 -56.58 153.977 -60.919 153.977C-65.997 153.977 -71.075 152.037 -74.95 148.158C-82.134 140.965 -82.652 129.631 -76.514 121.835C-86.361 120.668 -94 112.286 -94 102.115C-94 91.9429 -86.361 83.5616 -76.514 82.3943C-82.652 74.5987 -82.134 63.2641 -74.95 56.0721C-67.765 48.8792 -56.443 48.3606 -48.656 54.5054C-47.49 44.6475 -39.118 37 -28.957 37C-18.797 37 -10.425 44.6475 -9.259 54.5054C-8.093 44.6475 0.279002 37 10.44 37C20.6 37 28.972 44.6475 30.138 54.5054C31.304 44.6475 39.676 37 49.837 37C59.997 37 68.369 44.6475 69.535 54.5054C70.701 44.6475 79.073 37 89.234 37C99.394 37 107.766 44.6475 108.932 54.5054C110.098 44.6475 118.47 37 128.631 37"
          stroke="#333333"
          stroke-width="7.087"
          stroke-linecap="round"
          stroke-linejoin="round"
    />
    <path d="M176.187 149.724V121.835C186.034 120.668 193.673 112.286 193.673 102.115"
          stroke="#333333"
          stroke-width="7.087"
          stroke-linecap="round"
          stroke-linejoin="round"
    />
    <path fill-rule="evenodd"
          clip-rule="evenodd"
          d="M193.673 102.115C193.673 91.9429 186.034 83.5616 176.187 82.3943C182.325 74.5987 181.807 63.2641 174.623 56.0721C167.438 48.8792 156.117 48.3596 148.329 54.5054C147.163 44.6475 138.791 37 128.631 37"
          fill="white"
    />
    <path d="M193.673 102.115C193.673 91.9429 186.034 83.5616 176.187 82.3943C182.325 74.5987 181.807 63.2641 174.623 56.0721C167.438 48.8792 156.117 48.3596 148.329 54.5054C147.163 44.6475 138.791 37 128.631 37"
          stroke="#333333"
          stroke-width="7.087"
          stroke-linecap="round"
          stroke-linejoin="round"
    />
    <path fill-rule="evenodd"
          clip-rule="evenodd"
          d="M128.631 37C118.47 37 110.098 44.6475 108.932 54.5054C107.766 44.6475 99.394 37 89.234 37C79.073 37 70.701 44.6475 69.535 54.5054C68.369 44.6475 59.997 37 49.837 37C39.676 37 31.304 44.6475 30.138 54.5054C28.972 44.6475 20.6 37 10.44 37C0.278999 37 -8.093 44.6475 -9.259 54.5054C-10.425 44.6475 -18.797 37 -28.957 37C-39.118 37 -47.49 44.6475 -48.656 54.5054C-56.443 48.3606 -67.765 48.8792 -74.95 56.0721C-82.134 63.2641 -82.652 74.5987 -76.514 82.3943C-86.361 83.5616 -94 91.9429 -94 102.115C-94 112.286 -86.361 120.668 -76.514 121.835C-82.652 129.631 -82.134 140.965 -74.95 148.158C-71.075 152.037 -65.997 153.977 -60.919 153.977C-56.58 153.977 -52.244 152.555 -48.656 149.724H176.187V121.835C186.034 120.668 193.673 112.286 193.673 102.115C193.673 91.9429 186.034 83.5616 176.187 82.3943C182.325 74.5987 181.807 63.2641 174.623 56.0721C167.438 48.8792 156.117 48.3596 148.329 54.5054C147.163 44.6475 138.791 37 128.631 37Z"
          fill="white"
    />
    <path d="M128.631 37C118.47 37 110.098 44.6475 108.932 54.5054C107.766 44.6475 99.394 37 89.234 37C79.073 37 70.701 44.6475 69.535 54.5054C68.369 44.6475 59.997 37 49.837 37C39.676 37 31.304 44.6475 30.138 54.5054C28.972 44.6475 20.6 37 10.44 37C0.279002 37 -8.093 44.6475 -9.259 54.5054C-10.425 44.6475 -18.797 37 -28.957 37C-39.118 37 -47.49 44.6475 -48.656 54.5054C-56.443 48.3606 -67.765 48.8792 -74.95 56.0721C-82.134 63.2641 -82.652 74.5987 -76.514 82.3943C-86.361 83.5616 -94 91.9429 -94 102.115C-94 112.286 -86.361 120.668 -76.514 121.835C-82.652 129.631 -82.134 140.965 -74.95 148.158C-71.075 152.037 -65.997 153.977 -60.919 153.977C-56.58 153.977 -52.244 152.555 -48.656 149.724H176.187V121.835C186.034 120.668 193.673 112.286 193.673 102.115C193.673 91.9429 186.034 83.5616 176.187 82.3943C182.325 74.5987 181.807 63.2641 174.623 56.0721C167.438 48.8792 156.117 48.3596 148.329 54.5054C147.163 44.6475 138.791 37 128.631 37"
          stroke="#333333"
          stroke-width="7.087"
          stroke-linecap="round"
          stroke-linejoin="round"
    />
    <path fill-rule="evenodd"
          clip-rule="evenodd"
          d="M194.509 92.7354V91.453C194.509 85.7456 189.887 81.1195 184.187 81.1195C178.486 81.1195 173.864 85.7456 173.864 91.453C173.864 85.7456 169.243 81.1195 163.542 81.1195C157.841 81.1195 153.219 85.7456 153.219 91.453H140.025C141.284 98.9403 146.45 105.091 153.356 107.733C154.236 108.07 154.999 108.588 155.649 109.212"
          fill="white"
    />
    <path d="M194.509 92.7354V91.453C194.509 85.7456 189.887 81.1195 184.187 81.1195C178.486 81.1195 173.864 85.7456 173.864 91.453C173.864 85.7456 169.243 81.1195 163.542 81.1195C157.841 81.1195 153.219 85.7456 153.219 91.453H140.025C141.284 98.9403 146.45 105.091 153.356 107.733C154.236 108.07 154.999 108.588 155.649 109.212"
          stroke="#333333"
          stroke-width="7.087"
          stroke-linecap="round"
          stroke-linejoin="round"
    />
    <path fill-rule="evenodd"
          clip-rule="evenodd"
          d="M161.935 100.213C156.241 105.912 152.719 113.786 152.719 122.483C152.719 139.876 166.805 153.977 184.18 153.977C201.556 153.977 215.642 139.876 215.642 122.483C215.642 108.712 206.809 97.0145 194.509 92.7357"
          fill="white"
    />
    <path d="M161.935 100.213C156.241 105.912 152.719 113.786 152.719 122.483C152.719 139.876 166.805 153.977 184.18 153.977C201.556 153.977 215.642 139.876 215.642 122.483C215.642 108.712 206.809 97.0145 194.509 92.7357"
          stroke="#333333"
          stroke-width="7.087"
          stroke-linecap="round"
          stroke-linejoin="round"
    />
    <path fill-rule="evenodd"
          clip-rule="evenodd"
          d="M161.935 100.213C156.241 105.912 152.719 113.786 152.719 122.483C152.719 139.876 166.805 153.977 184.18 153.977C201.556 153.977 215.642 139.876 215.642 122.483C215.642 108.712 206.809 97.0145 194.509 92.7357"
          fill="white"
    />
    <path d="M161.935 100.213C156.241 105.912 152.719 113.786 152.719 122.483C152.719 139.876 166.805 153.977 184.18 153.977C201.556 153.977 215.642 139.876 215.642 122.483C215.642 108.712 206.809 97.0145 194.509 92.7357"
          stroke="#333333"
          stroke-width="7.087"
          stroke-linecap="round"
          stroke-linejoin="round"
    />
    <path fill-rule="evenodd"
          clip-rule="evenodd"
          d="M212.848 133.239C212.848 136.373 210.31 138.914 207.179 138.914C204.048 138.914 201.509 136.373 201.509 133.239H212.848Z"
          fill="#333333"
    />
    <path fill-rule="evenodd"
          clip-rule="evenodd"
          d="M200.085 112.909C200.085 115.26 198.181 117.166 195.833 117.166C193.485 117.166 191.581 115.26 191.581 112.909C191.581 110.558 193.485 108.652 195.833 108.652C198.181 108.652 200.085 110.558 200.085 112.909Z"
          fill="#333333"
    />
    <path d="M148.329 149.724L168.859 170.277"
          stroke="#333333"
          stroke-width="7.087"
          stroke-linecap="round"
          stroke-linejoin="round"
    />
  </g>
</svg>
