<svg class="icon" viewBox="0 0 122 148" fill="none" xmlns="http://www.w3.org/2000/svg">
<g filter="url(#phone-crooked-filter0_d)">
<rect x="28.8632" y="29.3407" width="55.5492" height="85.4603" rx="8.54603" transform="rotate(-6.37018 28.8632 29.3407)" fill="white"/>
<rect x="26.1012" y="27.1335" width="60.5492" height="90.4603" rx="11.046" transform="rotate(-6.37018 26.1012 27.1335)" stroke="white" stroke-width="5"/>
</g>
<g clip-path="url(#phone-crooked-clip0)">
<rect x="28.8632" y="29.3408" width="55.5492" height="85.4603" rx="8.54603" transform="rotate(-6.37018 28.8632 29.3408)" fill="url(#phone-crooked-paint0_linear)"/>
<rect x="33.584" y="33.1133" width="47.0032" height="59.8222" rx="6.40952" transform="rotate(-6.37018 33.584 33.1133)" fill="white"/>
<rect opacity="0.4" x="33.584" y="33.1133" width="47.0032" height="59.8222" rx="6.40952" transform="rotate(-6.37018 33.584 33.1133)" fill="#99D9F2"/>
<g opacity="0.4">
<mask id="phone-crooked-mask0" mask-type="alpha" maskUnits="userSpaceOnUse" x="33" y="27" width="54" height="66">
<rect x="33.584" y="33.1133" width="47.0032" height="59.8222" rx="6.40952" transform="rotate(-6.37018 33.584 33.1133)" fill="#99D9F2"/>
</mask>
<g mask="url(#phone-crooked-mask0)">
<path opacity="0.5" d="M40.2214 92.5661L80.2969 27.8982L86.9343 87.351L40.2214 92.5661Z" fill="url(#phone-crooked-paint1_linear)"/>
</g>
</g>
<circle cx="64.763" cy="100.575" r="4.27301" transform="rotate(-6.37018 64.763 100.575)" fill="#99D9F2"/>
</g>
<defs>
<filter id="phone-crooked-filter0_d" x="0.958918" y="0.868282" width="120.497" height="146.904" filterUnits="userSpaceOnUse" color-interpolation-filters="sRGB">
<feFlood flood-opacity="0" result="BackgroundImageFix"/>
<feColorMatrix in="SourceAlpha" type="matrix" values="0 0 0 0 0 0 0 0 0 0 0 0 0 0 0 0 0 0 127 0"/>
<feOffset dy="5.59509"/>
<feGaussianBlur stdDeviation="11.1902"/>
<feColorMatrix type="matrix" values="0 0 0 0 0 0 0 0 0 0 0 0 0 0 0 0 0 0 0.24 0"/>
<feBlend mode="normal" in2="BackgroundImageFix" result="effect1_dropShadow"/>
<feBlend mode="normal" in="SourceGraphic" in2="effect1_dropShadow" result="shape"/>
</filter>
<linearGradient id="phone-crooked-paint0_linear" x1="56.6378" y1="29.3408" x2="82.2759" y2="181.033" gradientUnits="userSpaceOnUse">
<stop stop-color="#00A0DF"/>
<stop offset="1" stop-color="#007CBF"/>
</linearGradient>
<linearGradient id="phone-crooked-paint1_linear" x1="57.1775" y1="32.6291" x2="59.9238" y2="95.741" gradientUnits="userSpaceOnUse">
<stop stop-color="#33B3E5"/>
<stop offset="1" stop-color="#99D9F2" stop-opacity="0"/>
</linearGradient>
<clipPath id="phone-crooked-clip0">
<rect width="85.4603" height="85.4603" fill="white" transform="translate(14 31) rotate(-6.37018)"/>
</clipPath>
</defs>
</svg>
