<svg class="icon" viewBox="0 0 32 32" fill="none" xmlns="http://www.w3.org/2000/svg">
<rect x="1.59998" width="20.8" height="32" rx="3.2" fill="url(#paint0_linear)"/>
<rect x="3.20001" y="1.6" width="17.6" height="22.4" rx="2.4" fill="white"/>
<rect opacity="0.4" x="3.20001" y="1.6" width="17.6" height="22.4" rx="2.4" fill="#99D9F2"/>
<g opacity="0.4">
<mask id="mask0" mask-type="alpha" maskUnits="userSpaceOnUse" x="3" y="1" width="18" height="23">
<rect x="3.20001" y="1.6" width="17.6" height="22.4" rx="2.4" fill="#99D9F2"/>
</mask>
<g mask="url(#mask0)">
<path opacity="0.5" d="M3.20001 24L20.8 1.6V24H3.20001Z" fill="url(#paint1_linear)"/>
</g>
</g>
<circle cx="12" cy="28" r="1.6" fill="#99D9F2"/>
<g clip-path="url(#clip0)">
<path d="M22.3999 16C17.9901 16 14.4 19.5901 14.4 24C14.4 28.4099 17.9901 32 22.3999 32C26.8098 32 30.3999 28.4099 30.3999 24C30.4281 19.5901 26.8381 16 22.3999 16Z" fill="url(#paint2_linear)"/>
<mask id="mask1" mask-type="alpha" maskUnits="userSpaceOnUse" x="14" y="16" width="17" height="16">
<path d="M22.3999 16C17.9901 16 14.4 19.5901 14.4 24C14.4 28.4099 17.9901 32 22.3999 32C26.8098 32 30.3999 28.4099 30.3999 24C30.4281 19.5901 26.8381 16 22.3999 16Z" fill="url(#paint3_linear)"/>
</mask>
<g mask="url(#mask1)">
<path d="M30.4 32V16L14.4 32H30.4Z" fill="url(#paint4_linear)"/>
</g>
<path opacity="0.5" d="M22.435 17.3333C18.7602 17.3333 15.7684 20.3251 15.7684 24C15.7684 27.6749 18.7602 30.6667 22.435 30.6667C26.1099 30.6667 29.1016 27.6749 29.1016 24C29.1252 20.3251 26.1335 17.3333 22.435 17.3333V17.3333Z" stroke="#E99B26" stroke-width="0.633333"/>
<path d="M22.7326 20.1297C23.5845 20.2412 24.2874 20.5981 24.6494 21.1335C24.7133 21.245 24.7559 21.3566 24.7559 21.4904C24.7559 21.825 24.5004 22.0927 24.1809 22.0927C24.0318 22.0927 23.8827 22.0035 23.7336 21.8473C23.3928 21.5127 22.8391 21.245 22.2427 21.245C21.3482 21.245 21.0287 21.6912 21.0287 22.1373C21.0287 23.6096 24.9263 22.9181 24.9263 25.7065C24.9263 26.9334 24.1809 27.7365 22.7539 27.8926V28.5173C22.7539 28.8073 22.5196 29.0526 22.2427 29.0526C21.9658 29.0526 21.7529 28.8073 21.7529 28.5173V27.8926C20.7092 27.7588 19.8999 27.1788 19.5378 26.5542C19.4952 26.465 19.4526 26.3534 19.4526 26.2419C19.4526 25.9073 19.7082 25.6396 20.0277 25.6396C20.262 25.6396 20.3898 25.7734 20.4963 25.885C20.9435 26.3534 21.5186 26.7327 22.2427 26.7327C23.2225 26.7327 23.691 26.398 23.691 25.7065C23.691 24.0781 19.7934 24.8142 19.7934 22.1373C19.7934 21.1335 20.3898 20.2858 21.7529 20.1297V19.4827C21.7529 19.1928 21.9871 18.9474 22.2427 18.9474C22.5196 18.9474 22.7539 19.1928 22.7539 19.4827V20.1297H22.7326Z" fill="#A76013"/>
</g>
<defs>
<linearGradient id="paint0_linear" x1="12" y1="2.563e-08" x2="21.6" y2="56.8" gradientUnits="userSpaceOnUse">
<stop stop-color="#00A0DF"/>
<stop offset="1" stop-color="#007CBF"/>
</linearGradient>
<linearGradient id="paint1_linear" x1="12" y1="2.4" x2="10.4" y2="26" gradientUnits="userSpaceOnUse">
<stop stop-color="#33B3E5"/>
<stop offset="1" stop-color="#99D9F2" stop-opacity="0"/>
</linearGradient>
<linearGradient id="paint2_linear" x1="22.4351" y1="49" x2="22.4351" y2="16" gradientUnits="userSpaceOnUse">
<stop stop-color="#E99B26"/>
<stop offset="1" stop-color="#FAC34B"/>
</linearGradient>
<linearGradient id="paint3_linear" x1="22.4351" y1="49" x2="22.4351" y2="16" gradientUnits="userSpaceOnUse">
<stop stop-color="#413017"/>
<stop offset="1" stop-color="#FAC34B"/>
</linearGradient>
<linearGradient id="paint4_linear" x1="22.6" y1="32" x2="28.2" y2="18.6" gradientUnits="userSpaceOnUse">
<stop stop-color="#E99B26" stop-opacity="0.26"/>
<stop offset="1" stop-color="#FAC34B"/>
</linearGradient>
<clipPath id="clip0">
<rect width="16" height="16" fill="white" transform="translate(14.4 16)"/>
</clipPath>
</defs>
</svg>
