<svg class="icon" viewBox="0 0 358 266" fill="none" xmlns="http://www.w3.org/2000/svg">
<rect x="123" y="43" width="109" height="182" rx="12" fill="white" stroke="#19194B" stroke-width="8"/>
<rect x="131" y="51" width="93" height="138" rx="4" fill="#F4F5F7"/>
<rect x="170" y="197" width="16" height="16" rx="8" fill="#19194B"/>
<g filter="url(#phone-work-in-progress-filter0_d)">
<mask id="phone-work-in-progress-path-4-outside-1" maskUnits="userSpaceOnUse" x="60" y="4" width="126" height="131" fill="black">
<rect fill="white" x="60" y="4" width="126" height="131"/>
<path fill-rule="evenodd" clip-rule="evenodd" d="M168.663 39.7716H174.106C175.269 39.7716 176.384 40.2336 177.206 41.0559C178.029 41.8782 178.491 42.9936 178.491 44.1565V50.0032C178.491 50.5795 178.379 51.1504 178.159 51.683C177.939 52.2157 177.616 52.6998 177.208 53.1076C176.801 53.5154 176.318 53.8389 175.785 54.0597C175.253 54.2804 174.682 54.394 174.106 54.394H168.663C168.122 56.2647 167.374 58.069 166.432 59.7729L170.282 63.623C171.104 64.4453 171.566 65.5604 171.566 66.7231C171.566 67.8859 171.104 69.001 170.282 69.8233L166.148 73.9569C165.326 74.779 164.211 75.2408 163.048 75.2408C161.886 75.2408 160.77 74.779 159.948 73.9569L156.095 70.1069C154.392 71.0477 152.588 71.7958 150.719 72.3374V77.7748C150.719 78.9377 150.257 80.0531 149.435 80.8754C148.612 81.6977 147.497 82.1597 146.334 82.1597H140.488C139.325 82.1597 138.209 81.6977 137.387 80.8754C136.565 80.0531 136.103 78.9377 136.103 77.7748V72.3374C134.232 71.7948 132.428 71.0457 130.724 70.104L126.871 73.954C126.032 74.7461 124.922 75.1874 123.769 75.1874C122.616 75.1874 121.506 74.7461 120.667 73.954L116.534 69.8204C115.712 68.9981 115.25 67.883 115.25 66.7202C115.25 65.5575 115.712 64.4423 116.534 63.62L120.39 59.7642C119.447 58.0615 118.699 56.2581 118.159 54.3882H112.716C111.553 54.3882 110.438 53.9262 109.615 53.1038C108.793 52.2815 108.331 51.1662 108.331 50.0032V44.1565C108.331 42.9936 108.793 41.8782 109.615 41.0559C110.438 40.2336 111.553 39.7716 112.716 39.7716H118.159C118.699 37.9026 119.447 36.1003 120.39 34.3985L116.537 30.5485C116.129 30.1413 115.806 29.6577 115.585 29.1255C115.365 28.5934 115.251 28.0229 115.251 27.4468C115.251 26.8708 115.365 26.3003 115.585 25.7681C115.806 25.2359 116.129 24.7524 116.537 24.3452L120.673 20.2116C121.496 19.3896 122.611 18.9277 123.773 18.9277C124.936 18.9277 126.051 19.3896 126.874 20.2116L130.727 24.0616C132.43 23.1209 134.233 22.3728 136.103 21.8311V16.385C136.103 15.222 136.565 14.1067 137.387 13.2843C138.209 12.462 139.325 12 140.488 12H146.334C147.497 12 148.612 12.462 149.435 13.2843C150.257 14.1067 150.719 15.222 150.719 16.385V21.8311C152.588 22.3716 154.39 23.1197 156.092 24.0616L159.945 20.2116C160.767 19.3896 161.883 18.9277 163.045 18.9277C164.208 18.9277 165.323 19.3896 166.146 20.2116L170.282 24.3423C170.69 24.7495 171.013 25.233 171.233 25.7652C171.454 26.2974 171.567 26.8678 171.567 27.4439C171.567 28.02 171.454 28.5904 171.233 29.1226C171.013 29.6548 170.69 30.1383 170.282 30.5456L166.432 34.3926C167.373 36.0971 168.121 37.9012 168.663 39.7716ZM135.29 59.2331C137.694 60.8392 140.52 61.6965 143.411 61.6965C147.286 61.6918 151.001 60.1504 153.741 57.4102C156.481 54.6701 158.023 50.955 158.027 47.0799C158.027 44.189 157.17 41.363 155.564 38.9593C153.958 36.5556 151.675 34.6822 149.004 33.5759C146.334 32.4696 143.395 32.1801 140.559 32.7441C137.724 33.3081 135.12 34.7002 133.075 36.7444C131.031 38.7885 129.639 41.393 129.075 44.2283C128.511 47.0637 128.801 50.0026 129.907 52.6734C131.013 55.3442 132.887 57.627 135.29 59.2331ZM122.358 95.9768L127.026 97.2899C128.024 97.5705 128.869 98.2358 129.376 99.1394C129.883 100.043 130.01 101.111 129.729 102.109L128.319 107.123C128.18 107.617 127.946 108.08 127.629 108.484C127.312 108.887 126.918 109.225 126.47 109.476C126.022 109.728 125.53 109.888 125.02 109.949C124.51 110.01 123.993 109.97 123.499 109.831L118.83 108.518C117.916 109.992 116.839 111.359 115.62 112.593L117.993 116.824C118.5 117.727 118.627 118.795 118.346 119.792C118.066 120.79 117.401 121.635 116.497 122.142L111.955 124.689C111.051 125.196 109.983 125.323 108.986 125.043C107.989 124.762 107.144 124.097 106.637 123.194L104.261 118.962C102.573 119.358 100.846 119.565 99.1124 119.578L97.8007 124.242C97.5202 125.239 96.8549 126.084 95.9512 126.591C95.0475 127.098 93.9795 127.225 92.9821 126.945L87.9677 125.534C86.9702 125.254 86.1251 124.588 85.6182 123.685C85.1113 122.781 84.9841 121.713 85.2647 120.716L86.5764 116.052C85.1033 115.136 83.7367 114.058 82.502 112.839L78.2687 115.212C77.3585 115.689 76.3003 115.799 75.311 115.521C74.3217 115.243 73.4764 114.597 72.9484 113.715L70.4004 109.173C69.8937 108.269 69.7667 107.201 70.0472 106.204C70.3277 105.207 70.9928 104.362 71.8962 103.855L76.1334 101.478C75.7356 99.7903 75.529 98.0632 75.5173 96.3292L70.8489 95.0161C69.8515 94.7355 69.0064 94.0703 68.4995 93.1666C67.9926 92.2629 67.8654 91.1949 68.146 90.1975L69.5564 85.1831C69.837 84.1856 70.5023 83.3405 71.4059 82.8336C72.3096 82.3267 73.3776 82.1995 74.3751 82.4801L79.0435 83.7932C79.9573 82.3205 81.0338 80.9552 82.2527 79.7231L79.877 75.4916C79.6257 75.0441 79.4651 74.5514 79.4044 74.0417C79.3436 73.5321 79.3839 73.0155 79.5229 72.5214C79.6618 72.0273 79.8968 71.5655 80.2143 71.1622C80.5319 70.759 80.9257 70.4223 81.3735 70.1713L85.9184 67.624C86.8219 67.1174 87.8897 66.9903 88.887 67.2708C89.8842 67.5513 90.7292 68.2164 91.2361 69.1198L93.6118 73.3513C95.2999 72.9555 97.0268 72.7489 98.7607 72.7352L100.075 68.0643C100.355 67.0669 101.02 66.2218 101.924 65.7149C102.828 65.208 103.896 65.0808 104.893 65.3613L109.908 66.7718C110.905 67.0524 111.75 67.7177 112.257 68.6213C112.764 69.525 112.891 70.593 112.611 71.5905L111.297 76.2614C112.769 77.1757 114.134 78.2521 115.367 79.4706L119.6 77.0981C120.504 76.5914 121.571 76.4644 122.569 76.7449C123.566 77.0254 124.411 77.6905 124.918 78.5939L127.469 83.1345C127.72 83.582 127.881 84.0747 127.942 84.5843C128.002 85.094 127.962 85.6106 127.823 86.1047C127.684 86.5987 127.449 87.0606 127.132 87.4638C126.814 87.8671 126.42 88.2038 125.973 88.4547L121.743 90.8254C122.139 92.5143 122.345 94.2421 122.358 95.9768ZM89.0411 104.617C90.7152 106.575 92.9321 107.992 95.4115 108.689C98.7361 109.62 102.294 109.194 105.305 107.505C108.317 105.816 110.535 103.002 111.474 99.6792C112.171 97.1998 112.118 94.5693 111.32 92.1203C110.522 89.6713 109.016 87.5138 106.993 85.9206C104.969 84.3275 102.518 83.3703 99.9503 83.17C97.3825 82.9697 94.813 83.5353 92.5667 84.7953C90.3203 86.0554 88.4981 87.9533 87.3304 90.249C86.1627 92.5447 85.7019 95.1351 86.0064 97.6926C86.311 100.25 87.367 102.66 89.0411 104.617Z"/>
</mask>
<path d="M168.663 39.7716L161.923 41.7215C162.791 44.7223 165.539 46.7875 168.663 46.7875V39.7716ZM178.491 50.0032H171.475L171.475 50.0126L178.491 50.0032ZM178.159 51.683L184.643 54.3615L184.643 54.3614L178.159 51.683ZM175.785 54.0597L173.098 47.5787H173.098L175.785 54.0597ZM174.106 54.394L174.106 47.378H174.106V54.394ZM168.663 54.394V47.378C165.537 47.378 162.789 49.4453 161.922 52.448L168.663 54.394ZM166.432 59.7729L160.292 56.3778C158.779 59.1146 159.26 62.5226 161.471 64.734L166.432 59.7729ZM170.282 63.623L175.244 58.6627L175.243 58.6619L170.282 63.623ZM170.282 69.8233L175.243 74.7844L175.244 74.7836L170.282 69.8233ZM166.148 73.9569L171.109 78.9187L171.11 78.9179L166.148 73.9569ZM159.948 73.9569L164.908 68.9951L164.907 68.994L159.948 73.9569ZM156.095 70.1069L161.054 65.144C158.844 62.9352 155.439 62.4545 152.703 63.9652L156.095 70.1069ZM150.719 72.3374L148.767 65.5985C145.767 66.4676 143.703 69.2145 143.703 72.3374H150.719ZM136.103 72.3374H143.119C143.119 69.2154 141.056 66.4691 138.057 65.5992L136.103 72.3374ZM130.724 70.104L134.116 63.9629C131.381 62.4515 127.975 62.9319 125.764 65.141L130.724 70.104ZM126.871 73.954L131.689 79.054C131.736 79.0089 131.783 78.9632 131.83 78.9169L126.871 73.954ZM120.667 73.954L115.706 78.915C115.753 78.962 115.801 79.0083 115.849 79.054L120.667 73.954ZM116.534 69.8204L111.572 74.7807L111.573 74.7814L116.534 69.8204ZM116.534 63.62L111.573 58.659L111.572 58.6597L116.534 63.62ZM120.39 59.7642L125.351 64.7252C127.563 62.5129 128.043 59.103 126.528 56.3658L120.39 59.7642ZM118.159 54.3882L124.9 52.4431C124.034 49.4399 121.285 47.3722 118.159 47.3722V54.3882ZM109.615 53.1038L114.576 48.1428L114.576 48.1428L109.615 53.1038ZM109.615 41.0559L114.576 46.0169L114.576 46.0169L109.615 41.0559ZM118.159 39.7716V46.7875C121.284 46.7875 124.033 44.7206 124.9 41.7183L118.159 39.7716ZM120.39 34.3985L126.527 37.7977C128.044 35.0596 127.563 31.648 125.349 29.4356L120.39 34.3985ZM116.537 30.5485L111.577 35.5111L111.578 35.5114L116.537 30.5485ZM115.585 29.1255L122.067 26.4396L122.067 26.4396L115.585 29.1255ZM115.585 25.7681L122.067 28.4541L122.067 28.454L115.585 25.7681ZM116.537 24.3452L111.577 19.3824L111.577 19.3826L116.537 24.3452ZM120.673 20.2116L125.633 25.1744L125.634 25.1734L120.673 20.2116ZM126.874 20.2116L121.913 25.1734L121.914 25.1745L126.874 20.2116ZM130.727 24.0616L125.767 29.0246C127.978 31.2333 131.382 31.7139 134.118 30.2035L130.727 24.0616ZM136.103 21.8311L138.055 28.5699C141.055 27.7007 143.119 24.9538 143.119 21.8311H136.103ZM137.387 13.2843L132.426 8.3233L137.387 13.2843ZM149.435 13.2843L154.396 8.3233L149.435 13.2843ZM150.719 21.8311H143.703C143.703 24.9553 145.769 27.703 148.77 28.5709L150.719 21.8311ZM156.092 24.0616L152.695 30.2003C155.431 31.7145 158.839 31.235 161.051 29.0246L156.092 24.0616ZM159.945 20.2116L164.904 25.1745L164.905 25.1734L159.945 20.2116ZM166.146 20.2116L161.185 25.1734L161.188 25.1762L166.146 20.2116ZM170.282 24.3423L175.242 19.3797L175.24 19.3777L170.282 24.3423ZM171.233 25.7652L177.715 23.0793L177.715 23.0793L171.233 25.7652ZM171.233 29.1226L177.715 31.8086L177.715 31.8085L171.233 29.1226ZM170.282 30.5456L175.241 35.5085L175.242 35.5082L170.282 30.5456ZM166.432 34.3926L161.473 29.4297C159.261 31.6399 158.779 35.047 160.29 37.7842L166.432 34.3926ZM143.411 61.6965V68.7125L143.419 68.7124L143.411 61.6965ZM135.29 59.2331L131.392 65.0667L131.392 65.0667L135.29 59.2331ZM153.741 57.4102L148.78 52.4492V52.4492L153.741 57.4102ZM158.027 47.0799L165.043 47.0883V47.0799H158.027ZM155.564 38.9593L161.398 35.0614V35.0614L155.564 38.9593ZM140.559 32.7441L141.928 39.6253V39.6253L140.559 32.7441ZM133.075 36.7444L128.114 31.7833L128.114 31.7833L133.075 36.7444ZM129.075 44.2283L122.194 42.8596V42.8596L129.075 44.2283ZM127.026 97.2899L125.127 104.044L125.127 104.044L127.026 97.2899ZM122.358 95.9768L115.342 96.029C115.365 99.1527 117.451 101.885 120.458 102.731L122.358 95.9768ZM129.376 99.1394L123.257 102.572L123.257 102.572L129.376 99.1394ZM129.729 102.109L122.975 100.209L122.975 100.209L129.729 102.109ZM128.319 107.123L121.565 105.223L121.562 105.232L128.319 107.123ZM127.629 108.484L133.146 112.818L133.146 112.818L127.629 108.484ZM126.47 109.476L129.907 115.593L129.907 115.593L126.47 109.476ZM125.02 109.949L125.852 116.916H125.852L125.02 109.949ZM123.499 109.831L125.399 103.077L125.398 103.077L123.499 109.831ZM118.83 108.518L120.73 101.764C117.722 100.918 114.516 102.163 112.868 104.819L118.83 108.518ZM115.62 112.593L110.629 107.662C108.431 109.887 107.971 113.298 109.501 116.025L115.62 112.593ZM117.993 116.824L124.112 113.392L124.112 113.391L117.993 116.824ZM116.497 122.142L119.93 128.261L119.93 128.26L116.497 122.142ZM111.955 124.689L115.386 130.809L115.387 130.809L111.955 124.689ZM106.637 123.194L112.755 119.76L112.755 119.759L106.637 123.194ZM104.261 118.962L110.379 115.528C108.849 112.803 105.702 111.418 102.659 112.132L104.261 118.962ZM99.1124 119.578L99.0576 112.563C95.9349 112.587 93.2041 114.672 92.3586 117.679L99.1124 119.578ZM97.8007 124.242L91.0468 122.342L97.8007 124.242ZM92.9821 126.945L91.0823 133.699L91.0823 133.699L92.9821 126.945ZM87.9677 125.534L89.8674 118.78L89.8674 118.78L87.9677 125.534ZM85.2647 120.716L78.5108 118.816L78.5108 118.816L85.2647 120.716ZM86.5764 116.052L93.3303 117.952C94.1756 114.947 92.9335 111.744 90.2827 110.095L86.5764 116.052ZM82.502 112.839L87.4309 107.846C85.2067 105.65 81.7983 105.191 79.0719 106.719L82.502 112.839ZM78.2687 115.212L81.5258 121.426C81.5839 121.395 81.6416 121.364 81.6988 121.332L78.2687 115.212ZM75.311 115.521L73.4112 122.275L73.4113 122.275L75.311 115.521ZM72.9484 113.715L66.8294 117.147C66.8619 117.205 66.8952 117.263 66.9294 117.32L72.9484 113.715ZM70.4004 109.173L64.2809 112.604L64.2814 112.605L70.4004 109.173ZM70.0472 106.204L63.2933 104.304L70.0472 106.204ZM71.8962 103.855L68.4638 97.7359L68.4629 97.7364L71.8962 103.855ZM76.1334 101.478L79.5658 107.597C82.2945 106.066 83.68 102.914 82.9623 99.8687L76.1334 101.478ZM75.5173 96.3292L82.5331 96.2821C82.5121 93.1565 80.426 90.4217 77.4171 89.5754L75.5173 96.3292ZM70.8489 95.0161L68.9491 101.77L68.9492 101.77L70.8489 95.0161ZM68.4995 93.1666L74.6185 89.7342L68.4995 93.1666ZM68.146 90.1975L61.3921 88.2977L61.3921 88.2977L68.146 90.1975ZM69.5564 85.1831L76.3103 87.0828L76.3103 87.0828L69.5564 85.1831ZM71.4059 82.8336L67.9735 76.7146H67.9735L71.4059 82.8336ZM74.3751 82.4801L76.2748 75.7262L76.2748 75.7262L74.3751 82.4801ZM79.0435 83.7932L77.1437 90.5471C80.152 91.3933 83.3573 90.1478 85.005 87.4924L79.0435 83.7932ZM82.2527 79.7231L87.2405 84.6572C89.4418 82.432 89.9028 79.0177 88.3704 76.2884L82.2527 79.7231ZM79.877 75.4916L73.759 78.926L73.7592 78.9263L79.877 75.4916ZM79.4044 74.0417L86.371 73.2112V73.2111L79.4044 74.0417ZM80.2143 71.1622L74.7023 66.8216L74.7022 66.8216L80.2143 71.1622ZM81.3735 70.1713L77.9432 64.0511L77.943 64.0512L81.3735 70.1713ZM85.9184 67.624L89.3486 73.7443L89.3498 73.7436L85.9184 67.624ZM91.2361 69.1198L85.1176 72.5532L85.1184 72.5545L91.2361 69.1198ZM93.6118 73.3513L87.4941 76.786C89.0239 79.5107 92.1712 80.8953 95.2134 80.182L93.6118 73.3513ZM98.7607 72.7352L98.8159 79.751C101.938 79.7264 104.669 77.641 105.515 74.635L98.7607 72.7352ZM100.075 68.0643L93.3206 66.1646L93.3206 66.1646L100.075 68.0643ZM101.924 65.7149L105.356 71.8339L105.356 71.8339L101.924 65.7149ZM104.893 65.3613L106.793 58.6075L106.793 58.6075L104.893 65.3613ZM109.908 66.7718L111.807 60.0179L111.807 60.0179L109.908 66.7718ZM112.257 68.6213L118.376 65.1889L118.376 65.1889L112.257 68.6213ZM112.611 71.5905L119.364 73.4902L119.364 73.4902L112.611 71.5905ZM111.297 76.2614L104.543 74.3616C103.697 77.3691 104.941 80.5735 107.595 82.2216L111.297 76.2614ZM115.367 79.4706L110.434 84.4601C112.658 86.6586 116.069 87.1198 118.797 85.5909L115.367 79.4706ZM119.6 77.0981L123.03 83.2184L123.032 83.2176L119.6 77.0981ZM124.918 78.5939L118.799 82.0272L118.801 82.0306L124.918 78.5939ZM127.469 83.1345L133.587 79.7001L133.586 79.6977L127.469 83.1345ZM127.132 87.4638L121.62 83.1232L121.62 83.1232L127.132 87.4638ZM125.973 88.4547L129.403 94.5751L129.403 94.5749L125.973 88.4547ZM121.743 90.8254L118.312 84.7051C115.585 86.2338 114.198 89.383 114.912 92.4273L121.743 90.8254ZM95.4115 108.689L93.5117 115.443L93.5198 115.445L95.4115 108.689ZM105.305 107.505L101.873 101.386H101.873L105.305 107.505ZM111.474 99.6792L118.225 101.587L118.227 101.579L111.474 99.6792ZM111.32 92.1203L117.991 89.9476L117.991 89.9476L111.32 92.1203ZM106.993 85.9206L111.332 80.4079H111.332L106.993 85.9206ZM99.9503 83.17L100.496 76.1752H100.496L99.9503 83.17ZM92.5667 84.7953L95.9991 90.9144L95.9991 90.9144L92.5667 84.7953ZM87.3304 90.249L81.0769 87.0681L81.0769 87.0681L87.3304 90.249ZM174.106 32.7556H168.663V46.7875H174.106V32.7556ZM182.167 36.0949C180.029 33.9568 177.129 32.7556 174.106 32.7556V46.7875C173.408 46.7875 172.739 46.5103 172.245 46.0169L182.167 36.0949ZM185.507 44.1565C185.507 41.1328 184.306 38.2329 182.167 36.0949L172.245 46.0169C171.752 45.5235 171.475 44.8543 171.475 44.1565H185.507ZM185.507 50.0032V44.1565H171.475V50.0032H185.507ZM184.643 54.3614C185.215 52.9765 185.509 51.4923 185.507 49.9938L171.475 50.0126C171.474 49.6667 171.542 49.3243 171.674 49.0047L184.643 54.3614ZM182.173 58.0653C183.232 57.0051 184.071 55.7465 184.643 54.3615L171.674 49.0046C171.806 48.685 172 48.3945 172.244 48.1499L182.173 58.0653ZM178.472 60.5407C179.856 59.9668 181.114 59.1256 182.173 58.0653L172.244 48.1499C172.488 47.9052 172.779 47.7111 173.098 47.5787L178.472 60.5407ZM174.106 61.41C175.604 61.41 177.088 61.1146 178.472 60.5407L173.098 47.5787C173.418 47.4462 173.76 47.378 174.106 47.378L174.106 61.41ZM168.663 61.41H174.106V47.378H168.663V61.41ZM172.572 63.168C173.768 61.0051 174.718 58.7148 175.403 56.3401L161.922 52.448C161.527 53.8147 160.981 55.1329 160.292 56.3778L172.572 63.168ZM175.243 58.6619L171.393 54.8119L161.471 64.734L165.321 68.584L175.243 58.6619ZM178.582 66.7231C178.582 63.7 177.381 60.8006 175.244 58.6627L165.32 68.5832C164.827 68.0899 164.55 67.4208 164.55 66.7231H178.582ZM175.244 74.7836C177.381 72.6456 178.582 69.7463 178.582 66.7231H164.55C164.55 66.0255 164.827 65.3564 165.32 64.863L175.244 74.7836ZM171.11 78.9179L175.243 74.7844L165.321 64.8623L161.187 68.9959L171.11 78.9179ZM163.048 82.2567C166.071 82.2567 168.971 81.056 171.109 78.9187L161.188 68.9951C161.682 68.5019 162.351 68.2248 163.048 68.2248V82.2567ZM154.988 78.9187C157.126 81.056 160.025 82.2567 163.048 82.2567V68.2248C163.746 68.2248 164.415 68.5019 164.908 68.9951L154.988 78.9187ZM151.136 75.0698L154.989 78.9198L164.907 68.994L161.054 65.144L151.136 75.0698ZM152.672 79.0762C155.041 78.3896 157.327 77.4412 159.487 76.2486L152.703 63.9652C151.456 64.6541 150.136 65.2019 148.767 65.5985L152.672 79.0762ZM157.735 77.7748V72.3374H143.703V77.7748H157.735ZM154.396 85.8364C156.534 83.6984 157.735 80.7985 157.735 77.7748H143.703C143.703 77.077 143.98 76.4078 144.474 75.9144L154.396 85.8364ZM146.334 89.1757C149.358 89.1757 152.258 87.9745 154.396 85.8364L144.474 75.9144C144.967 75.421 145.636 75.1438 146.334 75.1438V89.1757ZM140.488 89.1757H146.334V75.1438H140.488V89.1757ZM132.426 85.8364C134.564 87.9745 137.464 89.1757 140.488 89.1757V75.1438C141.185 75.1438 141.855 75.421 142.348 75.9144L132.426 85.8364ZM129.087 77.7748C129.087 80.7985 130.288 83.6984 132.426 85.8364L142.348 75.9144C142.841 76.4078 143.119 77.077 143.119 77.7748H129.087ZM129.087 72.3374V77.7748H143.119V72.3374H129.087ZM127.331 76.245C129.491 77.4385 131.777 78.3879 134.148 79.0755L138.057 65.5992C136.687 65.2017 135.365 64.6529 134.116 63.9629L127.331 76.245ZM131.83 78.9169L135.683 75.0669L125.764 65.141L121.912 68.9911L131.83 78.9169ZM123.769 82.2034C126.714 82.2034 129.548 81.0766 131.689 79.054L122.053 68.854C122.517 68.4156 123.131 68.1714 123.769 68.1714V82.2034ZM115.849 79.054C117.99 81.0766 120.824 82.2034 123.769 82.2034V68.1714C124.407 68.1714 125.021 68.4156 125.486 68.854L115.849 79.054ZM111.573 74.7814L115.706 78.915L125.628 68.9929L121.495 64.8594L111.573 74.7814ZM108.234 66.7202C108.234 69.7434 109.435 72.6427 111.572 74.7807L121.496 64.8601C121.989 65.3535 122.266 66.0226 122.266 66.7202H108.234ZM111.572 58.6597C109.435 60.7977 108.234 63.6971 108.234 66.7202H122.266C122.266 67.4179 121.989 68.0869 121.496 68.5803L111.572 58.6597ZM115.429 54.8031L111.573 58.659L121.495 68.5811L125.351 64.7252L115.429 54.8031ZM111.418 56.3333C112.104 58.7087 113.054 60.9996 114.252 63.1625L126.528 56.3658C125.84 55.1234 125.294 53.8075 124.9 52.4431L111.418 56.3333ZM112.716 61.4042H118.159V47.3722H112.716V61.4042ZM104.654 58.0649C106.792 60.203 109.692 61.4042 112.716 61.4042V47.3722C113.414 47.3722 114.083 47.6494 114.576 48.1428L104.654 58.0649ZM101.315 50.0032C101.315 53.0269 102.516 55.9268 104.654 58.0649L114.576 48.1428C115.07 48.6362 115.347 49.3054 115.347 50.0032H101.315ZM101.315 44.1565V50.0032H115.347V44.1565H101.315ZM104.654 36.0948C102.516 38.2329 101.315 41.1328 101.315 44.1565H115.347C115.347 44.8543 115.07 45.5235 114.576 46.0169L104.654 36.0948ZM112.716 32.7556C109.692 32.7556 106.792 33.9568 104.654 36.0949L114.576 46.0169C114.083 46.5103 113.414 46.7875 112.716 46.7875V32.7556ZM118.159 32.7556H112.716V46.7875H118.159V32.7556ZM114.252 30.9993C113.055 33.1611 112.104 35.4506 111.419 37.8248L124.9 41.7183C125.294 40.3546 125.839 39.0395 126.527 37.7977L114.252 30.9993ZM111.578 35.5114L115.431 39.3614L125.349 29.4356L121.496 25.5856L111.578 35.5114ZM109.104 31.8115C109.677 33.1952 110.518 34.4523 111.577 35.5111L121.496 25.5859C121.741 25.8302 121.935 26.1203 122.067 26.4396L109.104 31.8115ZM108.235 27.4468C108.235 28.9446 108.531 30.4278 109.104 31.8115L122.067 26.4396C122.199 26.7589 122.267 27.1012 122.267 27.4468H108.235ZM109.104 23.0822C108.531 24.4659 108.235 25.949 108.235 27.4468H122.267C122.267 27.7925 122.199 28.1348 122.067 28.4541L109.104 23.0822ZM111.577 19.3826C110.518 20.4413 109.677 21.6985 109.104 23.0822L122.067 28.454C121.935 28.7734 121.741 29.0635 121.496 29.3078L111.577 19.3826ZM115.714 15.2488L111.577 19.3824L121.496 29.308L125.633 25.1744L115.714 15.2488ZM123.773 11.9118C120.75 11.9118 117.851 13.1125 115.713 15.2498L125.634 25.1734C125.14 25.6666 124.471 25.9437 123.773 25.9437V11.9118ZM131.834 15.2498C129.696 13.1125 126.797 11.9118 123.773 11.9118V25.9437C123.076 25.9437 122.407 25.6666 121.913 25.1734L131.834 15.2498ZM135.686 19.0987L131.833 15.2487L121.914 25.1745L125.767 29.0246L135.686 19.0987ZM134.15 15.0924C131.78 15.779 129.495 16.7273 127.335 17.9198L134.118 30.2035C135.366 29.5145 136.686 28.9666 138.055 28.5699L134.15 15.0924ZM129.087 16.385V21.8311H143.119V16.385H129.087ZM132.426 8.3233C130.288 10.4614 129.087 13.3613 129.087 16.385H143.119C143.119 17.0828 142.841 17.752 142.348 18.2454L132.426 8.3233ZM140.488 4.98403C137.464 4.98403 134.564 6.18519 132.426 8.3233L142.348 18.2454C141.855 18.7388 141.185 19.016 140.488 19.016V4.98403ZM146.334 4.98403H140.488V19.016H146.334V4.98403ZM154.396 8.3233C152.258 6.18519 149.358 4.98403 146.334 4.98403V19.016C145.636 19.016 144.967 18.7388 144.474 18.2454L154.396 8.3233ZM157.735 16.385C157.735 13.3613 156.534 10.4614 154.396 8.3233L144.474 18.2454C143.98 17.752 143.703 17.0828 143.703 16.385H157.735ZM157.735 21.8311V16.385H143.703V21.8311H157.735ZM159.489 17.9229C157.329 16.7272 155.041 15.7774 152.668 15.0913L148.77 28.5709C150.135 28.9657 151.452 29.5123 152.695 30.2003L159.489 17.9229ZM154.986 15.2487L151.133 19.0987L161.051 29.0246L164.904 25.1745L154.986 15.2487ZM163.045 11.9118C160.022 11.9118 157.123 13.1125 154.985 15.2498L164.905 25.1734C164.412 25.6666 163.743 25.9437 163.045 25.9437V11.9118ZM171.106 15.2498C168.968 13.1125 166.068 11.9118 163.045 11.9118V25.9437C162.348 25.9437 161.679 25.6666 161.185 25.1734L171.106 15.2498ZM175.24 19.3777L171.103 15.2471L161.188 25.1762L165.324 29.3068L175.24 19.3777ZM177.715 23.0793C177.141 21.6955 176.301 20.4384 175.242 19.3797L165.323 29.3049C165.078 29.0606 164.884 28.7705 164.752 28.4511L177.715 23.0793ZM178.583 27.4439C178.583 25.9461 178.288 24.463 177.715 23.0793L164.752 28.4511C164.619 28.1318 164.551 27.7896 164.551 27.4439H178.583ZM177.715 31.8085C178.288 30.4249 178.583 28.9417 178.583 27.4439H164.551C164.551 27.0982 164.619 26.756 164.752 26.4368L177.715 31.8085ZM175.242 35.5082C176.301 34.4494 177.141 33.1923 177.715 31.8086L164.752 26.4367C164.884 26.1173 165.078 25.8272 165.323 25.5829L175.242 35.5082ZM171.391 39.3556L175.241 35.5085L165.323 25.5826L161.473 29.4297L171.391 39.3556ZM175.402 37.8216C174.716 35.45 173.767 33.1623 172.574 31.0011L160.29 37.7842C160.979 39.0318 161.527 40.3525 161.923 41.7215L175.402 37.8216ZM143.411 54.6805C141.908 54.6805 140.438 54.2347 139.188 53.3996L131.392 65.0667C134.95 67.4437 139.132 68.7125 143.411 68.7125V54.6805ZM148.78 52.4492C147.354 53.8757 145.42 54.6781 143.402 54.6805L143.419 68.7124C149.152 68.7056 154.648 66.4251 158.702 62.3713L148.78 52.4492ZM151.011 47.0715C151.009 49.0888 150.207 51.0228 148.78 52.4492L158.702 62.3713C162.756 58.3175 165.037 52.8212 165.043 47.0883L151.011 47.0715ZM149.731 42.8572C150.566 44.1071 151.011 45.5766 151.011 47.0799H165.043C165.043 42.8014 163.775 38.6189 161.398 35.0614L149.731 42.8572ZM146.319 40.0578C147.708 40.6331 148.895 41.6073 149.731 42.8572L161.398 35.0614C159.021 31.504 155.642 28.7313 151.689 27.094L146.319 40.0578ZM141.928 39.6253C143.402 39.332 144.931 39.4825 146.319 40.0578L151.689 27.094C147.736 25.4566 143.387 25.0282 139.191 25.8629L141.928 39.6253ZM138.036 41.7054C139.099 40.6424 140.454 39.9185 141.928 39.6253L139.191 25.8629C134.994 26.6976 131.14 28.7579 128.114 31.7833L138.036 41.7054ZM135.956 45.5971C136.25 44.1227 136.973 42.7684 138.036 41.7054L128.114 31.7833C125.089 34.8087 123.029 38.6632 122.194 42.8596L135.956 45.5971ZM136.389 49.9885C135.814 48.5997 135.663 47.0714 135.956 45.5971L122.194 42.8596C121.359 47.0559 121.788 51.4055 123.425 55.3583L136.389 49.9885ZM139.188 53.3996C137.938 52.5644 136.964 51.3773 136.389 49.9885L123.425 55.3583C125.062 59.3111 127.835 62.6897 131.392 65.0667L139.188 53.3996ZM128.926 90.536L124.258 89.2229L120.458 102.731L125.127 104.044L128.926 90.536ZM135.495 95.707C134.078 93.1805 131.715 91.3204 128.926 90.536L125.127 104.044C124.333 103.821 123.66 103.291 123.257 102.572L135.495 95.707ZM136.483 104.008C137.268 101.22 136.912 98.2336 135.495 95.707L123.257 102.572C122.853 101.853 122.752 101.003 122.975 100.209L136.483 104.008ZM135.073 109.023L136.483 104.008L122.975 100.209L121.565 105.223L135.073 109.023ZM133.146 112.818C134.033 111.689 134.688 110.396 135.075 109.014L121.562 105.232C121.673 104.839 121.859 104.471 122.112 104.149L133.146 112.818ZM129.907 115.593C131.158 114.89 132.259 113.947 133.146 112.818L122.112 104.149C122.364 103.828 122.677 103.56 123.034 103.359L129.907 115.593ZM125.852 116.916C127.277 116.746 128.655 116.296 129.907 115.593L123.034 103.359C123.39 103.159 123.782 103.031 124.188 102.983L125.852 116.916ZM121.599 116.585C122.981 116.974 124.426 117.086 125.852 116.916L124.188 102.983C124.594 102.934 125.005 102.966 125.399 103.077L121.599 116.585ZM116.931 115.272L121.599 116.585L125.398 103.077L120.73 101.764L116.931 115.272ZM120.611 117.524C122.199 115.916 123.601 114.136 124.792 112.216L112.868 104.819C112.23 105.848 111.479 106.801 110.629 107.662L120.611 117.524ZM124.112 113.391L121.739 109.161L109.501 116.025L111.874 120.256L124.112 113.391ZM125.1 121.692C125.884 118.904 125.529 115.918 124.112 113.392L111.873 120.255C111.47 119.536 111.369 118.686 111.592 117.893L125.1 121.692ZM119.93 128.26C122.456 126.843 124.316 124.48 125.1 121.692L111.592 117.893C111.816 117.099 112.345 116.426 113.064 116.023L119.93 128.26ZM115.387 130.809L119.93 128.261L113.065 116.022L108.522 118.57L115.387 130.809ZM107.086 131.797C109.875 132.581 112.86 132.226 115.386 130.809L108.523 118.57C109.242 118.167 110.092 118.066 110.886 118.289L107.086 131.797ZM100.518 126.627C101.936 129.153 104.298 131.012 107.086 131.797L110.886 118.289C111.68 118.512 112.352 119.041 112.755 119.76L100.518 126.627ZM98.1435 122.397L100.519 126.628L112.755 119.759L110.379 115.528L98.1435 122.397ZM99.1673 126.594C101.422 126.576 103.668 126.308 105.863 125.793L102.659 112.132C101.478 112.409 100.27 112.553 99.0576 112.563L99.1673 126.594ZM104.555 126.141L105.866 121.478L92.3586 117.679L91.0468 122.342L104.555 126.141ZM99.3836 132.71C101.91 131.293 103.77 128.93 104.555 126.141L91.0468 122.342C91.2701 121.548 91.7996 120.876 92.5188 120.472L99.3836 132.71ZM91.0823 133.699C93.871 134.483 96.857 134.127 99.3836 132.71L92.5188 120.472C93.238 120.069 94.088 119.968 94.8818 120.191L91.0823 133.699ZM86.0679 132.288L91.0823 133.699L94.8818 120.191L89.8674 118.78L86.0679 132.288ZM79.4992 127.117C80.9164 129.644 83.2792 131.504 86.0679 132.288L89.8674 118.78C90.6612 119.004 91.3338 119.533 91.7372 120.252L79.4992 127.117ZM78.5108 118.816C77.7264 121.604 78.0819 124.591 79.4992 127.117L91.7372 120.252C92.1407 120.971 92.2419 121.821 92.0186 122.615L78.5108 118.816ZM79.8225 114.152L78.5108 118.816L92.0186 122.615L93.3303 117.952L79.8225 114.152ZM77.573 117.832C79.1783 119.417 80.9549 120.818 82.8701 122.009L90.2827 110.095C89.2516 109.454 88.2951 108.699 87.4309 107.846L77.573 117.832ZM81.6988 121.332L85.932 118.959L79.0719 106.719L74.8386 109.091L81.6988 121.332ZM73.4113 122.275C76.1254 123.038 79.0287 122.735 81.5258 121.426L75.0116 108.997C75.6883 108.643 76.4752 108.56 77.2107 108.767L73.4113 122.275ZM66.9294 117.32C68.378 119.739 70.6972 121.512 73.4112 122.275L77.2108 108.767C77.9463 108.974 78.5748 109.455 78.9674 110.11L66.9294 117.32ZM64.2814 112.605L66.8294 117.147L79.0674 110.283L76.5194 105.74L64.2814 112.605ZM63.2933 104.304C62.5091 107.092 62.8643 110.078 64.2809 112.604L76.52 105.741C76.9232 106.46 77.0243 107.31 76.8011 108.104L63.2933 104.304ZM68.4629 97.7364C65.9371 99.1537 64.0776 101.516 63.2933 104.304L76.8011 108.104C76.5778 108.897 76.0485 109.57 75.3295 109.973L68.4629 97.7364ZM72.701 95.3591L68.4638 97.7359L75.3286 109.974L79.5658 107.597L72.701 95.3591ZM68.5015 96.3764C68.5167 98.6365 68.7861 100.888 69.3045 103.088L82.9623 99.8687C82.6852 98.693 82.5413 97.4899 82.5331 96.2821L68.5015 96.3764ZM68.9492 101.77L73.6176 103.083L77.4171 89.5754L72.7486 88.2622L68.9492 101.77ZM62.3804 96.599C63.7977 99.1255 66.1605 100.986 68.9491 101.77L72.7487 88.2622C73.5425 88.4855 74.2151 89.015 74.6185 89.7342L62.3804 96.599ZM61.3921 88.2977C60.6077 91.0864 60.9632 94.0724 62.3804 96.599L74.6185 89.7342C75.0219 90.4534 75.1231 91.3034 74.8998 92.0972L61.3921 88.2977ZM62.8025 83.2833L61.3921 88.2977L74.8998 92.0972L76.3103 87.0828L62.8025 83.2833ZM67.9735 76.7146C65.447 78.1318 63.5869 80.4947 62.8025 83.2833L76.3103 87.0828C76.087 87.8766 75.5575 88.5492 74.8383 88.9526L67.9735 76.7146ZM76.2748 75.7262C73.4861 74.9418 70.5001 75.2973 67.9735 76.7146L74.8383 88.9526C74.1191 89.3561 73.2691 89.4573 72.4753 89.234L76.2748 75.7262ZM80.9432 77.0394L76.2748 75.7262L72.4753 89.234L77.1437 90.5471L80.9432 77.0394ZM77.2649 74.789C75.6761 76.395 74.273 78.1745 73.0819 80.0941L85.005 87.4924C85.6416 86.4665 86.3914 85.5155 87.2405 84.6572L77.2649 74.789ZM73.7592 78.9263L76.1349 83.1578L88.3704 76.2884L85.9947 72.0569L73.7592 78.9263ZM72.4377 74.8723C72.6076 76.2972 73.0566 77.6747 73.759 78.926L85.9949 72.0573C86.1949 72.4134 86.3227 72.8055 86.371 73.2112L72.4377 74.8723ZM72.769 70.6217C72.3804 72.003 72.2679 73.4474 72.4377 74.8723L86.371 73.2111C86.4194 73.6168 86.3873 74.0279 86.2767 74.4211L72.769 70.6217ZM74.7022 66.8216C73.8145 67.949 73.1575 69.2403 72.769 70.6217L86.2767 74.4211C86.1661 74.8144 85.9791 75.1819 85.7264 75.5028L74.7022 66.8216ZM77.943 64.0512C76.6913 64.7528 75.59 65.6942 74.7023 66.8216L85.7264 75.5029C85.4737 75.8237 85.1602 76.0917 84.8039 76.2915L77.943 64.0512ZM82.4881 61.5038L77.9432 64.0511L84.8037 76.2916L89.3486 73.7443L82.4881 61.5038ZM90.7867 60.5169C87.9986 59.7327 85.0131 60.0879 82.4869 61.5045L89.3498 73.7436C88.6307 74.1468 87.7809 74.2479 86.9872 74.0247L90.7867 60.5169ZM97.3546 65.6865C95.9373 63.1607 93.5748 61.3012 90.7867 60.5169L86.9872 74.0247C86.1936 73.8015 85.5211 73.2721 85.1176 72.5532L97.3546 65.6865ZM99.7296 69.9166L97.3539 65.6851L85.1184 72.5545L87.4941 76.786L99.7296 69.9166ZM98.7055 65.7195C96.4509 65.7372 94.2053 66.0059 92.0102 66.5206L95.2134 80.182C96.3945 79.9051 97.6028 79.7605 98.8159 79.751L98.7055 65.7195ZM93.3206 66.1646L92.0068 70.8355L105.515 74.635L106.828 69.964L93.3206 66.1646ZM98.4916 59.5958C95.9651 61.0131 94.105 63.3759 93.3206 66.1646L106.828 69.9641C106.605 70.7578 106.076 71.4305 105.356 71.8339L98.4916 59.5958ZM106.793 58.6075C104.004 57.8231 101.018 58.1786 98.4916 59.5958L105.356 71.8339C104.637 72.2373 103.787 72.3385 102.993 72.1152L106.793 58.6075ZM111.807 60.0179L106.793 58.6075L102.993 72.1152L108.008 73.5257L111.807 60.0179ZM118.376 65.1889C116.959 62.6624 114.596 60.8023 111.807 60.0179L108.008 73.5257C107.214 73.3024 106.541 72.7729 106.138 72.0537L118.376 65.1889ZM119.364 73.4902C120.149 70.7015 119.793 67.7155 118.376 65.1889L106.138 72.0537C105.735 71.3345 105.633 70.4845 105.857 69.6907L119.364 73.4902ZM118.051 78.1611L119.364 73.4902L105.857 69.6907L104.543 74.3616L118.051 78.1611ZM120.299 74.481C118.694 72.8941 116.916 71.492 114.998 70.3011L107.595 82.2216C108.622 82.8594 109.575 83.6102 110.434 84.4601L120.299 74.481ZM116.17 70.9777L111.937 73.3502L118.797 85.5909L123.03 83.2184L116.17 70.9777ZM124.468 69.991C121.68 69.2067 118.695 69.562 116.169 70.9785L123.032 83.2176C122.312 83.6209 121.463 83.722 120.669 83.4987L124.468 69.991ZM131.036 75.1606C129.619 72.6347 127.257 70.7752 124.468 69.991L120.669 83.4987C119.875 83.2755 119.203 82.7462 118.799 82.0272L131.036 75.1606ZM133.586 79.6977L131.034 75.1572L118.801 82.0306L121.352 86.5712L133.586 79.6977ZM134.908 83.7538C134.738 82.3289 134.289 80.9514 133.587 79.7001L121.351 86.5688C121.151 86.2126 121.023 85.8205 120.975 85.4149L134.908 83.7538ZM134.577 88.0044C134.966 86.623 135.078 85.1786 134.908 83.7538L120.975 85.4149C120.927 85.0093 120.959 84.5982 121.069 84.205L134.577 88.0044ZM132.644 91.8045C133.532 90.6771 134.189 89.3858 134.577 88.0044L121.069 84.205C121.18 83.8117 121.367 83.4441 121.62 83.1232L132.644 91.8045ZM129.403 94.5749C130.655 93.8733 131.756 92.9319 132.644 91.8044L121.62 83.1232C121.872 82.8023 122.186 82.5343 122.542 82.3346L129.403 94.5749ZM125.173 96.9458L129.403 94.5751L122.543 82.3344L118.312 84.7051L125.173 96.9458ZM129.374 95.9245C129.357 93.6681 129.088 91.4205 128.573 89.2236L114.912 92.4273C115.189 93.6081 115.333 94.8162 115.342 96.029L129.374 95.9245ZM97.3112 101.935C96.1676 101.613 95.1451 100.96 94.3729 100.057L83.7093 109.178C86.2853 112.189 89.6965 114.37 93.5117 115.443L97.3112 101.935ZM101.873 101.386C100.482 102.166 98.8387 102.363 97.3031 101.933L93.5198 115.445C98.6335 116.877 104.106 116.222 108.738 113.624L101.873 101.386ZM104.722 97.7713C104.288 99.3059 103.264 100.606 101.873 101.386L108.738 113.624C113.369 111.026 116.781 106.697 118.225 101.587L104.722 97.7713ZM104.649 94.2929C105.017 95.4225 105.041 96.6358 104.72 97.7794L118.227 101.579C119.301 97.7637 119.218 93.716 117.991 89.9476L104.649 94.2929ZM102.653 91.4334C103.586 92.1682 104.281 93.1634 104.649 94.2929L117.991 89.9476C116.764 86.1792 114.446 82.8593 111.332 80.4079L102.653 91.4334ZM99.4047 90.1647C100.589 90.2571 101.719 90.6986 102.653 91.4334L111.332 80.4079C108.218 77.9564 104.447 76.4834 100.496 76.1752L99.4047 90.1647ZM95.9991 90.9144C97.0352 90.3332 98.2203 90.0723 99.4047 90.1647L100.496 76.1752C96.5447 75.867 92.5908 76.7374 89.1343 78.6763L95.9991 90.9144ZM93.5839 93.4298C94.1225 92.3709 94.963 91.4956 95.9991 90.9144L89.1343 78.6763C85.6777 80.6152 82.8737 83.5356 81.0769 87.0681L93.5839 93.4298ZM92.9732 96.8631C92.8328 95.6835 93.0453 94.4887 93.5839 93.4298L81.0769 87.0681C79.2801 90.6006 78.5711 94.5866 79.0397 98.5221L92.9732 96.8631ZM94.3729 100.057C93.6008 99.1543 93.1137 98.0428 92.9732 96.8631L79.0397 98.5221C79.5082 102.457 81.1333 106.166 83.7093 109.178L94.3729 100.057Z" fill="white" mask="url(#phone-work-in-progress-path-4-outside-1)"/>
</g>
<path fill-rule="evenodd" clip-rule="evenodd" d="M168.663 39.7716H174.106C175.269 39.7716 176.384 40.2336 177.206 41.0559C178.029 41.8782 178.491 42.9936 178.491 44.1565V50.0032C178.491 50.5795 178.379 51.1504 178.159 51.683C177.939 52.2157 177.616 52.6998 177.208 53.1076C176.801 53.5154 176.318 53.8389 175.785 54.0597C175.253 54.2804 174.682 54.394 174.106 54.394H168.663C168.122 56.2647 167.374 58.069 166.432 59.7729L170.282 63.623C171.104 64.4453 171.566 65.5604 171.566 66.7231C171.566 67.8859 171.104 69.001 170.282 69.8233L166.148 73.9569C165.326 74.779 164.211 75.2408 163.048 75.2408C161.886 75.2408 160.77 74.779 159.948 73.9569L156.095 70.1069C154.392 71.0477 152.588 71.7958 150.719 72.3374V77.7748C150.719 78.9377 150.257 80.0531 149.435 80.8754C148.612 81.6977 147.497 82.1597 146.334 82.1597H140.488C139.325 82.1597 138.209 81.6977 137.387 80.8754C136.565 80.0531 136.103 78.9377 136.103 77.7748V72.3374C134.232 71.7948 132.428 71.0457 130.724 70.104L126.871 73.954C126.032 74.7461 124.922 75.1874 123.769 75.1874C122.616 75.1874 121.506 74.7461 120.667 73.954L116.534 69.8204C115.712 68.9981 115.25 67.883 115.25 66.7202C115.25 65.5575 115.712 64.4423 116.534 63.62L120.39 59.7642C119.447 58.0615 118.699 56.2581 118.159 54.3882H112.716C111.553 54.3882 110.438 53.9262 109.615 53.1038C108.793 52.2815 108.331 51.1662 108.331 50.0032V44.1565C108.331 42.9936 108.793 41.8782 109.615 41.0559C110.438 40.2336 111.553 39.7716 112.716 39.7716H118.159C118.699 37.9026 119.447 36.1003 120.39 34.3985L116.537 30.5485C116.129 30.1413 115.806 29.6577 115.585 29.1255C115.365 28.5934 115.251 28.0229 115.251 27.4468C115.251 26.8708 115.365 26.3003 115.585 25.7681C115.806 25.2359 116.129 24.7524 116.537 24.3452L120.673 20.2116C121.496 19.3896 122.611 18.9277 123.773 18.9277C124.936 18.9277 126.051 19.3896 126.874 20.2116L130.727 24.0616C132.43 23.1209 134.233 22.3728 136.103 21.8311V16.385C136.103 15.222 136.565 14.1067 137.387 13.2843C138.209 12.462 139.325 12 140.488 12H146.334C147.497 12 148.612 12.462 149.435 13.2843C150.257 14.1067 150.719 15.222 150.719 16.385V21.8311C152.588 22.3716 154.39 23.1197 156.092 24.0616L159.945 20.2116C160.767 19.3896 161.883 18.9277 163.045 18.9277C164.208 18.9277 165.323 19.3896 166.146 20.2116L170.282 24.3423C170.69 24.7495 171.013 25.233 171.233 25.7652C171.454 26.2974 171.567 26.8678 171.567 27.4439C171.567 28.02 171.454 28.5904 171.233 29.1226C171.013 29.6548 170.69 30.1383 170.282 30.5456L166.432 34.3926C167.373 36.0971 168.121 37.9012 168.663 39.7716ZM135.29 59.2331C137.694 60.8392 140.52 61.6965 143.411 61.6965C147.286 61.6918 151.001 60.1504 153.741 57.4102C156.481 54.6701 158.023 50.955 158.027 47.0799C158.027 44.189 157.17 41.363 155.564 38.9593C153.958 36.5556 151.675 34.6822 149.004 33.5759C146.334 32.4696 143.395 32.1801 140.559 32.7441C137.724 33.3081 135.12 34.7002 133.075 36.7444C131.031 38.7885 129.639 41.393 129.075 44.2283C128.511 47.0637 128.801 50.0026 129.907 52.6734C131.013 55.3442 132.887 57.627 135.29 59.2331ZM122.358 95.9768L127.026 97.2899C128.024 97.5705 128.869 98.2358 129.376 99.1394C129.883 100.043 130.01 101.111 129.729 102.109L128.319 107.123C128.18 107.617 127.946 108.08 127.629 108.484C127.312 108.887 126.918 109.225 126.47 109.476C126.022 109.728 125.53 109.888 125.02 109.949C124.51 110.01 123.993 109.97 123.499 109.831L118.83 108.518C117.916 109.992 116.839 111.359 115.62 112.593L117.993 116.824C118.5 117.727 118.627 118.795 118.346 119.792C118.066 120.79 117.401 121.635 116.497 122.142L111.955 124.689C111.051 125.196 109.983 125.323 108.986 125.043C107.989 124.762 107.144 124.097 106.637 123.194L104.261 118.962C102.573 119.358 100.846 119.565 99.1124 119.578L97.8007 124.242C97.5202 125.239 96.8549 126.084 95.9512 126.591C95.0475 127.098 93.9795 127.225 92.9821 126.945L87.9677 125.534C86.9702 125.254 86.1251 124.588 85.6182 123.685C85.1113 122.781 84.9841 121.713 85.2647 120.716L86.5764 116.052C85.1033 115.136 83.7367 114.058 82.502 112.839L78.2687 115.212C77.3585 115.689 76.3003 115.799 75.311 115.521C74.3217 115.243 73.4764 114.597 72.9484 113.715L70.4004 109.173C69.8937 108.269 69.7667 107.201 70.0472 106.204C70.3277 105.207 70.9928 104.362 71.8962 103.855L76.1334 101.478C75.7356 99.7903 75.529 98.0632 75.5173 96.3292L70.8489 95.0161C69.8515 94.7355 69.0064 94.0703 68.4995 93.1666C67.9926 92.2629 67.8654 91.1949 68.146 90.1975L69.5564 85.1831C69.837 84.1856 70.5023 83.3405 71.4059 82.8336C72.3096 82.3267 73.3776 82.1995 74.3751 82.4801L79.0435 83.7932C79.9573 82.3205 81.0338 80.9552 82.2527 79.7231L79.877 75.4916C79.6257 75.0441 79.4651 74.5514 79.4044 74.0417C79.3436 73.5321 79.3839 73.0155 79.5229 72.5214C79.6618 72.0273 79.8968 71.5655 80.2143 71.1622C80.5319 70.759 80.9257 70.4223 81.3735 70.1713L85.9184 67.624C86.8219 67.1174 87.8897 66.9903 88.887 67.2708C89.8842 67.5513 90.7292 68.2164 91.2361 69.1198L93.6118 73.3513C95.2999 72.9555 97.0268 72.7489 98.7607 72.7352L100.075 68.0643C100.355 67.0669 101.02 66.2218 101.924 65.7149C102.828 65.208 103.896 65.0808 104.893 65.3613L109.908 66.7718C110.905 67.0524 111.75 67.7177 112.257 68.6213C112.764 69.525 112.891 70.593 112.611 71.5905L111.297 76.2614C112.769 77.1757 114.134 78.2521 115.367 79.4706L119.6 77.0981C120.504 76.5914 121.571 76.4644 122.569 76.7449C123.566 77.0254 124.411 77.6905 124.918 78.5939L127.469 83.1345C127.72 83.582 127.881 84.0747 127.942 84.5843C128.002 85.094 127.962 85.6106 127.823 86.1047C127.684 86.5987 127.449 87.0606 127.132 87.4638C126.814 87.8671 126.42 88.2038 125.973 88.4547L121.743 90.8254C122.139 92.5143 122.345 94.2421 122.358 95.9768ZM89.0411 104.617C90.7152 106.575 92.9321 107.992 95.4115 108.689C98.7361 109.62 102.294 109.194 105.305 107.505C108.317 105.816 110.535 103.002 111.474 99.6792C112.171 97.1998 112.118 94.5693 111.32 92.1203C110.522 89.6713 109.016 87.5138 106.993 85.9206C104.969 84.3275 102.518 83.3703 99.9503 83.17C97.3825 82.9697 94.813 83.5353 92.5667 84.7953C90.3203 86.0554 88.4981 87.9533 87.3304 90.249C86.1627 92.5447 85.7019 95.1351 86.0064 97.6926C86.311 100.25 87.367 102.66 89.0411 104.617Z" fill="url(#phone-work-in-progress-paint0_linear)"/>
<circle cx="143.411" cy="47.0798" r="9.35463" fill="white"/>
<circle cx="98.9764" cy="95.0223" r="8.1853" fill="white"/>
<g filter="url(#phone-work-in-progress-filter1_d)">
<mask id="phone-work-in-progress-path-9-outside-2" maskUnits="userSpaceOnUse" x="172.209" y="55.7975" width="152.397" height="139.545" fill="black">
<rect fill="white" x="172.209" y="55.7975" width="152.397" height="139.545"/>
<path fill-rule="evenodd" clip-rule="evenodd" d="M222.093 166.738L291.248 107.124L299.076 100.375L302.991 97.0008L302.99 97.0001L309.563 91.3342C312.418 88.8725 312.738 84.562 310.276 81.7064L301.194 71.1707C298.732 68.3151 294.422 67.9957 291.566 70.4574L279.774 80.6224L279.775 80.6231L209.316 141.362L209.316 141.362L204.096 145.861L204.097 145.861L190.931 171.221C189.511 173.956 192.155 177.023 195.069 176.022L222.093 166.738L222.093 166.738L222.093 166.738L222.093 166.738Z"/>
</mask>
<path fill-rule="evenodd" clip-rule="evenodd" d="M222.093 166.738L291.248 107.124L299.076 100.375L302.991 97.0008L302.99 97.0001L309.563 91.3342C312.418 88.8725 312.738 84.562 310.276 81.7064L301.194 71.1707C298.732 68.3151 294.422 67.9957 291.566 70.4574L279.774 80.6224L279.775 80.6231L209.316 141.362L209.316 141.362L204.096 145.861L204.097 145.861L190.931 171.221C189.511 173.956 192.155 177.023 195.069 176.022L222.093 166.738L222.093 166.738L222.093 166.738L222.093 166.738Z" fill="white"/>
<path d="M291.248 107.124L295.646 112.226L291.248 107.124ZM222.093 166.738L216.991 171.136C219.42 173.954 223.674 174.269 226.492 171.84L222.093 166.738ZM299.076 100.375L303.475 105.478L303.475 105.478L299.076 100.375ZM302.991 97.0008L307.389 102.103C310.207 99.674 310.523 95.4203 308.093 92.6023L302.991 97.0008ZM302.99 97.0001L298.592 91.8976C295.774 94.3268 295.459 98.5806 297.888 101.399L302.99 97.0001ZM310.276 81.7064L315.379 77.3079L310.276 81.7064ZM301.194 71.1707L296.092 75.5692L301.194 71.1707ZM291.566 70.4574L287.168 65.3549L291.566 70.4574ZM279.774 80.6224L275.376 75.52C274.023 76.6865 273.188 78.3429 273.056 80.1246C272.924 81.9064 273.505 83.6677 274.672 85.0209L279.774 80.6224ZM279.775 80.6231L284.174 85.7256C285.527 84.559 286.361 82.9027 286.493 81.1209C286.625 79.3391 286.044 77.5779 284.877 76.2246L279.775 80.6231ZM209.316 141.362L204.213 145.76C206.643 148.578 210.896 148.894 213.714 146.464L209.316 141.362ZM209.316 141.362L214.418 136.963C211.989 134.145 207.735 133.83 204.917 136.259L209.316 141.362ZM204.096 145.861L199.698 140.758C198.345 141.925 197.51 143.581 197.378 145.363C197.246 147.145 197.827 148.906 198.994 150.259L204.096 145.861ZM204.097 145.861L210.075 148.965C211.345 146.52 210.998 143.549 209.199 141.463L204.097 145.861ZM190.931 171.221L184.952 168.117L184.952 168.118L190.931 171.221ZM195.069 176.022L197.258 182.393L197.258 182.393L195.069 176.022ZM222.093 166.738L227.195 162.339C225.397 160.253 222.509 159.471 219.904 160.367L222.093 166.738ZM222.093 166.738L216.991 171.136C219.42 173.954 223.674 174.269 226.492 171.84L222.093 166.738ZM222.093 166.738L227.196 162.339C224.766 159.521 220.513 159.206 217.695 161.635L222.093 166.738ZM286.849 102.021L217.695 161.635L226.492 171.84L295.646 112.226L286.849 102.021ZM294.678 95.2727L286.849 102.021L295.646 112.226L303.475 105.478L294.678 95.2727ZM298.592 91.8984L294.678 95.2727L303.475 105.478L307.389 102.103L298.592 91.8984ZM297.888 101.399L297.888 101.399L308.093 92.6023L308.093 92.6015L297.888 101.399ZM305.164 86.2317L298.592 91.8976L307.389 102.102L313.961 96.4366L305.164 86.2317ZM305.174 86.1049C305.184 86.1163 305.188 86.123 305.189 86.1253C305.19 86.1279 305.191 86.13 305.192 86.1326C305.194 86.1387 305.197 86.1519 305.195 86.1703C305.194 86.1886 305.189 86.2012 305.186 86.207C305.185 86.2094 305.184 86.2114 305.182 86.2138C305.181 86.2158 305.176 86.2219 305.164 86.2317L313.961 96.4366C319.635 91.5457 320.27 82.9815 315.379 77.3079L305.174 86.1049ZM296.092 75.5692L305.174 86.1049L315.379 77.3079L306.296 66.7722L296.092 75.5692ZM295.965 75.5598C295.976 75.55 295.983 75.546 295.985 75.5448C295.988 75.5433 295.99 75.5424 295.993 75.5416C295.999 75.5396 296.012 75.5369 296.03 75.5383C296.049 75.5396 296.061 75.5442 296.067 75.5471C296.069 75.5483 296.071 75.5495 296.074 75.5513C296.076 75.5529 296.082 75.5578 296.092 75.5692L306.296 66.7722C301.406 61.0986 292.841 60.464 287.168 65.3549L295.965 75.5598ZM284.173 85.7248L295.965 75.5598L287.168 65.3549L275.376 75.52L284.173 85.7248ZM284.877 76.2246L284.877 76.2239L274.672 85.0209L274.673 85.0216L284.877 76.2246ZM213.714 146.464L284.174 85.7256L275.377 75.5207L204.917 136.259L213.714 146.464ZM204.213 145.76L204.213 145.76L214.418 136.963L214.418 136.963L204.213 145.76ZM208.495 150.963L213.714 146.464L204.917 136.259L199.698 140.758L208.495 150.963ZM209.199 141.463L209.199 141.462L198.994 150.259L198.994 150.26L209.199 141.463ZM196.909 174.325L210.075 148.965L198.118 142.757L184.952 168.117L196.909 174.325ZM192.88 169.651C195.717 168.676 198.292 171.663 196.909 174.325L184.952 168.118C180.73 176.249 188.593 185.37 197.258 182.393L192.88 169.651ZM219.904 160.367L192.88 169.651L197.258 182.393L224.282 173.109L219.904 160.367ZM227.196 162.339L227.195 162.339L216.991 171.136L216.991 171.136L227.196 162.339ZM217.695 161.635L217.695 161.635L226.492 171.84L226.492 171.84L217.695 161.635ZM227.196 162.339L227.196 162.339L216.991 171.136L216.991 171.136L227.196 162.339Z" fill="white" mask="url(#phone-work-in-progress-path-9-outside-2)"/>
</g>
<path d="M302.991 97.0012L222.093 166.738L204.097 145.861L284.994 76.1244L302.991 97.0012Z" fill="#FADD7F"/>
<path d="M310.276 81.7064C312.738 84.562 312.418 88.8725 309.563 91.3342L297.771 101.499L279.774 80.6224L291.566 70.4574C294.422 67.9957 298.732 68.3151 301.194 71.1707L310.276 81.7064Z" fill="#F99493"/>
<path d="M299.077 100.376L291.248 107.124L273.251 86.2475L281.08 79.4988L299.077 100.376Z" fill="#EBECF0"/>
<path d="M301.686 98.126L299.076 100.376L281.08 79.4988L283.689 77.2492L301.686 98.126Z" fill="#EB4B68"/>
<path d="M296.467 102.625L293.857 104.875L275.861 83.998L278.47 81.7484L296.467 102.625Z" fill="#DFE1E6"/>
<path d="M291.248 107.124L288.638 109.374L270.642 88.4969L273.251 86.2474L291.248 107.124Z" fill="#F6C770"/>
<path d="M279.82 96.5059L282.07 99.1155L214.22 157.604L211.97 154.995L279.82 96.5059Z" fill="#F6C770"/>
<path d="M222.093 166.738L204.097 145.861L190.931 171.222C189.511 173.957 192.155 177.024 195.069 176.023L222.093 166.738Z" fill="#FFCEBF"/>
<mask id="phone-work-in-progress-mask0" mask-type="alpha" maskUnits="userSpaceOnUse" x="190" y="145" width="33" height="32">
<path d="M222.093 166.738L204.097 145.861L190.931 171.222C189.511 173.957 192.155 177.024 195.069 176.023L222.093 166.738Z" fill="#FFCEBF"/>
</mask>
<g mask="url(#phone-work-in-progress-mask0)">
<rect x="209.045" y="177.986" width="17.2269" height="37.8991" transform="rotate(139.237 209.045 177.986)" fill="#344563"/>
</g>
<mask id="phone-work-in-progress-mask1" mask-type="alpha" maskUnits="userSpaceOnUse" x="204" y="141" width="24" height="26">
<rect x="227.313" y="162.239" width="6.89075" height="27.563" transform="rotate(139.237 227.313 162.239)" fill="#C4C4C4"/>
</mask>
<g mask="url(#phone-work-in-progress-mask1)">
<path fill-rule="evenodd" clip-rule="evenodd" d="M213.42 156.019C211.439 157.727 211.846 161.449 214.331 164.331C216.816 167.214 220.437 168.166 222.419 166.457C224.4 164.749 223.992 161.028 221.508 158.145C219.023 155.263 215.402 154.311 213.42 156.019ZM204.423 145.579C202.441 147.288 202.849 151.009 205.334 153.892C207.819 156.774 211.44 157.726 213.421 156.018C215.403 154.31 214.995 150.588 212.51 147.706C210.026 144.823 206.405 143.871 204.423 145.579Z" fill="#FFCEBF"/>
</g>
<defs>
<filter id="phone-work-in-progress-filter0_d" x="51.6294" y="0.306693" width="143.232" height="147.832" filterUnits="userSpaceOnUse" color-interpolation-filters="sRGB">
<feFlood flood-opacity="0" result="BackgroundImageFix"/>
<feColorMatrix in="SourceAlpha" type="matrix" values="0 0 0 0 0 0 0 0 0 0 0 0 0 0 0 0 0 0 127 0"/>
<feOffset dy="4.67732"/>
<feGaussianBlur stdDeviation="4.67732"/>
<feColorMatrix type="matrix" values="0 0 0 0 0 0 0 0 0 0 0 0 0 0 0 0 0 0 0.24 0"/>
<feBlend mode="normal" in2="BackgroundImageFix" result="effect1_dropShadow"/>
<feBlend mode="normal" in="SourceGraphic" in2="effect1_dropShadow" result="shape"/>
</filter>
<filter id="phone-work-in-progress-filter1_d" x="174.788" y="57.5704" width="152.869" height="138.882" filterUnits="userSpaceOnUse" color-interpolation-filters="sRGB">
<feFlood flood-opacity="0" result="BackgroundImageFix"/>
<feColorMatrix in="SourceAlpha" type="matrix" values="0 0 0 0 0 0 0 0 0 0 0 0 0 0 0 0 0 0 127 0"/>
<feOffset dy="4.49413"/>
<feGaussianBlur stdDeviation="4.49413"/>
<feColorMatrix type="matrix" values="0 0 0 0 0 0 0 0 0 0 0 0 0 0 0 0 0 0 0.24 0"/>
<feBlend mode="normal" in2="BackgroundImageFix" result="effect1_dropShadow"/>
<feBlend mode="normal" in="SourceGraphic" in2="effect1_dropShadow" result="shape"/>
</filter>
<linearGradient id="phone-work-in-progress-paint0_linear" x1="107.4" y1="66.0666" x2="78.1441" y2="174.621" gradientUnits="userSpaceOnUse">
<stop stop-color="#00A0DF"/>
<stop offset="1" stop-color="#007CBF"/>
</linearGradient>
</defs>
</svg>
