<svg class="icon" viewBox="0 0 80 80" fill="none" xmlns="http://www.w3.org/2000/svg">
<path d="M6.7489 20.5176C5.79595 16.9612 7.9065 13.3056 11.4629 12.3527L40.4407 4.58809C43.9972 3.63515 47.6527 5.7457 48.6057 9.30214L62.4094 60.8182C63.3623 64.3746 61.2518 68.0302 57.6953 68.9831L28.7175 76.7477C25.1611 77.7007 21.5055 75.5901 20.5526 72.0337L6.7489 20.5176Z" fill="#005DA0"/>
<path d="M6.17273 18.3711C5.21978 14.8147 7.33033 11.1591 10.8868 10.2062L39.8645 2.44161C43.421 1.48866 47.0766 3.59921 48.0295 7.15565L61.8332 58.6717C62.7861 62.2281 60.6756 65.8837 57.1192 66.8367L28.1414 74.6012C24.5849 75.5542 20.9294 73.4436 19.9764 69.8872L6.17273 18.3711Z" fill="url(#phone-money-tilted-paint0_linear_38746_283164)"/>
<path d="M9.82339 19.1187C9.10868 16.4514 10.6916 13.7097 13.3589 12.995L39.1169 6.09313C41.7843 5.37842 44.526 6.96133 45.2407 9.62866L54.7307 45.0459C55.4454 47.7133 53.8625 50.455 51.1952 51.1697L25.4371 58.0715C22.7698 58.7862 20.0281 57.2033 19.3134 54.536L9.82339 19.1187Z" fill="white"/>
<path opacity="0.4" d="M9.82339 19.1187C9.10868 16.4514 10.6916 13.7097 13.3589 12.995L39.1169 6.09313C41.7843 5.37842 44.526 6.96133 45.2407 9.62866L54.7307 45.0459C55.4454 47.7133 53.8625 50.455 51.1952 51.1697L25.4371 58.0715C22.7698 58.7862 20.0281 57.2033 19.3134 54.536L9.82339 19.1187Z" fill="#99D9F2"/>
<path opacity="0.5" d="M25.4386 58.0709L51.1966 51.1691C53.864 50.4544 55.4469 47.7127 54.7322 45.0454L45.2421 9.62807C44.908 8.38103 44.1308 7.37102 43.1253 6.72202L21.4317 57.4414C22.5769 58.1806 24.0183 58.4515 25.4386 58.0709Z" fill="url(#phone-money-tilted-paint1_linear_38746_283164)"/>
<path d="M43.6929 61.8068C44.1693 63.585 43.1141 65.4128 41.3358 65.8893C39.5576 66.3657 37.7298 65.3105 37.2534 63.5323C36.7769 61.754 37.8322 59.9262 39.6104 59.4498C41.3886 58.9733 43.2164 60.0286 43.6929 61.8068Z" fill="#99D9F2"/>
<path d="M61.38 40.536C53.5211 38.4302 45.4087 43.1139 43.3029 50.973C41.197 58.832 45.8807 66.9444 53.7397 69.0503C61.5986 71.1561 69.711 66.4723 71.8168 58.6133C73.973 50.7677 69.2894 42.6553 61.38 40.536V40.536Z" fill="url(#phone-money-tilted-paint2_linear_38746_283164)"/>
<path d="M61.8039 38.95C53.9449 36.8442 45.8325 41.528 43.7267 49.387C41.6209 57.2461 46.3045 65.3585 54.1635 67.4643C62.0225 69.5701 70.1348 64.8864 72.2407 57.0273C74.3969 49.1818 69.7132 41.0693 61.8039 38.95V38.95Z" fill="url(#phone-money-tilted-paint3_linear_38746_283164)"/>
<path fill-rule="evenodd" clip-rule="evenodd" d="M70.7835 45.8177L45.2087 60.5833C47.0987 63.857 50.2344 66.4115 54.1639 67.4644C62.0229 69.5702 70.1352 64.8865 72.2411 57.0274C73.3218 53.0952 72.6842 49.0958 70.7835 45.8177Z" fill="url(#phone-money-tilted-paint4_linear_38746_283164)"/>
<path opacity="0.5" fill-rule="evenodd" clip-rule="evenodd" d="M45.6028 49.8896C47.4412 43.0287 54.5218 38.9407 61.3827 40.779C68.2828 42.6279 72.375 49.7072 70.4927 56.5605C68.6537 63.4205 61.5736 67.5078 54.7133 65.6696C47.8524 63.8313 43.7644 56.7505 45.6028 49.8896ZM61.0802 41.9077C54.8428 40.2364 48.4028 43.9545 46.7315 50.1921C45.0601 56.4296 48.7782 62.8696 55.0157 64.5409C61.2531 66.2122 67.6931 62.4941 69.3644 56.2565L69.3654 56.2529C71.0754 50.0309 67.3617 43.5908 61.0802 41.9077Z" fill="#E99B26"/>
<path d="M60.4253 46.4692C61.8903 47.0748 62.9724 48.0465 63.3621 49.1735C63.4227 49.4028 63.4453 49.6219 63.3814 49.8604C63.2216 50.4567 62.6383 50.8118 62.069 50.6592C61.8033 50.588 61.5802 50.3578 61.389 50.0083C60.9415 49.2493 60.0825 48.5078 59.0197 48.223C57.4255 47.7958 56.6431 48.4384 56.43 49.2335C55.727 51.8573 63.0033 52.4861 61.6718 57.4555C61.0859 59.642 59.3739 60.7172 56.7562 60.3141L56.458 61.4272C56.3195 61.944 55.7848 62.2695 55.2914 62.1373C54.7979 62.005 54.5355 61.466 54.674 60.9492L54.9723 59.8361C53.1763 59.0992 52.0109 57.6791 51.6639 56.393C51.6306 56.2137 51.608 55.9946 51.6612 55.7958C51.821 55.1995 52.4043 54.8445 52.9737 54.997C53.3912 55.1089 53.555 55.4084 53.6915 55.6581C54.2649 56.7065 55.1087 57.6569 56.3992 58.0027C58.1452 58.4706 59.14 58.098 59.4703 56.8656C60.2479 53.9635 52.9503 53.4142 54.2286 48.6436C54.7079 46.8546 56.1755 45.6287 58.6793 46.0013L58.9882 44.8484C59.1267 44.3316 59.6614 44.0062 60.1169 44.1282C60.6103 44.2604 60.9107 44.8096 60.7722 45.3264L60.4633 46.4793L60.4253 46.4692Z" fill="#A76013"/>
<defs>
<linearGradient id="phone-money-tilted-paint0_linear_38746_283164" x1="25.3757" y1="6.32389" x2="75.3211" y2="115.449" gradientUnits="userSpaceOnUse">
<stop stop-color="#00A0DF"/>
<stop offset="1" stop-color="#007CBF"/>
</linearGradient>
<linearGradient id="phone-money-tilted-paint1_linear_38746_283164" x1="26.6708" y1="11.1533" x2="36.1763" y2="59.5074" gradientUnits="userSpaceOnUse">
<stop stop-color="#33B3E5"/>
<stop offset="1" stop-color="#99D9F2" stop-opacity="0"/>
</linearGradient>
<linearGradient id="phone-money-tilted-paint2_linear_38746_283164" x1="51.8297" y1="76.1789" x2="57.9845" y2="53.209" gradientUnits="userSpaceOnUse">
<stop stop-color="#A76013"/>
<stop offset="0.551319" stop-color="#E99B26"/>
</linearGradient>
<linearGradient id="phone-money-tilted-paint3_linear_38746_283164" x1="46.1083" y1="97.7775" x2="61.8666" y2="38.9668" gradientUnits="userSpaceOnUse">
<stop stop-color="#E99B26"/>
<stop offset="1" stop-color="#FAC34B"/>
</linearGradient>
<linearGradient id="phone-money-tilted-paint4_linear_38746_283164" x1="54.5205" y1="67.56" x2="70.8993" y2="46.3534" gradientUnits="userSpaceOnUse">
<stop stop-color="#E99B26" stop-opacity="0.26"/>
<stop offset="1" stop-color="#FAC34B"/>
</linearGradient>
</defs>
</svg>
