<svg class="icon" viewBox="0 0 72 72" fill="none" xmlns="http://www.w3.org/2000/svg">
<g clip-path="url(#phone-sms-tilted-clip0_37114_282590)">
<ellipse cx="37.7138" cy="67.8248" rx="23.7138" ry="3.82481" fill="#EBECF0"/>
<path d="M11.2111 16.8307C10.3535 13.6299 12.253 10.3398 15.4538 9.48218L41.5338 2.49407C44.7346 1.63641 48.0246 3.53591 48.8822 6.73671L61.3055 53.1011C62.1632 56.3019 60.2637 59.592 57.0629 60.4496L30.9829 67.4377C27.7821 68.2954 24.4921 66.3959 23.6344 63.1951L11.2111 16.8307Z" fill="#005DA0"/>
<path d="M10.6935 14.8988C9.83589 11.698 11.7354 8.40801 14.9362 7.55036L41.0162 0.562242C44.217 -0.295409 47.507 1.60409 48.3646 4.80488L60.788 51.1693C61.6456 54.3701 59.7461 57.6601 56.5453 58.5178L30.4653 65.5059C27.2645 66.3636 23.9745 64.4641 23.1169 61.2633L10.6935 14.8988Z" fill="url(#phone-sms-tilted-paint0_linear_37114_282590)"/>
<path d="M13.9791 15.5713C13.3359 13.1707 14.7605 10.7032 17.1611 10.0599L40.3433 3.84827C42.7439 3.20503 45.2115 4.62965 45.8547 7.03025L54.3957 38.9058C55.039 41.3064 53.6143 43.7739 51.2137 44.4172L28.0315 50.6288C25.6309 51.272 23.1634 49.8474 22.5202 47.4468L13.9791 15.5713Z" fill="white"/>
<path opacity="0.4" d="M13.9791 15.5713C13.3359 13.1707 14.7605 10.7032 17.1611 10.0599L40.3433 3.84827C42.7439 3.20503 45.2115 4.62965 45.8547 7.03025L54.3957 38.9058C55.039 41.3064 53.6143 43.7739 51.2137 44.4172L28.0315 50.6288C25.6309 51.272 23.1634 49.8474 22.5202 47.4468L13.9791 15.5713Z" fill="#99D9F2"/>
<path opacity="0.5" d="M28.0315 50.6288L51.2137 44.4171C53.6143 43.7739 55.0389 41.3064 54.3957 38.9058L45.8546 7.03023C45.5539 5.9079 44.8544 4.99889 43.9495 4.41479L24.4253 50.0623C25.456 50.7275 26.7532 50.9713 28.0315 50.6288Z" fill="url(#phone-sms-tilted-paint1_linear_37114_282590)"/>
<path d="M44.4617 53.9909C44.8905 55.5913 43.9407 57.2363 42.3403 57.6652C40.7399 58.094 39.0949 57.1442 38.6661 55.5438C38.2373 53.9434 39.187 52.2984 40.7874 51.8696C42.3878 51.4408 44.0328 52.3905 44.4617 53.9909Z" fill="#99D9F2"/>
<path fill-rule="evenodd" clip-rule="evenodd" d="M45.6957 10.0902C43.5619 9.51844 41.3685 10.7848 40.7968 12.9186L37.1733 26.4416C36.6015 28.5755 37.8679 30.7688 40.0017 31.3406L50.6269 34.1876L56.0049 40.595C57.0451 41.8343 59.0498 41.3897 59.4686 39.8268L60.2862 36.7758L61.2521 37.0346C63.3859 37.6064 65.5793 36.34 66.1511 34.2062L69.7745 20.6832C70.3463 18.5493 69.08 16.356 66.9461 15.7842L45.6957 10.0902Z" fill="#38AD5A"/>
<path fill-rule="evenodd" clip-rule="evenodd" d="M46.0844 8.64129C43.9505 8.06953 41.7572 9.33586 41.1854 11.4697L37.562 24.9927C36.9902 27.1265 38.2565 29.3199 40.3904 29.8917L51.0156 32.7387L56.3935 39.1461C57.4338 40.3854 59.4385 39.9408 59.8573 38.3779L60.6748 35.3269L61.6408 35.5857C63.7746 36.1574 65.968 34.8911 66.5397 32.7573L70.1632 19.2343C70.735 17.1004 69.4686 14.9071 67.3348 14.3353L46.0844 8.64129Z" fill="url(#phone-sms-tilted-paint2_linear_37114_282590)"/>
<circle cx="46.135" cy="20.0429" r="3" transform="rotate(15 46.135 20.0429)" fill="white"/>
<circle cx="53.8625" cy="22.1135" r="3" transform="rotate(15 53.8625 22.1135)" fill="white"/>
<circle cx="61.5901" cy="24.1841" r="3" transform="rotate(15 61.5901 24.1841)" fill="white"/>
</g>
<defs>
<linearGradient id="phone-sms-tilted-paint0_linear_37114_282590" x1="27.9762" y1="4.0563" x2="72.9271" y2="102.269" gradientUnits="userSpaceOnUse">
<stop stop-color="#00A0DF"/>
<stop offset="1" stop-color="#007CBF"/>
</linearGradient>
<linearGradient id="phone-sms-tilted-paint1_linear_37114_282590" x1="29.1404" y1="8.40296" x2="37.6954" y2="51.9216" gradientUnits="userSpaceOnUse">
<stop stop-color="#33B3E5"/>
<stop offset="1" stop-color="#99D9F2" stop-opacity="0"/>
</linearGradient>
<linearGradient id="phone-sms-tilted-paint2_linear_37114_282590" x1="56.2266" y1="11.3589" x2="41.4135" y2="36.1827" gradientUnits="userSpaceOnUse">
<stop stop-color="#66DE7D"/>
<stop offset="1" stop-color="#4ABE6B"/>
</linearGradient>
<clipPath id="phone-sms-tilted-clip0_37114_282590">
<rect width="72" height="72" fill="white"/>
</clipPath>
</defs>
</svg>
