<svg class="icon"
     viewBox="0 0 40 40"
     fill="none"
     xmlns="http://www.w3.org/2000/svg"
>
    <path d="M33.3503 15.1972C34.6174 16.2834 34.4817 16.7812 33.8028 17.2337C33.124 17.6863 32.6714 17.6863 32.6714 17.6863L34.0291 19.7227C34.3308 19.6473 33.9386 20.3563 34.4817 20.1753C35.1605 19.949 36.7444 17.9126 36.7444 17.2337C36.7444 16.5549 36.9707 14.971 35.1605 13.387C33.3503 11.8031 31.7664 13.8396 33.3503 15.1972Z" fill="url(#pigmoney-paint0_linear)"/>
    <path d="M11.6039 39.0104L9.59133 34.9852H15.927V39.5107H12.4135C12.0706 39.5107 11.7572 39.317 11.6039 39.0104Z" fill="url(#pigmoney-paint1_linear)"/>
    <path d="M9.60846 12.4514L8.00741 17.7883L14.3431 15.2992L11.1154 12.0715C10.6311 11.5872 9.80525 11.7954 9.60846 12.4514Z" fill="url(#pigmoney-paint2_linear)"/>
    <path d="M26.3357 38.7076V35.5397L33.8028 31.2405L30.1824 39.6127H27.2408C26.7409 39.6127 26.3357 39.2074 26.3357 38.7076Z" fill="url(#pigmoney-paint3_linear)"/>
    <path fill-rule="evenodd" clip-rule="evenodd" d="M28.1459 36.9994C25.9452 37.7397 23.4918 38.153 20.9051 38.153C19.8229 38.153 18.764 38.0807 17.7372 37.9423V38.6056C17.7372 39.1055 17.332 39.5107 16.8321 39.5107H13.6643L12.1115 36.4052C7.07915 34.234 3.70818 30.2558 3.70818 25.7079C3.70818 18.8346 11.4075 13.2628 20.9051 13.2628C30.4027 13.2628 38.102 18.8346 38.102 25.7079C38.102 28.4238 36.8999 30.9365 34.8597 32.9826L32.2286 39.0668C32.0854 39.3982 31.7589 39.6127 31.3979 39.6127H28.1459V36.9994Z" fill="url(#pigmoney-paint4_linear)"/>
    <path d="M11.688 12.3243L10.2702 17.1094L17.7372 15.7518L13.1379 11.8884C12.6387 11.469 11.8732 11.6991 11.688 12.3243Z" fill="url(#pigmoney-paint5_linear)"/>
    <circle cx="11.4015" cy="20.9561" r="1.35765" fill="#F08EC0"/>
    <path d="M3.25563 22.7663H6.42348C7.17329 22.7663 7.78113 23.3742 7.78113 24.124V28.1969C7.78113 28.9467 7.17329 29.5546 6.42348 29.5546H3.25563V22.7663Z" fill="url(#pigmoney-paint6_linear)"/>
    <rect x="1.89797" y="22.7663" width="3.16785" height="6.78826" rx="1.58393" fill="url(#pigmoney-paint7_linear)"/>
    <rect x="2.80307" y="25.0291" width="0.452551" height="2.26275" rx="0.226275" fill="#F08EC0"/>
    <rect x="3.70818" y="25.0291" width="0.452551" height="2.26275" rx="0.226275" fill="#F08EC0"/>
    <path d="M17.7372 16.751V16.6124C17.7372 16.3851 17.9068 16.1926 18.1325 16.1661C22.8926 15.6072 25.9045 16.3925 28.0875 17.2346C28.2602 17.3012 28.3722 17.4678 28.3722 17.6529V17.6979C28.3722 18.0454 27.9936 18.2693 27.6746 18.1316C24.7555 16.8713 20.1968 16.9525 18.3185 17.2317C18.0224 17.2757 17.7372 17.0503 17.7372 16.751Z" fill="#F08EC0"/>
    <path d="M22.4999 1C18.9169 1 16 3.91696 16 7.5C16 11.083 18.9169 14 22.4999 14C26.0829 14 28.9999 11.083 28.9999 7.5C29.0228 3.91696 26.1059 1 22.4999 1Z" fill="url(#pigmoney-paint8_linear)"/>
    <mask id="pigmoney-mask0" mask-type="alpha" maskUnits="userSpaceOnUse" x="16" y="1" width="13" height="13">
        <path d="M22.4999 1C18.9169 1 16 3.91696 16 7.5C16 11.083 18.9169 14 22.4999 14C26.0829 14 28.9999 11.083 28.9999 7.5C29.0228 3.91696 26.1059 1 22.4999 1Z" fill="url(#pigmoney-paint9_linear)"/>
    </mask>
    <g mask="url(#pigmoney-mask0)">
        <path d="M29 14V1L16 14H29Z" fill="url(#pigmoney-paint10_linear)"/>
    </g>
    <path opacity="0.5" d="M22.5284 2.08334C19.5426 2.08334 17.1118 4.51414 17.1118 7.50001C17.1118 10.4859 19.5426 12.9167 22.5284 12.9167C25.5143 12.9167 27.9451 10.4859 27.9451 7.50001C27.9642 4.51414 25.5334 2.08334 22.5284 2.08334V2.08334Z" stroke="#E99B26" stroke-width="0.514583"/>
    <path d="M22.7702 4.35536C23.4624 4.44598 24.0335 4.73598 24.3277 5.17097C24.3796 5.2616 24.4142 5.35222 24.4142 5.46097C24.4142 5.73284 24.2065 5.95034 23.947 5.95034C23.8258 5.95034 23.7047 5.87784 23.5836 5.75097C23.3067 5.4791 22.8568 5.2616 22.3722 5.2616C21.6454 5.2616 21.3858 5.62409 21.3858 5.98659C21.3858 7.18283 24.5526 6.62096 24.5526 8.88655C24.5526 9.88342 23.947 10.5359 22.7875 10.6628V11.1703C22.7875 11.4059 22.5972 11.6053 22.3722 11.6053C22.1473 11.6053 21.9742 11.4059 21.9742 11.1703V10.6628C21.1263 10.554 20.4687 10.0828 20.1745 9.5753C20.1399 9.5028 20.1053 9.41217 20.1053 9.32155C20.1053 9.04968 20.3129 8.83218 20.5725 8.83218C20.7629 8.83218 20.8667 8.94093 20.9532 9.03155C21.3166 9.41217 21.7838 9.72029 22.3722 9.72029C23.1682 9.72029 23.549 9.44842 23.549 8.88655C23.549 7.56345 20.3821 8.16156 20.3821 5.98659C20.3821 5.17097 20.8667 4.48223 21.9742 4.35536V3.82974C21.9742 3.59412 22.1646 3.39474 22.3722 3.39474C22.5972 3.39474 22.7875 3.59412 22.7875 3.82974V4.35536H22.7702Z" fill="#A76013"/>
    <defs>
        <linearGradient id="pigmoney-paint0_linear" x1="34.0291" y1="11.4526" x2="34.7124" y2="20.205" gradientUnits="userSpaceOnUse">
            <stop stop-color="#FDE2E8"/>
            <stop offset="1" stop-color="#F7A7C7"/>
        </linearGradient>
        <linearGradient id="pigmoney-paint1_linear" x1="11.6278" y1="29.5546" x2="12.7592" y2="40.8684" gradientUnits="userSpaceOnUse">
            <stop stop-color="#E66AB5"/>
            <stop offset="1" stop-color="#F8A8C8"/>
        </linearGradient>
        <linearGradient id="pigmoney-paint2_linear" x1="10.0439" y1="-17.737" x2="13.2378" y2="15.4883" gradientUnits="userSpaceOnUse">
            <stop stop-color="#E66AB5"/>
            <stop offset="1" stop-color="#FCC6D6"/>
        </linearGradient>
        <linearGradient id="pigmoney-paint3_linear" x1="29.9561" y1="31.1385" x2="31.0741" y2="42.0211" gradientUnits="userSpaceOnUse">
            <stop stop-color="#E66AB5"/>
            <stop offset="1" stop-color="#F8A8C8"/>
        </linearGradient>
        <linearGradient id="pigmoney-paint4_linear" x1="20.9051" y1="13.2628" x2="20.9051" y2="39.6127" gradientUnits="userSpaceOnUse">
            <stop stop-color="#FDE2E8"/>
            <stop offset="1" stop-color="#F7A7C7"/>
        </linearGradient>
        <linearGradient id="pigmoney-paint5_linear" x1="14.1168" y1="8.96352" x2="14.1168" y2="16.4306" gradientUnits="userSpaceOnUse">
            <stop stop-color="#F7A7C7"/>
            <stop offset="1" stop-color="#FDDBE4"/>
        </linearGradient>
        <linearGradient id="pigmoney-paint6_linear" x1="5.51838" y1="22.7663" x2="5.51838" y2="29.5546" gradientUnits="userSpaceOnUse">
            <stop stop-color="#FDE2E8"/>
            <stop offset="1" stop-color="#F7A7C7"/>
        </linearGradient>
        <linearGradient id="pigmoney-paint7_linear" x1="3.4819" y1="22.7663" x2="3.4819" y2="29.5546" gradientUnits="userSpaceOnUse">
            <stop stop-color="#FCC6D6"/>
            <stop offset="1" stop-color="#F7A7C7"/>
        </linearGradient>
        <linearGradient id="pigmoney-paint8_linear" x1="22.5285" y1="27.8125" x2="22.5285" y2="1" gradientUnits="userSpaceOnUse">
            <stop stop-color="#E99B26"/>
            <stop offset="1" stop-color="#FAC34B"/>
        </linearGradient>
        <linearGradient id="pigmoney-paint9_linear" x1="22.5285" y1="27.8125" x2="22.5285" y2="1" gradientUnits="userSpaceOnUse">
            <stop stop-color="#413017"/>
            <stop offset="1" stop-color="#FAC34B"/>
        </linearGradient>
        <linearGradient id="pigmoney-paint10_linear" x1="22.6625" y1="14" x2="27.2125" y2="3.1125" gradientUnits="userSpaceOnUse">
            <stop stop-color="#E99B26" stop-opacity="0.26"/>
            <stop offset="1" stop-color="#FAC34B"/>
        </linearGradient>
    </defs>
</svg>
