<svg class="icon" viewBox="0 0 72 72" fill="none" xmlns="http://www.w3.org/2000/svg">
<g clip-path="url(#plug-clip0_38176_287689)">
<ellipse cx="34.083" cy="68.1744" rx="23.7138" ry="3.82481" fill="#EBECF0"/>
<path d="M68.5594 24.579C69.2476 24.9764 69.7497 25.6308 69.9554 26.3984C70.1611 27.166 70.0534 27.9838 69.6561 28.672C69.2588 29.3602 68.6043 29.8624 67.8367 30.0681L65.6661 30.6497C62.4061 31.5273 59.6272 33.6622 57.9392 36.586C56.2511 39.5098 55.7917 42.9837 56.6617 46.2458L57.2433 48.4164C58.2717 52.2544 57.7333 56.3436 55.7467 59.7846C53.76 63.2256 50.4878 65.7364 46.6499 66.7648C42.8119 67.7932 38.7227 67.2548 35.2817 65.2682C31.8407 63.2815 29.3299 60.0093 28.3015 56.1714L27.7063 53.9501C27.2779 52.3511 28.2273 50.7077 29.8264 50.28C31.4245 49.8527 33.0665 50.8013 33.4947 52.3991L34.0899 54.6204C34.7069 56.9231 36.2134 58.8865 38.278 60.0785C40.3426 61.2704 42.7961 61.5935 45.0989 60.9764C47.4016 60.3594 49.365 58.8529 50.5569 56.7883C51.7489 54.7237 52.072 52.2702 51.4549 49.9674L50.8733 47.7968C49.5937 42.9996 50.2692 37.8907 52.7516 33.5909C55.2341 29.2912 59.3208 26.1517 64.1151 24.8613L66.2857 24.2797C67.0533 24.074 67.8712 24.1817 68.5594 24.579Z" fill="url(#plug-paint0_linear_38176_287689)"/>
<path fill-rule="evenodd" clip-rule="evenodd" d="M4.89684 20.921C2.97875 21.4349 1.84047 23.4065 2.35442 25.3246L5.1462 35.7436C7.1391 43.1812 14.0023 48.0133 21.3852 47.7279L22.4193 51.5875C23.4472 55.4236 27.3904 57.7002 31.2265 56.6723C35.0627 55.6444 37.3393 51.7013 36.3114 47.8651L35.2773 44.0057C41.8143 40.5616 45.3423 32.945 43.3494 25.5071L40.5576 15.0881C40.0436 13.17 38.0721 12.0317 36.154 12.5456L4.89684 20.921Z" fill="#BDC1CA"/>
<path d="M20.3926 44.0205L34.2846 40.2981L35.6805 45.5077C36.7084 49.3439 34.4319 53.287 30.5957 54.3149C26.7595 55.3428 22.8164 53.0662 21.7885 49.23L20.3926 44.0205Z" fill="url(#plug-paint1_linear_38176_287689)"/>
<path d="M1.72356 22.9672C1.20961 21.0491 2.34789 19.0775 4.26598 18.5635L35.5231 10.1882C37.4412 9.67427 39.4128 10.8126 39.9267 12.7306L42.7185 23.1497C45.0313 31.7811 39.909 40.6531 31.2776 42.9659L24.3316 44.8271C15.7001 47.1399 6.82812 42.0176 4.51534 33.3862L1.72356 22.9672Z" fill="url(#plug-paint2_linear_38176_287689)"/>
<path d="M5.8759 10.6869C5.36195 8.76879 6.50023 6.79723 8.41833 6.28328C10.3364 5.76932 12.308 6.90761 12.8219 8.8257L14.6831 15.7717L7.73709 17.6329L5.8759 10.6869Z" fill="url(#plug-paint3_linear_38176_287689)"/>
<path d="M23.2411 6.03454C22.7272 4.11644 23.8655 2.14488 25.7836 1.63093C27.7017 1.11698 29.6732 2.25526 30.1872 4.17336L32.0484 11.1194L25.1023 12.9806L23.2411 6.03454Z" fill="url(#plug-paint4_linear_38176_287689)"/>
<path opacity="0.5" d="M14.0024 27.1213C13.7454 26.1622 14.3146 25.1764 15.2736 24.9195L29.1657 21.1971C30.1247 20.9401 31.1105 21.5093 31.3675 22.4683C31.6245 23.4274 31.0553 24.4131 30.0963 24.6701L16.2042 28.3925C15.2452 28.6495 14.2594 28.0803 14.0024 27.1213Z" fill="#7A869A"/>
<path opacity="0.5" d="M19.3364 33.1369C19.0794 32.1779 19.6486 31.1921 20.6076 30.9351L27.5536 29.0739C28.5127 28.8169 29.4985 29.3861 29.7554 30.3451C30.0124 31.3042 29.4433 32.29 28.4842 32.5469L21.5382 34.4081C20.5791 34.6651 19.5934 34.0959 19.3364 33.1369Z" fill="#7A869A"/>
</g>
<defs>
<linearGradient id="plug-paint0_linear_38176_287689" x1="73.4596" y1="-13.005" x2="68.6395" y2="80.8842" gradientUnits="userSpaceOnUse">
<stop stop-color="#42526E"/>
<stop offset="1" stop-color="#AAB5C7"/>
</linearGradient>
<linearGradient id="plug-paint1_linear_38176_287689" x1="18.696" y1="73.1373" x2="40.0955" y2="18.0119" gradientUnits="userSpaceOnUse">
<stop stop-color="#DFE1E6"/>
<stop offset="1" stop-color="#DFE1E6"/>
</linearGradient>
<linearGradient id="plug-paint2_linear_38176_287689" x1="17.8229" y1="6.64429" x2="29.3866" y2="49.8006" gradientUnits="userSpaceOnUse">
<stop stop-color="#F4F5F7"/>
<stop offset="1" stop-color="#DFE1E6"/>
</linearGradient>
<linearGradient id="plug-paint3_linear_38176_287689" x1="12.8386" y1="22.7801" x2="7.76023" y2="6.48842" gradientUnits="userSpaceOnUse">
<stop stop-color="#E99B26"/>
<stop offset="1" stop-color="#FBD677"/>
</linearGradient>
<linearGradient id="plug-paint4_linear_38176_287689" x1="30.2039" y1="18.1278" x2="25.1255" y2="1.83607" gradientUnits="userSpaceOnUse">
<stop stop-color="#E99B26"/>
<stop offset="1" stop-color="#FBD677"/>
</linearGradient>
<clipPath id="plug-clip0_38176_287689">
<rect width="72" height="72" fill="white"/>
</clipPath>
</defs>
</svg>
