<svg class="icon" viewBox="0 0 32 32" fill="none" xmlns="http://www.w3.org/2000/svg">
<circle cx="16" cy="16" r="16" fill="#E7FDE1"/>
<path fill-rule="evenodd" clip-rule="evenodd" d="M5.59998 16C5.59998 10.2564 10.2564 5.59998 16 5.59998C21.7436 5.59998 26.4 10.2564 26.4 16C26.4 21.7436 21.7436 26.4 16 26.4C10.2564 26.4 5.59998 21.7436 5.59998 16Z" fill="url(#plus-micro-paint0_linear)"/>
<path d="M9.93335 15.9995C9.93335 16.2007 10.0132 16.3935 10.1555 16.5358C10.2977 16.678 10.4906 16.7579 10.6917 16.7579H15.1153C15.1488 16.7579 15.181 16.7712 15.2047 16.7949C15.2284 16.8186 15.2417 16.8507 15.2417 16.8843V21.3079C15.2417 21.509 15.3216 21.7019 15.4638 21.8441C15.606 21.9863 15.7989 22.0662 16 22.0662C16.2011 22.0662 16.394 21.9863 16.5362 21.8441C16.6785 21.7019 16.7583 21.509 16.7583 21.3079V16.8843C16.7583 16.8507 16.7717 16.8186 16.7954 16.7949C16.8191 16.7712 16.8512 16.7579 16.8847 16.7579H21.3083C21.5095 16.7579 21.7024 16.678 21.8446 16.5358C21.9868 16.3935 22.0667 16.2007 22.0667 15.9995C22.0667 15.7984 21.9868 15.6055 21.8446 15.4633C21.7024 15.3211 21.5095 15.2412 21.3083 15.2412H16.8847C16.8512 15.2412 16.8191 15.2279 16.7954 15.2042C16.7717 15.1805 16.7583 15.1483 16.7583 15.1148V10.6912C16.7583 10.4901 16.6785 10.2972 16.5362 10.155C16.394 10.0128 16.2011 9.93286 16 9.93286C15.7989 9.93286 15.606 10.0128 15.4638 10.155C15.3216 10.2972 15.2417 10.4901 15.2417 10.6912V15.1148C15.2417 15.1483 15.2284 15.1805 15.2047 15.2042C15.181 15.2279 15.1488 15.2412 15.1153 15.2412H10.6917C10.4906 15.2412 10.2977 15.3211 10.1555 15.4633C10.0132 15.6055 9.93335 15.7984 9.93335 15.9995Z" fill="white"/>
<defs>
<linearGradient id="plus-micro-paint0_linear" x1="16" y1="5.59998" x2="16" y2="38.9666" gradientUnits="userSpaceOnUse">
<stop stop-color="#66DE7D"/>
<stop offset="1" stop-color="#38AD5A"/>
</linearGradient>
</defs>
</svg>
