<svg class="icon"
     viewBox="0 0 40 40"
     fill="none"
     xmlns="http://www.w3.org/2000/svg"
>
    <g clip-path="url(#products-clip0)">
        <rect y="5.78986" width="33.0435" height="23.1304" rx="3.30435" fill="url(#products-paint0_linear)"/>
        <circle cx="27.2609" cy="22.3116" r="2.47826" fill="#FAC34B"/>
        <circle cx="23.9565" cy="22.3116" r="2.47826" fill="#EB4B68"/>
        <mask id="products-mask0" mask-type="alpha" maskUnits="userSpaceOnUse" x="0" y="5" width="12" height="24">
            <rect x="11.5652" y="28.9203" width="11.5652" height="23.1304" rx="3.30435" transform="rotate(-180 11.5652 28.9203)" fill="white"/>
        </mask>
        <g mask="url(#products-mask0)">
            <path d="M2.44631 26.6072C1.81754 27.0446 1.12206 27.2681 0.413047 27.2681C-0.355035 27.2681 -1.06102 27.0496 -1.63745 26.5945C-2.08835 26.2448 -2.4558 25.7932 -2.69425 25.241C-3.0814 25.3973 -3.47538 25.4852 -3.87738 25.4852C-4.07046 25.4852 -4.26364 25.4567 -4.43448 25.4228L-4.43963 25.4218C-5.13225 25.2737 -5.84046 24.9085 -6.33306 24.3945C-6.90425 23.7984 -7.18501 23.136 -7.31835 22.4142L-7.32205 22.3942L-7.32376 22.3739C-7.37651 21.7477 -7.34568 21.1389 -7.13387 20.5602C-7.61916 20.2899 -8.09914 19.9191 -8.44305 19.429C-8.87484 18.8246 -9.08695 18.0907 -9.08695 17.3551C-9.08695 16.6752 -8.86332 15.9597 -8.53161 15.3265L-8.52389 15.3118L-8.51501 15.2978C-8.17028 14.7546 -7.68674 14.3587 -7.14306 14.1098C-7.35774 13.5204 -7.4329 12.916 -7.31835 12.2959L-7.31752 12.2914C-7.17566 11.5687 -6.82566 10.8297 -6.33306 10.3157C-5.76186 9.71963 -5.127 9.42666 -4.4353 9.28752L-4.41836 9.28411L-4.40118 9.28232C-4.23681 9.26517 -4.07231 9.25658 -3.90775 9.25658C-3.48751 9.25658 -3.07504 9.31464 -2.68229 9.46803C-2.44977 8.95586 -2.09453 8.4644 -1.63376 8.11277L-1.62709 8.10769L-1.62022 8.10291C-0.991444 7.6655 -0.295969 7.44203 0.413049 7.44203C1.17834 7.44203 1.881 7.67102 2.45985 8.11277L2.46205 8.11446C2.91363 8.4643 3.28163 8.91637 3.52035 9.46913C3.90749 9.3128 4.30148 9.22489 4.70347 9.22489C4.89655 9.22489 5.08973 9.2534 5.26057 9.28736L5.26572 9.28838C5.95835 9.43641 6.66655 9.80164 7.15915 10.3157C7.70647 10.8868 8.0787 11.4917 8.14986 12.3363C8.20182 12.9531 8.17267 13.5531 7.9693 14.1241C8.4609 14.3667 8.93277 14.7378 9.27025 15.2193L9.27512 15.2262L9.2797 15.2334C9.69889 15.8895 9.91305 16.6152 9.91305 17.3551C9.91305 18.1536 9.69359 18.8868 9.27025 19.4909L9.26864 19.4932C8.93296 19.965 8.49907 20.3493 7.96845 20.5984C8.18367 21.1885 8.25912 21.7935 8.14445 22.4142L8.14361 22.4187C8.00175 23.1415 7.65175 23.8805 7.15915 24.3945C6.58796 24.9905 5.95309 25.2835 5.2614 25.4226L5.24445 25.426L5.22728 25.4278C5.0629 25.445 4.89841 25.4536 4.73385 25.4536C4.31361 25.4536 3.90114 25.3955 3.50838 25.2421C3.27586 25.7543 2.92062 26.2457 2.45985 26.5974L2.45318 26.6024L2.44631 26.6072Z" fill="#19194B"/>
            <path d="M0.39415 25.92C-0.123302 25.92 -0.573261 25.7712 -0.92573 25.505C-1.30819 25.1997 -1.56317 24.8239 -1.69816 24.3777C-1.76565 24.135 -1.93064 23.9471 -2.14812 23.8531C-2.24561 23.814 -2.3581 23.7827 -2.47059 23.7827C-2.59058 23.7827 -2.71807 23.814 -2.83056 23.8688C-3.19802 24.0567 -3.52799 24.1506 -3.85046 24.1506C-3.96295 24.1506 -4.06794 24.1428 -4.17293 24.1193C-4.65289 24.0175 -5.13284 23.767 -5.44032 23.4382C-5.77029 23.0937 -5.97277 22.6944 -6.07776 22.1542C-6.13025 21.5514 -6.05526 21.113 -5.86028 20.7372C-5.74779 20.5258 -5.73279 20.291 -5.80028 20.0717C-5.86778 19.8525 -6.03276 19.6646 -6.22774 19.5707C-6.7377 19.328 -7.14266 19.0148 -7.39764 18.6625C-7.66011 18.3102 -7.7951 17.8405 -7.7951 17.3473C-7.7951 16.9323 -7.65261 16.4313 -7.41263 15.9694C-7.09016 15.4918 -6.64021 15.2726 -6.31024 15.163C-6.07776 15.0925 -5.89777 14.9203 -5.80778 14.6933C-5.71779 14.4662 -5.71779 14.2157 -5.83028 13.9808C-6.07776 13.4719 -6.15275 13.01 -6.07026 12.5716C-5.97277 12.0706 -5.73279 11.5695 -5.41782 11.2485C-5.08785 10.904 -4.70538 10.6927 -4.18793 10.5831C-4.06794 10.5752 -3.95545 10.5752 -3.85046 10.5752C-3.438 10.5752 -3.10803 10.6457 -2.83055 10.8179C-2.71057 10.8884 -2.58308 10.9197 -2.44059 10.9197C-2.3431 10.9197 -2.23811 10.8962 -2.14812 10.8649C-1.93064 10.771 -1.75815 10.5831 -1.67566 10.356C-1.53317 9.90977 -1.2482 9.487 -0.91823 9.22082C-0.505767 8.93898 -0.0483078 8.79023 0.424149 8.79023C0.941602 8.79023 1.39156 8.93898 1.74403 9.20516C2.12649 9.51049 2.38147 9.88628 2.51646 10.3325C2.58395 10.5752 2.74894 10.7631 2.96642 10.8571C3.06391 10.8962 3.1764 10.9275 3.28889 10.9275C3.40888 10.9275 3.53636 10.8962 3.64885 10.8414C4.01632 10.6535 4.34629 10.5596 4.66876 10.5596C4.78125 10.5596 4.88624 10.5674 4.99123 10.5909C5.47119 10.6927 5.95114 10.9432 6.25862 11.272C6.67858 11.7104 6.85856 12.0549 6.89606 12.5011C6.94855 13.1275 6.88856 13.5894 6.68608 13.9573C6.56609 14.1765 6.55859 14.4349 6.63358 14.6698C6.72357 14.8968 6.90356 15.0769 7.12104 15.163C7.5485 15.3117 7.94596 15.6092 8.20844 15.9537C8.47841 16.3843 8.6209 16.8619 8.6209 17.3473C8.6209 17.8875 8.47841 18.3572 8.22344 18.7252C7.93096 19.1244 7.571 19.3906 7.14353 19.5315C6.91106 19.602 6.73107 19.7742 6.64108 20.0013C6.55109 20.2283 6.55109 20.4788 6.66358 20.7137C6.91106 21.2226 6.98605 21.6845 6.90356 22.1229C6.80607 22.624 6.56609 23.125 6.25112 23.446C5.92115 23.7905 5.53868 24.0019 5.02123 24.1115C4.90124 24.1193 4.78875 24.1193 4.68376 24.1193C4.2713 24.1193 3.94133 24.0488 3.66385 23.8766C3.54386 23.8062 3.41637 23.7748 3.27389 23.7748C3.1764 23.7748 3.07141 23.7983 2.98141 23.8296C2.76393 23.9236 2.59145 24.1115 2.50896 24.3385C2.36647 24.7848 2.0815 25.2075 1.75153 25.4737C1.31657 25.7712 0.851608 25.92 0.39415 25.92Z" fill="white"/>
        </g>
        <rect x="14.0435" y="10.7464" width="14.0435" height="1.65217" rx="0.826087" fill="#19194B"/>
        <rect x="14.0435" y="14.0507" width="5.78261" height="1.65217" rx="0.826087" fill="#19194B"/>
        <rect x="14.0435" y="17.3551" width="5.78261" height="1.65217" rx="0.826087" fill="#19194B"/>
        <rect x="20.6522" y="14.0507" width="5.78261" height="1.65217" rx="0.826087" fill="#19194B"/>
    </g>
    <g clip-path="url(#products-clip1)">
        <path d="M28.3332 15.8333C21.9022 15.8333 16.6667 21.0689 16.6667 27.5C16.6667 33.9311 21.9022 39.1667 28.3332 39.1667C34.7642 39.1667 39.9998 33.9311 39.9998 27.5C40.041 21.0689 34.8055 15.8333 28.3332 15.8333Z" fill="url(#products-paint1_linear)"/>
        <mask id="products-mask1" mask-type="alpha" maskUnits="userSpaceOnUse" x="16" y="15" width="24" height="25">
            <path d="M28.3332 15.8333C21.9022 15.8333 16.6667 21.0689 16.6667 27.5C16.6667 33.9311 21.9022 39.1667 28.3332 39.1667C34.7642 39.1667 39.9998 33.9311 39.9998 27.5C40.041 21.0689 34.8055 15.8333 28.3332 15.8333Z" fill="url(#products-paint2_linear)"/>
        </mask>
        <g mask="url(#products-mask1)">
            <path d="M40 39.1667V15.8333L16.6667 39.1667H40Z" fill="url(#products-paint3_linear)"/>
        </g>
        <path opacity="0.5" d="M28.3844 17.7778C23.0252 17.7778 18.6623 22.1408 18.6623 27.5C18.6623 32.8593 23.0252 37.2222 28.3844 37.2222C33.7436 37.2222 38.1065 32.8593 38.1065 27.5C38.1409 22.1408 33.7779 17.7778 28.3844 17.7778V17.7778Z" stroke="#E99B26" stroke-width="0.895351"/>
        <path d="M28.8184 21.8558C30.0608 22.0184 31.0857 22.5389 31.6138 23.3197C31.7069 23.4823 31.7691 23.645 31.7691 23.8402C31.7691 24.3282 31.3963 24.7185 30.9304 24.7185C30.713 24.7185 30.4956 24.5884 30.2782 24.3607C29.7812 23.8727 28.9737 23.4823 28.104 23.4823C26.7994 23.4823 26.3335 24.133 26.3335 24.7836C26.3335 26.9307 32.0176 25.9222 32.0176 29.9887C32.0176 31.7779 30.9304 32.949 28.8494 33.1768V34.0877C28.8494 34.5106 28.5078 34.8684 28.104 34.8684C27.7002 34.8684 27.3896 34.5106 27.3896 34.0877V33.1768C25.8676 32.9816 24.6874 32.1358 24.1593 31.2249C24.0972 31.0947 24.0351 30.9321 24.0351 30.7694C24.0351 30.2815 24.4078 29.8911 24.8737 29.8911C25.2154 29.8911 25.4017 30.0863 25.557 30.2489C26.2093 30.9321 27.0479 31.4851 28.104 31.4851C29.5327 31.4851 30.2161 30.9972 30.2161 29.9887C30.2161 27.6139 24.5321 28.6874 24.5321 24.7836C24.5321 23.3197 25.4017 22.0835 27.3896 21.8558V20.9123C27.3896 20.4894 27.7313 20.1316 28.104 20.1316C28.5078 20.1316 28.8494 20.4894 28.8494 20.9123V21.8558H28.8184Z" fill="#A76013"/>
    </g>
    <defs>
        <linearGradient id="products-paint0_linear" x1="16.5217" y1="5.78986" x2="16.5217" y2="61.9638" gradientUnits="userSpaceOnUse">
            <stop stop-color="#00A0DF"/>
            <stop offset="1" stop-color="#007CBF"/>
        </linearGradient>
        <linearGradient id="products-paint1_linear" x1="28.3845" y1="63.9583" x2="28.3845" y2="15.8333" gradientUnits="userSpaceOnUse">
            <stop stop-color="#E99B26"/>
            <stop offset="1" stop-color="#FAC34B"/>
        </linearGradient>
        <linearGradient id="products-paint2_linear" x1="28.3845" y1="63.9583" x2="28.3845" y2="15.8333" gradientUnits="userSpaceOnUse">
            <stop stop-color="#413017"/>
            <stop offset="1" stop-color="#FAC34B"/>
        </linearGradient>
        <linearGradient id="products-paint3_linear" x1="28.625" y1="39.1667" x2="36.7917" y2="19.625" gradientUnits="userSpaceOnUse">
            <stop stop-color="#E99B26" stop-opacity="0.26"/>
            <stop offset="1" stop-color="#FAC34B"/>
        </linearGradient>
        <clipPath id="products-clip0">
            <rect width="33.0435" height="33.0435" fill="white" transform="translate(0 0.833328)"/>
        </clipPath>
        <clipPath id="products-clip1">
            <rect width="23.3333" height="23.3333" fill="white" transform="translate(16.6667 15.8333)"/>
        </clipPath>
    </defs>
</svg>
