<svg class="icon" viewBox="0 0 360 264" fill="none" xmlns="http://www.w3.org/2000/svg">
<rect x="119" y="41" width="72" height="72" rx="18" fill="#F4F5F7"/>
<rect x="134.1" y="67.0752" width="8.26657" height="6.19993" rx="3.09996" transform="rotate(30 134.1 67.0752)" fill="#494993"/>
<rect x="168.741" y="71.2085" width="8.26657" height="6.19993" rx="3.09996" transform="rotate(-30 168.741 71.2085)" fill="#494993"/>
<rect x="136.47" y="78.6692" width="9.27516" height="17.3909" rx="4.63758" fill="#344563"/>
<rect x="164.296" y="78.6692" width="9.27516" height="17.3909" rx="4.63758" fill="#344563"/>
<path d="M173.495 70.4375L171.017 61.232C170.472 59.2071 168.636 57.8 166.539 57.8H143.374C141.338 57.8 139.54 59.1279 138.941 61.0738L136.08 70.3716C135.698 71.6142 136.627 72.8722 137.927 72.8722H171.629C172.901 72.8722 173.826 71.6653 173.495 70.4375Z" fill="#494993"/>
<path d="M171.351 71.3613L168.031 60.9268C167.878 60.4456 167.431 60.1189 166.926 60.1189H143.08C142.592 60.1189 142.157 60.4239 141.99 60.8821L138.196 71.3166C137.921 72.0728 138.481 72.8722 139.285 72.8722H170.246C171.031 72.8722 171.589 72.1091 171.351 71.3613Z" fill="#CFF6FF"/>
<path opacity="0.5" d="M143.163 62.6507C143.32 62.1772 143.763 61.8579 144.262 61.8579H144.739C145.665 61.8579 146.217 62.8899 145.703 63.6604L142.446 68.5458C142.335 68.7135 142.146 68.8143 141.945 68.8143C141.533 68.8143 141.242 68.411 141.373 68.0206L143.163 62.6507Z" fill="white"/>
<circle cx="162.557" cy="70.5535" r="3.47819" stroke="#ADADED" stroke-width="1.1594"/>
<path d="M150.722 71.133H142.267C140.347 71.133 138.789 72.6903 138.789 74.6112C138.789 75.2515 139.308 75.7706 139.949 75.7706H167.195C168.795 75.7706 170.093 74.4729 170.093 72.8721C170.093 71.2713 168.795 69.9736 167.195 69.9736H154.683C154.143 69.9736 153.61 70.0994 153.127 70.3408L152.277 70.7658C151.794 71.0073 151.262 71.133 150.722 71.133Z" fill="#D5D5F6"/>
<path d="M177.049 84.4663V77.5099C177.049 74.9486 174.973 72.8723 172.412 72.8723H137.63C135.069 72.8723 132.992 74.9486 132.992 77.5099V84.4663C132.992 87.0275 135.069 89.1039 137.63 89.1039H172.412C174.973 89.1039 177.049 87.0275 177.049 84.4663Z" fill="url(#prompt-integration-paint0_linear)"/>
<path d="M166.042 79.6354C165.659 80.2074 165.455 80.8799 165.455 81.5678C165.455 82.4903 165.822 83.3749 166.474 84.0272C167.126 84.6795 168.011 85.046 168.934 85.046C169.621 85.046 170.294 84.842 170.866 84.4598C171.438 84.0776 171.884 83.5344 172.147 82.8988C172.41 82.2633 172.479 81.5639 172.345 80.8892C172.211 80.2145 171.879 79.5948 171.393 79.1083C170.907 78.6219 170.287 78.2906 169.612 78.1564C168.937 78.0222 168.238 78.0911 167.602 78.3544C166.967 78.6176 166.424 79.0634 166.042 79.6354Z" fill="#FDE293"/>
<path d="M138.216 79.6354C137.834 80.2074 137.63 80.8799 137.63 81.5678C137.63 82.4903 137.996 83.3749 138.649 84.0272C139.301 84.6795 140.186 85.046 141.108 85.046C141.796 85.046 142.468 84.842 143.04 84.4598C143.612 84.0776 144.058 83.5344 144.321 82.8988C144.585 82.2633 144.654 81.5639 144.519 80.8892C144.385 80.2145 144.054 79.5948 143.568 79.1083C143.081 78.6219 142.461 78.2906 141.787 78.1564C141.112 78.0222 140.413 78.0911 139.777 78.3544C139.141 78.6176 138.598 79.0634 138.216 79.6354Z" fill="#FDE293"/>
<rect x="148.064" y="78.0896" width="13.9127" height="2.31879" rx="1.1594" fill="#19194B"/>
<rect x="148.064" y="82.7273" width="13.9127" height="2.31879" rx="1.1594" fill="#19194B"/>
<mask id="prompt-integration-mask0" mask-type="alpha" maskUnits="userSpaceOnUse" x="137" y="78" width="8" height="8">
<path d="M138.216 79.6354C137.834 80.2074 137.63 80.8799 137.63 81.5678C137.63 82.4903 137.996 83.3749 138.649 84.0272C139.301 84.6795 140.186 85.046 141.108 85.046C141.796 85.046 142.468 84.842 143.04 84.4598C143.612 84.0776 144.058 83.5344 144.321 82.8988C144.585 82.2633 144.654 81.5639 144.519 80.8892C144.385 80.2145 144.054 79.5948 143.568 79.1083C143.081 78.6219 142.461 78.2906 141.787 78.1564C141.112 78.0222 140.413 78.0911 139.777 78.3544C139.141 78.6176 138.598 79.0634 138.216 79.6354Z" fill="#FDE293"/>
</mask>
<g mask="url(#prompt-integration-mask0)">
<path d="M144.586 85.046V78.0896L137.63 85.046H144.586Z" fill="#FBD677"/>
</g>
<mask id="prompt-integration-mask1" mask-type="alpha" maskUnits="userSpaceOnUse" x="165" y="78" width="8" height="8">
<path d="M166.042 79.6354C165.659 80.2074 165.455 80.8799 165.455 81.5678C165.455 82.4903 165.822 83.3749 166.474 84.0272C167.126 84.6795 168.011 85.046 168.934 85.046C169.621 85.046 170.294 84.842 170.866 84.4598C171.438 84.0776 171.884 83.5344 172.147 82.8988C172.41 82.2633 172.479 81.5639 172.345 80.8892C172.211 80.2145 171.879 79.5948 171.393 79.1083C170.907 78.6219 170.287 78.2906 169.612 78.1564C168.937 78.0222 168.238 78.0911 167.602 78.3544C166.967 78.6176 166.424 79.0634 166.042 79.6354Z" fill="#FDE293"/>
</mask>
<g mask="url(#prompt-integration-mask1)">
<path d="M172.412 85.046V78.0896L165.455 85.046H172.412Z" fill="#FBD677"/>
</g>
<path d="M226.17 212.938C231.116 217.68 263.232 200.68 277.5 207" stroke="#F4F5F7" stroke-width="3"/>
<path d="M154.5 105C159.446 109.742 140.232 147.68 154.5 154" stroke="#F4F5F7" stroke-width="3"/>
<path d="M151.338 150.388C145.112 147.527 99.1139 171.955 88 161" stroke="#F4F5F7" stroke-width="3"/>
<rect x="258" y="159" width="80" height="80" rx="20" fill="#00A0DF"/>
<path fill-rule="evenodd" clip-rule="evenodd" d="M288.46 226.01C288.46 226.556 288.903 227 289.45 227H290.384C290.931 227 291.374 226.556 291.374 226.01V217.091H288.46V226.01Z" fill="#19194B"/>
<path fill-rule="evenodd" clip-rule="evenodd" d="M304.653 217.091V226.01C304.653 226.556 305.096 227 305.642 227H306.578C307.124 227 307.567 226.556 307.567 226.01V217.091H304.653Z" fill="#19194B"/>
<path fill-rule="evenodd" clip-rule="evenodd" d="M318.037 205.514C317.585 205.631 317.214 205.952 317.036 206.383L316.68 207.24C316.502 207.671 316.537 208.16 316.774 208.562C318.307 211.161 317.913 214.563 315.737 216.738C313.392 219.083 309.623 219.358 306.968 217.379L306.096 217.09H289.902L289.031 217.379C286.378 219.359 282.607 219.083 280.263 216.738C278.087 214.562 277.692 211.161 279.226 208.562C279.463 208.161 279.498 207.671 279.319 207.24L278.964 206.383C278.787 205.952 278.415 205.631 277.963 205.514C275.041 204.761 272.915 202.077 272.915 199C272.915 195.924 275.041 193.24 277.963 192.487C278.415 192.37 278.787 192.049 278.964 191.618L279.319 190.761C279.498 190.329 279.463 189.84 279.226 189.438C277.692 186.84 278.087 183.439 280.263 181.263C281.559 179.966 283.291 179.302 285.03 179.302C286.202 179.302 287.377 179.604 288.423 180.218C288.83 180.457 289.323 180.5 289.76 180.319L290.617 179.964C291.048 179.787 291.369 179.416 291.486 178.964C292.239 176.042 294.923 173.916 297.999 173.916C301.076 173.916 303.76 176.042 304.514 178.964C304.631 179.416 304.952 179.786 305.383 179.964L306.239 180.319C306.67 180.498 307.159 180.463 307.562 180.226C310.16 178.693 313.561 179.087 315.737 181.263C317.913 183.438 318.307 186.839 316.774 189.439C316.537 189.841 316.502 190.33 316.68 190.761L317.036 191.618C317.214 192.049 317.585 192.37 318.037 192.487C320.958 193.24 323.085 195.924 323.085 199C323.085 202.077 320.958 204.761 318.037 205.514ZM319.768 189.984C321.371 186.407 320.66 182.064 317.799 179.201C314.936 176.339 310.593 175.628 307.016 177.232C305.621 173.569 302.047 171 297.999 171C293.953 171 290.378 173.569 288.983 177.232C285.406 175.628 281.064 176.339 278.201 179.201C275.339 182.064 274.629 186.407 276.232 189.984C272.568 191.379 270 194.953 270 199C270 203.048 272.568 206.622 276.232 208.017C274.627 211.593 275.339 215.937 278.201 218.799C280.059 220.657 282.542 221.609 285.034 221.609C286.89 221.608 288.752 221.08 290.365 220.005H305.635C309.411 222.523 314.555 222.042 317.799 218.799C320.66 215.938 321.371 211.594 319.768 208.017C323.431 206.622 325.999 203.048 325.999 199C325.999 194.953 323.431 191.379 319.768 189.984Z" fill="#19194B"/>
<path fill-rule="evenodd" clip-rule="evenodd" d="M318.037 192.486C317.585 192.37 317.214 192.049 317.036 191.618L316.68 190.761C316.502 190.33 316.537 189.841 316.774 189.439C318.307 186.839 317.913 183.438 315.737 181.263C313.561 179.087 310.16 178.693 307.562 180.226C307.159 180.463 306.67 180.498 306.239 180.319L305.382 179.964C304.952 179.786 304.631 179.416 304.514 178.964C303.76 176.041 301.076 173.916 297.999 173.916C294.923 173.916 292.239 176.041 291.486 178.964C291.369 179.416 291.048 179.786 290.617 179.964L289.76 180.319C289.323 180.5 288.83 180.457 288.423 180.218C287.377 179.604 286.202 179.302 285.03 179.302C283.291 179.302 281.559 179.966 280.263 181.263C278.087 183.439 277.692 186.84 279.226 189.439C279.464 189.84 279.498 190.33 279.319 190.761L278.964 191.618C278.787 192.049 278.415 192.37 277.963 192.486C275.041 193.24 272.915 195.924 272.915 199.001C272.915 202.076 275.041 204.761 277.963 205.514C278.415 205.63 278.786 205.952 278.964 206.382L279.319 207.24C279.498 207.671 279.464 208.16 279.226 208.562C277.692 211.161 278.087 214.562 280.263 216.738C282.607 219.083 286.378 219.359 289.031 217.379L289.902 217.09H306.096L306.968 217.379C309.623 219.358 313.392 219.083 315.737 216.738C317.913 214.562 318.307 211.161 316.774 208.561C316.537 208.16 316.502 207.67 316.68 207.24L317.036 206.382C317.214 205.952 317.585 205.63 318.037 205.514C320.958 204.761 323.085 202.076 323.085 199.001C323.085 195.924 320.958 193.24 318.037 192.486Z" fill="white"/>
<path fill-rule="evenodd" clip-rule="evenodd" d="M309.979 201.134C309.372 200.058 308.617 199.056 307.719 198.158L307.388 197.827C307.002 197.441 306.375 197.441 305.988 197.827L305.328 198.489C304.941 198.875 304.941 199.502 305.328 199.889L305.658 200.219C307.704 202.265 308.83 204.985 308.83 207.878C308.83 213.792 304.065 218.613 298.172 218.706C292.191 218.8 287.169 213.859 287.169 207.878C287.169 204.985 288.296 202.265 290.342 200.219L290.672 199.889C291.059 199.502 291.059 198.875 290.672 198.489L290.011 197.827C289.624 197.441 288.997 197.441 288.611 197.827L288.28 198.158C287.383 199.056 286.628 200.058 286.02 201.134C284.635 200.178 283.627 198.718 283.252 197.046H286.192C286.739 197.046 287.182 196.604 287.182 196.057V195.589C287.182 194.134 288.361 192.955 289.816 192.955C291.024 192.955 292.04 193.769 292.35 194.878C292.469 195.301 292.86 195.588 293.299 195.588H294.517C294.955 195.588 295.347 195.301 295.465 194.878C295.776 193.769 296.791 192.955 298 192.955C299.208 192.955 300.224 193.769 300.534 194.878C300.652 195.301 301.044 195.588 301.483 195.588H302.7C303.139 195.588 303.531 195.301 303.649 194.878C303.959 193.769 304.975 192.955 306.183 192.955C307.638 192.955 308.817 194.134 308.817 195.589V196.057C308.817 196.604 309.26 197.046 309.808 197.046H312.748C312.372 198.718 311.365 200.178 309.979 201.134Z" fill="white"/>
<path fill-rule="evenodd" clip-rule="evenodd" d="M302.105 201.654C301.286 201.654 300.62 202.318 300.62 203.139C300.62 203.958 301.286 204.623 302.105 204.623C302.925 204.623 303.59 203.958 303.59 203.139C303.59 202.318 302.925 201.654 302.105 201.654Z" fill="#19194B"/>
<path fill-rule="evenodd" clip-rule="evenodd" d="M293.922 201.654C293.102 201.654 292.437 202.318 292.437 203.139C292.437 203.958 293.102 204.623 293.922 204.623C294.741 204.623 295.407 203.958 295.407 203.139C295.407 202.318 294.741 201.654 293.922 201.654Z" fill="#19194B"/>
<path fill-rule="evenodd" clip-rule="evenodd" d="M300.474 216.319C300.474 217.686 299.366 218.794 297.999 218.794C296.633 218.794 295.525 217.686 295.525 216.319H300.474Z" fill="#19194B"/>
<path fill-rule="evenodd" clip-rule="evenodd" d="M309.979 201.134C309.372 200.058 308.617 199.056 307.719 198.158L307.388 197.827C307.002 197.441 306.375 197.441 305.988 197.827L305.328 198.489C304.941 198.875 304.941 199.502 305.328 199.889L305.658 200.219C307.704 202.265 308.83 204.985 308.83 207.878C308.83 213.792 304.065 218.613 298.172 218.706C292.191 218.8 287.169 213.859 287.169 207.878C287.169 204.985 288.296 202.265 290.342 200.219L290.672 199.889C291.059 199.502 291.059 198.875 290.672 198.489L290.011 197.827C289.624 197.441 288.997 197.441 288.611 197.827L288.28 198.158C287.382 199.056 286.628 200.058 286.02 201.134C284.634 200.178 283.627 198.718 283.252 197.046H286.192C286.738 197.046 287.182 196.604 287.182 196.057V195.589C287.182 194.134 288.361 192.955 289.816 192.955C291.024 192.955 292.04 193.769 292.35 194.878C292.469 195.301 292.86 195.588 293.299 195.588H294.517C294.955 195.588 295.347 195.301 295.465 194.878C295.776 193.769 296.791 192.955 298 192.955C299.208 192.955 300.224 193.769 300.534 194.878C300.652 195.301 301.044 195.588 301.483 195.588H302.7C303.139 195.588 303.531 195.301 303.649 194.878C303.959 193.769 304.975 192.955 306.183 192.955C307.638 192.955 308.817 194.134 308.817 195.589V196.057C308.817 196.604 309.26 197.046 309.807 197.046H312.748C312.372 198.718 311.365 200.178 309.979 201.134ZM314.835 194.131H311.538C310.897 191.776 308.739 190.04 306.183 190.04C304.565 190.04 303.106 190.736 302.091 191.844C301.076 190.736 299.618 190.04 298 190.04C296.382 190.04 294.923 190.736 293.908 191.844C292.893 190.736 291.434 190.04 289.816 190.04C287.26 190.04 285.103 191.776 284.461 194.131H281.165C280.618 194.131 280.175 194.575 280.175 195.122V195.589C280.175 199.036 282.043 202.132 284.858 203.839C284.438 205.213 284.229 206.659 284.257 208.141C284.395 215.622 290.601 221.668 298.085 221.623C305.625 221.577 311.745 215.429 311.745 207.878C311.745 206.486 311.539 205.127 311.143 203.834C311.143 203.835 311.144 203.836 311.144 203.837C313.957 202.13 315.824 199.035 315.824 195.589V195.122C315.824 194.575 315.381 194.131 314.835 194.131Z" fill="#19194B"/>
<g filter="url(#prompt-integration-filter0_d)">
<path d="M232.291 212.628C226.649 221.558 214.837 224.223 205.907 218.582L199.769 214.703C197.031 212.974 196.214 209.352 197.943 206.614L212.109 184.192C213.839 181.454 217.461 180.637 220.198 182.366L226.337 186.245C235.267 191.886 237.932 203.699 232.291 212.628Z" fill="white"/>
<path d="M204.305 221.118C214.635 227.644 228.3 224.561 234.827 214.231C241.354 203.9 238.27 190.235 227.94 183.708L221.801 179.83C217.662 177.215 212.188 178.451 209.573 182.589L195.407 205.012C192.792 209.15 194.028 214.625 198.166 217.239L204.305 221.118Z" stroke="white" stroke-width="6" stroke-linecap="round" stroke-linejoin="round"/>
</g>
<path d="M232.291 212.628C226.649 221.558 214.837 224.223 205.907 218.582L199.769 214.703C197.031 212.974 196.214 209.352 197.943 206.614L212.109 184.192C213.839 181.454 217.461 180.637 220.198 182.366L226.337 186.245C235.267 191.886 237.932 203.699 232.291 212.628Z" fill="url(#prompt-integration-paint1_linear)"/>
<rect x="220.948" y="182.84" width="1.5" height="38.25" transform="rotate(32.2841 220.948 182.84)" fill="#DFE1E6"/>
<path d="M79.5 92C79.5 92 112 110.5 121.5 126.5C131 142.5 151.5 151.5 151.5 151.5" stroke="#F4F5F7" stroke-width="3"/>
<rect x="22" y="25" width="72" height="72" rx="18" fill="#F4F5F7"/>
<path fill-rule="evenodd" clip-rule="evenodd" d="M71.3334 61.5327L75.3334 69.5327H68.6667L71.3334 61.5327ZM59.3334 69.5327H47.3334V74.866H59.3334L67.3334 73.5327V68.1994L59.3334 69.5327Z" fill="#EB4B68"/>
<path d="M40.6666 65.0882C40.6666 63.8609 39.6717 62.866 38.4444 62.866H36.6666V66.866H40.6666V65.0882Z" fill="#FAC34B"/>
<rect x="36.6667" y="62.866" width="1.33333" height="4" fill="#FBD677"/>
<circle cx="73.3333" cy="74.1993" r="7.33333" fill="#253858"/>
<circle cx="73.3333" cy="74.1994" r="4.66667" fill="#DFE1E6"/>
<circle cx="44" cy="74.1993" r="7.33333" fill="#253858"/>
<circle cx="44" cy="74.1994" r="4.66667" fill="#DFE1E6"/>
<circle cx="44" cy="74.1992" r="2" fill="#C4C4C4"/>
<circle cx="73.3334" cy="74.1992" r="2" fill="#C4C4C4"/>
<path d="M39.3333 66.8659C39.3333 63.184 42.3181 60.1992 46 60.1992H52.6666C56.3485 60.1992 59.3333 63.184 59.3333 66.8659V73.7548C59.3333 74.3684 58.8359 74.8659 58.2222 74.8659H40.4444C39.8308 74.8659 39.3333 74.3684 39.3333 73.7548V66.8659Z" fill="#EB4B68"/>
<path d="M64.6666 74.866C64.6666 69.7114 68.9096 65.5327 74.0642 65.5327C78.417 65.5327 82 69.0614 82 73.4142C82 74.216 81.3499 74.866 80.5481 74.866H64.6666Z" fill="#EB4B68"/>
<path d="M36.6667 57.3899C36.6667 55.996 37.7967 54.866 39.1906 54.866H55.3334C56.8061 54.866 58 56.0599 58 57.5326V58.866C58 60.3387 56.8061 61.5326 55.3334 61.5326H42.106C41.648 61.5326 41.1978 61.4147 40.7986 61.1902L37.9532 59.5896C37.1585 59.1426 36.6667 58.3017 36.6667 57.3899Z" fill="#344563"/>
<rect x="43.3334" y="54.866" width="1.33333" height="6.66667" fill="#091E42"/>
<mask id="prompt-integration-mask2" mask-type="alpha" maskUnits="userSpaceOnUse" x="39" y="60" width="21" height="15">
<path d="M39.3333 66.8659C39.3333 63.184 42.3181 60.1992 46 60.1992H52.6666C56.3485 60.1992 59.3333 63.184 59.3333 66.8659V73.7548C59.3333 74.3684 58.8359 74.8659 58.2222 74.8659H40.4444C39.8308 74.8659 39.3333 74.3684 39.3333 73.7548V66.8659Z" fill="#EB4B68"/>
</mask>
<g mask="url(#prompt-integration-mask2)">
<rect x="38" y="73.5325" width="20" height="1.33333" fill="#CA365F"/>
<g filter="url(#prompt-integration-filter1_d)">
<path d="M34 70.8659C34 67.184 36.9848 64.1992 40.6667 64.1992H47.3333C51.0152 64.1992 54 67.184 54 70.8659V73.7548C54 74.3684 53.5025 74.8659 52.8889 74.8659H35.1111C34.4975 74.8659 34 74.3684 34 73.7548V70.8659Z" fill="#EB4B68"/>
</g>
</g>
<path d="M34 70.8659C34 67.184 36.9848 64.1992 40.6667 64.1992H43.3333C47.0152 64.1992 50 67.184 50 70.8659V73.7548C50 74.3684 49.5025 74.8659 48.8889 74.8659H35.1111C34.4975 74.8659 34 74.3684 34 73.7548V70.8659Z" fill="#EB4B68"/>
<path d="M34 73.5327H54V74.866H35.1111C34.4975 74.866 34 74.3686 34 73.7549V73.5327Z" fill="#CA365F"/>
<path d="M58 73.5327H82V73.7549C82 74.3686 81.5025 74.866 80.8889 74.866H58V73.5327Z" fill="#CA365F"/>
<path d="M75.3334 48.4665C75.3334 46.9937 76.5273 45.7998 78 45.7998H78.3264C78.8825 45.7998 79.3334 46.2507 79.3334 46.8068V50.1261C79.3334 50.6823 78.8825 51.1331 78.3264 51.1331H78C76.5273 51.1331 75.3334 49.9392 75.3334 48.4665Z" fill="#99D9F2"/>
<path d="M74 47.4596C74 45.8066 75.34 44.4666 76.993 44.4666C77.5492 44.4666 78 44.9174 78 45.4735V51.4596C78 52.0157 77.5492 52.4666 76.993 52.4666C75.34 52.4666 74 51.1265 74 49.4735V47.4596Z" fill="#EB4B68"/>
<path d="M71.3334 46.4633C71.3334 45.3587 72.2288 44.4666 73.3334 44.4666C74.4379 44.4666 75.3334 45.358 75.3334 46.4626C75.3334 50.0428 75.3334 57.6899 75.3334 63.1332C75.3334 70.4666 79.3334 71.1332 79.3334 71.1332H68.6667H63.3334C63.3334 71.1332 71.3334 65.1332 71.3334 63.1332C71.3334 61.5629 71.3334 50.9503 71.3334 46.4633Z" fill="#EB4B68"/>
<mask id="prompt-integration-mask3" mask-type="alpha" maskUnits="userSpaceOnUse" x="74" y="44" width="4" height="9">
<path d="M74 47.4596C74 45.8066 75.34 44.4666 76.993 44.4666C77.5492 44.4666 78 44.9174 78 45.4735V51.4596C78 52.0157 77.5492 52.4666 76.993 52.4666C75.34 52.4666 74 51.1265 74 49.4735V47.4596Z" fill="#EB4B68"/>
</mask>
<g mask="url(#prompt-integration-mask3)">
<g filter="url(#prompt-integration-filter2_d)">
<path d="M71.3334 46.4633C71.3334 45.3587 72.2288 44.4666 73.3334 44.4666C74.4379 44.4666 75.3334 45.358 75.3334 46.4626C75.3334 50.0428 75.3334 57.6899 75.3334 63.1332C75.3334 70.4666 79.3334 71.1332 79.3334 71.1332H68.6667H63.3334C63.3334 71.1332 71.3334 65.1332 71.3334 63.1332C71.3334 61.5629 71.3334 50.9503 71.3334 46.4633Z" fill="#EB4B68"/>
</g>
</g>
<circle cx="72.6667" cy="48.4666" r="1.33333" fill="#CA365F"/>
<path d="M68.6666 47.8H72C72.3681 47.8 72.6666 48.0985 72.6666 48.4667C72.6666 48.8349 72.3681 49.1334 72 49.1334H68.6666V47.8Z" fill="#DFE1E6"/>
<rect x="64.6666" y="47.1333" width="5.33333" height="2.66667" rx="1.33333" fill="#344563"/>
<g filter="url(#prompt-integration-filter3_d)">
<mask id="prompt-integration-path-66-outside-1" maskUnits="userSpaceOnUse" x="134.225" y="128.408" width="68.6917" height="68.2086" fill="black">
<rect fill="white" x="134.225" y="128.408" width="68.6917" height="68.2086"/>
<path fill-rule="evenodd" clip-rule="evenodd" d="M150.606 153.712C155.074 144.141 166.455 140.004 176.026 144.472L182.606 147.544C185.54 148.914 186.808 152.403 185.439 155.337L183.795 158.859L187.872 160.762C189.374 161.463 190.023 163.248 189.322 164.75C188.621 166.251 186.836 166.9 185.334 166.199L181.257 164.296L178.084 171.092L182.162 172.995C183.663 173.696 184.312 175.481 183.612 176.983C182.911 178.484 181.125 179.133 179.624 178.432L175.546 176.528L174.22 179.37C172.85 182.305 169.36 183.573 166.426 182.203L159.846 179.132C150.275 174.664 146.138 163.283 150.606 153.712Z"/>
</mask>
<path fill-rule="evenodd" clip-rule="evenodd" d="M150.606 153.712C155.074 144.141 166.455 140.004 176.026 144.472L182.606 147.544C185.54 148.914 186.808 152.403 185.439 155.337L183.795 158.859L187.872 160.762C189.374 161.463 190.023 163.248 189.322 164.75C188.621 166.251 186.836 166.9 185.334 166.199L181.257 164.296L178.084 171.092L182.162 172.995C183.663 173.696 184.312 175.481 183.612 176.983C182.911 178.484 181.125 179.133 179.624 178.432L175.546 176.528L174.22 179.37C172.85 182.305 169.36 183.573 166.426 182.203L159.846 179.132C150.275 174.664 146.138 163.283 150.606 153.712Z" fill="white"/>
<path d="M185.439 155.337L180.002 152.799L185.439 155.337ZM183.795 158.859L178.358 156.321C176.956 159.323 178.254 162.894 181.257 164.296L183.795 158.859ZM187.872 160.762L190.41 155.326L187.872 160.762ZM185.334 166.199L187.872 160.762L185.334 166.199ZM181.257 164.296L183.795 158.859C180.792 157.457 177.222 158.755 175.82 161.758L181.257 164.296ZM178.084 171.092L172.647 168.554C171.974 169.996 171.902 171.646 172.445 173.141C172.989 174.637 174.104 175.855 175.546 176.528L178.084 171.092ZM182.162 172.995L184.7 167.559L182.162 172.995ZM175.546 176.528L178.084 171.092C176.642 170.419 174.992 170.346 173.496 170.889C172.001 171.433 170.783 172.549 170.109 173.99L175.546 176.528ZM174.22 179.37L179.656 181.908L174.22 179.37ZM178.564 139.035C165.99 133.166 151.039 138.6 145.17 151.174L156.043 156.25C159.109 149.682 166.92 146.843 173.488 149.909L178.564 139.035ZM185.144 142.107L178.564 139.035L173.488 149.909L180.068 152.981L185.144 142.107ZM190.875 157.875C193.647 151.938 191.081 144.879 185.144 142.107L180.068 152.981C180.061 152.977 180.041 152.965 180.024 152.945C180.009 152.929 180.001 152.914 179.997 152.904C179.993 152.893 179.99 152.877 179.991 152.855C179.992 152.828 179.999 152.806 180.002 152.799L190.875 157.875ZM189.231 161.397L190.875 157.875L180.002 152.799L178.358 156.321L189.231 161.397ZM190.41 155.326L186.333 153.422L181.257 164.296L185.334 166.199L190.41 155.326ZM194.759 167.288C196.861 162.784 194.914 157.428 190.41 155.326L185.334 166.199C183.833 165.498 183.184 163.713 183.885 162.212L194.759 167.288ZM182.796 171.636C187.3 173.738 192.656 171.792 194.759 167.288L183.885 162.212C184.586 160.71 186.371 160.062 187.872 160.762L182.796 171.636ZM178.719 169.732L182.796 171.636L187.872 160.762L183.795 158.859L178.719 169.732ZM183.521 173.63L186.693 166.834L175.82 161.758L172.647 168.554L183.521 173.63ZM175.546 176.528L179.624 178.432L184.7 167.559L180.622 165.655L175.546 176.528ZM179.624 178.432C178.123 177.731 177.474 175.946 178.175 174.445L189.048 179.521C191.151 175.017 189.204 169.661 184.7 167.559L179.624 178.432ZM178.175 174.445C178.876 172.943 180.661 172.294 182.162 172.995L177.086 183.869C181.59 185.971 186.946 184.025 189.048 179.521L178.175 174.445ZM182.162 172.995L178.084 171.092L173.008 181.965L177.086 183.869L182.162 172.995ZM179.656 181.908L180.983 179.066L170.109 173.99L168.783 176.832L179.656 181.908ZM163.888 187.64C169.825 190.412 176.885 187.845 179.656 181.908L168.783 176.832C168.786 176.825 168.798 176.806 168.818 176.788C168.835 176.773 168.849 176.766 168.86 176.762C168.87 176.758 168.886 176.754 168.909 176.755C168.935 176.756 168.957 176.763 168.964 176.766L163.888 187.64ZM157.308 184.568L163.888 187.64L168.964 176.766L162.384 173.695L157.308 184.568ZM145.17 151.174C139.3 163.748 144.735 178.699 157.308 184.568L162.384 173.695C155.816 170.629 152.977 162.818 156.043 156.25L145.17 151.174Z" fill="white" mask="url(#prompt-integration-path-66-outside-1)"/>
</g>
<rect x="179.717" y="156.955" width="12" height="6" rx="3" transform="rotate(25.0241 179.717 156.955)" fill="#FAC34B"/>
<rect x="174.007" y="169.188" width="12" height="6" rx="3" transform="rotate(25.0241 174.007 169.188)" fill="#FAC34B"/>
<path d="M150.606 153.712C155.074 144.141 166.455 140.004 176.026 144.472L182.606 147.544C185.54 148.914 186.808 152.403 185.439 155.337L174.22 179.37C172.85 182.305 169.36 183.573 166.426 182.203L159.846 179.132C150.275 174.664 146.138 163.283 150.606 153.712Z" fill="url(#prompt-integration-paint2_linear)"/>
<rect x="180.444" y="146.534" width="1.5" height="38.25" transform="rotate(25.0241 180.444 146.534)" fill="#DFE1E6"/>
<rect x="33" y="122" width="72" height="72" rx="18" fill="#F4F5F7"/>
<g clip-path="url(#prompt-integration-clip0)">
<path d="M46.2 154.4C46.2 152.412 47.8117 150.8 49.8 150.8H88.2C90.1882 150.8 91.8 152.412 91.8 154.4V172.4C91.8 174.388 90.1882 176 88.2 176H49.8C47.8117 176 46.2 174.388 46.2 172.4V154.4Z" fill="#A76013"/>
<path d="M61.7999 153.8V148.4V147.2C61.7999 143.224 65.0235 140 68.9999 140V140C72.9764 140 76.1999 143.224 76.1999 147.2V148.4V153.8" stroke="#C87C1B" stroke-width="2.4" stroke-linecap="round"/>
<path d="M45 147.2C45 146.537 45.5373 146 46.2 146H91.8C92.4627 146 93 146.537 93 147.2V158.077C93 158.693 92.5339 159.209 91.9213 159.271L69.1213 161.588C69.0406 161.596 68.9594 161.596 68.8787 161.588L46.0787 159.271C45.4661 159.209 45 158.693 45 158.077V147.2Z" fill="url(#prompt-integration-paint3_linear)"/>
<path d="M55.2001 154.4C55.2001 153.737 55.7373 153.2 56.4001 153.2H57.6001C58.2628 153.2 58.8001 153.737 58.8001 154.4V169.6C58.8001 169.86 58.7159 170.112 58.5601 170.32L57.9601 171.12C57.4801 171.76 56.5201 171.76 56.0401 171.12L55.4401 170.32C55.2843 170.112 55.2001 169.86 55.2001 169.6V154.4Z" fill="url(#prompt-integration-paint4_linear)"/>
<rect x="53.4" y="152" width="7.2" height="2.4" rx="1.2" fill="#A76013"/>
<g filter="url(#prompt-integration-filter4_d)">
<rect x="54.6" y="164" width="4.8" height="3.6" rx="1.8" fill="url(#prompt-integration-paint5_linear)"/>
</g>
<path d="M79.2001 154.4C79.2001 153.737 79.7373 153.2 80.4001 153.2H81.6001C82.2628 153.2 82.8001 153.737 82.8001 154.4V169.6C82.8001 169.86 82.7159 170.112 82.5601 170.32L81.9601 171.12C81.4801 171.76 80.5201 171.76 80.0401 171.12L79.4401 170.32C79.2843 170.112 79.2001 169.86 79.2001 169.6V154.4Z" fill="url(#prompt-integration-paint6_linear)"/>
<g filter="url(#prompt-integration-filter5_d)">
<rect x="78.6" y="164" width="4.8" height="3.6" rx="1.8" fill="url(#prompt-integration-paint7_linear)"/>
</g>
<rect x="77.4" y="152" width="7.2" height="2.4" rx="1.2" fill="#A76013"/>
</g>
<defs>
<filter id="prompt-integration-filter0_d" x="185.035" y="172.458" width="62.2154" height="64.0831" filterUnits="userSpaceOnUse" color-interpolation-filters="sRGB">
<feFlood flood-opacity="0" result="BackgroundImageFix"/>
<feColorMatrix in="SourceAlpha" type="matrix" values="0 0 0 0 0 0 0 0 0 0 0 0 0 0 0 0 0 0 127 0" result="hardAlpha"/>
<feOffset dy="3"/>
<feGaussianBlur stdDeviation="3"/>
<feColorMatrix type="matrix" values="0 0 0 0 0 0 0 0 0 0 0 0 0 0 0 0 0 0 0.24 0"/>
<feBlend mode="normal" in2="BackgroundImageFix" result="effect1_dropShadow"/>
<feBlend mode="normal" in="SourceGraphic" in2="effect1_dropShadow" result="shape"/>
</filter>
<filter id="prompt-integration-filter1_d" x="28.6667" y="58.8659" width="30.6667" height="21.3333" filterUnits="userSpaceOnUse" color-interpolation-filters="sRGB">
<feFlood flood-opacity="0" result="BackgroundImageFix"/>
<feColorMatrix in="SourceAlpha" type="matrix" values="0 0 0 0 0 0 0 0 0 0 0 0 0 0 0 0 0 0 127 0" result="hardAlpha"/>
<feOffset/>
<feGaussianBlur stdDeviation="2.66667"/>
<feColorMatrix type="matrix" values="0 0 0 0 0 0 0 0 0 0 0 0 0 0 0 0 0 0 0.25 0"/>
<feBlend mode="normal" in2="BackgroundImageFix" result="effect1_dropShadow"/>
<feBlend mode="normal" in="SourceGraphic" in2="effect1_dropShadow" result="shape"/>
</filter>
<filter id="prompt-integration-filter2_d" x="58" y="39.1332" width="26.6667" height="37.3333" filterUnits="userSpaceOnUse" color-interpolation-filters="sRGB">
<feFlood flood-opacity="0" result="BackgroundImageFix"/>
<feColorMatrix in="SourceAlpha" type="matrix" values="0 0 0 0 0 0 0 0 0 0 0 0 0 0 0 0 0 0 127 0" result="hardAlpha"/>
<feOffset/>
<feGaussianBlur stdDeviation="2.66667"/>
<feColorMatrix type="matrix" values="0 0 0 0 0 0 0 0 0 0 0 0 0 0 0 0 0 0 0.25 0"/>
<feBlend mode="normal" in2="BackgroundImageFix" result="effect1_dropShadow"/>
<feBlend mode="normal" in="SourceGraphic" in2="effect1_dropShadow" result="shape"/>
</filter>
<filter id="prompt-integration-filter3_d" x="136.805" y="133.671" width="64.8004" height="64.0855" filterUnits="userSpaceOnUse" color-interpolation-filters="sRGB">
<feFlood flood-opacity="0" result="BackgroundImageFix"/>
<feColorMatrix in="SourceAlpha" type="matrix" values="0 0 0 0 0 0 0 0 0 0 0 0 0 0 0 0 0 0 127 0" result="hardAlpha"/>
<feOffset dy="3"/>
<feGaussianBlur stdDeviation="3"/>
<feColorMatrix type="matrix" values="0 0 0 0 0 0 0 0 0 0 0 0 0 0 0 0 0 0 0.24 0"/>
<feBlend mode="normal" in2="BackgroundImageFix" result="effect1_dropShadow"/>
<feBlend mode="normal" in="SourceGraphic" in2="effect1_dropShadow" result="shape"/>
</filter>
<filter id="prompt-integration-filter4_d" x="49.8" y="161.6" width="14.4" height="13.2" filterUnits="userSpaceOnUse" color-interpolation-filters="sRGB">
<feFlood flood-opacity="0" result="BackgroundImageFix"/>
<feColorMatrix in="SourceAlpha" type="matrix" values="0 0 0 0 0 0 0 0 0 0 0 0 0 0 0 0 0 0 127 0" result="hardAlpha"/>
<feOffset dy="2.4"/>
<feGaussianBlur stdDeviation="2.4"/>
<feColorMatrix type="matrix" values="0 0 0 0 0 0 0 0 0 0 0 0 0 0 0 0 0 0 0.1 0"/>
<feBlend mode="normal" in2="BackgroundImageFix" result="effect1_dropShadow"/>
<feBlend mode="normal" in="SourceGraphic" in2="effect1_dropShadow" result="shape"/>
</filter>
<filter id="prompt-integration-filter5_d" x="73.8" y="161.6" width="14.4" height="13.2" filterUnits="userSpaceOnUse" color-interpolation-filters="sRGB">
<feFlood flood-opacity="0" result="BackgroundImageFix"/>
<feColorMatrix in="SourceAlpha" type="matrix" values="0 0 0 0 0 0 0 0 0 0 0 0 0 0 0 0 0 0 127 0" result="hardAlpha"/>
<feOffset dy="2.4"/>
<feGaussianBlur stdDeviation="2.4"/>
<feColorMatrix type="matrix" values="0 0 0 0 0 0 0 0 0 0 0 0 0 0 0 0 0 0 0.1 0"/>
<feBlend mode="normal" in2="BackgroundImageFix" result="effect1_dropShadow"/>
<feBlend mode="normal" in="SourceGraphic" in2="effect1_dropShadow" result="shape"/>
</filter>
<linearGradient id="prompt-integration-paint0_linear" x1="155.021" y1="72.8723" x2="155.021" y2="89.6836" gradientUnits="userSpaceOnUse">
<stop stop-color="#494993"/>
<stop offset="1" stop-color="#7878C9"/>
</linearGradient>
<linearGradient id="prompt-integration-paint1_linear" x1="205.46" y1="196.12" x2="232.091" y2="212.945" gradientUnits="userSpaceOnUse">
<stop stop-color="#F4F5F7"/>
<stop offset="1" stop-color="#EBECF0"/>
</linearGradient>
<linearGradient id="prompt-integration-paint2_linear" x1="180.186" y1="166.855" x2="147.523" y2="150.983" gradientUnits="userSpaceOnUse">
<stop stop-color="#F4F5F7"/>
<stop offset="1" stop-color="#EBECF0"/>
</linearGradient>
<linearGradient id="prompt-integration-paint3_linear" x1="69" y1="192.8" x2="41.555" y2="155.27" gradientUnits="userSpaceOnUse">
<stop stop-color="#A76013"/>
<stop offset="1" stop-color="#E99B26"/>
</linearGradient>
<linearGradient id="prompt-integration-paint4_linear" x1="57.0001" y1="153.2" x2="57.0001" y2="189.2" gradientUnits="userSpaceOnUse">
<stop stop-color="#FAC34B"/>
<stop offset="1" stop-color="#E99B26"/>
</linearGradient>
<linearGradient id="prompt-integration-paint5_linear" x1="57" y1="164" x2="57" y2="168.32" gradientUnits="userSpaceOnUse">
<stop stop-color="#F4F5F7"/>
<stop offset="1" stop-color="#DFE1E6"/>
</linearGradient>
<linearGradient id="prompt-integration-paint6_linear" x1="81.0001" y1="153.2" x2="81.0001" y2="189.2" gradientUnits="userSpaceOnUse">
<stop stop-color="#FAC34B"/>
<stop offset="1" stop-color="#E99B26"/>
</linearGradient>
<linearGradient id="prompt-integration-paint7_linear" x1="81" y1="164" x2="81" y2="168.32" gradientUnits="userSpaceOnUse">
<stop stop-color="#F4F5F7"/>
<stop offset="1" stop-color="#DFE1E6"/>
</linearGradient>
<clipPath id="prompt-integration-clip0">
<rect width="48" height="48" fill="white" transform="translate(45 134)"/>
</clipPath>
</defs>
</svg>
