<svg class="icon"
     viewBox="0 0 264 264"
     xmlns="http://www.w3.org/2000/svg"
>
  <defs>
    <path id="a" d="M0 .25h110.25V184H0z"/>
  </defs>
  <g fill="none" fill-rule="evenodd">
    <g transform="translate(63 54.124)">
      <path fill="#45D1E3"
            d="M101.062.25H9.187A9.189 9.189 0 0 0 0 9.438v165.374A9.19 9.19 0 0 0 9.187 184h91.875a9.189 9.189 0 0 0 9.188-9.188V9.438A9.188 9.188 0 0 0 101.062.25"
            mask="url(#b)"
      />
    </g>
    <path fill="#FFFFFF"
          d="M178.055 40.38H86.18a9.189 9.189 0 0 0-9.188 9.189v165.374a9.19 9.19 0 0 0 9.188 9.188h91.875a9.188 9.188 0 0 0 9.188-9.188V49.569a9.187 9.187 0 0 0-9.188-9.188"
    />
    <path fill="#000000"
          d="M98.737 184.012H165.5V62.125H98.737v121.887zm70.131 6.737h-73.5A3.367 3.367 0 0 1 92 187.381V58.756a3.368 3.368 0 0 1 3.368-3.369h73.5a3.37 3.37 0 0 1 3.369 3.369v128.625a3.369 3.369 0 0 1-3.369 3.368zm-82.688-147a5.826 5.826 0 0 0-5.818 5.819v165.375a5.826 5.826 0 0 0 5.818 5.819h91.875a5.827 5.827 0 0 0 5.82-5.819V49.568a5.827 5.827 0 0 0-5.82-5.819H86.18zm91.875 183.75H86.18c-6.923 0-12.555-5.632-12.555-12.556V49.568c0-6.923 5.632-12.556 12.555-12.556h91.875c6.924 0 12.557 5.633 12.557 12.556v165.375c0 6.924-5.633 12.556-12.557 12.556z"
    />
    <path fill="#000000"
          d="M147.737 208.851h-36.75a3.096 3.096 0 1 1 0-6.191h36.75a3.096 3.096 0 1 1 0 6.191M131.768 6C115.329 6 102 19.102 102 35.265c0 10.751 9.236 24.369 27.494 41.38l2.274 2.12 2.275-2.12c18.258-17.011 27.493-30.629 27.493-41.38C161.536 19.102 148.208 6 131.768 6"
    />
    <path fill="#FFFFFF"
          d="M132.118 17.845c-7.307 0-13.23 5.924-13.23 13.23a3.307 3.307 0 1 0 6.616 0 6.615 6.615 0 1 1 6.614 6.615 3.309 3.309 0 0 0-3.308 3.308v6.615a3.308 3.308 0 0 0 6.616 0v-3.716c5.706-1.442 9.922-6.543 9.922-12.822 0-7.306-5.923-13.23-13.23-13.23M132.118 54.227a3.309 3.309 0 1 0 .001 6.618 3.309 3.309 0 0 0-.001-6.617"
    />
    <path fill="#000000"
          d="M160.78 62.124l-25.417 25.419H98.737v6.737h16.99v25.42h-16.99v6.736h18.97l25.42 25.42h-44.39v6.737h16.99v25.42h6.739v-25.42H165.5v-6.737h-12.845l-25.42-25.42H165.5V119.7h-43.034V94.281H165.5v-6.739h-20.61l20.61-20.608v-4.81z"
    />
    <path fill="#45D1E3"
          d="M138.572 106.787a6.786 6.786 0 0 1-6.787 6.785 6.784 6.784 0 0 1-6.785-6.785 6.786 6.786 0 1 1 13.572 0"
    />
  </g>
</svg>
