<svg class="icon" viewBox="0 0 360 264" fill="none" xmlns="http://www.w3.org/2000/svg">
<path d="M122 53C122 44.1634 129.163 37 138 37H223C231.837 37 239 44.1634 239 53V211C239 219.837 231.837 227 223 227H138C129.163 227 122 219.837 122 211V53Z" fill="white"/>
<path fill-rule="evenodd" clip-rule="evenodd" d="M223 45H138C133.582 45 130 48.5817 130 53V211C130 215.418 133.582 219 138 219H223C227.418 219 231 215.418 231 211V53C231 48.5817 227.418 45 223 45ZM138 37C129.163 37 122 44.1634 122 53V211C122 219.837 129.163 227 138 227H223C231.837 227 239 219.837 239 211V53C239 44.1634 231.837 37 223 37H138Z" fill="#19194B"/>
<rect x="172" y="195" width="16" height="16" rx="8" fill="#19194B"/>
<path d="M134 57C134 52.5817 137.582 49 142 49H208L192 76H134V57Z" fill="#F4F5F7"/>
<path d="M214 49H219C223.418 49 227 52.5817 227 57V76H198L214 49Z" fill="#F4F5F7"/>
<path d="M134 82H161V113H134V82Z" fill="#F4F5F7"/>
<path d="M167 82H227V113H167V82Z" fill="#F4F5F7"/>
<path d="M134 156H161V187H134V156Z" fill="#F4F5F7"/>
<rect x="167" y="156" width="31" height="31" fill="#F4F5F7"/>
<path d="M221 119H227V150H221V119Z" fill="#F4F5F7"/>
<path d="M204 156H227V187H204V156Z" fill="#F4F5F7"/>
<path d="M134 119H161L177 150H134V119Z" fill="#F4F5F7"/>
<path d="M167 119H215V150H183L167 119Z" fill="#F4F5F7"/>
<g filter="url(#location-warning-filter0_d)">
<path fill-rule="evenodd" clip-rule="evenodd" d="M173.059 15.0623C170.447 14.8135 167.771 14.82 165.058 15.1051C162.346 15.3902 159.726 15.9404 157.224 16.7267C139.828 22.1928 128.087 39.0683 130.036 57.6085C131.518 71.7148 145.515 88.3091 171.817 108.111L175.093 110.579L177.786 107.484C199.396 82.646 209.635 63.5044 208.152 49.3982C206.204 30.8578 191.212 16.7919 173.059 15.0623ZM183.821 112.735L181.129 115.83C178.372 118.999 173.634 119.496 170.279 116.969L167.005 114.502C167.005 114.502 167.004 114.501 167.003 114.501C153.598 104.408 142.989 94.8863 135.467 85.838C128.005 76.8617 123.055 67.7225 122.08 58.4448C119.375 32.7158 138.387 9.86426 164.222 7.14892C190.058 4.43341 213.404 22.8332 216.108 48.5619C217.084 57.8395 214.142 67.8081 208.71 78.1398C203.234 88.5546 194.836 100.075 183.821 112.734C183.821 112.735 183.821 112.735 183.821 112.735Z" fill="white"/>
</g>
<path fill-rule="evenodd" clip-rule="evenodd" d="M165.058 15.1053C143.489 17.3723 127.807 36.4014 130.036 57.6087C131.518 71.715 145.515 88.3093 171.817 108.111L175.093 110.579L177.786 107.484C199.396 82.6462 209.635 63.5046 208.152 49.3983C205.923 28.1911 186.629 12.8381 165.058 15.1053Z" fill="url(#location-warning-paint0_linear)"/>
<g filter="url(#location-warning-filter1_d)">
<path fill-rule="evenodd" clip-rule="evenodd" d="M193.869 138.771C194.793 147.559 188.418 155.432 179.629 156.356C170.841 157.28 162.968 150.904 162.045 142.116C161.121 133.328 167.496 125.455 176.284 124.531C185.073 123.607 192.946 129.983 193.869 138.771ZM178.793 148.4C183.187 147.938 186.375 144.001 185.913 139.607C185.451 135.213 181.515 132.025 177.121 132.487C172.727 132.949 169.539 136.886 170.001 141.28C170.463 145.674 174.399 148.862 178.793 148.4Z" fill="white"/>
</g>
<circle cx="177.957" cy="140.444" r="8" transform="rotate(-6 177.957 140.444)" fill="url(#location-warning-paint1_linear)"/>
<path d="M165.839 78.4852C165.617 79.3346 165.566 80.2197 165.69 81.0889C165.942 82.836 166.86 84.418 168.251 85.5043C169.642 86.5907 171.399 87.0973 173.155 86.9184L173.276 86.9058C174.147 86.7992 174.989 86.5198 175.751 86.0839C176.514 85.6479 177.181 85.0642 177.715 84.367C178.249 83.6698 178.639 82.873 178.861 82.0234C179.083 81.1738 179.133 80.2884 179.009 79.4191C178.759 77.6711 177.842 76.0878 176.45 75.001C175.058 73.9143 173.3 73.4084 171.543 73.5897L171.423 73.6023C170.551 73.7094 169.71 73.9892 168.948 74.4254C168.186 74.8615 167.519 75.4451 166.985 76.1422C166.451 76.8393 166.062 77.6358 165.839 78.4852Z" fill="white"/>
<path d="M163.218 36.1656L166.025 62.8671C166.149 64.0474 166.736 65.1301 167.659 65.8769C168.581 66.6238 169.762 66.9737 170.943 66.8496C172.123 66.7256 173.206 66.1377 173.953 65.2154C174.699 64.2931 175.049 63.1119 174.925 61.9316L172.119 35.2301C171.995 34.0498 171.407 32.9672 170.485 32.2203C169.562 31.4734 168.381 31.1236 167.201 31.2476C166.02 31.3717 164.938 31.9595 164.191 32.8818C163.444 33.8041 163.094 34.9853 163.218 36.1656Z" fill="white"/>
<defs>
<filter id="location-warning-filter0_d" x="113.823" y="2.8833" width="110.47" height="127.696" filterUnits="userSpaceOnUse" color-interpolation-filters="sRGB">
<feFlood flood-opacity="0" result="BackgroundImageFix"/>
<feColorMatrix in="SourceAlpha" type="matrix" values="0 0 0 0 0 0 0 0 0 0 0 0 0 0 0 0 0 0 127 0"/>
<feOffset dy="4"/>
<feGaussianBlur stdDeviation="4"/>
<feColorMatrix type="matrix" values="0 0 0 0 0 0 0 0 0 0 0 0 0 0 0 0 0 0 0.24 0"/>
<feBlend mode="normal" in2="BackgroundImageFix" result="effect1_dropShadow"/>
<feBlend mode="normal" in="SourceGraphic" in2="effect1_dropShadow" result="shape"/>
</filter>
<filter id="location-warning-filter1_d" x="153.956" y="120.442" width="48.0026" height="48.0026" filterUnits="userSpaceOnUse" color-interpolation-filters="sRGB">
<feFlood flood-opacity="0" result="BackgroundImageFix"/>
<feColorMatrix in="SourceAlpha" type="matrix" values="0 0 0 0 0 0 0 0 0 0 0 0 0 0 0 0 0 0 127 0"/>
<feOffset dy="4"/>
<feGaussianBlur stdDeviation="4"/>
<feColorMatrix type="matrix" values="0 0 0 0 0 0 0 0 0 0 0 0 0 0 0 0 0 0 0.24 0"/>
<feBlend mode="normal" in2="BackgroundImageFix" result="effect1_dropShadow"/>
<feBlend mode="normal" in="SourceGraphic" in2="effect1_dropShadow" result="shape"/>
</filter>
<linearGradient id="location-warning-paint0_linear" x1="185.926" y1="212.003" x2="165.23" y2="15.0873" gradientUnits="userSpaceOnUse">
<stop offset="0.625051" stop-color="#E99B26"/>
<stop offset="1" stop-color="#F1BB5A"/>
</linearGradient>
<linearGradient id="location-warning-paint1_linear" x1="177.992" y1="165.444" x2="177.992" y2="132.444" gradientUnits="userSpaceOnUse">
<stop offset="0.625051" stop-color="#E99B26"/>
<stop offset="1" stop-color="#F1BB5A"/>
</linearGradient>
</defs>
</svg>
