<svg class="icon"
     viewBox="0 0 360 264"
     fill="none"
     xmlns="http://www.w3.org/2000/svg"
>
    <rect width="360" height="264" fill="white"/>
    <rect x="134" y="49" width="93" height="138" rx="4" fill="#F4F5F7"/>
    <rect x="126" y="41" width="109" height="182" rx="12" fill="white" stroke="#19194B" stroke-width="8"/>
    <rect x="173" y="195" width="16" height="16" rx="8" fill="#19194B"/>
    <rect x="134" y="49" width="93" height="138" rx="4" fill="#F4F5F7"/>
    <g filter="url(#prompt-permissions-filter0_d)">
        <path d="M246.116 61.3434L243.209 61.9136L241.118 51.2544C239.757 44.3154 235.695 38.2014 229.826 34.2572C223.957 30.3131 216.762 28.8619 209.823 30.2231C202.884 31.5842 196.77 35.6461 192.826 41.5151C188.881 47.3842 187.43 54.5797 188.791 61.5187L190.882 72.1779L187.975 72.7481C185.919 73.1514 184.108 74.3549 182.939 76.0939C181.77 77.8329 181.34 79.9649 181.744 82.0209L189.727 122.72C190.13 124.776 191.334 126.587 193.073 127.756C194.812 128.924 196.944 129.354 199 128.951L257.141 117.546C259.197 117.143 261.008 115.94 262.177 114.201C263.346 112.462 263.776 110.33 263.372 108.274L255.389 67.5749C254.986 65.5189 253.782 63.7073 252.043 62.5387C250.304 61.3701 248.172 60.9401 246.116 61.3434Z" fill="white"/>
    </g>
    <g filter="url(#prompt-permissions-filter1_d)">
        <path fill-rule="evenodd" clip-rule="evenodd" d="M249.677 53.3271L248.969 49.7145C247.199 40.6934 241.919 32.7448 234.288 27.6172C226.658 22.4896 217.304 20.6031 208.283 22.3726C199.262 24.1421 191.313 29.4228 186.186 37.0529C181.058 44.683 179.171 54.0375 180.941 63.0585L181.65 66.6711C179.525 67.8764 177.687 69.5664 176.299 71.6317C173.947 75.1317 173.082 79.4227 173.893 83.5607L181.877 124.259C182.688 128.398 185.111 132.044 188.611 134.396C192.111 136.748 196.402 137.613 200.54 136.801L258.681 125.397C262.819 124.585 266.465 122.163 268.817 118.663C271.169 115.163 272.034 110.872 271.223 106.734L263.239 66.035C262.428 61.8969 260.005 58.2508 256.505 55.8987C254.44 54.5108 252.099 53.6406 249.677 53.3271ZM246.116 61.3433L243.209 61.9136L241.118 51.2544C239.757 44.3154 235.695 38.2013 229.826 34.2572C223.957 30.313 216.762 28.8619 209.823 30.223C202.884 31.5841 196.77 35.646 192.826 41.5151C188.881 47.3841 187.43 54.5796 188.791 61.5186L190.882 72.1778L187.975 72.748C185.919 73.1513 184.108 74.3549 182.939 76.0938C181.77 77.8328 181.34 79.9648 181.744 82.0208L189.727 122.72C190.13 124.776 191.334 126.587 193.073 127.756C194.812 128.924 196.944 129.354 199 128.951L257.141 117.546C259.197 117.143 261.008 115.94 262.177 114.201C263.346 112.462 263.776 110.33 263.372 108.274L255.389 67.5749C254.986 65.5189 253.782 63.7073 252.043 62.5386C250.304 61.37 248.172 60.94 246.116 61.3433Z" fill="white"/>
    </g>
    <path d="M246.116 61.3434L243.209 61.9136L241.118 51.2544C239.757 44.3154 235.695 38.2014 229.826 34.2572C223.957 30.3131 216.762 28.8619 209.823 30.2231C202.884 31.5842 196.77 35.6461 192.826 41.5151C188.881 47.3842 187.43 54.5797 188.791 61.5187L190.882 72.1779L187.975 72.7481C185.919 73.1514 184.108 74.3549 182.939 76.0939C181.77 77.8329 181.34 79.9649 181.744 82.0209L189.727 122.72C190.13 124.776 191.334 126.587 193.073 127.756C194.812 128.924 196.944 129.354 199 128.951L257.141 117.546C259.197 117.143 261.008 115.94 262.177 114.201C263.346 112.462 263.776 110.33 263.372 108.274L255.389 67.5749C254.986 65.5189 253.782 63.7073 252.043 62.5387C250.304 61.3701 248.172 60.9401 246.116 61.3434ZM223.889 101.93C222.355 102.231 220.767 102.07 219.325 101.469C217.883 100.867 216.652 99.8512 215.788 98.5498C214.923 97.2483 214.464 95.7197 214.468 94.1573C214.472 92.5949 214.94 91.0687 215.811 89.7719C216.683 88.4751 217.919 87.4658 219.364 86.8717C220.809 86.2776 222.398 86.1254 223.93 86.4343C225.461 86.7432 226.867 87.4993 227.969 88.607C229.071 89.7148 229.819 91.1244 230.12 92.6576C230.523 94.7136 230.093 96.8456 228.925 98.5846C227.756 100.324 225.945 101.527 223.889 101.93ZM233.139 61.8764C233.24 62.3904 233.132 62.9234 232.84 63.3581C232.548 63.7929 232.095 64.0938 231.581 64.1946L202.51 69.8969C201.996 69.9978 201.463 69.8903 201.029 69.5981C200.594 69.3059 200.293 68.853 200.192 68.339L198.482 59.6179C197.625 55.2489 198.538 50.7184 201.022 47.0231C203.505 43.3277 207.355 40.7702 211.724 39.9132C216.093 39.0562 220.623 39.9699 224.318 42.4533C228.014 44.9366 230.571 48.7862 231.428 53.1552L233.139 61.8764Z" fill="#E99B26"/>
    <g filter="url(#prompt-permissions-filter2_d)">
        <path d="M146.812 135H154.687C155.036 135 155.369 135.138 155.616 135.384C155.862 135.631 156 135.964 156 136.312V144.187C156 144.36 155.967 144.531 155.901 144.69C155.835 144.85 155.739 144.994 155.617 145.117L152.223 148.511L153.551 153.259C153.686 153.741 153.681 154.252 153.536 154.731C153.39 155.21 153.111 155.637 152.731 155.963C152.351 156.288 151.885 156.498 151.39 156.568C150.894 156.638 150.389 156.564 149.933 156.357L146.111 154.619L144.206 156.525L145.153 162.867C145.22 163.31 145.173 163.763 145.015 164.182C144.858 164.602 144.595 164.974 144.253 165.263C143.911 165.553 143.501 165.75 143.061 165.836C142.621 165.922 142.167 165.894 141.741 165.754L136.666 164.064L130.597 170.135C132.514 174.333 132.896 179.071 131.674 183.522C130.453 187.972 127.707 191.852 123.916 194.484C120.125 197.116 115.53 198.333 110.933 197.922C106.336 197.51 102.03 195.497 98.7665 192.234C95.5031 188.97 93.4898 184.664 93.0784 180.068C92.667 175.471 93.8836 170.876 96.5157 167.085C99.1478 163.294 103.028 160.548 107.479 159.327C111.93 158.106 116.668 158.487 120.866 160.404L145.883 135.386C146.005 135.264 146.15 135.167 146.309 135.1C146.469 135.034 146.64 135 146.812 135Z" fill="white"/>
    </g>
    <g filter="url(#prompt-permissions-filter3_d)">
        <path fill-rule="evenodd" clip-rule="evenodd" d="M146.811 129H154.687C156.627 129 158.487 129.77 159.858 131.142C161.23 132.513 162 134.373 162 136.312V144.187C162 145.145 161.813 146.093 161.448 146.978C161.081 147.866 160.543 148.674 159.865 149.354L159.859 149.359L158.946 150.273L159.327 151.638C159.328 151.639 159.328 151.64 159.329 151.642C159.329 151.642 159.329 151.642 159.329 151.643C159.772 153.225 159.754 154.9 159.277 156.472C158.8 158.046 157.882 159.45 156.633 160.52C155.384 161.59 153.855 162.28 152.227 162.509C151.871 162.559 151.514 162.587 151.157 162.593C151.254 163.846 151.076 165.109 150.632 166.291C150.115 167.67 149.253 168.893 148.129 169.844C147.005 170.795 145.656 171.442 144.211 171.725C142.766 172.007 141.272 171.914 139.873 171.456L139.844 171.446L138.288 170.928L137.512 171.705C138.675 176.074 138.67 180.7 137.461 185.109C135.867 190.916 132.284 195.979 127.338 199.413C122.392 202.847 116.396 204.434 110.398 203.898C104.401 203.361 98.782 200.734 94.524 196.476C90.2659 192.219 87.6391 186.6 87.1023 180.603C86.5655 174.605 88.1529 168.609 91.5872 163.663C95.0214 158.717 100.084 155.134 105.891 153.541C110.301 152.331 114.926 152.327 119.295 153.49L141.634 131.15C141.635 131.149 141.636 131.147 141.638 131.146C142.316 130.467 143.121 129.927 144.008 129.559C144.897 129.19 145.849 129 146.811 129ZM145.883 135.386L120.866 160.404C116.668 158.487 111.93 158.106 107.479 159.327C103.028 160.548 99.1478 163.294 96.5157 167.085C93.8836 170.876 92.667 175.471 93.0784 180.068C93.4898 184.664 95.5031 188.97 98.7665 192.234C102.03 195.497 106.336 197.51 110.933 197.922C115.53 198.333 120.125 197.116 123.916 194.484C127.707 191.852 130.453 187.972 131.674 183.522C132.896 179.071 132.514 174.333 130.597 170.135L136.666 164.064L141.741 165.754C142.167 165.894 142.621 165.922 143.061 165.836C143.501 165.75 143.911 165.553 144.253 165.263C144.595 164.974 144.858 164.602 145.015 164.182C145.173 163.763 145.22 163.31 145.153 162.867L144.206 156.525L146.111 154.619L149.933 156.357C150.042 156.406 150.153 156.448 150.266 156.482C150.628 156.591 151.012 156.621 151.39 156.568C151.885 156.498 152.351 156.288 152.731 155.963C153.111 155.637 153.39 155.21 153.536 154.731C153.681 154.252 153.686 153.741 153.551 153.259L152.223 148.511L155.617 145.117C155.739 144.994 155.835 144.85 155.901 144.69C155.967 144.531 156 144.36 156 144.187V136.312C156 135.964 155.862 135.631 155.616 135.384C155.369 135.138 155.036 135 154.687 135H146.812C146.64 135 146.469 135.034 146.309 135.1C146.15 135.167 146.005 135.264 145.883 135.386Z" fill="white"/>
    </g>
        <path d="M154.687 135H146.812C146.64 135 146.469 135.034 146.309 135.1C146.15 135.167 146.005 135.264 145.883 135.386L120.866 160.404C116.668 158.487 111.93 158.106 107.479 159.327C103.028 160.548 99.1478 163.294 96.5157 167.085C93.8836 170.876 92.667 175.471 93.0784 180.068C93.4898 184.664 95.5031 188.97 98.7665 192.234C102.03 195.497 106.336 197.51 110.933 197.922C115.53 198.333 120.125 197.116 123.916 194.484C127.707 191.852 130.453 187.972 131.674 183.522C132.896 179.071 132.514 174.333 130.597 170.135L136.666 164.064L141.741 165.754C142.167 165.894 142.621 165.922 143.061 165.836C143.501 165.75 143.911 165.553 144.253 165.263C144.595 164.974 144.858 164.602 145.015 164.182C145.173 163.763 145.22 163.31 145.153 162.867L144.206 156.525L146.111 154.619L149.933 156.357C150.389 156.564 150.894 156.638 151.39 156.568C151.885 156.498 152.351 156.288 152.731 155.963C153.111 155.637 153.39 155.21 153.536 154.731C153.681 154.252 153.686 153.741 153.551 153.259L152.223 148.511L155.617 145.117C155.739 144.994 155.835 144.85 155.901 144.69C155.967 144.531 156 144.36 156 144.187V136.312C156 135.964 155.862 135.631 155.616 135.384C155.369 135.138 155.036 135 154.687 135V135ZM111.374 183.562C111.374 184.341 111.143 185.102 110.71 185.749C110.278 186.397 109.663 186.901 108.943 187.199C108.224 187.497 107.432 187.575 106.668 187.424C105.904 187.272 105.203 186.897 104.652 186.346C104.101 185.795 103.726 185.094 103.574 184.33C103.422 183.566 103.5 182.774 103.798 182.055C104.096 181.335 104.601 180.721 105.249 180.288C105.896 179.855 106.657 179.624 107.436 179.624C108.481 179.624 109.482 180.039 110.221 180.778C110.959 181.516 111.374 182.517 111.374 183.562Z" fill="#F8D07B"/>
    <defs>
        <filter id="prompt-permissions-filter0_d" x="173.596" y="25.7244" width="97.9242" height="115.375" filterUnits="userSpaceOnUse" color-interpolation-filters="sRGB">
            <feFlood flood-opacity="0" result="BackgroundImageFix"/>
            <feColorMatrix in="SourceAlpha" type="matrix" values="0 0 0 0 0 0 0 0 0 0 0 0 0 0 0 0 0 0 127 0"/>
            <feOffset dy="4"/>
            <feGaussianBlur stdDeviation="4"/>
            <feColorMatrix type="matrix" values="0 0 0 0 0 0 0 0 0 0 0 0 0 0 0 0 0 0 0.24 0"/>
            <feBlend mode="normal" in2="BackgroundImageFix" result="effect1_dropShadow"/>
            <feBlend mode="normal" in="SourceGraphic" in2="effect1_dropShadow" result="shape"/>
        </filter>
        <filter id="prompt-permissions-filter1_d" x="165.596" y="17.7242" width="113.924" height="131.375" filterUnits="userSpaceOnUse" color-interpolation-filters="sRGB">
            <feFlood flood-opacity="0" result="BackgroundImageFix"/>
            <feColorMatrix in="SourceAlpha" type="matrix" values="0 0 0 0 0 0 0 0 0 0 0 0 0 0 0 0 0 0 127 0"/>
            <feOffset dy="4"/>
            <feGaussianBlur stdDeviation="4"/>
            <feColorMatrix type="matrix" values="0 0 0 0 0 0 0 0 0 0 0 0 0 0 0 0 0 0 0.24 0"/>
            <feBlend mode="normal" in2="BackgroundImageFix" result="effect1_dropShadow"/>
            <feBlend mode="normal" in="SourceGraphic" in2="effect1_dropShadow" result="shape"/>
        </filter>
        <filter id="prompt-permissions-filter2_d" x="85" y="131" width="79" height="79" filterUnits="userSpaceOnUse" color-interpolation-filters="sRGB">
            <feFlood flood-opacity="0" result="BackgroundImageFix"/>
            <feColorMatrix in="SourceAlpha" type="matrix" values="0 0 0 0 0 0 0 0 0 0 0 0 0 0 0 0 0 0 127 0"/>
            <feOffset dy="4"/>
            <feGaussianBlur stdDeviation="4"/>
            <feColorMatrix type="matrix" values="0 0 0 0 0 0 0 0 0 0 0 0 0 0 0 0 0 0 0.24 0"/>
            <feBlend mode="normal" in2="BackgroundImageFix" result="effect1_dropShadow"/>
            <feBlend mode="normal" in="SourceGraphic" in2="effect1_dropShadow" result="shape"/>
        </filter>
        <filter id="prompt-permissions-filter3_d" x="79" y="125" width="91" height="91" filterUnits="userSpaceOnUse" color-interpolation-filters="sRGB">
            <feFlood flood-opacity="0" result="BackgroundImageFix"/>
            <feColorMatrix in="SourceAlpha" type="matrix" values="0 0 0 0 0 0 0 0 0 0 0 0 0 0 0 0 0 0 127 0"/>
            <feOffset dy="4"/>
            <feGaussianBlur stdDeviation="4"/>
            <feColorMatrix type="matrix" values="0 0 0 0 0 0 0 0 0 0 0 0 0 0 0 0 0 0 0.24 0"/>
            <feBlend mode="normal" in2="BackgroundImageFix" result="effect1_dropShadow"/>
            <feBlend mode="normal" in="SourceGraphic" in2="effect1_dropShadow" result="shape"/>
        </filter>
    </defs>
</svg>
