<svg class="icon"
     viewBox="0 0 264 264"
     xmlns="http://www.w3.org/2000/svg"
>
  <g fill="none" fill-rule="evenodd">
    <path fill="#45D1E3"
          d="M164.063 55.089H72.188A9.188 9.188 0 0 0 63 64.277v165.374a9.189 9.189 0 0 0 9.188 9.188h91.875a9.189 9.189 0 0 0 9.188-9.188V64.277a9.188 9.188 0 0 0-9.188-9.188"
    />
    <path fill="#FFFFFF"
          d="M178.057 41.096H86.182a9.188 9.188 0 0 0-9.188 9.188v165.374a9.189 9.189 0 0 0 9.188 9.188h91.875a9.189 9.189 0 0 0 9.188-9.188V50.284a9.188 9.188 0 0 0-9.188-9.188"
    />
    <path fill="#000000"
          d="M86.182 44.465a5.825 5.825 0 0 0-5.818 5.818v165.375a5.826 5.826 0 0 0 5.818 5.82h91.875a5.826 5.826 0 0 0 5.819-5.82V50.285a5.825 5.825 0 0 0-5.82-5.82H86.183zm91.875 183.75H86.182c-6.923 0-12.556-5.633-12.556-12.556V50.284c0-6.925 5.633-12.556 12.556-12.556h91.875c6.923 0 12.556 5.631 12.556 12.555v165.375c0 6.924-5.633 12.556-12.556 12.556z"
    />
    <path fill="#000000"
          d="M98.738 184.727H165.5V62.839H98.738v121.888zm70.131 6.737h-73.5a3.368 3.368 0 0 1-3.368-3.368V59.471a3.368 3.368 0 0 1 3.368-3.369h73.5a3.369 3.369 0 0 1 3.369 3.369v128.625a3.368 3.368 0 0 1-3.369 3.368zM150.493 209.84h-36.75a3.368 3.368 0 0 1 0-6.738h36.75a3.369 3.369 0 1 1 0 6.737"
    />
    <path fill="#45D1E3"
          d="M184.358 31.112a3.37 3.37 0 0 1-3.37-3.37V9.369a3.369 3.369 0 0 1 6.739 0v18.375a3.37 3.37 0 0 1-3.37 3.369m34.767 16.39h-18.375a3.37 3.37 0 0 1 0-6.737h18.375a3.37 3.37 0 0 1 0 6.738M196.408 35.453a3.368 3.368 0 0 1-2.382-5.751l12.993-12.993a3.37 3.37 0 0 1 4.764 4.765L198.79 34.466a3.358 3.358 0 0 1-2.382.987"
    />
    <path fill="#000000"
          d="M166.041 121.163a15.846 15.846 0 0 1-6.029 8.061c-.123-.218-.242-.438-.37-.653a32.22 32.22 0 0 0-4.892-6.275 3.394 3.394 0 0 0-5.792 2.4c0 .867.331 1.736.994 2.398a25.49 25.49 0 0 1 4.941 6.974c.134.281.258.566.382.852a25.03 25.03 0 0 1 1.137 3.222c.605 2.183.925 4.458.925 6.784 0 9.053-4.797 17.004-11.98 21.452a25.039 25.039 0 0 1-8.948 3.393c-.51.088-1.026.164-1.546.221a6.154 6.154 0 0 0 3.099-3.614 6.122 6.122 0 0 0 .292-1.865h-12.269c0 .65.103 1.276.292 1.865a6.15 6.15 0 0 0 3.1 3.614 25.219 25.219 0 0 1-1.547-.22 25.039 25.039 0 0 1-8.948-3.394c-7.183-4.448-11.98-12.399-11.98-21.452a25.323 25.323 0 0 1 2.445-10.859 25.387 25.387 0 0 1 4.941-6.973 3.383 3.383 0 0 0 .993-2.399 3.394 3.394 0 0 0-5.792-2.399 32.213 32.213 0 0 0-4.892 6.274c-.128.216-.247.436-.37.654a15.85 15.85 0 0 1-6.433-9.517h5.743a3.393 3.393 0 0 0 3.393-3.392 6.142 6.142 0 0 1 6.135-6.134 6.14 6.14 0 0 1 6.134 6.134 3.393 3.393 0 0 0 6.786 0v-.006a6.142 6.142 0 0 1 6.135-6.128c3.38 0 6.13 2.75 6.134 6.128v.006a3.393 3.393 0 0 0 3.392 3.392h.001a3.393 3.393 0 0 0 3.393-3.392v-.006a6.14 6.14 0 0 1 6.135-6.128 6.141 6.141 0 0 1 6.133 6.134 3.394 3.394 0 0 0 3.394 3.392h5.742c-.11.495-.246.98-.403 1.456m-14.866-17.768c-3.774 0-7.163 1.636-9.528 4.223-2.364-2.587-5.754-4.223-9.527-4.223-3.773 0-7.163 1.636-9.528 4.224-2.364-2.588-5.754-4.224-9.527-4.224-5.949 0-10.958 4.046-12.454 9.527H95.37v17.133a22.735 22.735 0 0 0 6.141 5.482 32.11 32.11 0 0 0-1.394 9.39c0 9.024 3.761 17.182 9.791 23.006-4.457 2.654-9.93 2.858-14.538.765v7.233a22.78 22.78 0 0 0 6.56.967c2.691 0 5.387-.478 7.944-1.442v10.603c0 .765.257 1.47.684 2.037h5.42a3.379 3.379 0 0 0 .683-2.037v-12.895h.418a31.798 31.798 0 0 0 15.041 3.766 31.8 31.8 0 0 0 15.042-3.766h.417v12.895c0 .765.256 1.47.683 2.037h5.42a3.379 3.379 0 0 0 .684-2.037v-10.605c4.665 1.76 9.787 1.887 14.504.468v-7.224c-4.607 2.092-10.08 1.887-14.537-.765 6.03-5.824 9.791-13.982 9.791-23.007 0-3.23-.477-6.386-1.394-9.389a22.716 22.716 0 0 0 6.14-5.482v-17.133h-5.242c-1.495-5.48-6.504-9.527-12.452-9.527M153.113 73.574c-2.754-7.23-9.153-12.626-16.778-14.104a22.188 22.188 0 0 0-4.216-.406c-1.436 0-2.846.141-4.216.406-7.625 1.478-14.024 6.874-16.778 14.104-4.988-2.237-10.612-2.525-15.756-.977v7.211a15.848 15.848 0 0 1 6.551-1.416 15.55 15.55 0 0 1 9.318 3.072 3.397 3.397 0 0 0 3.327.415 3.397 3.397 0 0 0 2.06-2.647c1.11-7.629 7.772-13.382 15.494-13.382 7.723 0 14.384 5.753 15.495 13.383A3.394 3.394 0 0 0 153 81.464c4.658-3.475 10.791-3.963 15.87-1.655v-7.212c-5.145-1.548-10.77-1.259-15.757.977"
    />
    <path fill="#000000"
          d="M122.592 130.5a3.394 3.394 0 1 0 .001 6.787 3.394 3.394 0 0 0-.001-6.787M141.647 130.5a3.394 3.394 0 1 0 0 6.787 3.394 3.394 0 0 0 0-6.787"
    />
  </g>
</svg>
