<svg class="icon" viewBox="0 0 360 267" fill="none" xmlns="http://www.w3.org/2000/svg">
<rect x="126" y="44" width="109" height="182" rx="12" fill="white" stroke="#19194B" stroke-width="8"/>
<rect x="172" y="198" width="16" height="16" rx="8" fill="#19194B"/>
<path d="M134 60C134 55.5817 137.582 52 142 52H208L192 79H134V60Z" fill="#F4F5F7"/>
<path d="M214 52H219C223.418 52 227 55.5817 227 60V79H198L214 52Z" fill="#F4F5F7"/>
<path d="M134 85H161V116H134V85Z" fill="#F4F5F7"/>
<path d="M167 85H227V116H167V85Z" fill="#F4F5F7"/>
<path d="M134 159H161V190H134V159Z" fill="#F4F5F7"/>
<rect x="167" y="159" width="31" height="31" fill="#F4F5F7"/>
<path d="M221 122H227V153H221V122Z" fill="#F4F5F7"/>
<path d="M204 159H227V190H204V159Z" fill="#F4F5F7"/>
<path d="M134 122H161L177 153H134V122Z" fill="#F4F5F7"/>
<path d="M167 122H215V153H183L167 122Z" fill="#F4F5F7"/>
<g filter="url(#cash-location-filter0_d)">
<mask id="cash-location-path-13-outside-1" maskUnits="userSpaceOnUse" x="135.264" y="-0.243575" width="106.187" height="121.317" fill="black">
<rect fill="white" x="135.264" y="-0.243575" width="106.187" height="121.317"/>
<path fill-rule="evenodd" clip-rule="evenodd" d="M193.149 12.654C171.58 10.387 152.284 25.7398 150.055 46.9471C148.573 61.0534 158.813 80.1951 180.423 105.033L183.115 108.128L186.392 105.66C212.694 85.8582 226.689 69.2637 228.172 55.1575C230.401 33.9502 214.72 14.9212 193.149 12.654Z"/>
</mask>
<path d="M192.313 20.6102C196.707 21.072 200.644 17.8843 201.105 13.4902C201.567 9.09617 198.38 5.15968 193.986 4.69784L192.313 20.6102ZM180.423 105.033L186.46 99.7837L186.459 99.7818L180.423 105.033ZM183.115 108.128L177.078 113.377C179.834 116.547 184.572 117.045 187.927 114.519L183.115 108.128ZM186.392 105.66L181.58 99.269L181.58 99.2695L186.392 105.66ZM193.986 4.69784C189.591 4.236 185.655 7.42371 185.193 11.8178C184.731 16.2119 187.919 20.1484 192.313 20.6102L193.986 4.69784ZM193.986 4.69784C168.151 1.98249 144.803 20.3819 142.099 46.1109L158.011 47.7833C159.765 31.0977 175.009 18.7915 192.313 20.6102L193.986 4.69784ZM142.099 46.1109C141.124 55.3886 144.066 65.3573 149.499 75.6889C154.975 86.1039 163.373 97.6241 174.388 110.284L186.459 99.7818C175.863 87.6039 168.336 77.1343 163.66 68.2424C158.941 59.2671 157.504 52.6118 158.011 47.7833L142.099 46.1109ZM174.386 110.282L177.078 113.377L189.152 102.879L186.46 99.7837L174.386 110.282ZM187.927 114.519L191.204 112.051L181.58 99.2695L178.302 101.737L187.927 114.519ZM191.204 112.051C204.61 101.958 215.219 92.4357 222.741 83.3869C230.203 74.4104 235.153 65.2713 236.128 55.9937L220.216 54.3212C219.708 59.1499 216.919 65.3612 210.437 73.159C204.015 80.8845 194.476 89.5602 181.58 99.269L191.204 112.051ZM236.128 55.9937C238.832 30.2649 219.822 7.41335 193.986 4.69784L192.313 20.6102C209.618 22.429 221.969 37.6355 220.216 54.3212L236.128 55.9937Z" fill="white" mask="url(#cash-location-path-13-outside-1)"/>
</g>
<path fill-rule="evenodd" clip-rule="evenodd" d="M193.149 12.654C171.58 10.387 152.284 25.7398 150.055 46.9471C148.573 61.0534 158.813 80.1951 180.423 105.033L183.115 108.128L186.392 105.66C212.694 85.8582 226.689 69.2637 228.172 55.1575C230.401 33.9502 214.72 14.9212 193.149 12.654Z" fill="url(#cash-location-paint0_linear)"/>
<g filter="url(#cash-location-filter1_d)">
<circle cx="179.707" cy="137.935" r="12" transform="rotate(6 179.707 137.935)" stroke="white" stroke-width="8" stroke-linecap="round" stroke-linejoin="round"/>
</g>
<circle cx="179.707" cy="137.935" r="8" transform="rotate(6 179.707 137.935)" fill="#007CBF"/>
<path d="M191.911 23.8476C186.797 23.3101 181.638 24.3012 177.087 26.6955C172.536 29.0899 168.798 32.7799 166.344 37.2991C163.89 41.8182 162.832 46.9635 163.302 52.0842C163.773 57.205 165.751 62.0712 168.987 66.0675C172.223 70.0639 176.572 73.0108 181.483 74.5357C186.394 76.0606 191.647 76.095 196.577 74.6345C201.508 73.174 205.895 70.2842 209.183 66.3306C212.471 62.377 214.513 57.5371 215.051 52.4229C215.771 45.5651 213.738 38.7018 209.399 33.3429C205.059 27.984 198.769 24.5684 191.911 23.8476ZM190.856 64.2304C190.726 64.236 190.602 64.2882 190.507 64.3774C190.412 64.4665 190.352 64.5868 190.339 64.7163L190.165 66.3648C190.09 67.0791 189.734 67.7344 189.176 68.1864C188.618 68.6385 187.903 68.8502 187.189 68.7752C186.474 68.7001 185.819 68.3443 185.367 67.7861C184.915 67.2278 184.703 66.5129 184.778 65.7986L184.938 64.2794C184.946 64.2086 184.939 64.137 184.919 64.0687C184.899 64.0004 184.866 63.9367 184.821 63.8814C184.776 63.826 184.721 63.7801 184.658 63.7462C184.596 63.7124 184.527 63.6913 184.456 63.6841L181.984 63.4243C181.27 63.3493 180.615 62.9935 180.163 62.4352C179.711 61.877 179.499 61.1621 179.574 60.4477C179.649 59.7334 180.005 59.0781 180.563 58.6261C181.121 58.174 181.836 57.9623 182.551 58.0373L190.282 58.8499C190.842 58.9086 191.405 58.7705 191.874 58.4594C192.343 58.1482 192.689 57.6834 192.852 57.1448C193.016 56.6062 192.987 56.0275 192.77 55.508C192.553 54.9885 192.162 54.5608 191.665 54.2982L184.151 50.3343C182.625 49.5355 181.406 48.2547 180.683 46.6912C179.961 45.1277 179.775 43.3693 180.156 41.6894C180.536 40.0096 181.461 38.5025 182.786 37.4028C184.112 36.3031 185.764 35.6724 187.485 35.6088C187.615 35.6036 187.739 35.5519 187.834 35.4631C187.929 35.3743 187.988 35.2543 188.002 35.125L188.176 33.4766C188.251 32.7622 188.606 32.107 189.165 31.6549C189.723 31.2029 190.438 30.9911 191.152 31.0662C191.866 31.1413 192.522 31.4971 192.974 32.0553C193.426 32.6135 193.638 33.3284 193.563 34.0428L193.403 35.5641C193.388 35.707 193.43 35.8499 193.52 35.9616C193.611 36.0732 193.742 36.1444 193.885 36.1594L196.356 36.4192C197.071 36.4943 197.726 36.85 198.178 37.4083C198.63 37.9665 198.842 38.6814 198.767 39.3958C198.692 40.1101 198.336 40.7654 197.778 41.2174C197.219 41.6695 196.504 41.8812 195.79 41.8062L188.059 40.9936C187.498 40.9335 186.935 41.0707 186.465 41.3815C185.995 41.6923 185.649 42.1573 185.485 42.6964C185.321 43.2354 185.35 43.8146 185.568 44.3343C185.785 44.854 186.177 45.2815 186.676 45.5432L194.19 49.5071C195.716 50.3059 196.935 51.5867 197.657 53.1501C198.38 54.7136 198.566 56.4721 198.185 58.1519C197.805 59.8318 196.88 61.3388 195.554 62.4385C194.229 63.5382 192.577 64.1668 190.856 64.2304Z" fill="white"/>
<defs>
<filter id="cash-location-filter0_d" x="133.914" y="0.432129" width="110.47" height="127.696" filterUnits="userSpaceOnUse" color-interpolation-filters="sRGB">
<feFlood flood-opacity="0" result="BackgroundImageFix"/>
<feColorMatrix in="SourceAlpha" type="matrix" values="0 0 0 0 0 0 0 0 0 0 0 0 0 0 0 0 0 0 127 0"/>
<feOffset dy="4"/>
<feGaussianBlur stdDeviation="4"/>
<feColorMatrix type="matrix" values="0 0 0 0 0 0 0 0 0 0 0 0 0 0 0 0 0 0 0.24 0"/>
<feBlend mode="normal" in2="BackgroundImageFix" result="effect1_dropShadow"/>
<feBlend mode="normal" in="SourceGraphic" in2="effect1_dropShadow" result="shape"/>
</filter>
<filter id="cash-location-filter1_d" x="155.706" y="117.934" width="48.0026" height="48.0026" filterUnits="userSpaceOnUse" color-interpolation-filters="sRGB">
<feFlood flood-opacity="0" result="BackgroundImageFix"/>
<feColorMatrix in="SourceAlpha" type="matrix" values="0 0 0 0 0 0 0 0 0 0 0 0 0 0 0 0 0 0 127 0"/>
<feOffset dy="4"/>
<feGaussianBlur stdDeviation="4"/>
<feColorMatrix type="matrix" values="0 0 0 0 0 0 0 0 0 0 0 0 0 0 0 0 0 0 0.24 0"/>
<feBlend mode="normal" in2="BackgroundImageFix" result="effect1_dropShadow"/>
<feBlend mode="normal" in="SourceGraphic" in2="effect1_dropShadow" result="shape"/>
</filter>
<linearGradient id="cash-location-paint0_linear" x1="193.149" y1="12.654" x2="177.399" y2="184.596" gradientUnits="userSpaceOnUse">
<stop stop-color="#00A0DF"/>
<stop offset="1" stop-color="#007CBF"/>
</linearGradient>
</defs>
</svg>
