<svg class="icon" viewBox="0 0 360 264" fill="none" xmlns="http://www.w3.org/2000/svg">
<rect x="126" y="41" width="109" height="182" rx="12" fill="white" stroke="#19194B" stroke-width="8"/>
<rect x="172" y="195" width="16" height="16" rx="8" fill="#19194B"/>
<path d="M134 57C134 52.5817 137.582 49 142 49H208L192 76H134V57Z" fill="#F4F5F7"/>
<path d="M214 49H219C223.418 49 227 52.5817 227 57V76H198L214 49Z" fill="#F4F5F7"/>
<path d="M134 82H161V113H134V82Z" fill="#F4F5F7"/>
<path d="M167 82H227V113H167V82Z" fill="#F4F5F7"/>
<path d="M134 156H161V187H134V156Z" fill="#F4F5F7"/>
<rect x="167" y="156" width="31" height="31" fill="#F4F5F7"/>
<path d="M221 119H227V150H221V119Z" fill="#F4F5F7"/>
<path d="M204 156H227V187H204V156Z" fill="#F4F5F7"/>
<path d="M134 119H161L177 150H134V119Z" fill="#F4F5F7"/>
<path d="M167 119H215V150H183L167 119Z" fill="#F4F5F7"/>
<g filter="url(#prompt-location-error-filter0_d)">
<mask id="prompt-location-error-path-13-outside-1" maskUnits="userSpaceOnUse" x="137.18" y="2.2076" width="106.187" height="121.317" fill="black">
<rect fill="white" x="137.18" y="2.2076" width="106.187" height="121.317"/>
<path fill-rule="evenodd" clip-rule="evenodd" d="M195.065 15.1052C173.496 12.8381 154.2 28.191 151.971 49.3983C150.488 63.5045 160.729 82.6462 182.339 107.484L185.03 110.579L188.308 108.111C214.61 88.3094 228.605 71.7149 230.088 57.6086C232.316 36.4014 216.636 17.3724 195.065 15.1052Z"/>
</mask>
<path d="M194.229 23.0614C198.623 23.5232 202.559 20.3355 203.021 15.9414C203.483 11.5473 200.295 7.61085 195.901 7.14901L194.229 23.0614ZM182.339 107.484L188.376 102.235L188.374 102.233L182.339 107.484ZM185.03 110.579L178.993 115.829C181.749 118.998 186.487 119.497 189.843 116.97L185.03 110.579ZM188.308 108.111L183.496 101.72L183.495 101.721L188.308 108.111ZM195.901 7.14901C191.507 6.68718 187.571 9.87489 187.109 14.269C186.647 18.663 189.835 22.5995 194.229 23.0614L195.901 7.14901ZM195.901 7.14901C170.067 4.43366 146.719 22.8331 144.015 48.562L159.927 50.2345C161.681 33.5489 176.925 21.2426 194.229 23.0614L195.901 7.14901ZM144.015 48.562C143.04 57.8398 145.982 67.8085 151.414 78.1401C156.891 88.555 165.289 100.075 176.304 112.735L188.374 102.233C177.779 90.0551 170.252 79.5855 165.576 70.6936C160.857 61.7183 159.42 55.063 159.927 50.2345L144.015 48.562ZM176.302 112.733L178.993 115.829L191.067 105.33L188.376 102.235L176.302 112.733ZM189.843 116.97L193.12 114.502L183.495 101.721L180.218 104.189L189.843 116.97ZM193.119 114.503C206.526 104.409 217.135 94.8868 224.657 85.838C232.119 76.8616 237.069 67.7224 238.044 58.4449L222.131 56.7724C221.624 61.6011 218.835 67.8123 212.353 75.6102C205.931 83.3357 196.392 92.0114 183.496 101.72L193.119 114.503ZM238.044 58.4449C240.748 32.7161 221.738 9.86452 195.901 7.14901L194.229 23.0614C211.534 24.8802 223.885 40.0866 222.131 56.7724L238.044 58.4449Z" fill="white" mask="url(#prompt-location-error-path-13-outside-1)"/>
</g>
<path fill-rule="evenodd" clip-rule="evenodd" d="M195.05 15.2458C173.481 12.9788 154.185 28.3316 151.956 49.5389C150.474 63.6452 160.714 82.7869 182.324 107.625L185.016 110.72L188.293 108.252C214.595 88.45 228.59 71.8555 230.073 57.7493C232.302 36.542 216.621 17.513 195.05 15.2458Z" fill="url(#prompt-location-error-paint0_linear)"/>
<path d="M207.883 69.5651C208.27 70.0262 208.561 70.5597 208.74 71.1344C208.918 71.7092 208.98 72.3137 208.923 72.9128C208.865 73.5118 208.689 74.0934 208.404 74.6235C208.119 75.1536 207.731 75.6217 207.263 76.0004C206.795 76.3791 206.257 76.6609 205.679 76.8293C205.101 76.9976 204.495 77.0493 203.897 76.9812C203.299 76.913 202.72 76.7265 202.195 76.4324C201.669 76.1384 201.208 75.7427 200.837 75.2685L191.556 63.8113C191.368 63.5795 191.137 63.3868 190.875 63.2444C190.613 63.102 190.326 63.0126 190.029 62.9815C189.732 62.9503 189.433 62.9779 189.147 63.0627C188.861 63.1476 188.595 63.2879 188.363 63.4758L176.902 72.7528C176.446 73.1742 175.908 73.4974 175.322 73.7023C174.736 73.9072 174.114 73.9896 173.494 73.9442C172.875 73.8987 172.271 73.7266 171.721 73.4384C171.171 73.1502 170.686 72.752 170.296 72.2686C169.906 71.7853 169.619 71.227 169.454 70.6284C169.289 70.0298 169.249 69.4037 169.336 68.7889C169.423 68.1742 169.635 67.5838 169.96 67.0545C170.285 66.5253 170.715 66.0683 171.223 65.712L182.684 56.435C182.916 56.2477 183.109 56.0165 183.251 55.7547C183.394 55.4928 183.483 55.2054 183.514 54.909C183.545 54.6125 183.518 54.3129 183.433 54.0271C183.348 53.7414 183.207 53.4752 183.02 53.2437L173.738 41.7866C173.313 41.3311 172.986 40.793 172.779 40.2058C172.571 39.6186 172.487 38.9949 172.531 38.3736C172.575 37.7524 172.747 37.1469 173.035 36.595C173.324 36.0431 173.724 35.5565 174.209 35.1658C174.694 34.7751 175.254 34.4885 175.855 34.324C176.456 34.1594 177.085 34.1205 177.701 34.2095C178.318 34.2986 178.91 34.5137 179.439 34.8415C179.969 35.1693 180.426 35.6028 180.781 36.1148L190.062 47.5719C190.249 47.8038 190.481 47.9965 190.743 48.1389C191.005 48.2813 191.292 48.3706 191.589 48.4018C191.885 48.433 192.185 48.4054 192.471 48.3205C192.757 48.2357 193.023 48.0953 193.255 47.9075L204.715 38.6304C205.172 38.2131 205.71 37.8938 206.295 37.6922C206.881 37.4906 207.501 37.4109 208.118 37.4581C208.735 37.5052 209.336 37.6782 209.884 37.9664C210.432 38.2546 210.915 38.6519 211.304 39.1338C211.692 39.6157 211.978 40.172 212.143 40.7683C212.308 41.3647 212.349 41.9886 212.264 42.6015C212.179 43.2144 211.969 43.8034 211.647 44.3321C211.326 44.8608 210.899 45.3181 210.394 45.6757L198.933 54.9528C198.701 55.1401 198.508 55.3713 198.366 55.6331C198.224 55.895 198.134 56.1824 198.103 56.4788C198.072 56.7752 198.1 57.0749 198.184 57.3607C198.269 57.6464 198.41 57.9126 198.598 58.144L207.883 69.5651Z" fill="white"/>
<g filter="url(#prompt-location-error-filter1_d)">
<circle cx="181.623" cy="140.386" r="12" transform="rotate(6 181.623 140.386)" stroke="white" stroke-width="8" stroke-linecap="round" stroke-linejoin="round"/>
</g>
<circle cx="181.623" cy="140.386" r="8" transform="rotate(6 181.623 140.386)" fill="#A92556"/>
<defs>
<filter id="prompt-location-error-filter0_d" x="135.83" y="2.8833" width="110.47" height="127.696" filterUnits="userSpaceOnUse" color-interpolation-filters="sRGB">
<feFlood flood-opacity="0" result="BackgroundImageFix"/>
<feColorMatrix in="SourceAlpha" type="matrix" values="0 0 0 0 0 0 0 0 0 0 0 0 0 0 0 0 0 0 127 0" result="hardAlpha"/>
<feOffset dy="4"/>
<feGaussianBlur stdDeviation="4"/>
<feColorMatrix type="matrix" values="0 0 0 0 0 0 0 0 0 0 0 0 0 0 0 0 0 0 0.24 0"/>
<feBlend mode="normal" in2="BackgroundImageFix" result="effect1_dropShadow"/>
<feBlend mode="normal" in="SourceGraphic" in2="effect1_dropShadow" result="shape"/>
</filter>
<filter id="prompt-location-error-filter1_d" x="157.621" y="120.385" width="48.0026" height="48.0026" filterUnits="userSpaceOnUse" color-interpolation-filters="sRGB">
<feFlood flood-opacity="0" result="BackgroundImageFix"/>
<feColorMatrix in="SourceAlpha" type="matrix" values="0 0 0 0 0 0 0 0 0 0 0 0 0 0 0 0 0 0 127 0" result="hardAlpha"/>
<feOffset dy="4"/>
<feGaussianBlur stdDeviation="4"/>
<feColorMatrix type="matrix" values="0 0 0 0 0 0 0 0 0 0 0 0 0 0 0 0 0 0 0.24 0"/>
<feBlend mode="normal" in2="BackgroundImageFix" result="effect1_dropShadow"/>
<feBlend mode="normal" in="SourceGraphic" in2="effect1_dropShadow" result="shape"/>
</filter>
<linearGradient id="prompt-location-error-paint0_linear" x1="195.05" y1="15.2458" x2="159.832" y2="208.001" gradientUnits="userSpaceOnUse">
<stop stop-color="#EB4B68"/>
<stop offset="1" stop-color="#CA365F"/>
</linearGradient>
</defs>
</svg>
