<svg viewBox="0 0 360 264" fill="none" xmlns="http://www.w3.org/2000/svg">
<rect width="360" height="264" fill="white"/>
<rect x="126" y="41.0001" width="109" height="182" rx="12" fill="white" stroke="#19194B" stroke-width="8"/>
<rect x="172" y="195" width="16" height="16" rx="8" fill="#19194B"/>
<path d="M134 57.0001C134 52.5818 137.582 49.0001 142 49.0001H208L192 76.0001H134V57.0001Z" fill="#F4F5F7"/>
<path d="M214 49.0001H219C223.418 49.0001 227 52.5818 227 57.0001V76.0001H198L214 49.0001Z" fill="#F4F5F7"/>
<path d="M134 82.0001H161V113H134V82.0001Z" fill="#F4F5F7"/>
<path d="M167 82.0001H227V113H167V82.0001Z" fill="#F4F5F7"/>
<path d="M134 156H161V187H134V156Z" fill="#F4F5F7"/>
<rect x="167" y="156" width="31" height="31" fill="#F4F5F7"/>
<path d="M221 119H227V150H221V119Z" fill="#F4F5F7"/>
<path d="M204 156H227V187H204V156Z" fill="#F4F5F7"/>
<path d="M134 119H161L177 150H134V119Z" fill="#F4F5F7"/>
<path d="M167 119H215V150H183L167 119Z" fill="#F4F5F7"/>
<g filter="url(#filter0_d)">
<mask id="path-15-outside-1" maskUnits="userSpaceOnUse" x="117.199" y="0.155659" width="106.187" height="121.317" fill="black">
<rect fill="white" x="117.199" y="0.155659" width="106.187" height="121.317"/>
<path fill-rule="evenodd" clip-rule="evenodd" d="M165.049 13.1006C143.48 15.3677 127.798 34.3968 130.027 55.6041C131.509 69.7103 145.506 86.3047 171.808 106.107L175.084 108.575L177.777 105.479C199.387 80.6415 209.626 61.5 208.143 47.3937C205.914 26.1864 186.62 10.8334 165.049 13.1006Z"/>
</mask>
<path d="M165.885 21.0568C170.28 20.595 173.467 16.6585 173.005 12.2644C172.544 7.87032 168.607 4.68261 164.213 5.14445L165.885 21.0568ZM171.808 106.107L176.622 99.717L176.62 99.7155L171.808 106.107ZM175.084 108.575L170.27 114.964C173.625 117.492 178.363 116.994 181.12 113.825L175.084 108.575ZM177.777 105.479L171.741 100.228L171.741 100.229L177.777 105.479ZM164.213 5.14445C159.819 5.60628 156.631 9.54278 157.093 13.9369C157.555 18.3309 161.491 21.5186 165.885 21.0568L164.213 5.14445ZM164.213 5.14445C138.378 7.8598 119.366 30.7114 122.071 56.4403L137.983 54.7678C136.229 38.0822 148.581 22.8755 165.885 21.0568L164.213 5.14445ZM122.071 56.4403C123.046 65.7181 127.996 74.8572 135.458 83.8336C142.98 92.8823 153.59 102.405 166.996 112.498L176.62 99.7155C163.724 90.0067 154.184 81.3309 147.762 73.6054C141.28 65.8075 138.49 59.5964 137.983 54.7678L122.071 56.4403ZM166.994 112.496L170.27 114.964L179.898 102.185L176.622 99.717L166.994 112.496ZM181.12 113.825L183.812 110.73L171.741 100.229L169.048 103.324L181.12 113.825ZM183.812 110.73C194.827 98.0705 203.224 86.5503 208.701 76.1353C214.133 65.8036 217.075 55.835 216.099 46.5575L200.187 48.2299C200.695 53.0586 199.258 59.714 194.539 68.6891C189.864 77.5809 182.337 88.0504 171.741 100.228L183.812 110.73ZM216.099 46.5575C213.395 20.8287 190.049 2.42894 164.213 5.14445L165.885 21.0568C183.191 19.238 198.433 31.5441 200.187 48.2299L216.099 46.5575Z" fill="white" mask="url(#path-15-outside-1)"/>
</g>
<path fill-rule="evenodd" clip-rule="evenodd" d="M165.049 13.1006C143.48 15.3677 127.798 34.3968 130.027 55.6041C131.509 69.7103 145.506 86.3047 171.808 106.107L175.084 108.575L177.777 105.479C199.387 80.6415 209.626 61.5 208.143 47.3937C205.914 26.1864 186.62 10.8334 165.049 13.1006Z" fill="#00A0DF"/>
<path fill-rule="evenodd" clip-rule="evenodd" d="M167.142 28.5936C157.554 29.6013 150.601 38.1908 151.609 47.7769C151.861 50.1741 154.007 51.9132 156.404 51.6612C158.801 51.4093 160.54 49.2618 160.288 46.8646C159.784 42.0716 163.261 37.7768 168.054 37.2731C172.848 36.7692 177.142 40.2472 177.646 45.0403C178.15 49.8347 174.673 54.1281 169.879 54.632C167.483 54.8838 165.742 57.0314 165.994 59.4286L166.907 68.108C167.159 70.5052 169.307 72.2427 171.703 71.9909C174.1 71.739 175.839 69.5928 175.587 67.1957L175.075 62.3199C182.363 59.641 187.191 52.3666 186.325 44.128C185.318 34.5419 176.729 27.5859 167.142 28.5936Z" fill="white"/>
<path fill-rule="evenodd" clip-rule="evenodd" d="M172.159 76.3312C169.763 76.583 168.023 78.7306 168.275 81.1277C168.527 83.5236 170.676 85.2624 173.071 85.0106C175.469 84.7587 177.208 82.6112 176.956 80.2154C176.704 77.8182 174.556 76.0792 172.159 76.3312Z" fill="white"/>
<g filter="url(#filter1_d)">
<circle cx="177.948" cy="138.439" r="12" transform="rotate(-6 177.948 138.439)" stroke="white" stroke-width="8" stroke-linecap="round" stroke-linejoin="round"/>
</g>
<circle cx="177.948" cy="138.439" r="8" transform="rotate(-6 177.948 138.439)" fill="#00A0DF"/>
<defs>
<filter id="filter0_d" x="113.814" y="0.878723" width="110.47" height="127.696" filterUnits="userSpaceOnUse" color-interpolation-filters="sRGB">
<feFlood flood-opacity="0" result="BackgroundImageFix"/>
<feColorMatrix in="SourceAlpha" type="matrix" values="0 0 0 0 0 0 0 0 0 0 0 0 0 0 0 0 0 0 127 0"/>
<feOffset dy="4"/>
<feGaussianBlur stdDeviation="4"/>
<feColorMatrix type="matrix" values="0 0 0 0 0 0 0 0 0 0 0 0 0 0 0 0 0 0 0.24 0"/>
<feBlend mode="normal" in2="BackgroundImageFix" result="effect1_dropShadow"/>
<feBlend mode="normal" in="SourceGraphic" in2="effect1_dropShadow" result="shape"/>
</filter>
<filter id="filter1_d" x="153.947" y="118.438" width="48.0026" height="48.0026" filterUnits="userSpaceOnUse" color-interpolation-filters="sRGB">
<feFlood flood-opacity="0" result="BackgroundImageFix"/>
<feColorMatrix in="SourceAlpha" type="matrix" values="0 0 0 0 0 0 0 0 0 0 0 0 0 0 0 0 0 0 127 0"/>
<feOffset dy="4"/>
<feGaussianBlur stdDeviation="4"/>
<feColorMatrix type="matrix" values="0 0 0 0 0 0 0 0 0 0 0 0 0 0 0 0 0 0 0.24 0"/>
<feBlend mode="normal" in2="BackgroundImageFix" result="effect1_dropShadow"/>
<feBlend mode="normal" in="SourceGraphic" in2="effect1_dropShadow" result="shape"/>
</filter>
</defs>
</svg>
