<svg viewBox="0 0 360 264" fill="none" xmlns="http://www.w3.org/2000/svg">
<rect width="360" height="264" fill="white"/>
<path d="M262.38 143.708L228.364 96L223 150.5L256 239C265.833 229.167 283.9 208.7 277.5 205.5C271.1 202.3 269.943 192.647 270.164 188.22V167.998C270.163 159.288 267.442 150.796 262.38 143.708Z" fill="#FFCEBF"/>
<rect x="124" y="52" width="109" height="182" rx="12" fill="white" stroke="#19194B" stroke-width="8"/>
<ellipse rx="5.33906" ry="9.39712" transform="matrix(-0.773431 -0.633881 -0.633881 0.773431 199.086 129.652)" fill="#77490E"/>
<ellipse cx="159.086" cy="129.652" rx="5.33906" ry="9.39712" transform="rotate(-39.337 159.086 129.652)" fill="#77490E"/>
<path opacity="0.15" d="M138 185.479C138 186.567 142.32 187.61 150.009 188.378C157.698 189.147 168.126 189.579 179 189.579C189.874 189.579 200.302 189.147 207.991 188.378C215.68 187.61 220 186.567 220 185.479C220 184.392 215.68 183.349 207.991 182.58C200.302 181.811 189.874 181.379 179 181.379C168.126 181.379 157.698 181.811 150.009 182.58C142.32 183.349 138 184.392 138 185.479Z" fill="#45413C"/>
<path d="M211.472 184.113H146.528V178.919C146.528 174.655 147.368 170.433 149 166.493C150.632 162.553 153.024 158.974 156.039 155.958C159.054 152.943 162.634 150.551 166.574 148.919C170.513 147.287 174.736 146.447 179 146.447C183.264 146.447 187.487 147.287 191.427 148.919C195.366 150.551 198.946 152.943 201.961 155.958C204.977 158.974 207.369 162.553 209 166.493C210.632 170.433 211.472 174.655 211.472 178.919V184.113Z" fill="#66C6EC"/>
<path d="M179 146.447C170.388 146.447 162.129 149.869 156.039 155.958C149.949 162.048 146.528 170.307 146.528 178.919V184.113H146.993C148.285 176.559 152.206 169.706 158.064 164.765C163.921 159.825 171.337 157.114 179 157.114C186.663 157.114 194.079 159.825 199.937 164.765C205.794 169.706 209.716 176.559 211.008 184.113H211.472V178.919C211.472 170.307 208.051 162.048 201.961 155.958C195.872 149.869 187.612 146.447 179 146.447Z" fill="#00A0DF"/>
<path d="M179 135.377C178.086 135.377 177.181 135.558 176.337 135.908C175.493 136.259 174.726 136.773 174.081 137.42C173.436 138.068 172.925 138.837 172.578 139.682C172.23 140.528 172.054 141.433 172.057 142.347V150.137C172.057 151.979 172.789 153.745 174.091 155.047C175.393 156.349 177.158 157.08 179 157.08C180.841 157.08 182.607 156.349 183.909 155.047C185.211 153.745 185.942 151.979 185.942 150.137V142.347C185.946 141.433 185.769 140.528 185.422 139.682C185.075 138.837 184.564 138.068 183.919 137.42C183.274 136.773 182.507 136.259 181.663 135.908C180.819 135.558 179.914 135.377 179 135.377Z" fill="#FFCEBF"/>
<path d="M179 135.377C177.158 135.377 175.393 136.109 174.091 137.411C172.789 138.713 172.057 140.479 172.057 142.32V143.96C172.057 145.801 172.789 147.567 174.091 148.869C175.393 150.171 177.158 150.903 179 150.903C180.841 150.903 182.607 150.171 183.909 148.869C185.211 147.567 185.942 145.801 185.942 143.96V142.347C185.946 141.433 185.769 140.528 185.422 139.682C185.074 138.837 184.564 138.068 183.919 137.42C183.274 136.773 182.507 136.259 181.663 135.908C180.819 135.558 179.914 135.377 179 135.377Z" fill="#FFB59E"/>
<path d="M178.7 80C176.451 80.0021 171.679 86.4395 169.5 87C164.416 88.148 160.332 83.9087 154.346 82.7607C154.113 84.3024 154.196 85.8755 154.591 87.384C154.986 88.8925 155.684 90.3048 156.642 91.5347C153.524 96.0295 151 98.1587 150.5 104.5C150 110.841 151.859 120.891 151.859 120.891H205.542V106.841C205.542 99.7226 202.714 92.8954 197.68 87.8616C192.646 82.8279 185.819 80 178.7 80Z" fill="#77490E"/>
<path d="M179 79C176 79 171.179 81.4394 169 82C163.916 83.148 160.332 83.9086 154.346 82.7606C153.976 85.6278 154.634 88.5333 156.204 90.9606C161.558 91.0441 166.894 90.316 172.03 88.8013C175.995 87.7788 180.141 87.6777 184.15 88.5058C188.16 89.3339 191.927 91.0691 195.162 93.5785C198.397 96.0879 201.014 99.3048 202.813 102.983C204.612 106.66 205.546 110.701 205.541 114.795C212 102.983 207 90 197.5 87.5C192.466 82.4663 186.119 79 179 79Z" fill="#77490E"/>
<path d="M208.411 118.841C208.278 117.837 207.844 116.897 207.165 116.146C206.487 115.394 205.596 114.866 204.612 114.631L202.999 114.194C201.811 113.858 200.766 113.141 200.025 112.154C199.284 111.166 198.888 109.962 198.899 108.727V103.151C198.896 102.024 198.522 100.929 197.836 100.035C197.149 99.1412 196.188 98.4978 195.1 98.204C189.887 100.285 184.283 95.1144 178.672 95C173.061 95.1144 167.512 100.285 162.3 98.204C161.206 98.4927 160.239 99.134 159.547 100.028C158.855 100.923 158.478 102.021 158.473 103.151V108.782C158.483 110.017 156.241 109.512 155.5 110.5C154.759 111.488 155.561 113.913 154.373 114.249L152.76 114.686C151.775 114.921 150.885 115.449 150.206 116.2C149.528 116.952 149.094 117.892 148.961 118.895C148.888 119.587 148.962 120.287 149.177 120.948C149.393 121.61 149.746 122.219 150.213 122.734C150.68 123.25 151.25 123.662 151.887 123.942C152.524 124.223 153.212 124.366 153.908 124.362H154.209C154.848 130.404 157.702 135.996 162.218 140.06C166.735 144.124 172.596 146.373 178.672 146.373C184.748 146.373 190.609 144.124 195.126 140.06C199.643 135.996 202.496 130.404 203.136 124.362H203.436C204.139 124.371 204.836 124.229 205.481 123.947C206.125 123.665 206.702 123.249 207.173 122.727C207.643 122.204 207.997 121.587 208.211 120.917C208.424 120.247 208.493 119.539 208.411 118.841Z" fill="#FFCEBF"/>
<path d="M163.857 118.267C163.857 118.683 163.981 119.09 164.212 119.436C164.443 119.782 164.772 120.052 165.157 120.211C165.541 120.37 165.964 120.412 166.373 120.331C166.781 120.25 167.156 120.049 167.45 119.755C167.745 119.461 167.945 119.086 168.026 118.677C168.108 118.269 168.066 117.846 167.907 117.461C167.747 117.077 167.478 116.748 167.131 116.517C166.785 116.285 166.378 116.162 165.962 116.162C165.685 116.158 165.409 116.21 165.152 116.315C164.895 116.419 164.662 116.574 164.466 116.77C164.27 116.966 164.115 117.2 164.01 117.457C163.906 117.714 163.854 117.989 163.857 118.267Z" fill="#19194B" stroke="#19194B" stroke-width="2.73333" stroke-linecap="round" stroke-linejoin="round"/>
<path d="M193.542 118.267C193.542 118.683 193.419 119.09 193.187 119.436C192.956 119.782 192.627 120.052 192.243 120.211C191.858 120.37 191.435 120.412 191.027 120.331C190.619 120.25 190.244 120.049 189.949 119.755C189.655 119.461 189.454 119.086 189.373 118.677C189.292 118.269 189.334 117.846 189.493 117.461C189.652 117.077 189.922 116.748 190.268 116.517C190.614 116.285 191.021 116.162 191.437 116.162C191.715 116.158 191.99 116.21 192.247 116.315C192.504 116.419 192.738 116.574 192.934 116.77C193.13 116.966 193.285 117.2 193.389 117.457C193.494 117.714 193.546 117.989 193.542 118.267Z" fill="#19194B" stroke="#19194B" stroke-width="2.73333" stroke-linecap="round" stroke-linejoin="round"/>
<path d="M170.938 131.086C170.765 131.09 170.595 131.131 170.439 131.206C170.283 131.282 170.146 131.39 170.036 131.523C169.921 131.652 169.837 131.805 169.79 131.97C169.743 132.136 169.733 132.31 169.763 132.48C170.132 134.582 171.23 136.488 172.865 137.86C174.499 139.233 176.566 139.986 178.701 139.986C180.835 139.986 182.902 139.233 184.536 137.86C186.171 136.488 187.269 134.582 187.639 132.48C187.668 132.31 187.658 132.136 187.611 131.97C187.564 131.805 187.48 131.652 187.365 131.523C187.255 131.39 187.118 131.282 186.962 131.206C186.806 131.131 186.636 131.09 186.463 131.086H170.938Z" fill="#EB4B68"/>
<path d="M178.7 134.913C176.232 134.816 173.804 135.558 171.812 137.017C172.673 137.976 173.727 138.744 174.904 139.269C176.081 139.794 177.356 140.065 178.645 140.065C179.934 140.065 181.209 139.794 182.386 139.269C183.563 138.744 184.617 137.976 185.478 137.017C183.516 135.581 181.13 134.841 178.7 134.913Z" fill="#F99493"/>
<circle cx="167" cy="117" r="1" fill="white"/>
<circle cx="192" cy="117" r="1" fill="white"/>
<path d="M155.12 122.343C156.219 120.675 154.663 117.016 153.747 115.395L151 108.446L157.867 93.1602C164.735 92.697 179.019 91.6316 181.217 91.0757C183.414 90.5199 191.289 93.1602 194.952 94.5499L202.506 108.446L205.5 115L202.506 122.343C202.506 120.027 202.231 115.395 201.133 115.395C199.901 115.395 195.356 109.249 194.925 103.47C194.865 102.653 193.951 102.072 193.232 102.464C188.103 105.265 179.861 109.066 174.349 108.446C173.537 108.355 175.553 104.97 177.03 102.659C177.282 102.264 176.905 101.761 176.455 101.892C170.839 103.529 167.858 104.123 159.964 111.311C159.069 112.125 158.634 113.322 158.61 114.532C158.46 122.036 153.849 124.272 155.12 122.343Z" fill="#77490E"/>
<circle cx="178.5" cy="64.5" r="3.5" fill="#19194B"/>
<path d="M128 171H229V222C229 226.418 225.418 230 221 230H136C131.582 230 128 226.418 128 222V171Z" fill="white"/>
<rect x="149" y="179" width="60" height="5" rx="2.5" fill="#EBECF0"/>
<rect x="159" y="188" width="40" height="5" rx="2.5" fill="#EBECF0"/>
<circle cx="179" cy="212" r="12" fill="#EBECF0"/>
<circle cx="179" cy="212" r="8" fill="#00A0DF"/>
<rect x="128" y="171" width="101" height="1" fill="#EBECF0"/>
<path d="M255.812 238.194L228.317 221.948C225.845 220.252 223.89 217.906 222.668 215.168C221.447 212.43 221.007 209.408 221.397 206.435V189.436L211.616 179.163C210.326 177.876 209.338 176.318 208.723 174.603C208.108 172.888 207.881 171.058 208.059 169.244C208.236 167.431 208.814 165.679 209.751 164.116C210.687 162.553 211.959 161.217 213.474 160.204C215.844 158.627 218.686 157.919 221.519 158.2C224.352 158.481 227 159.734 229.014 161.746L243.514 176.246" fill="#FFCEBF"/>
<g filter="url(#filter0_d)">
<mask id="path-30-outside-1" maskUnits="userSpaceOnUse" x="73.3145" y="7.12771" width="93.5193" height="84.5288" fill="black">
<rect fill="white" x="73.3145" y="7.12771" width="93.5193" height="84.5288"/>
<path fill-rule="evenodd" clip-rule="evenodd" d="M96.953 37.6054L89.3675 40.3093C89.0328 40.4306 88.6637 40.414 88.3413 40.2631C88.0189 40.1122 87.7696 39.8395 87.6483 39.5048L87.4342 38.9143C87.0703 37.9103 87.1201 36.8029 87.5727 35.8357C88.0253 34.8685 88.8436 34.1207 89.8475 33.7567L92.3712 32.842C93.3751 32.4781 94.4825 32.5279 95.4498 32.9805C96.417 33.4331 97.1648 34.2514 97.5287 35.2553L97.7574 35.8862C97.8787 36.2209 97.8621 36.59 97.7112 36.9124C97.5604 37.2348 97.2876 37.4841 96.953 37.6054ZM138.103 25.5446L134.782 26.7484C134.513 26.8353 134.224 26.8406 133.951 26.7635C133.679 26.6864 133.435 26.5304 133.252 26.3152L133.247 26.3105C130.496 23.5865 127.65 20.7681 124.144 22.0389L111.526 26.6126C108.823 27.5923 108.109 30.0725 106.82 34.5741C106.734 34.87 106.661 35.1394 106.596 35.3842C106.287 36.5302 106.124 37.136 105.43 37.3878L90.288 42.8763C85.0818 44.7634 85.0924 48.2114 86.02 50.7704L95.5224 76.9858C95.7696 77.8507 96.2067 78.6497 96.8017 79.3244C97.3967 79.9992 98.1347 80.5327 98.9619 80.8863C99.7891 81.2398 100.685 81.4045 101.584 81.3682C102.483 81.3319 103.362 81.0957 104.158 80.6766L151.824 63.3989C152.704 63.2106 153.531 62.8284 154.244 62.2803C154.957 61.7322 155.539 61.0319 155.948 60.2304C156.356 59.4289 156.581 58.5464 156.606 57.6471C156.63 56.7478 156.454 55.8544 156.089 55.0319L146.587 28.8165C145.659 26.2576 143.435 23.6117 138.103 25.5446Z"/>
</mask>
<path fill-rule="evenodd" clip-rule="evenodd" d="M96.953 37.6054L89.3675 40.3093C89.0328 40.4306 88.6637 40.414 88.3413 40.2631C88.0189 40.1122 87.7696 39.8395 87.6483 39.5048L87.4342 38.9143C87.0703 37.9103 87.1201 36.8029 87.5727 35.8357C88.0253 34.8685 88.8436 34.1207 89.8475 33.7567L92.3712 32.842C93.3751 32.4781 94.4825 32.5279 95.4498 32.9805C96.417 33.4331 97.1648 34.2514 97.5287 35.2553L97.7574 35.8862C97.8787 36.2209 97.8621 36.59 97.7112 36.9124C97.5604 37.2348 97.2876 37.4841 96.953 37.6054ZM138.103 25.5446L134.782 26.7484C134.513 26.8353 134.224 26.8406 133.951 26.7635C133.679 26.6864 133.435 26.5304 133.252 26.3152L133.247 26.3105C130.496 23.5865 127.65 20.7681 124.144 22.0389L111.526 26.6126C108.823 27.5923 108.109 30.0725 106.82 34.5741C106.734 34.87 106.661 35.1394 106.596 35.3842C106.287 36.5302 106.124 37.136 105.43 37.3878L90.288 42.8763C85.0818 44.7634 85.0924 48.2114 86.02 50.7704L95.5224 76.9858C95.7696 77.8507 96.2067 78.6497 96.8017 79.3244C97.3967 79.9992 98.1347 80.5327 98.9619 80.8863C99.7891 81.2398 100.685 81.4045 101.584 81.3682C102.483 81.3319 103.362 81.0957 104.158 80.6766L151.824 63.3989C152.704 63.2106 153.531 62.8284 154.244 62.2803C154.957 61.7322 155.539 61.0319 155.948 60.2304C156.356 59.4289 156.581 58.5464 156.606 57.6471C156.63 56.7478 156.454 55.8544 156.089 55.0319L146.587 28.8165C145.659 26.2576 143.435 23.6117 138.103 25.5446Z" fill="white"/>
<path d="M89.3675 40.3093L87.3529 34.6576C87.3429 34.6612 87.3328 34.6648 87.3228 34.6684L89.3675 40.3093ZM96.953 37.6054L98.9675 43.2571C98.9776 43.2535 98.9876 43.2499 98.9976 43.2463L96.953 37.6054ZM88.3413 40.2631L90.8842 34.8286L90.8842 34.8286L88.3413 40.2631ZM87.6483 39.5048L82.0074 41.5495L87.6483 39.5048ZM87.4342 38.9143L93.0751 36.8696L87.4342 38.9143ZM97.5287 35.2553L103.17 33.2107L97.5287 35.2553ZM97.7574 35.8862L92.1165 37.9309L97.7574 35.8862ZM134.782 26.7484L136.625 32.4582C136.693 32.4364 136.76 32.4134 136.827 32.3893L134.782 26.7484ZM138.103 25.5446L140.148 31.1855L138.103 25.5446ZM133.951 26.7635L132.317 32.5367L132.317 32.5367L133.951 26.7635ZM133.252 26.3152L137.814 22.4186C137.705 22.2908 137.59 22.1676 137.471 22.0495L133.252 26.3152ZM133.247 26.3105L129.025 30.5739L129.027 30.5762L133.247 26.3105ZM124.144 22.0389L126.189 27.6797L124.144 22.0389ZM111.526 26.6126L109.481 20.9717L111.526 26.6126ZM106.82 34.5741L112.583 36.2435C112.584 36.2377 112.586 36.2318 112.588 36.226L106.82 34.5741ZM106.596 35.3842L112.39 36.943L112.39 36.9429L106.596 35.3842ZM105.43 37.3878L107.474 43.0287L105.43 37.3878ZM90.288 42.8763L88.2433 37.2354L90.288 42.8763ZM95.5224 76.9858L101.291 75.3366C101.253 75.2033 101.21 75.0714 101.163 74.9411L95.5224 76.9858ZM96.8017 79.3244L92.3014 83.2928L92.3014 83.2928L96.8017 79.3244ZM98.9619 80.8863L101.32 75.3691L101.32 75.3691L98.9619 80.8863ZM101.584 81.3682L101.342 75.3731L101.342 75.3731L101.584 81.3682ZM104.158 80.6766L102.113 75.0358C101.856 75.129 101.605 75.2398 101.363 75.3673L104.158 80.6766ZM151.824 63.3989L150.568 57.5319C150.3 57.5892 150.037 57.6648 149.78 57.758L151.824 63.3989ZM154.244 62.2803L150.588 57.5226L150.588 57.5226L154.244 62.2803ZM156.606 57.6471L150.608 57.484L150.608 57.484L156.606 57.6471ZM156.089 55.0319L150.448 57.0766C150.496 57.2069 150.547 57.3355 150.604 57.4622L156.089 55.0319ZM91.382 45.961L98.9675 43.2571L94.9384 31.9537L87.3529 34.6576L91.382 45.961ZM85.7984 45.6976C87.5621 46.5229 89.5814 46.6137 91.4121 45.9501L87.3228 34.6684C88.4842 34.2474 89.7653 34.3051 90.8842 34.8286L85.7984 45.6976ZM82.0074 41.5495C82.671 43.3802 84.0346 44.8723 85.7984 45.6976L90.8842 34.8286C92.0031 35.3522 92.8682 36.2988 93.2891 37.4602L82.0074 41.5495ZM81.7934 40.959L82.0074 41.5495L93.2891 37.4602L93.0751 36.8696L81.7934 40.959ZM82.1382 33.2928C81.0112 35.7014 80.8872 38.459 81.7934 40.959L93.0751 36.8696C93.2535 37.3617 93.229 37.9045 93.0072 38.3786L82.1382 33.2928ZM87.8029 28.1159C85.3029 29.0221 83.2652 30.8843 82.1382 33.2928L93.0072 38.3786C92.7854 38.8527 92.3843 39.2192 91.8922 39.3976L87.8029 28.1159ZM90.3265 27.2011L87.8029 28.1159L91.8922 39.3976L94.4158 38.4829L90.3265 27.2011ZM97.9927 27.546C95.5841 26.419 92.8265 26.295 90.3265 27.2011L94.4158 38.4829C93.9237 38.6612 93.3809 38.6368 92.9069 38.415L97.9927 27.546ZM103.17 33.2107C102.263 30.7106 100.401 28.673 97.9927 27.546L92.9069 38.415C92.4328 38.1932 92.0662 37.7921 91.8879 37.3L103.17 33.2107ZM103.398 33.8416L103.17 33.2107L91.8879 37.3L92.1165 37.9309L103.398 33.8416ZM103.146 39.4553C103.971 37.6916 104.062 35.6723 103.398 33.8416L92.1165 37.9309C91.6956 36.7695 91.7532 35.4884 92.2767 34.3695L103.146 39.4553ZM98.9976 43.2463C100.828 42.5827 102.32 41.219 103.146 39.4553L92.2767 34.3695C92.8003 33.2506 93.7469 32.3855 94.9083 31.9645L98.9976 43.2463ZM136.827 32.3893L140.148 31.1855L136.058 19.9037L132.737 21.1075L136.827 32.3893ZM132.317 32.5367C133.729 32.9365 135.228 32.9092 136.625 32.4582L132.939 21.0386C133.797 20.7615 134.718 20.7448 135.585 20.9903L132.317 32.5367ZM128.689 30.2118C129.642 31.328 130.905 32.1369 132.317 32.5367L135.585 20.9904C136.453 21.2359 137.228 21.7329 137.814 22.4186L128.689 30.2118ZM129.027 30.5762L129.032 30.581L137.471 22.0495L137.466 22.0448L129.027 30.5762ZM126.189 27.6797C126.098 27.7125 125.904 27.7426 125.713 27.7122C125.576 27.6903 125.629 27.6658 125.917 27.8367C126.214 28.0132 126.621 28.3132 127.179 28.8069C127.741 29.3043 128.315 29.8708 129.025 30.5739L137.469 22.0471C136.231 20.8214 134.293 18.8532 132.04 17.5166C129.525 16.024 126.039 14.97 122.099 16.398L126.189 27.6797ZM113.57 32.2534L126.189 27.6797L122.099 16.398L109.481 20.9717L113.57 32.2534ZM112.588 36.226C112.919 35.0698 113.171 34.1933 113.417 33.4478C113.662 32.7039 113.84 32.2823 113.968 32.0369C114.083 31.8159 114.091 31.8675 113.948 32.0017C113.781 32.1591 113.615 32.2373 113.57 32.2534L109.481 20.9717C106.435 22.076 104.538 24.1559 103.317 26.5083C102.299 28.4695 101.633 30.8931 101.051 32.9223L112.588 36.226ZM112.39 36.9429C112.456 36.6944 112.515 36.477 112.583 36.2435L101.057 32.9047C100.953 33.263 100.866 33.5844 100.802 33.8254L112.39 36.9429ZM107.474 43.0287C109.471 42.3049 110.761 40.9043 111.504 39.4441C112.02 38.4302 112.3 37.2768 112.39 36.943L100.802 33.8254C100.715 34.1456 100.681 34.2704 100.655 34.3522C100.63 34.4319 100.676 34.2638 100.811 33.9986C100.961 33.7032 101.253 33.2241 101.764 32.7468C102.294 32.2511 102.871 31.9331 103.385 31.7469L107.474 43.0287ZM92.3327 48.5171L107.474 43.0287L103.385 31.7469L88.2433 37.2354L92.3327 48.5171ZM91.6609 48.7257C91.5682 48.4701 91.5506 48.3299 91.5487 48.302C91.5479 48.2915 91.5589 48.446 91.4711 48.6799C91.4287 48.7929 91.3751 48.8914 91.3214 48.9681C91.2685 49.0437 91.2349 49.0706 91.2509 49.0566C91.2886 49.0235 91.5696 48.7937 92.3327 48.5171L88.2433 37.2354C84.5158 38.5865 81.5582 40.9418 80.2365 44.4629C78.9986 47.7608 79.6714 50.8625 80.3791 52.8151L91.6609 48.7257ZM101.163 74.9411L91.6609 48.7257L80.3791 52.8151L89.8815 79.0304L101.163 74.9411ZM101.302 75.3561C101.297 75.3504 101.293 75.3438 101.291 75.3366L89.7535 78.635C90.246 80.3577 91.1164 81.9489 92.3014 83.2928L101.302 75.3561ZM101.32 75.3691C101.313 75.3661 101.307 75.3617 101.302 75.3561L92.3014 83.2928C93.4865 84.6366 94.9563 85.6994 96.6039 86.4035L101.32 75.3691ZM101.342 75.3731C101.334 75.3734 101.327 75.372 101.32 75.3691L96.6039 86.4035C98.2514 87.1077 100.035 87.4356 101.826 87.3633L101.342 75.3731ZM101.363 75.3673C101.357 75.3708 101.349 75.3728 101.342 75.3731L101.826 87.3633C103.616 87.2911 105.367 86.8205 106.953 85.9859L101.363 75.3673ZM149.78 57.758L102.113 75.0358L106.203 86.3175L153.869 69.0398L149.78 57.758ZM150.588 57.5226C150.582 57.5272 150.575 57.5303 150.568 57.5319L153.08 69.2659C154.833 68.8908 156.479 68.1297 157.9 67.038L150.588 57.5226ZM150.602 57.5055C150.599 57.5122 150.594 57.518 150.588 57.5226L157.9 67.038C159.32 65.9463 160.48 64.5516 161.293 62.9553L150.602 57.5055ZM150.608 57.484C150.608 57.4915 150.606 57.4988 150.602 57.5055L161.293 62.9553C162.107 61.3589 162.555 59.6013 162.603 57.8102L150.608 57.484ZM150.604 57.4622C150.607 57.4691 150.608 57.4765 150.608 57.484L162.603 57.8102C162.652 56.0191 162.301 54.2397 161.575 52.6016L150.604 57.4622ZM140.946 30.8612L150.448 57.0766L161.73 52.9872L152.228 26.7718L140.946 30.8612ZM140.148 31.1855C140.956 30.8923 141.361 30.8783 141.448 30.8797C141.487 30.8804 141.458 30.8838 141.379 30.8633C141.298 30.8424 141.199 30.8051 141.095 30.7475C140.877 30.627 140.779 30.4983 140.776 30.4944C140.776 30.4944 140.777 30.4963 140.78 30.5002C140.782 30.5042 140.786 30.51 140.791 30.518C140.801 30.5342 140.814 30.5577 140.831 30.5896C140.864 30.6547 140.904 30.7445 140.946 30.8612L152.228 26.7718C151.511 24.7957 150.017 21.9677 146.899 20.2447C143.602 18.4225 139.807 18.5451 136.058 19.9037L140.148 31.1855Z" fill="white" mask="url(#path-30-outside-1)"/>
</g>
<path d="M131.045 58.7966C136.271 56.9021 138.972 51.1293 137.078 45.9027C135.183 40.6761 129.411 37.9749 124.184 39.8694C118.958 41.7639 116.256 47.5367 118.151 52.7633C120.045 57.9899 125.818 60.6911 131.045 58.7966Z" fill="#66C6EC"/>
<path d="M138.103 25.5446L134.782 26.7484C134.513 26.8354 134.224 26.8406 133.951 26.7635C133.679 26.6864 133.435 26.5305 133.252 26.3152C130.499 23.5897 127.652 20.7674 124.144 22.0389L111.526 26.6126C108.823 27.5923 108.109 30.0725 106.82 34.5742C106.333 36.2554 106.273 37.0823 105.43 37.3878L90.288 42.8763C85.0817 44.7634 85.0924 48.2115 86.02 50.7704L95.5223 76.9858C95.7696 77.8508 96.2067 78.6497 96.8017 79.3244C97.3967 79.9992 98.1346 80.5327 98.9619 80.8863C99.7891 81.2399 100.685 81.4045 101.584 81.3682C102.483 81.3319 103.41 80.9476 104.158 80.6766L151.824 63.3989C152.701 63.081 153.53 62.8284 154.244 62.2803C154.957 61.7322 155.539 61.0319 155.948 60.2304C156.356 59.4289 156.581 58.5464 156.606 57.6471C156.63 56.7478 156.454 55.8544 156.089 55.0319L146.587 28.8165C145.659 26.2576 143.435 23.6117 138.103 25.5446ZM142.124 44.0735C143.164 46.9434 143.33 50.0574 142.601 53.0217C141.871 55.9859 140.279 58.6673 138.026 60.7267C135.772 62.7861 132.959 64.131 129.941 64.5914C126.923 65.0518 123.837 64.607 121.072 63.3132C118.307 62.0194 115.987 59.9348 114.407 57.3229C112.827 54.711 112.057 51.6892 112.194 48.6396C112.331 45.59 113.37 42.6496 115.178 40.1901C116.986 37.7307 119.483 35.8627 122.353 34.8224C126.202 33.4319 130.445 33.625 134.152 35.3594C137.858 37.0937 140.725 40.2276 142.124 44.0735ZM100.035 50.0503C100.261 50.6742 100.297 51.3511 100.139 51.9955C99.9799 52.6399 99.6338 53.2228 99.1439 53.6705C98.6541 54.1182 98.0425 54.4106 97.3864 54.5107C96.7304 54.6108 96.0594 54.5141 95.4583 54.2328C94.8572 53.9515 94.3531 53.4984 94.0095 52.9306C93.666 52.3628 93.4986 51.7058 93.5284 51.0429C93.5582 50.3799 93.784 49.7407 94.1771 49.206C94.5702 48.6714 95.113 48.2653 95.7369 48.0392C96.5736 47.7359 97.4964 47.7774 98.3024 48.1546C99.1085 48.5317 99.7316 49.2136 100.035 50.0503Z" fill="#007CBF"/>
<path d="M89.3675 40.3093L96.953 37.6054C97.2876 37.4841 97.5604 37.2349 97.7112 36.9125C97.8621 36.5901 97.8787 36.2209 97.7574 35.8863L97.5287 35.2554C97.1648 34.2514 96.417 33.4331 95.4497 32.9805C94.4825 32.528 93.3751 32.4781 92.3712 32.842L89.8475 33.7568C88.8436 34.1207 88.0253 34.8685 87.5727 35.8358C87.1201 36.803 87.0703 37.9104 87.4342 38.9143L87.6483 39.5049C87.7696 39.8395 88.0189 40.1123 88.3413 40.2631C88.6637 40.414 89.0328 40.4306 89.3675 40.3093Z" fill="#EB4B68"/>
<defs>
<filter id="filter0_d" x="71.548" y="11.7217" width="99.0598" height="87.6515" filterUnits="userSpaceOnUse" color-interpolation-filters="sRGB">
<feFlood flood-opacity="0" result="BackgroundImageFix"/>
<feColorMatrix in="SourceAlpha" type="matrix" values="0 0 0 0 0 0 0 0 0 0 0 0 0 0 0 0 0 0 127 0"/>
<feOffset dy="4"/>
<feGaussianBlur stdDeviation="4"/>
<feColorMatrix type="matrix" values="0 0 0 0 0 0 0 0 0 0 0 0 0 0 0 0 0 0 0.24 0"/>
<feBlend mode="normal" in2="BackgroundImageFix" result="effect1_dropShadow"/>
<feBlend mode="normal" in="SourceGraphic" in2="effect1_dropShadow" result="shape"/>
</filter>
</defs>
</svg>
