<svg class="icon" viewBox="0 0 32 25" fill="none" xmlns="http://www.w3.org/2000/svg">
  <path d="M3.62282 8.31987C3.55518 8.55662 3.49505 8.78211 3.44243 9.00007C3.37479 9.27441 3.31466 9.52244 3.25829 9.74793C3.20192 9.96589 3.16434 10.1425 3.14179 10.2703C3.09669 10.4995 2.94637 10.6423 2.70961 10.6874C2.50292 10.7288 2.28495 10.71 2.05571 10.6386C1.83023 10.5672 1.6273 10.4394 1.45067 10.2628C1.26276 10.0749 1.16881 9.84188 1.16881 9.56754C1.16881 9.34206 1.22518 8.9888 1.34168 8.48522C1.45443 7.99292 1.61602 7.40666 1.82647 6.749C2.03317 6.0951 2.28495 5.37356 2.57057 4.60316C2.8186 3.94174 3.09294 3.28032 3.39358 2.62266C3.49129 2.40845 3.69422 2.26189 3.93098 2.23183C4.46087 2.1717 4.92311 2.18673 5.31394 2.27692C5.5507 2.33329 5.67472 2.58884 5.57701 2.80681C5.32522 3.37052 5.09222 3.93046 4.88553 4.47538C4.71641 4.91883 4.55857 5.35477 4.40449 5.77943C4.38946 5.82076 4.4308 5.8621 4.47214 5.84331C4.67507 5.74936 4.87425 5.64038 5.06967 5.51636C5.3891 5.30967 5.68223 5.0654 5.93778 4.7873C6.19333 4.5092 6.40002 4.19353 6.55786 3.8553C6.71194 3.51708 6.79086 3.14879 6.79086 2.76171C6.79086 2.26565 6.65181 1.89736 6.38123 1.67188C6.10689 1.44264 5.71981 1.32614 5.23127 1.32614C4.7089 1.32614 4.23538 1.45015 3.81824 1.69443C3.38982 1.94246 3.01777 2.25062 2.71713 2.60763C2.41273 2.96465 2.17221 3.34797 2.0031 3.74632C1.83775 4.14092 1.75131 4.48666 1.75131 4.77227C1.75131 4.97896 1.64233 5.12552 1.44691 5.18941C1.27404 5.24578 1.08238 5.23827 0.88696 5.16311C0.699057 5.0917 0.522429 4.95641 0.368349 4.75348C0.210511 4.55054 0.131592 4.27245 0.131592 3.93422C0.131592 3.63734 0.244333 3.28784 0.473574 2.86318C0.699057 2.44979 1.03352 2.05144 1.4657 1.67188C1.89788 1.29231 2.43903 0.965363 3.08166 0.694783C3.72805 0.424204 4.4759 0.285156 5.30267 0.285156C5.77243 0.285156 6.24594 0.341527 6.70442 0.45051C7.16666 0.559494 7.58756 0.728606 7.95209 0.946573C8.32038 1.1683 8.62479 1.45015 8.85403 1.7771C9.08703 2.11157 9.20352 2.50241 9.20352 2.9421C9.20352 3.41561 9.0983 3.85906 8.89536 4.25742C8.69243 4.65577 8.41433 5.01654 8.06484 5.33598C7.7191 5.65165 7.31323 5.92975 6.85099 6.16275C6.47142 6.35441 6.06555 6.51976 5.64841 6.65129C5.6221 6.65881 5.61083 6.67384 5.61459 6.70015C5.6221 6.9106 5.63714 7.11353 5.65968 7.31271C5.68223 7.54195 5.71605 7.76368 5.75363 7.97413C5.79122 8.18082 5.83631 8.38375 5.88892 8.57541C5.93026 8.72198 5.97536 8.86854 6.02046 9.00383C6.05052 9.09027 6.08434 9.1767 6.11441 9.25562C6.17829 9.41722 6.25346 9.5713 6.32862 9.7141C6.40378 9.85315 6.48645 9.98844 6.57289 10.1125C6.65557 10.2327 6.74576 10.3455 6.83971 10.4469C6.9299 10.5446 7.02761 10.6386 7.12532 10.7213C7.22303 10.8002 7.3245 10.8716 7.42973 10.9355C7.53119 10.9956 7.63642 11.0482 7.7454 11.0933C7.85063 11.1346 7.96337 11.1722 8.07611 11.1948C8.18885 11.2211 8.30159 11.2361 8.41809 11.2436C8.53459 11.2511 8.65485 11.2474 8.77511 11.2399C8.89912 11.2286 9.02314 11.2098 9.14715 11.1797C9.27493 11.1497 9.4027 11.1083 9.53423 11.0595C9.66577 11.0106 9.80105 10.9505 9.93259 10.8791C9.98144 10.8528 10.0341 10.8265 10.0829 10.7964C10.2483 10.7025 10.4587 10.7476 10.5677 10.9016C10.6767 11.0557 10.6541 11.2699 10.5113 11.394C10.4399 11.4541 10.3723 11.5142 10.3009 11.5743C10.1318 11.7134 9.96265 11.8412 9.7973 11.9577C9.63946 12.0666 9.47786 12.1681 9.32002 12.2583C9.24111 12.3034 9.15843 12.3485 9.07199 12.3898C8.9104 12.4725 8.74504 12.5439 8.58345 12.604C8.42185 12.6642 8.26025 12.713 8.10242 12.7544C7.94458 12.7919 7.78674 12.822 7.6289 12.837C7.51992 12.8483 7.40718 12.8558 7.29819 12.8558C7.2531 12.8558 7.21176 12.8558 7.16666 12.8521C7.01634 12.8446 6.86602 12.8295 6.72321 12.7995C6.65181 12.7844 6.58041 12.7694 6.509 12.7469C6.44136 12.7281 6.36996 12.7055 6.30231 12.6792C6.16702 12.6304 6.03549 12.5702 5.90771 12.4988C5.7837 12.4312 5.65968 12.3485 5.54318 12.2621C5.44923 12.1907 5.35528 12.1117 5.26885 12.0291C5.16362 11.9276 5.0584 11.8186 4.96069 11.6984C4.86298 11.5819 4.77278 11.4541 4.68635 11.3225C4.59991 11.191 4.51724 11.0482 4.44208 10.9054C4.36691 10.7588 4.29551 10.6048 4.23162 10.4469C4.16774 10.2891 4.10761 10.1237 4.055 9.95086C4.00238 9.78175 3.95353 9.60136 3.91219 9.41722C3.87085 9.23307 3.83327 9.04141 3.80321 8.84599C3.7769 8.67312 3.75435 8.4965 3.73556 8.31611C3.71677 8.27477 3.63785 8.26725 3.62282 8.31987Z" fill="#FD6250"/>
  <path d="M31.8531 1.40551C31.8531 2.18343 31.2255 2.81102 30.4476 2.81102C29.6697 2.81102 29.0421 2.18343 29.0421 1.40551C29.0421 0.627595 29.6697 0 30.4476 0C31.2255 0 31.8531 0.631353 31.8531 1.40551Z" fill="#FD6250"/>
  <path d="M31.5414 7.0762C31.4737 6.97098 31.3422 6.89957 31.2069 6.89957C31.0791 6.89957 30.9626 6.9597 30.8912 7.06493C30.8085 7.18519 30.7033 7.32799 30.5868 7.48959C30.4553 7.66621 30.3125 7.83908 30.1659 7.99692C30.0193 8.15476 29.8765 8.29005 29.7413 8.40279C29.6022 8.51929 29.512 8.54184 29.4594 8.54184C29.4218 8.54184 29.3579 8.54184 29.3429 8.36521C29.3279 8.18106 29.3542 7.94055 29.4256 7.64742C29.497 7.35054 29.6022 7.01983 29.7337 6.66658C29.869 6.30581 30.0043 5.96007 30.1358 5.64439C30.2749 5.31368 30.3914 5.03935 30.4966 4.80259C30.6018 4.56959 30.6657 4.41551 30.692 4.34787C30.7747 4.15621 30.7446 3.96455 30.6018 3.7992C30.4703 3.64512 30.2974 3.53989 30.0832 3.47976C29.8728 3.42339 29.6473 3.41963 29.4105 3.46849C29.155 3.5211 28.9558 3.67142 28.813 3.90442C28.6852 4.11111 28.5236 4.4343 28.3245 4.87024C28.1253 5.30617 27.9336 5.7872 27.7532 6.30205C27.6443 6.61396 27.5428 6.9334 27.4526 7.25659C27.3023 7.79023 26.9904 8.26374 26.5619 8.617C26.4079 8.74101 26.2463 8.86127 26.0772 8.97025C26.002 9.01911 25.9268 9.0642 25.8517 9.10554C25.8291 9.11682 25.8028 9.09051 25.8178 9.06796C25.9494 8.89885 26.0734 8.71095 26.2012 8.51553C26.4567 8.10966 26.6897 7.62112 26.8964 7.06869C27.1144 6.48243 27.2497 5.94879 27.2985 5.47904C27.3511 5.00553 27.3323 4.59214 27.2459 4.25016C27.1557 3.89691 26.9979 3.61881 26.7761 3.42715C26.5469 3.22422 26.2613 3.12275 25.9343 3.12275C25.5473 3.12275 25.1865 3.22422 24.8708 3.42715C24.6566 3.5662 24.4537 3.72028 24.2733 3.88939C24.2583 3.90442 24.247 3.90066 24.2357 3.88563C24.1944 3.82174 24.1418 3.76162 24.0741 3.70525C23.92 3.57747 23.7359 3.4948 23.5254 3.45346C23.315 3.41212 23.1008 3.42715 22.8903 3.4948C22.6648 3.56996 22.4995 3.72028 22.3943 3.94576C22.1913 4.38169 21.9771 4.89278 21.7592 5.46025C21.5412 6.02771 21.327 6.62148 21.124 7.22277C21.1015 7.29041 21.079 7.35806 21.0564 7.42194C20.8873 7.93679 20.5641 8.38776 20.1357 8.71471C20.0229 8.80114 19.9064 8.88382 19.7862 8.96274C19.711 9.01159 19.6359 9.05669 19.5607 9.09803C19.5382 9.1093 19.5118 9.08299 19.5269 9.06044C19.6584 8.89133 19.7824 8.70343 19.9102 8.50801C20.1657 8.10215 20.3987 7.61736 20.6054 7.06117C20.8234 6.47492 20.9587 5.94128 21.0075 5.47152C21.0602 4.99801 21.0414 4.58463 20.9549 4.24264C20.8647 3.88939 20.7069 3.61129 20.4852 3.41963C20.2559 3.2167 19.9703 3.11523 19.6434 3.11523C19.2525 3.11523 18.8955 3.2167 18.5799 3.41963C18.3656 3.55868 18.1627 3.71276 17.9823 3.88187C17.9673 3.89691 17.956 3.89315 17.9447 3.87811C17.9034 3.81423 17.8508 3.7541 17.7831 3.69773C17.6291 3.56996 17.4449 3.48728 17.2345 3.44594C17.024 3.4046 16.8098 3.41963 16.5994 3.48728C16.3739 3.56244 16.2085 3.71276 16.1033 3.93824C15.9004 4.37418 15.6862 4.88527 15.4682 5.45273C15.2615 5.98637 15.0623 6.5388 14.8744 7.09875C14.7316 7.51965 14.5174 7.86163 14.198 8.17355C14.1153 8.25247 14.0364 8.32763 13.9575 8.39152C13.8184 8.50801 13.7282 8.53056 13.6756 8.53056C13.638 8.53056 13.5741 8.53056 13.5591 8.35393C13.5441 8.16979 13.5704 7.92928 13.6418 7.63991C13.7132 7.34302 13.8184 7.01232 13.9499 6.65906C14.0852 6.30205 14.2205 5.95631 14.352 5.63688C14.4873 5.31368 14.6076 5.02807 14.7128 4.79508C14.818 4.55456 14.8857 4.408 14.9082 4.34035C14.9909 4.14869 14.9609 3.95703 14.818 3.79168C14.6865 3.6376 14.5099 3.53238 14.2882 3.47225C14.074 3.41588 13.8447 3.41212 13.6155 3.46473C13.3674 3.5211 13.1683 3.66767 13.0255 3.90066C12.9954 3.94576 12.9653 3.99837 12.9353 4.05474C12.924 4.07353 12.8939 4.06977 12.8902 4.04723C12.8639 3.91945 12.8188 3.7992 12.7586 3.68646C12.6684 3.51734 12.5369 3.38205 12.364 3.27683C12.1874 3.1716 11.9657 3.11899 11.7026 3.11899C11.0825 3.11899 10.4512 3.4046 9.82736 3.97207C9.21856 4.52825 8.71122 5.41515 8.32414 6.60645C8.14376 7.18143 8.03477 7.71507 8.00847 8.18858C7.9784 8.66961 8.01974 9.08299 8.12497 9.41746C8.23395 9.7632 8.40682 10.0375 8.63982 10.2292C8.88033 10.4284 9.1697 10.5298 9.49665 10.5298C9.74093 10.5298 9.97017 10.4885 10.1844 10.4058C10.3911 10.3269 10.5865 10.2217 10.7556 10.0977C10.8871 10.0037 11.0111 9.89473 11.1239 9.77823C11.2028 9.69555 11.3456 9.72938 11.3757 9.83836C11.4133 9.96237 11.4621 10.0751 11.5298 10.1691C11.6914 10.4058 11.9507 10.5261 12.2926 10.5261C12.676 10.5261 13.0593 10.3833 13.4388 10.1014C13.6155 9.96989 13.7883 9.82708 13.9537 9.67301C13.9913 9.63918 14.0514 9.67676 14.0364 9.72562C13.9387 10.0488 13.8522 10.3495 13.7733 10.6313C13.6418 11.1048 13.5328 11.5144 13.4501 11.8451C13.3411 12.2886 13.3299 12.4089 13.3299 12.4652C13.3299 12.7396 13.4163 12.9688 13.5816 13.1567C13.7432 13.3371 13.9311 13.4649 14.1378 13.5363C14.2731 13.5851 14.4084 13.6077 14.5362 13.6077C14.6076 13.6077 14.6752 13.6002 14.7429 13.5851C14.8932 13.5513 15.0811 13.4536 15.1375 13.1717V13.168C15.16 13.0177 15.2014 12.8185 15.2615 12.5704C15.3254 12.3111 15.4005 12.018 15.487 11.6986C15.5734 11.3792 15.6711 11.0221 15.7914 10.6125C15.844 10.4209 15.9041 10.2217 15.9643 10.015C15.9755 9.97365 16.0357 9.96613 16.0544 10.0037C16.0808 10.0526 16.1108 10.0977 16.1446 10.1428C16.3363 10.3983 16.6369 10.5261 17.0466 10.5261C17.1292 10.5298 17.2119 10.5298 17.2908 10.5298C17.8884 10.5298 18.4521 10.4284 18.9632 10.2254C19.4517 10.03 19.8989 9.79702 20.2973 9.52268C20.3349 9.49638 20.3875 9.53396 20.3724 9.57905C20.2597 9.95486 20.1545 10.3081 20.0643 10.6313C19.929 11.1086 19.8238 11.5182 19.7411 11.8451C19.6321 12.2924 19.6208 12.4126 19.6208 12.4652C19.6208 12.7358 19.7073 12.9688 19.8726 13.1567C20.0342 13.3371 20.2221 13.4649 20.4288 13.5363C20.5641 13.5851 20.6994 13.6077 20.8272 13.6077C20.8986 13.6077 20.9662 13.6002 21.0339 13.5851C21.1842 13.5513 21.3721 13.4536 21.4285 13.1717V13.168C21.451 13.0177 21.4923 12.8185 21.5525 12.5704C21.6164 12.3111 21.6915 12.018 21.7779 11.6986C21.8644 11.3792 21.9658 11.0221 22.0823 10.6125C22.135 10.4209 22.1951 10.2217 22.2552 10.015C22.2665 9.97365 22.3266 9.96613 22.3454 10.0037C22.3717 10.0526 22.4018 10.0977 22.4356 10.1428C22.6235 10.3983 22.9279 10.5261 23.3375 10.5261C23.4202 10.5298 23.5029 10.5298 23.5818 10.5298C24.1793 10.5298 24.743 10.4284 25.2541 10.2254C25.8254 9.99995 26.344 9.71434 26.7912 9.37612C26.8663 9.31975 26.9415 9.25962 27.0129 9.20325C27.0467 9.17694 27.0956 9.19949 27.0956 9.24459C27.0956 9.26338 27.0956 9.28217 27.0956 9.30096C27.0956 9.65797 27.1707 9.9511 27.3173 10.1691C27.4789 10.4058 27.7382 10.5261 28.0802 10.5261C28.4598 10.5261 28.8506 10.3833 29.2339 10.1014C29.5984 9.8346 29.9442 9.51893 30.2599 9.16191C30.5718 8.80866 30.8424 8.45916 31.0716 8.12094C31.3008 7.77895 31.4587 7.5422 31.5451 7.40315C31.6052 7.30169 31.609 7.17767 31.5414 7.0762ZM12.0935 5.24604C12.0672 5.49783 12.0145 5.78344 11.9356 6.09911C11.8567 6.41103 11.7515 6.74174 11.6199 7.07996C11.4884 7.41818 11.3494 7.73386 11.2028 8.01947C11.06 8.30132 10.9172 8.54184 10.7744 8.7335C10.6353 8.9214 10.5076 9.06045 10.3873 9.14688C10.3009 9.21077 10.252 9.21828 10.237 9.21828C10.2295 9.21828 10.222 9.21828 10.2144 9.21452C10.1994 9.20701 10.143 9.16943 10.1167 9.00032C10.0904 8.84248 10.0867 8.63955 10.1092 8.39903C10.1318 8.151 10.1806 7.86915 10.2595 7.55723C10.3347 7.24531 10.4437 6.91461 10.5752 6.57638C10.7105 6.2344 10.8495 5.91873 10.9924 5.63688C11.1352 5.35502 11.278 5.11451 11.4208 4.91533C11.5598 4.72367 11.6876 4.58463 11.8041 4.49443C11.8905 4.43055 11.9394 4.42303 11.9582 4.42303C11.9657 4.42303 11.9732 4.42303 11.977 4.42679C11.992 4.4343 12.0521 4.47188 12.0859 4.64475C12.1198 4.79508 12.1198 4.99801 12.0935 5.24604ZM18.903 5.26107C18.8579 5.5091 18.7903 5.79471 18.6964 6.10663C18.6024 6.42231 18.4821 6.75301 18.3393 7.08748C18.1853 7.4257 18.0237 7.74513 17.8621 8.03074C17.7042 8.3126 17.5426 8.55687 17.3923 8.75229C17.242 8.94395 17.1067 9.08675 16.9827 9.17319C16.8887 9.24083 16.8399 9.24835 16.8211 9.24835C16.8136 9.24835 16.8061 9.24835 16.7985 9.24459C16.7835 9.23707 16.7309 9.20325 16.7083 9.03414C16.6858 8.88006 16.6971 8.67713 16.7422 8.4291C16.7873 8.17731 16.8549 7.88794 16.9489 7.57602C17.0428 7.2641 17.1631 6.9334 17.3059 6.59142C17.4487 6.25319 17.6065 5.93752 17.7719 5.65567C17.9372 5.37005 18.0988 5.12954 18.2491 4.94164C18.3995 4.75374 18.5348 4.61469 18.6588 4.5245C18.7527 4.45685 18.8016 4.44934 18.8204 4.44934C18.8279 4.44934 18.8354 4.44934 18.8429 4.45309C18.8579 4.46061 18.9106 4.49443 18.9331 4.66354C18.9557 4.81762 18.9444 5.02056 18.903 5.26107ZM25.194 5.26107C25.1489 5.5091 25.0813 5.79471 24.9873 6.10663C24.8934 6.42231 24.7731 6.75301 24.6303 7.08748C24.4762 7.4257 24.3146 7.74513 24.153 8.03074C23.9952 8.3126 23.8336 8.55687 23.6833 8.75229C23.533 8.94395 23.3977 9.08675 23.2737 9.17319C23.1797 9.24083 23.1308 9.24835 23.1121 9.24835C23.1045 9.24835 23.097 9.24835 23.0895 9.24459C23.0745 9.23707 23.0219 9.20325 22.9993 9.03414C22.9768 8.88006 22.988 8.67713 23.0331 8.4291C23.0782 8.17731 23.1459 7.88794 23.2398 7.57602C23.3338 7.2641 23.454 6.9334 23.5968 6.59142C23.7396 6.25319 23.8975 5.93752 24.0628 5.65567C24.2282 5.37005 24.3898 5.12954 24.5401 4.94164C24.6867 4.75374 24.8257 4.61469 24.9497 4.52826C25.0437 4.46061 25.0925 4.45309 25.1113 4.45309C25.1189 4.45309 25.1264 4.45309 25.1339 4.45685C25.1489 4.46437 25.2015 4.49819 25.2241 4.6673C25.2504 4.82138 25.2391 5.02056 25.194 5.26107Z" fill="#FD6250"/>
  <path d="M31.5488 18.1439C29.869 19.617 28.377 19.7072 26.5844 18.3881C25.7614 17.7831 25.0249 17.0616 24.1981 16.4603C23.5592 15.9943 22.8828 15.532 22.1537 15.2427C20.891 14.7428 19.6133 14.912 18.4595 15.6147C17.6779 16.092 16.9638 16.682 16.2385 17.2457C16.1371 17.3246 16.0619 17.366 15.983 17.3622C15.9041 17.366 15.8289 17.3209 15.7274 17.2457C15.0021 16.682 14.2881 16.0882 13.5064 15.6147C12.3565 14.9157 11.075 14.7466 9.81227 15.2427C9.08321 15.532 8.40676 15.9943 7.76789 16.4603C6.94112 17.0616 6.20454 17.7831 5.38153 18.3881C3.5927 19.7072 2.10075 19.6133 0.417143 18.1439C0.278096 18.0236 0.139048 17.8996 0 17.7793C0.251789 19.1623 0.78919 20.4062 1.5859 21.5336C2.60433 22.973 3.93468 24.0027 5.61077 24.5701C9.5229 25.893 14.4647 24.0478 15.9792 20.5716C17.4937 24.0515 22.4356 25.893 26.3477 24.5701C28.02 24.0027 29.3541 22.973 30.3726 21.5336C31.1693 20.4062 31.7104 19.1661 31.9585 17.7793C31.8269 17.9034 31.6879 18.0236 31.5488 18.1439Z" fill="#FD6250"/>
</svg>
