<svg class="icon"
     width="24"
     height="24"
     viewBox="0 0 24 24"
     fill="none"
     xmlns="http://www.w3.org/2000/svg"
>
  <path fill-rule="evenodd"
        clip-rule="evenodd"
        d="M9 3.5C9 5.433 7.433 7 5.5 7C3.567 7 2 5.433 2 3.5C2 1.567 3.567 0 5.5 0C7.433 0 9 1.567 9 3.5ZM0 17C0 17.1326 0.0526784 17.2598 0.146447 17.3536C0.240215 17.4473 0.367392 17.5 0.5 17.5H2.31C2.37265 17.5 2.433 17.5236 2.47912 17.566C2.52523 17.6084 2.55374 17.6666 2.559 17.729L3 23.042C3.01055 23.1672 3.06786 23.2839 3.1605 23.3687C3.25315 23.4536 3.37436 23.5005 3.5 23.5H7.5C7.62564 23.5005 7.74685 23.4536 7.8395 23.3687C7.93214 23.2839 7.98945 23.1672 8 23.042L8.443 17.729C8.44826 17.6666 8.47677 17.6084 8.52288 17.566C8.569 17.5236 8.62935 17.5 8.692 17.5H9.26C9.29405 17.5001 9.32776 17.4932 9.35905 17.4798C9.39035 17.4664 9.41857 17.4467 9.442 17.422C9.46534 17.397 9.48339 17.3676 9.49507 17.3355C9.50676 17.3033 9.51184 17.2692 9.51 17.235C9.51 17.1962 9.50801 17.1573 9.50602 17.1183L9.50602 17.1183C9.50401 17.079 9.502 17.0396 9.502 17C9.50079 15.4226 9.969 13.8805 10.847 12.57C10.8653 12.5423 10.8779 12.5113 10.8841 12.4786C10.8903 12.446 10.8899 12.4125 10.883 12.38C10.604 11.0492 9.84196 9.86885 8.74388 9.06687C7.6458 8.26488 6.28957 7.89809 4.93695 8.03729C3.58433 8.1765 2.33122 8.81182 1.4195 9.82064C0.507774 10.8295 0.00207188 12.1403 0 13.5V17ZM17.5 23.5C18.7856 23.5 20.0423 23.1188 21.1112 22.4046C22.1801 21.6903 23.0132 20.6752 23.5052 19.4874C23.9972 18.2997 24.1259 16.9928 23.8751 15.7319C23.6243 14.471 23.0052 13.3128 22.0962 12.4038C21.1872 11.4948 20.029 10.8757 18.7681 10.6249C17.5072 10.3741 16.2003 10.5028 15.0126 10.9948C13.8248 11.4868 12.8097 12.3199 12.0954 13.3888C11.3812 14.4577 11 15.7144 11 17C11.0021 18.7233 11.6876 20.3753 12.9061 21.5939C14.1247 22.8124 15.7767 23.4979 17.5 23.5ZM18.25 13C18.25 13.0663 18.2763 13.1299 18.3232 13.1768C18.3701 13.2237 18.4337 13.25 18.5 13.25H19C19.1989 13.25 19.3897 13.329 19.5303 13.4697C19.671 13.6103 19.75 13.8011 19.75 14C19.75 14.1989 19.671 14.3897 19.5303 14.5303C19.3897 14.671 19.1989 14.75 19 14.75H16.967C16.8297 14.7503 16.6968 14.7984 16.591 14.886C16.4852 14.9735 16.4132 15.0951 16.3872 15.2299C16.3612 15.3647 16.3829 15.5044 16.4485 15.625C16.5142 15.7456 16.6197 15.8396 16.747 15.891L18.81 16.716C19.228 16.8817 19.5813 17.1782 19.8169 17.5612C20.0526 17.9442 20.158 18.3932 20.1175 18.841C20.077 19.2889 19.8928 19.7116 19.5922 20.0461C19.2917 20.3806 18.891 20.609 18.45 20.697C18.3934 20.7084 18.3426 20.739 18.3061 20.7837C18.2696 20.8284 18.2498 20.8843 18.25 20.942V21.25C18.25 21.4489 18.171 21.6397 18.0303 21.7803C17.8897 21.921 17.6989 22 17.5 22C17.3011 22 17.1103 21.921 16.9697 21.7803C16.829 21.6397 16.75 21.4489 16.75 21.25V21C16.75 20.9337 16.7237 20.8701 16.6768 20.8232C16.6299 20.7763 16.5663 20.75 16.5 20.75H16C15.8011 20.75 15.6103 20.671 15.4697 20.5303C15.329 20.3897 15.25 20.1989 15.25 20C15.25 19.8011 15.329 19.6103 15.4697 19.4697C15.6103 19.329 15.8011 19.25 16 19.25H18.033C18.1703 19.2497 18.3032 19.2016 18.409 19.114C18.5148 19.0265 18.5868 18.9049 18.6128 18.7701C18.6388 18.6353 18.6171 18.4956 18.5515 18.375C18.4858 18.2544 18.3803 18.1604 18.253 18.109L16.19 17.284C15.772 17.1183 15.4187 16.8218 15.1831 16.4388C14.9474 16.0558 14.842 15.6068 14.8825 15.159C14.923 14.7111 15.1072 14.2884 15.4078 13.9539C15.7083 13.6194 16.109 13.391 16.55 13.303C16.6066 13.2917 16.6574 13.261 16.6939 13.2163C16.7304 13.1716 16.7502 13.1157 16.75 13.058V12.75C16.75 12.5511 16.829 12.3603 16.9697 12.2197C17.1103 12.079 17.3011 12 17.5 12C17.6989 12 17.8897 12.079 18.0303 12.2197C18.171 12.3603 18.25 12.5511 18.25 12.75V13Z"
        fill="#00A0DF"
  />
</svg>
