<svg class="icon"
     viewBox="0 0 40 40"
     fill="none"
     xmlns="http://www.w3.org/2000/svg"
>
    <g clip-path="url(#rfc-clip0)">
    <rect x="34" width="40" height="28" rx="4" transform="rotate(90 34 0)" fill="#F4F5F7"/>
    <mask id="rfc-mask0" mask-type="alpha" maskUnits="userSpaceOnUse" x="6" y="0" width="28" height="40">
        <rect x="34" width="40" height="28" rx="4" transform="rotate(90 34 0)" fill="#F4F5F7"/>
    </mask>
    <g mask="url(#rfc-mask0)">
        <path d="M6 40L35 40L6 -1.26763e-06L6 40Z" fill="url(#rfc-paint0_linear)"/>
    </g>
    <path fill-rule="evenodd" clip-rule="evenodd" d="M13.5185 7C13.2321 7 13 7.23215 13 7.51852V10.9753C13 11.2617 13.2321 11.4938 13.5185 11.4938H16.9753C17.2617 11.4938 17.4938 11.2617 17.4938 10.9753V7.51852C17.4938 7.23215 17.2617 7 16.9753 7H13.5185ZM14.037 10.4568V8.03704H16.4568V10.4568H14.037ZM14.037 14.4321C14.037 14.1457 13.8049 13.9136 13.5185 13.9136C13.2321 13.9136 13 14.1457 13 14.4321V15.2963C13 15.5827 13.2321 15.8148 13.5185 15.8148H14.3827C14.6691 15.8148 14.9012 15.5827 14.9012 15.2963C14.9012 15.0099 14.6691 14.7778 14.3827 14.7778H14.037V14.4321ZM22.5062 7.51852C22.5062 7.23215 22.7383 7 23.0247 7H26.4815C26.7679 7 27 7.23215 27 7.51852V10.9753C27 11.2617 26.7679 11.4938 26.4815 11.4938H23.0247C22.7383 11.4938 22.5062 11.2617 22.5062 10.9753V7.51852ZM25.963 8.03704H23.5432V10.4568H25.963V8.03704ZM13.5185 16.5062C13.2321 16.5062 13 16.7383 13 17.0247V20.4815C13 20.7679 13.2321 21 13.5185 21H16.9753C17.2617 21 17.4938 20.7679 17.4938 20.4815V17.0247C17.4938 16.7383 17.2617 16.5062 16.9753 16.5062H13.5185ZM14.037 19.963V17.5432H16.4568V19.963H14.037ZM19.4815 7.51852C19.4815 7.23215 19.7136 7 20 7H21.2963C21.5827 7 21.8148 7.23215 21.8148 7.51852C21.8148 7.80489 21.5827 8.03704 21.2963 8.03704H20C19.7136 8.03704 19.4815 7.80489 19.4815 7.51852ZM19.2222 7.51852C19.2222 7.23215 18.9901 7 18.7037 7C18.4173 7 18.1852 7.23215 18.1852 7.51852V9.24691C18.1852 9.53328 18.4173 9.76543 18.7037 9.76543H20C20.2864 9.76543 20.5185 9.53328 20.5185 9.24691C20.5185 8.96054 20.2864 8.7284 20 8.7284H19.2222V7.51852ZM21.2963 8.72839C21.5827 8.72839 21.8148 8.96054 21.8148 9.24691V10.9753C21.8148 11.2617 21.5827 11.4938 21.2963 11.4938H18.7037C18.4173 11.4938 18.1852 11.2617 18.1852 10.9753C18.1852 10.6889 18.4173 10.4568 18.7037 10.4568H20.7778V9.24691C20.7778 8.96054 21.0099 8.72839 21.2963 8.72839ZM13.5185 12.1852C13.2321 12.1852 13 12.4173 13 12.7037C13 12.9901 13.2321 13.2222 13.5185 13.2222H16.4568V13.5679C16.4568 13.8543 16.6889 14.0864 16.9753 14.0864C17.2617 14.0864 17.4938 13.8543 17.4938 13.5679V12.7037C17.4938 12.4173 17.2617 12.1852 16.9753 12.1852H13.5185ZM15.5926 15.2963C15.5926 15.0099 15.8247 14.7778 16.1111 14.7778H16.9753C17.2617 14.7778 17.4938 15.0099 17.4938 15.2963C17.4938 15.5827 17.2617 15.8148 16.9753 15.8148H16.1111C15.8247 15.8148 15.5926 15.5827 15.5926 15.2963ZM24.7531 16.5062C24.4667 16.5062 24.2346 16.7383 24.2346 17.0247C24.2346 17.3111 24.4667 17.5432 24.7531 17.5432H25.963V18.2346H24.7531C24.4667 18.2346 24.2346 18.4667 24.2346 18.7531V20.4815C24.2346 20.7679 24.4667 21 24.7531 21H26.4815C26.7679 21 27 20.7679 27 20.4815C27 20.1951 26.7679 19.963 26.4815 19.963H25.2716V19.2716H26.4815C26.7679 19.2716 27 19.0395 27 18.7531V17.0247C27 16.7383 26.7679 16.5062 26.4815 16.5062H24.7531ZM18.7037 16.5062C18.9901 16.5062 19.2222 16.7383 19.2222 17.0247V19.963H21.2963C21.5827 19.963 21.8148 20.1951 21.8148 20.4815C21.8148 20.7679 21.5827 21 21.2963 21H18.7037C18.4173 21 18.1852 20.7679 18.1852 20.4815V17.0247C18.1852 16.7383 18.4173 16.5062 18.7037 16.5062ZM23.5432 17.0247C23.5432 16.7383 23.3111 16.5062 23.0247 16.5062C22.7383 16.5062 22.5062 16.7383 22.5062 17.0247V20.4815C22.5062 20.7679 22.7383 21 23.0247 21C23.3111 21 23.5432 20.7679 23.5432 20.4815V17.0247ZM19.9136 17.0247C19.9136 16.7383 20.1457 16.5062 20.4321 16.5062H21.2963C21.5827 16.5062 21.8148 16.7383 21.8148 17.0247V18.7531C21.8148 19.0395 21.5827 19.2716 21.2963 19.2716H20.4321C20.1457 19.2716 19.9136 19.0395 19.9136 18.7531C19.9136 18.4667 20.1457 18.2346 20.4321 18.2346H20.7778V17.5432H20.4321C20.1457 17.5432 19.9136 17.3111 19.9136 17.0247ZM19.2222 14.4321C19.2222 14.1457 18.9901 13.9136 18.7037 13.9136C18.4173 13.9136 18.1852 14.1457 18.1852 14.4321V15.2963C18.1852 15.5827 18.4173 15.8148 18.7037 15.8148H19.5679C19.8543 15.8148 20.0864 15.5827 20.0864 15.2963C20.0864 15.0099 19.8543 14.7778 19.5679 14.7778H19.2222V14.4321ZM20.7778 15.2963C20.7778 15.0099 21.0099 14.7778 21.2963 14.7778H21.642V13.5679C21.642 13.2815 21.8741 13.0494 22.1605 13.0494C22.4469 13.0494 22.679 13.2815 22.679 13.5679V14.7778H23.0247C23.3111 14.7778 23.5432 15.0099 23.5432 15.2963C23.5432 15.5827 23.3111 15.8148 23.0247 15.8148H21.2963C21.0099 15.8148 20.7778 15.5827 20.7778 15.2963ZM18.1852 12.7037C18.1852 12.4173 18.4173 12.1852 18.7037 12.1852H20.4321C20.7185 12.1852 20.9506 12.4173 20.9506 12.7037V13.5679C20.9506 13.8543 20.7185 14.0864 20.4321 14.0864C20.1457 14.0864 19.9136 13.8543 19.9136 13.5679V13.2222H18.7037C18.4173 13.2222 18.1852 12.9901 18.1852 12.7037ZM27 12.7037C27 12.4173 26.7679 12.1852 26.4815 12.1852C26.1951 12.1852 25.963 12.4173 25.963 12.7037V13.5679C25.963 13.8543 26.1951 14.0864 26.4815 14.0864C26.7679 14.0864 27 13.8543 27 13.5679V12.7037ZM26.4815 14.3457C26.7679 14.3457 27 14.5778 27 14.8642V15.2963C27 15.5827 26.7679 15.8148 26.4815 15.8148C26.1951 15.8148 25.963 15.5827 25.963 15.2963V14.8642C25.963 14.5778 26.1951 14.3457 26.4815 14.3457ZM24.4074 12.7037C24.4074 12.4173 24.1753 12.1852 23.8889 12.1852C23.6025 12.1852 23.3704 12.4173 23.3704 12.7037V13.5679C23.3704 13.8543 23.6025 14.0864 23.8889 14.0864H24.2346V14.8642C24.2346 15.1506 24.4667 15.3827 24.7531 15.3827C25.0395 15.3827 25.2716 15.1506 25.2716 14.8642V13.5679C25.2716 13.2815 25.0395 13.0494 24.7531 13.0494H24.4074V12.7037Z" fill="url(#rfc-paint1_linear)"/>
    <path d="M10.5 31.5C10.5 30.9477 10.9477 30.5 11.5 30.5L13.5 30.5C14.0523 30.5 14.5 30.9477 14.5 31.5C14.5 32.0523 14.0523 32.5 13.5 32.5L11.5 32.5C10.9477 32.5 10.5 32.0523 10.5 31.5Z" fill="#00A0DF"/>
    <path d="M15.5 31.5C15.5 30.9477 15.9477 30.5 16.5 30.5L18.5 30.5C19.0523 30.5 19.5 30.9477 19.5 31.5C19.5 32.0523 19.0523 32.5 18.5 32.5L16.5 32.5C15.9477 32.5 15.5 32.0523 15.5 31.5Z" fill="#00A0DF"/>
    <path d="M20.5 31.5C20.5 30.9477 20.9477 30.5 21.5 30.5L23.5 30.5C24.0523 30.5 24.5 30.9477 24.5 31.5C24.5 32.0523 24.0523 32.5 23.5 32.5L21.5 32.5C20.9477 32.5 20.5 32.0523 20.5 31.5Z" fill="#00A0DF"/>
    <path d="M25.5 31.5C25.5 30.9477 25.9477 30.5 26.5 30.5L28.5 30.5C29.0523 30.5 29.5 30.9477 29.5 31.5C29.5 32.0523 29.0523 32.5 28.5 32.5L26.5 32.5C25.9477 32.5 25.5 32.0523 25.5 31.5Z" fill="#00A0DF"/>
    <path d="M15 27C15 26.4477 15.4975 26 16.1111 26H23.8889C24.5025 26 25 26.4477 25 27C25 27.5523 24.5025 28 23.8889 28H16.1111C15.4975 28 15 27.5523 15 27Z" fill="#19194B"/>
    </g>
    <defs>
        <linearGradient id="rfc-paint0_linear" x1="36.0741" y1="22.5" x2="5.15317" y2="15.0561" gradientUnits="userSpaceOnUse">
            <stop stop-color="#EBECF0"/>
            <stop offset="1" stop-color="#EBECF0" stop-opacity="0"/>
        </linearGradient>
        <linearGradient id="rfc-paint1_linear" x1="20" y1="7" x2="20" y2="25.8125" gradientUnits="userSpaceOnUse">
            <stop stop-color="#00A0DF"/>
            <stop offset="1" stop-color="#66C6EC"/>
        </linearGradient>
        <clipPath id="rfc-clip0">
            <rect width="40" height="40" fill="white"/>
        </clipPath>
    </defs>
</svg>
