<svg class="icon"
     viewBox="0 0 40 40"
     fill="none"
     xmlns="http://www.w3.org/2000/svg"
>
    <g clip-path="url(#rocket-clip0)">
        <path d="M7.72507 24.8642L14.0466 17.4249C11.0105 16.655 7.84271 16.5652 4.76812 17.1619C1.36236 18.0055 0.82748 24.4587 0.7729 27.5155C0.769092 27.6851 0.81048 27.8527 0.892789 28.001C0.975099 28.1492 1.09535 28.2727 1.24111 28.3587C1.38687 28.4447 1.55286 28.49 1.72194 28.4901C1.89102 28.4902 2.05705 28.4449 2.20288 28.3591L7.72507 24.8642Z" fill="url(#rocket-paint0_linear)"/>
        <path d="M15.0498 32.1891L22.9171 26.3839C23.6833 29.398 23.7728 32.5429 23.179 35.5952C22.3825 38.9802 15.9991 39.5119 12.9111 39.5661C12.7421 39.5699 12.5752 39.5288 12.4276 39.447C12.2799 39.3652 12.157 39.2456 12.0713 39.1008C11.9857 38.9559 11.9405 38.7909 11.9404 38.6229C11.9403 38.4548 11.9854 38.2898 12.0709 38.1448L15.0498 32.1891Z" fill="url(#rocket-paint1_linear)"/>
        <path fill-rule="evenodd" clip-rule="evenodd" d="M38.6535 3.05365C39.5783 5.74346 41.4387 13.3991 35.5419 19.6063C28.2526 27.2728 15.0499 32.1893 15.0499 32.1893L13.798 30.943L12.8326 31.9084C12.2794 32.4616 11.3825 32.4616 10.8293 31.9084L8.42536 29.5045C7.87217 28.9513 7.87217 28.0544 8.42536 27.5012L9.38084 26.5457L7.70835 24.8808C7.70835 24.8808 13.0864 12.0923 20.7457 4.8396C26.947 -1.1063 34.6063 0.755878 37.2935 1.68152C37.607 1.79351 37.8928 1.9718 38.1313 2.20424C38.3686 2.44313 38.5474 2.73389 38.6535 3.05365Z" fill="#EBECF0"/>
        <path d="M17.784 16.5594C17.784 18.1497 18.4158 19.6748 19.5403 20.7993C20.6648 21.9238 22.1899 22.5556 23.7802 22.5556C25.3705 22.5556 26.8956 21.9238 28.0201 20.7993C29.1446 19.6748 29.7764 18.1497 29.7764 16.5594C29.7764 14.9691 29.1446 13.444 28.0201 12.3195C26.8956 11.195 25.3705 10.5632 23.7802 10.5632C22.1899 10.5632 20.6648 11.195 19.5403 12.3195C18.4158 13.444 17.784 14.9691 17.784 16.5594Z" fill="#DFE1E6"/>
        <path d="M19.7057 16.5593C19.7057 17.1063 19.8123 17.6479 20.0193 18.1533C20.2263 18.6586 20.5297 19.1178 20.9123 19.5046C21.2948 19.8914 21.7489 20.1982 22.2487 20.4075C22.7485 20.6168 23.2842 20.7246 23.8252 20.7246C24.3662 20.7246 24.9019 20.6168 25.4017 20.4075C25.9015 20.1982 26.3556 19.8914 26.7381 19.5046C27.1207 19.1178 27.4241 18.6586 27.6311 18.1533C27.8382 17.6479 27.9447 17.1063 27.9447 16.5593C27.9447 16.0123 27.8382 15.4707 27.6311 14.9653C27.4241 14.46 27.1207 14.0008 26.7381 13.614C26.3556 13.2272 25.9015 12.9204 25.4017 12.7111C24.9019 12.5017 24.3662 12.394 23.8252 12.394C23.2842 12.394 22.7485 12.5017 22.2487 12.7111C21.7489 12.9204 21.2948 13.2272 20.9123 13.614C20.5297 14.0008 20.2263 14.46 20.0193 14.9653C19.8123 15.4707 19.7057 16.0123 19.7057 16.5593Z" fill="#33B3E5"/>
        <path opacity="0.5" d="M20.9096 13.6085C20.528 13.9949 20.2252 14.4538 20.0186 14.9589C19.812 15.4641 19.7057 16.0057 19.7057 16.5526C19.7057 17.0996 19.812 17.6412 20.0186 18.1463C20.2252 18.6515 20.528 19.1104 20.9096 19.4967C21.184 19.7635 21.4924 19.9917 21.8265 20.1753L25.6561 12.8534C24.8884 12.4515 24.0146 12.3081 23.1612 12.4438C22.3078 12.5796 21.5191 12.9876 20.9096 13.6085Z" fill="#66C6EC"/>
        <mask id="rocket-mask0" mask-type="alpha" maskUnits="userSpaceOnUse" x="7" y="0" width="33" height="33">
            <path d="M35.5429 19.6061C41.4396 13.3989 39.5792 5.74329 38.6544 3.05348C38.5484 2.73372 38.3696 2.44296 38.1322 2.20406C37.8937 1.97162 37.608 1.79334 37.2945 1.68135C34.6072 0.755705 26.948 -1.10647 20.7466 4.83942C13.0874 12.0921 7.70931 24.8806 7.70931 24.8806L15.0509 32.1891C15.0509 32.1891 28.2535 27.2726 35.5429 19.6061Z" fill="#F4F5F7"/>
        </mask>
        <g mask="url(#rocket-mask0)">
            <path d="M28.9391 -7.93257L48.2708 11.3992L41.9605 17.7095L35.9621 14.1006C31.9752 11.7018 28.6365 8.36306 26.2377 4.37612L22.6287 -1.62221L28.9391 -7.93257Z" fill="url(#rocket-paint2_linear)"/>
        </g>
        <path d="M1.96878 39.3546C2.00562 39.4726 2.07901 39.5763 2.17824 39.6507C2.27747 39.7251 2.39733 39.7662 2.52034 39.7681C2.64335 39.7699 2.76306 39.7324 2.86199 39.661C2.96092 39.5896 3.0339 39.4881 3.07026 39.3712C3.29145 38.6721 3.67471 38.0377 4.18914 37.5189C4.70357 37.0001 5.33478 36.6116 6.03188 36.3846C6.05167 36.3792 6.07265 36.3792 6.09261 36.3847C6.11257 36.3902 6.13077 36.401 6.14531 36.4158C6.15984 36.4307 6.17017 36.4491 6.17521 36.4692C6.18026 36.4893 6.17982 36.5102 6.17396 36.5299C6.1018 36.7757 5.99301 37.0086 5.85122 37.2209C5.81906 37.2702 5.80017 37.3271 5.79633 37.3861C5.7925 37.4452 5.80386 37.5046 5.82933 37.5585C5.85472 37.6125 5.89353 37.6593 5.94199 37.6942C5.99044 37.7292 6.0469 37.7512 6.10588 37.7581C6.92689 37.8576 7.75419 37.7005 8.4738 37.3085C9.1934 36.9165 9.76989 36.3088 10.1238 35.5692C10.4564 34.8726 10.5528 34.0831 10.3984 33.3188C10.2441 32.5545 9.84741 31.8565 9.26762 31.329C7.87694 29.9383 6.21113 29.6594 4.69723 30.5616C2.46026 31.8916 0.83204 35.7455 1.96878 39.3546Z" fill="url(#rocket-paint3_linear)"/>
        <path d="M7.26498 31.7322C6.88148 31.6879 6.49786 31.7898 6.19096 32.0176C5.79518 32.2904 5.50395 32.689 5.36334 33.1503C5.22272 33.6115 5.24076 34.1092 5.41458 34.5644C5.43456 34.6076 5.46719 34.6438 5.50808 34.6681C5.54897 34.6925 5.59613 34.7038 5.6432 34.7006C5.69026 34.6973 5.73495 34.6797 5.77122 34.6501C5.80749 34.6204 5.8336 34.5802 5.846 34.5349C5.92268 34.3464 6.05263 34.1852 6.22017 34.0705C6.38771 33.9558 6.58569 33.8926 6.79022 33.8886C7.01506 33.8387 7.24976 33.8461 7.47295 33.9101C7.69615 33.9741 7.90075 34.0926 8.06814 34.2549C8.08852 34.2876 8.11664 34.3148 8.14995 34.3342C8.18326 34.3535 8.22072 34.3644 8.25896 34.3658C8.29719 34.3671 8.33501 34.3589 8.36899 34.342C8.40297 34.325 8.43206 34.2998 8.45363 34.2686C8.66241 33.9679 8.75734 33.6014 8.72177 33.2335C8.68619 32.8655 8.52238 32.5197 8.25908 32.2566C8.00356 31.9638 7.64848 31.7765 7.26498 31.7322Z" fill="#E99B26"/>
        <circle cx="28.5379" cy="2.92716" r="0.495789" transform="rotate(45 28.5379 2.92716)" fill="#CA365F"/>
        <circle cx="32.7444" cy="7.73582" r="0.495789" transform="rotate(45 32.7444 7.73582)" fill="#CA365F"/>
        <circle cx="37.452" cy="11.8418" r="0.495789" transform="rotate(45 37.452 11.8418)" fill="#CA365F"/>
        <circle cx="35.2498" cy="10.0391" r="0.495789" transform="rotate(45 35.2498 10.0391)" fill="#CA365F"/>
        <circle cx="30.441" cy="5.23135" r="0.495789" transform="rotate(45 30.441 5.23135)" fill="#CA365F"/>
    </g>
    <defs>
        <linearGradient id="rocket-paint0_linear" x1="11.637" y1="18.6794" x2="1.64295" y2="24.3956" gradientUnits="userSpaceOnUse">
            <stop stop-color="#CA365F"/>
            <stop offset="1" stop-color="#EB4B68"/>
        </linearGradient>
        <linearGradient id="rocket-paint1_linear" x1="20.3671" y1="27.8699" x2="19.9076" y2="39.358" gradientUnits="userSpaceOnUse">
            <stop stop-color="#CA365F"/>
            <stop offset="1" stop-color="#EB4B68"/>
        </linearGradient>
        <linearGradient id="rocket-paint2_linear" x1="40.1265" y1="1.2175" x2="30.8606" y2="11.1916" gradientUnits="userSpaceOnUse">
            <stop stop-color="#CA365F"/>
            <stop offset="1" stop-color="#EB4B68"/>
        </linearGradient>
        <linearGradient id="rocket-paint3_linear" x1="1.52631" y1="39.0072" x2="15.9876" y2="24.546" gradientUnits="userSpaceOnUse">
            <stop stop-color="#FAC34B"/>
            <stop offset="1" stop-color="#E99B26"/>
        </linearGradient>
        <clipPath id="rocket-clip0">
            <rect width="40" height="40" fill="white"/>
        </clipPath>
    </defs>
</svg>
