<svg class="icon"
     viewBox="0 0 48 48"
     fill="none"
     xmlns="http://www.w3.org/2000/svg"
>
    <rect width="48" height="48" fill="white"/>
    <path d="M38.5144 31.524H38.4954L32.4252 33.5919C32.3664 33.6123 32.3125 33.6451 32.267 33.6882C32.2215 33.7314 32.1855 33.7839 32.1612 33.8423C31.8908 34.4623 31.451 34.9894 30.8946 35.3603C30.3381 35.7312 29.6887 35.9301 29.0243 35.9331H22.1225C21.8937 35.9331 21.6743 35.8402 21.5125 35.6749C21.3507 35.5096 21.2598 35.2854 21.2598 35.0516C21.2598 34.8178 21.3507 34.5936 21.5125 34.4283C21.6743 34.263 21.8937 34.1702 22.1225 34.1702H29.0243C29.482 34.1702 29.9208 33.9844 30.2444 33.6538C30.568 33.3232 30.7498 32.8748 30.7498 32.4073C30.7498 31.9397 30.568 31.4913 30.2444 31.1607C29.9208 30.8301 29.482 30.6444 29.0243 30.6444H22.9852C21.0038 29.0619 18.5947 28.1389 16.0834 28H12.5307C11.459 28.0003 10.4022 28.2557 9.44383 28.7457L4.23812 31.4042C4.16643 31.4409 4.10617 31.4973 4.06411 31.567C4.02205 31.6368 3.99985 31.7171 4.00001 31.7991V41.3082C3.99954 41.3869 4.01983 41.4644 4.05874 41.5324C4.09765 41.6004 4.15375 41.6564 4.22116 41.6946C4.28856 41.7328 4.36479 41.7518 4.44185 41.7496C4.51891 41.7473 4.59396 41.724 4.65913 41.6819L10.2168 38.1385C10.4356 38.0002 10.6815 37.9128 10.937 37.8823C11.1925 37.8519 11.4515 37.8791 11.6956 37.9622C28.8915 43.882 23.1319 43.9084 42.5226 33.8863C42.6548 33.8152 42.7674 33.7114 42.8502 33.5844C42.933 33.4573 42.9833 33.3111 42.9965 33.1591C43.0097 33.0071 42.9854 32.8541 42.9258 32.7141C42.8663 32.5742 42.7733 32.4517 42.6555 32.3579C42.0946 31.8651 41.4183 31.5292 40.6925 31.383C39.9668 31.2369 39.2163 31.2855 38.5144 31.524Z" fill="url(#savings-icon-paint0_linear)"/>
    <path d="M30.9999 4C24.3851 4 19 9.38516 19 16C19 22.6148 24.3851 28 30.9999 28C37.6146 28 42.9998 22.6148 42.9998 16C43.0422 9.38516 37.657 4 30.9999 4Z" fill="url(#savings-icon-paint1_linear)"/>
    <mask id="savings-icon-mask0"
          mask-type="alpha"
          maskUnits="userSpaceOnUse"
          x="19"
          y="4"
          width="24"
          height="24"
    >
        <path d="M30.9999 4C24.3851 4 19 9.38516 19 16C19 22.6148 24.3851 28 30.9999 28C37.6146 28 42.9998 22.6148 42.9998 16C43.0422 9.38516 37.657 4 30.9999 4Z" fill="url(#savings-icon-paint2_linear)"/>
    </mask>
    <g mask="url(#savings-icon-mask0)">
        <path d="M43 28V4L19 28H43Z" fill="url(#savings-icon-paint3_linear)"/>
    </g>
    <path opacity="0.5" d="M31.0525 6C25.5402 6 21.0526 10.4876 21.0526 16C21.0526 21.5124 25.5402 26 31.0525 26C36.5648 26 41.0524 21.5124 41.0524 16C41.0877 10.4876 36.6002 6 31.0525 6V6Z" stroke="#E99B26" stroke-width="0.95"/>
    <path d="M31.4989 10.1945C32.7768 10.3618 33.8311 10.8972 34.3742 11.7002C34.47 11.8675 34.5339 12.0349 34.5339 12.2356C34.5339 12.7375 34.1506 13.1391 33.6713 13.1391C33.4477 13.1391 33.2241 13.0052 33.0004 12.771C32.4893 12.2691 31.6586 11.8675 30.7641 11.8675C29.4223 11.8675 28.9431 12.5368 28.9431 13.206C28.9431 15.4144 34.7895 14.3771 34.7895 18.5598C34.7895 20.4001 33.6713 21.6047 31.5309 21.839V22.7759C31.5309 23.2109 31.1794 23.5789 30.7641 23.5789C30.3488 23.5789 30.0293 23.2109 30.0293 22.7759V21.839C28.4639 21.6382 27.2499 20.7682 26.7068 19.8313C26.6429 19.6975 26.579 19.5302 26.579 19.3628C26.579 18.8609 26.9624 18.4594 27.4416 18.4594C27.793 18.4594 27.9847 18.6602 28.1444 18.8275C28.8153 19.5302 29.6779 20.099 30.7641 20.099C32.2337 20.099 32.9365 19.5971 32.9365 18.5598C32.9365 16.1171 27.0901 17.2213 27.0901 13.206C27.0901 11.7002 27.9847 10.4287 30.0293 10.1945V9.22412C30.0293 8.78912 30.3807 8.42105 30.7641 8.42105C31.1794 8.42105 31.5309 8.78912 31.5309 9.22412V10.1945H31.4989Z" fill="#A76013"/>
    <defs>
        <linearGradient id="savings-icon-paint0_linear" x1="23.5" y1="28" x2="23.5" y2="76.2852" gradientUnits="userSpaceOnUse">
            <stop stop-color="#FAF0E1"/>
            <stop offset="1" stop-color="#D7C0A4"/>
        </linearGradient>
        <linearGradient id="savings-icon-paint1_linear" x1="31.0526" y1="53.5" x2="31.0526" y2="4" gradientUnits="userSpaceOnUse">
            <stop stop-color="#E99B26"/>
            <stop offset="1" stop-color="#FAC34B"/>
        </linearGradient>
        <linearGradient id="savings-icon-paint2_linear" x1="31.0526" y1="53.5" x2="31.0526" y2="4" gradientUnits="userSpaceOnUse">
            <stop stop-color="#413017"/>
            <stop offset="1" stop-color="#FAC34B"/>
        </linearGradient>
        <linearGradient id="savings-icon-paint3_linear" x1="31.3" y1="28" x2="39.7" y2="7.9" gradientUnits="userSpaceOnUse">
            <stop stop-color="#E99B26" stop-opacity="0.26"/>
            <stop offset="1" stop-color="#FAC34B"/>
        </linearGradient>
    </defs>
</svg>
