<svg class="icon"
     viewBox="0 0 360 264"
     fill="none"
     xmlns="http://www.w3.org/2000/svg"
>
    <path fill-rule="evenodd"
          clip-rule="evenodd"
          d="M330.279 117.045C330.279 110.614 325.066 105.401 318.635 105.401H255.563C249.132 105.401 243.919 100.188 243.919 93.7558C243.919 87.3298 249.126 82.119 255.552 82.1131H256.136C262.566 82.1131 267.781 76.9 267.781 70.4669C267.781 64.0373 262.568 58.8242 256.138 58.8231C262.568 58.8219 267.781 53.61 267.781 47.1804C267.781 40.7473 262.566 35.5342 256.136 35.5342H191.783C185.353 35.5342 180.139 40.7473 180.139 47.1804C180.139 53.6088 185.35 58.8207 191.779 58.8231H66.7858C60.355 58.8231 55.1419 64.0362 55.1419 70.4669C55.1419 76.9 60.355 82.1131 66.7858 82.1131H92.2749C98.6998 82.119 103.908 87.3298 103.908 93.7558C103.908 100.188 98.6951 105.401 92.2643 105.401H91.6903C85.2596 105.401 80.0465 110.614 80.0465 117.045C80.0465 123.473 85.2549 128.683 91.6809 128.689H41.6439C35.2131 128.689 30 133.902 30 140.334C30 146.764 35.2131 151.977 41.6439 151.977H104.336C107.552 151.979 110.157 154.585 110.157 157.8C110.157 161.015 107.55 163.621 104.335 163.621H72.4902C62.8435 163.621 55.0238 171.442 55.0238 181.089C55.0238 190.736 62.8435 198.555 72.4902 198.555H92.2749C98.6998 198.561 103.907 203.772 103.907 210.199C103.907 216.63 98.6939 221.843 92.2631 221.843H91.5734C85.1415 221.843 79.9284 227.056 79.9284 233.488C79.9284 239.919 85.1415 245.132 91.5734 245.132H168.496C174.926 245.132 180.139 239.919 180.139 233.488C180.139 227.571 175.724 222.697 170.01 221.953H287.734C297.411 221.953 305.256 214.109 305.256 204.432C305.256 194.756 297.411 186.91 287.734 186.91H279.218C279.863 185.087 280.232 183.133 280.232 181.089C280.232 171.442 272.413 163.621 262.766 163.621H255.209C251.994 163.621 249.387 161.015 249.387 157.8C249.387 154.585 251.994 151.979 255.209 151.977H270.786C277.217 151.977 282.432 146.764 282.432 140.334C282.432 133.905 277.223 128.696 270.797 128.69H318.635C325.066 128.69 330.279 123.477 330.279 117.045Z"
          fill="#F4F5F7"
    />
    <path fill-rule="evenodd"
          clip-rule="evenodd"
          d="M202.219 44.3612L190.625 40.1365L194.978 26.439H181.7L174.261 41.3145L188.837 46.6281L186.154 55.0708L202.219 44.3612Z"
          fill="#FAC34B"
    />
    <path fill-rule="evenodd"
          clip-rule="evenodd"
          d="M186.155 55.0713L188.838 46.6286L174.262 41.3133L181.701 26.4394H194.979L190.625 40.137L202.22 44.3617L186.155 55.0713ZM213.882 40.6915L199.874 35.5896L204.102 22.2904C204.618 20.662 203.405 19 201.694 19H179.444C178.009 19 176.697 19.8117 176.055 21.0939L165.144 42.9148C164.47 44.2625 165.12 45.8993 166.538 46.4169L179.589 51.1726L174.828 66.1591C174.104 68.4327 176.65 70.3485 178.634 69.0243L214.418 45.1666C216.141 44.0189 215.827 41.4007 213.882 40.6915Z"
          fill="#19194B"
    />
    <path fill-rule="evenodd"
          clip-rule="evenodd"
          d="M113.448 178.788C112.461 179.774 112.461 181.374 113.448 182.361L115.135 184.048C116.121 185.034 117.72 185.034 118.708 184.048L134.802 167.954L129.542 162.694L113.448 178.788Z"
          fill="#19194B"
    />
    <path fill-rule="evenodd"
          clip-rule="evenodd"
          d="M158.761 191.913L142.668 208.007C141.681 208.995 141.681 210.593 142.668 211.58L144.355 213.267C145.341 214.253 146.941 214.253 147.927 213.267L164.021 197.173L158.761 191.913Z"
          fill="#19194B"
    />
    <path fill-rule="evenodd"
          clip-rule="evenodd"
          d="M203.803 195.174C202.777 194.571 201.527 194.482 200.43 194.936L198.24 195.841C197.143 196.298 196.323 197.243 196.025 198.396C194.101 205.854 187.25 211.278 179.4 211.278C170.938 211.278 163.638 204.973 162.419 196.611L161.369 194.517L132.147 165.297L130.052 164.245C121.693 163.03 115.388 155.729 115.388 147.266C115.388 139.413 120.811 132.563 128.27 130.642C129.422 130.345 130.369 129.525 130.823 128.424L131.731 126.238C132.186 125.137 132.097 123.889 131.494 122.865C127.578 116.229 128.585 107.549 134.135 102C139.688 96.4482 148.367 95.4399 155 99.3554C156.023 99.9621 157.274 100.051 158.373 99.594L160.562 98.6883C161.66 98.2329 162.48 97.2868 162.777 96.1339C164.7 88.676 171.551 83.2515 179.4 83.2515C184.081 83.2498 188.404 85.179 191.542 88.3147C193.658 90.4321 195.232 93.0973 196.012 96.0919C196.316 97.2582 197.128 98.2261 198.24 98.6866L200.428 99.5924C201.527 100.049 202.776 99.9604 203.801 99.3554C210.434 95.4399 219.113 96.4499 224.666 102C230.216 107.551 231.225 116.231 227.309 122.865C226.706 123.889 226.617 125.137 227.072 126.238L227.978 128.424C228.433 129.523 229.379 130.345 230.53 130.642C237.988 132.563 243.413 139.413 243.413 147.264C243.413 155.115 237.99 161.965 230.53 163.889C229.379 164.186 228.433 165.006 227.978 166.105L227.072 168.293C226.617 169.392 226.706 170.641 227.309 171.666C231.225 178.299 230.218 186.979 224.666 192.531C219.113 198.08 210.435 199.088 203.803 195.174ZM234.952 170.276C244.3 166.714 250.852 157.594 250.854 147.266C250.854 136.936 244.302 127.816 234.95 124.255C239.045 115.127 237.231 104.044 229.926 96.7389C222.622 89.4356 211.539 87.6207 202.411 91.7143C198.85 82.3642 189.732 75.8137 179.4 75.812C169.072 75.8137 159.951 82.3675 156.39 91.7143C147.261 87.6207 136.18 89.4356 128.875 96.7406C121.57 104.044 119.757 115.127 123.851 124.255C114.501 127.814 107.948 136.936 107.948 147.264C107.948 153.971 110.711 160.168 115.206 164.665C118.556 168.013 122.871 170.421 127.721 171.391L155.276 198.945C157.546 210.303 167.698 218.716 179.4 218.718C189.729 218.718 198.85 212.164 202.411 202.815C211.539 206.907 222.622 205.092 229.926 197.791C237.231 190.486 239.045 179.403 234.952 170.276Z"
          fill="#19194B"
    />
    <path fill-rule="evenodd"
          clip-rule="evenodd"
          d="M227.31 171.668C226.706 170.642 226.617 169.392 227.071 168.293L227.978 166.105C228.434 165.006 229.378 164.186 230.531 163.889C237.989 161.966 243.413 155.115 243.413 147.265C243.413 139.414 237.987 132.563 230.531 130.642C229.378 130.345 228.434 129.525 227.977 128.426L227.071 126.238C226.617 125.139 226.706 123.888 227.31 122.865C231.225 116.232 230.215 107.553 224.666 102C219.114 96.4497 210.434 95.4414 203.801 99.3569C202.775 99.9602 201.526 100.049 200.429 99.5922L198.241 98.6864C197.128 98.2259 196.317 97.2597 196.012 96.0917C195.233 93.0971 193.658 90.4319 191.542 88.3145C188.405 85.1788 184.079 83.2513 179.401 83.2529C171.55 83.2529 164.7 88.6758 162.778 96.1354C162.482 97.2865 161.662 98.2326 160.561 98.6881L158.373 99.5938C157.274 100.051 156.024 99.9619 155.001 99.3569C148.366 95.4414 139.686 96.448 134.136 102C128.585 107.551 127.577 116.23 131.492 122.865C132.097 123.888 132.186 125.139 131.731 126.238L130.824 128.426C130.368 129.525 129.422 130.345 128.269 130.642C120.811 132.563 115.387 139.414 115.387 147.265C115.387 155.73 121.692 163.03 130.052 164.245L132.148 165.297L161.37 194.519L162.42 196.612C163.636 204.973 170.938 211.278 179.401 211.278C187.25 211.278 194.1 205.855 196.026 198.395C196.323 197.244 197.143 196.298 198.241 195.843L200.43 194.937C201.529 194.482 202.776 194.571 203.803 195.174C210.436 199.088 219.114 198.081 224.666 192.531C230.217 186.978 231.225 178.299 227.31 171.668Z"
          fill="white"
    />
    <path fill-rule="evenodd"
          clip-rule="evenodd"
          d="M197.168 172.732C198.013 169.692 198.46 166.524 198.46 163.284V162.09C198.46 160.695 197.329 159.564 195.934 159.564H193.546C192.152 159.564 191.021 160.695 191.021 162.09V163.283C191.021 170.667 188.145 177.605 182.924 182.827C172.253 193.498 154.953 193.602 144.152 183.134C133.191 172.512 133.046 154.534 143.84 143.739C149.059 138.521 156 135.646 163.384 135.646H164.575C165.972 135.646 167.101 134.513 167.101 133.118V130.732C167.101 129.337 165.972 128.206 164.573 128.206H163.382C160.142 128.206 156.973 128.653 153.933 129.497C153.16 125.272 153.975 120.821 156.312 117.127L161.619 122.432C162.606 123.419 164.205 123.419 165.192 122.432L166.035 121.587C168.66 118.964 172.917 118.964 175.542 121.587C177.723 123.768 178.086 127.07 176.644 129.633C176.096 130.609 176.283 131.833 177.074 132.626L179.274 134.822C180.064 135.614 181.289 135.8 182.265 135.253C184.826 133.812 188.129 134.175 190.31 136.357C192.489 138.534 192.854 141.838 191.412 144.401C190.863 145.376 191.049 146.601 191.842 147.392L194.04 149.59C194.83 150.382 196.057 150.57 197.032 150.019C199.593 148.579 202.897 148.943 205.076 151.123C207.703 153.748 207.703 158.004 205.076 160.629L204.233 161.475C203.246 162.461 203.246 164.059 204.233 165.047L209.538 170.351C205.844 172.692 201.393 173.507 197.168 172.732Z"
          fill="white"
    />
    <path fill-rule="evenodd"
          clip-rule="evenodd"
          d="M197.168 172.732C198.013 169.692 198.46 166.524 198.46 163.284V162.089C198.46 160.695 197.329 159.564 195.934 159.564H193.546C192.152 159.564 191.021 160.695 191.021 162.089V163.283C191.021 170.667 188.145 177.605 182.924 182.826C172.253 193.497 154.953 193.602 144.152 183.134C133.191 172.512 133.046 154.534 143.84 143.739C149.059 138.521 156 135.646 163.384 135.646H164.575C165.972 135.646 167.101 134.513 167.101 133.118V130.732C167.101 129.337 165.972 128.206 164.573 128.206H163.382C160.142 128.206 156.973 128.653 153.933 129.497C153.16 125.272 153.975 120.82 156.312 117.127L161.619 122.432C162.606 123.418 164.205 123.418 165.192 122.432L166.035 121.587C168.66 118.964 172.917 118.964 175.542 121.587C177.723 123.768 178.086 127.07 176.644 129.633C176.096 130.609 176.283 131.833 177.074 132.626L179.274 134.822C180.064 135.614 181.289 135.8 182.265 135.252C184.826 133.812 188.129 134.175 190.31 136.356C192.489 138.534 192.854 141.838 191.412 144.401C190.863 145.375 191.049 146.601 191.842 147.392L194.04 149.59C194.83 150.382 196.057 150.57 197.032 150.019C199.593 148.578 202.897 148.943 205.076 151.123C207.703 153.748 207.703 158.004 205.076 160.629L204.233 161.474C203.246 162.461 203.246 164.059 204.233 165.047L209.538 170.351C205.844 172.692 201.393 173.507 197.168 172.732ZM218.564 168.855L212.616 162.908C215.708 157.502 214.949 150.474 210.338 145.863C207.419 142.942 203.528 141.566 199.697 141.736C199.865 137.902 198.489 134.014 195.57 131.095C192.651 128.174 188.762 126.8 184.931 126.968C185.097 123.136 183.722 119.248 180.803 116.329C176.192 111.716 169.163 110.956 163.757 114.048L157.808 108.101C156.821 107.113 155.222 107.113 154.235 108.101L153.392 108.945C147.172 115.164 144.956 124.121 146.955 132.281C143.717 134.002 140.731 136.235 138.108 138.958C124.859 152.711 125.148 174.817 138.733 188.239C152.42 201.762 174.56 201.712 188.184 188.086C190.695 185.577 192.777 182.753 194.395 179.702C194.393 179.704 194.392 179.708 194.392 179.711C202.549 181.707 211.502 179.491 217.72 173.273L218.564 172.428C219.55 171.441 219.55 169.843 218.564 168.855Z"
          fill="#19194B"
    />
    <path fill-rule="evenodd"
          clip-rule="evenodd"
          d="M184.543 159.643H181.799V156.897C181.799 155.529 180.69 154.422 179.323 154.422C177.954 154.422 176.845 155.529 176.845 156.897V159.643H174.1C172.733 159.643 171.625 160.752 171.625 162.12C171.625 163.488 172.733 164.597 174.1 164.597H176.845V167.338C176.845 168.707 177.954 169.816 179.323 169.816C180.69 169.816 181.799 168.707 181.799 167.338V164.597H184.543C185.909 164.597 187.02 163.488 187.02 162.12C187.02 160.752 185.909 159.643 184.543 159.643Z"
          fill="#19194B"
    />
    <path fill-rule="evenodd"
          clip-rule="evenodd"
          d="M172.251 147.351C172.251 145.985 171.142 144.874 169.772 144.874H167.032V142.132C167.032 140.764 165.921 139.655 164.553 139.655C163.185 139.655 162.076 140.764 162.076 142.132V144.874H159.333C157.964 144.874 156.856 145.985 156.856 147.351C156.856 148.719 157.964 149.828 159.333 149.828H162.076V152.572C162.076 153.942 163.185 155.049 164.553 155.049C165.921 155.049 167.032 153.942 167.032 152.572V149.828H169.772C171.142 149.828 172.251 148.719 172.251 147.351Z"
          fill="#19194B"
    />
</svg>
