<svg class="icon"
     viewBox="0 0 24 24"
     fill="none"
     xmlns="http://www.w3.org/2000/svg"
>
  <path fill-rule="evenodd"
        clip-rule="evenodd"
        d="M2.256 22.037L3.84 22C4.392 22 4.84 22.448 4.84 23C4.84 23.552 4.392 24 3.84 24H1.957C0.876 24 0 23.124 0 22.043V20.16C0 19.608 0.448 19.16 1 19.16C1.552 19.16 2 19.608 2 20.16V21.787V21.791C2.003 21.93 2.117 22.04 2.256 22.037ZM2 3.84C2 4.392 1.552 4.84 1 4.84C0.448 4.84 0 4.392 0 3.84V1.956C0 0.876 0.876 0 1.956 0H3.84C4.392 0 4.84 0.448 4.84 1C4.84 1.552 4.392 2 3.84 2H2.212H2.208C2.069 2.003 1.959 2.117 1.962 2.256L2 3.84ZM20.16 0H22.043C23.124 0 24 0.876 24 1.957V3.84C24 4.392 23.552 4.84 23 4.84C22.448 4.84 22 4.392 22 3.84V2.213V2.209C21.997 2.07 21.883 1.96 21.744 1.963L20.16 2C19.608 2 19.16 1.552 19.16 1C19.16 0.448 19.608 0 20.16 0ZM22 20.16C22 19.608 22.448 19.16 23 19.16C23.552 19.16 24 19.608 24 20.16V22.044C24 23.124 23.124 24 22.044 24H20.16C19.608 24 19.16 23.552 19.16 23C19.16 22.448 19.608 22 20.16 22H21.788H21.792C21.931 21.997 22.041 21.883 22.038 21.744L22 20.16ZM6 5.8H8C8.11046 5.8 8.2 5.88954 8.2 6V8C8.2 8.11046 8.11046 8.2 8 8.2H6C5.88954 8.2 5.8 8.11046 5.8 8V6C5.8 5.88954 5.88954 5.8 6 5.8ZM4 6C4 4.89543 4.89543 4 6 4H8C9.10457 4 10 4.89543 10 6V8C10 9.10457 9.10457 10 8 10H6C4.89543 10 4 9.10457 4 8V6ZM18 5.8H16C15.8895 5.8 15.8 5.88954 15.8 6V8C15.8 8.11046 15.8895 8.2 16 8.2H18C18.1105 8.2 18.2 8.11046 18.2 8V6C18.2 5.88954 18.1105 5.8 18 5.8ZM16 4C14.8954 4 14 4.89543 14 6V8C14 9.10457 14.8954 10 16 10H18C19.1046 10 20 9.10457 20 8V6C20 4.89543 19.1046 4 18 4H16ZM16 15.8H18C18.1105 15.8 18.2 15.8895 18.2 16V18C18.2 18.1105 18.1105 18.2 18 18.2H16C15.8895 18.2 15.8 18.1105 15.8 18V16C15.8 15.8895 15.8895 15.8 16 15.8ZM14 16C14 14.8954 14.8954 14 16 14H18C19.1046 14 20 14.8954 20 16V18C20 19.1046 19.1046 20 18 20H16C14.8954 20 14 19.1046 14 18V16ZM8 15.8H6C5.88954 15.8 5.8 15.8895 5.8 16V18C5.8 18.1105 5.88954 18.2 6 18.2H8C8.11046 18.2 8.2 18.1105 8.2 18V16C8.2 15.8895 8.11046 15.8 8 15.8ZM6 14C4.89543 14 4 14.8954 4 16V18C4 19.1046 4.89543 20 6 20H8C9.10457 20 10 19.1046 10 18V16C10 14.8954 9.10457 14 8 14H6ZM12.9 4.99998C12.9 4.50292 12.497 4.09998 12 4.09998C11.5029 4.09998 11.1 4.50292 11.1 4.99998V9.99998C11.1 10.6075 10.6075 11.1 9.99998 11.1H4.99998C4.50292 11.1 4.09998 11.5029 4.09998 12C4.09998 12.497 4.50292 12.9 4.99998 12.9H9.99998C11.6016 12.9 12.9 11.6016 12.9 9.99998V4.99998ZM12 14.1C12.497 14.1 12.9 14.5029 12.9 15V19C12.9 19.497 12.497 19.9 12 19.9C11.5029 19.9 11.1 19.497 11.1 19V15C11.1 14.5029 11.5029 14.1 12 14.1ZM15 11.1C14.5029 11.1 14.1 11.5029 14.1 12C14.1 12.497 14.5029 12.9 15 12.9H19C19.497 12.9 19.9 12.497 19.9 12C19.9 11.5029 19.497 11.1 19 11.1H15Z"
        fill="#00A0DF"
  />
</svg>
