<svg viewBox="0 0 40 40" fill="none" xmlns="http://www.w3.org/2000/svg">
<path fill-rule="evenodd" clip-rule="evenodd" d="M0.000750876 2.91085C0.00106092 1.30323 1.30455 0.000251338 2.91217 0.00056138L6.02845 0.00116238C6.48869 0.00125114 6.86171 0.374419 6.86162 0.834656C6.86153 1.29489 6.48836 1.66792 6.02813 1.66783L2.91185 1.66723C2.2247 1.6671 1.66755 2.22403 1.66742 2.91118L1.66682 6.02746C1.66673 6.4877 1.29356 6.86072 0.833322 6.86063C0.373085 6.86054 6.11187e-05 6.48737 0.000149879 6.02714L0.000750876 2.91085Z" fill="#EBECF0"/>
<path fill-rule="evenodd" clip-rule="evenodd" d="M36.9509 0.000781265C38.5586 0.00109138 39.8615 1.30458 39.8612 2.9122L39.8606 6.02848C39.8605 6.48872 39.4874 6.86174 39.0271 6.86165C38.5669 6.86156 38.1939 6.4884 38.194 6.02816L38.1946 2.91188C38.1947 2.22473 37.6378 1.66758 36.9506 1.66745L33.8343 1.66685C33.3741 1.66676 33.0011 1.29359 33.0012 0.833353C33.0012 0.373115 33.3744 9.13491e-05 33.8346 0.00018013L36.9509 0.000781265Z" fill="#EBECF0"/>
<path fill-rule="evenodd" clip-rule="evenodd" d="M39.861 36.951C39.8607 38.5586 38.5572 39.8616 36.9496 39.8613L33.8333 39.8607C33.3731 39.8606 33.0001 39.4874 33.0002 39.0272C33.0003 38.5669 33.3734 38.1939 33.8337 38.194L36.9499 38.1946C37.6371 38.1947 38.1942 37.6378 38.1944 36.9506L38.195 33.8344C38.1951 33.3741 38.5682 33.0011 39.0285 33.0012C39.4887 33.0013 39.8617 33.3744 39.8616 33.8347L39.861 36.951Z" fill="#EBECF0"/>
<path fill-rule="evenodd" clip-rule="evenodd" d="M2.91085 39.861C1.30323 39.8607 0.000251281 38.5572 0.000561251 36.9496L0.00116211 33.8333C0.00125085 33.3731 0.374419 33.0001 0.834656 33.0002C1.29489 33.0003 1.66792 33.3734 1.66783 33.8337L1.66723 36.9499C1.6671 37.6371 2.22403 38.1942 2.91118 38.1944L6.02746 38.195C6.4877 38.1951 6.86072 38.5682 6.86063 39.0285C6.86054 39.4887 6.48737 39.8617 6.02714 39.8616L2.91085 39.861Z" fill="#EBECF0"/>
<path d="M13.4167 7.5L9.25002 7.5C8.78978 7.5 8.41669 7.8731 8.41669 8.33333V12.5C8.41669 12.9602 8.78978 13.3333 9.25002 13.3333H13.4167C13.8769 13.3333 14.25 12.9602 14.25 12.5V8.33333C14.25 7.8731 13.8769 7.5 13.4167 7.5Z" fill="#00A0DF"/>
<path d="M30.9167 7.5L26.75 7.5C26.2898 7.5 25.9167 7.8731 25.9167 8.33333V12.5C25.9167 12.9602 26.2898 13.3333 26.75 13.3333H30.9167C31.3769 13.3333 31.75 12.9602 31.75 12.5V8.33333C31.75 7.8731 31.3769 7.5 30.9167 7.5Z" fill="#00A0DF"/>
<path d="M30.9167 26.6666H26.75C26.2898 26.6666 25.9167 27.0397 25.9167 27.5V31.6666C25.9167 32.1269 26.2898 32.5 26.75 32.5H30.9167C31.3769 32.5 31.75 32.1269 31.75 31.6666V27.5C31.75 27.0397 31.3769 26.6666 30.9167 26.6666Z" fill="#00A0DF"/>
<path d="M13.4167 26.6666H9.25002C8.78978 26.6666 8.41669 27.0397 8.41669 27.5V31.6666C8.41669 32.1269 8.78978 32.5 9.25002 32.5H13.4167C13.8769 32.5 14.25 32.1269 14.25 31.6666V27.5C14.25 27.0397 13.8769 26.6666 13.4167 26.6666Z" fill="#00A0DF"/>
<path d="M17.5833 13.7683C17.9149 13.7683 18.2328 13.6366 18.4672 13.4022C18.7016 13.1678 18.8333 12.8499 18.8333 12.5183V10.4167C18.8333 10.3062 18.8772 10.2002 18.9554 10.122C19.0335 10.0439 19.1395 10 19.25 10H22.47C22.8015 10 23.1195 9.8683 23.3539 9.63388C23.5883 9.39946 23.72 9.08152 23.72 8.75C23.72 8.41848 23.5883 8.10054 23.3539 7.86612C23.1195 7.6317 22.8015 7.5 22.47 7.5L17.5833 7.5C17.2518 7.5 16.9339 7.6317 16.6995 7.86612C16.465 8.10054 16.3333 8.41848 16.3333 8.75V12.5183C16.3333 12.8499 16.465 13.1678 16.6995 13.4022C16.9339 13.6366 17.2518 13.7683 17.5833 13.7683Z" fill="#00A0DF"/>
<path d="M22.5833 11.885C22.2518 11.885 21.9339 12.0167 21.6995 12.2511C21.465 12.4855 21.3333 12.8035 21.3333 13.135V18.715C21.3333 19.0465 21.465 19.3645 21.6995 19.5989C21.9339 19.8333 22.2518 19.965 22.5833 19.965C22.9149 19.965 23.2328 19.8333 23.4672 19.5989C23.7016 19.3645 23.8333 19.0465 23.8333 18.715V13.135C23.8333 12.8035 23.7016 12.4855 23.4672 12.2511C23.2328 12.0167 22.9149 11.885 22.5833 11.885Z" fill="#00A0DF"/>
<path d="M17.5833 24.1667C17.9149 24.1667 18.2328 24.035 18.4672 23.8006C18.7016 23.5661 18.8333 23.2482 18.8333 22.9167V18.895C18.8333 18.5635 18.7016 18.2456 18.4672 18.0111C18.2328 17.7767 17.9149 17.645 17.5833 17.645C17.2518 17.645 16.9339 17.7767 16.6995 18.0111C16.465 18.2456 16.3333 18.5635 16.3333 18.895V21.25C16.3333 21.3605 16.2894 21.4665 16.2113 21.5446C16.1332 21.6228 16.0272 21.6667 15.9167 21.6667H9.25C8.91848 21.6667 8.60054 21.7984 8.36612 22.0328C8.1317 22.2672 8 22.5852 8 22.9167C8 23.2482 8.1317 23.5661 8.36612 23.8006C8.60054 24.035 8.91848 24.1667 9.25 24.1667H17.5833Z" fill="#00A0DF"/>
<path d="M22.47 30.0001H19.25C19.1395 30.0001 19.0335 29.9562 18.9554 29.878C18.8772 29.7999 18.8333 29.6939 18.8333 29.5834V27.2284C18.8333 26.8969 18.7016 26.5789 18.4672 26.3445C18.2328 26.1101 17.9149 25.9784 17.5833 25.9784C17.2518 25.9784 16.9339 26.1101 16.6995 26.3445C16.465 26.5789 16.3333 26.8969 16.3333 27.2284V31.2501C16.3333 31.5816 16.465 31.8995 16.6995 32.1339C16.9339 32.3684 17.2518 32.5001 17.5833 32.5001H22.47C22.8015 32.5001 23.1195 32.3684 23.3539 32.1339C23.5883 31.8995 23.72 31.5816 23.72 31.2501C23.72 30.9185 23.5883 30.6006 23.3539 30.3662C23.1195 30.1318 22.8015 30.0001 22.47 30.0001Z" fill="#00A0DF"/>
<path d="M9.25 18.3334H12.5833C12.9149 18.3334 13.2328 18.2017 13.4672 17.9673C13.7016 17.7328 13.8333 17.4149 13.8333 17.0834C13.8333 16.7519 13.7016 16.4339 13.4672 16.1995C13.2328 15.9651 12.9149 15.8334 12.5833 15.8334H9.25C8.91848 15.8334 8.60054 15.9651 8.36612 16.1995C8.1317 16.4339 8 16.7519 8 17.0834C8 17.4149 8.1317 17.7328 8.36612 17.9673C8.60054 18.2017 8.91848 18.3334 9.25 18.3334Z" fill="#00A0DF"/>
<path d="M26.75 18.3334H30.9167C31.2482 18.3334 31.5661 18.2017 31.8006 17.9673C32.035 17.7328 32.1667 17.4149 32.1667 17.0834C32.1667 16.7519 32.035 16.4339 31.8006 16.1995C31.5661 15.9651 31.2482 15.8334 30.9167 15.8334H26.75C26.4185 15.8334 26.1005 15.9651 25.8661 16.1995C25.6317 16.4339 25.5 16.7519 25.5 17.0834C25.5 17.4149 25.6317 17.7328 25.8661 17.9673C26.1005 18.2017 26.4185 18.3334 26.75 18.3334Z" fill="#00A0DF"/>
<path d="M30.9167 21.6666H21.75C21.4185 21.6666 21.1005 21.7983 20.8661 22.0327C20.6317 22.2672 20.5 22.5851 20.5 22.9166C20.5 23.2481 20.6317 23.5661 20.8661 23.8005C21.1005 24.0349 21.4185 24.1666 21.75 24.1666H30.9167C31.2482 24.1666 31.5661 24.0349 31.8006 23.8005C32.035 23.5661 32.1667 23.2481 32.1667 22.9166C32.1667 22.5851 32.035 22.2672 31.8006 22.0327C31.5661 21.7983 31.2482 21.6666 30.9167 21.6666Z" fill="#00A0DF"/>
<rect x="0.523407" y="19.217" width="38.4341" height="1.55814" rx="0.77907" transform="rotate(0.0110499 0.523407 19.217)" fill="#EB4B68"/>
</svg>
