<svg class="icon"
     viewBox="0 0 40 40"
     fill="none"
     xmlns="http://www.w3.org/2000/svg"
>
    <path fill-rule="evenodd" clip-rule="evenodd" d="M31.1111 20.444L34.4444 27.1106H28.8889L31.1111 20.444ZM21.1111 27.1106H11.1111V31.5551H21.1111L27.7778 30.444V25.9995L21.1111 27.1106Z" fill="#EB4B68"/>
    <path d="M5.55555 23.7773C5.55555 22.55 4.56063 21.5551 3.33333 21.5551H2.22222V24.8884H5.55555V23.7773Z" fill="#FAC34B"/>
    <rect x="2.22222" y="21.5551" width="1.11111" height="3.33333" fill="#FBD677"/>
    <circle cx="32.7778" cy="30.9995" r="6.11111" fill="#253858"/>
    <circle cx="32.7778" cy="30.9995" r="3.88889" fill="#DFE1E6"/>
    <circle cx="8.33333" cy="30.9995" r="6.11111" fill="#253858"/>
    <circle cx="8.33333" cy="30.9995" r="3.88889" fill="#DFE1E6"/>
    <circle cx="8.33333" cy="30.9995" r="1.66667" fill="#C4C4C4"/>
    <circle cx="32.7778" cy="30.9995" r="1.66667" fill="#C4C4C4"/>
    <path d="M4.44444 25.9995C4.44444 22.3176 7.42921 19.3329 11.1111 19.3329H14.4444C18.1263 19.3329 21.1111 22.3176 21.1111 25.9995V30.444C21.1111 31.0576 20.6136 31.5551 20 31.5551H5.55555C4.9419 31.5551 4.44444 31.0576 4.44444 30.444V25.9995Z" fill="#EB4B68"/>
    <path d="M25.5556 31.5551C25.5556 27.2595 29.0913 23.7773 33.3869 23.7773C37.0142 23.7773 40 26.7178 40 30.3452C40 31.0134 39.4583 31.5551 38.7901 31.5551H25.5556Z" fill="#EB4B68"/>
    <path d="M2.22222 16.9917C2.22222 15.8301 3.16388 14.8884 4.32547 14.8884H17.7778C19.0051 14.8884 20 15.8833 20 17.1106V18.2217C20 19.449 19.0051 20.444 17.7778 20.444H6.75495C6.37332 20.444 5.99811 20.3457 5.66548 20.1586L3.29433 18.8248C2.63206 18.4523 2.22222 17.7515 2.22222 16.9917Z" fill="#344563"/>
    <rect x="7.77778" y="14.8884" width="1.11111" height="5.55556" fill="#091E42"/>
    <mask id="scooter-mask0" mask-type="alpha" maskUnits="userSpaceOnUse" x="4" y="19" width="18" height="13">
        <path d="M4.44444 25.9995C4.44444 22.3176 7.42921 19.3329 11.1111 19.3329H14.4444C18.1263 19.3329 21.1111 22.3176 21.1111 25.9995V30.444C21.1111 31.0576 20.6136 31.5551 20 31.5551H5.55555C4.9419 31.5551 4.44444 31.0576 4.44444 30.444V25.9995Z" fill="#EB4B68"/>
    </mask>
    <g mask="url(#scooter-mask0)">
        <rect x="3.33333" y="30.444" width="16.6667" height="1.11111" fill="#CA365F"/>
        <g filter="url(#scooter-filter0_d)">
            <path d="M0 29.3329C0 25.651 2.98477 22.6662 6.66667 22.6662H10C13.6819 22.6662 16.6667 25.651 16.6667 29.3328V30.444C16.6667 31.0576 16.1692 31.5551 15.5556 31.5551H1.11111C0.497459 31.5551 0 31.0576 0 30.444V29.3329Z" fill="#EB4B68"/>
        </g>
    </g>
    <path d="M0 29.3329C0 25.651 2.98477 22.6662 6.66667 22.6662C10.3486 22.6662 13.3333 25.651 13.3333 29.3328V30.444C13.3333 31.0576 12.8359 31.5551 12.2222 31.5551H1.11111C0.49746 31.5551 0 31.0576 0 30.444V29.3329Z" fill="#EB4B68"/>
    <path d="M0 30.444H16.6667V31.5551H1.11111C0.497459 31.5551 0 31.0576 0 30.444Z" fill="#CA365F"/>
    <path d="M20 30.444H40C40 31.0576 39.5025 31.5551 38.8889 31.5551H20V30.444Z" fill="#CA365F"/>
    <path d="M34.4444 9.55557C34.4444 8.32827 35.4394 7.33334 36.6667 7.33334H36.9386C37.4021 7.33334 37.7778 7.70905 37.7778 8.1725V10.9386C37.7778 11.4021 37.4021 11.7778 36.9386 11.7778H36.6667C35.4394 11.7778 34.4444 10.7829 34.4444 9.55557Z" fill="#99D9F2"/>
    <path d="M33.3333 8.7164C33.3333 7.33891 34.45 6.22223 35.8275 6.22223C36.291 6.22223 36.6667 6.59793 36.6667 7.06139V12.0497C36.6667 12.5132 36.291 12.8889 35.8275 12.8889C34.45 12.8889 33.3333 11.7722 33.3333 10.3947V8.7164Z" fill="#EB4B68"/>
    <path d="M31.1111 7.88616C31.1111 6.96569 31.8573 6.22223 32.7778 6.22223C33.6982 6.22223 34.4444 6.9651 34.4444 7.88558C34.4444 10.8691 34.4444 17.2417 34.4444 21.7778C34.4444 27.8889 37.7778 28.4445 37.7778 28.4445H28.8889H24.4444C24.4444 28.4445 31.1111 23.4445 31.1111 21.7778C31.1111 20.4691 31.1111 11.6254 31.1111 7.88616Z" fill="#EB4B68"/>
    <mask id="scooter-mask1" mask-type="alpha" maskUnits="userSpaceOnUse" x="33" y="6" width="4" height="7">
        <path d="M33.3333 8.7164C33.3333 7.33891 34.45 6.22223 35.8275 6.22223C36.291 6.22223 36.6667 6.59793 36.6667 7.06139V12.0497C36.6667 12.5132 36.291 12.8889 35.8275 12.8889C34.45 12.8889 33.3333 11.7722 33.3333 10.3947V8.7164Z" fill="#EB4B68"/>
    </mask>
    <g mask="url(#scooter-mask1)">
        <g filter="url(#scooter-filter1_d)">
            <path d="M31.1111 7.88616C31.1111 6.96569 31.8573 6.22223 32.7778 6.22223C33.6982 6.22223 34.4444 6.9651 34.4444 7.88558C34.4444 10.8691 34.4444 17.2417 34.4444 21.7778C34.4444 27.8889 37.7778 28.4445 37.7778 28.4445H28.8889H24.4444C24.4444 28.4445 31.1111 23.4445 31.1111 21.7778C31.1111 20.4691 31.1111 11.6254 31.1111 7.88616Z" fill="#EB4B68"/>
        </g>
    </g>
    <circle cx="32.2222" cy="9.55557" r="1.11111" fill="#CA365F"/>
    <path d="M28.8889 9.00002H31.6667C31.9735 9.00002 32.2222 9.24875 32.2222 9.55557C32.2222 9.8624 31.9735 10.1111 31.6667 10.1111H28.8889V9.00002Z" fill="#DFE1E6"/>
    <rect x="25.5556" y="8.44446" width="4.44444" height="2.22222" rx="1.11111" fill="#344563"/>
    <defs>
        <filter id="scooter-filter0_d" x="-4.44444" y="18.2217" width="25.5556" height="17.7778" filterUnits="userSpaceOnUse" color-interpolation-filters="sRGB">
            <feFlood flood-opacity="0" result="BackgroundImageFix"/>
            <feColorMatrix in="SourceAlpha" type="matrix" values="0 0 0 0 0 0 0 0 0 0 0 0 0 0 0 0 0 0 127 0"/>
            <feOffset/>
            <feGaussianBlur stdDeviation="2.22222"/>
            <feColorMatrix type="matrix" values="0 0 0 0 0 0 0 0 0 0 0 0 0 0 0 0 0 0 0.25 0"/>
            <feBlend mode="normal" in2="BackgroundImageFix" result="effect1_dropShadow"/>
            <feBlend mode="normal" in="SourceGraphic" in2="effect1_dropShadow" result="shape"/>
        </filter>
        <filter id="scooter-filter1_d" x="20" y="1.77778" width="22.2222" height="31.1111" filterUnits="userSpaceOnUse" color-interpolation-filters="sRGB">
            <feFlood flood-opacity="0" result="BackgroundImageFix"/>
            <feColorMatrix in="SourceAlpha" type="matrix" values="0 0 0 0 0 0 0 0 0 0 0 0 0 0 0 0 0 0 127 0"/>
            <feOffset/>
            <feGaussianBlur stdDeviation="2.22222"/>
            <feColorMatrix type="matrix" values="0 0 0 0 0 0 0 0 0 0 0 0 0 0 0 0 0 0 0.25 0"/>
            <feBlend mode="normal" in2="BackgroundImageFix" result="effect1_dropShadow"/>
            <feBlend mode="normal" in="SourceGraphic" in2="effect1_dropShadow" result="shape"/>
        </filter>
    </defs>
</svg>
