<svg class="icon" viewBox="0 0 48 48" fill="none" xmlns="http://www.w3.org/2000/svg">
  <path fill-rule="evenodd" clip-rule="evenodd"
    d="M32.4446 29.5181C32.0903 29.1639 32.0559 28.6041 32.3371 28.1895C34.018 25.7111 35 22.7202 35 19.5C35 10.9396 28.0604 4 19.5 4C10.9396 4 4 10.9396 4 19.5C4 28.0604 10.9396 35 19.5 35C22.7202 35 25.7111 34.018 28.1895 32.3371C28.6041 32.0559 29.1639 32.0903 29.5181 32.4446L30.8284 33.7549C31.219 34.1454 31.8521 34.1454 32.2426 33.7549L33.7549 32.2426C34.1454 31.8521 34.1454 31.219 33.7549 30.8284L32.4446 29.5181Z"
    fill="url(#paint0_linear)" />
  <path
    d="M43.1397 38.7429L34.6555 30.2575C34.4878 30.0925 34.2619 30 34.0265 30C33.7912 30 33.5653 30.0925 33.3975 30.2575L30.2574 33.3981C30.0924 33.5659 30 33.7918 30 34.0272C30 34.2625 30.0924 34.4884 30.2574 34.6562L38.7416 43.1417C39.3296 43.7017 40.1131 44.0097 40.925 43.9998C41.7368 43.9899 42.5126 43.6629 43.0868 43.0887C43.6609 42.5145 43.9878 41.7386 43.9977 40.9266C44.0076 40.1146 43.6997 39.3309 43.1397 38.7429Z"
    fill="url(#paint1_linear)" />
  <path
    d="M7 19.5C7 21.1415 7.32332 22.767 7.95151 24.2835C8.57969 25.8001 9.50043 27.1781 10.6612 28.3388C11.8219 29.4996 13.1999 30.4203 14.7165 31.0485C16.233 31.6767 17.8585 32 19.5 32C21.1415 32 22.767 31.6767 24.2835 31.0485C25.8001 30.4203 27.1781 29.4996 28.3388 28.3388C29.4996 27.1781 30.4203 25.8001 31.0485 24.2835C31.6767 22.767 32 21.1415 32 19.5C32 17.8585 31.6767 16.233 31.0485 14.7165C30.4203 13.1999 29.4996 11.8219 28.3388 10.6612C27.1781 9.50043 25.8001 8.57969 24.2835 7.95151C22.767 7.32332 21.1415 7 19.5 7C17.8585 7 16.233 7.32332 14.7165 7.95151C13.1999 8.57969 11.8219 9.50043 10.6612 10.6612C9.50043 11.8219 8.57969 13.1999 7.95151 14.7165C7.32332 16.233 7 17.8585 7 19.5Z"
    fill="#CFF6FF" />
  <mask id="mask0" mask-type="alpha" maskUnits="userSpaceOnUse" x="7" y="7" width="25" height="25">
    <path
      d="M7 19.5C7 21.1415 7.32332 22.767 7.95151 24.2835C8.57969 25.8001 9.50043 27.1781 10.6612 28.3388C11.8219 29.4996 13.1999 30.4203 14.7165 31.0485C16.233 31.6767 17.8585 32 19.5 32C21.1415 32 22.767 31.6767 24.2835 31.0485C25.8001 30.4203 27.1781 29.4996 28.3388 28.3388C29.4996 27.1781 30.4203 25.8001 31.0485 24.2835C31.6767 22.767 32 21.1415 32 19.5C32 17.8585 31.6767 16.233 31.0485 14.7165C30.4203 13.1999 29.4996 11.8219 28.3388 10.6612C27.1781 9.50043 25.8001 8.57969 24.2835 7.95151C22.767 7.32332 21.1415 7 19.5 7C17.8585 7 16.233 7.32332 14.7165 7.95151C13.1999 8.57969 11.8219 9.50043 10.6612 10.6612C9.50043 11.8219 8.57969 13.1999 7.95151 14.7165C7.32332 16.233 7 17.8585 7 19.5Z"
      fill="#C4C4C4" />
  </mask>
  <g mask="url(#mask0)">
    <path d="M32 32V7L7 32H32Z" fill="url(#paint2_linear)" fill-opacity="0.5" />
  </g>
  <defs>
    <linearGradient id="paint0_linear" x1="19.5" y1="4" x2="25.6435" y2="59.9219" gradientUnits="userSpaceOnUse">
      <stop stop-color="#00A0DF" />
      <stop offset="1" stop-color="#007CBF" />
    </linearGradient>
    <linearGradient id="paint1_linear" x1="31.5" y1="32" x2="48.5" y2="48.5" gradientUnits="userSpaceOnUse">
      <stop stop-color="#FAC34B" />
      <stop offset="1" stop-color="#E99B26" />
    </linearGradient>
    <linearGradient id="paint2_linear" x1="15.5" y1="28" x2="38" y2="10" gradientUnits="userSpaceOnUse">
      <stop stop-color="#CFF6FF" />
      <stop offset="1" stop-color="#99D9F2" />
    </linearGradient>
  </defs>
</svg>