<svg class="icon" viewBox="0 0 128 128" fill="none" xmlns="http://www.w3.org/2000/svg">
<path fill-rule="evenodd" clip-rule="evenodd" d="M85.492 77.1308C84.7671 78.1996 84.8558 79.6427 85.769 80.5559L89.1469 83.9338C90.1536 84.9405 90.1536 86.5728 89.1469 87.5795L85.2485 91.4779C84.2417 92.4847 82.6095 92.4847 81.6027 91.4779L78.2248 88.1C77.3116 87.1868 75.8685 87.0981 74.7997 87.823C68.4107 92.1562 60.7005 94.6877 52.399 94.6877C30.3311 94.6877 12.4414 76.7981 12.4414 54.7301C12.4414 32.6621 30.3311 14.7725 52.399 14.7725C74.467 14.7725 92.3567 32.6621 92.3567 54.7301C92.3567 63.0316 89.8251 70.7417 85.492 77.1308ZM22.6269 67.0744C21.0075 63.1649 20.174 58.9746 20.174 54.7429C20.174 50.5112 21.0075 46.3209 22.6269 42.4113C24.2463 38.5017 26.6199 34.9494 29.6122 31.9571C32.6045 28.9649 36.1568 26.5913 40.0664 24.9719C43.976 23.3525 48.1662 22.519 52.3979 22.519C56.6297 22.519 60.8199 23.3525 64.7295 24.9719C68.6391 26.5913 72.1914 28.9649 75.1837 31.9571C78.176 34.9494 80.5496 38.5017 82.169 42.4113C83.7884 46.3209 84.6219 50.5112 84.6219 54.7429C84.6219 58.9746 83.7884 63.1649 82.169 67.0744C80.5496 70.984 78.176 74.5364 75.1837 77.5286C72.1914 80.5209 68.6391 82.8945 64.7295 84.5139C60.8199 86.1333 56.6297 86.9668 52.398 86.9668C48.1662 86.9668 43.976 86.1333 40.0664 84.5139C36.1568 82.8945 32.6045 80.5209 29.6122 77.5286C26.6199 74.5364 24.2463 70.984 22.6269 67.0744Z" fill="#007CBF"/>
<path fill-rule="evenodd" clip-rule="evenodd" d="M85.492 73.3583C84.7671 74.4271 84.8558 75.8702 85.769 76.7834L89.1469 80.1613C90.1536 81.1681 90.1536 82.8003 89.1469 83.8071L85.2485 87.7055C84.2417 88.7122 82.6095 88.7122 81.6027 87.7055L78.2248 84.3276C77.3116 83.4144 75.8685 83.3256 74.7997 84.0505C68.4107 88.3837 60.7005 90.9153 52.399 90.9153C30.3311 90.9153 12.4414 73.0256 12.4414 50.9576C12.4414 28.8896 30.3311 11 52.399 11C74.467 11 92.3567 28.8896 92.3567 50.9576C92.3567 59.2591 89.8251 66.9693 85.492 73.3583ZM22.6269 63.2898C21.0075 59.3802 20.174 55.19 20.174 50.9583C20.174 46.7266 21.0075 42.5363 22.6269 38.6267C24.2463 34.7171 26.6199 31.1648 29.6122 28.1725C32.6045 25.1803 36.1568 22.8067 40.0664 21.1873C43.976 19.5679 48.1662 18.7344 52.3979 18.7344C56.6297 18.7344 60.8199 19.5679 64.7295 21.1873C68.6391 22.8067 72.1914 25.1803 75.1837 28.1725C78.176 31.1648 80.5496 34.7171 82.169 38.6267C83.7884 42.5363 84.6219 46.7266 84.6219 50.9583C84.6219 55.19 83.7884 59.3802 82.169 63.2898C80.5496 67.1994 78.176 70.7517 75.1837 73.744C72.1914 76.7363 68.6391 79.1099 64.7295 80.7293C60.8199 82.3487 56.6297 83.1822 52.398 83.1822C48.1662 83.1822 43.976 82.3487 40.0664 80.7293C36.1568 79.1099 32.6045 76.7363 29.6122 73.744C26.6199 70.7517 24.2463 67.1994 22.6269 63.2898Z" fill="url(#search-microillustration-paint0_linear_38265_282348)"/>
<path d="M113.34 103.079L91.4684 81.2038C91.0358 80.7784 90.4535 80.54 89.8469 80.54C89.2403 80.54 88.6579 80.7784 88.2254 81.2038L80.1304 89.2999C79.7051 89.7326 79.4668 90.315 79.4668 90.9217C79.4668 91.5284 79.7051 92.1108 80.1304 92.5434L102.002 114.418C103.518 115.862 105.538 116.656 107.63 116.63C109.723 116.605 111.723 115.762 113.203 114.282C114.683 112.801 115.526 110.801 115.552 108.708C115.577 106.615 114.783 104.594 113.34 103.079Z" fill="#C87C1B"/>
<path d="M113.34 100.564L91.4684 78.6891C91.0358 78.2638 90.4535 78.0254 89.8469 78.0254C89.2403 78.0254 88.6579 78.2638 88.2254 78.6891L80.1304 86.7853C79.7051 87.2179 79.4668 87.8003 79.4668 88.407C79.4668 89.0137 79.7051 89.5962 80.1304 90.0288L102.002 111.904C103.518 113.347 105.538 114.141 107.63 114.116C109.723 114.09 111.723 113.247 113.203 111.767C114.683 110.287 115.526 108.286 115.552 106.193C115.577 104.1 114.783 102.08 113.34 100.564Z" fill="url(#search-microillustration-paint1_linear_38265_282348)"/>
<path opacity="0.72" d="M20.1758 50.9583C20.1758 55.19 21.0093 59.3802 22.6287 63.2898C24.2481 67.1994 26.6217 70.7517 29.6139 73.744C32.6062 76.7363 36.1585 79.1099 40.0681 80.7293C43.9777 82.3487 48.168 83.1822 52.3997 83.1822C56.6314 83.1822 60.8217 82.3487 64.7312 80.7293C68.6408 79.1099 72.1932 76.7363 75.1854 73.744C78.1777 70.7517 80.5513 67.1994 82.1707 63.2898C83.7901 59.3802 84.6236 55.19 84.6236 50.9583C84.6236 46.7266 83.7901 42.5363 82.1707 38.6267C80.5513 34.7171 78.1777 31.1648 75.1854 28.1725C72.1932 25.1803 68.6408 22.8067 64.7312 21.1873C60.8217 19.5679 56.6314 18.7344 52.3997 18.7344C48.168 18.7344 43.9777 19.5679 40.0681 21.1873C36.1585 22.8067 32.6062 25.1803 29.6139 28.1725C26.6217 31.1648 24.2481 34.7171 22.6287 38.6267C21.0093 42.5363 20.1758 46.7266 20.1758 50.9583Z" fill="#CFF6FF"/>
<path d="M75.1867 28.1719L29.6152 73.7433C32.6075 76.7356 36.1598 79.1092 40.0694 80.7286C43.979 82.348 48.1693 83.1815 52.401 83.1815C56.6327 83.1815 60.8229 82.348 64.7325 80.7286C68.6421 79.1092 72.1945 76.7356 75.1867 73.7433C78.179 70.7511 80.5526 67.1987 82.172 63.2892C83.7914 59.3796 84.6249 55.1893 84.6249 50.9576C84.6249 46.7259 83.7914 42.5356 82.172 38.6261C80.5526 34.7165 78.179 31.1641 75.1867 28.1719Z" fill="url(#search-microillustration-paint2_linear_38265_282348)" fill-opacity="0.5"/>
<defs>
<linearGradient id="search-microillustration-paint0_linear_38265_282348" x1="52.3991" y1="11" x2="68.2365" y2="155.162" gradientUnits="userSpaceOnUse">
<stop stop-color="#00A0DF"/>
<stop offset="1" stop-color="#007CBF"/>
</linearGradient>
<linearGradient id="search-microillustration-paint1_linear_38265_282348" x1="83.3337" y1="83.1812" x2="127.158" y2="125.717" gradientUnits="userSpaceOnUse">
<stop stop-color="#FAC34B"/>
<stop offset="1" stop-color="#E99B26"/>
</linearGradient>
<linearGradient id="search-microillustration-paint2_linear_38265_282348" x1="42.0893" y1="72.8699" x2="100.092" y2="26.4674" gradientUnits="userSpaceOnUse">
<stop stop-color="#CFF6FF"/>
<stop offset="1" stop-color="#99D9F2"/>
</linearGradient>
</defs>
</svg>
