<svg class="icon"
     viewBox="0 0 24 25"
     fill="none"
     xmlns="http://www.w3.org/2000/svg"
>
  <path d="M9.5 11.5C11.709 11.5 13.5 9.709 13.5 7.5C13.5 5.291 11.709 3.5 9.5 3.5C7.291 3.5 5.5 5.291 5.5 7.5C5.5 9.709 7.291 11.5 9.5 11.5ZM9.5 9.5C8.395 9.5 7.5 8.605 7.5 7.5C7.5 7.247 7.548 6.996 7.642 6.761C7.668 6.696 7.72 6.644 7.786 6.62C7.851 6.596 7.924 6.6 7.986 6.631C8.829 7.063 9.764 7.287 10.711 7.286C10.889 7.286 11.065 7.278 11.238 7.262C11.37 7.251 11.486 7.349 11.497 7.481C11.498 7.487 11.498 7.494 11.498 7.5C11.498 8.604 10.604 9.499 9.5 9.5ZM14.376 14.664C11.939 11.971 7.779 11.763 5.086 14.201C4.924 14.348 4.769 14.502 4.623 14.664C4.437 14.868 4.453 15.185 4.657 15.37C4.749 15.453 4.869 15.5 4.993 15.5H14.006C14.282 15.5 14.506 15.276 14.506 15C14.506 14.876 14.459 14.756 14.376 14.664ZM17 19C18.105 19 19 18.105 19 17V2C19 0.895 18.105 0 17 0H2C0.895 0 0 0.895 0 2V17C0 18.105 0.895 19 2 19H17ZM2 2.5C2 2.224 2.224 2 2.5 2H16.5C16.776 2 17 2.224 17 2.5V16.5C17 16.776 16.776 17 16.5 17H2.5C2.224 17 2 16.776 2 16.5V2.5ZM23.992 9.235C24.091 8.135 23.28 7.162 22.18 7.063L21.18 6.972C20.632 6.905 20.133 7.296 20.067 7.844C20.001 8.392 20.391 8.891 20.939 8.957C20.96 8.96 20.98 8.961 21.001 8.963L21.501 9.008C21.776 9.033 21.979 9.276 21.954 9.551V9.552L20.864 21.5C20.839 21.775 20.595 21.977 20.32 21.952L6.877 20.728C6.329 20.66 5.83 21.05 5.762 21.598C5.694 22.146 6.084 22.645 6.632 22.713C6.654 22.716 6.677 22.718 6.7 22.719L20.642 23.993C21.742 24.093 22.715 23.282 22.815 22.182L23.992 9.235Z"
        fill="#00A0DF"
  />
</svg>
