<svg class="icon"
     width="24"
     height="24"
     viewBox="0 0 24 24"
     fill="none"
     xmlns="http://www.w3.org/2000/svg"
>
  <path d="M19 3C18.448 3 18 3.448 18 4C18 4.552 18.448 5 19 5C19.552 5 20 5.448 20 6V8.25C20 8.388 19.888 8.5 19.75 8.5H4.25C4.112 8.5 4 8.388 4 8.25V6C4 5.448 4.448 5 5 5C5.552 5 6 4.552 6 4C6 3.448 5.552 3 5 3C3.343 3 2 4.343 2 6V23C2 23.552 2.448 24 3 24C3.552 24 4 23.552 4 23V10.25C4 10.112 4.112 10 4.25 10H19.75C19.888 10 20 10.112 20 10.25V23C20 23.552 20.448 24 21 24C21.552 24 22 23.552 22 23V6C22 4.343 20.657 3 19 3ZM12 4C12.828 4 13.5 4.672 13.5 5.5C13.5 6.328 12.828 7 12 7C11.172 7 10.5 6.328 10.5 5.5C10.5 4.672 11.172 4 12 4ZM12 3C12.414 3 12.75 2.664 12.75 2.25V0.75C12.75 0.336 12.414 0 12 0C11.586 0 11.25 0.336 11.25 0.75V2.25C11.25 2.664 11.586 3 12 3ZM9.172 3.732C9.475 4.014 9.95 3.998 10.232 3.695C10.5 3.407 10.5 2.96 10.232 2.672L9.172 1.611C8.879 1.318 8.404 1.318 8.111 1.611C7.818 1.904 7.818 2.379 8.111 2.672L9.172 3.732ZM7.25 6.25H8.75C9.164 6.25 9.5 5.914 9.5 5.5C9.5 5.086 9.164 4.75 8.75 4.75H7.25C6.836 4.75 6.5 5.086 6.5 5.5C6.5 5.914 6.836 6.25 7.25 6.25ZM14.828 3.732L15.889 2.672C16.182 2.379 16.182 1.904 15.889 1.611C15.596 1.318 15.121 1.318 14.828 1.611L13.768 2.672C13.486 2.975 13.502 3.45 13.805 3.732C14.093 4 14.54 4 14.828 3.732ZM14.5 5.5C14.5 5.914 14.836 6.25 15.25 6.25H16.75C17.164 6.25 17.5 5.914 17.5 5.5C17.5 5.086 17.164 4.75 16.75 4.75H15.25C14.836 4.75 14.5 5.086 14.5 5.5ZM13.919 20.582C13.311 20.356 13.41 18.769 13.68 18.472C14.548 17.531 14.973 16.264 14.849 14.99C14.989 13.483 13.88 12.149 12.373 12.009C12.249 11.998 12.125 11.995 12 12C10.488 11.933 9.209 13.105 9.142 14.617C9.137 14.742 9.14 14.866 9.151 14.99C9.027 16.264 9.452 17.531 10.32 18.472C10.59 18.772 10.689 20.356 10.081 20.582C7.83 21.416 6.038 22.011 5.609 22.869C5.48 23.129 5.372 23.398 5.286 23.675C5.245 23.807 5.319 23.948 5.452 23.989C5.476 23.996 5.5 24 5.525 24H18.475C18.614 24 18.726 23.887 18.725 23.748C18.725 23.723 18.721 23.699 18.714 23.675C18.628 23.398 18.52 23.129 18.391 22.869C17.962 22.011 16.17 21.416 13.919 20.582Z"
        fill="#00A0DF"
  />
</svg>
