<svg class="icon"
     viewBox="0 0 25 24"
     fill="none"
     xmlns="http://www.w3.org/2000/svg"
>
  <path d="M24.612 0.224989C24.4525 0.0996659 24.26 0.0234781 24.0579 0.00572099C23.8558 -0.0120361 23.6529 0.0294054 23.474 0.124989L1.82701 11.646C1.56631 11.7824 1.34991 11.9902 1.20318 12.2453C1.05645 12.5003 0.985489 12.7918 0.99861 13.0858C1.01173 13.3797 1.10839 13.6638 1.27726 13.9047C1.44613 14.1456 1.6802 14.3334 1.95201 14.446L5.20601 15.826C5.206 15.9095 5.22055 15.9924 5.24901 16.071L7.74901 22.817C7.87898 23.1661 8.11312 23.4668 8.4197 23.6784C8.72629 23.89 9.0905 24.0023 9.46301 24C9.91358 23.9961 10.3471 23.8275 10.682 23.526C10.721 23.491 13.472 20.448 14.082 19.772C14.1168 19.7334 14.1628 19.7067 14.2136 19.6956C14.2643 19.6845 14.3173 19.6895 14.365 19.71L17.522 21.049C17.7284 21.1363 17.9509 21.179 18.1749 21.1744C18.3989 21.1697 18.6194 21.1178 18.822 21.022C19.0231 20.927 19.2016 20.7901 19.3456 20.6206C19.4896 20.4511 19.5958 20.2528 19.657 20.039L24.961 1.29999C25.0161 1.1064 25.0123 0.900795 24.9502 0.709355C24.888 0.517916 24.7703 0.349304 24.612 0.224989ZM6.83801 16.046L16.53 7.98299C16.5524 7.9603 16.5793 7.9426 16.609 7.93105C16.6387 7.91949 16.6705 7.91435 16.7023 7.91596C16.7341 7.91756 16.7653 7.92588 16.7937 7.94036C16.822 7.95484 16.847 7.97516 16.867 7.99999C16.8921 8.01915 16.9128 8.04351 16.9276 8.07141C16.9424 8.09931 16.9511 8.13008 16.9529 8.16162C16.9547 8.19316 16.9496 8.22472 16.9381 8.25412C16.9265 8.28353 16.9088 8.31009 16.886 8.33199L9.64801 17.187C9.56517 17.2878 9.51094 17.409 9.49101 17.538L8.85801 21.488L6.83801 16.046Z"
        fill="#00A0DF"
  />
</svg>
