<svg class="icon"
     viewBox="0 0 40 40"
     fill="none"
     xmlns="http://www.w3.org/2000/svg"
>
    <rect x="4" y="12" width="32" height="2" fill="#FAFBFC"/>
    <rect x="4" y="26" width="32" height="2" fill="#FAFBFC"/>
    <rect y="28" width="40" height="12" rx="4" fill="url(#server-paint0_linear)"/>
    <rect x="4" y="33" width="23" height="2" rx="1" fill="#19194B"/>
    <circle cx="31" cy="34" r="1" fill="#FAC34B"/>
    <circle cx="35" cy="34" r="1" fill="#EB4B68"/>
    <rect y="14" width="40" height="12" rx="4" fill="url(#server-paint1_linear)"/>
    <rect x="4" y="19" width="23" height="2" rx="1" fill="#19194B"/>
    <circle cx="31" cy="20" r="1" fill="#FAC34B"/>
    <circle cx="35" cy="20" r="1" fill="#EB4B68"/>
    <rect width="40" height="12" rx="4" fill="url(#server-paint2_linear)"/>
    <rect x="4" y="5" width="23" height="2" rx="1" fill="#19194B"/>
    <circle cx="31" cy="6" r="1" fill="#FAC34B"/>
    <circle cx="35" cy="6" r="1" fill="#EB4B68"/>
    <defs>
        <linearGradient id="server-paint0_linear" x1="20" y1="24.8571" x2="20" y2="42.4" gradientUnits="userSpaceOnUse">
            <stop stop-color="#F4F5F7"/>
            <stop offset="1" stop-color="#DFE1E6"/>
        </linearGradient>
        <linearGradient id="server-paint1_linear" x1="20" y1="10.8571" x2="20" y2="28.4" gradientUnits="userSpaceOnUse">
            <stop stop-color="#F4F5F7"/>
            <stop offset="1" stop-color="#DFE1E6"/>
        </linearGradient>
        <linearGradient id="server-paint2_linear" x1="20" y1="-3.14286" x2="20" y2="14.4" gradientUnits="userSpaceOnUse">
            <stop stop-color="#F4F5F7"/>
            <stop offset="1" stop-color="#DFE1E6"/>
        </linearGradient>
    </defs>
</svg>
