<svg viewBox="0 0 360 264" fill="none" xmlns="http://www.w3.org/2000/svg">
<rect width="360" height="264" fill="white"/>
<rect x="59.1868" y="101.546" width="218.167" height="63.1538" rx="31.5769" fill="white"/>
<rect x="59.1868" y="101.546" width="218.167" height="63.1538" rx="31.5769" fill="#19194B"/>
<path d="M101.735 126.827C101.284 126.134 100.579 125.649 99.7742 125.48C98.9698 125.311 98.1318 125.471 97.4439 125.925L96.9271 126.267C96.7712 126.37 96.5907 126.429 96.4045 126.437C96.2183 126.445 96.0335 126.402 95.8696 126.313C95.7056 126.223 95.5686 126.091 95.4731 125.929C95.3777 125.767 95.3272 125.583 95.3271 125.395V124.772C95.3271 123.942 95.0004 123.145 94.4189 122.558C93.8374 121.971 93.0487 121.641 92.2263 121.641C91.4039 121.641 90.6152 121.971 90.0337 122.558C89.4522 123.145 89.1255 123.942 89.1255 124.772V125.319C89.1257 125.509 89.075 125.694 88.9787 125.857C88.8825 126.019 88.7445 126.152 88.5793 126.241C88.4142 126.33 88.2281 126.372 88.041 126.363C87.854 126.354 87.6729 126.293 87.5173 126.188L87.0666 125.883C86.3823 125.433 85.55 125.274 84.7503 125.44C83.9505 125.607 83.248 126.085 82.7951 126.771C82.3422 127.457 82.1755 128.296 82.3312 129.105C82.4869 129.914 82.9525 130.629 83.6268 131.094L85.3136 132.226C85.4548 132.322 85.5704 132.452 85.6504 132.604C85.7303 132.757 85.7723 132.926 85.7726 133.098C85.7717 133.269 85.7294 133.436 85.6494 133.586C85.5694 133.736 85.4541 133.864 85.3136 133.958L83.6268 135.077C83.2738 135.297 82.968 135.586 82.7274 135.927C82.4868 136.268 82.3164 136.654 82.2262 137.063C82.136 137.471 82.1279 137.894 82.2023 138.306C82.2767 138.718 82.4321 139.111 82.6594 139.461C82.8867 139.811 83.1812 140.112 83.5255 140.345C83.8698 140.578 84.2569 140.739 84.664 140.819C85.071 140.898 85.4897 140.894 85.8953 140.808C86.3009 140.721 86.6851 140.553 87.0253 140.314L87.5379 139.975C87.6935 139.871 87.8743 139.812 88.0608 139.804C88.2473 139.795 88.4325 139.839 88.5963 139.929C88.7599 140.019 88.8966 140.152 88.9918 140.314C89.0871 140.475 89.1376 140.66 89.1379 140.848V141.474C89.1379 142.305 89.4646 143.101 90.0461 143.689C90.6277 144.276 91.4164 144.606 92.2387 144.606C93.0611 144.606 93.8498 144.276 94.4313 143.689C95.0128 143.101 95.3395 142.305 95.3395 141.474V140.927C95.3401 140.739 95.3914 140.553 95.4879 140.392C95.5844 140.23 95.7225 140.098 95.8876 140.009C96.0526 139.92 96.2383 139.879 96.425 139.888C96.6117 139.898 96.7924 139.958 96.9478 140.063L97.3984 140.364C98.0827 140.813 98.9151 140.973 99.7148 140.806C100.515 140.64 101.217 140.162 101.67 139.476C102.123 138.79 102.29 137.951 102.134 137.142C101.978 136.332 101.513 135.618 100.838 135.153L99.1597 134.021C99.0164 133.927 98.8986 133.798 98.8172 133.646C98.7357 133.493 98.693 133.323 98.693 133.151C98.693 132.978 98.7357 132.808 98.8172 132.656C98.8986 132.504 99.0164 132.374 99.1597 132.28L100.851 131.161C101.191 130.935 101.483 130.644 101.712 130.304C101.94 129.964 102.1 129.582 102.183 129.179C102.265 128.777 102.267 128.362 102.191 127.958C102.114 127.554 101.959 127.17 101.735 126.827Z" fill="#00A0DF"/>
<path d="M133.312 126.827C132.861 126.134 132.156 125.649 131.351 125.48C130.547 125.311 129.709 125.471 129.021 125.925L128.504 126.267C128.348 126.37 128.168 126.429 127.981 126.437C127.795 126.445 127.61 126.402 127.447 126.313C127.283 126.223 127.146 126.091 127.05 125.929C126.955 125.767 126.904 125.583 126.904 125.395V124.772C126.904 123.942 126.577 123.145 125.996 122.558C125.414 121.971 124.626 121.641 123.803 121.641C122.981 121.641 122.192 121.971 121.611 122.558C121.029 123.145 120.703 123.942 120.703 124.772V125.319C120.703 125.509 120.652 125.694 120.556 125.857C120.46 126.019 120.321 126.152 120.156 126.241C119.991 126.33 119.805 126.372 119.618 126.363C119.431 126.354 119.25 126.293 119.094 126.188L118.644 125.883C117.959 125.433 117.127 125.274 116.327 125.44C115.528 125.607 114.825 126.085 114.372 126.771C113.919 127.457 113.752 128.296 113.908 129.105C114.064 129.914 114.529 130.629 115.204 131.094L116.891 132.226C117.032 132.322 117.147 132.452 117.227 132.604C117.307 132.757 117.349 132.926 117.35 133.098C117.349 133.269 117.306 133.436 117.226 133.586C117.146 133.736 117.031 133.864 116.891 133.958L115.204 135.077C114.851 135.297 114.545 135.586 114.304 135.927C114.064 136.268 113.893 136.654 113.803 137.063C113.713 137.471 113.705 137.894 113.779 138.306C113.854 138.718 114.009 139.111 114.236 139.461C114.464 139.811 114.758 140.112 115.102 140.345C115.447 140.578 115.834 140.739 116.241 140.819C116.648 140.898 117.067 140.894 117.472 140.808C117.878 140.721 118.262 140.553 118.602 140.314L119.115 139.975C119.27 139.871 119.451 139.812 119.638 139.804C119.824 139.795 120.009 139.839 120.173 139.929C120.337 140.019 120.474 140.152 120.569 140.314C120.664 140.475 120.715 140.66 120.715 140.848V141.474C120.715 142.305 121.042 143.101 121.623 143.689C122.205 144.276 122.993 144.606 123.816 144.606C124.638 144.606 125.427 144.276 126.008 143.689C126.59 143.101 126.916 142.305 126.916 141.474V140.927C126.917 140.739 126.968 140.553 127.065 140.392C127.161 140.23 127.299 140.098 127.465 140.009C127.63 139.92 127.815 139.879 128.002 139.888C128.189 139.898 128.369 139.958 128.525 140.063L128.975 140.364C129.66 140.813 130.492 140.973 131.292 140.806C132.091 140.64 132.794 140.162 133.247 139.476C133.7 138.79 133.867 137.951 133.711 137.142C133.555 136.332 133.09 135.618 132.415 135.153L130.737 134.021C130.593 133.927 130.476 133.798 130.394 133.646C130.313 133.493 130.27 133.323 130.27 133.151C130.27 132.978 130.313 132.808 130.394 132.656C130.476 132.504 130.593 132.374 130.737 132.28L132.428 131.161C132.768 130.935 133.06 130.644 133.289 130.304C133.517 129.964 133.677 129.582 133.759 129.179C133.842 128.777 133.844 128.362 133.768 127.958C133.691 127.554 133.536 127.17 133.312 126.827Z" fill="#00A0DF"/>
<path d="M164.889 126.827C164.438 126.134 163.732 125.649 162.928 125.48C162.124 125.311 161.286 125.471 160.598 125.925L160.081 126.267C159.925 126.37 159.744 126.429 159.558 126.437C159.372 126.445 159.187 126.402 159.023 126.313C158.859 126.223 158.722 126.091 158.627 125.929C158.531 125.767 158.481 125.583 158.481 125.395V124.772C158.481 123.942 158.154 123.145 157.573 122.558C156.991 121.971 156.203 121.641 155.38 121.641C154.558 121.641 153.769 121.971 153.188 122.558C152.606 123.145 152.279 123.942 152.279 124.772V125.319C152.28 125.509 152.229 125.694 152.133 125.857C152.036 126.019 151.898 126.152 151.733 126.241C151.568 126.33 151.382 126.372 151.195 126.363C151.008 126.354 150.827 126.293 150.671 126.188L150.22 125.883C149.536 125.433 148.704 125.274 147.904 125.44C147.104 125.607 146.402 126.085 145.949 126.771C145.496 127.457 145.329 128.296 145.485 129.105C145.641 129.914 146.106 130.629 146.781 131.094L148.467 132.226C148.609 132.322 148.724 132.452 148.804 132.604C148.884 132.757 148.926 132.926 148.926 133.098C148.926 133.269 148.883 133.436 148.803 133.586C148.723 133.736 148.608 133.864 148.467 133.958L146.781 135.077C146.428 135.297 146.122 135.586 145.881 135.927C145.641 136.268 145.47 136.654 145.38 137.063C145.29 137.471 145.282 137.894 145.356 138.306C145.43 138.718 145.586 139.111 145.813 139.461C146.04 139.811 146.335 140.112 146.679 140.345C147.024 140.578 147.411 140.739 147.818 140.819C148.225 140.898 148.644 140.894 149.049 140.808C149.455 140.721 149.839 140.553 150.179 140.314L150.692 139.975C150.847 139.871 151.028 139.812 151.215 139.804C151.401 139.795 151.586 139.839 151.75 139.929C151.914 140.019 152.05 140.152 152.146 140.314C152.241 140.475 152.291 140.66 152.292 140.848V141.474C152.292 142.305 152.618 143.101 153.2 143.689C153.781 144.276 154.57 144.606 155.393 144.606C156.215 144.606 157.004 144.276 157.585 143.689C158.167 143.101 158.493 142.305 158.493 141.474V140.927C158.494 140.739 158.545 140.553 158.642 140.392C158.738 140.23 158.876 140.098 159.041 140.009C159.206 139.92 159.392 139.879 159.579 139.888C159.766 139.898 159.946 139.958 160.102 140.063L160.552 140.364C161.237 140.813 162.069 140.973 162.869 140.806C163.668 140.64 164.371 140.162 164.824 139.476C165.277 138.79 165.443 137.951 165.288 137.142C165.132 136.332 164.666 135.618 163.992 135.153L162.313 134.021C162.17 133.927 162.052 133.798 161.971 133.646C161.889 133.493 161.847 133.323 161.847 133.151C161.847 132.978 161.889 132.808 161.971 132.656C162.052 132.504 162.17 132.374 162.313 132.28L164.004 131.161C164.344 130.935 164.637 130.644 164.866 130.304C165.094 129.964 165.254 129.582 165.336 129.179C165.418 128.777 165.421 128.362 165.345 127.958C165.268 127.554 165.113 127.17 164.889 126.827Z" fill="#00A0DF"/>
<path d="M196.466 126.827C196.015 126.134 195.309 125.649 194.505 125.48C193.701 125.311 192.863 125.471 192.175 125.925L191.658 126.267C191.502 126.37 191.321 126.429 191.135 126.437C190.949 126.445 190.764 126.402 190.6 126.313C190.436 126.223 190.299 126.091 190.204 125.929C190.108 125.767 190.058 125.583 190.058 125.395V124.772C190.058 123.942 189.731 123.145 189.15 122.558C188.568 121.971 187.779 121.641 186.957 121.641C186.135 121.641 185.346 121.971 184.765 122.558C184.183 123.145 183.856 123.942 183.856 124.772V125.319C183.856 125.509 183.806 125.694 183.71 125.857C183.613 126.019 183.475 126.152 183.31 126.241C183.145 126.33 182.959 126.372 182.772 126.363C182.585 126.354 182.404 126.293 182.248 126.188L181.797 125.883C181.113 125.433 180.281 125.274 179.481 125.44C178.681 125.607 177.979 126.085 177.526 126.771C177.073 127.457 176.906 128.296 177.062 129.105C177.218 129.914 177.683 130.629 178.358 131.094L180.044 132.226C180.186 132.322 180.301 132.452 180.381 132.604C180.461 132.757 180.503 132.926 180.503 133.098C180.502 133.269 180.46 133.436 180.38 133.586C180.3 133.736 180.185 133.864 180.044 133.958L178.358 135.077C178.005 135.297 177.699 135.586 177.458 135.927C177.218 136.268 177.047 136.654 176.957 137.063C176.867 137.471 176.859 137.894 176.933 138.306C177.007 138.718 177.163 139.111 177.39 139.461C177.617 139.811 177.912 140.112 178.256 140.345C178.601 140.578 178.988 140.739 179.395 140.819C179.802 140.898 180.22 140.894 180.626 140.808C181.032 140.721 181.416 140.553 181.756 140.314L182.269 139.975C182.424 139.871 182.605 139.812 182.792 139.804C182.978 139.795 183.163 139.839 183.327 139.929C183.491 140.019 183.627 140.152 183.723 140.314C183.818 140.475 183.868 140.66 183.869 140.848V141.474C183.869 142.305 184.195 143.101 184.777 143.689C185.358 144.276 186.147 144.606 186.97 144.606C187.792 144.606 188.581 144.276 189.162 143.689C189.744 143.101 190.07 142.305 190.07 141.474V140.927C190.071 140.739 190.122 140.553 190.219 140.392C190.315 140.23 190.453 140.098 190.618 140.009C190.783 139.92 190.969 139.879 191.156 139.888C191.343 139.898 191.523 139.958 191.679 140.063L192.129 140.364C192.813 140.813 193.646 140.973 194.446 140.806C195.245 140.64 195.948 140.162 196.401 139.476C196.854 138.79 197.02 137.951 196.865 137.142C196.709 136.332 196.243 135.618 195.569 135.153L193.89 134.021C193.747 133.927 193.629 133.798 193.548 133.646C193.466 133.493 193.424 133.323 193.424 133.151C193.424 132.978 193.466 132.808 193.548 132.656C193.629 132.504 193.747 132.374 193.89 132.28L195.581 131.161C195.921 130.935 196.214 130.644 196.443 130.304C196.671 129.964 196.831 129.582 196.913 129.179C196.995 128.777 196.998 128.362 196.922 127.958C196.845 127.554 196.69 127.17 196.466 126.827Z" fill="#00A0DF"/>
<circle cx="245.777" cy="133.123" r="25.8356" fill="#002F6B"/>
<path d="M255.346 130.133H254.449V126.844C254.449 124.702 253.599 122.649 252.084 121.135C250.57 119.621 248.517 118.77 246.376 118.77C244.234 118.77 242.181 119.621 240.667 121.135C239.153 122.649 238.302 124.702 238.302 126.844V130.133H237.405C236.77 130.133 236.162 130.385 235.713 130.834C235.265 131.282 235.013 131.891 235.013 132.525V145.084C235.013 145.719 235.265 146.327 235.713 146.776C236.162 147.224 236.77 147.476 237.405 147.476H255.346C255.981 147.476 256.589 147.224 257.038 146.776C257.486 146.327 257.738 145.719 257.738 145.084V132.525C257.738 131.891 257.486 131.282 257.038 130.834C256.589 130.385 255.981 130.133 255.346 130.133ZM246.376 140.898C245.902 140.898 245.44 140.757 245.046 140.495C244.653 140.232 244.346 139.858 244.165 139.421C243.984 138.984 243.937 138.503 244.029 138.039C244.122 137.575 244.349 137.149 244.684 136.814C245.019 136.479 245.445 136.252 245.909 136.159C246.373 136.067 246.854 136.114 247.291 136.295C247.728 136.477 248.102 136.783 248.365 137.177C248.627 137.57 248.768 138.032 248.768 138.506C248.768 139.14 248.516 139.748 248.067 140.197C247.618 140.646 247.01 140.898 246.376 140.898ZM251.459 129.535C251.459 129.693 251.396 129.846 251.284 129.958C251.172 130.07 251.019 130.133 250.861 130.133H241.89C241.732 130.133 241.579 130.07 241.467 129.958C241.355 129.846 241.292 129.693 241.292 129.535V126.844C241.292 125.495 241.828 124.202 242.781 123.249C243.734 122.296 245.027 121.76 246.376 121.76C247.724 121.76 249.017 122.296 249.97 123.249C250.923 124.202 251.459 125.495 251.459 126.844V129.535Z" fill="white"/>
<g filter="url(#filter0_d)">
<path d="M282.119 103.175L279.225 103.743L277.143 93.1304C275.788 86.2218 271.744 80.1346 265.9 76.2077C260.057 72.2809 252.893 70.8361 245.985 72.1913C239.076 73.5464 232.989 77.5905 229.062 83.4338C225.135 89.2771 223.69 96.441 225.046 103.35L227.127 113.962L224.233 114.53C222.186 114.931 220.382 116.129 219.219 117.861C218.055 119.592 217.627 121.715 218.029 123.762L225.977 164.282C226.379 166.329 227.577 168.132 229.308 169.296C231.04 170.46 233.162 170.888 235.209 170.486L293.095 159.131C295.142 158.73 296.946 157.532 298.109 155.8C299.273 154.069 299.701 151.946 299.299 149.899L291.351 109.379C290.949 107.332 289.751 105.529 288.02 104.365C286.289 103.202 284.166 102.774 282.119 103.175Z" fill="white"/>
</g>
<g filter="url(#filter1_d)">
<path fill-rule="evenodd" clip-rule="evenodd" d="M285.694 95.1623L284.993 91.5904C283.23 82.5998 277.967 74.678 270.363 69.5677C262.758 64.4575 253.435 62.5773 244.445 64.3408C235.454 66.1044 227.532 71.3672 222.422 78.9715C217.312 86.5759 215.432 95.8988 217.195 104.889L217.896 108.461C215.786 109.663 213.959 111.345 212.579 113.399C210.232 116.891 209.368 121.173 210.178 125.302L218.127 165.822C218.937 169.951 221.354 173.589 224.846 175.936C228.338 178.283 232.62 179.146 236.749 178.336L294.635 166.982C298.764 166.172 302.402 163.755 304.749 160.262C307.096 156.77 307.96 152.488 307.15 148.359L299.201 107.839C298.391 103.71 295.974 100.072 292.482 97.7251C290.428 96.345 288.102 95.4779 285.694 95.1623ZM282.119 103.175L279.225 103.743L277.143 93.1303C275.788 86.2218 271.744 80.1345 265.9 76.2077C260.057 72.2808 252.893 70.8361 245.985 72.1912C239.076 73.5464 232.989 77.5904 229.062 83.4337C225.135 89.277 223.69 96.441 225.046 103.349L227.127 113.962L224.233 114.53C222.186 114.931 220.382 116.129 219.219 117.861C218.055 119.592 217.627 121.715 218.029 123.762L225.977 164.282C226.379 166.329 227.577 168.132 229.308 169.296C231.04 170.459 233.162 170.888 235.209 170.486L293.095 159.131C295.142 158.73 296.946 157.532 298.109 155.8C299.273 154.069 299.701 151.946 299.299 149.899L291.351 109.379C290.949 107.332 289.751 105.529 288.02 104.365C286.289 103.202 284.166 102.773 282.119 103.175Z" fill="white"/>
</g>
<path d="M282.119 103.175L279.225 103.743L277.143 93.1304C275.788 86.2218 271.744 80.1346 265.9 76.2077C260.057 72.2809 252.893 70.8361 245.985 72.1913C239.076 73.5464 232.989 77.5905 229.062 83.4338C225.135 89.2771 223.69 96.441 225.046 103.35L227.127 113.962L224.233 114.53C222.186 114.931 220.382 116.129 219.219 117.861C218.055 119.592 217.627 121.715 218.029 123.762L225.977 164.282C226.379 166.329 227.577 168.132 229.308 169.296C231.04 170.46 233.162 170.888 235.209 170.486L293.095 159.131C295.142 158.73 296.946 157.532 298.109 155.8C299.273 154.069 299.701 151.946 299.299 149.899L291.351 109.379C290.949 107.332 289.751 105.529 288.02 104.365C286.289 103.202 284.166 102.774 282.119 103.175ZM259.989 143.584C258.462 143.883 256.881 143.723 255.446 143.124C254.01 142.525 252.784 141.514 251.924 140.218C251.063 138.922 250.605 137.4 250.61 135.845C250.614 134.289 251.079 132.77 251.947 131.479C252.814 130.188 254.045 129.183 255.484 128.591C256.923 128 258.505 127.848 260.03 128.156C261.555 128.463 262.954 129.216 264.051 130.319C265.148 131.422 265.893 132.825 266.193 134.352C266.594 136.399 266.166 138.521 265.003 140.253C263.839 141.984 262.036 143.182 259.989 143.584ZM269.198 103.706C269.299 104.217 269.192 104.748 268.901 105.181C268.61 105.614 268.159 105.913 267.647 106.014L238.704 111.691C238.193 111.791 237.662 111.684 237.229 111.394C236.796 111.103 236.497 110.652 236.396 110.14L234.693 101.457C233.84 97.1073 234.75 92.5967 237.222 88.9176C239.695 85.2384 243.527 82.6922 247.877 81.8389C252.227 80.9857 256.738 81.8954 260.417 84.3678C264.096 86.8403 266.642 90.673 267.495 95.0228L269.198 103.706Z" fill="#E99B26"/>
<defs>
<filter id="filter0_d" x="201.324" y="61" width="107.49" height="123" filterUnits="userSpaceOnUse" color-interpolation-filters="sRGB">
<feFlood flood-opacity="0" result="BackgroundImageFix"/>
<feColorMatrix in="SourceAlpha" type="matrix" values="0 0 0 0 0 0 0 0 0 0 0 0 0 0 0 0 0 0 127 0"/>
<feOffset dy="4"/>
<feGaussianBlur stdDeviation="4"/>
<feColorMatrix type="matrix" values="0 0 0 0 0 0 0 0 0 0 0 0 0 0 0 0 0 0 0.24 0"/>
<feBlend mode="normal" in2="BackgroundImageFix" result="effect1_dropShadow"/>
<feBlend mode="normal" in="SourceGraphic" in2="effect1_dropShadow" result="shape"/>
</filter>
<filter id="filter1_d" x="191.933" y="51.6096" width="126.27" height="141.781" filterUnits="userSpaceOnUse" color-interpolation-filters="sRGB">
<feFlood flood-opacity="0" result="BackgroundImageFix"/>
<feColorMatrix in="SourceAlpha" type="matrix" values="0 0 0 0 0 0 0 0 0 0 0 0 0 0 0 0 0 0 127 0"/>
<feOffset dy="4"/>
<feGaussianBlur stdDeviation="4"/>
<feColorMatrix type="matrix" values="0 0 0 0 0 0 0 0 0 0 0 0 0 0 0 0 0 0 0.24 0"/>
<feBlend mode="normal" in2="BackgroundImageFix" result="effect1_dropShadow"/>
<feBlend mode="normal" in="SourceGraphic" in2="effect1_dropShadow" result="shape"/>
</filter>
</defs>
</svg>
