<svg class="icon"
     viewBox="0 0 40 40"
     fill="none"
     xmlns="http://www.w3.org/2000/svg"
>
    <g clip-path="url(#settingscolor-clip0)">
    <path d="M28.125 11.875H25.7975C25.5661 11.0753 25.2462 10.3038 24.8437 9.575L26.49 7.93C26.6642 7.75587 26.8025 7.54912 26.8968 7.32156C26.9911 7.094 27.0396 6.85008 27.0396 6.60375C27.0396 6.35742 26.9911 6.1135 26.8968 5.88594C26.8025 5.65838 26.6642 5.45163 26.49 5.2775L24.7212 3.51125C24.3696 3.15974 23.8928 2.96228 23.3956 2.96228C22.8984 2.96228 22.4216 3.15974 22.07 3.51125L20.4225 5.1575C19.6947 4.75475 18.9241 4.43484 18.125 4.20375V1.875C18.125 1.37772 17.9275 0.900805 17.5758 0.549175C17.2242 0.197544 16.7473 0 16.25 0L13.75 0C13.2527 0 12.7758 0.197544 12.4242 0.549175C12.0725 0.900805 11.875 1.37772 11.875 1.875V4.20375C11.0757 4.43537 10.3047 4.75526 9.57625 5.1575L7.92875 3.51125C7.57713 3.15974 7.10031 2.96228 6.60312 2.96228C6.10594 2.96228 5.62911 3.15974 5.2775 3.51125L3.50875 5.27875C3.33451 5.45288 3.19629 5.65963 3.10199 5.88719C3.00769 6.11476 2.95915 6.35867 2.95915 6.605C2.95915 6.85133 3.00769 7.09525 3.10199 7.32281C3.19629 7.55037 3.33451 7.75712 3.50875 7.93125L5.15625 9.5775C4.75323 10.3052 4.43331 11.0758 4.2025 11.875H1.875C1.37772 11.875 0.900805 12.0725 0.549175 12.4242C0.197544 12.7758 0 13.2527 0 13.75L0 16.25C0 16.7473 0.197544 17.2242 0.549175 17.5758C0.900805 17.9275 1.37772 18.125 1.875 18.125H4.2025C4.43322 18.9246 4.75315 19.6957 5.15625 20.4238L3.5075 22.0725C3.15599 22.4241 2.95853 22.9009 2.95853 23.3981C2.95853 23.8953 3.15599 24.3721 3.5075 24.7237L5.275 26.4913C5.63352 26.83 6.10804 27.0187 6.60125 27.0187C7.09446 27.0187 7.56898 26.83 7.9275 26.4913L9.575 24.845C10.3039 25.2477 11.0753 25.568 11.875 25.8V28.125C11.875 28.6223 12.0725 29.0992 12.4242 29.4508C12.7758 29.8025 13.2527 30 13.75 30H16.25C16.7473 30 17.2242 29.8025 17.5758 29.4508C17.9275 29.0992 18.125 28.6223 18.125 28.125V25.8C18.9243 25.5684 19.6953 25.2485 20.4237 24.8463L22.0712 26.4925C22.4229 26.844 22.8997 27.0415 23.3969 27.0415C23.8941 27.0415 24.3709 26.844 24.7225 26.4925L26.49 24.725C26.8415 24.3734 27.039 23.8966 27.039 23.3994C27.039 22.9022 26.8415 22.4254 26.49 22.0737L24.8437 20.4275C25.2466 19.6989 25.5666 18.9274 25.7975 18.1275H28.125C28.3714 18.1275 28.6155 18.0789 28.8431 17.9845C29.0708 17.8902 29.2776 17.7518 29.4517 17.5774C29.6258 17.4031 29.7639 17.1961 29.858 16.9683C29.9521 16.7405 30.0003 16.4964 30 16.25V13.75C30 13.2527 29.8025 12.7758 29.4508 12.4242C29.0992 12.0725 28.6223 11.875 28.125 11.875ZM15 21.25C13.7639 21.25 12.5555 20.8834 11.5277 20.1967C10.4999 19.5099 9.6988 18.5338 9.22575 17.3918C8.7527 16.2497 8.62893 14.9931 8.87009 13.7807C9.11125 12.5683 9.7065 11.4547 10.5806 10.5806C11.4547 9.7065 12.5683 9.11125 13.7807 8.87009C14.9931 8.62893 16.2497 8.75271 17.3918 9.22575C18.5338 9.6988 19.5099 10.4999 20.1967 11.5277C20.8834 12.5555 21.25 13.7639 21.25 15C21.248 16.657 20.5889 18.2456 19.4172 19.4172C18.2456 20.5889 16.657 21.248 15 21.25Z" fill="url(#settingscolor-paint0_linear)"/>
    <path d="M37.9606 28.539L36.8859 28.9855C36.6256 28.6606 36.3299 28.3658 36.0043 28.1065L36.4488 27.0311C36.4958 26.9173 36.52 26.7953 36.5199 26.6722C36.5197 26.549 36.4954 26.4271 36.4481 26.3133C36.4008 26.1996 36.3316 26.0963 36.2444 26.0093C36.1572 25.9223 36.0537 25.8534 35.9399 25.8064L34.7843 25.3302C34.5545 25.2354 34.2965 25.2357 34.0669 25.3311C33.8374 25.4265 33.6551 25.6092 33.5602 25.8389L33.1153 26.9151C32.702 26.8688 32.2848 26.8689 31.8715 26.9155L31.4247 25.8403C31.3293 25.6107 31.1466 25.4284 30.9168 25.3335C30.687 25.2386 30.4289 25.2389 30.1993 25.3343L29.045 25.8139C28.8154 25.9094 28.6331 26.0921 28.5382 26.3219C28.4433 26.5517 28.4436 26.8098 28.539 27.0394L28.9858 28.1147C28.6612 28.3749 28.3665 28.6706 28.1074 28.9961L27.0308 28.552C26.801 28.4572 26.543 28.4575 26.3134 28.5529C26.0838 28.6483 25.9016 28.8309 25.8067 29.0607L25.3291 30.2161C25.2821 30.33 25.2579 30.452 25.258 30.5751C25.2581 30.6983 25.2825 30.8202 25.3298 30.934C25.377 31.0477 25.4463 31.151 25.5335 31.238C25.6207 31.325 25.7241 31.3939 25.838 31.4409L26.9145 31.8849C26.8681 32.2982 26.8682 32.7154 26.915 33.1287L25.8403 33.5753C25.6107 33.6707 25.4284 33.8534 25.3335 34.0832C25.2386 34.313 25.2389 34.5711 25.3343 34.8007L25.8139 35.955C25.9094 36.1846 26.0921 36.3669 26.3219 36.4618C26.5517 36.5567 26.8098 36.5564 27.0394 36.461L28.1141 36.0145C28.374 36.3394 28.6697 36.6341 28.9955 36.8929L28.5505 37.9705C28.4557 38.2003 28.456 38.4583 28.5514 38.6879C28.6468 38.9175 28.8295 39.0997 29.0592 39.1946L30.2144 39.6716C30.4449 39.7592 30.7002 39.7553 30.928 39.6607C31.1557 39.5661 31.3386 39.3879 31.4391 39.1627L31.884 38.0865C32.2978 38.1326 32.7154 38.1325 33.1292 38.0862L33.5753 39.1597C33.6707 39.3893 33.8534 39.5716 34.0832 39.6665C34.313 39.7614 34.5711 39.7611 34.8007 39.6657L35.955 39.1861C36.1846 39.0906 36.3669 38.9079 36.4618 38.6781C36.5567 38.4483 36.5564 38.1902 36.461 37.9606L36.015 36.8871C36.3396 36.6268 36.6342 36.3312 36.8934 36.0057L37.9699 36.4497C38.1997 36.5445 38.4578 36.5442 38.6873 36.4488C38.9169 36.3535 39.0992 36.1708 39.1941 35.941L39.6711 34.7858C39.7659 34.556 39.7656 34.298 39.6702 34.0684C39.5748 33.8389 39.3921 33.6566 39.1624 33.5617L38.0864 33.1174C38.1327 32.7037 38.1324 32.2861 38.0855 31.8725L39.1602 31.4259C39.274 31.3786 39.3773 31.3094 39.4643 31.2221C39.5513 31.1349 39.6203 31.0313 39.6672 30.9174C39.7142 30.8035 39.7382 30.6814 39.7379 30.5582C39.7377 30.435 39.7131 30.313 39.6657 30.1993L39.1861 29.045C39.0906 28.8154 38.9079 28.6331 38.6781 28.5382C38.4483 28.4433 38.1902 28.4436 37.9606 28.539ZM33.6991 35.3858C33.1284 35.6229 32.5001 35.6855 31.8938 35.5656C31.2875 35.4457 30.7303 35.1487 30.2928 34.7122C29.8552 34.2756 29.557 33.7191 29.4357 33.1131C29.3145 32.507 29.3757 31.8786 29.6115 31.3073C29.8474 30.7361 30.2474 30.2476 30.7609 29.9036C31.2745 29.5596 31.8784 29.3757 32.4965 29.375C33.1146 29.3743 33.719 29.5569 34.2332 29.8997C34.7475 30.2425 35.1486 30.7301 35.3858 31.3009C35.7028 32.0663 35.7032 32.9263 35.387 33.6921C35.0708 34.4578 34.4638 35.067 33.6991 35.3858Z" fill="url(#settingscolor-paint1_linear)"/>
    </g>
    <defs>
        <linearGradient id="settingscolor-paint0_linear" x1="38.5" y1="-28.5" x2="8.5" y2="41" gradientUnits="userSpaceOnUse">
            <stop stop-color="#42526E"/>
            <stop offset="1" stop-color="#AAB5C7"/>
        </linearGradient>
        <linearGradient id="settingscolor-paint1_linear" x1="35.0047" y1="7.90627" x2="34.4871" y2="45.7519" gradientUnits="userSpaceOnUse">
            <stop stop-color="#42526E"/>
            <stop offset="1" stop-color="#AAB5C7"/>
        </linearGradient>
        <clipPath id="settingscolor-clip0">
            <rect width="40" height="40" fill="white"/>
        </clipPath>
    </defs>
</svg>
