<svg class="icon"
     viewBox="0 0 24 24"
     fill="none"
     xmlns="http://www.w3.org/2000/svg"
>
  <path fill-rule="evenodd"
        clip-rule="evenodd"
        d="M19.0434 3.08696C17.4586 3.08696 16.1739 4.3717 16.1739 5.95652C16.1739 7.54134 17.4586 8.82609 19.0434 8.82609C20.6283 8.82609 21.913 7.54134 21.913 5.95652C21.913 4.3717 20.6283 3.08696 19.0434 3.08696ZM14.0869 5.95652C14.0869 3.21911 16.306 1 19.0434 1C21.7808 1 24 3.21911 24 5.95652C24 8.69393 21.7808 10.913 19.0434 10.913C17.3145 10.913 15.7923 10.0278 14.9054 8.68584L9.85148 10.6513C9.892 10.9065 9.91304 11.1682 9.91304 11.4348C9.91304 11.861 9.85923 12.2747 9.75804 12.6694L15.1757 15.3783C16.0841 14.2464 17.4792 13.5217 19.0434 13.5217C21.7808 13.5217 24 15.7408 24 18.4783C24 21.2157 21.7808 23.4348 19.0434 23.4348C16.306 23.4348 14.0869 21.2157 14.0869 18.4783C14.0869 18.0523 14.1406 17.639 14.2417 17.2445L8.8236 14.5355C7.91519 15.667 6.52044 16.3913 4.95652 16.3913C2.21911 16.3913 0 14.1722 0 11.4348C0 8.69737 2.21911 6.47826 4.95652 6.47826C6.68582 6.47826 8.20828 7.36386 9.0951 8.70628L14.1486 6.74093C14.108 6.48544 14.0869 6.22344 14.0869 5.95652ZM4.95652 8.56522C3.3717 8.56522 2.08696 9.84996 2.08696 11.4348C2.08696 13.0196 3.3717 14.3043 4.95652 14.3043C6.54134 14.3043 7.82609 13.0196 7.82609 11.4348C7.82609 9.84996 6.54134 8.56522 4.95652 8.56522ZM16.1739 18.4783C16.1739 16.8934 17.4586 15.6087 19.0434 15.6087C20.6283 15.6087 21.913 16.8934 21.913 18.4783C21.913 20.0631 20.6283 21.3478 19.0434 21.3478C17.4586 21.3478 16.1739 20.0631 16.1739 18.4783Z"
        fill="#00A0DF"
  />
</svg>
