<svg class="icon" viewBox="0 0 200 201" fill="none" xmlns="http://www.w3.org/2000/svg">
<path fill-rule="evenodd" clip-rule="evenodd" d="M65.9288 196.463C65.9288 198.415 67.5116 200 69.4636 200H72.8009C74.7552 200 76.338 198.415 76.338 196.463V164.61H65.9288V196.463Z" fill="#19194B"/>
<path fill-rule="evenodd" clip-rule="evenodd" d="M123.76 164.61V196.463C123.76 198.415 125.345 200 127.297 200H130.634C132.586 200 134.169 198.415 134.169 196.463V164.61H123.76Z" fill="#19194B"/>
<path fill-rule="evenodd" clip-rule="evenodd" d="M171.559 123.264C169.946 123.68 168.624 124.828 167.984 126.366L166.717 129.428C166.079 130.966 166.204 132.714 167.051 134.148C172.528 143.434 171.117 155.581 163.349 163.349C154.972 171.724 141.51 172.707 132.027 165.64L128.916 164.607H71.0818L67.9679 165.64C58.4924 172.709 45.0258 171.724 36.6533 163.349C28.8828 155.578 27.4717 143.434 32.9515 134.148C33.7982 132.716 33.9228 130.966 33.2855 129.428L32.0155 126.366C31.3805 124.828 30.0541 123.68 28.4407 123.264C18.0033 120.574 10.4092 110.988 10.4092 99.9999C10.4092 89.0145 18.0033 79.4284 28.4407 76.7379C30.0541 76.3216 31.3805 75.174 32.0155 73.6359L33.2855 70.5738C33.9228 69.0333 33.7982 67.2859 32.9492 65.8513C27.4717 56.571 28.8828 44.4238 36.6533 36.6533C41.2817 32.0225 47.4694 29.6495 53.6782 29.6495C57.8645 29.6495 62.0625 30.729 65.7972 32.9209C67.253 33.7747 69.0121 33.9299 70.5738 33.2831L73.6311 32.0155C75.1716 31.3805 76.3193 30.0564 76.7356 28.4431C79.4261 18.0056 89.0121 10.4139 99.9999 10.4139C110.985 10.4139 120.574 18.0056 123.264 28.4431C123.68 30.0564 124.828 31.3781 126.366 32.0155L129.428 33.2831C130.964 33.9205 132.714 33.7958 134.148 32.9515C143.429 27.4741 155.576 28.8828 163.349 36.6533C171.117 44.4214 172.528 56.5686 167.051 65.8536C166.204 67.2883 166.079 69.0357 166.717 70.5738L167.984 73.6359C168.624 75.174 169.946 76.3216 171.559 76.7379C181.994 79.4284 189.588 89.0145 189.588 99.9999C189.588 110.988 181.994 120.574 171.559 123.264ZM177.744 67.7986C183.469 55.0235 180.931 39.5131 170.71 29.2897C160.489 19.0687 144.979 16.5287 132.201 22.2577C127.218 9.1745 114.457 0 99.9999 0C85.5455 0 72.7798 9.1745 67.7986 22.2577C55.0211 16.5287 39.5131 19.0687 29.2897 29.2897C19.0687 39.5131 16.531 55.0258 22.2577 67.7986C9.17214 72.7821 0 85.5455 0 99.9999C0 114.457 9.17214 127.22 22.2577 132.204C16.5263 144.976 19.0663 160.489 29.2897 170.71C35.9266 177.347 44.793 180.746 53.6923 180.746C60.3221 180.743 66.9731 178.857 72.7327 175.019H127.267C140.755 184.012 159.127 182.293 170.71 170.71C180.931 160.491 183.469 144.979 177.744 132.204C190.825 127.22 200 114.457 200 99.9999C200 85.5455 190.828 72.7821 177.744 67.7986Z" fill="#19194B"/>
<path fill-rule="evenodd" clip-rule="evenodd" d="M171.559 76.7374C169.946 76.3212 168.624 75.1735 167.984 73.6354L166.717 70.5733C166.079 69.0352 166.204 67.2878 167.051 65.8532C172.528 56.5681 171.117 44.4209 163.349 36.6528C155.576 28.8824 143.429 27.4736 134.149 32.9511C132.714 33.7977 130.967 33.92 129.428 33.2827L126.366 32.015C124.828 31.3777 123.681 30.0559 123.264 28.4426C120.574 18.0052 110.985 10.4135 100 10.4135C89.0122 10.4135 79.4261 18.0052 76.7356 28.4426C76.3194 30.0559 75.1717 31.38 73.6312 32.015L70.5738 33.2827C69.0122 33.9294 67.253 33.7742 65.7996 32.9228C62.0625 30.7286 57.8645 29.6514 53.6783 29.6514C47.4694 29.6514 41.2818 32.0221 36.6534 36.6528C28.8829 44.4233 27.4718 56.5705 32.9516 65.8532C33.7982 67.2854 33.9229 69.0352 33.2855 70.5733L32.0155 73.6354C31.3806 75.1735 30.0541 76.3212 28.4408 76.7374C18.0033 79.4279 10.4093 89.014 10.4093 100.002C10.4093 110.987 18.0033 120.573 28.4408 123.264C30.0541 123.68 31.3806 124.828 32.0155 126.366L33.2855 129.428C33.9229 130.968 33.7982 132.716 32.9516 134.15C27.4718 143.433 28.8829 155.578 36.6534 163.348C45.0259 171.726 58.4925 172.711 67.968 165.639L71.0818 164.607H128.916L132.027 165.639C141.51 172.709 154.972 171.726 163.349 163.348C171.117 155.58 172.528 143.433 167.051 134.148C166.204 132.713 166.079 130.966 166.717 129.428L167.984 126.366C168.624 124.828 169.946 123.68 171.559 123.264C181.994 120.573 189.588 110.987 189.588 100.002C189.588 89.014 181.997 79.4279 171.559 76.7374Z" fill="white"/>
<path fill-rule="evenodd" clip-rule="evenodd" d="M115.218 116.772L115.211 116.79C113.231 121.522 112.229 126.541 112.229 131.706C112.229 153.032 129.579 170.384 150.91 170.384C172.448 170.384 189.931 152.686 189.581 131.071C189.32 114.763 178.586 100.457 163.208 95.0218L162.674 94.8337C161.26 94.3351 160.317 92.9992 160.317 91.5011V88.0886C160.317 83.0298 156.434 78.6695 151.383 78.4202C146.867 78.1992 142.996 81.1766 141.846 85.2829C141.425 86.7904 140.026 87.8182 138.459 87.8182H134.127C132.561 87.8182 131.164 86.7904 130.743 85.2805C129.59 81.1766 125.719 78.1968 121.206 78.4202C116.15 78.6695 112.272 83.0298 112.272 88.091V89.488C112.272 91.44 110.689 93.0228 108.737 93.0228H98.2217C99.5364 98.9729 103.069 104.199 108.111 107.642C110.298 103.749 113.003 100.184 116.194 96.9926L117.375 95.8097C118.753 94.4292 120.992 94.4292 122.375 95.8073L124.736 98.1686C126.117 99.5491 126.117 101.788 124.736 103.169L123.556 104.349C119.976 107.931 117.173 112.11 115.218 116.772ZM150.91 180.795C123.84 180.795 101.818 158.773 101.818 131.706C101.818 126.79 102.533 121.974 103.955 117.338C93.6686 111.179 87.2457 100.059 87.2457 87.8182V86.1483C87.2457 84.194 88.8285 82.6136 90.7805 82.6136H102.554C104.847 74.1987 112.551 67.9993 121.681 67.9993C127.457 67.9993 132.667 70.4852 136.293 74.4433C139.92 70.4852 145.129 67.9993 150.91 67.9993C161.486 67.9993 170.157 76.3295 170.7 86.7763C188.367 94.5632 199.997 112.176 199.997 131.706C199.997 158.773 177.977 180.795 150.91 180.795Z" fill="#19194B"/>
<path fill-rule="evenodd" clip-rule="evenodd" d="M115.218 116.772L115.211 116.79C113.231 121.522 112.229 126.541 112.229 131.706C112.229 153.032 129.579 170.384 150.91 170.384C172.448 170.384 189.931 152.686 189.581 131.071C189.32 114.763 178.586 100.457 163.208 95.0218L162.674 94.8337C161.26 94.3351 160.317 92.9992 160.317 91.5011V88.0886C160.317 83.0298 156.434 78.6695 151.383 78.4202C146.867 78.1992 142.996 81.1766 141.846 85.2829C141.425 86.7904 140.026 87.8181 138.459 87.8181H134.127C132.561 87.8181 131.164 86.7904 130.743 85.2805C129.59 81.1766 125.719 78.1968 121.206 78.4202C116.15 78.6695 112.272 83.0298 112.272 88.091V89.4879C112.272 91.44 110.689 93.0227 108.737 93.0227H98.2217C99.5364 98.9729 103.069 104.199 108.111 107.642C110.298 103.749 113.003 100.184 116.194 96.9926L117.375 95.8097C118.753 94.4291 120.992 94.4291 122.375 95.8073L124.736 98.1686C126.117 99.5491 126.117 101.788 124.736 103.169L123.556 104.349C119.976 107.931 117.173 112.11 115.218 116.772Z" fill="white"/>
<path fill-rule="evenodd" clip-rule="evenodd" d="M165.567 108.843C162.639 108.843 160.263 111.219 160.263 114.147C160.263 117.075 162.639 119.45 165.567 119.45C168.495 119.45 170.87 117.075 170.87 114.147C170.87 111.219 168.495 108.843 165.567 108.843Z" fill="#19194B"/>
<path fill-rule="evenodd" clip-rule="evenodd" d="M174.154 144.238C174.154 149.118 178.113 153.076 182.993 153.076C187.875 153.076 191.833 149.118 191.833 144.238H174.154Z" fill="#19194B"/>
</svg>
