<svg class="icon" viewBox="0 0 200 201" fill="none" xmlns="http://www.w3.org/2000/svg">
<path fill-rule="evenodd" clip-rule="evenodd" d="M40.8604 180.712C39.6448 181.927 39.6448 183.897 40.8604 185.114L42.9395 187.191C44.1551 188.407 46.1244 188.407 47.34 187.191L72.6644 161.867L66.1847 155.387L40.8604 180.712Z" fill="#19194B"/>
<path fill-rule="evenodd" clip-rule="evenodd" d="M135.248 180.712L109.923 155.387L103.442 161.867L128.766 187.191C129.982 188.407 131.953 188.407 133.169 187.191L135.248 185.114C136.463 183.897 136.463 181.927 135.248 180.712Z" fill="#19194B"/>
<path fill-rule="evenodd" clip-rule="evenodd" d="M151.064 79.5692L140.455 78.3929L145.487 72.0127C152.043 63.6941 151.331 51.7702 143.835 44.2737C136.99 37.4316 126.295 36.1891 118.123 41.0121C116.86 41.7576 115.319 41.8674 113.967 41.3062L111.271 40.19C109.916 39.6288 108.906 38.4629 108.539 37.0444C106.17 27.8519 97.7273 21.1672 88.0523 21.1672C78.3794 21.1672 69.9386 27.8519 67.5675 37.0444C67.201 38.4629 66.1904 39.6288 64.8361 40.19L62.1419 41.3062C60.7689 41.8736 59.2178 41.739 57.9381 40.9873C54.6475 39.0573 50.9531 38.1067 47.2649 38.1067C41.7979 38.1067 36.3495 40.1941 32.2762 44.2737C25.4341 51.1137 24.1895 61.8096 29.0146 69.9853C29.7601 71.2465 29.8699 72.7872 29.3087 74.1394L28.1904 76.8377C27.6313 78.1921 26.4654 79.2026 25.0448 79.5692C15.8523 81.9382 9.16763 90.379 9.16763 100.054C9.16763 109.727 15.8523 118.168 25.0448 120.537C26.4654 120.903 27.6313 121.914 28.1904 123.268L29.3087 125.964C29.8699 127.321 29.7601 128.859 29.0146 130.123C24.1895 138.296 25.432 148.99 32.2762 155.832C39.6484 163.206 51.506 164.074 59.8495 157.849L62.5892 156.94H140.971L143.835 155.832C150.675 148.992 151.917 138.296 147.094 130.121C146.349 128.857 146.239 127.319 146.8 125.964L147.916 123.268C148.48 121.914 149.643 120.903 151.064 120.537C160.254 118.168 166.939 109.727 166.939 100.054C166.939 90.379 160.254 81.9382 151.064 79.5692Z" fill="white"/>
<path fill-rule="evenodd" clip-rule="evenodd" d="M151.064 120.537C149.643 120.904 148.479 121.914 147.916 123.269L146.8 125.965C146.239 127.319 146.349 128.858 147.094 130.121C151.917 138.297 150.675 148.993 143.835 155.833L140.971 156.94H62.5892L59.8495 157.85C51.506 164.074 39.6484 163.207 32.2762 155.833C25.432 148.99 24.1895 138.297 29.0146 130.121C29.7601 128.86 29.8699 127.319 29.3087 125.965L28.1904 123.269C27.6313 121.914 26.4654 120.904 25.0448 120.537C15.8523 118.168 9.16763 109.727 9.16763 100.052C9.16763 90.3794 15.8523 81.9365 25.0448 79.5696C26.4654 79.203 27.6313 78.1925 28.1904 76.8361L29.3087 74.1398C29.8699 72.7855 29.7601 71.2468 29.0146 69.9836C24.1895 61.81 25.4341 51.1141 32.2762 44.272C36.3495 40.1945 41.7979 38.1071 47.2649 38.1071C50.9531 38.1071 54.6475 39.0556 57.9381 40.9877C59.2178 41.7394 60.7689 41.874 62.1419 41.3066L64.836 40.1904C66.1904 39.6292 67.201 38.4633 67.5675 37.0448C69.9386 27.8523 78.3794 21.1676 88.0523 21.1676C97.7273 21.1676 106.17 27.8523 108.539 37.0448C108.906 38.4633 109.916 39.6292 111.271 40.1904L113.967 41.3066C115.319 41.8678 116.86 41.758 118.123 41.0125C126.295 36.1895 136.99 37.432 143.835 44.272C151.331 51.7706 152.043 63.6945 145.487 72.011L140.455 78.3933L151.064 79.5696C160.254 81.9365 166.939 90.3794 166.939 100.052C166.939 109.727 160.254 118.168 151.064 120.537ZM176.107 100.052C176.107 87.3228 168.03 76.0843 156.51 71.6983C161.553 60.4495 159.316 46.7922 150.318 37.7903C141.316 28.7904 127.659 26.5518 116.408 31.5964C112.02 20.0763 100.784 12 88.0523 12C75.3269 12 64.0864 20.0763 59.6983 31.5964C48.4474 26.5539 34.7943 28.7904 25.7903 37.7903C16.7904 46.7922 14.556 60.4495 19.5985 71.6983C8.07629 76.0843 0 87.3228 0 100.052C0 112.782 8.07629 124.02 19.5985 128.408C14.5539 139.655 16.7904 153.314 25.7903 162.314C31.6342 168.158 39.4434 171.151 47.2794 171.151C53.1151 171.151 58.9714 169.488 64.0429 166.106H139.519L150.318 162.314C159.316 153.314 161.553 139.655 156.51 128.408C168.028 124.02 176.107 112.782 176.107 100.052Z" fill="#19194B"/>
<path fill-rule="evenodd" clip-rule="evenodd" d="M125.35 114.819L125.344 114.836C123.598 119.002 122.718 123.421 122.718 127.969C122.718 146.747 137.995 162.026 156.775 162.026C175.74 162.026 191.137 146.443 190.828 127.41C190.598 113.051 181.147 100.454 167.604 95.6679L167.136 95.5022C165.891 95.0632 165.061 93.887 165.061 92.5678V89.563C165.061 85.1087 161.642 81.2693 157.194 81.0498C153.218 80.8552 149.809 83.4768 148.794 87.0925C148.424 88.4199 147.193 89.3249 145.814 89.3249H142C140.621 89.3249 139.388 88.4199 139.018 87.0905C138.005 83.4768 134.596 80.8531 130.623 81.0498C126.17 81.2693 122.755 85.1087 122.755 89.5651V90.7952C122.755 92.514 121.362 93.9077 119.643 93.9077H110.384C111.542 99.1469 114.65 103.748 119.092 106.78C121.016 103.353 123.399 100.213 126.21 97.4033L127.247 96.3616C128.463 95.146 130.434 95.146 131.65 96.3596L133.731 98.4387C134.946 99.6543 134.946 101.626 133.731 102.841L132.691 103.881C129.539 107.035 127.071 110.715 125.35 114.819ZM156.775 171.194C132.942 171.194 113.55 151.802 113.55 127.969C113.55 123.641 114.18 119.4 115.433 115.318C106.375 109.895 100.72 100.104 100.72 89.3249V87.8546C100.72 86.1337 102.113 84.7421 103.832 84.7421H114.199C116.216 77.3326 123.002 71.8739 131.039 71.8739C136.127 71.8739 140.714 74.0628 143.907 77.548C147.1 74.0628 151.687 71.8739 156.775 71.8739C166.09 71.8739 173.723 79.2088 174.203 88.4075C189.76 95.2641 200 110.773 200 127.969C200 151.802 180.611 171.194 156.775 171.194Z" fill="#19194B"/>
<path fill-rule="evenodd" clip-rule="evenodd" d="M125.35 114.819L125.344 114.836C123.598 119.002 122.718 123.421 122.718 127.969C122.718 146.747 137.995 162.026 156.775 162.026C175.74 162.026 191.137 146.443 190.828 127.41C190.598 113.051 181.147 100.454 167.604 95.6679L167.136 95.5022C165.891 95.0632 165.061 93.887 165.061 92.5678V89.563C165.061 85.1087 161.642 81.2693 157.194 81.0498C153.217 80.8551 149.809 83.4768 148.794 87.0925C148.423 88.4199 147.193 89.3249 145.814 89.3249H142C140.621 89.3249 139.388 88.4199 139.018 87.0905C138.005 83.4768 134.596 80.8531 130.623 81.0498C126.17 81.2693 122.755 85.1087 122.755 89.5651V90.7952C122.755 92.514 121.362 93.9077 119.643 93.9077H110.384C111.542 99.1469 114.65 103.748 119.092 106.78C121.016 103.353 123.399 100.213 126.21 97.4032L127.247 96.3616C128.463 95.146 130.434 95.146 131.65 96.3595L133.731 98.4387C134.946 99.6543 134.946 101.626 133.731 102.841L132.691 103.881C129.539 107.035 127.071 110.715 125.35 114.819Z" fill="white"/>
<path fill-rule="evenodd" clip-rule="evenodd" d="M169.683 107.838C167.105 107.838 165.013 109.93 165.013 112.508C165.013 115.086 167.105 117.178 169.683 117.178C172.261 117.178 174.351 115.086 174.351 112.508C174.351 109.93 172.261 107.838 169.683 107.838Z" fill="#19194B"/>
<path fill-rule="evenodd" clip-rule="evenodd" d="M177.245 139.004C177.245 143.301 180.73 146.786 185.027 146.786C189.324 146.786 192.809 143.301 192.809 139.004H177.245Z" fill="#19194B"/>
</svg>
