<svg class="icon" viewBox="0 0 360 267" fill="none" xmlns="http://www.w3.org/2000/svg">
<path fill-rule="evenodd" clip-rule="evenodd" d="M151.378 213.029C151.378 214.669 152.71 216 154.35 216H157.153C158.792 216 160.122 214.669 160.122 213.029V186.272H151.378V213.029Z" fill="#19194B"/>
<path fill-rule="evenodd" clip-rule="evenodd" d="M199.958 186.272V213.029C199.958 214.669 201.288 216 202.928 216H205.733C207.373 216 208.702 214.669 208.702 213.029V186.272H199.958Z" fill="#19194B"/>
<path fill-rule="evenodd" clip-rule="evenodd" d="M240.11 151.542C238.754 151.892 237.642 152.856 237.107 154.148L236.04 156.72C235.507 158.012 235.611 159.48 236.321 160.685C240.922 168.484 239.738 178.688 233.211 185.213C226.176 192.248 214.868 193.074 206.903 187.137L204.289 186.27H155.707L153.093 187.137C145.134 193.076 133.822 192.248 126.789 185.213C120.26 178.686 119.076 168.484 123.677 160.685C124.39 159.482 124.495 158.012 123.958 156.72L122.893 154.148C122.36 152.856 121.245 151.892 119.89 151.542C111.123 149.282 104.744 141.23 104.744 132C104.744 122.772 111.123 114.72 119.89 112.46C121.245 112.11 122.36 111.146 122.893 109.854L123.958 107.282C124.495 105.988 124.39 104.52 123.677 103.315C119.076 95.5196 120.262 85.3159 126.789 78.7888C130.677 74.8989 135.872 72.9056 141.09 72.9056C144.606 72.9056 148.131 73.8124 151.27 75.6536C152.491 76.3707 153.97 76.5011 155.28 75.9578L157.85 74.893C159.144 74.3596 160.108 73.2474 160.458 71.8922C162.718 63.1247 170.77 56.7477 179.998 56.7477C189.228 56.7477 197.28 63.1247 199.542 71.8922C199.892 73.2474 200.856 74.3576 202.148 74.893L204.718 75.9578C206.01 76.4932 207.478 76.3885 208.685 75.6793C216.48 71.0782 226.684 72.2616 233.211 78.7888C239.738 85.314 240.922 95.5176 236.321 103.317C235.611 104.522 235.507 105.99 236.04 107.282L237.107 109.854C237.642 111.146 238.754 112.11 240.11 112.46C248.875 114.72 255.254 122.772 255.254 132C255.254 141.23 248.875 149.282 240.11 151.542ZM245.305 104.951C250.114 94.2197 247.98 81.191 239.396 72.6034C230.809 64.0177 217.78 61.8841 207.049 66.6965C202.863 55.7066 192.142 48 179.998 48C167.858 48 157.135 55.7066 152.949 66.6965C142.218 61.8841 129.191 64.0177 120.603 72.6034C112.018 81.191 109.886 94.2217 114.695 104.951C103.705 109.137 96 119.858 96 132C96 144.144 103.705 154.865 114.695 159.051C109.882 169.78 112.016 182.811 120.603 191.396C126.178 196.971 133.626 199.826 141.102 199.826C146.669 199.824 152.257 198.24 157.094 195.016H202.904C214.234 202.57 229.665 201.126 239.396 191.396C247.98 182.813 250.114 169.782 245.305 159.051C256.293 154.865 263.998 144.144 263.998 132C263.998 119.858 256.293 109.137 245.305 104.951Z" fill="#19194B"/>
<path fill-rule="evenodd" clip-rule="evenodd" d="M240.11 112.459C238.754 112.11 237.642 111.145 237.107 109.853L236.04 107.281C235.507 105.989 235.611 104.522 236.321 103.316C240.922 95.517 239.738 85.3134 233.211 78.7882C226.684 72.261 216.48 71.0776 208.685 75.6787C207.478 76.3899 206.01 76.4926 204.718 75.9572L202.146 74.8924C200.856 74.357 199.892 73.2468 199.542 71.8915C197.28 63.1241 189.228 56.7471 179.998 56.7471C170.77 56.7471 162.718 63.1241 160.458 71.8915C160.108 73.2468 159.144 74.359 157.85 74.8924L155.28 75.9572C153.97 76.5005 152.491 76.3701 151.27 75.6549C148.131 73.8118 144.606 72.907 141.09 72.907C135.872 72.907 130.677 74.8983 126.789 78.7882C120.262 85.3153 119.076 95.519 123.677 103.316C124.391 104.52 124.495 105.989 123.958 107.281L122.893 109.853C122.36 111.145 121.245 112.11 119.89 112.459C111.123 114.719 104.744 122.772 104.744 132.001C104.744 141.229 111.123 149.281 119.89 151.541C121.245 151.891 122.358 152.855 122.893 154.147L123.958 156.719C124.495 158.013 124.391 159.481 123.677 160.686C119.076 168.484 120.26 178.685 126.789 185.212C133.822 192.249 145.134 193.077 153.093 187.137L155.707 186.269H204.289L206.903 187.137C214.868 193.075 226.176 192.249 233.211 185.212C239.738 178.687 240.922 168.484 236.321 160.684C235.611 159.479 235.507 158.011 236.04 156.719L237.107 154.147C237.642 152.855 238.754 151.891 240.11 151.541C248.875 149.281 255.254 141.229 255.254 132.001C255.254 122.772 248.875 114.719 240.11 112.459Z" fill="white"/>
<path fill-rule="evenodd" clip-rule="evenodd" d="M215.938 138.401C214.115 135.173 211.851 132.169 209.156 129.474L208.165 128.482C207.007 127.323 205.124 127.323 203.965 128.482L201.983 130.466C200.824 131.625 200.824 133.506 201.983 134.666L202.975 135.657C209.111 141.795 212.491 149.954 212.491 158.633C212.491 176.375 198.196 190.84 180.515 191.119C162.573 191.401 147.508 176.577 147.508 158.633C147.508 149.954 150.888 141.795 157.026 135.657L158.018 134.666C159.177 133.506 159.177 131.625 158.018 130.466L156.032 128.482C154.873 127.323 152.992 127.323 151.832 128.482L150.84 129.474C148.148 132.169 145.884 135.173 144.06 138.401C139.904 135.533 136.881 131.155 135.755 126.139H144.576C146.216 126.139 147.545 124.812 147.545 123.17V121.767C147.545 117.403 151.083 113.865 155.449 113.865C159.073 113.865 162.121 116.307 163.051 119.634C163.407 120.902 164.58 121.765 165.896 121.765H169.551C170.867 121.765 172.04 120.902 172.396 119.634C173.328 116.307 176.374 113.865 179.999 113.865C183.625 113.865 186.673 116.307 187.601 119.634C187.957 120.902 189.132 121.765 190.448 121.765H194.101C195.417 121.765 196.592 120.902 196.948 119.634C197.876 116.307 200.924 113.865 204.549 113.865C208.913 113.865 212.452 117.403 212.452 121.767V123.17C212.452 124.812 213.781 126.139 215.423 126.139H224.244C223.116 131.155 220.095 135.533 215.938 138.401Z" fill="white"/>
<path fill-rule="evenodd" clip-rule="evenodd" d="M192.317 139.961C189.857 139.961 187.862 141.954 187.862 144.416C187.862 146.875 189.857 148.869 192.317 148.869C194.776 148.869 196.771 146.875 196.771 144.416C196.771 141.954 194.776 139.961 192.317 139.961Z" fill="#19194B"/>
<path fill-rule="evenodd" clip-rule="evenodd" d="M167.765 139.961C165.306 139.961 163.31 141.954 163.31 144.416C163.31 146.875 165.306 148.869 167.765 148.869C170.225 148.869 172.22 146.875 172.22 144.416C172.22 141.954 170.225 139.961 167.765 139.961Z" fill="#19194B"/>
<path fill-rule="evenodd" clip-rule="evenodd" d="M187.422 183.956C187.422 188.057 184.098 191.38 179.998 191.38C175.899 191.38 172.574 188.057 172.574 183.956H187.422Z" fill="#19194B"/>
<path fill-rule="evenodd" clip-rule="evenodd" d="M215.938 138.401C214.115 135.173 211.851 132.168 209.156 129.474L208.165 128.482C207.007 127.322 205.124 127.322 203.965 128.482L201.983 130.465C200.824 131.625 200.824 133.506 201.983 134.665L202.975 135.657C209.111 141.795 212.491 149.954 212.491 158.633C212.491 176.375 198.196 190.84 180.515 191.118C162.573 191.401 147.508 176.576 147.508 158.633C147.508 149.954 150.888 141.795 157.026 135.657L158.018 134.665C159.177 133.506 159.177 131.625 158.018 130.465L156.032 128.482C154.873 127.322 152.992 127.322 151.832 128.482L150.84 129.474C148.148 132.168 145.884 135.173 144.06 138.401C139.904 135.533 136.881 131.155 135.755 126.139H144.576C146.216 126.139 147.545 124.811 147.545 123.17V121.767C147.545 117.403 151.083 113.865 155.449 113.865C159.073 113.865 162.121 116.307 163.051 119.633C163.407 120.902 164.58 121.765 165.896 121.765H169.551C170.866 121.765 172.04 120.902 172.396 119.633C173.328 116.307 176.374 113.865 179.999 113.865C183.625 113.865 186.673 116.307 187.601 119.633C187.957 120.902 189.132 121.765 190.448 121.765H194.101C195.417 121.765 196.592 120.902 196.948 119.633C197.876 116.307 200.924 113.865 204.549 113.865C208.913 113.865 212.452 117.403 212.452 121.767V123.17C212.452 124.811 213.781 126.139 215.423 126.139H224.244C223.116 131.155 220.095 135.533 215.938 138.401ZM230.504 117.393H220.614C218.69 110.329 212.216 105.119 204.549 105.119C199.696 105.119 195.318 107.207 192.273 110.532C189.229 107.207 184.853 105.119 179.999 105.119C175.145 105.119 170.77 107.207 167.723 110.532C164.679 107.207 160.301 105.119 155.447 105.119C147.78 105.119 141.308 110.329 139.382 117.393H129.495C127.855 117.393 126.526 118.725 126.526 120.364V121.767C126.526 132.107 132.128 141.396 140.574 146.517C139.313 150.638 138.687 154.978 138.77 159.423C139.187 181.865 157.804 200.002 180.254 199.869C202.874 199.73 221.237 181.286 221.237 158.633C221.237 154.458 220.616 150.381 219.429 146.503C219.429 146.505 219.431 146.509 219.433 146.511C227.873 141.39 233.473 132.105 233.473 121.767V120.364C233.473 118.725 232.144 117.393 230.504 117.393Z" fill="#19194B"/>
<path fill-rule="evenodd" clip-rule="evenodd" d="M179.687 72C180.762 72 181.633 72.8713 181.633 73.9461V79.7843C181.633 80.8591 180.762 81.7304 179.687 81.7304C178.612 81.7304 177.741 80.8591 177.741 79.7843V73.9461C177.741 72.8713 178.612 72 179.687 72Z" fill="#136A45"/>
<path d="M138.823 125.483V116.357C138.823 105.518 143.129 95.1233 150.793 87.4591C158.457 79.7949 168.852 75.4893 179.691 75.4893C190.53 75.4893 200.924 79.7949 208.589 87.4591C216.253 95.1233 220.558 105.518 220.558 116.357V125.483" fill="url(#sheep-papa-johns-paint0_linear_33800_235141)"/>
<path d="M224.264 137.926L220.555 125.472C207.881 119.074 193.883 115.741 179.687 115.741C165.491 115.741 151.493 119.074 138.819 125.472L135.11 137.926C134.884 138.64 134.867 139.403 135.063 140.125C135.259 140.847 135.659 141.497 136.215 141.998C136.771 142.499 137.46 142.828 138.199 142.948C138.937 143.067 139.695 142.971 140.38 142.671C152.835 137.52 166.215 134.982 179.691 135.214C193.167 134.982 206.547 137.52 219.002 142.671C219.687 142.972 220.445 143.069 221.185 142.95C221.924 142.831 222.613 142.502 223.17 142.001C223.727 141.5 224.127 140.849 224.323 140.127C224.519 139.404 224.503 138.64 224.276 137.926H224.264Z" fill="url(#sheep-papa-johns-paint1_linear_33800_235141)"/>
<path d="M205.061 97.7885C201.194 95.5615 192.279 93.296 188.509 92.9957L185.669 92.768C182.64 92.5215 180.968 92.3893 179.689 92.3893C178.41 92.3893 170.874 92.9998 170.874 92.9998C167.102 93.3 158.19 95.5649 154.321 97.7924C152.508 98.8337 152.312 99.5757 152.312 102.037V108.311C152.312 108.821 152.373 109.563 152.905 110.127C153.518 110.775 154.313 110.775 155.233 110.775H204.15C205.069 110.775 205.863 110.775 206.476 110.127C207.008 109.563 207.07 108.821 207.07 108.311V102.033C207.07 99.5723 206.873 98.8337 205.061 97.7885Z" fill="#077954"/>
<path d="M205.061 97.7885C201.194 95.5615 192.279 93.296 188.509 92.9957L185.669 92.768C182.64 92.5215 180.968 92.3893 179.689 92.3893C178.41 92.3893 170.874 92.9998 170.874 92.9998C167.102 93.3 158.19 95.5649 154.321 97.7924C152.508 98.8337 152.312 99.5757 152.312 102.037V108.311C152.312 108.821 152.373 109.563 152.905 110.127C153.518 110.775 154.313 110.775 155.233 110.775H204.15C205.069 110.775 205.863 110.775 206.476 110.127C207.008 109.563 207.07 108.821 207.07 108.311V102.033C207.07 99.5723 206.873 98.8337 205.061 97.7885ZM205.061 97.7885C206.873 98.8337 207.07 99.5723 207.07 102.033V108.311C207.07 108.821 207.008 109.563 206.476 110.127C205.863 110.775 205.069 110.775 204.15 110.775H155.233C154.313 110.775 153.518 110.775 152.905 110.127C152.373 109.563 152.312 108.821 152.312 108.311V102.037C152.312 99.5757 152.508 98.8337 154.321 97.7924C158.19 95.5649 167.102 93.3 170.874 92.9998C170.874 92.9998 178.41 92.3893 179.689 92.3893C180.968 92.3893 182.64 92.5215 185.669 92.768L188.509 92.9957C192.279 93.296 201.194 95.5615 205.061 97.7885Z" fill="black"/>
<path d="M206.466 108.308C206.466 108.704 206.423 109.277 206.049 109.673C205.612 110.135 204.999 110.135 204.149 110.134H155.233C154.381 110.134 153.77 110.134 153.333 109.673C152.959 109.277 152.916 108.704 152.916 108.308V102.034C152.916 99.6558 153.121 99.2076 154.612 98.3493C158.413 96.1578 167.202 93.9278 170.921 93.6324L173.76 93.4043C176.78 93.0587 178.456 92.9462 179.712 92.9462C180.967 92.9462 182.869 93.0256 185.627 93.4043L188.467 93.6324C192.188 93.9278 200.976 96.1578 204.776 98.3493C206.266 99.2077 206.472 99.6558 206.472 102.034V108.308H206.466Z" fill="white"/>
<path d="M206.466 108.308C206.466 108.704 206.423 109.277 206.049 109.673C205.612 110.135 204.999 110.135 204.149 110.134H155.233C154.381 110.134 153.77 110.134 153.333 109.673C152.959 109.277 152.916 108.704 152.916 108.308V102.034C152.916 99.6558 153.121 99.2076 154.612 98.3493C158.413 96.1578 167.202 93.9278 170.921 93.6324L173.76 93.4043C176.78 93.0587 178.456 92.9462 179.712 92.9462C180.967 92.9462 182.869 93.0256 185.627 93.4043L188.467 93.6324C192.188 93.9278 200.976 96.1578 204.776 98.3493C206.266 99.2077 206.472 99.6558 206.472 102.034V108.308H206.466ZM206.466 108.308H206.472V102.034C206.472 99.6558 206.266 99.2077 204.776 98.3493C200.976 96.1578 192.188 93.9278 188.467 93.6324L185.627 93.4043C182.869 93.0256 180.967 92.9462 179.712 92.9462C178.456 92.9462 176.78 93.0587 173.76 93.4043L170.921 93.6324C167.202 93.9278 158.413 96.1578 154.612 98.3493C153.121 99.2076 152.916 99.6558 152.916 102.034V108.308C152.916 108.704 152.959 109.277 153.333 109.673C153.77 110.134 154.381 110.134 155.233 110.134H204.149C204.999 110.135 205.612 110.135 206.049 109.673C206.423 109.277 206.466 108.704 206.466 108.308Z" fill="black"/>
<path d="M191.537 90.8323L191.183 90.7209C191.089 90.6942 188.805 90.0751 188.046 90.0583L188.218 89.1437C188.228 89.0707 188.205 88.9968 188.156 88.942C187.834 88.5038 184.473 87.5345 179.652 87.5345C174.89 87.5344 171.408 88.4317 171.079 88.8266C171.031 88.877 171.01 88.9474 171.022 89.0159L171.252 90.0573C170.495 90.0789 168.215 90.6973 168.115 90.7198L167.762 90.8303L167.976 91.0759L169.325 92.5081L169.033 94.9358L168.997 95.2666L169.305 95.1896C169.589 95.1197 169.902 95.0259 170.236 94.9263C171.007 94.6977 171.882 94.4382 172.494 94.4382C172.499 94.4382 172.953 94.4284 173.401 94.3899C173.558 94.3757 173.643 94.3304 173.663 94.2504C173.713 94.0405 173.189 93.6825 173.053 93.5987C173.289 93.3911 176.928 92.9953 179.652 93.0085H179.77C182.489 93.0085 186.045 93.3975 186.253 93.5967C186.119 93.6825 185.59 94.0394 185.641 94.2505C185.66 94.3304 185.745 94.3757 185.902 94.3899C186.35 94.4284 186.804 94.4382 186.81 94.4382C187.422 94.4382 188.296 94.6977 189.068 94.9263C189.4 95.021 189.716 95.1157 189.997 95.1897L190.307 95.2666L189.978 92.5081L191.328 91.0749L191.537 90.8323Z" fill="#DF2A27"/>
<path d="M191.537 90.8323L191.183 90.7209C191.089 90.6942 188.805 90.0751 188.046 90.0583L188.218 89.1437C188.228 89.0708 188.205 88.9968 188.156 88.942C187.834 88.5038 184.473 87.5345 179.652 87.5345C174.89 87.5344 171.408 88.4317 171.079 88.8266C171.031 88.877 171.01 88.9474 171.022 89.0159L171.252 90.0573C170.587 90.0763 168.746 90.556 168.241 90.6874C168.171 90.7056 168.127 90.7171 168.115 90.7198L167.762 90.8303L167.976 91.0759L169.325 92.5081L169.033 94.9358L168.997 95.2666L169.305 95.1896C169.585 95.1208 169.893 95.0287 170.221 94.9307L170.236 94.9263C170.236 94.9261 170.237 94.926 170.237 94.9258C171.009 94.6972 171.882 94.4382 172.494 94.4382C172.499 94.4382 172.953 94.4284 173.401 94.3899C173.558 94.3757 173.643 94.3304 173.663 94.2504C173.713 94.0405 173.189 93.6825 173.053 93.5987C173.289 93.3911 176.928 92.9953 179.652 93.0085H179.77C182.489 93.0085 186.045 93.3975 186.253 93.5967C186.119 93.6825 185.59 94.0394 185.641 94.2505C185.66 94.3304 185.745 94.3757 185.902 94.3899C186.35 94.4284 186.804 94.4382 186.81 94.4382C187.421 94.4382 188.294 94.6971 189.065 94.9256C189.064 94.9253 189.069 94.9267 189.068 94.9263C189.173 94.9563 189.277 94.9863 189.378 95.0155C189.475 95.0435 189.569 95.0709 189.662 95.0972C189.778 95.1303 189.89 95.1615 189.997 95.1897L190.307 95.2666L189.978 92.5081L191.328 91.0749L191.537 90.8323ZM191.537 90.8323L191.328 91.0749L189.978 92.5081L190.307 95.2666L189.997 95.1897C189.89 95.1615 189.778 95.1303 189.662 95.0972C189.569 95.0709 189.475 95.0435 189.378 95.0155C189.277 94.9863 189.173 94.9563 189.068 94.9263C189.069 94.9267 189.064 94.9253 189.065 94.9256C188.294 94.6971 187.421 94.4382 186.81 94.4382C186.804 94.4382 186.35 94.4284 185.902 94.3899C185.745 94.3757 185.66 94.3304 185.641 94.2505C185.59 94.0394 186.119 93.6825 186.253 93.5967C186.045 93.3975 182.489 93.0085 179.77 93.0085H179.652C176.928 92.9953 173.289 93.3911 173.053 93.5987C173.189 93.6825 173.713 94.0405 173.663 94.2504C173.643 94.3304 173.558 94.3757 173.401 94.3899C172.953 94.4284 172.499 94.4382 172.494 94.4382C171.882 94.4382 171.009 94.6972 170.237 94.9258C170.237 94.926 170.236 94.9261 170.236 94.9263L170.221 94.9307C169.893 95.0287 169.585 95.1208 169.305 95.1896L168.997 95.2666L169.033 94.9358L169.325 92.5081L167.976 91.0759L167.762 90.8303L168.115 90.7198C168.127 90.7171 168.171 90.7056 168.241 90.6874C168.746 90.556 170.587 90.0763 171.252 90.0573L171.022 89.0159C171.01 88.9474 171.031 88.877 171.079 88.8266C171.408 88.4317 174.89 87.5344 179.652 87.5345C184.473 87.5345 187.834 88.5038 188.156 88.942C188.205 88.9968 188.228 89.0708 188.218 89.1437L188.046 90.0583C188.805 90.0751 191.089 90.6942 191.183 90.7209L191.537 90.8323Z" fill="black"/>
<path d="M186.787 93.3681L186.715 93.3123C186.431 93.0378 182.804 92.5985 179.723 92.6408C176.638 92.5974 172.786 93.1038 172.581 93.3981L172.549 93.4336L172.525 93.3389C172.517 93.2991 171.679 89.418 171.632 89.2134C171.636 89.1779 171.652 89.1448 171.676 89.1187C171.977 88.7316 175.497 87.9754 179.723 87.9754C181.561 87.9843 183.396 88.1537 185.205 88.4816C186.537 88.7234 187.491 88.9788 187.655 89.1896C187.674 89.2266 187.677 89.2685 187.667 89.308C187.619 89.5116 186.878 92.946 186.87 92.9846L186.787 93.3681Z" fill="#077954"/>
<path d="M186.787 93.3681L186.715 93.3123C186.431 93.0378 182.804 92.5985 179.723 92.6408C176.638 92.5974 172.786 93.1038 172.581 93.3981L172.549 93.4336L172.525 93.3389C172.517 93.299 171.679 89.418 171.632 89.2134C171.636 89.1779 171.652 89.1448 171.676 89.1187C171.977 88.7316 175.497 87.9754 179.723 87.9754C181.561 87.9843 183.396 88.1537 185.205 88.4816C186.537 88.7234 187.491 88.9788 187.655 89.1896C187.674 89.2266 187.677 89.2685 187.667 89.308C187.619 89.5117 186.878 92.946 186.87 92.9846L186.787 93.3681ZM186.787 93.3681L186.87 92.9846C186.878 92.946 187.619 89.5117 187.667 89.308C187.677 89.2685 187.674 89.2266 187.655 89.1896C187.491 88.9788 186.537 88.7234 185.205 88.4816C183.396 88.1537 181.561 87.9843 179.723 87.9754C175.497 87.9754 171.977 88.7316 171.676 89.1187C171.652 89.1448 171.636 89.1779 171.632 89.2134C171.679 89.418 172.517 93.299 172.525 93.3389L172.549 93.4336L172.581 93.3981C172.786 93.1038 176.638 92.5974 179.723 92.6408C182.804 92.5985 186.431 93.0378 186.715 93.3123L186.787 93.3681Z" fill="black"/>
<path d="M172.122 93.8313L171.342 90.4454H171.325C170.725 90.4454 168.518 91.0369 168.518 91.0369L169.773 92.3621L169.504 94.7021C169.504 94.7021 170.261 94.5053 170.61 94.4097C171.008 94.2988 171.383 94.1947 171.705 94.1259C171.907 94.0838 172.11 94.0567 172.315 94.0454L172.477 94.0341L172.404 93.9931L172.122 93.8313Z" fill="#077954"/>
<path d="M172.122 93.8313L171.342 90.4454H171.325C170.725 90.4454 168.518 91.0369 168.518 91.0369L169.773 92.3621L169.504 94.7021C169.504 94.7021 170.261 94.5053 170.61 94.4097C171.008 94.2988 171.383 94.1947 171.705 94.1259C171.907 94.0838 172.11 94.0567 172.315 94.0454L172.477 94.0341L172.404 93.9931L172.122 93.8313ZM172.122 93.8313L172.404 93.9931L172.477 94.0341L172.315 94.0454C172.11 94.0567 171.907 94.0838 171.705 94.1259C171.383 94.1947 171.008 94.2988 170.61 94.4097C170.261 94.5053 169.504 94.7021 169.504 94.7021L169.773 92.3621L168.518 91.0369C168.518 91.0369 170.725 90.4454 171.325 90.4454H171.342L172.122 93.8313Z" fill="black"/>
<path d="M187.17 93.8954L187.95 90.5088H187.968C188.568 90.5088 190.774 91.1015 190.774 91.1015L189.519 92.4208L189.789 94.7607C189.789 94.7607 189.032 94.5639 188.682 94.4684C188.285 94.3583 187.909 94.2543 187.587 94.1844C187.386 94.1415 187.182 94.1144 186.976 94.104L186.815 94.0916L186.889 94.0507L187.17 93.8954Z" fill="#077954"/>
<path d="M187.17 93.8954L187.95 90.5088H187.968C188.568 90.5088 190.774 91.1015 190.774 91.1015L189.519 92.4208L189.789 94.7607C189.789 94.7608 189.031 94.5639 188.682 94.4684L188.674 94.4662C188.28 94.357 187.907 94.2539 187.587 94.1844C187.386 94.1415 187.182 94.1144 186.976 94.104L186.815 94.0916L186.889 94.0507L187.17 93.8954ZM187.17 93.8954L186.889 94.0507L186.815 94.0916L186.976 94.104C187.182 94.1144 187.386 94.1415 187.587 94.1844C187.907 94.2539 188.28 94.357 188.674 94.4662L188.682 94.4684C189.031 94.5639 189.789 94.7608 189.789 94.7607L189.519 92.4208L190.774 91.1015C190.774 91.1015 188.568 90.5088 187.968 90.5088H187.95L187.17 93.8954Z" fill="black"/>
<path d="M156.733 105.084L156.599 105.1C156.605 106.023 156.611 106.945 156.618 107.868L154.706 107.876V100.558C155.369 100.31 156.036 100.073 156.705 99.845C158.294 99.2894 159.286 99.8515 159.312 101.895C159.339 103.918 158.351 104.912 156.733 105.084ZM156.835 101.593L156.576 101.661C156.579 102.298 156.584 102.934 156.588 103.571L156.849 103.522C157.322 103.433 157.526 102.915 157.52 102.339C157.514 101.763 157.308 101.467 156.835 101.593Z" fill="#DF2A27"/>
<path d="M156.733 105.084L156.599 105.1C156.605 106.023 156.611 106.944 156.618 107.868L154.706 107.876V100.558C155.369 100.311 156.036 100.073 156.705 99.845C157.91 99.4237 158.771 99.645 159.129 100.667C159.243 100.993 159.306 101.401 159.312 101.895C159.339 103.918 158.351 104.912 156.733 105.084ZM156.733 105.084C158.351 104.912 159.339 103.918 159.312 101.895C159.306 101.401 159.243 100.993 159.129 100.667C158.771 99.645 157.91 99.4237 156.705 99.845C156.036 100.073 155.369 100.311 154.706 100.558V107.876L156.618 107.868C156.611 106.944 156.605 106.023 156.599 105.1L156.733 105.084ZM156.835 101.593L156.576 101.661V101.662C156.579 102.299 156.584 102.934 156.588 103.571L156.849 103.522C157.322 103.433 157.526 102.915 157.52 102.339C157.515 101.849 157.365 101.561 157.029 101.564C156.97 101.565 156.905 101.575 156.835 101.593ZM156.835 101.593C156.905 101.575 156.97 101.565 157.029 101.564C157.365 101.561 157.515 101.849 157.52 102.339C157.526 102.915 157.322 103.433 156.849 103.522L156.588 103.571C156.584 102.934 156.579 102.299 156.576 101.662V101.661L156.835 101.593Z" fill="black"/>
<path d="M166.717 104.146L166.544 104.158V107.837L164.58 107.837L164.564 97.6061C164.564 97.6061 165.938 97.3221 166.627 97.1969C168.265 96.8892 169.517 97.7737 169.547 100.321C169.576 102.84 168.336 103.977 166.717 104.146ZM166.777 99.4233C166.691 99.4357 166.548 99.4642 166.548 99.4642C166.548 99.4642 166.539 101.168 166.548 102.012C167.427 101.938 167.623 101.539 167.623 100.514C167.627 99.7084 167.26 99.3543 166.777 99.4233Z" fill="#DF2A27"/>
<path d="M166.717 104.146L166.544 104.158V107.837L164.58 107.837L164.564 97.6061C164.564 97.6061 165.938 97.3221 166.627 97.1969C168.014 96.9363 169.124 97.5307 169.45 99.2655C169.509 99.5793 169.543 99.9306 169.547 100.321C169.576 102.84 168.336 103.977 166.717 104.146ZM166.717 104.146C168.336 103.977 169.576 102.84 169.547 100.321C169.543 99.9306 169.509 99.5793 169.45 99.2655C169.124 97.5307 168.014 96.9363 166.627 97.1969C165.938 97.3221 164.564 97.6061 164.564 97.6061L164.58 107.837L166.544 107.837V104.158L166.717 104.146ZM166.777 99.4233C166.691 99.4357 166.548 99.4642 166.548 99.4642C166.548 99.4637 166.544 100.222 166.544 100.977C166.544 101.354 166.545 101.731 166.548 102.012C167.427 101.938 167.623 101.539 167.623 100.514C167.627 99.7761 167.319 99.417 166.896 99.4149C166.858 99.4147 166.818 99.4175 166.777 99.4233ZM166.777 99.4233C166.818 99.4175 166.858 99.4147 166.896 99.4149C167.319 99.417 167.627 99.7761 167.623 100.514C167.623 101.539 167.427 101.938 166.548 102.012C166.545 101.731 166.544 101.354 166.544 100.977C166.544 100.222 166.548 99.4637 166.548 99.4642C166.548 99.4642 166.691 99.4357 166.777 99.4233Z" fill="black"/>
<path d="M200.257 100.77C199.998 100.722 199.738 100.675 199.477 100.629C199.541 99.9975 199.624 99.3451 199.686 98.724C200.027 98.8186 200.372 98.9326 200.709 99.0336C200.568 99.5961 200.401 100.179 200.257 100.77Z" fill="#DF2A27"/>
<path d="M200.257 100.77C199.998 100.722 199.738 100.675 199.477 100.629C199.51 100.307 199.547 99.9798 199.584 99.6542C199.62 99.3415 199.656 99.0278 199.686 98.724C199.9 98.7833 200.115 98.8503 200.329 98.9169C200.457 98.9565 200.583 98.9959 200.709 99.0336C200.647 99.2823 200.579 99.5363 200.51 99.7919C200.441 100.054 200.37 100.319 200.303 100.586C200.287 100.647 200.272 100.708 200.257 100.77ZM200.257 100.77C200.272 100.708 200.287 100.647 200.303 100.586C200.37 100.319 200.441 100.054 200.51 99.7919C200.579 99.5363 200.647 99.2823 200.709 99.0336C200.583 98.9959 200.457 98.9565 200.329 98.9169C200.115 98.8503 199.9 98.7833 199.686 98.724C199.656 99.0278 199.62 99.3415 199.584 99.6542C199.547 99.9798 199.51 100.307 199.477 100.629C199.738 100.675 199.998 100.722 200.257 100.77Z" fill="black"/>
<path d="M199.155 106.924C199.155 106.536 199.155 106.153 199.155 105.775V98.5809L199.105 98.5679C198.526 98.4172 198.158 98.3204 197.552 98.1666L197.532 98.1608C197.532 98.2874 197.532 98.4117 197.532 98.5336V103.038C197.044 101.202 196.502 99.7039 195.944 97.8132C195.913 97.8132 195.881 97.8057 195.85 97.8008L194.108 97.4281V103.492C194.086 104.901 194.065 106.325 194.043 107.831L195.909 107.83V102.693C196.382 104.457 197.002 106.174 197.458 107.836L199.155 107.836V106.924Z" fill="#DF2A27"/>
<path d="M199.155 106.924V98.5809L199.105 98.5679L198.81 98.4909L198.562 98.4263C198.243 98.3434 197.949 98.2672 197.552 98.1666L197.532 98.1608V98.5336V103.038C197.241 101.943 196.931 100.969 196.61 99.9595C196.392 99.2756 196.17 98.577 195.944 97.8132C195.921 97.8132 195.897 97.809 195.874 97.8049C195.866 97.8035 195.857 97.802 195.85 97.8008L194.108 97.4281V103.492L194.108 103.534L194.102 103.877L194.097 104.221C194.079 105.392 194.061 106.586 194.043 107.831L195.909 107.83V102.693C196.157 103.619 196.446 104.532 196.731 105.431C196.988 106.244 197.242 107.047 197.458 107.836L199.155 107.836V106.924ZM199.155 106.924V107.836L197.458 107.836C197.242 107.047 196.988 106.244 196.731 105.431C196.446 104.532 196.157 103.619 195.909 102.693V107.83L194.043 107.831C194.061 106.586 194.079 105.392 194.097 104.221L194.102 103.877L194.108 103.534L194.108 103.492V97.4281L195.85 97.8008C195.857 97.802 195.866 97.8035 195.874 97.8049C195.897 97.809 195.921 97.8132 195.944 97.8132C196.17 98.577 196.392 99.2756 196.61 99.9595C196.931 100.969 197.241 101.943 197.532 103.038V98.5336V98.1608L197.552 98.1666C197.949 98.2672 198.243 98.3434 198.562 98.4263L198.81 98.4909L199.105 98.5679L199.155 98.5809V106.924Z" fill="black"/>
<path d="M193.457 97.3173L193.413 97.3109C192.75 97.196 191.477 97.0032 191.477 97.0032V101.051H190.03V97.1979C190.03 97.0683 190.03 96.9446 190.03 96.8296L189.783 96.7967L188.225 96.5826L187.98 96.5486V96.665C187.961 98.6292 187.97 100.451 187.98 102.225V107.82H190.028V103.664H191.478V107.82H193.456L193.457 97.3173Z" fill="#DF2A27"/>
<path d="M193.457 97.3173L193.413 97.3109C192.75 97.196 191.477 97.0032 191.477 97.0032V101.051H190.03V96.8296L189.783 96.7967L188.225 96.5826L187.98 96.5486V96.665C187.961 98.6299 187.97 100.451 187.98 102.225V107.82H190.028V103.664H191.478V107.82H193.456L193.457 97.3173ZM193.457 97.3173L193.456 107.82H191.478V103.664H190.028V107.82H187.98V102.225C187.97 100.451 187.961 98.6299 187.98 96.665V96.5486L188.225 96.5826L189.783 96.7967L190.03 96.8296V101.051H191.477V97.0032C191.477 97.0032 192.75 97.196 193.413 97.3109L193.457 97.3173Z" fill="black"/>
<path d="M202.875 102.646C202.564 102.315 202.381 102.037 202.381 101.806C202.381 101.55 202.475 101.326 202.767 101.342C203.109 101.361 203.165 101.789 203.181 102.072C203.181 102.136 203.19 102.201 203.194 102.262H204.917C204.865 100.747 204.31 99.8158 202.981 99.549C201.715 99.2952 200.5 99.866 200.481 101.442C200.468 102.414 200.898 103.282 201.617 103.988C201.943 104.313 202.268 104.628 202.595 104.935C202.908 105.227 203.068 105.431 203.063 105.645C203.063 105.906 202.922 106.118 202.632 106.118C202.283 106.118 202.129 105.764 202.114 105.468C202.108 105.349 202.103 105.214 202.102 105.084H200.37C200.37 105.17 200.37 105.256 200.37 105.342C200.349 106.946 201.248 107.948 202.563 107.948C204.099 107.948 204.953 106.978 204.95 105.676C204.95 104.907 204.508 104.313 203.833 103.629C203.512 103.312 203.193 102.984 202.875 102.646Z" fill="#DF2A27"/>
<path d="M202.875 102.646C202.564 102.315 202.38 102.037 202.38 101.806C202.38 101.559 202.469 101.341 202.739 101.341C202.748 101.341 202.757 101.341 202.767 101.342C203.109 101.361 203.165 101.789 203.181 102.072C203.181 102.116 203.185 102.159 203.189 102.202C203.19 102.222 203.192 102.242 203.194 102.262H204.917C204.864 100.747 204.31 99.8158 202.98 99.549C201.856 99.3234 200.771 99.7491 200.53 100.953C200.5 101.104 200.483 101.267 200.48 101.442C200.468 102.414 200.898 103.282 201.616 103.988C201.942 104.313 202.268 104.628 202.595 104.935C202.907 105.227 203.068 105.431 203.063 105.645C203.063 105.906 202.922 106.118 202.632 106.118C202.283 106.118 202.128 105.764 202.113 105.468C202.108 105.349 202.103 105.214 202.102 105.084H200.37V105.342C200.349 106.932 201.233 107.931 202.53 107.948C202.541 107.948 202.552 107.948 202.563 107.948C204.097 107.948 204.95 106.981 204.95 105.683C204.95 105.68 204.95 105.679 204.95 105.676C204.95 104.907 204.507 104.313 203.832 103.629C203.512 103.312 203.193 102.984 202.875 102.646ZM202.875 102.646C203.193 102.984 203.512 103.312 203.832 103.629C204.507 104.313 204.95 104.907 204.95 105.676C204.95 105.679 204.95 105.68 204.95 105.683C204.95 106.981 204.097 107.948 202.563 107.948C202.552 107.948 202.541 107.948 202.53 107.948C201.233 107.931 200.349 106.932 200.37 105.342V105.084H202.102C202.103 105.214 202.108 105.349 202.113 105.468C202.128 105.764 202.283 106.118 202.632 106.118C202.922 106.118 203.063 105.906 203.063 105.645C203.068 105.431 202.907 105.227 202.595 104.935C202.268 104.628 201.942 104.313 201.616 103.988C200.898 103.282 200.468 102.414 200.48 101.442C200.483 101.267 200.5 101.104 200.53 100.953C200.771 99.7491 201.856 99.3234 202.98 99.549C204.31 99.8158 204.864 100.747 204.917 102.262H203.194C203.192 102.242 203.19 102.222 203.189 102.202C203.185 102.159 203.181 102.116 203.181 102.072C203.165 101.789 203.109 101.361 202.767 101.342C202.757 101.341 202.748 101.341 202.739 101.341C202.469 101.341 202.38 101.559 202.38 101.806C202.38 102.037 202.564 102.315 202.875 102.646Z" fill="black"/>
<path d="M162.476 98.067C161.794 98.2327 161.114 98.4091 160.435 98.5961C159.939 101.831 159.438 104.924 158.928 107.857L160.84 107.852C160.876 107.481 160.951 106.733 160.951 106.733H162.08C162.08 106.733 162.175 107.463 162.22 107.847H164.196C163.622 104.465 163.049 101.205 162.476 98.067ZM161.119 105.003C161.119 105.003 161.342 102.731 161.446 101.595L161.467 101.595C161.599 102.69 161.894 105.003 161.894 105.003H161.119Z" fill="#DF2A27"/>
<path d="M162.476 98.067C161.794 98.2327 161.114 98.4091 160.435 98.5961C159.939 101.831 159.438 104.924 158.928 107.857L160.84 107.852C160.876 107.481 160.951 106.733 160.951 106.733H162.08C162.081 106.734 162.08 106.732 162.08 106.734C162.084 106.759 162.176 107.47 162.22 107.847H164.196C163.622 104.465 163.049 101.205 162.476 98.067ZM162.476 98.067C163.049 101.205 163.622 104.465 164.196 107.847H162.22C162.176 107.47 162.084 106.759 162.08 106.734C162.08 106.732 162.081 106.734 162.08 106.733H160.951C160.951 106.733 160.876 107.481 160.84 107.852L158.928 107.857C159.438 104.924 159.939 101.831 160.435 98.5961C161.114 98.4091 161.794 98.2327 162.476 98.067ZM161.119 105.003C161.119 105.003 161.342 102.731 161.446 101.595L161.467 101.595C161.599 102.691 161.894 105.002 161.894 105.003H161.119ZM161.119 105.003H161.894C161.894 105.002 161.599 102.691 161.467 101.595L161.446 101.595C161.342 102.731 161.119 105.003 161.119 105.003Z" fill="black"/>
<path d="M173.337 96.4071C172.618 96.486 171.401 96.6058 170.668 96.6837C170.132 100.507 169.605 104.15 169.08 107.832L171.22 107.832L171.337 106.484H172.751C172.751 106.484 172.846 107.378 172.895 107.833H175.073C174.499 103.953 173.931 100.188 173.337 96.4071ZM171.556 104.427L172.018 100.314H172.055L172.606 104.422L171.556 104.427Z" fill="#DF2A27"/>
<path d="M173.337 96.4071C172.927 96.4521 172.357 96.5102 171.806 96.5663C171.39 96.6087 170.984 96.6502 170.668 96.6837C170.311 99.2346 169.957 101.701 169.606 104.156C169.43 105.383 169.255 106.604 169.08 107.832L171.22 107.832L171.337 106.484H172.751C172.751 106.484 172.846 107.378 172.895 107.833H175.073C174.499 103.954 173.931 100.188 173.337 96.4071ZM173.337 96.4071C173.931 100.188 174.499 103.954 175.073 107.833H172.895C172.846 107.378 172.751 106.484 172.751 106.484H171.337L171.22 107.832L169.08 107.832C169.255 106.604 169.43 105.383 169.606 104.156C169.957 101.701 170.311 99.2346 170.668 96.6837C170.984 96.6502 171.39 96.6087 171.806 96.5663C172.357 96.5102 172.927 96.4521 173.337 96.4071ZM171.556 104.427L172.018 100.314H172.055L172.606 104.422L171.556 104.427ZM171.556 104.427L172.606 104.422L172.055 100.314H172.018L171.556 104.427Z" fill="black"/>
<path d="M184.583 96.1869C183.033 96.1326 181.82 97.3726 181.814 99.5247C181.808 101.186 181.803 102.848 181.798 104.509C181.791 106.644 183.073 107.96 184.595 107.957C186.117 107.954 187.278 106.58 187.3 104.504C187.317 102.882 187.321 101.348 187.338 99.7264C187.36 97.633 186.343 96.2475 184.583 96.1869ZM185.086 105.15C185.086 105.412 184.874 105.623 184.613 105.623L184.528 105.623C184.266 105.623 184.054 105.412 184.054 105.15V98.9878C184.054 98.7265 184.266 98.5144 184.528 98.5144H184.613C184.874 98.5144 185.086 98.7265 185.086 98.9878V105.15Z" fill="#DF2A27"/>
<path d="M184.583 96.1869C183.077 96.1342 181.889 97.303 181.817 99.343C181.815 99.4031 181.814 99.4632 181.814 99.5247L181.798 104.509C181.791 106.638 183.066 107.952 184.582 107.957C184.587 107.957 184.591 107.957 184.595 107.957C186.117 107.954 187.278 106.58 187.3 104.504C187.308 103.693 187.314 102.904 187.319 102.115C187.324 101.326 187.33 100.538 187.338 99.727V99.7264C187.36 97.633 186.343 96.2475 184.583 96.1869ZM184.583 96.1869C186.343 96.2475 187.36 97.633 187.338 99.7264V99.727C187.33 100.538 187.324 101.326 187.319 102.115C187.314 102.904 187.308 103.693 187.3 104.504C187.278 106.58 186.117 107.954 184.595 107.957C184.591 107.957 184.587 107.957 184.582 107.957C183.066 107.952 181.791 106.638 181.798 104.509L181.814 99.5247C181.814 99.4632 181.815 99.4031 181.817 99.343C181.889 97.303 183.077 96.1342 184.583 96.1869ZM185.086 105.15C185.086 105.412 184.874 105.623 184.613 105.623L184.528 105.623C184.266 105.623 184.054 105.412 184.054 105.15V98.9878C184.054 98.7265 184.266 98.5144 184.528 98.5144H184.613C184.874 98.5144 185.086 98.7265 185.086 98.9878V105.15ZM185.086 105.15V98.9878C185.086 98.7265 184.874 98.5144 184.613 98.5144H184.528C184.266 98.5144 184.054 98.7265 184.054 98.9878V105.15C184.054 105.412 184.266 105.623 184.528 105.623L184.613 105.623C184.874 105.623 185.086 105.412 185.086 105.15Z" fill="black"/>
<path d="M179.122 96.1488V105.373C179.122 105.54 179.002 105.682 178.838 105.712C178.83 105.712 178.821 105.712 178.813 105.712H178.757C178.568 105.711 178.415 105.558 178.414 105.369V104.2C177.829 104.2 177.104 104.21 176.521 104.219C176.521 104.503 176.521 105.159 176.521 105.441C176.521 106.915 177.421 107.928 178.767 107.928C178.882 107.927 178.997 107.92 179.111 107.905C180.584 107.798 181.193 106.821 181.193 104.612L181.208 96.1527L179.122 96.1488Z" fill="#DF2A27"/>
<path d="M179.122 96.1488V105.373C179.122 105.54 179.002 105.682 178.838 105.712C178.83 105.712 178.821 105.712 178.813 105.712H178.757C178.568 105.711 178.415 105.558 178.414 105.369V104.2C177.829 104.2 177.104 104.21 176.521 104.219V105.441C176.521 106.915 177.421 107.928 178.767 107.928C178.882 107.927 178.997 107.92 179.111 107.905C180.584 107.798 181.193 106.821 181.193 104.612L181.208 96.1527L179.122 96.1488ZM179.122 96.1488L181.208 96.1527L181.193 104.612C181.193 106.821 180.584 107.798 179.111 107.905C178.997 107.92 178.882 107.927 178.767 107.928C177.421 107.928 176.521 106.915 176.521 105.441V104.219C177.104 104.21 177.829 104.2 178.414 104.2V105.369C178.415 105.558 178.568 105.711 178.757 105.712H178.813C178.821 105.712 178.83 105.712 178.838 105.712C179.002 105.682 179.122 105.54 179.122 105.373V96.1488Z" fill="black"/>
<path d="M174.756 92.1143L174.398 89.2118L175.257 89.1058C175.836 89.0349 176.287 89.2819 176.355 89.833C176.423 90.3837 176.045 90.7673 175.466 90.8393L175.24 90.8664L175.385 92.0358L174.756 92.1143ZM175.405 90.3354C175.62 90.3172 175.771 90.117 175.73 89.906C175.704 89.6882 175.541 89.587 175.317 89.6142L175.091 89.6416L175.18 90.3631L175.405 90.3354Z" fill="white"/>
<path d="M174.756 92.1143L174.398 89.2118L175.257 89.1058C175.836 89.0349 176.287 89.2819 176.355 89.833C176.423 90.3837 176.045 90.7673 175.466 90.8393L175.24 90.8664L175.385 92.0358L174.756 92.1143ZM174.756 92.1143L175.385 92.0358L175.24 90.8664L175.466 90.8393C176.045 90.7673 176.423 90.3837 176.355 89.833C176.287 89.2819 175.836 89.0349 175.257 89.1058L174.398 89.2118L174.756 92.1143ZM175.405 90.3354C175.607 90.3183 175.752 90.1406 175.735 89.9443C175.734 89.9315 175.733 89.9188 175.73 89.906C175.704 89.6882 175.541 89.587 175.317 89.6142L175.091 89.6416L175.18 90.3631L175.405 90.3354ZM175.405 90.3354L175.18 90.3631L175.091 89.6416L175.317 89.6142C175.541 89.587 175.704 89.6882 175.73 89.906C175.733 89.9188 175.734 89.9315 175.735 89.9443C175.752 90.1406 175.607 90.3183 175.405 90.3354Z" fill="black"/>
<path d="M176.949 91.8438L176.777 88.9241L177.413 88.8876L177.583 91.8058L176.949 91.8438Z" fill="white"/>
<path d="M176.949 91.8438L176.777 88.9241L177.413 88.8876L177.583 91.8058L176.949 91.8438ZM176.949 91.8438L177.583 91.8058L177.413 88.8876L176.777 88.9241L176.949 91.8438Z" fill="black"/>
<path d="M178.23 91.7617L178.225 91.328L179.278 89.3458L178.237 89.3583L178.23 88.8377L180.008 88.8169L180.013 89.2172L178.948 91.2333L180.066 91.2199L180.072 91.7406L178.23 91.7617Z" fill="white"/>
<path d="M178.23 91.7617L178.225 91.328L179.278 89.3458L178.237 89.3583L178.23 88.8377L180.008 88.8169L180.013 89.2172L178.948 91.2333L180.066 91.2199L180.072 91.7406L178.23 91.7617ZM178.23 91.7617L180.072 91.7406L180.066 91.2199L178.948 91.2333L180.013 89.2172L180.008 88.8169L178.23 88.8377L178.237 89.3583L179.278 89.3458L178.225 91.328L178.23 91.7617Z" fill="black"/>
<path d="M180.635 91.7326L180.656 91.2993L181.829 89.3853L180.793 89.3319L180.819 88.8124L182.595 88.901L182.574 89.3009L181.385 91.248L182.502 91.3035L182.477 91.8232L180.635 91.7326Z" fill="white"/>
<path d="M180.635 91.7326L180.656 91.2993L181.829 89.3853L180.793 89.3319L180.819 88.8124L182.595 88.901L182.574 89.3009L181.385 91.248L182.502 91.3035L182.477 91.8232L180.635 91.7326ZM180.635 91.7326L182.477 91.8232L182.502 91.3035L181.385 91.248L182.574 89.3009L182.595 88.901L180.819 88.8124L180.793 89.3319L181.829 89.3853L180.656 91.2993L180.635 91.7326Z" fill="black"/>
<path d="M184.326 92.0534L184.305 91.6911L183.717 91.6151L183.606 91.9617L182.976 91.8813L184.052 89.0697L184.687 89.1511L184.985 92.1367L184.326 92.0534ZM184.24 90.0656H184.23L183.871 91.1615L184.294 91.2157L184.24 90.0656Z" fill="white"/>
<path d="M184.326 92.0534L184.305 91.6911L183.717 91.6151L183.606 91.9617L182.976 91.8813L184.052 89.0697L184.687 89.1511L184.985 92.1367L184.326 92.0534ZM184.326 92.0534L184.985 92.1367L184.687 89.1511L184.052 89.0697L182.976 91.8813L183.606 91.9617L183.717 91.6151L184.305 91.6911L184.326 92.0534ZM184.24 90.0656H184.23L183.871 91.1615L184.294 91.2157L184.24 90.0656ZM184.24 90.0656L184.294 91.2157L183.871 91.1615L184.23 90.0656H184.24Z" fill="black"/>
<g filter="url(#sheep-papa-johns-filter0_d_33800_235141)">
<path fill-rule="evenodd" clip-rule="evenodd" d="M233.295 176.801L232.881 177.247L232.78 177.355L192.046 221.448L193.168 224.861C193.78 226.809 195.852 227.896 197.803 227.292L217.88 221.078L217.886 223.263C217.886 224.739 218.472 226.153 219.515 227.197C220.558 228.24 221.973 228.826 223.448 228.826C224.924 228.826 226.339 228.24 227.382 227.197C228.425 226.153 229.011 224.739 229.011 223.263V217.633L240.136 214.189V232.534C240.136 234.009 240.722 235.424 241.765 236.467C242.808 237.511 244.223 238.097 245.698 238.097C247.174 238.097 248.589 237.511 249.632 236.467C250.675 235.424 251.261 234.009 251.261 232.534V210.613L272.09 203.868C273.983 203.093 275.51 201.627 276.361 199.768C277.213 197.909 277.326 195.795 276.678 193.856L276.674 193.859C276.674 193.859 276.672 193.855 276.671 193.851C272.405 181.205 260.679 172.116 244.571 167.231C242.105 166.47 239.528 165.799 236.858 165.258C236.282 165.141 235.686 165.162 235.12 165.321C234.554 165.48 234.033 165.771 233.602 166.17C232.564 167.125 231.818 168.355 231.453 169.718C231.087 171.08 231.116 172.518 231.536 173.865C231.862 174.899 232.412 175.849 233.147 176.645C233.196 176.698 233.245 176.75 233.295 176.801Z" fill="white"/>
<path d="M189.212 220.832L190.21 219.751L230.045 176.632C229.674 175.997 229.374 175.321 229.152 174.615L229.15 174.61C228.588 172.811 228.55 170.889 229.038 169.07C229.526 167.251 230.521 165.608 231.907 164.332C232.628 163.665 233.499 163.179 234.445 162.914C235.393 162.648 236.39 162.612 237.355 162.808L189.212 220.832ZM189.212 220.832L189.671 222.229M189.212 220.832L189.671 222.229M189.671 222.229L190.789 225.628C191.82 228.878 195.282 230.69 198.542 229.681L215.472 224.44C215.723 226.143 216.516 227.733 217.747 228.964C219.259 230.476 221.31 231.326 223.448 231.326C225.587 231.326 227.637 230.476 229.149 228.964C230.661 227.452 231.511 225.402 231.511 223.263V219.476L237.636 217.58V232.534C237.636 234.673 238.485 236.723 239.997 238.235C241.509 239.747 243.56 240.597 245.698 240.597C247.837 240.597 249.887 239.747 251.399 238.235C252.911 236.723 253.761 234.673 253.761 232.534V212.431L272.861 206.247L272.951 206.218M189.671 222.229L272.951 206.218M272.951 206.218L273.038 206.182M272.951 206.218L273.038 206.182M273.038 206.182C275.518 205.166 277.518 203.245 278.634 200.809C279.75 198.373 279.898 195.604 279.049 193.063L278.017 189.979M273.038 206.182L278.017 189.979M278.017 189.979L277.88 190.07M278.017 189.979L277.88 190.07M277.88 190.07C272.53 177.974 260.616 169.485 245.302 164.84C242.765 164.058 240.11 163.366 237.355 162.808L277.88 190.07ZM232.689 177.068L233.137 176.655L232.689 177.068Z" stroke="white" stroke-width="5"/>
</g>
<path fill-rule="evenodd" clip-rule="evenodd" d="M251.187 203.354V210.77V210.77L251.188 210.77L272.043 204.017C273.935 203.242 275.462 201.776 276.314 199.917C277.166 198.058 277.279 195.944 276.63 194.005L276.626 194.007C276.597 193.929 275.271 190.354 273.437 188.52C271.583 186.666 266.021 188.52 266.021 188.52L262.312 192.229V195.937C260.458 195.937 262.312 199.645 262.312 199.645L251.187 203.354ZM192.003 221.45L243.771 203.353L245.625 212.624L197.755 227.441C195.804 228.045 193.733 226.958 193.121 225.01L192.003 221.45Z" fill="#A76013"/>
<path fill-rule="evenodd" clip-rule="evenodd" d="M252.755 202.947C255.123 202.299 259.66 200.973 262.312 199.646C262.312 199.646 260.458 192.23 260.458 188.521C260.458 184.813 253.042 177.396 253.042 177.396H233.825L233.25 176.947L232.834 177.396H232.646L232.733 177.505L191.999 221.447L215.198 214.645C216.506 214.262 217.816 215.24 217.82 216.603L217.838 223.413C217.838 224.888 218.424 226.303 219.468 227.346C220.511 228.389 221.926 228.976 223.401 228.976C224.876 228.976 226.291 228.389 227.334 227.346C228.377 226.303 228.963 224.888 228.963 223.413V211.867C228.963 210.974 229.543 210.185 230.394 209.916L237.427 207.698C238.746 207.282 240.088 208.267 240.088 209.649V232.684C240.088 234.159 240.674 235.574 241.718 236.617C242.761 237.66 244.176 238.246 245.651 238.246C247.126 238.246 248.541 237.66 249.584 236.617C250.627 235.574 251.213 234.159 251.213 232.684V204.951C251.213 204.013 251.85 203.194 252.755 202.947Z" fill="#FAC34B"/>
<path d="M276.63 194.021C275.882 192.27 274.488 190.873 272.739 190.122C270.989 189.37 269.017 189.32 267.232 189.982C265.446 190.644 263.984 191.967 263.147 193.678C262.311 195.389 261.738 197.83 262.312 199.646C259.283 190.027 250.52 182.725 237.656 179.146C237.047 178.95 235.753 178.661 235.742 178.624C234.737 178.216 233.835 177.592 233.1 176.795C232.364 175.998 231.814 175.048 231.489 174.014C231.068 172.668 231.039 171.229 231.405 169.867C231.771 168.505 232.516 167.274 233.554 166.319C233.986 165.92 234.506 165.629 235.072 165.471C235.638 165.312 236.234 165.29 236.81 165.407C239.48 165.949 242.057 166.62 244.523 167.38C260.64 172.268 272.369 181.364 276.63 194.021Z" fill="url(#sheep-papa-johns-paint2_linear_33800_235141)"/>
<path d="M229.549 180.956C230.948 181.921 231.99 183.319 232.516 184.935C234.092 189.938 229.991 195.689 223.356 197.781C220.307 198.804 217.008 198.807 213.956 197.792" fill="#A92556"/>
<ellipse cx="242.92" cy="194.574" rx="3.90982" ry="2.60654" transform="rotate(-14.3221 242.92 194.574)" fill="#38AD5A"/>
<ellipse cx="239.402" cy="184.978" rx="2.68986" ry="1.79324" transform="rotate(-14.3221 239.402 184.978)" fill="#FDE293"/>
<ellipse cx="220.371" cy="194.349" rx="1.4409" ry="0.960602" transform="rotate(-29.4138 220.371 194.349)" fill="#F99493"/>
<ellipse cx="226.509" cy="192.303" rx="1.4409" ry="0.960602" transform="rotate(-29.4138 226.509 192.303)" fill="#F99493"/>
<ellipse cx="227.531" cy="186.165" rx="1.4409" ry="0.960602" transform="rotate(-29.4138 227.531 186.165)" fill="#F99493"/>
<ellipse cx="231.923" cy="200.322" rx="2.68986" ry="1.79324" transform="rotate(-14.3221 231.923 200.322)" fill="#FDE293"/>
<ellipse cx="254.429" cy="197.254" rx="2.68986" ry="1.79324" transform="rotate(-14.3221 254.429 197.254)" fill="#FDE293"/>
<ellipse cx="206.349" cy="212.598" rx="2.68986" ry="1.79324" transform="rotate(-14.3221 206.349 212.598)" fill="#FDE293"/>
<ellipse cx="217.636" cy="206.86" rx="5.42727" ry="3.61818" transform="rotate(-14.3221 217.636 206.86)" fill="#38AD5A"/>
<rect opacity="0.5" x="242.172" y="210.195" width="2.04598" height="23.5287" rx="1.02299" fill="#FDE293"/>
<rect opacity="0.5" x="219.667" y="214.287" width="2.04598" height="11.2529" rx="1.02299" fill="#FDE293"/>
<defs>
<filter id="sheep-papa-johns-filter0_d_33800_235141" x="168.96" y="148.572" width="130.551" height="117.748" filterUnits="userSpaceOnUse" color-interpolation-filters="sRGB">
<feFlood flood-opacity="0" result="BackgroundImageFix"/>
<feColorMatrix in="SourceAlpha" type="matrix" values="0 0 0 0 0 0 0 0 0 0 0 0 0 0 0 0 0 0 127 0" result="hardAlpha"/>
<feOffset dy="5.80585"/>
<feGaussianBlur stdDeviation="8.70877"/>
<feColorMatrix type="matrix" values="0 0 0 0 0 0 0 0 0 0 0 0 0 0 0 0 0 0 0.32 0"/>
<feBlend mode="normal" in2="BackgroundImageFix" result="effect1_dropShadow_33800_235141"/>
<feBlend mode="normal" in="SourceGraphic" in2="effect1_dropShadow_33800_235141" result="shape"/>
</filter>
<linearGradient id="sheep-papa-johns-paint0_linear_33800_235141" x1="179.691" y1="69.0471" x2="180.228" y2="144.441" gradientUnits="userSpaceOnUse">
<stop stop-color="#38AD5A"/>
<stop offset="1" stop-color="#136A45"/>
</linearGradient>
<linearGradient id="sheep-papa-johns-paint1_linear_33800_235141" x1="182.375" y1="149.809" x2="180.626" y2="119.186" gradientUnits="userSpaceOnUse">
<stop stop-color="#38AD5A"/>
<stop offset="1" stop-color="#136A45"/>
</linearGradient>
<linearGradient id="sheep-papa-johns-paint2_linear_33800_235141" x1="264.167" y1="175.542" x2="253.042" y2="192.229" gradientUnits="userSpaceOnUse">
<stop stop-color="#FAC34B"/>
<stop offset="1" stop-color="#E99B26"/>
</linearGradient>
</defs>
</svg>
