<svg class="icon" viewBox="0 0 200 201" fill="none" xmlns="http://www.w3.org/2000/svg">
<path fill-rule="evenodd" clip-rule="evenodd" d="M65.9265 196.463C65.9265 198.415 67.5093 200 69.4613 200H72.8009C74.7529 200 76.3357 198.415 76.3357 196.463V164.61H65.9265V196.463Z" fill="#19194B"/>
<path fill-rule="evenodd" clip-rule="evenodd" d="M123.76 164.61V196.463C123.76 198.415 125.343 200 127.295 200H130.634C132.586 200 134.169 198.415 134.169 196.463V164.61H123.76Z" fill="#19194B"/>
<path fill-rule="evenodd" clip-rule="evenodd" d="M171.557 123.264C169.943 123.68 168.622 124.828 167.984 126.366L166.714 129.428C166.079 130.966 166.204 132.714 167.048 134.148C172.526 143.434 171.117 155.581 163.346 163.349C154.972 171.724 141.507 172.707 132.027 165.64L128.916 164.607H71.0794L67.9679 165.64C58.4924 172.709 45.0258 171.724 36.6533 163.349C28.8805 155.578 27.4694 143.434 32.9492 134.148C33.7982 132.716 33.9228 130.966 33.2831 129.428L32.0155 126.366C31.3781 124.828 30.0541 123.68 28.4407 123.264C18.0033 120.574 10.4092 110.988 10.4092 99.9999C10.4092 89.0145 18.0033 79.4284 28.4407 76.7379C30.0541 76.3216 31.3781 75.174 32.0155 73.6359L33.2831 70.5738C33.9228 69.0333 33.7982 67.2859 32.9492 65.8513C27.4717 56.571 28.8828 44.4238 36.6533 36.6533C41.2817 32.0225 47.467 29.6495 53.6759 29.6495C57.8645 29.6495 62.0601 30.729 65.7972 32.9209C67.2506 33.7747 69.0121 33.9299 70.5714 33.2831L73.6311 32.0155C75.1692 31.3805 76.3169 30.0564 76.7332 28.4431C79.4237 18.0056 89.0121 10.4139 99.9975 10.4139C110.985 10.4139 120.571 18.0056 123.264 28.4431C123.68 30.0564 124.828 31.3781 126.364 32.0155L129.426 33.2831C130.964 33.9205 132.712 33.7958 134.148 32.9515C143.429 27.4741 155.576 28.8828 163.346 36.6533C171.117 44.4214 172.526 56.5686 167.048 65.8536C166.204 67.2883 166.079 69.0357 166.714 70.5738L167.984 73.6359C168.622 75.174 169.943 76.3216 171.557 76.7379C181.994 79.4284 189.586 89.0145 189.586 99.9999C189.586 110.988 181.994 120.574 171.557 123.264ZM177.744 67.7986C183.469 55.0235 180.929 39.5131 170.71 29.2897C160.487 19.0687 144.976 16.5287 132.201 22.2577C127.218 9.1745 114.454 0 99.9975 0C85.5432 0 72.7798 9.1745 67.7962 22.2577C55.0187 16.5287 39.5108 19.0687 29.2897 29.2897C19.0663 39.5131 16.5287 55.0258 22.2554 67.7986C9.17214 72.7821 0 85.5455 0 99.9999C0 114.457 9.17214 127.22 22.2554 132.204C16.5263 144.976 19.0663 160.489 29.2897 170.71C35.9266 177.347 44.793 180.746 53.6923 180.746C60.3198 180.743 66.9708 178.857 72.7304 175.019H127.267C140.752 184.012 159.125 182.293 170.71 170.71C180.929 160.491 183.469 144.979 177.744 132.204C190.823 127.22 199.997 114.457 199.997 99.9999C199.997 85.5455 190.825 72.7821 177.744 67.7986Z" fill="#19194B"/>
<path fill-rule="evenodd" clip-rule="evenodd" d="M171.559 76.7374C169.946 76.3212 168.622 75.1735 167.984 73.6354L166.714 70.5733C166.079 69.0352 166.204 67.2878 167.048 65.8532C172.526 56.5681 171.117 44.4209 163.347 36.6528C155.576 28.8824 143.429 27.4736 134.149 32.9511C132.712 33.7977 130.964 33.92 129.426 33.2827L126.364 32.015C124.828 31.3777 123.681 30.0559 123.264 28.4426C120.571 18.0052 110.985 10.4135 99.9976 10.4135C89.0122 10.4135 79.4261 18.0052 76.7333 28.4426C76.317 30.0559 75.1693 31.38 73.6312 32.015L70.5715 33.2827C69.0122 33.9294 67.2507 33.7742 65.7973 32.9228C62.0602 30.7286 57.8645 29.6514 53.6759 29.6514C47.4671 29.6514 41.2818 32.0221 36.6534 36.6528C28.8829 44.4233 27.4718 56.5705 32.9492 65.8532C33.7982 67.2854 33.9229 69.0352 33.2832 70.5733L32.0155 73.6354C31.3782 75.1735 30.0541 76.3212 28.4408 76.7374C18.0033 79.4279 10.4093 89.014 10.4093 100.002C10.4093 110.987 18.0033 120.573 28.4408 123.264C30.0541 123.68 31.3782 124.828 32.0155 126.366L33.2832 129.428C33.9229 130.968 33.7982 132.716 32.9492 134.15C27.4695 143.433 28.8806 155.578 36.6534 163.348C45.0259 171.726 58.4925 172.711 67.968 165.639L71.0795 164.607H128.916L132.025 165.639C141.507 172.709 154.972 171.726 163.347 163.348C171.117 155.58 172.526 143.433 167.048 134.148C166.204 132.713 166.079 130.966 166.714 129.428L167.984 126.366C168.622 124.828 169.943 123.68 171.557 123.264C181.994 120.573 189.586 110.987 189.586 100.002C189.586 89.014 181.994 79.4279 171.559 76.7374Z" fill="white"/>
<path fill-rule="evenodd" clip-rule="evenodd" d="M179.122 119.803C176.951 115.96 174.256 112.383 171.051 109.175L169.868 107.995C168.49 106.614 166.251 106.614 164.868 107.995L162.509 110.356C161.128 111.736 161.128 113.975 162.509 115.356L163.689 116.537C170.994 123.844 175.018 133.557 175.018 143.888C175.018 165.01 158 182.233 136.954 182.564C115.592 182.898 97.6571 165.25 97.6571 143.888C97.6571 133.557 101.681 123.844 108.988 116.537L110.169 115.356C111.549 113.975 111.549 111.736 110.169 110.356L107.805 107.995C106.425 106.614 104.186 106.614 102.805 107.995L101.625 109.175C98.4191 112.383 95.7238 115.96 93.5531 119.803C88.6049 116.388 85.0066 111.177 83.666 105.205H94.1669C96.119 105.205 97.7017 103.625 97.7017 101.671V100.001C97.7017 94.8056 101.914 90.5935 107.111 90.5935C111.427 90.5935 115.054 93.5004 116.161 97.4609C116.585 98.9707 117.982 99.9985 119.55 99.9985H123.899C125.467 99.9985 126.862 98.9707 127.285 97.4609C128.395 93.5004 132.022 90.5935 136.338 90.5935C140.653 90.5935 144.282 93.5004 145.387 97.4609C145.813 98.9707 147.21 99.9985 148.776 99.9985H153.125C154.691 99.9985 156.091 98.9707 156.514 97.4609C157.622 93.5004 161.248 90.5935 165.564 90.5935C170.759 90.5935 174.971 94.8056 174.971 100.001L174.974 101.671C174.974 103.625 176.556 105.205 178.508 105.205H189.009C187.666 111.177 184.07 116.388 179.122 119.803Z" fill="white"/>
<path fill-rule="evenodd" clip-rule="evenodd" d="M179.122 119.803C176.951 115.96 174.256 112.383 171.051 109.175L169.868 107.995C168.49 106.614 166.251 106.614 164.868 107.995L162.509 110.356C161.128 111.736 161.128 113.975 162.509 115.356L163.689 116.537C170.994 123.844 175.018 133.557 175.018 143.888C175.018 165.01 158 182.233 136.954 182.564C115.592 182.898 97.6571 165.25 97.6571 143.888C97.6571 133.557 101.681 123.844 108.988 116.537L110.169 115.356C111.549 113.975 111.549 111.736 110.169 110.356L107.805 107.995C106.425 106.614 104.186 106.614 102.805 107.995L101.625 109.175C98.4191 112.383 95.7239 115.96 93.5531 119.803C88.6049 116.388 85.0066 111.177 83.666 105.205H94.1669C96.119 105.205 97.7017 103.625 97.7017 101.671V100.001C97.7017 94.8056 101.914 90.5935 107.111 90.5935C111.427 90.5935 115.054 93.5003 116.161 97.4608C116.585 98.9707 117.982 99.9985 119.55 99.9985H123.899C125.467 99.9985 126.862 98.9707 127.285 97.4608C128.396 93.5003 132.022 90.5935 136.338 90.5935C140.653 90.5935 144.282 93.5003 145.387 97.4608C145.813 98.9707 147.21 99.9985 148.776 99.9985H153.125C154.691 99.9985 156.091 98.9707 156.514 97.4608C157.622 93.5003 161.248 90.5935 165.564 90.5935C170.759 90.5935 174.971 94.8056 174.971 100.001L174.974 101.671C174.974 103.625 176.556 105.205 178.508 105.205H189.009C187.666 111.177 184.07 116.388 179.122 119.803ZM196.462 94.7938H184.689C182.401 86.3837 174.691 80.1796 165.564 80.1796C159.785 80.1796 154.576 82.6678 150.95 86.6259C147.325 82.6678 142.116 80.1796 136.338 80.1796C130.559 80.1796 125.35 82.6678 121.723 86.6259C118.099 82.6678 112.89 80.1796 107.111 80.1796C97.984 80.1796 90.277 86.3837 87.9863 94.7938H76.2131C74.261 94.7938 72.6783 96.3766 72.6783 98.3286V100.001C72.6783 112.31 79.3481 123.369 89.4045 129.465C87.9017 134.37 87.1561 139.537 87.2549 144.827C87.7512 171.548 109.915 193.14 136.641 192.977C163.57 192.813 185.43 170.854 185.43 143.888C185.43 138.919 184.691 134.065 183.278 129.448C183.278 129.45 183.28 129.455 183.283 129.457C193.33 123.362 199.997 112.306 199.997 100.001V98.3286C199.997 96.3766 198.414 94.7938 196.462 94.7938Z" fill="#19194B"/>
<path fill-rule="evenodd" clip-rule="evenodd" d="M157.582 159.828C154.658 159.828 152.281 162.206 152.281 165.131C152.281 168.057 154.658 170.435 157.582 170.435C160.507 170.435 162.885 168.057 162.885 165.131C162.885 162.206 160.507 159.828 157.582 159.828Z" fill="#19194B"/>
<path fill-rule="evenodd" clip-rule="evenodd" d="M130.88 126.916C129.499 125.536 127.263 125.536 125.88 126.916C123.584 129.212 119.866 129.212 117.573 126.916H117.571C116.19 125.536 113.954 125.536 112.573 126.916C111.193 128.297 111.193 130.536 112.573 131.916C115.097 134.44 118.41 135.7 121.724 135.7C125.043 135.7 128.356 134.44 130.88 131.916C132.26 130.536 132.26 128.297 130.88 126.916Z" fill="#19194B"/>
<path fill-rule="evenodd" clip-rule="evenodd" d="M160.105 126.917H160.103C158.723 125.537 156.486 125.537 155.106 126.917C152.81 129.21 149.09 129.21 146.796 126.917C145.416 125.537 143.177 125.537 141.796 126.917C140.416 128.298 140.416 130.537 141.796 131.915C144.32 134.439 147.634 135.701 150.95 135.701C154.266 135.701 157.58 134.439 160.103 131.915C161.486 130.537 161.486 128.298 160.105 126.917Z" fill="#19194B"/>
</svg>
