<svg class="icon" viewBox="0 0 360 267" fill="none" xmlns="http://www.w3.org/2000/svg">
<path fill-rule="evenodd" clip-rule="evenodd" d="M151.378 213.028C151.378 214.668 152.71 215.999 154.35 215.999H157.153C158.792 215.999 160.122 214.668 160.122 213.028V186.271H151.378V213.028Z" fill="#19194B"/>
<path fill-rule="evenodd" clip-rule="evenodd" d="M199.958 186.271V213.028C199.958 214.668 201.288 215.999 202.928 215.999H205.733C207.373 215.999 208.702 214.668 208.702 213.028V186.271H199.958Z" fill="#19194B"/>
<path fill-rule="evenodd" clip-rule="evenodd" d="M240.11 151.542C238.754 151.892 237.642 152.856 237.107 154.148L236.04 156.72C235.507 158.012 235.611 159.48 236.321 160.685C240.922 168.484 239.738 178.688 233.211 185.213C226.176 192.248 214.868 193.074 206.903 187.137L204.289 186.27H155.707L153.093 187.137C145.134 193.076 133.822 192.248 126.789 185.213C120.26 178.686 119.076 168.484 123.677 160.685C124.39 159.482 124.495 158.012 123.958 156.72L122.893 154.148C122.36 152.856 121.245 151.892 119.89 151.542C111.123 149.282 104.744 141.23 104.744 132C104.744 122.772 111.123 114.72 119.89 112.46C121.245 112.11 122.36 111.146 122.893 109.854L123.958 107.282C124.495 105.988 124.39 104.52 123.677 103.315C119.076 95.5196 120.262 85.3159 126.789 78.7888C130.677 74.8989 135.872 72.9056 141.09 72.9056C144.606 72.9056 148.131 73.8124 151.27 75.6536C152.491 76.3707 153.97 76.5011 155.28 75.9578L157.85 74.893C159.144 74.3596 160.108 73.2474 160.458 71.8922C162.718 63.1247 170.77 56.7477 179.998 56.7477C189.228 56.7477 197.28 63.1247 199.542 71.8922C199.892 73.2474 200.856 74.3576 202.148 74.893L204.718 75.9578C206.01 76.4932 207.478 76.3885 208.685 75.6793C216.48 71.0782 226.684 72.2616 233.211 78.7888C239.738 85.314 240.922 95.5176 236.321 103.317C235.611 104.522 235.507 105.99 236.04 107.282L237.107 109.854C237.642 111.146 238.754 112.11 240.11 112.46C248.875 114.72 255.254 122.772 255.254 132C255.254 141.23 248.875 149.282 240.11 151.542ZM245.305 104.951C250.114 94.2197 247.98 81.191 239.396 72.6034C230.809 64.0177 217.78 61.8841 207.049 66.6965C202.863 55.7066 192.142 48 179.998 48C167.858 48 157.135 55.7066 152.949 66.6965C142.218 61.8841 129.191 64.0177 120.603 72.6034C112.018 81.191 109.886 94.2217 114.695 104.951C103.705 109.137 96 119.858 96 132C96 144.144 103.705 154.865 114.695 159.051C109.882 169.78 112.016 182.811 120.603 191.396C126.178 196.971 133.626 199.826 141.102 199.826C146.669 199.824 152.257 198.24 157.094 195.016H202.904C214.234 202.57 229.665 201.126 239.396 191.396C247.98 182.813 250.114 169.782 245.305 159.051C256.293 154.865 263.998 144.144 263.998 132C263.998 119.858 256.293 109.137 245.305 104.951Z" fill="#19194B"/>
<path fill-rule="evenodd" clip-rule="evenodd" d="M240.11 112.46C238.754 112.111 237.642 111.146 237.107 109.854L236.04 107.282C235.507 105.99 235.611 104.522 236.321 103.317C240.922 95.518 239.738 85.3143 233.211 78.7891C226.684 72.262 216.48 71.0786 208.685 75.6796C207.478 76.3908 206.01 76.4936 204.718 75.9582L202.146 74.8934C200.856 74.358 199.892 73.2477 199.542 71.8925C197.28 63.1251 189.228 56.748 179.998 56.748C170.77 56.748 162.718 63.1251 160.458 71.8925C160.108 73.2477 159.144 74.36 157.85 74.8934L155.28 75.9582C153.97 76.5015 152.491 76.3711 151.27 75.6559C148.131 73.8127 144.606 72.908 141.09 72.908C135.872 72.908 130.677 74.8993 126.789 78.7891C120.262 85.3163 119.076 95.52 123.677 103.317C124.391 104.521 124.495 105.99 123.958 107.282L122.893 109.854C122.36 111.146 121.245 112.111 119.89 112.46C111.123 114.72 104.744 122.773 104.744 132.002C104.744 141.23 111.123 149.282 119.89 151.542C121.245 151.892 122.358 152.856 122.893 154.148L123.958 156.72C124.495 158.014 124.391 159.482 123.677 160.687C119.076 168.485 120.26 178.686 126.789 185.213C133.822 192.25 145.134 193.078 153.093 187.138L155.707 186.27H204.289L206.903 187.138C214.868 193.076 226.176 192.25 233.211 185.213C239.738 178.688 240.922 168.485 236.321 160.685C235.611 159.48 235.507 158.012 236.04 156.72L237.107 154.148C237.642 152.856 238.754 151.892 240.11 151.542C248.875 149.282 255.254 141.23 255.254 132.002C255.254 122.773 248.875 114.72 240.11 112.46Z" fill="white"/>
<path fill-rule="evenodd" clip-rule="evenodd" d="M215.938 138.401C214.115 135.173 211.851 132.169 209.156 129.474L208.165 128.482C207.007 127.323 205.124 127.323 203.965 128.482L201.983 130.466C200.824 131.625 200.824 133.506 201.983 134.666L202.975 135.657C209.111 141.795 212.491 149.954 212.491 158.633C212.491 176.375 198.196 190.84 180.515 191.119C162.573 191.401 147.508 176.577 147.508 158.633C147.508 149.954 150.888 141.795 157.026 135.657L158.018 134.666C159.177 133.506 159.177 131.625 158.018 130.466L156.032 128.482C154.873 127.323 152.992 127.323 151.832 128.482L150.84 129.474C148.148 132.169 145.884 135.173 144.06 138.401C139.904 135.533 136.881 131.155 135.755 126.139H144.576C146.216 126.139 147.545 124.812 147.545 123.17V121.767C147.545 117.403 151.083 113.865 155.449 113.865C159.073 113.865 162.121 116.307 163.051 119.634C163.407 120.902 164.58 121.765 165.896 121.765H169.551C170.867 121.765 172.04 120.902 172.396 119.634C173.328 116.307 176.374 113.865 179.999 113.865C183.625 113.865 186.673 116.307 187.601 119.634C187.957 120.902 189.132 121.765 190.448 121.765H194.101C195.417 121.765 196.592 120.902 196.948 119.634C197.876 116.307 200.924 113.865 204.549 113.865C208.913 113.865 212.452 117.403 212.452 121.767V123.17C212.452 124.812 213.781 126.139 215.423 126.139H224.244C223.116 131.155 220.095 135.533 215.938 138.401Z" fill="white"/>
<path fill-rule="evenodd" clip-rule="evenodd" d="M192.317 139.961C189.857 139.961 187.862 141.954 187.862 144.416C187.862 146.875 189.857 148.869 192.317 148.869C194.776 148.869 196.771 146.875 196.771 144.416C196.771 141.954 194.776 139.961 192.317 139.961Z" fill="#19194B"/>
<path fill-rule="evenodd" clip-rule="evenodd" d="M167.765 139.961C165.306 139.961 163.31 141.954 163.31 144.416C163.31 146.875 165.306 148.869 167.765 148.869C170.225 148.869 172.22 146.875 172.22 144.416C172.22 141.954 170.225 139.961 167.765 139.961Z" fill="#19194B"/>
<path fill-rule="evenodd" clip-rule="evenodd" d="M187.422 183.957C187.422 188.058 184.098 191.381 179.998 191.381C175.899 191.381 172.574 188.058 172.574 183.957H187.422Z" fill="#19194B"/>
<path fill-rule="evenodd" clip-rule="evenodd" d="M215.938 138.401C214.115 135.173 211.851 132.168 209.156 129.474L208.165 128.482C207.007 127.322 205.124 127.322 203.965 128.482L201.983 130.465C200.824 131.625 200.824 133.506 201.983 134.665L202.975 135.657C209.111 141.795 212.491 149.954 212.491 158.633C212.491 176.375 198.196 190.84 180.515 191.118C162.573 191.401 147.508 176.576 147.508 158.633C147.508 149.954 150.888 141.795 157.026 135.657L158.018 134.665C159.177 133.506 159.177 131.625 158.018 130.465L156.032 128.482C154.873 127.322 152.992 127.322 151.832 128.482L150.84 129.474C148.148 132.168 145.884 135.173 144.06 138.401C139.904 135.533 136.881 131.155 135.755 126.139H144.576C146.216 126.139 147.545 124.811 147.545 123.17V121.767C147.545 117.403 151.083 113.865 155.449 113.865C159.073 113.865 162.121 116.307 163.051 119.633C163.407 120.902 164.58 121.765 165.896 121.765H169.551C170.866 121.765 172.04 120.902 172.396 119.633C173.328 116.307 176.374 113.865 179.999 113.865C183.625 113.865 186.673 116.307 187.601 119.633C187.957 120.902 189.132 121.765 190.448 121.765H194.101C195.417 121.765 196.592 120.902 196.948 119.633C197.876 116.307 200.924 113.865 204.549 113.865C208.913 113.865 212.452 117.403 212.452 121.767V123.17C212.452 124.811 213.781 126.139 215.423 126.139H224.244C223.116 131.155 220.095 135.533 215.938 138.401ZM230.504 117.393H220.614C218.69 110.329 212.216 105.119 204.549 105.119C199.696 105.119 195.318 107.207 192.273 110.532C189.229 107.207 184.853 105.119 179.999 105.119C175.145 105.119 170.77 107.207 167.723 110.532C164.679 107.207 160.301 105.119 155.447 105.119C147.78 105.119 141.308 110.329 139.382 117.393H129.495C127.855 117.393 126.526 118.725 126.526 120.364V121.767C126.526 132.107 132.128 141.396 140.574 146.517C139.313 150.638 138.687 154.978 138.77 159.423C139.187 181.865 157.804 200.002 180.254 199.869C202.874 199.73 221.237 181.286 221.237 158.633C221.237 154.458 220.616 150.381 219.429 146.503C219.429 146.505 219.431 146.509 219.433 146.511C227.873 141.39 233.473 132.105 233.473 121.767V120.364C233.473 118.725 232.144 117.393 230.504 117.393Z" fill="#19194B"/>
<path fill-rule="evenodd" clip-rule="evenodd" d="M179.687 72C180.762 72 181.633 72.8713 181.633 73.9461V79.7843C181.633 80.8591 180.762 81.7304 179.687 81.7304C178.612 81.7304 177.741 80.8591 177.741 79.7843V73.9461C177.741 72.8713 178.612 72 179.687 72Z" fill="#66141D"/>
<path d="M138.823 125.484V116.358C138.823 105.519 143.129 95.1242 150.793 87.4601C158.457 79.7959 168.852 75.4902 179.691 75.4902C190.53 75.4902 200.924 79.7959 208.589 87.4601C216.253 95.1242 220.558 105.519 220.558 116.358V125.484" fill="url(#sheep-just-burger-paint0_linear_36301_265089)"/>
<path d="M224.264 137.927L220.555 125.473C207.881 119.075 193.883 115.742 179.687 115.742C165.491 115.742 151.493 119.075 138.819 125.473L135.11 137.927C134.884 138.641 134.867 139.404 135.063 140.126C135.259 140.848 135.659 141.498 136.215 141.999C136.771 142.5 137.46 142.829 138.199 142.949C138.937 143.068 139.695 142.972 140.38 142.672C152.835 137.521 166.215 134.983 179.691 135.215C193.167 134.983 206.547 137.521 219.002 142.672C219.687 142.973 220.445 143.07 221.185 142.951C221.924 142.832 222.613 142.503 223.17 142.002C223.727 141.501 224.127 140.85 224.323 140.128C224.519 139.405 224.503 138.641 224.276 137.927H224.264Z" fill="url(#sheep-just-burger-paint1_linear_36301_265089)"/>
<g clip-path="url(#sheep-just-burger-clip0_36301_265089)">
<path d="M162.72 97.5055C162.706 97.5055 162.692 97.505 162.677 97.5039C162.595 97.4983 162.515 97.4762 162.442 97.4389C162.368 97.4017 162.303 97.35 162.249 97.2868C162.195 97.2237 162.154 97.1503 162.128 97.0709C162.102 96.9915 162.091 96.9076 162.097 96.824C162.383 92.5405 164.22 88.9989 167.41 86.5817C170.503 84.2385 174.749 83 179.688 83C184.628 83 188.874 84.2385 191.966 86.5817C195.177 89.0145 196.997 92.559 197.231 96.8319C197.239 97.0003 197.182 97.1653 197.071 97.2907C196.961 97.4161 196.807 97.4918 196.642 97.5012C196.477 97.5106 196.315 97.453 196.192 97.3409C196.069 97.2289 195.994 97.0715 195.984 96.9031C195.771 93.0209 194.125 89.8061 191.222 87.6065C188.346 85.4276 184.358 84.2757 179.688 84.2757C175.019 84.2757 171.03 85.4276 168.154 87.6064C165.267 89.7942 163.603 93.0117 163.343 96.911C163.332 97.0722 163.262 97.2232 163.146 97.3335C163.031 97.4439 162.878 97.5053 162.72 97.5055V97.5055Z" fill="white"/>
<path d="M194.469 111.999H164.907C164.16 111.999 163.443 111.695 162.914 111.155C162.386 110.615 162.088 109.882 162.088 109.119C162.088 109.109 162.088 109.099 162.088 109.089C162.088 109.08 162.088 109.07 162.088 109.06C162.088 108.712 162.099 108.349 162.121 107.981C162.132 107.813 162.208 107.656 162.332 107.545C162.456 107.434 162.618 107.377 162.783 107.388C162.948 107.398 163.102 107.475 163.211 107.601C163.321 107.727 163.377 107.892 163.368 108.06C163.348 108.391 163.337 108.717 163.336 109.029C163.337 109.041 163.338 109.052 163.338 109.064C163.338 109.073 163.338 109.083 163.338 109.092C163.338 109.106 163.337 109.12 163.336 109.133C163.341 109.556 163.508 109.961 163.802 110.258C164.096 110.556 164.493 110.723 164.907 110.724H194.469C194.883 110.723 195.28 110.556 195.574 110.258C195.869 109.96 196.036 109.556 196.04 109.133C196.039 109.118 196.038 109.104 196.038 109.09C196.038 109.081 196.038 109.073 196.038 109.064C196.038 109.052 196.039 109.041 196.04 109.03C196.039 108.717 196.029 108.391 196.009 108.06C195.998 107.891 196.054 107.725 196.164 107.598C196.273 107.472 196.428 107.395 196.593 107.384C196.758 107.374 196.921 107.431 197.045 107.543C197.169 107.655 197.245 107.812 197.255 107.981C197.277 108.348 197.289 108.711 197.289 109.06C197.289 109.07 197.289 109.08 197.288 109.089C197.289 109.099 197.289 109.109 197.289 109.119C197.288 109.882 196.991 110.615 196.462 111.155C195.934 111.695 195.217 111.998 194.469 111.999V111.999ZM163.331 108.976V108.977V108.976Z" fill="white"/>
<path d="M166.412 96.7725C166.299 96.5025 166.431 96.1553 166.695 95.9817C166.96 95.8081 167.243 95.8273 167.507 96.0201C167.753 96.213 168.074 97.0038 168.281 97.351C168.451 97.621 168.753 97.621 168.961 97.3703C169.263 97.0231 169.546 95.9815 169.716 95.3257C170.188 93.3004 170.981 90.2529 171.076 90.0792C171.227 89.7706 171.51 89.6355 171.831 89.7127C172.133 89.7706 172.341 90.0598 172.36 90.3878C172.36 90.6578 172.19 91.2558 170.887 96.3672C170.528 97.8718 169.811 99.087 168.508 99.087C167.413 99.0485 166.846 97.8913 166.412 96.7725Z" fill="white"/>
<path d="M172.957 97.4864C172.409 96.2326 172.655 94.0337 173.032 92.6064C173.165 92.0084 173.523 91.7189 173.92 91.8348C174.543 92.0277 174.449 92.5677 174.317 93.2236C174.014 94.4002 173.807 96.5798 174.373 96.5798C174.808 96.5798 175.336 95.4418 175.921 93.5129C176.11 92.9343 176.28 92.3749 176.45 91.7962C176.62 91.1983 176.903 90.9861 177.394 91.1212C177.791 91.2369 177.942 91.6612 177.772 92.2013C177.375 93.5901 176.979 94.9596 176.394 96.2712C176.016 97.1006 175.431 97.8528 174.902 98.1228C174.146 98.5087 173.353 98.2386 172.957 97.4864Z" fill="white"/>
<path d="M178.166 97.04C178.166 96.6929 178.412 96.3842 178.751 96.3842C179.242 96.3264 179.62 96.9243 180.3 96.9243C180.847 96.9243 181.376 96.3842 181.376 95.9601C181.357 95.4972 180.828 95.0921 180.205 94.6678C179.488 94.1662 178.94 93.7035 178.94 93.0282C178.94 91.7166 180.791 90.6945 182.226 90.6945C182.981 90.6559 183.679 90.9838 183.679 91.5238C183.679 92.2376 183.075 92.1797 182.471 92.1797C181.941 92.1608 181.414 92.2802 180.942 92.5268C180.451 92.7969 180.432 93.0669 180.866 93.3755C182.056 94.263 182.792 94.6679 182.792 95.9988C182.792 97.3105 181.527 98.3906 180.13 98.3906C179.205 98.3902 178.166 97.7344 178.166 97.04Z" fill="white"/>
<path d="M186.1 97.8716C186.194 97.5051 186.855 95.7691 187.988 92.8179C188.063 92.4707 187.818 92.3164 187.383 92.3164C186.723 92.3357 186.269 92.3548 185.967 92.3548C185.137 92.3932 184.684 92.3932 184.608 91.7183C184.57 91.2362 185.004 90.9274 185.76 90.9274H189.177C192.406 90.9274 192.878 90.889 193.18 91.0625C193.425 91.2168 193.558 91.4868 193.501 91.7762C193.425 92.2005 193.123 92.3356 192.406 92.3356C191.745 92.3356 191.065 92.3356 190.386 92.3163C189.932 92.2969 189.63 92.5091 189.46 92.9528C189.234 93.6279 188.969 94.2839 188.705 94.9395C187.988 96.7719 187.459 98.2572 187.308 98.4115C187.217 98.5539 187.082 98.6602 186.924 98.7129C186.766 98.7655 186.595 98.7613 186.439 98.7008C186.156 98.566 186.005 98.1994 186.1 97.8716Z" fill="white"/>
<path d="M161.076 100.137C161.284 99.1914 161.888 98.8828 162.945 98.8828C164.343 98.8828 165.608 99.6929 165.608 100.85C165.608 101.236 165.419 101.622 165.098 102.027C164.645 102.413 164.758 102.721 165.155 102.953C165.626 103.203 165.853 103.782 165.853 104.38C165.853 105.885 163.342 107.177 161.567 107.157C160.359 107.158 160 106.637 160 105.576C160 104.612 160.869 101.217 161.076 100.137ZM164.362 104.361C164.362 103.84 162.945 103.666 162.19 103.763C161.624 103.801 161.473 104.65 161.473 105.152C161.473 105.557 161.605 105.75 162.001 105.672C162.908 105.499 164.362 104.939 164.362 104.361ZM163.946 100.619C163.625 100.349 163.229 100.272 162.757 100.368C162.473 100.426 162.247 100.947 162.247 101.467C162.228 101.795 162.417 101.988 162.662 101.873C163.455 101.525 164.456 101.024 163.946 100.619Z" fill="white"/>
<path d="M166.929 105.77C166.381 104.516 166.627 102.317 167.004 100.89C167.137 100.292 167.495 100.002 167.892 100.118C168.515 100.311 168.42 100.851 168.289 101.507C167.986 102.683 167.779 104.863 168.345 104.863C168.779 104.863 169.308 103.725 169.893 101.796C170.082 101.217 170.252 100.658 170.422 100.079C170.592 99.4815 170.875 99.2693 171.366 99.4043C171.763 99.5201 171.913 99.9445 171.744 100.485C171.347 101.873 170.95 103.243 170.365 104.554C169.988 105.384 169.402 106.136 168.874 106.406C168.118 106.792 167.325 106.522 166.929 105.77Z" fill="white"/>
<path d="M172.525 104.438C172.507 104.496 173.205 100.966 173.394 100.079C173.564 99.3075 173.961 98.9796 174.735 98.9988C175.811 99.0567 176.642 99.5197 177.246 100.426C177.831 101.236 177.737 102.027 177 102.722L176.812 102.895C176.245 103.339 176.264 103.474 176.887 103.84C177.208 104.033 177.529 104.207 177.793 104.38C179.266 105.229 179.814 105.557 179.417 106.213C179.096 106.695 178.643 106.541 178.114 106.232L175.018 104.38C174.603 104.13 174.357 104.014 174.206 104.072C174.055 104.149 173.979 104.419 173.866 104.921C173.583 106.406 173.658 106.753 172.922 106.618C172.129 106.502 172.318 105.403 172.525 104.438ZM176.113 101.391C176.113 101.082 175.471 100.523 175.093 100.523C174.81 100.542 174.697 100.908 174.602 101.275C174.489 101.738 174.489 102.182 174.905 102.182C175.263 102.182 176.113 101.776 176.113 101.391V101.391Z" fill="white"/>
<path d="M180.115 104.553C180.285 102.412 181.115 99.885 182.494 98.9979C182.707 98.8693 182.946 98.7902 183.192 98.7664C183.74 98.7472 184.269 99.0751 184.514 99.673C184.578 99.805 184.6 99.9545 184.577 100.1C184.553 100.245 184.485 100.38 184.382 100.483C184.136 100.695 183.891 100.734 183.645 100.599C183.249 100.387 183.098 100.31 182.871 100.58C182.741 100.741 182.627 100.915 182.532 101.1C181.984 102.026 181.663 103.106 181.531 104.379C181.455 105.035 181.682 105.46 182.135 105.46C182.456 105.46 182.834 105.151 183.211 104.688C183.57 104.264 183.57 104.167 183.174 103.743C182.758 103.319 182.966 102.586 183.608 102.547C184.061 102.509 184.439 102.547 184.76 102.663C185.27 102.875 185.496 103.319 185.345 103.743C184.741 105.498 183.438 106.945 181.965 106.945C180.794 106.906 180.115 105.806 180.115 104.553Z" fill="white"/>
<path d="M185.647 106.213C185.647 105.692 186.459 103.397 186.894 102.278C187.592 100.368 187.837 99.6741 188.045 99.2498C188.253 98.864 188.555 98.6711 188.971 98.6711C189.518 98.6711 191.859 98.6327 192.143 98.6518C192.464 98.6711 192.728 98.9798 192.728 99.3462C192.709 99.6548 192.482 99.9056 192.162 99.9828C191.992 100.021 190.387 100.079 189.858 100.079C189.386 100.06 189.103 100.253 188.989 100.716C188.933 100.909 188.706 101.487 188.649 101.642C188.555 101.95 188.687 102.182 189.008 102.201C190.065 102.317 190.726 102.355 190.519 103.165C190.494 103.297 190.426 103.416 190.327 103.504C190.228 103.591 190.102 103.642 189.971 103.647C189.499 103.705 188.177 103.512 187.894 103.782C187.762 103.918 187.422 104.94 187.328 105.326C187.177 105.808 187.724 105.846 188.177 105.846H189.612C190.198 105.846 190.519 106.097 190.519 106.502C190.5 106.927 190.16 107.216 189.631 107.254C188.593 107.312 186.572 107.254 186.233 107.119C185.836 106.946 185.647 106.637 185.647 106.213Z" fill="white"/>
<path d="M192.983 104.438C192.965 104.496 193.663 100.966 193.852 100.079C194.022 99.3075 194.418 98.9796 195.193 98.9988C196.269 99.0567 197.1 99.5197 197.704 100.426C198.289 101.236 198.195 102.027 197.458 102.722L197.27 102.895C196.703 103.339 196.722 103.474 197.345 103.84C197.666 104.033 197.987 104.207 198.251 104.38C199.724 105.229 200.272 105.557 199.875 106.213C199.554 106.695 199.101 106.541 198.572 106.232L195.476 104.38C195.061 104.13 194.815 104.014 194.664 104.072C194.513 104.149 194.437 104.419 194.324 104.921C194.041 106.406 194.117 106.753 193.38 106.618C192.587 106.502 192.776 105.403 192.983 104.438ZM196.571 101.391C196.571 101.082 195.929 100.523 195.551 100.523C195.268 100.542 195.155 100.908 195.06 101.275C194.947 101.738 194.947 102.182 195.362 102.182C195.721 102.182 196.571 101.776 196.571 101.391V101.391Z" fill="white"/>
</g>
<g clip-path="url(#sheep-just-burger-clip1_36301_265089)">
<path d="M212.043 208.5C212.41 206.372 214.433 204.944 216.561 205.311L275.765 215.513C277.893 215.88 279.321 217.903 278.954 220.031L277.57 228.067C277.203 230.196 275.18 231.624 273.052 231.257L213.848 221.055C211.719 220.688 210.291 218.665 210.658 216.536L212.043 208.5Z" fill="url(#sheep-just-burger-paint2_linear_36301_265089)"/>
<path d="M276.797 221.772C276.277 221.682 275.744 221.696 275.229 221.813C274.714 221.929 274.227 222.146 273.796 222.451L267.54 226.864C266.399 227.67 265.034 228.096 263.637 228.083C262.241 228.069 260.883 227.617 259.758 226.79L247.534 217.8C246.287 216.88 244.842 216.264 243.315 216.002L214.477 211.033C212.738 210.733 210.95 211.137 209.508 212.155C208.066 213.173 207.087 214.722 206.787 216.462C206.487 218.202 206.891 219.99 207.909 221.432C208.927 222.874 210.477 223.853 212.217 224.153L274.536 234.892C276.276 235.192 278.064 234.788 279.506 233.77C280.948 232.752 281.927 231.202 282.227 229.463C282.526 227.723 282.123 225.935 281.105 224.493C280.086 223.051 278.537 222.072 276.797 221.772Z" fill="#A76013"/>
<path d="M213.181 222.968C212.746 222.893 212.299 222.994 211.939 223.249C211.578 223.503 211.333 223.891 211.258 224.326L210.976 225.966C210.676 227.705 211.08 229.493 212.098 230.935C213.116 232.377 214.665 233.356 216.405 233.656L265.605 242.134C267.345 242.434 269.132 242.031 270.575 241.012C272.017 239.994 272.996 238.445 273.295 236.705L273.578 235.065C273.653 234.63 273.552 234.183 273.297 233.822C273.043 233.462 272.656 233.217 272.221 233.142L213.181 222.968Z" fill="url(#sheep-just-burger-paint3_linear_36301_265089)"/>
<path d="M218.125 200.516C216.94 200.311 215.734 200.205 214.545 200.391C212.488 200.714 209.348 201.598 208.935 203.998C208.313 207.606 211.039 209.426 214.647 210.048C215.932 210.278 217.253 210.217 218.511 209.87C218.883 209.759 219.281 209.781 219.638 209.932C219.995 210.084 220.287 210.355 220.465 210.7C221.115 211.994 222.066 213.114 223.238 213.965C224.41 214.816 225.77 215.373 227.202 215.589C228.648 215.99 230.177 215.983 231.619 215.569C233.062 215.154 234.361 214.349 235.374 213.242C235.464 213.139 235.578 213.06 235.706 213.012C235.833 212.965 235.971 212.949 236.106 212.967C236.241 212.985 236.37 213.036 236.481 213.115C236.592 213.195 236.681 213.301 236.741 213.423C237.666 214.889 238.912 216.125 240.384 217.039C241.857 217.952 243.518 218.52 245.242 218.698C246.926 219.107 248.681 219.129 250.374 218.76C252.068 218.392 253.655 217.644 255.017 216.573C255.116 216.478 255.236 216.409 255.367 216.372C255.498 216.335 255.636 216.33 255.769 216.358C255.903 216.386 256.027 216.447 256.132 216.534C256.236 216.622 256.318 216.733 256.369 216.86C256.952 218.242 257.907 219.436 259.127 220.309C260.347 221.182 261.785 221.701 263.282 221.807C264.702 222.083 266.167 222.015 267.556 221.608C268.944 221.201 270.215 220.466 271.26 219.466C271.544 219.201 271.911 219.043 272.299 219.019C272.686 218.996 273.07 219.109 273.383 219.339C274.452 220.088 275.676 220.587 276.964 220.801C280.589 221.425 283.75 220.619 284.372 217.011C284.786 214.61 282.119 212.725 280.289 211.733C279.234 211.161 278.064 210.858 276.881 210.654L218.125 200.516Z" fill="url(#sheep-just-burger-paint4_linear_36301_265089)"/>
<path d="M275.859 211.478C276.082 211.517 276.31 211.51 276.53 211.457C276.75 211.405 276.957 211.308 277.139 211.172C277.32 211.037 277.472 210.866 277.585 210.67C277.698 210.474 277.77 210.257 277.797 210.032C279.705 193.565 268.098 179.744 251.472 176.879C234.846 174.014 219.282 183.153 215.573 199.306C215.522 199.527 215.516 199.756 215.557 199.979C215.598 200.202 215.683 200.414 215.809 200.602C215.935 200.791 216.098 200.952 216.288 201.075C216.478 201.199 216.691 201.282 216.914 201.32L275.859 211.478ZM231.681 193.733C231.032 193.621 230.431 193.319 229.954 192.866C229.476 192.413 229.144 191.828 228.999 191.186C228.854 190.544 228.903 189.873 229.139 189.259C229.375 188.644 229.788 188.114 230.326 187.734C230.864 187.354 231.502 187.143 232.16 187.126C232.818 187.109 233.467 187.287 234.023 187.639C234.58 187.99 235.02 188.499 235.287 189.101C235.554 189.702 235.638 190.369 235.526 191.018C235.376 191.888 234.887 192.663 234.165 193.172C233.444 193.681 232.55 193.883 231.681 193.733ZM241.011 188.586C240.362 188.474 239.761 188.173 239.284 187.719C238.807 187.266 238.475 186.681 238.33 186.039C238.185 185.397 238.233 184.726 238.47 184.112C238.706 183.497 239.119 182.967 239.657 182.587C240.194 182.207 240.833 181.996 241.491 181.979C242.149 181.962 242.797 182.141 243.354 182.492C243.91 182.844 244.35 183.352 244.617 183.954C244.885 184.555 244.968 185.223 244.856 185.871C244.706 186.741 244.217 187.516 243.496 188.025C242.775 188.534 241.881 188.736 241.011 188.586ZM248.08 196.559C247.432 196.447 246.831 196.146 246.353 195.692C245.876 195.239 245.544 194.654 245.399 194.012C245.254 193.37 245.303 192.699 245.539 192.085C245.775 191.47 246.188 190.94 246.726 190.56C247.264 190.18 247.902 189.969 248.56 189.952C249.218 189.935 249.867 190.114 250.423 190.465C250.98 190.817 251.419 191.325 251.687 191.927C251.954 192.528 252.037 193.196 251.926 193.844C251.776 194.714 251.286 195.489 250.565 195.998C249.844 196.507 248.95 196.709 248.08 196.559ZM257.411 191.412C256.762 191.3 256.161 190.999 255.684 190.545C255.207 190.092 254.874 189.507 254.729 188.865C254.585 188.223 254.633 187.552 254.869 186.938C255.106 186.324 255.519 185.793 256.056 185.413C256.594 185.034 257.232 184.822 257.891 184.805C258.549 184.788 259.197 184.967 259.753 185.318C260.31 185.67 260.75 186.178 261.017 186.78C261.285 187.381 261.368 188.049 261.256 188.697C261.106 189.567 260.617 190.342 259.896 190.851C259.175 191.36 258.281 191.562 257.411 191.412ZM264.48 199.385C263.832 199.273 263.231 198.972 262.753 198.518C262.276 198.065 261.944 197.48 261.799 196.838C261.654 196.196 261.703 195.525 261.939 194.911C262.175 194.297 262.588 193.766 263.126 193.386C263.664 193.007 264.302 192.795 264.96 192.778C265.618 192.761 266.266 192.94 266.823 193.291C267.38 193.643 267.819 194.151 268.087 194.753C268.354 195.354 268.437 196.022 268.326 196.67C268.176 197.54 267.686 198.315 266.965 198.824C266.244 199.333 265.35 199.535 264.48 199.385Z" fill="url(#sheep-just-burger-paint5_linear_36301_265089)"/>
<path d="M275.859 211.478C276.082 211.517 276.31 211.51 276.53 211.457C276.75 211.405 276.957 211.308 277.139 211.172C277.32 211.037 277.472 210.866 277.585 210.67C277.698 210.474 277.77 210.257 277.797 210.032C279.705 193.565 268.098 179.744 251.472 176.879C234.846 174.014 219.282 183.153 215.573 199.306C215.522 199.527 215.516 199.756 215.557 199.979C215.598 200.202 215.683 200.414 215.809 200.602C215.935 200.791 216.098 200.952 216.288 201.075C216.478 201.199 216.691 201.282 216.914 201.32L275.859 211.478ZM231.681 193.733C231.032 193.621 230.431 193.319 229.954 192.866C229.476 192.413 229.144 191.828 228.999 191.186C228.854 190.544 228.903 189.873 229.139 189.259C229.375 188.644 229.788 188.114 230.326 187.734C230.864 187.354 231.502 187.143 232.16 187.126C232.818 187.109 233.467 187.287 234.023 187.639C234.58 187.99 235.02 188.499 235.287 189.101C235.554 189.702 235.638 190.369 235.526 191.018C235.376 191.888 234.887 192.663 234.165 193.172C233.444 193.681 232.55 193.883 231.681 193.733ZM241.011 188.586C240.362 188.474 239.761 188.173 239.284 187.719C238.807 187.266 238.475 186.681 238.33 186.039C238.185 185.397 238.233 184.726 238.47 184.112C238.706 183.497 239.119 182.967 239.657 182.587C240.194 182.207 240.833 181.996 241.491 181.979C242.149 181.962 242.797 182.141 243.354 182.492C243.91 182.844 244.35 183.352 244.617 183.954C244.885 184.555 244.968 185.223 244.856 185.871C244.706 186.741 244.217 187.516 243.496 188.025C242.775 188.534 241.881 188.736 241.011 188.586ZM248.08 196.559C247.432 196.447 246.831 196.146 246.353 195.692C245.876 195.239 245.544 194.654 245.399 194.012C245.254 193.37 245.303 192.699 245.539 192.085C245.775 191.47 246.188 190.94 246.726 190.56C247.264 190.18 247.902 189.969 248.56 189.952C249.218 189.935 249.867 190.114 250.423 190.465C250.98 190.817 251.419 191.325 251.687 191.927C251.954 192.528 252.037 193.196 251.926 193.844C251.776 194.714 251.286 195.489 250.565 195.998C249.844 196.507 248.95 196.709 248.08 196.559ZM257.411 191.412C256.762 191.3 256.161 190.999 255.684 190.545C255.207 190.092 254.874 189.507 254.729 188.865C254.585 188.223 254.633 187.552 254.869 186.938C255.106 186.324 255.519 185.793 256.056 185.413C256.594 185.034 257.232 184.822 257.891 184.805C258.549 184.788 259.197 184.967 259.753 185.318C260.31 185.67 260.75 186.178 261.017 186.78C261.285 187.381 261.368 188.049 261.256 188.697C261.106 189.567 260.617 190.342 259.896 190.851C259.175 191.36 258.281 191.562 257.411 191.412ZM264.48 199.385C263.832 199.273 263.231 198.972 262.753 198.518C262.276 198.065 261.944 197.48 261.799 196.838C261.654 196.196 261.703 195.525 261.939 194.911C262.175 194.297 262.588 193.766 263.126 193.386C263.664 193.007 264.302 192.795 264.96 192.778C265.618 192.761 266.266 192.94 266.823 193.291C267.38 193.643 267.819 194.151 268.087 194.753C268.354 195.354 268.437 196.022 268.326 196.67C268.176 197.54 267.686 198.315 266.965 198.824C266.244 199.333 265.35 199.535 264.48 199.385Z" fill="url(#sheep-just-burger-paint6_linear_36301_265089)"/>
<path d="M255.669 190.507C256.178 190.99 256.819 191.312 257.511 191.431C258.439 191.591 259.392 191.376 260.161 190.833C260.93 190.29 261.452 189.463 261.612 188.536C261.731 187.844 261.643 187.132 261.357 186.491C261.072 185.849 260.603 185.307 260.01 184.932C259.416 184.557 258.725 184.366 258.023 184.384C257.321 184.402 256.64 184.628 256.067 185.033C255.493 185.438 255.053 186.004 254.801 186.659C254.549 187.315 254.497 188.03 254.652 188.715C254.806 189.399 255.16 190.023 255.669 190.507Z" fill="url(#sheep-just-burger-paint7_linear_36301_265089)"/>
<path d="M245.926 196.763C246.518 197.325 247.264 197.699 248.068 197.838C249.147 198.024 250.256 197.774 251.151 197.142C252.045 196.511 252.652 195.55 252.838 194.471C252.977 193.666 252.874 192.838 252.542 192.092C252.21 191.346 251.664 190.715 250.974 190.279C250.284 189.843 249.48 189.622 248.663 189.643C247.847 189.663 247.055 189.926 246.388 190.397C245.721 190.868 245.209 191.526 244.916 192.288C244.623 193.05 244.563 193.882 244.742 194.679C244.922 195.475 245.334 196.2 245.926 196.763Z" fill="url(#sheep-just-burger-paint8_linear_36301_265089)"/>
<path d="M238.62 188.43C239.224 189.004 239.985 189.386 240.806 189.528C241.907 189.717 243.039 189.462 243.951 188.817C244.864 188.173 245.484 187.192 245.674 186.091C245.815 185.27 245.71 184.425 245.371 183.664C245.033 182.902 244.476 182.258 243.771 181.813C243.067 181.368 242.246 181.142 241.413 181.164C240.58 181.185 239.772 181.453 239.091 181.934C238.411 182.414 237.888 183.086 237.589 183.864C237.29 184.642 237.228 185.491 237.411 186.303C237.595 187.116 238.015 187.856 238.62 188.43Z" fill="url(#sheep-just-burger-paint9_linear_36301_265089)"/>
<path d="M229.515 193.378C230.083 193.917 230.798 194.276 231.569 194.409C232.604 194.588 233.668 194.347 234.526 193.742C235.384 193.136 235.966 192.214 236.144 191.179C236.277 190.407 236.179 189.613 235.86 188.898C235.542 188.182 235.019 187.577 234.357 187.159C233.695 186.74 232.923 186.528 232.14 186.548C231.357 186.568 230.598 186.82 229.958 187.272C229.318 187.723 228.827 188.355 228.546 189.086C228.265 189.817 228.207 190.615 228.379 191.379C228.552 192.143 228.947 192.838 229.515 193.378Z" fill="url(#sheep-just-burger-paint10_linear_36301_265089)"/>
</g>
<g filter="url(#sheep-just-burger-filter0_d_36301_265089)">
<path fill-rule="evenodd" clip-rule="evenodd" d="M281.541 212.49C283.12 213.556 284.698 215.124 284.373 217.011C284.144 218.335 283.574 219.282 282.765 219.919C281.84 220.647 280.602 220.971 279.206 220.992C279.068 220.994 278.93 220.993 278.79 220.989L278.558 222.335C278.623 222.366 278.688 222.399 278.752 222.432C279.68 222.918 280.49 223.62 281.105 224.492C281.247 224.693 281.376 224.9 281.494 225.113C282.222 226.431 282.485 227.964 282.227 229.462C281.927 231.201 280.949 232.751 279.506 233.769C279.014 234.117 278.481 234.393 277.923 234.594C276.848 234.981 275.682 235.089 274.537 234.891L273.601 234.73C273.605 234.841 273.597 234.954 273.578 235.065L273.295 236.705C273.257 236.927 273.208 237.146 273.148 237.36C272.738 238.831 271.833 240.124 270.574 241.012C269.132 242.031 267.345 242.434 265.605 242.135L216.405 233.656C214.665 233.356 213.116 232.378 212.098 230.935C211.079 229.493 210.676 227.705 210.976 225.966L211.258 224.326C211.261 224.312 211.263 224.299 211.266 224.286C211.289 224.169 211.324 224.056 211.371 223.948C210.918 223.807 210.483 223.619 210.074 223.388C209.224 222.908 208.483 222.243 207.909 221.431C206.891 219.989 206.488 218.201 206.787 216.461C207.047 214.958 207.812 213.597 208.946 212.598C209.124 212.441 209.312 212.292 209.508 212.154C209.959 211.836 210.443 211.578 210.948 211.383C211.156 211.302 211.368 211.232 211.583 211.173L211.915 209.248C211.551 209.083 211.211 208.898 210.9 208.69C210.318 208.301 209.837 207.836 209.486 207.285C208.931 206.412 208.706 205.326 208.935 203.998C209.159 202.7 210.181 201.845 211.398 201.283C212.43 200.806 213.602 200.54 214.546 200.392C214.912 200.334 215.28 200.304 215.648 200.297C215.608 200.194 215.577 200.088 215.557 199.979C215.516 199.756 215.522 199.527 215.572 199.306C215.589 199.233 215.606 199.159 215.624 199.086C219.423 183.07 234.921 174.027 251.472 176.879C267.725 179.68 279.183 192.951 277.904 208.929C277.875 209.296 277.839 209.663 277.796 210.032C277.77 210.257 277.698 210.474 277.585 210.67C277.565 210.705 277.544 210.738 277.522 210.771L277.519 210.775C277.523 210.776 277.527 210.777 277.532 210.778C277.663 210.805 277.793 210.834 277.923 210.865C277.923 210.865 277.923 210.865 277.923 210.865C278.745 211.06 279.545 211.33 280.289 211.733C280.681 211.946 281.111 212.199 281.541 212.49ZM282.324 207.889C283.053 190.049 269.947 175.649 252.21 172.593C234.211 169.491 216.795 178.993 211.795 196.535C210.944 196.768 210.023 197.092 209.138 197.546C207.472 198.401 205.188 200.131 204.649 203.259C204.268 205.472 204.595 207.647 205.761 209.531C205.772 209.549 205.784 209.567 205.795 209.586C204.072 211.211 202.908 213.361 202.501 215.723C202.005 218.599 202.673 221.555 204.356 223.94C204.98 224.824 205.725 225.602 206.561 226.257C206.367 228.8 207.061 231.343 208.544 233.444L212.048 230.971L208.544 233.444C210.228 235.829 212.79 237.447 215.666 237.942L264.866 246.421C267.743 246.917 270.698 246.249 273.083 244.566L270.707 241.2L273.083 244.566C274.957 243.243 276.358 241.377 277.112 239.242C278.862 239.01 280.547 238.359 282.015 237.322C284.399 235.639 286.018 233.077 286.513 230.2C286.92 227.843 286.545 225.432 285.469 223.326C287.191 221.966 288.267 220.024 288.659 217.75C289.198 214.619 287.622 212.224 286.338 210.861C285.033 209.476 283.445 208.496 282.362 207.909C282.35 207.903 282.337 207.896 282.324 207.889Z" fill="white"/>
</g>
<path d="M262.659 198.842C263.162 199.321 263.796 199.639 264.48 199.757C265.397 199.915 266.34 199.702 267.101 199.165C267.861 198.628 268.377 197.811 268.535 196.894C268.653 196.209 268.566 195.506 268.284 194.871C268.001 194.237 267.538 193.7 266.951 193.33C266.364 192.959 265.68 192.771 264.986 192.788C264.292 192.806 263.619 193.03 263.052 193.43C262.485 193.83 262.049 194.39 261.8 195.038C261.551 195.686 261.499 196.393 261.652 197.07C261.805 197.748 262.155 198.364 262.659 198.842Z" fill="url(#sheep-just-burger-paint11_linear_36301_265089)"/>
<defs>
<filter id="sheep-just-burger-filter0_d_36301_265089" x="187.19" y="161.911" width="116.729" height="104.872" filterUnits="userSpaceOnUse" color-interpolation-filters="sRGB">
<feFlood flood-opacity="0" result="BackgroundImageFix"/>
<feColorMatrix in="SourceAlpha" type="matrix" values="0 0 0 0 0 0 0 0 0 0 0 0 0 0 0 0 0 0 127 0" result="hardAlpha"/>
<feOffset dy="5.05052"/>
<feGaussianBlur stdDeviation="7.57579"/>
<feColorMatrix type="matrix" values="0 0 0 0 0 0 0 0 0 0 0 0 0 0 0 0 0 0 0.32 0"/>
<feBlend mode="normal" in2="BackgroundImageFix" result="effect1_dropShadow_36301_265089"/>
<feBlend mode="normal" in="SourceGraphic" in2="effect1_dropShadow_36301_265089" result="shape"/>
</filter>
<linearGradient id="sheep-just-burger-paint0_linear_36301_265089" x1="180" y1="90.5" x2="180" y2="137" gradientUnits="userSpaceOnUse">
<stop stop-color="#93282C"/>
<stop offset="1" stop-color="#66141D"/>
</linearGradient>
<linearGradient id="sheep-just-burger-paint1_linear_36301_265089" x1="180" y1="143" x2="180.537" y2="119.217" gradientUnits="userSpaceOnUse">
<stop stop-color="#93282C"/>
<stop offset="1" stop-color="#66141D"/>
</linearGradient>
<linearGradient id="sheep-just-burger-paint2_linear_36301_265089" x1="236.118" y1="239.302" x2="240.987" y2="211.021" gradientUnits="userSpaceOnUse">
<stop stop-color="#FDE293"/>
<stop offset="1" stop-color="#FAC34B"/>
</linearGradient>
<linearGradient id="sheep-just-burger-paint3_linear_36301_265089" x1="239.34" y1="248.374" x2="242.838" y2="228.079" gradientUnits="userSpaceOnUse">
<stop stop-color="#E99B26"/>
<stop offset="1" stop-color="#FAC34B"/>
</linearGradient>
<linearGradient id="sheep-just-burger-paint4_linear_36301_265089" x1="247.503" y1="205.578" x2="243.865" y2="226.688" gradientUnits="userSpaceOnUse">
<stop stop-color="#66DE7D"/>
<stop offset="1" stop-color="#38AD5A"/>
</linearGradient>
<linearGradient id="sheep-just-burger-paint5_linear_36301_265089" x1="241.118" y1="237.788" x2="251.61" y2="176.903" gradientUnits="userSpaceOnUse">
<stop stop-color="#E99B26"/>
<stop offset="1" stop-color="#FAC34B"/>
</linearGradient>
<linearGradient id="sheep-just-burger-paint6_linear_36301_265089" x1="241.118" y1="237.788" x2="251.61" y2="176.903" gradientUnits="userSpaceOnUse">
<stop stop-color="#E99B26"/>
<stop offset="1" stop-color="#FAC34B"/>
</linearGradient>
<linearGradient id="sheep-just-burger-paint7_linear_36301_265089" x1="240.135" y1="240.891" x2="251.325" y2="175.958" gradientUnits="userSpaceOnUse">
<stop offset="0.619792" stop-color="#E99B26"/>
<stop offset="1" stop-color="#FAC34B"/>
</linearGradient>
<linearGradient id="sheep-just-burger-paint8_linear_36301_265089" x1="239.432" y1="248.977" x2="252.446" y2="173.456" gradientUnits="userSpaceOnUse">
<stop offset="0.619792" stop-color="#E99B26"/>
<stop offset="1" stop-color="#FAC34B"/>
</linearGradient>
<linearGradient id="sheep-just-burger-paint9_linear_36301_265089" x1="240.941" y1="251.814" x2="254.223" y2="174.739" gradientUnits="userSpaceOnUse">
<stop offset="0.619792" stop-color="#E99B26"/>
<stop offset="1" stop-color="#FAC34B"/>
</linearGradient>
<linearGradient id="sheep-just-burger-paint10_linear_36301_265089" x1="242.798" y1="246.825" x2="255.281" y2="174.384" gradientUnits="userSpaceOnUse">
<stop offset="0.619792" stop-color="#E99B26"/>
<stop offset="1" stop-color="#FAC34B"/>
</linearGradient>
<linearGradient id="sheep-just-burger-paint11_linear_36301_265089" x1="239.841" y1="240.256" x2="250.906" y2="176.046" gradientUnits="userSpaceOnUse">
<stop offset="0.619792" stop-color="#E99B26"/>
<stop offset="1" stop-color="#FAC34B"/>
</linearGradient>
<clipPath id="sheep-just-burger-clip0_36301_265089">
<rect width="40" height="29" fill="white" transform="translate(160 83)"/>
</clipPath>
<clipPath id="sheep-just-burger-clip1_36301_265089">
<rect width="76.5515" height="76.5515" fill="white" transform="translate(216 163) rotate(9.77754)"/>
</clipPath>
</defs>
</svg>
