<svg class="icon" viewBox="0 0 200 201" fill="none" xmlns="http://www.w3.org/2000/svg">
<path fill-rule="evenodd" clip-rule="evenodd" d="M122.404 25.3974L110.794 21.1667L115.152 7.44983H101.856L94.4062 22.3464L109.003 27.6676L106.316 36.1222L122.404 25.3974Z" fill="white"/>
<path fill-rule="evenodd" clip-rule="evenodd" d="M106.317 36.1223L109.004 27.6677L94.4071 22.3449L101.857 7.44997H115.153L110.793 21.1669L122.405 25.3976L106.317 36.1223ZM134.084 21.7222L120.055 16.6131L124.289 3.29502C124.806 1.66434 123.591 0 121.878 0H99.597C98.1598 0 96.8455 0.812816 96.2027 2.09683L85.2759 23.9486C84.6011 25.2983 85.2524 26.9374 86.6727 27.4557L99.7417 32.2181L94.9742 47.2258C94.2489 49.5027 96.7984 51.4211 98.7858 50.095L134.62 26.2036C136.345 25.0543 136.031 22.4324 134.084 21.7222Z" fill="#19194B"/>
<path fill-rule="evenodd" clip-rule="evenodd" d="M33.507 160.014C32.5192 161.002 32.5192 162.604 33.507 163.592L35.1966 165.281C36.1844 166.269 37.7848 166.269 38.7743 165.281L54.8909 149.165L49.6236 143.897L33.507 160.014Z" fill="#19194B"/>
<path fill-rule="evenodd" clip-rule="evenodd" d="M78.8849 173.158L62.7682 189.274C61.7804 190.264 61.7804 191.864 62.7682 192.852L64.4578 194.542C65.4456 195.53 67.0477 195.53 68.0355 194.542L84.1522 178.425L78.8849 173.158Z" fill="#19194B"/>
<path fill-rule="evenodd" clip-rule="evenodd" d="M123.99 176.423C122.963 175.819 121.711 175.73 120.612 176.184L118.419 177.091C117.321 177.549 116.499 178.495 116.201 179.649C114.275 187.118 107.414 192.55 99.553 192.55C91.0782 192.55 83.7679 186.236 82.5479 177.862L81.4961 175.765L52.233 146.504L50.1345 145.45C41.764 144.234 35.45 136.922 35.45 128.447C35.45 120.583 40.8805 113.724 48.3507 111.8C49.5034 111.502 50.4526 110.681 50.9069 109.579L51.8157 107.389C52.2717 106.287 52.1825 105.037 51.5784 104.012C47.6574 97.3664 48.6654 88.6745 54.2238 83.1177C59.784 77.5576 68.4759 76.5479 75.1181 80.4689C76.1429 81.0764 77.395 81.1656 78.4956 80.7079L80.6883 79.8008C81.7872 79.3448 82.6084 78.3973 82.9063 77.2429C84.8315 69.7744 91.6925 64.3422 99.553 64.3422C104.24 64.3405 108.57 66.2724 111.712 69.4126C113.83 71.533 115.407 74.202 116.188 77.2008C116.493 78.3687 117.305 79.338 118.419 79.7991L120.611 80.7062C121.711 81.1639 122.961 81.0747 123.988 80.4689C130.63 76.5479 139.322 77.5593 144.882 83.1177C150.441 88.6762 151.45 97.3681 147.529 104.012C146.925 105.037 146.836 106.287 147.292 107.389L148.199 109.579C148.655 110.679 149.603 111.502 150.755 111.8C158.224 113.724 163.656 120.583 163.656 128.445C163.656 136.308 158.226 143.167 150.755 145.094C149.603 145.392 148.655 146.213 148.199 147.313L147.292 149.504C146.836 150.605 146.925 151.855 147.529 152.882C151.45 159.524 150.442 168.216 144.882 173.776C139.322 179.333 130.632 180.343 123.99 176.423ZM155.183 151.49C164.545 147.923 171.106 138.79 171.108 128.447C171.108 118.102 164.546 108.97 155.181 105.404C159.282 96.2625 157.465 85.1641 150.15 77.8487C142.836 70.5351 131.738 68.7176 122.596 72.817C119.03 63.4536 109.899 56.8939 99.553 56.8922C89.2103 56.8939 80.0758 63.457 76.5098 72.817C67.3686 68.7176 56.2719 70.5351 48.9565 77.8504C41.6412 85.1641 39.8254 96.2625 43.9248 105.404C34.5614 108.968 28 118.102 28 128.445C28 135.161 30.7666 141.368 35.2682 145.871C38.6221 149.223 42.9437 151.635 47.8004 152.606L75.3941 180.2C77.6676 191.574 87.8337 199.998 99.553 200C109.896 200 119.03 193.437 122.596 184.075C131.738 188.173 142.836 186.355 150.15 179.043C157.465 171.728 159.282 160.63 155.183 151.49Z" fill="#19194B"/>
<path fill-rule="evenodd" clip-rule="evenodd" d="M147.53 152.883C146.926 151.857 146.836 150.605 147.291 149.504L148.2 147.313C148.656 146.212 149.601 145.391 150.756 145.093C158.224 143.168 163.657 136.307 163.657 128.446C163.657 120.584 158.223 113.723 150.756 111.8C149.601 111.502 148.656 110.681 148.198 109.58L147.291 107.389C146.836 106.288 146.926 105.036 147.53 104.011C151.451 97.3693 150.439 88.6774 144.883 83.1172C139.323 77.5588 130.631 76.5491 123.988 80.4701C122.96 81.0743 121.71 81.1635 120.611 80.7057L118.42 79.7987C117.306 79.3376 116.493 78.3699 116.188 77.2003C115.408 74.2015 113.831 71.5325 111.712 69.4121C108.57 66.2719 104.239 64.3417 99.5535 64.3434C91.6912 64.3434 84.8319 69.7739 82.9067 77.2441C82.6106 78.3969 81.7893 79.3443 80.6871 79.8003L78.496 80.7074C77.3954 81.1651 76.1434 81.0759 75.1185 80.4701C68.4746 76.5491 59.7827 77.5571 54.2243 83.1172C48.6658 88.6757 47.6561 97.3676 51.5772 104.011C52.183 105.036 52.2722 106.288 51.8161 107.389L50.9074 109.58C50.4513 110.681 49.5039 111.502 48.3494 111.8C40.881 113.723 35.4487 120.584 35.4487 128.446C35.4487 136.923 41.7628 144.233 50.1349 145.45L52.2335 146.503L81.4965 175.766L82.5483 177.863C83.7667 186.235 91.0787 192.55 99.5535 192.55C107.414 192.55 114.273 187.119 116.202 179.649C116.5 178.496 117.321 177.549 118.42 177.093L120.613 176.186C121.713 175.729 122.962 175.819 123.99 176.423C130.632 180.342 139.323 179.334 144.883 173.776C150.441 168.216 151.451 159.524 147.53 152.883Z" fill="white"/>
<path fill-rule="evenodd" clip-rule="evenodd" d="M117.345 153.95C118.192 150.905 118.64 147.733 118.64 144.489V143.292C118.64 141.895 117.507 140.763 116.11 140.763H113.719C112.322 140.763 111.19 141.895 111.19 143.292V144.487C111.19 151.881 108.31 158.83 103.082 164.059C92.3955 174.745 75.0706 174.849 64.2549 164.366C53.2777 153.729 53.1329 135.726 63.9419 124.915C69.1688 119.69 76.119 116.811 83.5134 116.811H84.7065C86.105 116.811 87.2359 115.677 87.2359 114.28V111.89C87.2359 110.493 86.105 109.361 84.7049 109.361H83.5117C80.2672 109.361 77.0933 109.809 74.0491 110.653C73.275 106.423 74.0911 101.965 76.432 98.2659L81.7464 103.579C82.7343 104.566 84.3363 104.566 85.3242 103.579L86.1689 102.732C88.7976 100.105 93.0602 100.105 95.6888 102.732C97.8732 104.916 98.2366 108.223 96.7928 110.79C96.2442 111.767 96.431 112.992 97.2236 113.787L99.4264 115.986C100.217 116.779 101.444 116.966 102.422 116.417C104.987 114.975 108.293 115.338 110.478 117.523C112.66 119.704 113.026 123.012 111.582 125.579C111.031 126.555 111.218 127.781 112.012 128.574L114.214 130.775C115.005 131.568 116.233 131.756 117.209 131.204C119.774 129.762 123.082 130.127 125.265 132.31C127.895 134.939 127.895 139.201 125.265 141.83L124.42 142.676C123.432 143.664 123.432 145.264 124.42 146.254L129.733 151.565C126.034 153.909 121.576 154.725 117.345 153.95Z" fill="white"/>
<path fill-rule="evenodd" clip-rule="evenodd" d="M117.345 153.95C118.192 150.905 118.64 147.733 118.64 144.489V143.292C118.64 141.895 117.507 140.763 116.11 140.763H113.719C112.322 140.763 111.19 141.895 111.19 143.292V144.487C111.19 151.882 108.31 158.83 103.082 164.059C92.3955 174.745 75.0706 174.849 64.255 164.367C53.2777 153.729 53.133 135.726 63.9419 124.916C69.1689 119.69 76.119 116.811 83.5135 116.811H84.7066C86.1051 116.811 87.2359 115.677 87.2359 114.28V111.89C87.2359 110.494 86.1051 109.361 84.7049 109.361H83.5118C80.2673 109.361 77.0934 109.809 74.0491 110.653C73.275 106.423 74.0912 101.965 76.432 98.2659L81.7465 103.579C82.7343 104.567 84.3364 104.567 85.3242 103.579L86.169 102.732C88.7976 100.105 93.0603 100.105 95.6889 102.732C97.8732 104.917 98.2367 108.223 96.7928 110.79C96.2442 111.767 96.431 112.993 97.2236 113.787L99.4265 115.986C100.217 116.779 101.444 116.966 102.422 116.417C104.987 114.975 108.293 115.338 110.478 117.523C112.66 119.704 113.026 123.012 111.582 125.579C111.031 126.555 111.218 127.781 112.013 128.574L114.214 130.775C115.005 131.568 116.233 131.756 117.209 131.204C119.774 129.762 123.082 130.127 125.265 132.31C127.895 134.939 127.895 139.201 125.265 141.83L124.42 142.676C123.432 143.664 123.432 145.265 124.42 146.254L129.733 151.565C126.034 153.909 121.576 154.726 117.345 153.95ZM138.771 150.067L132.816 144.112C135.912 138.698 135.152 131.66 130.534 127.043C127.611 124.118 123.715 122.74 119.878 122.91C120.046 119.071 118.668 115.177 115.745 112.254C112.822 109.329 108.928 107.952 105.091 108.121C105.258 104.284 103.881 100.39 100.958 97.4666C96.3401 92.8472 89.3008 92.0865 83.8871 95.183L77.9298 89.2274C76.942 88.2379 75.3399 88.2379 74.352 89.2274L73.5073 90.0722C67.279 96.3004 65.0594 105.27 67.0619 113.442C63.8191 115.165 60.8287 117.402 58.2017 120.128C44.9342 133.9 45.2236 156.038 58.8278 169.479C72.5346 183.021 94.7061 182.97 108.349 169.326C110.863 166.813 112.948 163.985 114.569 160.93C114.567 160.932 114.565 160.935 114.565 160.939C122.734 162.938 131.7 160.718 137.927 154.492L138.771 153.645C139.759 152.657 139.759 151.057 138.771 150.067Z" fill="#19194B"/>
<path fill-rule="evenodd" clip-rule="evenodd" d="M104.703 140.842H101.955V138.092C101.955 136.722 100.844 135.613 99.4758 135.613C98.1043 135.613 96.9936 136.722 96.9936 138.092V140.842H94.2455C92.8757 140.842 91.7667 141.953 91.7667 143.322C91.7667 144.692 92.8757 145.803 94.2455 145.803H96.9936V148.548C96.9936 149.919 98.1043 151.03 99.4758 151.03C100.844 151.03 101.955 149.919 101.955 148.548V145.803H104.703C106.071 145.803 107.183 144.692 107.183 143.322C107.183 141.953 106.071 140.842 104.703 140.842Z" fill="#19194B"/>
<path fill-rule="evenodd" clip-rule="evenodd" d="M92.3936 128.533C92.3936 127.165 91.2829 126.052 89.9114 126.052H87.1667V123.306C87.1667 121.936 86.0543 120.825 84.6845 120.825C83.3146 120.825 82.2039 121.936 82.2039 123.306V126.052H79.4575C78.086 126.052 76.977 127.165 76.977 128.533C76.977 129.903 78.086 131.013 79.4575 131.013H82.2039V133.761C82.2039 135.133 83.3146 136.242 84.6845 136.242C86.0543 136.242 87.1667 135.133 87.1667 133.761V131.013H89.9114C91.2829 131.013 92.3936 129.903 92.3936 128.533Z" fill="#19194B"/>
</svg>
