<svg class="icon" viewBox="0 0 360 264" fill="none" xmlns="http://www.w3.org/2000/svg">
<rect width="360" height="264" fill="white"/>
<path fill-rule="evenodd" clip-rule="evenodd" d="M151.378 213.028C151.378 214.668 152.71 215.999 154.35 215.999H157.153C158.793 215.999 160.122 214.668 160.122 213.028V186.271H151.378V213.028Z" fill="#19194B"/>
<path fill-rule="evenodd" clip-rule="evenodd" d="M199.958 186.271V213.028C199.958 214.668 201.288 215.999 202.928 215.999H205.733C207.373 215.999 208.702 214.668 208.702 213.028V186.271H199.958Z" fill="#19194B"/>
<path fill-rule="evenodd" clip-rule="evenodd" d="M240.11 151.542C238.754 151.892 237.642 152.856 237.107 154.148L236.04 156.72C235.507 158.012 235.611 159.48 236.321 160.685C240.922 168.484 239.738 178.688 233.211 185.213C226.176 192.248 214.868 193.074 206.903 187.137L204.289 186.27H155.707L153.093 187.137C145.134 193.076 133.822 192.248 126.789 185.213C120.26 178.686 119.076 168.484 123.677 160.685C124.39 159.482 124.495 158.012 123.958 156.72L122.893 154.148C122.36 152.856 121.245 151.892 119.89 151.542C111.123 149.282 104.744 141.23 104.744 132C104.744 122.772 111.123 114.72 119.89 112.46C121.245 112.11 122.36 111.146 122.893 109.854L123.958 107.282C124.495 105.988 124.39 104.52 123.677 103.315C119.076 95.5196 120.262 85.3159 126.789 78.7888C130.677 74.8989 135.872 72.9056 141.09 72.9056C144.606 72.9056 148.131 73.8124 151.27 75.6536C152.491 76.3707 153.97 76.5011 155.28 75.9578L157.85 74.893C159.144 74.3596 160.108 73.2474 160.458 71.8922C162.718 63.1247 170.77 56.7477 179.998 56.7477C189.228 56.7477 197.28 63.1247 199.542 71.8922C199.892 73.2474 200.856 74.3576 202.148 74.893L204.718 75.9578C206.01 76.4932 207.478 76.3885 208.685 75.6793C216.48 71.0782 226.684 72.2616 233.211 78.7888C239.738 85.314 240.922 95.5176 236.321 103.317C235.611 104.522 235.507 105.99 236.04 107.282L237.107 109.854C237.642 111.146 238.754 112.11 240.11 112.46C248.875 114.72 255.254 122.772 255.254 132C255.254 141.23 248.875 149.282 240.11 151.542ZM245.305 104.951C250.114 94.2197 247.98 81.191 239.396 72.6034C230.809 64.0177 217.78 61.8841 207.049 66.6965C202.863 55.7066 192.142 48 179.998 48C167.858 48 157.135 55.7066 152.949 66.6965C142.218 61.8841 129.191 64.0177 120.603 72.6034C112.018 81.191 109.886 94.2217 114.695 104.951C103.705 109.137 96 119.858 96 132C96 144.144 103.705 154.865 114.695 159.051C109.882 169.78 112.016 182.811 120.603 191.396C126.178 196.971 133.626 199.826 141.102 199.826C146.669 199.824 152.257 198.24 157.094 195.016H202.904C214.234 202.57 229.665 201.126 239.396 191.396C247.98 182.813 250.114 169.782 245.305 159.051C256.293 154.865 263.998 144.144 263.998 132C263.998 119.858 256.293 109.137 245.305 104.951Z" fill="#19194B"/>
<path fill-rule="evenodd" clip-rule="evenodd" d="M240.11 112.46C238.755 112.111 237.642 111.146 237.107 109.854L236.04 107.282C235.507 105.99 235.611 104.522 236.321 103.317C240.922 95.518 239.738 85.3143 233.211 78.7891C226.684 72.262 216.48 71.0786 208.685 75.6796C207.478 76.3908 206.01 76.4936 204.718 75.9582L202.146 74.8934C200.856 74.358 199.892 73.2477 199.542 71.8925C197.28 63.1251 189.228 56.748 179.998 56.748C170.77 56.748 162.718 63.1251 160.458 71.8925C160.108 73.2477 159.144 74.36 157.85 74.8934L155.28 75.9582C153.97 76.5015 152.491 76.3711 151.27 75.6559C148.131 73.8127 144.606 72.908 141.09 72.908C135.872 72.908 130.677 74.8993 126.789 78.7891C120.262 85.3163 119.076 95.52 123.677 103.317C124.391 104.521 124.495 105.99 123.958 107.282L122.893 109.854C122.36 111.146 121.246 112.111 119.89 112.46C111.123 114.72 104.744 122.773 104.744 132.002C104.744 141.23 111.123 149.282 119.89 151.542C121.246 151.892 122.358 152.856 122.893 154.148L123.958 156.72C124.495 158.014 124.391 159.482 123.677 160.687C119.076 168.485 120.26 178.686 126.789 185.213C133.822 192.25 145.134 193.078 153.093 187.138L155.707 186.27H204.289L206.903 187.138C214.868 193.076 226.176 192.25 233.211 185.213C239.738 178.688 240.922 168.485 236.321 160.685C235.611 159.48 235.507 158.012 236.04 156.72L237.107 154.148C237.642 152.856 238.755 151.892 240.11 151.542C248.875 149.282 255.254 141.23 255.254 132.002C255.254 122.773 248.875 114.72 240.11 112.46Z" fill="white"/>
<path fill-rule="evenodd" clip-rule="evenodd" d="M215.939 138.401C214.115 135.173 211.851 132.169 209.157 129.474L208.165 128.482C207.007 127.323 205.124 127.323 203.965 128.482L201.983 130.466C200.824 131.625 200.824 133.506 201.983 134.666L202.975 135.657C209.111 141.795 212.491 149.954 212.491 158.633C212.491 176.375 198.196 190.84 180.515 191.119C162.573 191.401 147.508 176.577 147.508 158.633C147.508 149.954 150.888 141.795 157.026 135.657L158.018 134.666C159.177 133.506 159.177 131.625 158.018 130.466L156.032 128.482C154.873 127.323 152.992 127.323 151.832 128.482L150.841 129.474C148.148 132.169 145.884 135.173 144.061 138.401C139.904 135.533 136.881 131.155 135.755 126.139H144.576C146.216 126.139 147.545 124.812 147.545 123.17V121.767C147.545 117.403 151.084 113.865 155.45 113.865C159.073 113.865 162.121 116.307 163.051 119.634C163.407 120.902 164.58 121.765 165.896 121.765H169.551C170.867 121.765 172.04 120.902 172.396 119.634C173.328 116.307 176.374 113.865 180 113.865C183.625 113.865 186.673 116.307 187.601 119.634C187.957 120.902 189.132 121.765 190.448 121.765H194.101C195.417 121.765 196.592 120.902 196.948 119.634C197.876 116.307 200.924 113.865 204.55 113.865C208.914 113.865 212.452 117.403 212.452 121.767V123.17C212.452 124.812 213.781 126.139 215.423 126.139H224.244C223.116 131.155 220.095 135.533 215.939 138.401Z" fill="white"/>
<path fill-rule="evenodd" clip-rule="evenodd" d="M192.317 139.961C189.857 139.961 187.862 141.954 187.862 144.416C187.862 146.875 189.857 148.869 192.317 148.869C194.776 148.869 196.771 146.875 196.771 144.416C196.771 141.954 194.776 139.961 192.317 139.961Z" fill="#19194B"/>
<path fill-rule="evenodd" clip-rule="evenodd" d="M167.765 139.961C165.306 139.961 163.31 141.954 163.31 144.416C163.31 146.875 165.306 148.869 167.765 148.869C170.225 148.869 172.22 146.875 172.22 144.416C172.22 141.954 170.225 139.961 167.765 139.961Z" fill="#19194B"/>
<path fill-rule="evenodd" clip-rule="evenodd" d="M187.422 183.957C187.422 188.058 184.098 191.381 179.998 191.381C175.899 191.381 172.574 188.058 172.574 183.957H187.422Z" fill="#19194B"/>
<path fill-rule="evenodd" clip-rule="evenodd" d="M215.938 138.401C214.115 135.173 211.851 132.168 209.156 129.474L208.165 128.482C207.007 127.322 205.124 127.322 203.965 128.482L201.983 130.465C200.823 131.625 200.823 133.506 201.983 134.665L202.975 135.657C209.111 141.795 212.491 149.954 212.491 158.633C212.491 176.375 198.196 190.84 180.515 191.118C162.573 191.401 147.508 176.576 147.508 158.633C147.508 149.954 150.888 141.795 157.026 135.657L158.017 134.665C159.177 133.506 159.177 131.625 158.017 130.465L156.032 128.482C154.872 127.322 152.992 127.322 151.832 128.482L150.84 129.474C148.148 132.168 145.884 135.173 144.06 138.401C139.904 135.533 136.881 131.155 135.755 126.139H144.576C146.216 126.139 147.545 124.811 147.545 123.17V121.767C147.545 117.403 151.083 113.865 155.449 113.865C159.072 113.865 162.121 116.307 163.051 119.633C163.407 120.902 164.58 121.765 165.896 121.765H169.551C170.866 121.765 172.04 120.902 172.395 119.633C173.328 116.307 176.374 113.865 179.999 113.865C183.624 113.865 186.673 116.307 187.601 119.633C187.957 120.902 189.132 121.765 190.448 121.765H194.101C195.416 121.765 196.592 120.902 196.947 119.633C197.876 116.307 200.924 113.865 204.549 113.865C208.913 113.865 212.451 117.403 212.451 121.767V123.17C212.451 124.811 213.781 126.139 215.423 126.139H224.243C223.115 131.155 220.095 135.533 215.938 138.401ZM230.504 117.393H220.614C218.69 110.329 212.216 105.119 204.549 105.119C199.695 105.119 195.318 107.207 192.273 110.532C189.229 107.207 184.853 105.119 179.999 105.119C175.145 105.119 170.77 107.207 167.723 110.532C164.679 107.207 160.301 105.119 155.447 105.119C147.78 105.119 141.308 110.329 139.382 117.393H129.495C127.855 117.393 126.525 118.725 126.525 120.364V121.767C126.525 132.107 132.128 141.396 140.573 146.517C139.313 150.638 138.687 154.978 138.77 159.423C139.187 181.865 157.804 200.002 180.254 199.869C202.874 199.73 221.237 181.286 221.237 158.633C221.237 154.458 220.616 150.381 219.429 146.503C219.429 146.505 219.431 146.509 219.433 146.511C227.873 141.39 233.473 132.105 233.473 121.767V120.364C233.473 118.725 232.144 117.393 230.504 117.393Z" fill="#19194B"/>
<path fill-rule="evenodd" clip-rule="evenodd" d="M179.687 72C180.762 72 181.633 72.8713 181.633 73.9461V79.7843C181.633 80.8591 180.762 81.7304 179.687 81.7304C178.612 81.7304 177.741 80.8591 177.741 79.7843V73.9461C177.741 72.8713 178.612 72 179.687 72Z" fill="#66141D"/>
<path d="M139 125.484V116.358C139 105.519 143.306 95.1242 150.97 87.4601C158.634 79.7959 169.029 75.4902 179.868 75.4902C190.706 75.4902 201.101 79.7959 208.765 87.4601C216.429 95.1242 220.735 105.519 220.735 116.358V125.484" fill="url(#sheep-pedidos-ya-paint0_linear_37241_277162)"/>
<path d="M183.006 87.0212H182.746L181.604 87H168.381C168.18 87 168 87.1694 168 87.4024V89.6262C168 92.0617 169.623 93.3959 172.568 93.3959L183.006 93.4171C184.108 93.4171 185.01 94.3702 185.01 95.535C185.01 96.6998 184.108 97.6529 183.006 97.6529H171.286C171.105 97.6529 170.965 97.7799 170.925 97.9494L168.16 109.513C168.14 109.64 168.16 109.746 168.22 109.852C168.301 109.958 168.401 110 168.521 110H172.227C173.61 110 174.291 108.772 174.451 108.136L175.553 103.922H183.006C187.414 103.922 191 100.131 191 95.4715C191 90.8122 187.414 87.0212 183.006 87.0212Z" fill="white"/>
<path d="M224.264 137.927L220.554 125.473C207.881 119.075 193.883 115.742 179.687 115.742C165.491 115.742 151.492 119.075 138.819 125.473L135.11 137.927C134.883 138.641 134.867 139.404 135.063 140.126C135.259 140.848 135.659 141.498 136.215 141.999C136.771 142.5 137.46 142.829 138.199 142.949C138.937 143.068 139.695 142.972 140.38 142.672C152.835 137.521 166.215 134.983 179.691 135.215C193.167 134.983 206.547 137.521 219.002 142.672C219.687 142.973 220.445 143.07 221.184 142.951C221.924 142.832 222.613 142.503 223.17 142.002C223.727 141.501 224.127 140.85 224.323 140.128C224.519 139.405 224.503 138.641 224.275 137.927H224.264Z" fill="url(#sheep-pedidos-ya-paint1_linear_37241_277162)"/>
<g filter="url(#sheep-pedidos-ya-filter0_d_37241_277162)">
<path d="M279.38 150.58C278.157 150.907 277.172 151.681 276.554 152.68C275.79 152.072 274.755 151.823 273.738 152.095C272.034 152.552 271.022 154.298 271.479 156.001L272.031 158.061L269.699 158.686C269.179 158.168 268.404 157.933 267.644 158.136L263.532 159.238C262.396 159.543 261.723 160.71 262.027 161.845C262.331 162.981 263.498 163.655 264.634 163.35L268.746 162.248C269.508 162.044 270.062 161.452 270.252 160.741L272.582 160.117L277.706 179.24L277.337 185.386C276.406 187.255 275 189.466 273.624 191.476L262.507 196.534L261.956 194.478C260.798 190.159 257.56 186.953 253.609 185.65C255.525 184.831 256.598 182.706 256.043 180.635L255.492 178.579C254.883 176.308 252.549 174.96 250.278 175.569L225.385 182.239C223.236 182.815 221.96 185.024 222.536 187.173C222.913 188.579 224.019 189.673 225.429 190.034L230.478 191.326C230.562 191.348 230.646 191.367 230.731 191.383C229.696 192.417 228.848 193.619 228.222 194.931C227.774 194.903 227.314 194.947 226.856 195.069L224.8 195.62L226.191 200.814C224.273 203.749 223.564 207.458 224.543 211.111L225.095 213.17C225.399 214.305 226.566 214.979 227.702 214.675L229.804 214.112C231.868 219.735 237.922 222.953 243.82 221.372C249.718 219.792 253.352 213.979 252.328 208.076L275.037 201.992C277.102 207.615 283.155 210.833 289.053 209.252C294.951 207.672 298.585 201.858 297.561 195.956L297.607 195.944C298.743 195.64 299.417 194.472 299.112 193.337L299.105 193.339C299.094 193.277 299.08 193.214 299.063 193.152C297.469 187.204 291.805 183.417 285.866 183.882C285.379 182.789 284.928 181.522 284.535 180.054L279.92 162.831C280.783 163.124 281.74 163.173 282.687 162.92C283.544 162.69 284.053 161.808 283.823 160.951L283.689 160.448L284.192 160.313C285.049 160.083 285.558 159.202 285.329 158.344L283.957 153.226C283.727 152.368 282.846 151.859 281.988 152.089L281.485 152.224L281.349 151.716C281.119 150.859 280.238 150.35 279.38 150.58Z" fill="white"/>
<path d="M269.262 156.023C268.57 155.845 267.822 155.837 267.081 156.036L262.969 157.138C260.673 157.753 259.311 160.112 259.926 162.408C260.541 164.704 262.901 166.066 265.197 165.451L269.309 164.349C270.039 164.154 270.674 163.781 271.181 163.292L275.514 179.462L275.193 184.804C274.409 186.309 273.31 188.059 272.169 189.749L263.937 193.494C262.846 189.844 260.47 186.908 257.444 185.049C258.311 183.606 258.614 181.827 258.144 180.072L257.593 178.016C256.673 174.585 253.146 172.549 249.715 173.468L224.823 180.138C221.513 181.025 219.549 184.427 220.436 187.736C221.016 189.901 222.719 191.585 224.89 192.141L226.973 192.674C226.939 192.73 226.906 192.785 226.873 192.841C226.679 192.874 226.486 192.917 226.293 192.969L224.237 193.519L222.137 194.082L222.699 196.183L223.851 200.481C222.006 203.763 221.39 207.747 222.443 211.674L222.994 213.733C223.609 216.028 225.969 217.391 228.265 216.776L228.588 216.689C231.578 222.207 238.055 225.169 244.383 223.473C250.711 221.777 254.839 215.975 254.67 209.7L273.821 204.569C276.812 210.087 283.288 213.048 289.616 211.353C296.094 209.617 300.267 203.577 299.884 197.133C301.083 196.087 301.653 194.414 301.213 192.774L301.175 192.631C301.171 192.617 301.167 192.603 301.164 192.589C301.157 192.564 301.15 192.538 301.143 192.513L300.65 190.673L300.521 190.708C298.265 185.323 293.016 181.858 287.32 181.677C287.079 181.015 286.849 180.289 286.635 179.491L282.787 165.128C282.941 165.097 283.095 165.061 283.25 165.02C284.793 164.607 285.856 163.296 286.029 161.799C287.239 160.902 287.843 159.325 287.429 157.781L286.058 152.663C285.644 151.12 284.334 150.057 282.838 149.883C281.941 148.67 280.363 148.065 278.817 148.479C277.733 148.77 276.776 149.303 275.991 150.003C275.1 149.757 274.132 149.738 273.175 149.995C270.495 150.713 268.828 153.336 269.262 156.023Z" stroke="white" stroke-width="4.34951"/>
</g>
<g clip-path="url(#sheep-pedidos-ya-clip0_37241_277162)">
<path d="M232.07 198.077C231.461 195.806 229.127 194.458 226.856 195.067L224.8 195.618L226.453 201.786L232.621 200.133L232.07 198.077Z" fill="#FAC34B"/>
<path d="M224.8 195.619L226.856 195.068L228.509 201.236L226.453 201.787L224.8 195.619Z" fill="#FBD677"/>
<path d="M297.333 194.914C299.006 201.16 295.3 207.579 289.054 209.252C282.809 210.926 276.39 207.22 274.716 200.974C273.043 194.729 276.749 188.309 282.994 186.636C289.24 184.963 295.659 188.669 297.333 194.914Z" fill="#253858"/>
<path d="M293.22 196.016C294.285 199.99 291.927 204.075 287.952 205.14C283.978 206.205 279.893 203.846 278.828 199.872C277.763 195.898 280.122 191.812 284.096 190.748C288.07 189.683 292.155 192.041 293.22 196.016Z" fill="#DFE1E6"/>
<path d="M252.099 207.033C253.773 213.279 250.067 219.698 243.821 221.372C237.576 223.045 231.156 219.339 229.483 213.093C227.809 206.848 231.516 200.429 237.761 198.755C244.006 197.082 250.426 200.788 252.099 207.033Z" fill="#253858"/>
<path d="M247.987 208.137C249.052 212.111 246.694 216.196 242.719 217.261C238.745 218.326 234.66 215.967 233.595 211.993C232.53 208.019 234.889 203.934 238.863 202.869C242.837 201.804 246.922 204.162 247.987 208.137Z" fill="#DFE1E6"/>
<path d="M243.875 209.238C244.332 210.941 243.321 212.692 241.618 213.148C239.914 213.605 238.164 212.594 237.707 210.891C237.251 209.187 238.262 207.437 239.965 206.98C241.668 206.524 243.419 207.535 243.875 209.238Z" fill="#C4C4C4"/>
<path d="M289.108 197.119C289.564 198.822 288.553 200.573 286.85 201.029C285.147 201.486 283.396 200.475 282.94 198.772C282.483 197.068 283.494 195.318 285.197 194.861C286.901 194.405 288.651 195.416 289.108 197.119Z" fill="#C4C4C4"/>
<path d="M231.116 202.741C229.29 195.927 233.333 188.924 240.146 187.099L246.314 185.446C253.128 183.62 260.131 187.664 261.956 194.477L264.16 202.701C264.464 203.837 263.79 205.004 262.655 205.308L235.926 212.47C234.791 212.774 233.623 212.1 233.319 210.965L231.116 202.741Z" fill="#EB4B68"/>
<path d="M272.935 202.554C270.805 194.606 275.622 186.409 283.57 184.279V184.279C290.282 182.481 297.265 186.442 299.064 193.154V193.154C299.395 194.39 298.661 195.661 297.425 195.992L272.935 202.554V202.554Z" fill="#EB4B68"/>
<path d="M222.537 187.175C221.962 185.026 223.237 182.816 225.387 182.24L250.279 175.57C252.55 174.962 254.885 176.31 255.493 178.581L256.044 180.637C256.653 182.908 255.305 185.242 253.034 185.851L232.637 191.316C231.931 191.505 231.188 191.509 230.479 191.328L225.43 190.036C224.02 189.675 222.914 188.581 222.537 187.175V187.175Z" fill="#344563"/>
<path d="M231.775 180.525L233.831 179.974L236.586 190.255L234.529 190.806L231.775 180.525Z" fill="#091E42"/>
<path d="M227.415 203.731C225.59 196.918 229.633 189.915 236.446 188.089L242.614 186.436C249.427 184.611 256.43 188.654 258.256 195.467L260.459 203.691C260.764 204.827 260.09 205.994 258.954 206.298L232.226 213.46C231.09 213.764 229.923 213.09 229.619 211.955L227.415 203.731Z" fill="#EB4B68"/>
<path d="M231.263 211.514L262.104 203.25L262.655 205.306L231.814 213.57L231.263 211.514Z" fill="#CA365F"/>
<path d="M227.415 203.731C225.589 196.918 229.632 189.915 236.445 188.089L246.314 185.445C253.128 183.619 260.131 187.662 261.956 194.475L262.507 196.531L274.292 191.17L276.496 199.394L264.711 204.756L232.225 213.46C231.09 213.764 229.923 213.09 229.618 211.955L227.415 203.731Z" fill="url(#sheep-pedidos-ya-paint2_linear_37241_277162)"/>
<path d="M287.18 189.92L277.706 179.237L276.899 192.675L287.18 189.92Z" fill="url(#sheep-pedidos-ya-paint3_linear_37241_277162)"/>
<path d="M224.545 211.114C222.719 204.3 226.762 197.297 233.575 195.472L239.743 193.819C246.557 191.994 253.56 196.037 255.385 202.85L255.936 204.906C256.24 206.041 255.566 207.209 254.431 207.513L227.702 214.675C226.567 214.979 225.4 214.305 225.095 213.17L224.545 211.114Z" fill="#EB4B68"/>
<path d="M224.545 211.114C222.719 204.3 226.762 197.297 233.575 195.472L239.743 193.819C246.557 191.994 253.56 196.037 255.385 202.85L255.936 204.906C256.24 206.041 255.566 207.209 254.431 207.513L227.702 214.675C226.567 214.979 225.4 214.305 225.095 213.17L224.545 211.114Z" fill="#EB4B68"/>
<path d="M225.095 213.168L255.936 204.904L256.487 206.96L227.702 214.673C226.567 214.977 225.399 214.303 225.095 213.168V213.168Z" fill="#CA365F"/>
<path d="M254.702 205.236L299.113 193.337V193.337C299.417 194.472 298.743 195.639 297.608 195.944L255.253 207.292L254.702 205.236Z" fill="#CA365F"/>
<path d="M278.476 157.436C277.867 155.165 279.215 152.831 281.486 152.222L281.989 152.088C282.847 151.858 283.728 152.367 283.958 153.224L285.329 158.343C285.559 159.2 285.05 160.082 284.193 160.312L283.69 160.447C281.418 161.055 279.084 159.707 278.476 157.436V157.436Z" fill="#99D9F2"/>
<path d="M276.003 156.436C275.32 153.887 276.833 151.267 279.382 150.584V150.584C280.24 150.354 281.121 150.863 281.351 151.72L283.824 160.951C284.054 161.809 283.545 162.69 282.687 162.92V162.92C280.138 163.603 277.518 162.09 276.835 159.541L276.003 156.436Z" fill="#EB4B68"/>
<path d="M276.003 156.432C275.32 153.883 276.832 151.263 279.381 150.58V150.58C280.239 150.35 281.12 150.859 281.35 151.716L283.823 160.947C284.053 161.805 283.544 162.686 282.687 162.916V162.916C280.138 163.599 277.518 162.086 276.835 159.537L276.003 156.432Z" fill="url(#sheep-pedidos-ya-paint4_linear_37241_277162)"/>
<path d="M271.48 156.002C271.023 154.299 272.035 152.553 273.739 152.097V152.097C275.442 151.64 277.191 152.645 277.647 154.348C279.127 159.869 282.286 171.661 284.536 180.055C287.566 191.363 294.009 190.738 294.009 190.738L277.561 195.146L269.337 197.349C269.337 197.349 279.194 184.792 278.367 181.708C277.719 179.286 273.334 162.921 271.48 156.002Z" fill="#EB4B68"/>
<path d="M276.42 157.985C276.724 159.121 276.05 160.288 274.914 160.592C273.779 160.897 272.612 160.223 272.308 159.087C272.003 157.952 272.677 156.785 273.813 156.48C274.948 156.176 276.115 156.85 276.42 157.985Z" fill="#CA365F"/>
<path d="M267.92 159.164L273.06 157.787C273.628 157.635 274.211 157.972 274.364 158.539V158.539C274.516 159.107 274.179 159.691 273.611 159.843L268.471 161.22L267.92 159.164Z" fill="#DFE1E6"/>
<path d="M262.027 161.845C261.723 160.71 262.397 159.542 263.532 159.238L267.644 158.136C268.78 157.832 269.947 158.506 270.251 159.641V159.641C270.556 160.777 269.882 161.944 268.746 162.248L264.634 163.35C263.499 163.654 262.331 162.981 262.027 161.845V161.845Z" fill="#344563"/>
</g>
<defs>
<filter id="sheep-pedidos-ya-filter0_d_37241_277162" x="202.896" y="136.073" width="115.792" height="110.254" filterUnits="userSpaceOnUse" color-interpolation-filters="sRGB">
<feFlood flood-opacity="0" result="BackgroundImageFix"/>
<feColorMatrix in="SourceAlpha" type="matrix" values="0 0 0 0 0 0 0 0 0 0 0 0 0 0 0 0 0 0 127 0" result="hardAlpha"/>
<feOffset dy="5.05052"/>
<feGaussianBlur stdDeviation="7.57579"/>
<feColorMatrix type="matrix" values="0 0 0 0 0 0 0 0 0 0 0 0 0 0 0 0 0 0 0.32 0"/>
<feBlend mode="normal" in2="BackgroundImageFix" result="effect1_dropShadow_37241_277162"/>
<feBlend mode="normal" in="SourceGraphic" in2="effect1_dropShadow_37241_277162" result="shape"/>
</filter>
<linearGradient id="sheep-pedidos-ya-paint0_linear_37241_277162" x1="180.177" y1="90.5" x2="180.177" y2="137" gradientUnits="userSpaceOnUse">
<stop stop-color="#F32735"/>
<stop offset="1" stop-color="#9E1822"/>
</linearGradient>
<linearGradient id="sheep-pedidos-ya-paint1_linear_37241_277162" x1="180" y1="143" x2="180.423" y2="110.505" gradientUnits="userSpaceOnUse">
<stop stop-color="#F32735"/>
<stop offset="1" stop-color="#9E1822"/>
</linearGradient>
<linearGradient id="sheep-pedidos-ya-paint2_linear_37241_277162" x1="253.968" y1="187.692" x2="248.12" y2="199.175" gradientUnits="userSpaceOnUse">
<stop stop-color="#EB4B68"/>
<stop offset="1" stop-color="#CF435C"/>
</linearGradient>
<linearGradient id="sheep-pedidos-ya-paint3_linear_37241_277162" x1="253.968" y1="187.692" x2="248.12" y2="199.175" gradientUnits="userSpaceOnUse">
<stop stop-color="#EB4B68"/>
<stop offset="1" stop-color="#CF435C"/>
</linearGradient>
<linearGradient id="sheep-pedidos-ya-paint4_linear_37241_277162" x1="282.113" y1="155.798" x2="278.412" y2="156.789" gradientUnits="userSpaceOnUse">
<stop stop-color="#E44965"/>
<stop offset="1" stop-color="#D1435D"/>
</linearGradient>
<clipPath id="sheep-pedidos-ya-clip0_37241_277162">
<rect width="76.6286" height="76.6286" fill="white" transform="translate(210 156.834) rotate(-15)"/>
</clipPath>
</defs>
</svg>
