<svg class="icon" viewBox="0 0 200 201" fill="none" xmlns="http://www.w3.org/2000/svg">
<path fill-rule="evenodd" clip-rule="evenodd" d="M103.108 68.0946V71.6289C103.108 73.0468 102.207 74.35 100.843 74.7319C98.8707 75.2811 97.0134 73.7435 97.0134 71.7649V68.0946C90.6597 67.3094 85.6796 63.8998 83.4486 60.3C83.124 59.7754 82.9273 59.1181 82.9273 58.4624C82.9273 56.4986 84.4994 54.9249 86.3993 54.9249C87.8418 54.9249 88.627 55.7117 89.2827 56.3674C92.0334 59.1181 95.5086 61.3475 100.03 61.3475C105.992 61.3475 108.875 59.3804 108.875 55.32C108.875 45.7517 84.9584 50.1432 84.9584 34.3507C84.9584 28.5182 88.627 23.4742 97.0134 22.5579V19.1155C97.0134 17.7549 98.1166 16.65 99.4772 16.65H100.644C102.005 16.65 103.108 17.7549 103.108 19.1155V22.6218C108.349 23.2792 112.675 25.3725 114.903 28.5182C115.296 29.11 115.558 29.8296 115.558 30.6165C115.558 32.5147 113.986 34.0884 112.019 34.0884C111.101 34.0884 110.183 33.5671 109.205 32.6491C107.172 30.6804 103.764 29.1756 100.03 29.1756C94.5906 29.1756 92.5579 31.7311 92.5579 34.3507C92.5579 42.9338 116.475 38.9389 116.475 55.32C116.475 62.5277 111.886 67.2439 103.108 68.0946ZM99.7018 8.17676C79.2357 8.17676 62.5842 24.8266 62.5842 45.2927C62.5842 65.7587 79.2357 82.4086 99.7018 82.4086C120.168 82.4086 136.818 65.7587 136.818 45.2927C136.818 24.8266 120.168 8.17676 99.7018 8.17676Z" fill="white"/>
<path fill-rule="evenodd" clip-rule="evenodd" d="M99.7017 82.4094C79.2373 82.4094 62.5842 65.7596 62.5842 45.2919C62.5842 24.8275 79.2373 8.17761 99.7017 8.17761C120.168 8.17761 136.819 24.8275 136.819 45.2919C136.819 65.7596 120.168 82.4094 99.7017 82.4094ZM99.7017 0.920654C75.2343 0.920654 55.3289 20.8261 55.3289 45.2919C55.3289 69.7593 75.2343 89.6647 99.7017 89.6647C124.169 89.6647 144.075 69.7593 144.075 45.2919C144.075 20.8261 124.169 0.920654 99.7017 0.920654Z" fill="#19194B"/>
<path fill-rule="evenodd" clip-rule="evenodd" d="M92.5586 34.3509C92.5586 31.7314 94.5896 29.1758 100.03 29.1758C103.764 29.1758 107.171 30.6806 109.204 32.6493C110.184 33.5657 111.102 34.0886 112.018 34.0886C113.985 34.0886 115.557 32.5149 115.557 30.6167C115.557 29.8298 115.295 29.1102 114.903 28.5184C112.674 25.3727 108.349 23.2794 103.109 22.6221V19.1157C103.109 17.7551 102.006 16.6503 100.645 16.6503H99.4778C98.1173 16.6503 97.0141 17.7551 97.0141 19.1157V22.5581C88.6276 23.4745 84.9574 28.5184 84.9574 34.3509C84.9574 50.1434 108.874 45.7519 108.874 55.3202C108.874 59.3806 105.991 61.3477 100.03 61.3477C95.5092 61.3477 92.034 59.1183 89.2833 56.3677C88.6276 55.712 87.8408 54.9251 86.3983 54.9251C84.5 54.9251 82.928 56.4988 82.928 58.4626C82.928 59.1183 83.123 59.7757 83.4476 60.3002C85.6803 63.9 90.6603 67.308 97.0141 68.0949V71.7651C97.0141 73.7437 98.8713 75.2813 100.843 74.7322C102.207 74.3502 103.109 73.0454 103.109 71.6291V68.0949C111.887 67.2441 116.475 62.5263 116.475 55.3202C116.475 38.9392 92.5586 42.934 92.5586 34.3509Z" fill="#19194B"/>
<path fill-rule="evenodd" clip-rule="evenodd" d="M75.9515 198.455C75.9515 199.817 77.0548 200.92 78.417 200.92H80.7431C82.1036 200.92 83.2069 199.817 83.2069 198.455V176.253H75.9515V198.455Z" fill="#19194B"/>
<path fill-rule="evenodd" clip-rule="evenodd" d="M116.262 176.253V198.455C116.262 199.817 117.365 200.921 118.726 200.921H121.054C122.414 200.921 123.517 199.817 123.517 198.455V176.253H116.262Z" fill="#19194B"/>
<path fill-rule="evenodd" clip-rule="evenodd" d="M149.577 147.435C148.452 147.725 147.531 148.525 147.087 149.597L146.202 151.731C145.759 152.804 145.846 154.023 146.434 155.021C150.252 161.493 149.27 169.96 143.854 175.374C138.017 181.212 128.632 181.897 122.024 176.973L119.856 176.251H79.5432L77.3745 176.973C70.7699 181.899 61.3836 181.212 55.5478 175.374C50.1301 169.958 49.1466 161.493 52.966 155.021C53.5578 154.023 53.6447 152.804 53.1988 151.731L52.3152 149.597C51.871 148.525 50.9481 147.725 49.8236 147.435C42.5486 145.558 37.2554 138.878 37.2554 131.22C37.2554 123.563 42.5486 116.879 49.8236 115.006C50.9481 114.716 51.871 113.916 52.3152 112.842L53.1988 110.709C53.6447 109.636 53.5578 108.418 52.966 107.419C49.1482 100.949 50.1318 92.4824 55.5478 87.0663C58.7739 83.837 63.0851 82.1847 67.4127 82.1847C70.3322 82.1847 73.2567 82.9371 75.8614 84.4649C76.8745 85.0599 78.1023 85.1681 79.1891 84.7173L81.3218 83.8337C82.3938 83.3911 83.1938 82.4682 83.4839 81.3454C85.3592 74.0671 92.0425 68.7772 99.6994 68.7772C107.358 68.7772 114.04 74.0671 115.916 81.3437C116.207 82.4666 117.007 83.3911 118.077 83.8337L120.211 84.7173C121.283 85.1632 122.501 85.0763 123.503 84.4862C129.971 80.6683 138.438 81.6503 143.854 87.0663C149.27 92.4824 150.252 100.949 146.434 107.419C145.846 108.419 145.759 109.636 146.202 110.709L147.087 112.844C147.531 113.916 148.452 114.716 149.577 115.006C156.852 116.879 162.143 123.563 162.143 131.22C162.143 138.878 156.852 145.558 149.577 147.435ZM153.89 108.775C157.88 99.8705 156.109 89.0597 148.987 81.9355C141.861 74.8097 131.05 73.0393 122.146 77.0325C118.672 67.9133 109.776 61.5203 99.6994 61.5203C89.6246 61.5203 80.7284 67.9133 77.2548 77.0325C68.3487 73.0393 57.5395 74.8097 50.4153 81.9355C43.2895 89.0597 41.5208 99.8722 45.5123 108.775C36.3932 112.247 30.0001 121.145 30.0001 131.22C30.0001 141.296 36.3932 150.194 45.5123 153.666C41.5191 162.569 43.2895 173.381 50.4153 180.505C55.0413 185.131 61.2213 187.5 67.4242 187.5C72.0436 187.498 76.6794 186.184 80.6939 183.508H118.707C128.106 189.777 140.912 188.579 148.987 180.505C156.109 173.381 157.88 162.569 153.89 153.666C163.006 150.194 169.4 141.296 169.4 131.22C169.4 121.145 163.007 112.247 153.89 108.775Z" fill="#19194B"/>
<path fill-rule="evenodd" clip-rule="evenodd" d="M149.579 115.005C148.454 114.715 147.531 113.915 147.087 112.845L146.202 110.709C145.759 109.637 145.846 108.417 146.434 107.419C150.252 100.949 149.27 92.4822 143.854 87.0661C138.438 81.65 129.971 80.6681 123.503 84.4859C122.501 85.076 121.283 85.1629 120.211 84.7171L118.077 83.8335C117.007 83.3909 116.207 82.4664 115.917 81.3435C114.04 74.0668 107.358 68.777 99.6994 68.777C92.0425 68.777 85.3609 74.0668 83.484 81.3451C83.1938 82.468 82.3939 83.3909 81.3218 83.8335L79.1892 84.7171C78.1023 85.1678 76.8745 85.0597 75.8615 84.4646C73.2567 82.9385 70.3323 82.186 67.4128 82.186C63.0852 82.186 58.7739 83.8384 55.5479 87.0661C50.1318 92.4822 49.1483 100.949 52.9661 107.419C53.5578 108.417 53.6447 109.637 53.1988 110.709L52.3153 112.843C51.871 113.915 50.9482 114.715 49.8236 115.005C42.5486 116.881 37.2555 123.562 37.2555 131.221C37.2555 138.878 42.5486 145.561 49.8236 147.435C50.9482 147.725 51.871 148.525 52.3153 149.599L53.1988 151.731C53.6447 152.805 53.5578 154.023 52.9661 155.021C49.1466 161.493 50.1302 169.958 55.5479 175.374C61.3836 181.213 70.77 181.9 77.3745 176.971L79.5432 176.251H119.856L122.023 176.971C128.632 181.898 138.017 181.213 143.854 175.374C149.27 169.96 150.252 161.493 146.434 155.021C145.846 154.023 145.759 152.805 146.202 151.731L147.087 149.599C147.531 148.525 148.452 147.725 149.577 147.435C156.852 145.559 162.143 138.878 162.143 131.221C162.143 123.562 156.852 116.881 149.579 115.005Z" fill="white"/>
<path fill-rule="evenodd" clip-rule="evenodd" d="M129.522 136.532C128.007 133.853 126.13 131.36 123.894 129.124L123.071 128.301C122.111 127.339 120.549 127.339 119.586 128.301L117.942 129.947C116.98 130.909 116.98 132.468 117.942 133.43L118.765 134.253C123.857 139.348 126.661 146.118 126.661 153.318C126.661 168.042 114.798 180.046 100.129 180.277C85.2409 180.51 72.7383 168.209 72.7399 153.318C72.7399 146.118 75.5431 139.348 80.6362 134.253L81.4591 133.43C82.4213 132.468 82.4213 130.909 81.4591 129.947L79.8133 128.301C78.8511 127.339 77.2905 127.339 76.3283 128.301L75.5054 129.124C73.2711 131.36 71.3925 133.853 69.8794 136.532C66.4305 134.152 63.9224 130.519 62.988 126.357H70.3073C71.6679 126.357 72.7711 125.254 72.7711 123.893V122.729C72.7711 119.107 75.707 116.171 79.3281 116.171C82.3361 116.171 84.8655 118.199 85.6376 120.959C85.9326 122.011 86.9063 122.726 87.9981 122.726H91.0307C92.1224 122.726 93.0961 122.011 93.3912 120.959C94.1649 118.199 96.6927 116.171 99.7007 116.171C102.709 116.171 105.236 118.199 106.009 120.959C106.304 122.011 107.279 122.726 108.371 122.726H111.402C112.493 122.726 113.469 122.011 113.762 120.959C114.534 118.199 117.064 116.171 120.072 116.171C123.693 116.171 126.629 119.107 126.629 122.729V123.893C126.629 125.254 127.732 126.357 129.092 126.357H136.412C135.477 130.519 132.971 134.152 129.522 136.532Z" fill="white"/>
<path fill-rule="evenodd" clip-rule="evenodd" d="M129.522 136.532C128.007 133.853 126.13 131.36 123.894 129.124L123.071 128.301C122.111 127.339 120.548 127.339 119.586 128.301L117.942 129.947C116.98 130.909 116.98 132.468 117.942 133.43L118.765 134.253C123.856 139.348 126.661 146.118 126.661 153.318C126.661 168.042 114.798 180.046 100.128 180.277C85.2407 180.51 72.7381 168.209 72.7398 153.318C72.7398 146.118 75.5429 139.348 80.636 134.253L81.4589 133.43C82.4212 132.468 82.4212 130.909 81.4589 129.947L79.8131 128.301C78.8509 127.339 77.2903 127.339 76.3281 128.301L75.5052 129.124C73.2709 131.36 71.3923 133.853 69.8793 136.532C66.4303 134.152 63.9222 130.519 62.9879 126.357H70.3071C71.6677 126.357 72.7709 125.254 72.7709 123.893V122.729C72.7709 119.107 75.7068 116.171 79.3279 116.171C82.3359 116.171 84.8653 118.199 85.6374 120.959C85.9324 122.011 86.9062 122.726 87.9979 122.726H91.0305C92.1222 122.726 93.096 122.011 93.391 120.959C94.1648 118.199 96.6925 116.171 99.7005 116.171C102.709 116.171 105.236 118.199 106.008 120.959C106.303 122.011 107.279 122.726 108.37 122.726H111.401C112.493 122.726 113.469 122.011 113.762 120.959C114.534 118.199 117.063 116.171 120.071 116.171C123.693 116.171 126.628 119.107 126.628 122.729V123.893C126.628 125.254 127.732 126.357 129.092 126.357H136.411C135.477 130.519 132.971 134.152 129.522 136.532ZM141.606 119.1H133.402C131.805 113.238 126.433 108.914 120.071 108.914C116.044 108.914 112.411 110.648 109.885 113.407C107.357 110.648 103.728 108.914 99.7005 108.914C95.6729 108.914 92.0419 110.648 89.5142 113.407C86.9881 110.648 83.3555 108.914 79.3279 108.914C72.966 108.914 67.5958 113.238 65.9975 119.1H57.7931C56.4325 119.1 55.3276 120.203 55.3276 121.564V122.729C55.3276 131.309 59.9782 139.017 66.986 143.264C65.9401 146.684 65.4205 150.287 65.4877 153.975C65.8352 172.597 81.2835 187.647 99.9103 187.535C118.681 187.421 133.917 172.115 133.917 153.318C133.917 149.856 133.403 146.472 132.418 143.254C132.418 143.258 132.42 143.259 132.42 143.261C139.424 139.012 144.072 131.306 144.072 122.729V121.564C144.072 120.203 142.969 119.1 141.606 119.1Z" fill="#19194B"/>
<path fill-rule="evenodd" clip-rule="evenodd" d="M93.2453 141.522C93.2453 143.562 91.5897 145.218 89.5488 145.218C87.5079 145.218 85.8523 143.562 85.8523 141.522C85.8523 139.481 87.5079 137.825 89.5488 137.825C91.5897 137.825 93.2453 139.481 93.2453 141.522Z" fill="#19194B"/>
<path fill-rule="evenodd" clip-rule="evenodd" d="M105.86 174.332C105.86 177.734 103.101 180.492 99.6994 180.492C96.2979 180.492 93.5391 177.734 93.5391 174.332H105.86Z" fill="#19194B"/>
<path fill-rule="evenodd" clip-rule="evenodd" d="M114.981 143.937H104.795C103.461 143.937 102.38 142.855 102.38 141.521C102.38 140.188 103.461 139.106 104.795 139.106H114.981C116.314 139.106 117.398 140.188 117.398 141.521C117.398 142.855 116.314 143.937 114.981 143.937Z" fill="#19194B"/>
</svg>
