<svg class="icon" viewBox="0 0 200 201" fill="none" xmlns="http://www.w3.org/2000/svg">
<path fill-rule="evenodd" clip-rule="evenodd" d="M143.206 16.692C131.366 5.90479 116.148 0 100.019 0C83.8921 0 68.6739 5.90479 56.8334 16.692C55.6047 17.8108 55.5449 19.7264 56.7196 20.9031L58.6718 22.8514C59.7675 23.949 61.521 23.9664 62.6707 22.9247C72.9216 13.6267 86.0796 8.53793 100.019 8.53793C113.96 8.53793 127.116 13.6267 137.371 22.9247C138.519 23.9664 140.272 23.949 141.37 22.8514L143.32 20.9031C144.497 19.7264 144.437 17.8108 143.206 16.692Z" fill="#19194B"/>
<path fill-rule="evenodd" clip-rule="evenodd" d="M100.022 17.9786C88.7157 17.9786 78.0288 22.0103 69.6008 29.3947C68.3373 30.502 68.2679 32.4484 69.4561 33.6367L71.3987 35.5792C72.4751 36.6556 74.1997 36.7115 75.3494 35.7123C82.1994 29.7631 90.8608 26.5166 100.022 26.5166C109.181 26.5166 117.842 29.7631 124.692 35.7123C125.844 36.7135 127.567 36.6556 128.645 35.5792L130.586 33.6367C131.774 32.4484 131.704 30.502 130.441 29.3947C122.013 22.0103 111.326 17.9786 100.022 17.9786Z" fill="#19194B"/>
<path fill-rule="evenodd" clip-rule="evenodd" d="M72.075 197.098C72.075 198.702 73.3751 200 74.9762 200H77.7135C79.3146 200 80.6129 198.702 80.6129 197.098V170.972H72.075V197.098Z" fill="#19194B"/>
<path fill-rule="evenodd" clip-rule="evenodd" d="M119.512 170.972V197.099C119.512 198.702 120.81 200 122.411 200H125.15C126.751 200 128.05 198.702 128.05 197.099V170.972H119.512Z" fill="#19194B"/>
<path fill-rule="evenodd" clip-rule="evenodd" d="M158.718 137.059C157.394 137.401 156.308 138.342 155.786 139.604L154.744 142.115C154.223 143.377 154.325 144.812 155.018 145.987C159.511 153.603 158.355 163.566 151.982 169.938C145.112 176.807 134.07 177.613 126.293 171.818L123.74 170.97H76.3015L73.7494 171.818C65.9773 177.615 54.9316 176.807 48.0642 169.938C41.6887 163.564 40.5332 153.603 45.026 145.987C45.7224 144.812 45.8246 143.377 45.2999 142.115L44.2601 139.604C43.7393 138.342 42.6513 137.401 41.328 137.059C32.7669 134.85 26.5381 126.99 26.5381 117.977C26.5381 108.966 32.7669 101.102 41.328 98.8969C42.6513 98.5555 43.7393 97.6141 44.2601 96.3506L45.2999 93.8409C45.8246 92.5774 45.7224 91.1441 45.026 89.9693C40.5332 82.3554 41.6907 72.3919 48.0642 66.0183C51.8606 62.2181 56.9339 60.2737 62.0285 60.2737C65.4622 60.2737 68.9036 61.1591 71.9689 62.957C73.161 63.6572 74.6059 63.7845 75.8848 63.254L78.3945 62.2143C79.658 61.6934 80.5994 60.6074 80.9408 59.286C83.1477 50.7211 91.0104 44.496 100.021 44.496C109.033 44.496 116.896 50.7211 119.105 59.2841C119.446 60.6055 120.388 61.6934 121.649 62.2143L124.159 63.254C125.421 63.7787 126.854 63.6765 128.033 62.982C135.645 58.4893 145.608 59.6448 151.982 66.0183C158.355 72.3919 159.511 82.3554 155.018 89.9693C154.325 91.146 154.223 92.5774 154.744 93.8409L155.786 96.3525C156.308 97.6141 157.394 98.5555 158.718 98.8969C167.277 101.102 173.506 108.966 173.506 117.977C173.506 126.99 167.277 134.85 158.718 137.059ZM163.791 91.5646C168.486 81.0861 166.403 68.3641 158.021 59.9804C149.636 51.5949 136.914 49.5115 126.435 54.2107C122.348 43.4794 111.879 35.9562 100.021 35.9562C88.167 35.9562 77.6962 43.4794 73.6086 54.2107C63.13 49.5115 50.4099 51.5949 42.0244 59.9804C33.6408 68.3641 31.5593 81.088 36.2546 91.5646C25.5234 95.6503 18.0001 106.121 18.0001 117.977C18.0001 129.835 25.5234 140.306 36.2546 144.391C31.5555 154.868 33.6389 167.592 42.0244 175.976C47.4681 181.419 54.7406 184.207 62.0401 184.207C67.4761 184.205 72.9334 182.658 77.6557 179.51H122.388C133.451 186.886 148.519 185.476 158.021 175.976C166.403 167.592 168.486 154.868 163.791 144.391C174.521 140.306 182.044 129.835 182.044 117.977C182.044 106.121 174.521 95.6503 163.791 91.5646Z" fill="#19194B"/>
<path fill-rule="evenodd" clip-rule="evenodd" d="M158.718 98.8965C157.395 98.555 156.309 97.6137 155.786 96.354L154.744 93.8405C154.223 92.5789 154.325 91.1437 155.018 89.9689C159.511 82.3549 158.355 72.3915 151.982 66.0179C145.608 59.6444 135.645 58.4889 128.033 62.9816C126.854 63.676 125.421 63.7783 124.159 63.2536L121.648 62.2138C120.388 61.693 119.446 60.605 119.105 59.2836C116.896 50.7206 109.034 44.4956 100.021 44.4956C91.0105 44.4956 83.1477 50.7206 80.9409 59.2856C80.5995 60.6069 79.6581 61.693 78.3946 62.2138L75.8849 63.2536C74.6059 63.7841 73.1611 63.6568 71.9689 62.9565C68.9037 61.1606 65.4623 60.2752 62.0286 60.2752C56.934 60.2752 51.8606 62.2196 48.0643 66.0179C41.6907 72.3915 40.5333 82.3549 45.026 89.9689C45.7224 91.1437 45.8247 92.5789 45.3 93.8405L44.2602 96.3521C43.7394 97.6136 42.6514 98.555 41.3281 98.8965C32.767 101.103 26.5381 108.966 26.5381 117.979C26.5381 126.989 32.767 134.854 41.3281 137.059C42.6514 137.4 43.7374 138.341 44.2602 139.605L45.3 142.115C45.8247 143.378 45.7224 144.811 45.026 145.986C40.5333 153.602 41.6888 163.564 48.0643 169.937C54.9317 176.808 65.9773 177.617 73.7494 171.816L76.3016 170.969H123.741L126.293 171.816C134.071 177.615 145.112 176.808 151.982 169.937C158.355 163.566 159.511 153.602 155.018 145.986C154.325 144.811 154.223 143.378 154.744 142.115L155.786 139.605C156.309 138.341 157.395 137.4 158.718 137.059C167.277 134.852 173.506 126.989 173.506 117.979C173.506 108.966 167.277 101.103 158.718 98.8965Z" fill="white"/>
<path fill-rule="evenodd" clip-rule="evenodd" d="M135.116 124.228C133.335 121.076 131.124 118.142 128.493 115.511L127.525 114.543C126.394 113.41 124.556 113.41 123.424 114.543L121.489 116.479C120.356 117.612 120.356 119.446 121.489 120.579L122.457 121.547C128.449 127.543 131.749 135.509 131.749 143.982C131.749 161.308 117.791 175.435 100.526 175.707C83.0064 175.981 68.2956 161.505 68.2956 143.982C68.2956 135.509 71.5961 127.543 77.5897 121.547L78.5581 120.579C79.6904 119.446 79.6904 117.612 78.5581 116.479L76.6194 114.543C75.487 113.41 73.6506 113.41 72.5182 114.543L71.5499 115.511C68.9206 118.142 66.7099 121.076 64.9294 124.228C60.8707 121.427 57.9193 117.153 56.8197 112.255H65.4329C67.034 112.255 68.3322 110.957 68.3322 109.356V107.986C68.3322 103.723 71.7871 100.268 76.0503 100.268C79.5882 100.268 82.5647 102.654 83.4733 105.903C83.8205 107.141 84.9663 107.982 86.2511 107.982H89.8198C91.1045 107.982 92.2504 107.141 92.5976 105.903C93.5081 102.654 96.4827 100.268 100.022 100.268C103.562 100.268 106.539 102.654 107.445 105.903C107.793 107.141 108.94 107.982 110.225 107.982H113.792C115.077 107.982 116.224 107.141 116.572 105.903C117.478 102.654 120.455 100.268 123.995 100.268C128.256 100.268 131.711 103.723 131.711 107.986V109.356C131.711 110.957 133.009 112.255 134.612 112.255H143.225C142.124 117.153 139.174 121.427 135.116 124.228Z" fill="white"/>
<path fill-rule="evenodd" clip-rule="evenodd" d="M112.05 125.75C109.648 125.75 107.7 127.699 107.7 130.1C107.7 132.502 109.648 134.45 112.05 134.45C114.451 134.45 116.399 132.502 116.399 130.1C116.399 127.699 114.451 125.75 112.05 125.75Z" fill="#19194B"/>
<path fill-rule="evenodd" clip-rule="evenodd" d="M88.0759 125.75C85.6743 125.75 83.726 127.699 83.726 130.1C83.726 132.502 85.6743 134.45 88.0759 134.45C90.4776 134.45 92.4259 132.502 92.4259 130.1C92.4259 127.699 90.4776 125.75 88.0759 125.75Z" fill="#19194B"/>
<path fill-rule="evenodd" clip-rule="evenodd" d="M107.27 168.711C107.27 172.714 104.024 175.961 100.021 175.961C96.0182 175.961 92.7716 172.714 92.7716 168.711H107.27Z" fill="#19194B"/>
<path fill-rule="evenodd" clip-rule="evenodd" d="M135.115 124.228C133.335 121.076 131.124 118.142 128.493 115.511L127.525 114.543C126.394 113.41 124.556 113.41 123.423 114.543L121.489 116.479C120.356 117.612 120.356 119.446 121.489 120.579L122.457 121.547C128.449 127.542 131.749 135.509 131.749 143.982C131.749 161.308 117.791 175.435 100.526 175.707C83.0062 175.981 68.2953 161.505 68.2953 143.982C68.2953 135.509 71.5959 127.542 77.5895 121.547L78.5578 120.579C79.6902 119.446 79.6902 117.612 78.5578 116.479L76.6191 114.543C75.4868 113.41 73.6504 113.41 72.518 114.543L71.5496 115.511C68.9204 118.142 66.7097 121.076 64.9292 124.228C60.8705 121.427 57.919 117.153 56.8195 112.255H65.4326C67.0337 112.255 68.332 110.957 68.332 109.355V107.986C68.332 103.723 71.7869 100.268 76.0501 100.268C79.5879 100.268 82.5645 102.654 83.473 105.902C83.8203 107.141 84.9661 107.982 86.2508 107.982H89.8196C91.1043 107.982 92.2502 107.141 92.5974 105.902C93.5079 102.654 96.4825 100.268 100.022 100.268C103.562 100.268 106.539 102.654 107.445 105.902C107.792 107.141 108.94 107.982 110.225 107.982H113.792C115.076 107.982 116.224 107.141 116.572 105.902C117.478 102.654 120.455 100.268 123.994 100.268C128.256 100.268 131.711 103.723 131.711 107.986V109.355C131.711 110.957 133.009 112.255 134.612 112.255H143.225C142.124 117.153 139.174 121.427 135.115 124.228ZM149.338 103.715H139.681C137.803 96.8167 131.481 91.7279 123.994 91.7279C119.255 91.7279 114.98 93.7688 112.007 97.0154C109.035 93.7688 104.762 91.7279 100.022 91.7279C95.2826 91.7279 91.0098 93.7688 88.0352 97.0154C85.0626 93.7688 80.7878 91.7279 76.0482 91.7279C68.5615 91.7279 62.242 96.8167 60.3612 103.715H50.7064C49.1053 103.715 47.807 105.013 47.807 106.614V107.986C47.807 118.082 53.2778 127.153 61.5244 132.151C60.2937 136.175 59.6822 140.415 59.7632 144.755C60.1702 166.669 78.3495 184.38 100.271 184.247C122.359 184.114 140.289 166.102 140.289 143.982C140.289 139.908 139.683 135.926 138.524 132.139C138.524 132.143 138.526 132.145 138.528 132.147C146.769 127.147 152.238 118.079 152.238 107.986V106.614C152.238 105.013 150.939 103.715 149.338 103.715Z" fill="#19194B"/>
</svg>
