<svg class="icon" viewBox="0 0 360 264" fill="none" xmlns="http://www.w3.org/2000/svg">
<rect width="360" height="264" fill="white"/>
<path fill-rule="evenodd" clip-rule="evenodd" d="M151.378 213.028C151.378 214.668 152.71 215.999 154.35 215.999H157.153C158.793 215.999 160.122 214.668 160.122 213.028V186.271H151.378V213.028Z" fill="#19194B"/>
<path fill-rule="evenodd" clip-rule="evenodd" d="M199.958 186.271V213.028C199.958 214.668 201.288 215.999 202.928 215.999H205.733C207.373 215.999 208.702 214.668 208.702 213.028V186.271H199.958Z" fill="#19194B"/>
<path fill-rule="evenodd" clip-rule="evenodd" d="M240.11 151.542C238.754 151.892 237.642 152.856 237.107 154.148L236.04 156.72C235.507 158.012 235.611 159.48 236.321 160.685C240.922 168.484 239.738 178.688 233.211 185.213C226.176 192.248 214.868 193.074 206.903 187.137L204.289 186.27H155.707L153.093 187.137C145.134 193.076 133.822 192.248 126.789 185.213C120.26 178.686 119.076 168.484 123.677 160.685C124.39 159.482 124.495 158.012 123.958 156.72L122.893 154.148C122.36 152.856 121.245 151.892 119.89 151.542C111.123 149.282 104.744 141.23 104.744 132C104.744 122.772 111.123 114.72 119.89 112.46C121.245 112.11 122.36 111.146 122.893 109.854L123.958 107.282C124.495 105.988 124.39 104.52 123.677 103.315C119.076 95.5196 120.262 85.3159 126.789 78.7888C130.677 74.8989 135.872 72.9056 141.09 72.9056C144.606 72.9056 148.131 73.8124 151.27 75.6536C152.491 76.3707 153.97 76.5011 155.28 75.9578L157.85 74.893C159.144 74.3596 160.108 73.2474 160.458 71.8922C162.718 63.1247 170.77 56.7477 179.998 56.7477C189.228 56.7477 197.28 63.1247 199.542 71.8922C199.892 73.2474 200.856 74.3576 202.148 74.893L204.718 75.9578C206.01 76.4932 207.478 76.3885 208.685 75.6793C216.48 71.0782 226.684 72.2616 233.211 78.7888C239.738 85.314 240.922 95.5176 236.321 103.317C235.611 104.522 235.507 105.99 236.04 107.282L237.107 109.854C237.642 111.146 238.754 112.11 240.11 112.46C248.875 114.72 255.254 122.772 255.254 132C255.254 141.23 248.875 149.282 240.11 151.542ZM245.305 104.951C250.114 94.2197 247.98 81.191 239.396 72.6034C230.809 64.0177 217.78 61.8841 207.049 66.6965C202.863 55.7066 192.142 48 179.998 48C167.858 48 157.135 55.7066 152.949 66.6965C142.218 61.8841 129.191 64.0177 120.603 72.6034C112.018 81.191 109.886 94.2217 114.695 104.951C103.705 109.137 96 119.858 96 132C96 144.144 103.705 154.865 114.695 159.051C109.882 169.78 112.016 182.811 120.603 191.396C126.178 196.971 133.626 199.826 141.102 199.826C146.669 199.824 152.257 198.24 157.094 195.016H202.904C214.234 202.57 229.665 201.126 239.396 191.396C247.98 182.813 250.114 169.782 245.305 159.051C256.293 154.865 263.998 144.144 263.998 132C263.998 119.858 256.293 109.137 245.305 104.951Z" fill="#19194B"/>
<path fill-rule="evenodd" clip-rule="evenodd" d="M240.11 112.46C238.755 112.111 237.642 111.146 237.107 109.854L236.04 107.282C235.507 105.99 235.611 104.522 236.321 103.317C240.922 95.518 239.738 85.3143 233.211 78.7891C226.684 72.262 216.48 71.0786 208.685 75.6796C207.478 76.3908 206.01 76.4936 204.718 75.9582L202.146 74.8934C200.856 74.358 199.892 73.2477 199.542 71.8925C197.28 63.1251 189.228 56.748 179.998 56.748C170.77 56.748 162.718 63.1251 160.458 71.8925C160.108 73.2477 159.144 74.36 157.85 74.8934L155.28 75.9582C153.97 76.5015 152.491 76.3711 151.27 75.6559C148.131 73.8127 144.606 72.908 141.09 72.908C135.872 72.908 130.677 74.8993 126.789 78.7891C120.262 85.3163 119.076 95.52 123.677 103.317C124.391 104.521 124.495 105.99 123.958 107.282L122.893 109.854C122.36 111.146 121.246 112.111 119.89 112.46C111.123 114.72 104.744 122.773 104.744 132.002C104.744 141.23 111.123 149.282 119.89 151.542C121.246 151.892 122.358 152.856 122.893 154.148L123.958 156.72C124.495 158.014 124.391 159.482 123.677 160.687C119.076 168.485 120.26 178.686 126.789 185.213C133.822 192.25 145.134 193.078 153.093 187.138L155.707 186.27H204.289L206.903 187.138C214.868 193.076 226.176 192.25 233.211 185.213C239.738 178.688 240.922 168.485 236.321 160.685C235.611 159.48 235.507 158.012 236.04 156.72L237.107 154.148C237.642 152.856 238.755 151.892 240.11 151.542C248.875 149.282 255.254 141.23 255.254 132.002C255.254 122.773 248.875 114.72 240.11 112.46Z" fill="white"/>
<path fill-rule="evenodd" clip-rule="evenodd" d="M215.939 138.401C214.115 135.173 211.851 132.169 209.157 129.474L208.165 128.482C207.007 127.323 205.124 127.323 203.965 128.482L201.983 130.466C200.824 131.625 200.824 133.506 201.983 134.666L202.975 135.657C209.111 141.795 212.491 149.954 212.491 158.633C212.491 176.375 198.196 190.84 180.515 191.119C162.573 191.401 147.508 176.577 147.508 158.633C147.508 149.954 150.888 141.795 157.026 135.657L158.018 134.666C159.177 133.506 159.177 131.625 158.018 130.466L156.032 128.482C154.873 127.323 152.992 127.323 151.832 128.482L150.841 129.474C148.148 132.169 145.884 135.173 144.061 138.401C139.904 135.533 136.881 131.155 135.755 126.139H144.576C146.216 126.139 147.545 124.812 147.545 123.17V121.767C147.545 117.403 151.084 113.865 155.45 113.865C159.073 113.865 162.121 116.307 163.051 119.634C163.407 120.902 164.58 121.765 165.896 121.765H169.551C170.867 121.765 172.04 120.902 172.396 119.634C173.328 116.307 176.374 113.865 180 113.865C183.625 113.865 186.673 116.307 187.601 119.634C187.957 120.902 189.132 121.765 190.448 121.765H194.101C195.417 121.765 196.592 120.902 196.948 119.634C197.876 116.307 200.924 113.865 204.55 113.865C208.914 113.865 212.452 117.403 212.452 121.767V123.17C212.452 124.812 213.781 126.139 215.423 126.139H224.244C223.116 131.155 220.095 135.533 215.939 138.401Z" fill="white"/>
<path fill-rule="evenodd" clip-rule="evenodd" d="M192.317 139.961C189.857 139.961 187.862 141.954 187.862 144.416C187.862 146.875 189.857 148.869 192.317 148.869C194.776 148.869 196.771 146.875 196.771 144.416C196.771 141.954 194.776 139.961 192.317 139.961Z" fill="#19194B"/>
<path fill-rule="evenodd" clip-rule="evenodd" d="M167.765 139.961C165.306 139.961 163.31 141.954 163.31 144.416C163.31 146.875 165.306 148.869 167.765 148.869C170.225 148.869 172.22 146.875 172.22 144.416C172.22 141.954 170.225 139.961 167.765 139.961Z" fill="#19194B"/>
<path fill-rule="evenodd" clip-rule="evenodd" d="M187.422 183.957C187.422 188.058 184.098 191.381 179.998 191.381C175.899 191.381 172.574 188.058 172.574 183.957H187.422Z" fill="#19194B"/>
<path fill-rule="evenodd" clip-rule="evenodd" d="M215.938 138.401C214.115 135.173 211.851 132.168 209.156 129.474L208.165 128.482C207.007 127.322 205.124 127.322 203.965 128.482L201.983 130.465C200.823 131.625 200.823 133.506 201.983 134.665L202.975 135.657C209.111 141.795 212.491 149.954 212.491 158.633C212.491 176.375 198.196 190.84 180.515 191.118C162.573 191.401 147.508 176.576 147.508 158.633C147.508 149.954 150.888 141.795 157.026 135.657L158.017 134.665C159.177 133.506 159.177 131.625 158.017 130.465L156.032 128.482C154.872 127.322 152.992 127.322 151.832 128.482L150.84 129.474C148.148 132.168 145.884 135.173 144.06 138.401C139.904 135.533 136.881 131.155 135.755 126.139H144.576C146.216 126.139 147.545 124.811 147.545 123.17V121.767C147.545 117.403 151.083 113.865 155.449 113.865C159.072 113.865 162.121 116.307 163.051 119.633C163.407 120.902 164.58 121.765 165.896 121.765H169.551C170.866 121.765 172.04 120.902 172.395 119.633C173.328 116.307 176.374 113.865 179.999 113.865C183.624 113.865 186.673 116.307 187.601 119.633C187.957 120.902 189.132 121.765 190.448 121.765H194.101C195.416 121.765 196.592 120.902 196.947 119.633C197.876 116.307 200.924 113.865 204.549 113.865C208.913 113.865 212.451 117.403 212.451 121.767V123.17C212.451 124.811 213.781 126.139 215.423 126.139H224.243C223.115 131.155 220.095 135.533 215.938 138.401ZM230.504 117.393H220.614C218.69 110.329 212.216 105.119 204.549 105.119C199.695 105.119 195.318 107.207 192.273 110.532C189.229 107.207 184.853 105.119 179.999 105.119C175.145 105.119 170.77 107.207 167.723 110.532C164.679 107.207 160.301 105.119 155.447 105.119C147.78 105.119 141.308 110.329 139.382 117.393H129.495C127.855 117.393 126.525 118.725 126.525 120.364V121.767C126.525 132.107 132.128 141.396 140.573 146.517C139.313 150.638 138.687 154.978 138.77 159.423C139.187 181.865 157.804 200.002 180.254 199.869C202.874 199.73 221.237 181.286 221.237 158.633C221.237 154.458 220.616 150.381 219.429 146.503C219.429 146.505 219.431 146.509 219.433 146.511C227.873 141.39 233.473 132.105 233.473 121.767V120.364C233.473 118.725 232.144 117.393 230.504 117.393Z" fill="#19194B"/>
<path fill-rule="evenodd" clip-rule="evenodd" d="M179.76 72C180.835 72 181.706 72.8713 181.706 73.9461V79.7843C181.706 80.8591 180.835 81.7304 179.76 81.7304C178.685 81.7304 177.814 80.8591 177.814 79.7843V73.9461C177.814 72.8713 178.685 72 179.76 72Z" fill="#8E0057"/>
<path d="M138.896 125.484V116.358C138.896 105.519 143.202 95.1242 150.866 87.4601C158.53 79.7959 168.925 75.4902 179.764 75.4902C190.602 75.4902 200.997 79.7959 208.661 87.4601C216.325 95.1242 220.631 105.519 220.631 116.358V125.484" fill="url(#sheep-time-jobs-paint0_linear_37241_276642)"/>
<path d="M224.336 137.927L220.627 125.473C207.954 119.075 193.956 115.742 179.76 115.742C165.563 115.742 151.565 119.075 138.892 125.473L135.183 137.927C134.956 138.641 134.94 139.404 135.136 140.126C135.332 140.848 135.732 141.498 136.288 141.999C136.844 142.5 137.533 142.829 138.271 142.949C139.01 143.068 139.767 142.972 140.453 142.672C152.908 137.521 166.288 134.983 179.764 135.215C193.239 134.983 206.619 137.521 219.074 142.672C219.76 142.973 220.518 143.07 221.257 142.951C221.997 142.832 222.686 142.503 223.243 142.002C223.799 141.501 224.2 140.85 224.396 140.128C224.592 139.405 224.575 138.641 224.348 137.927H224.336Z" fill="url(#sheep-time-jobs-paint1_linear_37241_276642)"/>
<g clip-path="url(#sheep-time-jobs-clip0_37241_276642)">
<path d="M158.378 101.91C158.369 101.906 158.361 101.901 158.354 101.895L158.378 101.91Z" fill="white"/>
<path d="M160.971 95.8897C160.621 95.8976 160.282 95.775 160.016 95.5455C159.88 95.421 159.773 95.2673 159.704 95.0957C159.634 94.9241 159.603 94.739 159.614 94.5539C159.607 94.373 159.639 94.1927 159.709 94.0258C159.778 93.8589 159.883 93.7095 160.016 93.588C160.276 93.3441 160.619 93.2099 160.973 93.213C161.315 93.209 161.647 93.3304 161.908 93.5546C162.045 93.6779 162.153 93.8314 162.222 94.0034C162.291 94.1753 162.32 94.3611 162.307 94.5462C162.319 94.7316 162.29 94.9174 162.222 95.0902C162.154 95.2629 162.05 95.4184 161.915 95.5455C161.655 95.7763 161.317 95.8992 160.971 95.8897V95.8897Z" fill="white"/>
<path d="M160.968 105.661C160.713 105.666 160.465 105.574 160.273 105.404C160.176 105.314 160.1 105.204 160.05 105.081C160 104.958 159.978 104.825 159.986 104.692C159.983 104.566 160.007 104.441 160.056 104.326C160.105 104.21 160.178 104.106 160.271 104.022C160.457 103.846 160.703 103.749 160.958 103.752C161.205 103.753 161.442 103.844 161.627 104.009C161.726 104.097 161.804 104.207 161.854 104.331C161.905 104.454 161.926 104.587 161.918 104.72C161.925 104.852 161.903 104.984 161.854 105.106C161.804 105.228 161.729 105.338 161.632 105.427C161.448 105.586 161.211 105.669 160.968 105.661V105.661Z" fill="white"/>
<path d="M160.971 99.323C160.66 99.3302 160.359 99.2213 160.123 99.0173C160.002 98.9092 159.907 98.7751 159.844 98.6248C159.782 98.4745 159.753 98.3119 159.762 98.1491C159.758 97.9915 159.788 97.835 159.85 97.6904C159.912 97.5458 160.004 97.4165 160.121 97.3116C160.349 97.0981 160.649 96.9805 160.961 96.9828C161.266 96.9749 161.565 97.081 161.798 97.2808C161.919 97.3886 162.014 97.5228 162.076 97.6733C162.138 97.8238 162.164 97.9865 162.154 98.1491C162.162 98.3106 162.134 98.4717 162.072 98.621C162.01 98.7702 161.917 98.9038 161.798 99.0122C161.571 99.2182 161.276 99.3293 160.971 99.323V99.323Z" fill="white"/>
<path d="M160.968 102.628C160.689 102.638 160.416 102.541 160.204 102.356C160.104 102.257 160.024 102.139 159.97 102.008C159.915 101.878 159.887 101.737 159.887 101.596C159.887 101.454 159.915 101.314 159.97 101.183C160.024 101.053 160.104 100.934 160.204 100.835C160.408 100.647 160.674 100.543 160.95 100.545C161.216 100.54 161.474 100.631 161.678 100.802C161.786 100.897 161.871 101.017 161.926 101.15C161.981 101.284 162.005 101.428 161.996 101.573C162.004 101.716 161.98 101.86 161.927 101.993C161.873 102.126 161.791 102.246 161.686 102.343C161.491 102.526 161.234 102.628 160.968 102.628V102.628Z" fill="white"/>
<path d="M150 97.5664V99.3491H152.578V104.52C152.578 104.769 152.677 105.009 152.851 105.185C153.026 105.361 153.263 105.46 153.51 105.46C153.757 105.46 153.994 105.361 154.169 105.185C154.344 105.009 154.442 104.769 154.442 104.52V99.3491H157.02V97.5664H150Z" fill="white"/>
<path d="M172.321 97.4082C171.147 97.4082 170.284 97.9759 169.992 98.8005H169.959C169.653 97.9759 168.803 97.4082 167.63 97.4082C166.102 97.4082 164.789 98.559 164.789 100.552V104.619C164.787 104.842 164.873 105.057 165.028 105.217C165.183 105.376 165.395 105.467 165.616 105.469C165.838 105.471 166.051 105.384 166.209 105.228C166.367 105.071 166.457 104.858 166.459 104.634C166.459 104.634 166.459 104.634 166.459 104.616C166.459 104.598 166.459 104.616 166.459 104.598V100.568C166.459 99.6276 167.052 99.0933 167.731 99.0933C168.536 99.0933 169.129 99.5788 169.129 100.794V104.627C169.129 104.85 169.217 105.064 169.373 105.222C169.53 105.38 169.742 105.469 169.964 105.469C170.185 105.469 170.397 105.38 170.554 105.222C170.711 105.064 170.799 104.85 170.799 104.627C170.799 104.627 170.799 104.627 170.799 104.627V100.794C170.799 99.5763 171.394 99.0908 172.196 99.0908C172.886 99.0908 173.469 99.6251 173.469 100.565V104.598C173.469 104.598 173.469 104.598 173.469 104.616C173.469 104.634 173.469 104.616 173.469 104.634C173.471 104.858 173.561 105.071 173.72 105.227C173.878 105.384 174.091 105.47 174.312 105.468C174.534 105.465 174.745 105.374 174.9 105.215C175.055 105.055 175.141 104.84 175.138 104.616V100.55C175.161 98.559 173.845 97.4082 172.321 97.4082Z" fill="white"/>
<path d="M185.799 101.812C185.799 98.7503 183.391 97.4043 181.769 97.4043C179.056 97.4043 177.48 99.4593 177.48 101.537C177.48 103.616 179.056 105.671 181.769 105.671C182.745 105.651 183.688 105.308 184.452 104.695L184.48 104.671C184.644 104.55 184.753 104.369 184.784 104.167C184.815 103.964 184.765 103.758 184.646 103.593C184.526 103.427 184.346 103.317 184.145 103.286C183.945 103.254 183.74 103.305 183.576 103.426V103.426C183.075 103.901 182.416 104.17 181.729 104.181C180.555 104.181 179.438 103.32 179.351 102.126H185.806L185.799 101.812ZM179.343 100.728C179.618 99.5621 180.484 98.8968 181.545 98.8968C182.607 98.8968 183.487 99.5287 183.836 100.728H179.343Z" fill="white"/>
<path d="M189.214 105.437C189.233 105.645 189.189 105.854 189.09 106.037C188.99 106.22 188.838 106.369 188.654 106.464L188.535 106.542C188.432 106.597 188.352 106.686 188.306 106.794C188.261 106.902 188.253 107.022 188.285 107.135C188.317 107.248 188.386 107.347 188.481 107.414C188.576 107.482 188.691 107.515 188.807 107.507C188.892 107.508 188.975 107.485 189.049 107.443C189.085 107.425 189.08 107.423 189.248 107.317C190.011 106.834 190.34 106.269 190.34 105.504V100.15H189.209V105.437H189.214Z" fill="white"/>
<path d="M194.31 100.01C192.475 100.01 191.411 101.402 191.411 102.805C191.411 104.207 192.475 105.602 194.31 105.602C196.146 105.602 197.212 104.21 197.212 102.805C197.212 101.399 196.161 100.01 194.31 100.01ZM194.31 104.526C193.973 104.526 193.643 104.425 193.363 104.236C193.082 104.047 192.864 103.778 192.735 103.463C192.606 103.149 192.572 102.803 192.638 102.469C192.704 102.135 192.866 101.828 193.104 101.588C193.343 101.347 193.647 101.183 193.978 101.117C194.308 101.05 194.651 101.084 194.963 101.215C195.275 101.345 195.541 101.565 195.728 101.848C195.916 102.131 196.016 102.464 196.016 102.805C196.021 103.033 195.981 103.259 195.897 103.471C195.814 103.683 195.689 103.876 195.529 104.038C195.37 104.199 195.18 104.327 194.97 104.413C194.761 104.498 194.536 104.54 194.31 104.536V104.526Z" fill="white"/>
<path d="M201.125 100.009C200.384 100.009 199.679 100.358 199.406 100.797H199.386V98.5703H198.256V104.91C198.268 105.055 198.334 105.19 198.442 105.288C198.549 105.385 198.689 105.438 198.833 105.435C198.977 105.432 199.115 105.373 199.218 105.272C199.321 105.17 199.382 105.032 199.389 104.887C199.39 104.862 199.39 104.837 199.389 104.812H199.414C199.686 105.252 200.391 105.604 201.13 105.604C201.494 105.609 201.855 105.541 202.192 105.402C202.529 105.263 202.835 105.056 203.091 104.795C203.347 104.534 203.547 104.223 203.681 103.881C203.815 103.539 203.878 103.174 203.868 102.806C203.879 102.438 203.816 102.072 203.682 101.73C203.548 101.387 203.347 101.076 203.091 100.814C202.834 100.553 202.527 100.346 202.189 100.208C201.851 100.069 201.489 100.002 201.125 100.009V100.009ZM201.028 104.535C200.806 104.537 200.587 104.493 200.382 104.407C200.178 104.32 199.993 104.192 199.84 104.031C199.686 103.87 199.567 103.679 199.488 103.47C199.41 103.261 199.376 103.037 199.386 102.814C199.377 102.591 199.413 102.369 199.492 102.16C199.57 101.952 199.69 101.761 199.843 101.6C199.996 101.44 200.18 101.312 200.383 101.224C200.587 101.137 200.805 101.092 201.027 101.092C201.248 101.092 201.466 101.137 201.67 101.224C201.873 101.312 202.057 101.44 202.21 101.6C202.363 101.761 202.483 101.952 202.561 102.16C202.64 102.369 202.676 102.591 202.667 102.814C202.678 103.037 202.643 103.26 202.566 103.47C202.488 103.679 202.369 103.87 202.215 104.031C202.062 104.192 201.877 104.32 201.673 104.407C201.469 104.493 201.249 104.537 201.028 104.535V104.535Z" fill="white"/>
<path d="M207.615 102.397L206.475 102.179C206.04 102.102 205.79 101.938 205.79 101.619C205.79 101.193 206.269 100.951 206.758 100.951C207.284 100.969 207.786 101.179 208.17 101.542L208.812 100.741C208.215 100.271 207.481 100.013 206.724 100.006C205.409 100.006 204.66 100.841 204.66 101.74C204.66 102.51 205.073 102.978 206.551 103.253L207.193 103.374C207.605 103.451 207.878 103.63 207.878 103.987C207.878 104.283 207.486 104.655 206.834 104.655C206.368 104.636 205.918 104.476 205.543 104.196L205.5 104.165C205.417 104.109 205.32 104.08 205.22 104.08C205.08 104.08 204.946 104.136 204.848 104.236C204.749 104.335 204.693 104.471 204.693 104.612C204.694 104.697 204.715 104.782 204.754 104.858C204.794 104.934 204.85 104.999 204.92 105.048H204.938C205.487 105.405 206.127 105.594 206.78 105.59C208.376 105.59 209.008 104.581 209.008 103.792C209.008 103.004 208.544 102.572 207.615 102.397Z" fill="white"/>
</g>
<g filter="url(#sheep-time-jobs-filter0_d_37241_276642)">
<path d="M240.88 154.782C241.966 150.728 246.134 148.322 250.188 149.408L283.223 158.26C287.277 159.346 289.683 163.514 288.597 167.568L272.86 226.296C271.774 230.351 267.607 232.757 263.552 231.67L230.518 222.819C226.463 221.732 224.057 217.565 225.144 213.511L240.88 154.782Z" fill="white"/>
<path d="M250.751 147.308C245.536 145.911 240.176 149.005 238.779 154.22L223.043 212.948C221.646 218.162 224.74 223.522 229.955 224.919L262.99 233.771C268.204 235.168 273.564 232.074 274.961 226.859L290.697 168.131C292.095 162.916 289 157.557 283.785 156.159L250.751 147.308Z" stroke="white" stroke-width="4.34951"/>
</g>
<g clip-path="url(#sheep-time-jobs-clip1_37241_276642)">
<path d="M240.88 154.784C241.966 150.73 246.134 148.324 250.188 149.41L283.223 158.262C287.277 159.348 289.683 163.516 288.597 167.57L272.86 226.298C271.774 230.353 267.607 232.759 263.552 231.672L230.518 222.821C226.463 221.734 224.057 217.567 225.144 213.513L240.88 154.784Z" fill="url(#sheep-time-jobs-paint2_linear_37241_276642)"/>
<path d="M244.059 157.603C244.874 154.563 247.999 152.758 251.04 153.573L280.404 161.441C283.445 162.256 285.249 165.381 284.435 168.422L273.616 208.798C272.801 211.839 269.676 213.643 266.635 212.828L237.271 204.96C234.23 204.145 232.426 201.02 233.24 197.979L244.059 157.603Z" fill="white"/>
<path opacity="0.4" d="M244.059 157.603C244.874 154.563 247.999 152.758 251.04 153.573L280.404 161.441C283.445 162.256 285.249 165.381 284.435 168.422L273.616 208.798C272.801 211.839 269.676 213.643 266.635 212.828L237.271 204.96C234.23 204.145 232.426 201.02 233.24 197.979L244.059 157.603Z" fill="#99D9F2"/>
<path opacity="0.5" d="M237.271 204.961L266.635 212.829C269.675 213.644 272.801 211.839 273.616 208.798L284.434 168.423C284.815 167.001 284.624 165.561 284.001 164.347L233.674 202.055C234.383 203.438 235.651 204.527 237.271 204.961Z" fill="url(#sheep-time-jobs-paint3_linear_37241_276642)"/>
<path d="M253.164 219.054C252.621 221.081 250.538 222.284 248.51 221.741C246.483 221.197 245.28 219.114 245.823 217.087C246.367 215.059 248.45 213.856 250.477 214.4C252.505 214.943 253.708 217.026 253.164 219.054Z" fill="#99D9F2"/>
</g>
<defs>
<filter id="sheep-time-jobs-filter0_d_37241_276642" x="205.381" y="134.696" width="102.979" height="121.788" filterUnits="userSpaceOnUse" color-interpolation-filters="sRGB">
<feFlood flood-opacity="0" result="BackgroundImageFix"/>
<feColorMatrix in="SourceAlpha" type="matrix" values="0 0 0 0 0 0 0 0 0 0 0 0 0 0 0 0 0 0 127 0" result="hardAlpha"/>
<feOffset dy="5.05052"/>
<feGaussianBlur stdDeviation="7.57579"/>
<feColorMatrix type="matrix" values="0 0 0 0 0 0 0 0 0 0 0 0 0 0 0 0 0 0 0.32 0"/>
<feBlend mode="normal" in2="BackgroundImageFix" result="effect1_dropShadow_37241_276642"/>
<feBlend mode="normal" in="SourceGraphic" in2="effect1_dropShadow_37241_276642" result="shape"/>
</filter>
<linearGradient id="sheep-time-jobs-paint0_linear_37241_276642" x1="180.073" y1="90.5" x2="180" y2="155" gradientUnits="userSpaceOnUse">
<stop stop-color="#EC0091"/>
<stop offset="1" stop-color="#5E003A"/>
</linearGradient>
<linearGradient id="sheep-time-jobs-paint1_linear_37241_276642" x1="180.073" y1="143" x2="180.514" y2="103.506" gradientUnits="userSpaceOnUse">
<stop stop-color="#EC0091"/>
<stop offset="1" stop-color="#5E003A"/>
</linearGradient>
<linearGradient id="sheep-time-jobs-paint2_linear_37241_276642" x1="266.705" y1="153.836" x2="253.814" y2="290.041" gradientUnits="userSpaceOnUse">
<stop stop-color="#00A0DF"/>
<stop offset="1" stop-color="#007CBF"/>
</linearGradient>
<linearGradient id="sheep-time-jobs-paint3_linear_37241_276642" x1="265.23" y1="159.343" x2="247.053" y2="212.499" gradientUnits="userSpaceOnUse">
<stop stop-color="#33B3E5"/>
<stop offset="1" stop-color="#99D9F2" stop-opacity="0"/>
</linearGradient>
<clipPath id="sheep-time-jobs-clip0_37241_276642">
<rect width="59" height="14.303" fill="white" transform="translate(150 93.2129)"/>
</clipPath>
<clipPath id="sheep-time-jobs-clip1_37241_276642">
<rect width="76" height="76" fill="white" transform="translate(230 144) rotate(15)"/>
</clipPath>
</defs>
</svg>
