<svg class="icon" viewBox="0 0 360 264" fill="none" xmlns="http://www.w3.org/2000/svg">
<rect width="360" height="264" fill="white"/>
<path fill-rule="evenodd" clip-rule="evenodd" d="M151.378 213.028C151.378 214.668 152.71 215.999 154.35 215.999H157.153C158.793 215.999 160.122 214.668 160.122 213.028V186.271H151.378V213.028Z" fill="#19194B"/>
<path fill-rule="evenodd" clip-rule="evenodd" d="M199.958 186.271V213.028C199.958 214.668 201.288 215.999 202.928 215.999H205.733C207.373 215.999 208.702 214.668 208.702 213.028V186.271H199.958Z" fill="#19194B"/>
<path fill-rule="evenodd" clip-rule="evenodd" d="M240.11 151.542C238.754 151.892 237.642 152.856 237.107 154.148L236.04 156.72C235.507 158.012 235.611 159.48 236.321 160.685C240.922 168.484 239.738 178.688 233.211 185.213C226.176 192.248 214.868 193.074 206.903 187.137L204.289 186.27H155.707L153.093 187.137C145.134 193.076 133.822 192.248 126.789 185.213C120.26 178.686 119.076 168.484 123.677 160.685C124.39 159.482 124.495 158.012 123.958 156.72L122.893 154.148C122.36 152.856 121.245 151.892 119.89 151.542C111.123 149.282 104.744 141.23 104.744 132C104.744 122.772 111.123 114.72 119.89 112.46C121.245 112.11 122.36 111.146 122.893 109.854L123.958 107.282C124.495 105.988 124.39 104.52 123.677 103.315C119.076 95.5196 120.262 85.3159 126.789 78.7888C130.677 74.8989 135.872 72.9056 141.09 72.9056C144.606 72.9056 148.131 73.8124 151.27 75.6536C152.491 76.3707 153.97 76.5011 155.28 75.9578L157.85 74.893C159.144 74.3596 160.108 73.2474 160.458 71.8922C162.718 63.1247 170.77 56.7477 179.998 56.7477C189.228 56.7477 197.28 63.1247 199.542 71.8922C199.892 73.2474 200.856 74.3576 202.148 74.893L204.718 75.9578C206.01 76.4932 207.478 76.3885 208.685 75.6793C216.48 71.0782 226.684 72.2616 233.211 78.7888C239.738 85.314 240.922 95.5176 236.321 103.317C235.611 104.522 235.507 105.99 236.04 107.282L237.107 109.854C237.642 111.146 238.754 112.11 240.11 112.46C248.875 114.72 255.254 122.772 255.254 132C255.254 141.23 248.875 149.282 240.11 151.542ZM245.305 104.951C250.114 94.2197 247.98 81.191 239.396 72.6034C230.809 64.0177 217.78 61.8841 207.049 66.6965C202.863 55.7066 192.142 48 179.998 48C167.858 48 157.135 55.7066 152.949 66.6965C142.218 61.8841 129.191 64.0177 120.603 72.6034C112.018 81.191 109.886 94.2217 114.695 104.951C103.705 109.137 96 119.858 96 132C96 144.144 103.705 154.865 114.695 159.051C109.882 169.78 112.016 182.811 120.603 191.396C126.178 196.971 133.626 199.826 141.102 199.826C146.669 199.824 152.257 198.24 157.094 195.016H202.904C214.234 202.57 229.665 201.126 239.396 191.396C247.98 182.813 250.114 169.782 245.305 159.051C256.293 154.865 263.998 144.144 263.998 132C263.998 119.858 256.293 109.137 245.305 104.951Z" fill="#19194B"/>
<path fill-rule="evenodd" clip-rule="evenodd" d="M240.11 112.46C238.755 112.111 237.642 111.146 237.107 109.854L236.04 107.282C235.507 105.99 235.611 104.522 236.321 103.317C240.922 95.518 239.738 85.3143 233.211 78.7891C226.684 72.262 216.48 71.0786 208.685 75.6796C207.478 76.3908 206.01 76.4936 204.718 75.9582L202.146 74.8934C200.856 74.358 199.892 73.2477 199.542 71.8925C197.28 63.1251 189.228 56.748 179.998 56.748C170.77 56.748 162.718 63.1251 160.458 71.8925C160.108 73.2477 159.144 74.36 157.85 74.8934L155.28 75.9582C153.97 76.5015 152.491 76.3711 151.27 75.6559C148.131 73.8127 144.606 72.908 141.09 72.908C135.872 72.908 130.677 74.8993 126.789 78.7891C120.262 85.3163 119.076 95.52 123.677 103.317C124.391 104.521 124.495 105.99 123.958 107.282L122.893 109.854C122.36 111.146 121.246 112.111 119.89 112.46C111.123 114.72 104.744 122.773 104.744 132.002C104.744 141.23 111.123 149.282 119.89 151.542C121.246 151.892 122.358 152.856 122.893 154.148L123.958 156.72C124.495 158.014 124.391 159.482 123.677 160.687C119.076 168.485 120.26 178.686 126.789 185.213C133.822 192.25 145.134 193.078 153.093 187.138L155.707 186.27H204.289L206.903 187.138C214.868 193.076 226.176 192.25 233.211 185.213C239.738 178.688 240.922 168.485 236.321 160.685C235.611 159.48 235.507 158.012 236.04 156.72L237.107 154.148C237.642 152.856 238.755 151.892 240.11 151.542C248.875 149.282 255.254 141.23 255.254 132.002C255.254 122.773 248.875 114.72 240.11 112.46Z" fill="white"/>
<path fill-rule="evenodd" clip-rule="evenodd" d="M215.939 138.401C214.115 135.173 211.851 132.169 209.157 129.474L208.165 128.482C207.007 127.323 205.124 127.323 203.965 128.482L201.983 130.466C200.824 131.625 200.824 133.506 201.983 134.666L202.975 135.657C209.111 141.795 212.491 149.954 212.491 158.633C212.491 176.375 198.196 190.84 180.515 191.119C162.573 191.401 147.508 176.577 147.508 158.633C147.508 149.954 150.888 141.795 157.026 135.657L158.018 134.666C159.177 133.506 159.177 131.625 158.018 130.466L156.032 128.482C154.873 127.323 152.992 127.323 151.832 128.482L150.841 129.474C148.148 132.169 145.884 135.173 144.061 138.401C139.904 135.533 136.881 131.155 135.755 126.139H144.576C146.216 126.139 147.545 124.812 147.545 123.17V121.767C147.545 117.403 151.084 113.865 155.45 113.865C159.073 113.865 162.121 116.307 163.051 119.634C163.407 120.902 164.58 121.765 165.896 121.765H169.551C170.867 121.765 172.04 120.902 172.396 119.634C173.328 116.307 176.374 113.865 180 113.865C183.625 113.865 186.673 116.307 187.601 119.634C187.957 120.902 189.132 121.765 190.448 121.765H194.101C195.417 121.765 196.592 120.902 196.948 119.634C197.876 116.307 200.924 113.865 204.55 113.865C208.914 113.865 212.452 117.403 212.452 121.767V123.17C212.452 124.812 213.781 126.139 215.423 126.139H224.244C223.116 131.155 220.095 135.533 215.939 138.401Z" fill="white"/>
<path fill-rule="evenodd" clip-rule="evenodd" d="M192.317 139.961C189.857 139.961 187.862 141.954 187.862 144.416C187.862 146.875 189.857 148.869 192.317 148.869C194.776 148.869 196.771 146.875 196.771 144.416C196.771 141.954 194.776 139.961 192.317 139.961Z" fill="#19194B"/>
<path fill-rule="evenodd" clip-rule="evenodd" d="M167.765 139.961C165.306 139.961 163.31 141.954 163.31 144.416C163.31 146.875 165.306 148.869 167.765 148.869C170.225 148.869 172.22 146.875 172.22 144.416C172.22 141.954 170.225 139.961 167.765 139.961Z" fill="#19194B"/>
<path fill-rule="evenodd" clip-rule="evenodd" d="M187.422 183.957C187.422 188.058 184.098 191.381 179.998 191.381C175.899 191.381 172.574 188.058 172.574 183.957H187.422Z" fill="#19194B"/>
<path fill-rule="evenodd" clip-rule="evenodd" d="M215.938 138.401C214.115 135.173 211.851 132.168 209.156 129.474L208.165 128.482C207.007 127.322 205.124 127.322 203.965 128.482L201.983 130.465C200.823 131.625 200.823 133.506 201.983 134.665L202.975 135.657C209.111 141.795 212.491 149.954 212.491 158.633C212.491 176.375 198.196 190.84 180.515 191.118C162.573 191.401 147.508 176.576 147.508 158.633C147.508 149.954 150.888 141.795 157.026 135.657L158.017 134.665C159.177 133.506 159.177 131.625 158.017 130.465L156.032 128.482C154.872 127.322 152.992 127.322 151.832 128.482L150.84 129.474C148.148 132.168 145.884 135.173 144.06 138.401C139.904 135.533 136.881 131.155 135.755 126.139H144.576C146.216 126.139 147.545 124.811 147.545 123.17V121.767C147.545 117.403 151.083 113.865 155.449 113.865C159.072 113.865 162.121 116.307 163.051 119.633C163.407 120.902 164.58 121.765 165.896 121.765H169.551C170.866 121.765 172.04 120.902 172.395 119.633C173.328 116.307 176.374 113.865 179.999 113.865C183.624 113.865 186.673 116.307 187.601 119.633C187.957 120.902 189.132 121.765 190.448 121.765H194.101C195.416 121.765 196.592 120.902 196.947 119.633C197.876 116.307 200.924 113.865 204.549 113.865C208.913 113.865 212.451 117.403 212.451 121.767V123.17C212.451 124.811 213.781 126.139 215.423 126.139H224.243C223.115 131.155 220.095 135.533 215.938 138.401ZM230.504 117.393H220.614C218.69 110.329 212.216 105.119 204.549 105.119C199.695 105.119 195.318 107.207 192.273 110.532C189.229 107.207 184.853 105.119 179.999 105.119C175.145 105.119 170.77 107.207 167.723 110.532C164.679 107.207 160.301 105.119 155.447 105.119C147.78 105.119 141.308 110.329 139.382 117.393H129.495C127.855 117.393 126.525 118.725 126.525 120.364V121.767C126.525 132.107 132.128 141.396 140.573 146.517C139.313 150.638 138.687 154.978 138.77 159.423C139.187 181.865 157.804 200.002 180.254 199.869C202.874 199.73 221.237 181.286 221.237 158.633C221.237 154.458 220.616 150.381 219.429 146.503C219.429 146.505 219.431 146.509 219.433 146.511C227.873 141.39 233.473 132.105 233.473 121.767V120.364C233.473 118.725 232.144 117.393 230.504 117.393Z" fill="#19194B"/>
<path fill-rule="evenodd" clip-rule="evenodd" d="M179.687 72C180.762 72 181.633 72.8713 181.633 73.9461V79.7843C181.633 80.8591 180.762 81.7304 179.687 81.7304C178.612 81.7304 177.741 80.8591 177.741 79.7843V73.9461C177.741 72.8713 178.612 72 179.687 72Z" fill="#44307A"/>
<path d="M139 125.484V116.358C139 105.519 143.306 95.1242 150.97 87.4601C158.634 79.7959 169.029 75.4902 179.868 75.4902C190.706 75.4902 201.101 79.7959 208.765 87.4601C216.429 95.1242 220.735 105.519 220.735 116.358V125.484" fill="url(#sheep_cabify-paint0_linear_37241_277108)"/>
<g clip-path="url(#sheep_cabify-clip0_37241_277108)">
<path fill-rule="evenodd" clip-rule="evenodd" d="M175.75 99.4998V92.1348H177.625V95.956C178.311 95.4873 179.14 95.2135 180.036 95.2135C182.402 95.2135 184.322 97.1335 184.322 99.4998C184.322 101.866 182.402 103.786 180.036 103.786C177.67 103.786 175.75 101.866 175.75 99.4998ZM180.036 101.911C178.705 101.911 177.625 100.831 177.625 99.4998C177.625 98.1685 178.705 97.0885 180.036 97.0885C181.367 97.0885 182.447 98.1685 182.447 99.4998C182.447 100.831 181.367 101.911 180.036 101.911Z" fill="white"/>
<path fill-rule="evenodd" clip-rule="evenodd" d="M172.937 103.045V103.652H174.812V99.5011C174.812 97.1348 172.892 95.2148 170.526 95.2148C168.16 95.2148 166.24 97.1348 166.24 99.5011C166.24 101.867 168.16 103.787 170.526 103.787C171.419 103.787 172.251 103.514 172.937 103.045ZM168.115 99.5011C168.115 98.1698 169.195 97.0898 170.526 97.0898C171.857 97.0898 172.937 98.1698 172.937 99.5011C172.937 100.832 171.857 101.912 170.526 101.912C169.195 101.912 168.115 100.832 168.115 99.5011Z" fill="white"/>
<path d="M161.286 97.0898C159.955 97.0898 158.875 98.1698 158.875 99.5011C158.875 100.832 159.955 101.912 161.286 101.912C162.284 101.912 163.142 101.305 163.506 100.439H165.467C165.04 102.355 163.33 103.787 161.286 103.787C158.92 103.787 157 101.867 157 99.5011C157 97.1348 158.92 95.2148 161.286 95.2148C163.33 95.2148 165.04 96.6473 165.467 98.5636H163.506C163.142 97.6973 162.284 97.0898 161.286 97.0898Z" fill="white"/>
<path d="M185.391 95.3496V103.652H187.266V95.3496H185.391Z" fill="white"/>
<path d="M194.065 92.2775C193.668 92.0975 193.225 92 192.76 92C190.986 92 189.546 93.44 189.546 95.2138V95.3488H188.343V97.2238H189.546V103.651H191.421V97.2238H193.833L196.473 103.156L195.951 104.33C195.651 105.005 194.86 105.309 194.181 105.009L193.42 106.723C195.04 107.446 196.941 106.715 197.665 105.095L202 95.3488H199.949L197.496 100.85L195.543 96.4625C195.231 95.765 194.549 95.3488 193.829 95.3488H191.418V95.2138C191.418 94.475 192.018 93.875 192.756 93.875C192.951 93.875 193.135 93.9163 193.3 93.9913L194.065 92.2775Z" fill="white"/>
<path d="M187.401 93.0725C187.401 93.665 186.921 94.145 186.329 94.145C185.736 94.145 185.256 93.665 185.256 93.0725C185.256 92.48 185.736 92 186.329 92C186.921 92 187.401 92.48 187.401 93.0725Z" fill="white"/>
</g>
<path d="M224.264 137.927L220.554 125.473C207.881 119.075 193.883 115.742 179.687 115.742C165.491 115.742 151.492 119.075 138.819 125.473L135.11 137.927C134.883 138.641 134.867 139.404 135.063 140.126C135.259 140.848 135.659 141.498 136.215 141.999C136.771 142.5 137.46 142.829 138.199 142.949C138.937 143.068 139.695 142.972 140.38 142.672C152.835 137.521 166.215 134.983 179.691 135.215C193.167 134.983 206.547 137.521 219.002 142.672C219.687 142.973 220.445 143.07 221.184 142.951C221.924 142.832 222.613 142.503 223.17 142.002C223.727 141.501 224.127 140.85 224.323 140.128C224.519 139.405 224.503 138.641 224.275 137.927H224.264Z" fill="url(#sheep_cabify-paint1_linear_37241_277108)"/>
<g filter="url(#sheep_cabify-filter0_d_37241_277108)">
<path d="M288.261 190.223L287.943 190.308L287.928 178.015C287.924 174.695 285.693 171.79 282.486 170.931L247.058 161.438C243.944 160.604 240.651 161.898 238.937 164.628L232.358 175.115C230.432 173.377 227.459 173.436 225.603 175.292C223.687 177.209 223.687 180.317 225.603 182.233L226.346 182.976C224.805 183.925 223.609 185.442 223.103 187.328L220.253 197.967C219.367 201.272 220.884 204.655 223.732 206.262L222.722 210.03C221.673 213.947 223.997 217.974 227.914 219.023C231.831 220.073 235.858 217.748 236.907 213.831L237.857 210.286L266.228 217.888L265.278 221.433C264.228 225.35 266.553 229.376 270.47 230.426C274.387 231.476 278.413 229.151 279.463 225.234L280.473 221.465C283.743 221.498 286.747 219.326 287.633 216.022L290.483 205.383C290.992 203.485 290.708 201.562 289.836 199.964L290.801 199.705C293.42 199.003 294.974 196.312 294.272 193.694C293.571 191.075 290.879 189.521 288.261 190.223Z" fill="white"/>
<path d="M237.095 163.473L231.644 172.161C229.106 171.174 226.115 171.705 224.066 173.754C221.618 176.202 221.336 179.995 223.22 182.752C222.196 183.853 221.419 185.213 221.003 186.765L218.152 197.404C217.162 201.1 218.488 204.866 221.237 207.169L220.621 209.467C219.261 214.545 222.274 219.763 227.351 221.124C232.429 222.484 237.648 219.471 239.008 214.394L239.395 212.95L263.564 219.426L263.177 220.87C261.817 225.947 264.83 231.166 269.907 232.527C274.984 233.887 280.203 230.874 281.564 225.797L282.179 223.498C285.712 222.878 288.743 220.28 289.733 216.584L292.584 205.945C293.004 204.379 293.006 202.797 292.661 201.32C295.636 199.858 297.263 196.454 296.373 193.131C295.578 190.163 293.011 188.143 290.115 187.903L290.103 178.012C290.098 173.709 287.206 169.944 283.049 168.83L247.621 159.337C243.585 158.256 239.316 159.933 237.095 163.473Z" stroke="white" stroke-width="4.34951"/>
</g>
<g clip-path="url(#sheep_cabify-clip1_37241_277108)">
<path d="M225.503 175.268C227.42 173.351 230.527 173.351 232.444 175.268L234.758 177.581C236.675 179.498 236.675 182.606 234.758 184.523V184.523C232.841 186.439 229.733 186.439 227.816 184.523L225.503 182.209C223.586 180.292 223.586 177.184 225.503 175.268V175.268Z" fill="#494993"/>
<path d="M281.529 197.055C280.827 194.437 282.381 191.746 285 191.044L288.16 190.197C290.779 189.496 293.47 191.049 294.172 193.668V193.668C294.873 196.286 293.319 198.978 290.701 199.679L287.54 200.526C284.922 201.228 282.23 199.674 281.529 197.055V197.055Z" fill="#494993"/>
<path d="M225.947 197.593C226.997 193.675 231.023 191.351 234.94 192.4V192.4C238.857 193.45 241.182 197.476 240.132 201.394L236.807 213.806C235.757 217.723 231.731 220.047 227.814 218.998V218.998C223.896 217.948 221.572 213.922 222.621 210.005L225.947 197.593Z" fill="#344563"/>
<path d="M268.503 208.995C269.552 205.078 273.579 202.753 277.496 203.803V203.803C281.413 204.852 283.738 208.879 282.688 212.796L279.362 225.208C278.313 229.125 274.286 231.45 270.369 230.4V230.4C266.452 229.351 264.127 225.324 265.177 221.407L268.503 208.995Z" fill="#344563"/>
<path d="M287.845 192.285L287.828 177.989C287.824 174.668 285.593 171.764 282.386 170.905L246.958 161.412C243.844 160.577 240.55 161.871 238.837 164.602L231.092 176.948C229.779 179.04 230.866 181.806 233.252 182.445L283.224 195.835C285.557 196.461 287.848 194.7 287.845 192.285Z" fill="#494993"/>
<path d="M284.188 193.615L283.387 176.296C283.35 175.497 282.8 174.814 282.028 174.608L245.557 164.835C244.811 164.635 244.02 164.923 243.578 165.556L233.499 179.959C232.768 181.003 233.297 182.455 234.528 182.785L281.879 195.473C283.079 195.794 284.246 194.856 284.188 193.615Z" fill="#CFF6FF"/>
<path opacity="0.5" d="M244.646 168.742C245.082 168.083 245.89 167.776 246.654 167.98L247.382 168.175C248.798 168.555 249.22 170.36 248.119 171.328L241.135 177.464C240.896 177.675 240.566 177.752 240.258 177.669C239.629 177.501 239.349 176.765 239.708 176.221L244.646 168.742Z" fill="white"/>
<path fill-rule="evenodd" clip-rule="evenodd" d="M269.881 193.208C272.33 193.864 274.846 192.411 275.502 189.963C276.158 187.515 274.705 184.998 272.257 184.342C269.809 183.686 267.292 185.139 266.636 187.587C265.98 190.036 267.433 192.552 269.881 193.208ZM269.406 194.981C272.834 195.9 276.357 193.866 277.275 190.438C278.194 187.011 276.16 183.488 272.732 182.569C269.305 181.651 265.782 183.685 264.863 187.112C263.945 190.54 265.979 194.063 269.406 194.981Z" fill="#ADADED"/>
<path d="M252.731 184.811L239.802 181.347C236.864 180.56 233.844 182.303 233.057 185.241C232.794 186.22 233.376 187.227 234.355 187.489L276.024 198.655C278.472 199.311 280.989 197.858 281.645 195.409C282.301 192.961 280.848 190.445 278.4 189.789L259.264 184.661C258.438 184.44 257.572 184.414 256.735 184.586L255.261 184.887C254.423 185.059 253.557 185.033 252.731 184.811Z" fill="#D5D5F6"/>
<path d="M287.532 215.995L290.383 205.356C291.433 201.439 289.108 197.413 285.191 196.363L231.996 182.109C228.079 181.06 224.052 183.384 223.003 187.302L220.152 197.941C219.103 201.858 221.427 205.884 225.344 206.934L278.539 221.187C282.456 222.237 286.483 219.912 287.532 215.995Z" fill="url(#sheep_cabify-paint2_linear_37241_277108)"/>
<path d="M272.676 204.095C271.857 204.813 271.27 205.758 270.988 206.81C270.61 208.221 270.808 209.724 271.538 210.989C272.268 212.254 273.471 213.177 274.882 213.555C275.934 213.836 277.046 213.8 278.078 213.45C279.109 213.1 280.013 212.452 280.677 211.588C281.34 210.723 281.732 209.682 281.803 208.595C281.874 207.508 281.621 206.425 281.077 205.481C280.532 204.538 279.72 203.778 278.743 203.296C277.766 202.814 276.669 202.633 275.589 202.775C274.509 202.917 273.495 203.376 272.676 204.095Z" fill="#FDE293"/>
<path d="M230.121 192.692C229.302 193.41 228.714 194.355 228.432 195.407C228.054 196.818 228.252 198.321 228.982 199.586C229.713 200.851 230.916 201.774 232.326 202.152C233.379 202.434 234.491 202.398 235.522 202.048C236.553 201.697 237.458 201.049 238.121 200.185C238.784 199.321 239.176 198.28 239.247 197.193C239.318 196.106 239.066 195.022 238.521 194.079C237.976 193.136 237.164 192.375 236.188 191.894C235.211 191.412 234.113 191.231 233.033 191.373C231.953 191.515 230.94 191.974 230.121 192.692Z" fill="#FDE293"/>
<path d="M245.341 196.134C245.603 195.155 246.61 194.574 247.589 194.836L265.321 199.588C266.3 199.85 266.881 200.857 266.619 201.836V201.836C266.356 202.815 265.35 203.396 264.37 203.134L246.639 198.383C245.66 198.12 245.078 197.114 245.341 196.134V196.134Z" fill="#19194B"/>
<path d="M243.44 203.23C243.703 202.251 244.709 201.67 245.689 201.932L263.42 206.683C264.4 206.946 264.981 207.952 264.718 208.932V208.932C264.456 209.911 263.449 210.492 262.47 210.23L244.738 205.478C243.759 205.216 243.178 204.209 243.44 203.23V203.23Z" fill="#19194B"/>
<path d="M230.12 192.69C229.302 193.408 228.714 194.353 228.432 195.405C228.054 196.816 228.252 198.319 228.982 199.584C229.713 200.849 230.915 201.772 232.326 202.15C233.378 202.432 234.49 202.396 235.522 202.046C236.553 201.696 237.458 201.047 238.121 200.183C238.784 199.319 239.176 198.278 239.247 197.191C239.318 196.104 239.065 195.02 238.521 194.077C237.976 193.134 237.164 192.373 236.187 191.892C235.21 191.41 234.113 191.229 233.033 191.371C231.953 191.513 230.939 191.972 230.12 192.69Z" fill="#FDE293"/>
<path d="M238.521 194.076L228.982 199.583C229.713 200.848 230.915 201.771 232.326 202.149C233.378 202.431 234.49 202.395 235.522 202.045C236.553 201.695 237.458 201.047 238.121 200.182C238.784 199.318 239.176 198.277 239.247 197.19C239.318 196.103 239.066 195.02 238.521 194.076Z" fill="#FBD677"/>
<path d="M272.676 204.097C271.857 204.815 271.27 205.76 270.988 206.812C270.61 208.222 270.808 209.726 271.538 210.991C272.268 212.255 273.471 213.178 274.882 213.556C275.934 213.838 277.046 213.802 278.078 213.452C279.109 213.102 280.013 212.454 280.677 211.59C281.34 210.725 281.732 209.684 281.803 208.597C281.874 207.51 281.621 206.427 281.077 205.483C280.532 204.54 279.72 203.78 278.743 203.298C277.766 202.816 276.669 202.635 275.589 202.777C274.509 202.919 273.495 203.378 272.676 204.097Z" fill="#FDE293"/>
<path d="M281.077 205.483L271.538 210.99C272.268 212.255 273.471 213.178 274.882 213.556C275.934 213.837 277.046 213.801 278.078 213.451C279.109 213.101 280.014 212.453 280.677 211.589C281.34 210.725 281.732 209.683 281.803 208.596C281.874 207.509 281.621 206.426 281.077 205.483Z" fill="#FBD677"/>
</g>
<defs>
<filter id="sheep_cabify-filter0_d_37241_277108" x="200.498" y="146.737" width="113.444" height="108.495" filterUnits="userSpaceOnUse" color-interpolation-filters="sRGB">
<feFlood flood-opacity="0" result="BackgroundImageFix"/>
<feColorMatrix in="SourceAlpha" type="matrix" values="0 0 0 0 0 0 0 0 0 0 0 0 0 0 0 0 0 0 127 0" result="hardAlpha"/>
<feOffset dy="5.05052"/>
<feGaussianBlur stdDeviation="7.57579"/>
<feColorMatrix type="matrix" values="0 0 0 0 0 0 0 0 0 0 0 0 0 0 0 0 0 0 0.32 0"/>
<feBlend mode="normal" in2="BackgroundImageFix" result="effect1_dropShadow_37241_277108"/>
<feBlend mode="normal" in="SourceGraphic" in2="effect1_dropShadow_37241_277108" result="shape"/>
</filter>
<linearGradient id="sheep_cabify-paint0_linear_37241_277108" x1="180.177" y1="90.5" x2="180.177" y2="137" gradientUnits="userSpaceOnUse">
<stop stop-color="#7145D6"/>
<stop offset="1" stop-color="#44307A"/>
</linearGradient>
<linearGradient id="sheep_cabify-paint1_linear_37241_277108" x1="180" y1="143" x2="180.537" y2="119.217" gradientUnits="userSpaceOnUse">
<stop stop-color="#7145D6"/>
<stop offset="1" stop-color="#44307A"/>
</linearGradient>
<linearGradient id="sheep_cabify-paint2_linear_37241_277108" x1="258.593" y1="189.236" x2="251.704" y2="214.947" gradientUnits="userSpaceOnUse">
<stop stop-color="#494993"/>
<stop offset="1" stop-color="#7878C9"/>
</linearGradient>
<clipPath id="sheep_cabify-clip0_37241_277108">
<rect width="45" height="15" fill="white" transform="translate(157 92)"/>
</clipPath>
<clipPath id="sheep_cabify-clip1_37241_277108">
<rect width="76" height="76" fill="white" transform="translate(230 149) rotate(15)"/>
</clipPath>
</defs>
</svg>
