<svg class="icon" viewBox="0 0 200 201" fill="none" xmlns="http://www.w3.org/2000/svg">
<path fill-rule="evenodd" clip-rule="evenodd" d="M111.53 21.5465H98.1032L112.904 6.74521C115.395 4.25672 113.63 0 110.109 0H87.4938C86.0393 0 84.8599 1.1794 84.8599 2.63394V5.12418C84.8599 6.57872 86.0393 7.75813 87.4938 7.75813H100.921L86.1199 22.5576C83.6314 25.0479 85.3944 29.3046 88.915 29.3046H111.53C112.985 29.3046 114.164 28.1252 114.164 26.6689V24.1804C114.164 22.7259 112.985 21.5465 111.53 21.5465Z" fill="#19194B"/>
<path fill-rule="evenodd" clip-rule="evenodd" d="M79.2093 53.8831H65.782L80.5833 39.0836C83.0735 36.5934 81.3105 32.3367 77.7881 32.3367H55.1726C53.7181 32.3367 52.5387 33.5161 52.5387 34.9706V37.4609C52.5387 38.9154 53.7181 40.0948 55.1726 40.0948H68.6L53.8005 54.8943C51.3102 57.3845 53.0732 61.6412 56.5939 61.6412H79.2093C80.6639 61.6412 81.845 60.4618 81.845 59.0073V56.5171C81.845 55.0625 80.6639 53.8831 79.2093 53.8831Z" fill="#19194B"/>
<path fill-rule="evenodd" clip-rule="evenodd" d="M152.836 157.148C151.634 157.458 150.649 158.313 150.173 159.459L149.228 161.741C148.753 162.887 148.846 164.191 149.477 165.258C153.558 172.177 152.507 181.228 146.719 187.017C140.476 193.257 130.445 193.991 123.379 188.725L121.061 187.954H77.9662L75.646 188.725C68.5854 193.991 58.5508 193.257 52.312 187.017C46.5219 181.228 45.4704 172.177 49.5537 165.26C50.1846 164.191 50.2774 162.887 49.8025 161.743L48.8562 159.459C48.383 158.313 47.3946 157.458 46.1925 157.148C38.4151 155.143 32.7564 148 32.7564 139.812C32.7564 131.627 38.4151 124.484 46.1925 122.479C47.3946 122.169 48.383 121.315 48.8562 120.167L49.8025 117.886C50.2774 116.74 50.1846 115.438 49.5519 114.369C45.4704 107.452 46.5219 98.4002 52.312 92.6101C55.7609 89.1595 60.3716 87.3913 64.9981 87.3913C68.1174 87.3913 71.2456 88.1957 74.0285 89.8307C75.1133 90.4651 76.4241 90.5807 77.5877 90.0988L79.8659 89.156C81.0138 88.6811 81.869 87.6944 82.1792 86.494C84.184 78.7149 91.327 73.0579 99.5145 73.0579C107.7 73.0579 114.845 78.7149 116.85 86.494C117.16 87.6944 118.015 88.6811 119.161 89.1542L121.443 90.1006C122.587 90.5755 123.891 90.4826 124.96 89.8517C131.875 85.7703 140.927 86.82 146.719 92.6101C152.507 98.4002 153.558 107.452 149.477 114.37C148.846 115.438 148.753 116.74 149.228 117.888L150.173 120.167C150.649 121.315 151.634 122.169 152.836 122.479C160.612 124.484 166.271 131.627 166.271 139.812C166.271 148 160.612 155.143 152.836 157.148ZM157.445 115.818C161.711 106.299 159.82 94.7428 152.204 87.1249C144.588 79.507 133.03 77.6143 123.509 81.8851C119.796 72.1344 110.287 65.2998 99.5145 65.2998C88.7439 65.2998 79.2315 72.1344 75.5198 81.8833C65.9987 77.6143 54.443 79.507 46.8251 87.1249C39.2089 94.7428 37.318 106.3 41.5852 115.818C31.8346 119.531 25 129.042 25 139.812C25 150.585 31.8346 160.097 41.5852 163.809C37.3145 173.326 39.2072 184.886 46.8251 192.502C51.7705 197.447 58.3773 199.98 65.0086 199.98C69.9488 199.98 74.9047 198.574 79.1965 195.712H119.832C129.883 202.414 143.573 201.133 152.204 192.502C159.82 184.887 161.711 173.328 157.445 163.809C167.193 160.097 174.029 150.585 174.029 139.812C174.029 129.042 167.194 119.531 157.445 115.818Z" fill="#19194B"/>
<path fill-rule="evenodd" clip-rule="evenodd" d="M152.836 122.479C151.634 122.17 150.649 121.315 150.173 120.169L149.228 117.885C148.753 116.741 148.846 115.437 149.477 114.368C153.558 107.451 152.507 98.3999 146.719 92.6098C140.927 86.8197 131.875 85.7699 124.96 89.8514C123.891 90.4823 122.589 90.5752 121.443 90.0985L119.161 89.1539C118.015 88.6808 117.16 87.6941 116.85 86.4937C114.845 78.7145 107.7 73.0576 99.5144 73.0576C91.327 73.0576 84.1839 78.7145 82.1791 86.4937C81.8689 87.6941 81.0137 88.6808 79.8659 89.1557L77.5877 90.0985C76.4241 90.5804 75.1132 90.4648 74.0302 89.8304C71.2455 88.1971 68.1174 87.3927 64.998 87.3927C60.3716 87.3927 55.7608 89.1592 52.312 92.6098C46.5219 98.3999 45.4704 107.451 49.5536 114.368C50.1845 115.436 50.2774 116.739 49.8025 117.885L48.8562 120.169C48.383 121.315 47.3946 122.17 46.1924 122.479C38.415 124.485 32.7563 131.628 32.7563 139.814C32.7563 148 38.415 155.144 46.1924 157.147C47.3946 157.458 48.383 158.313 48.8562 159.461L49.8025 161.742C50.2774 162.889 50.1845 164.191 49.5536 165.26C45.4704 172.177 46.5219 181.228 52.312 187.016C58.5508 193.259 68.5853 193.993 75.646 188.725L77.9662 187.954H121.061L123.379 188.725C130.445 193.993 140.476 193.259 146.719 187.016C152.507 181.228 153.558 172.177 149.477 165.258C148.846 164.191 148.753 162.889 149.228 161.741L150.173 159.461C150.649 158.313 151.634 157.458 152.836 157.147C160.612 155.144 166.271 148 166.271 139.814C166.271 131.628 160.614 124.485 152.836 122.479Z" fill="white"/>
<path fill-rule="evenodd" clip-rule="evenodd" d="M152.836 122.479C151.634 122.17 150.649 121.315 150.173 120.169L149.228 117.885C148.753 116.741 148.846 115.437 149.477 114.368C153.558 107.451 152.507 98.3999 146.719 92.6098C140.927 86.8197 131.875 85.7699 124.96 89.8514C123.891 90.4823 122.589 90.5752 121.443 90.0985L119.161 89.1539C118.015 88.6808 117.16 87.6941 116.85 86.4937C114.845 78.7145 107.7 73.0576 99.5144 73.0576C91.327 73.0576 84.1839 78.7145 82.1791 86.4937C81.8689 87.6941 81.0137 88.6808 79.8659 89.1557L77.5877 90.0985C76.4241 90.5804 75.1132 90.4648 74.0302 89.8304C71.2455 88.1971 68.1174 87.3927 64.998 87.3927C60.3716 87.3927 55.7608 89.1592 52.312 92.6098C46.5219 98.3999 45.4704 107.451 49.5536 114.368C50.1845 115.436 50.2774 116.739 49.8025 117.885L48.8562 120.169C48.383 121.315 47.3946 122.17 46.1924 122.479C38.415 124.485 32.7563 131.628 32.7563 139.814C32.7563 148 38.415 155.144 46.1924 157.147C47.3946 157.458 48.383 158.313 48.8562 159.461L49.8025 161.742C50.2774 162.889 50.1845 164.191 49.5536 165.26C45.4704 172.177 46.5219 181.228 52.312 187.016C58.5508 193.259 68.5853 193.993 75.646 188.725L77.9662 187.954H121.061L123.379 188.725C130.445 193.993 140.476 193.259 146.719 187.016C152.507 181.228 153.558 172.177 149.477 165.258C148.846 164.191 148.753 162.889 149.228 161.741L150.173 159.461C150.649 158.313 151.634 157.458 152.836 157.147C160.612 155.144 166.271 148 166.271 139.814C166.271 131.628 160.614 124.485 152.836 122.479Z" fill="white"/>
<path fill-rule="evenodd" clip-rule="evenodd" d="M134.745 173.291C135.627 170.121 136.093 166.818 136.093 163.439V162.193C136.093 160.739 134.913 159.559 133.459 159.559H130.97C129.516 159.559 128.335 160.739 128.335 162.193V163.437C128.335 171.138 125.336 178.373 119.893 183.818C108.765 194.946 90.7216 195.055 79.4586 184.139C68.0291 173.062 67.8766 154.314 79.1326 143.058C84.5758 137.615 91.8134 134.616 99.5137 134.616H100.756C102.213 134.616 103.39 133.437 103.39 131.982V129.492C103.39 128.038 102.213 126.858 100.756 126.858H99.512C96.1332 126.858 92.8281 127.324 89.6579 128.204C88.8518 123.798 89.7017 119.156 92.1411 115.304L97.6736 120.837C98.7041 121.866 100.371 121.866 101.399 120.837L102.281 119.957C105.016 117.22 109.455 117.22 112.194 119.957C114.467 122.23 114.848 125.674 113.344 128.346C112.771 129.364 112.966 130.64 113.793 131.467L116.085 133.758C116.909 134.583 118.188 134.778 119.204 134.206C121.875 132.704 125.32 133.083 127.593 135.358C129.868 137.629 130.247 141.074 128.743 143.747C128.172 144.763 128.366 146.041 129.192 146.866L131.484 149.158C132.309 149.984 133.587 150.18 134.605 149.607C137.276 148.103 140.719 148.484 142.994 150.757C145.731 153.494 145.731 157.933 142.994 160.67L142.112 161.552C141.084 162.58 141.084 164.249 142.112 165.277L147.645 170.81C143.793 173.249 139.153 174.099 134.745 173.291Z" fill="white"/>
<path fill-rule="evenodd" clip-rule="evenodd" d="M134.745 173.291C135.627 170.121 136.093 166.818 136.093 163.439V162.193C136.093 160.739 134.914 159.559 133.459 159.559H130.971C129.516 159.559 128.335 160.739 128.335 162.193V163.437C128.335 171.138 125.336 178.373 119.893 183.818C108.765 194.946 90.7219 195.055 79.4589 184.139C68.0294 173.062 67.8769 154.314 79.133 143.058C84.5761 137.615 91.8137 134.616 99.514 134.616H100.757C102.213 134.616 103.39 133.437 103.39 131.982V129.492C103.39 128.038 102.213 126.858 100.757 126.858H99.5123C96.1335 126.858 92.8284 127.324 89.6582 128.204C88.8521 123.798 89.702 119.156 92.1414 115.304L97.6739 120.837C98.7044 121.866 100.371 121.866 101.4 120.837L102.281 119.957C105.017 117.22 109.456 117.22 112.195 119.957C114.468 122.23 114.848 125.674 113.344 128.346C112.771 129.364 112.966 130.64 113.793 131.467L116.085 133.758C116.909 134.583 118.188 134.778 119.205 134.206C121.875 132.704 125.321 133.083 127.594 135.358C129.868 137.629 130.247 141.074 128.743 143.747C128.172 144.763 128.366 146.041 129.192 146.866L131.484 149.158C132.309 149.984 133.587 150.18 134.605 149.607C137.276 148.103 140.72 148.484 142.994 150.757C145.732 153.494 145.732 157.933 142.994 160.67L142.113 161.552C141.084 162.58 141.084 164.249 142.113 165.277L147.645 170.81C143.793 173.249 139.153 174.099 134.745 173.291ZM157.059 169.25L150.856 163.046C154.08 157.409 153.288 150.08 148.479 145.271C145.435 142.226 141.378 140.792 137.385 140.967C137.558 136.97 136.125 132.917 133.081 129.872C130.035 126.825 125.98 125.391 121.984 125.567C122.159 121.571 120.724 117.516 117.68 114.472C112.871 109.661 105.542 108.869 99.9031 112.094L93.7011 105.892C92.6707 104.863 91.0041 104.863 89.9754 105.892L89.0939 106.772C82.6081 113.257 80.2983 122.598 82.382 131.108C79.0068 132.902 75.8927 135.233 73.1553 138.072C59.3407 152.413 59.6421 175.466 73.8072 189.463C88.0827 203.565 111.17 203.512 125.379 189.304C127.995 186.687 130.166 183.741 131.856 180.561C131.854 180.564 131.852 180.566 131.85 180.569C140.357 182.653 149.694 180.34 156.178 173.856L157.058 172.974C158.088 171.945 158.088 170.279 157.059 169.25Z" fill="#19194B"/>
<path fill-rule="evenodd" clip-rule="evenodd" d="M121.807 164.245L114.107 156.545C113.099 155.537 111.464 155.535 110.455 156.545C109.447 157.554 109.447 159.189 110.455 160.197L118.155 167.897C119.164 168.905 120.799 168.905 121.807 167.897C122.817 166.889 122.815 165.253 121.807 164.245Z" fill="#19194B"/>
<path fill-rule="evenodd" clip-rule="evenodd" d="M102.753 152.495C103.762 153.502 105.397 153.502 106.405 152.495C107.414 151.487 107.413 149.85 106.405 148.843L98.7046 141.142C97.6969 140.135 96.0618 140.133 95.0524 141.142C94.043 142.152 94.0448 143.787 95.0524 144.794L102.753 152.495Z" fill="#19194B"/>
<path fill-rule="evenodd" clip-rule="evenodd" d="M99.5149 180.332C95.1495 180.332 91.6113 183.87 91.6113 188.234C91.6113 192.599 95.1495 196.137 99.5149 196.137C103.879 196.137 107.417 192.599 107.417 188.234C107.417 183.87 103.879 180.332 99.5149 180.332Z" fill="#19194B"/>
</svg>
