<svg class="icon" viewBox="0 0 48 48" fill="none" xmlns="http://www.w3.org/2000/svg">
<rect width="48" height="48" rx="14" fill="url(#shield-paint0_linear)"/>
<path fill-rule="evenodd" clip-rule="evenodd" d="M24.0391 12.001C27.3148 11.971 30.5624 12.6075 33.5844 13.8719C34.0263 14.0624 34.4029 14.3778 34.6683 14.7792C34.9336 15.1806 35.076 15.6507 35.0781 16.1319V23.4353C35.0404 26.0505 34.205 28.5919 32.6837 30.7194C31.1624 32.847 29.0277 34.4593 26.5652 35.3407L25.4947 35.7409C24.5554 36.0864 23.5238 36.0864 22.5844 35.7409L21.5119 35.3407C19.0497 34.4589 16.9154 32.8465 15.3944 30.719C13.8733 28.5915 13.0379 26.0503 13 23.4353V16.1319C13.0022 15.6509 13.1445 15.1809 13.4096 14.7795C13.6747 14.3781 14.0511 14.0627 14.4927 13.8719C17.5152 12.6079 20.7631 11.9714 24.0391 12.001ZM18.7216 24.0287C18.5922 23.8993 18.5195 23.7238 18.5195 23.5408C18.5195 23.3579 18.5922 23.1824 18.7216 23.053C18.851 22.9236 19.0265 22.8509 19.2095 22.8509H23.2341C23.2646 22.8509 23.2939 22.8388 23.3154 22.8172C23.337 22.7957 23.3491 22.7664 23.3491 22.7359V18.7112C23.3491 18.5283 23.4218 18.3528 23.5512 18.2234C23.6806 18.094 23.8561 18.0213 24.0391 18.0213C24.222 18.0213 24.3975 18.094 24.5269 18.2234C24.6563 18.3528 24.729 18.5283 24.729 18.7112V22.7359C24.729 22.7664 24.7411 22.7957 24.7627 22.8172C24.7843 22.8388 24.8135 22.8509 24.844 22.8509H28.8687C29.0516 22.8509 29.2271 22.9236 29.3565 23.053C29.4859 23.1824 29.5586 23.3579 29.5586 23.5408C29.5586 23.7238 29.4859 23.8993 29.3565 24.0287C29.2271 24.1581 29.0516 24.2308 28.8687 24.2308H24.844C24.8135 24.2308 24.7843 24.2429 24.7627 24.2645C24.7411 24.286 24.729 24.3153 24.729 24.3458V28.3704C24.729 28.5534 24.6563 28.7289 24.5269 28.8583C24.3975 28.9877 24.222 29.0604 24.0391 29.0604C23.8561 29.0604 23.6806 28.9877 23.5512 28.8583C23.4218 28.7289 23.3491 28.5534 23.3491 28.3704V24.3458C23.3491 24.3153 23.337 24.286 23.3154 24.2645C23.2939 24.2429 23.2646 24.2308 23.2341 24.2308H19.2095C19.0265 24.2308 18.851 24.1581 18.7216 24.0287Z" fill="white"/>
<defs>
<linearGradient id="shield-paint0_linear" x1="24" y1="0" x2="24" y2="48" gradientUnits="userSpaceOnUse">
<stop stop-color="#FAC34B"/>
<stop offset="1" stop-color="#D79F36"/>
</linearGradient>
</defs>
</svg>
