<svg class="icon" viewBox="0 0 48 48" fill="none" xmlns="http://www.w3.org/2000/svg">
  <path
    d="M8.66 15.6266C8.8527 13.5712 10.578 12 12.6425 12H35.3575C37.422 12 39.1473 13.5712 39.34 15.6266L41.59 39.6266C41.81 41.973 39.9641 44 37.6075 44H10.3925C8.03593 44 6.19003 41.973 6.41 39.6266L8.66 15.6266Z"
    fill="url(#paint0_linear)" />
  <g opacity="0.5" filter="url(#filter0_i)">
    <path
      d="M22.7158 22.4C23.113 22.1353 23.5522 22 24 22C24.4851 22 24.931 22.1322 25.2951 22.4077C25.5798 22.6194 25.8119 22.8927 25.9625 23.2269C26.207 23.1323 26.4559 23.0791 26.7097 23.0791C26.8317 23.0791 26.9537 23.0964 27.0616 23.1169L27.0648 23.1175C27.5023 23.2071 27.9496 23.4282 28.2607 23.7393C28.6215 24.1001 28.7988 24.501 28.883 24.9379L28.8853 24.95L28.8864 24.9623C28.9197 25.3413 28.9002 25.7098 28.7665 26.06C29.073 26.2236 29.3761 26.4481 29.5933 26.7447C29.866 27.1106 30 27.5548 30 28C30 28.4115 29.8588 28.8446 29.6493 29.2278L29.6444 29.2367L29.6388 29.2452C29.421 29.574 29.1157 29.8136 28.7723 29.9642C28.9079 30.321 28.9553 30.6868 28.883 31.0621L28.8825 31.0648C28.7929 31.5023 28.5718 31.9496 28.2607 32.2607C27.8999 32.6215 27.499 32.7988 27.0621 32.883L27.0514 32.8851L27.0406 32.8861C26.9368 32.8965 26.8329 32.9017 26.7289 32.9017C26.4635 32.9017 26.203 32.8666 25.9549 32.7737C25.8081 33.0837 25.5837 33.3812 25.2927 33.594L25.2885 33.5971L25.2842 33.6C24.887 33.8647 24.4478 34 24 34C23.5167 34 23.0729 33.8614 22.7073 33.594L22.7059 33.593C22.4207 33.3813 22.1883 33.1076 22.0375 32.7731C21.793 32.8677 21.5441 32.9209 21.2903 32.9209C21.1683 32.9209 21.0463 32.9036 20.9384 32.8831L20.9352 32.8825C20.4977 32.7929 20.0504 32.5718 19.7393 32.2607C19.3936 31.915 19.1585 31.5489 19.1136 31.0377C19.0808 30.6644 19.0992 30.3012 19.2276 29.9556C18.9171 29.8088 18.6191 29.5842 18.406 29.2927L18.4029 29.2885L18.4 29.2842C18.1353 28.887 18 28.4478 18 28C18 27.5167 18.1386 27.0729 18.406 26.7073L18.407 26.7059C18.619 26.4203 18.893 26.1877 19.2282 26.0369C19.0922 25.6798 19.0446 25.3136 19.117 24.9379L19.1175 24.9352C19.2071 24.4977 19.4282 24.0504 19.7393 23.7393C20.1001 23.3785 20.501 23.2012 20.9379 23.117L20.9486 23.1149L20.9594 23.1139C21.0632 23.1035 21.1671 23.0983 21.2711 23.0983C21.5365 23.0983 21.797 23.1334 22.0451 23.2263C22.1919 22.9163 22.4163 22.6188 22.7073 22.406L22.7115 22.4029L22.7158 22.4Z"
      fill="#E99B26" />
  </g>
  <rect opacity="0.5" x="17" y="37" width="14" height="2" rx="1" fill="#E99B26" />
  <circle opacity="0.5" cx="30" cy="17" r="2" fill="#E99B26" />
  <circle opacity="0.5" cx="18" cy="17" r="2" fill="#E99B26" />
  <path d="M18 16.5V12V11C18 7.68629 20.6863 5 24 5V5C27.3137 5 30 7.68629 30 11V12V16.5" stroke="#DFE1E6"
    stroke-width="2" stroke-linecap="round" />
  <defs>
    <filter id="filter0_i" x="18" y="22" width="12" height="12" filterUnits="userSpaceOnUse"
      color-interpolation-filters="sRGB">
      <feFlood flood-opacity="0" result="BackgroundImageFix" />
      <feBlend mode="normal" in="SourceGraphic" in2="BackgroundImageFix" result="shape" />
      <feColorMatrix in="SourceAlpha" type="matrix" values="0 0 0 0 0 0 0 0 0 0 0 0 0 0 0 0 0 0 127 0"
        result="hardAlpha" />
      <feOffset />
      <feGaussianBlur stdDeviation="2" />
      <feComposite in2="hardAlpha" operator="arithmetic" k2="-1" k3="1" />
      <feColorMatrix type="matrix" values="0 0 0 0 0 0 0 0 0 0 0 0 0 0 0 0 0 0 0.1 0" />
      <feBlend mode="normal" in2="shape" result="effect1_innerShadow" />
    </filter>
    <linearGradient id="paint0_linear" x1="24.079" y1="78" x2="24.079" y2="12" gradientUnits="userSpaceOnUse">
      <stop stop-color="#E99B26" />
      <stop offset="1" stop-color="#FAC34B" />
    </linearGradient>
  </defs>
</svg>