<svg viewBox="0 0 40 40" fill="none" xmlns="http://www.w3.org/2000/svg">
<path d="M3 35.5V12.9102L37 12.9302V35.5C37 36.163 36.7366 36.7989 36.2678 37.2678C35.7989 37.7366 35.163 38 34.5 38H5.5C4.83696 38 4.20107 37.7366 3.73223 37.2678C3.26339 36.7989 3 36.163 3 35.5Z" fill="url(#shop-paint0_linear_1882_1353)"/>
<path d="M39.9233 11.4533L37.055 4.61C36.8796 4.14894 36.5718 3.75006 36.1703 3.46357C35.7687 3.17708 35.2914 3.01579 34.7983 3H5.195C4.70197 3.01579 4.22464 3.17708 3.82308 3.46357C3.42152 3.75006 3.11369 4.14894 2.93833 4.61L0.07 11.4533C0.0252223 11.5588 0.00144538 11.6721 0 11.7867V13.3C0.0221235 14.3452 0.346905 15.3616 0.934992 16.226C1.52308 17.0904 2.34923 17.7657 3.31333 18.17C4.18511 18.5542 5.13967 18.7123 6.08877 18.6299C7.03786 18.5474 7.95085 18.2271 8.74333 17.6983C8.82397 17.647 8.91982 17.6249 9.01481 17.6358C9.10979 17.6467 9.19813 17.69 9.265 17.7583C10.6384 19.1492 12.4651 20.0014 14.4133 20.16C14.635 20.1783 14.8567 20.1867 15.08 20.1867C16.7635 20.1943 18.4029 19.6492 19.7467 18.635C19.8187 18.5807 19.9064 18.5512 19.9967 18.5512C20.0869 18.5512 20.1747 18.5807 20.2467 18.635C21.7809 19.7856 23.6865 20.3282 25.5967 20.1583C27.5426 20.0128 29.3683 19.161 30.73 17.7633C30.7966 17.6941 30.885 17.6499 30.9804 17.6384C31.0757 17.6268 31.1722 17.6486 31.2533 17.7C32.0437 18.2289 32.9547 18.55 33.902 18.6336C34.8494 18.7172 35.8025 18.5607 36.6733 18.1783C37.6334 17.7652 38.4559 17.0871 39.0444 16.2235C39.633 15.3598 39.9633 14.3463 39.9967 13.3017V11.7883C39.995 11.6729 39.97 11.5589 39.9233 11.4533Z" fill="url(#shop-paint1_linear_1882_1353)"/>
<path d="M25 24H33V38H25V24Z" fill="url(#shop-paint2_linear_1882_1353)"/>
<path d="M32.2667 31.6333C32.2667 31.9831 31.9831 32.2667 31.6333 32.2667C31.2836 32.2667 31 31.9831 31 31.6333C31 31.2836 31.2836 31 31.6333 31C31.9831 31 32.2667 31.2836 32.2667 31.6333Z" fill="#FAC34B"/>
<path d="M5.26665 24H20.4667V32.8667H5.26665V24Z" fill="#4CBCE8"/>
<path d="M20.4667 32.8667V24L5.26665 32.8667H20.4667Z" fill="#33B3E5"/>
<path d="M4 32.2333C4 31.8835 4.28355 31.6 4.63333 31.6H21.1C21.4498 31.6 21.7333 31.8835 21.7333 32.2333V32.2333C21.7333 32.5831 21.4498 32.8666 21.1 32.8666H4.63333C4.28355 32.8666 4 32.5831 4 32.2333V32.2333Z" fill="#B39371"/>
<defs>
<linearGradient id="shop-paint0_linear_1882_1353" x1="20" y1="6.36254" x2="20" y2="108.327" gradientUnits="userSpaceOnUse">
<stop stop-color="#F4F5F7"/>
<stop offset="1" stop-color="#DFE1E6"/>
</linearGradient>
<linearGradient id="shop-paint1_linear_1882_1353" x1="19.9983" y1="3" x2="19.057" y2="38.1606" gradientUnits="userSpaceOnUse">
<stop stop-color="#EB4B68"/>
<stop offset="1" stop-color="#CA365F"/>
</linearGradient>
<linearGradient id="shop-paint2_linear_1882_1353" x1="31.4796" y1="37.1466" x2="17.3332" y2="-12.0127" gradientUnits="userSpaceOnUse">
<stop stop-color="#B39371"/>
<stop offset="1" stop-color="#774C2B"/>
</linearGradient>
</defs>
</svg>
