<svg class="icon" viewBox="0 0 128 135" fill="none" xmlns="http://www.w3.org/2000/svg">
<g filter="url(#shop-microillustration-filter0_d)">
<mask id="shop-microillustration-path-1-outside-1" maskUnits="userSpaceOnUse" x="23.9731" y="18.6929" width="80.0691" height="84.9072" fill="black">
<rect fill="white" x="23.9731" y="18.6929" width="80.0691" height="84.9072"/>
<path fill-rule="evenodd" clip-rule="evenodd" d="M60.0015 39.2865C60.7867 34.9386 64.948 32.0505 69.2959 32.8357C73.6439 33.6209 76.532 37.7822 75.7468 42.1301L75.4625 43.7044L59.7172 40.8608L60.0015 39.2865ZM56.5681 40.2921L56.8524 38.7178C57.9518 32.6307 63.7775 28.5873 69.8646 29.6866C75.9518 30.786 79.9952 36.6118 78.8958 42.6989L78.6115 44.2731L85.4724 45.5122C88.723 46.0993 90.9929 49.0637 90.7118 52.3549L87.4298 90.7834C87.109 94.5403 83.6261 97.207 79.9156 96.5369L37.0649 88.7981C33.3544 88.1279 31.0244 84.4114 32.0379 80.7796L42.4053 43.6307C43.2932 40.4491 46.4565 38.4659 49.7071 39.053L56.5681 40.2921Z"/>
</mask>
<path fill-rule="evenodd" clip-rule="evenodd" d="M60.0015 39.2865C60.7867 34.9386 64.948 32.0505 69.2959 32.8357C73.6439 33.6209 76.532 37.7822 75.7468 42.1301L75.4625 43.7044L59.7172 40.8608L60.0015 39.2865ZM56.5681 40.2921L56.8524 38.7178C57.9518 32.6307 63.7775 28.5873 69.8646 29.6866C75.9518 30.786 79.9952 36.6118 78.8958 42.6989L78.6115 44.2731L85.4724 45.5122C88.723 46.0993 90.9929 49.0637 90.7118 52.3549L87.4298 90.7834C87.109 94.5403 83.6261 97.207 79.9156 96.5369L37.0649 88.7981C33.3544 88.1279 31.0244 84.4114 32.0379 80.7796L42.4053 43.6307C43.2932 40.4491 46.4565 38.4659 49.7071 39.053L56.5681 40.2921Z" fill="white"/>
<path d="M75.4625 43.7044L74.5738 48.6248L79.4942 49.5134L80.3829 44.593L75.4625 43.7044ZM59.7172 40.8608L54.7968 39.9722L53.9081 44.8926L58.8285 45.7812L59.7172 40.8608ZM56.5681 40.2921L55.6795 45.2125L60.5999 46.1011L61.4885 41.1807L56.5681 40.2921ZM78.6115 44.2731L73.6911 43.3845L72.8025 48.3049L77.7229 49.1935L78.6115 44.2731ZM90.7118 52.3549L85.7299 51.9294L85.7299 51.9294L90.7118 52.3549ZM87.4298 90.7834L92.4117 91.2089L92.4117 91.2089L87.4298 90.7834ZM79.9156 96.5369L79.027 101.457L79.9156 96.5369ZM37.0649 88.7981L37.9536 83.8777L37.0649 88.7981ZM32.0379 80.7796L27.2219 79.4356L32.0379 80.7796ZM42.4053 43.6307L37.5893 42.2867L42.4053 43.6307ZM49.7071 39.053L48.8185 43.9734L49.7071 39.053ZM70.1845 27.9153C63.1191 26.6393 56.3571 31.3325 55.0811 38.3979L64.9219 40.1752C65.2163 38.5447 66.7768 37.4616 68.4073 37.7561L70.1845 27.9153ZM80.6672 43.0188C81.9432 35.9534 77.25 29.1913 70.1845 27.9153L68.4073 37.7561C70.0378 38.0506 71.1208 39.611 70.8264 41.2415L80.6672 43.0188ZM80.3829 44.593L80.6672 43.0188L70.8264 41.2415L70.5421 42.8158L80.3829 44.593ZM58.8285 45.7812L74.5738 48.6248L76.3511 38.784L60.6058 35.9404L58.8285 45.7812ZM55.0811 38.3979L54.7968 39.9722L64.6376 41.7494L64.9219 40.1752L55.0811 38.3979ZM61.4885 41.1807L61.7728 39.6065L51.932 37.8292L51.6477 39.4034L61.4885 41.1807ZM61.7728 39.6065C62.3814 36.2368 65.6064 33.9985 68.976 34.6071L70.7533 24.7662C61.9487 23.1761 53.5221 29.0246 51.932 37.8292L61.7728 39.6065ZM68.976 34.6071C72.3457 35.2156 74.584 38.4406 73.9754 41.8102L83.8162 43.5875C85.4063 34.7829 79.5578 26.3564 70.7533 24.7662L68.976 34.6071ZM73.9754 41.8102L73.6911 43.3845L83.5319 45.1617L83.8162 43.5875L73.9754 41.8102ZM77.7229 49.1935L84.5838 50.4326L86.361 40.5918L79.5001 39.3527L77.7229 49.1935ZM84.5838 50.4326C85.2949 50.561 85.7914 51.2095 85.7299 51.9294L95.6936 52.7804C96.1943 46.9179 92.1512 41.6375 86.361 40.5918L84.5838 50.4326ZM85.7299 51.9294L82.448 90.3579L92.4117 91.2089L95.6936 52.7804L85.7299 51.9294ZM82.448 90.3579C82.3778 91.1797 81.6159 91.7631 80.8042 91.6165L79.027 101.457C85.6364 102.651 91.8402 97.9009 92.4117 91.2089L82.448 90.3579ZM80.8042 91.6165L37.9536 83.8777L36.1763 93.7185L79.027 101.457L80.8042 91.6165ZM37.9536 83.8777C37.1419 83.7311 36.6322 82.9181 36.8539 82.1236L27.2219 79.4356C25.4166 85.9047 29.5669 92.5248 36.1763 93.7185L37.9536 83.8777ZM36.8539 82.1236L47.2212 44.9748L37.5893 42.2867L27.2219 79.4356L36.8539 82.1236ZM47.2212 44.9748C47.4155 44.2788 48.1074 43.845 48.8185 43.9734L50.5958 34.1326C44.8056 33.0869 39.1709 36.6195 37.5893 42.2867L47.2212 44.9748ZM48.8185 43.9734L55.6795 45.2125L57.4567 35.3717L50.5958 34.1326L48.8185 43.9734Z" fill="white" mask="url(#shop-microillustration-path-1-outside-1)"/>
</g>
<g clip-path="url(#shop-microillustration-clip0)">
<path d="M42.404 43.6307C43.292 40.4491 46.4553 38.4659 49.7059 39.0529L85.4712 45.5122C88.7218 46.0992 90.9916 49.0637 90.7106 52.3549L87.4286 90.7834C87.1078 94.5403 83.6249 97.207 79.9144 96.5369L37.0637 88.798C33.3532 88.1279 31.0232 84.4114 32.0367 80.7796L42.404 43.6307Z" fill="url(#shop-microillustration-paint0_linear)"/>
<g opacity="0.5" filter="url(#shop-microillustration-filter1_i)">
<path d="M62.6103 58.295C63.3109 57.9911 64.0409 57.903 64.746 58.0304C65.5098 58.1683 66.1743 58.5033 66.6692 59.0406C67.0574 59.4548 67.345 59.9513 67.4871 60.5203C67.899 60.4408 68.306 60.4278 68.7057 60.5C68.8977 60.5347 69.0849 60.5965 69.249 60.6596L69.2539 60.6615C69.9172 60.927 70.5586 61.4022 70.96 61.9805C71.4254 62.6511 71.5906 63.3329 71.599 64.0447L71.5992 64.0644L71.5974 64.0841C71.5421 64.6903 71.4067 65.265 71.0964 65.7784C71.5325 66.1232 71.946 66.5628 72.2036 67.0916C72.529 67.7452 72.6136 68.4827 72.487 69.1837C72.37 69.8316 72.0245 70.4733 71.5856 71.0172L71.5754 71.0298L71.5642 71.0416C71.1278 71.4974 70.5789 71.7878 69.9954 71.9273C70.1074 72.5276 70.0781 73.1171 69.8575 73.6875L69.8559 73.6916C69.5904 74.3549 69.1152 74.9963 68.5369 75.3977C67.8663 75.8631 67.1845 76.0283 66.4727 76.0367L66.4553 76.0369L66.4379 76.0355C66.2715 76.0223 66.1064 76.001 65.9428 75.9714C65.5249 75.896 65.1247 75.7666 64.7605 75.5498C64.4411 75.9962 64.0033 76.4007 63.4845 76.6531L63.477 76.6567L63.4694 76.6601C62.7688 76.964 62.0388 77.0521 61.3337 76.9247C60.5726 76.7873 59.9133 76.4428 59.4137 75.9179L59.4118 75.9159C59.023 75.5014 58.7348 75.0045 58.5926 74.4348C58.1806 74.5143 57.7737 74.5273 57.374 74.4551C57.182 74.4204 56.9948 74.3586 56.8307 74.2955L56.8258 74.2936C56.1625 74.0281 55.5211 73.5529 55.1197 72.9746C54.6737 72.332 54.4077 71.6886 54.4823 70.871C54.5367 70.2738 54.669 69.7072 54.9695 69.1996C54.5224 68.8801 54.117 68.4417 53.8643 67.9223L53.8606 67.9148L53.8573 67.9071C53.5534 67.2065 53.4653 66.4765 53.5927 65.7714C53.7301 65.0104 54.0745 64.351 54.5995 63.8514L54.6015 63.8495C55.0165 63.4602 55.5141 63.1718 56.0847 63.0297C55.9722 62.4287 56.0013 61.8386 56.2222 61.2676L56.2238 61.2635C56.4892 60.6002 56.9645 59.9588 57.5428 59.5574C58.2134 59.092 58.8952 58.9268 59.607 58.9184L59.6244 58.9182L59.6418 58.9196C59.8082 58.9327 59.9733 58.9541 60.1369 58.9837C60.5548 59.0591 60.955 59.1885 61.3192 59.4053C61.6386 58.9589 62.0764 58.5544 62.5951 58.302L62.6026 58.2984L62.6103 58.295Z" fill="#E99B26"/>
</g>
<rect opacity="0.5" x="49.458" y="79.6562" width="22.4" height="3.2" rx="1.6" transform="rotate(10.2373 49.458 79.6562)" fill="#E99B26"/>
<circle opacity="0.5" cx="75.6135" cy="51.8623" r="3.2" transform="rotate(10.2373 75.6135 51.8623)" fill="#E99B26"/>
<circle opacity="0.5" cx="56.72" cy="48.4482" r="3.2" transform="rotate(10.2373 56.72 48.4482)" fill="#E99B26"/>
<path d="M56.8617 47.6657L58.1413 40.5803L58.4257 39.0058C59.368 33.7882 64.3615 30.3225 69.579 31.2648V31.2648C74.7965 32.207 78.2623 37.2006 77.32 42.4181L77.0357 43.9926L75.756 51.078" stroke="#DFE1E6" stroke-width="3.2" stroke-linecap="round"/>
</g>
<defs>
<filter id="shop-microillustration-filter0_d" x="0.414434" y="0.464146" width="127.526" height="133.698" filterUnits="userSpaceOnUse" color-interpolation-filters="sRGB">
<feFlood flood-opacity="0" result="BackgroundImageFix"/>
<feColorMatrix in="SourceAlpha" type="matrix" values="0 0 0 0 0 0 0 0 0 0 0 0 0 0 0 0 0 0 127 0"/>
<feOffset dy="6.13565"/>
<feGaussianBlur stdDeviation="12.2713"/>
<feColorMatrix type="matrix" values="0 0 0 0 0 0 0 0 0 0 0 0 0 0 0 0 0 0 0.24 0"/>
<feBlend mode="normal" in2="BackgroundImageFix" result="effect1_dropShadow"/>
<feBlend mode="normal" in="SourceGraphic" in2="effect1_dropShadow" result="shape"/>
</filter>
<filter id="shop-microillustration-filter1_i" x="53.5361" y="57.9727" width="19.0069" height="19.0072" filterUnits="userSpaceOnUse" color-interpolation-filters="sRGB">
<feFlood flood-opacity="0" result="BackgroundImageFix"/>
<feBlend mode="normal" in="SourceGraphic" in2="BackgroundImageFix" result="shape"/>
<feColorMatrix in="SourceAlpha" type="matrix" values="0 0 0 0 0 0 0 0 0 0 0 0 0 0 0 0 0 0 127 0" result="hardAlpha"/>
<feOffset/>
<feGaussianBlur stdDeviation="3.2"/>
<feComposite in2="hardAlpha" operator="arithmetic" k2="-1" k3="1"/>
<feColorMatrix type="matrix" values="0 0 0 0 0 0 0 0 0 0 0 0 0 0 0 0 0 0 0.1 0"/>
<feBlend mode="normal" in2="shape" result="effect1_innerShadow"/>
</filter>
<linearGradient id="shop-microillustration-paint0_linear" x1="48.9451" y1="146.224" x2="67.7129" y2="42.305" gradientUnits="userSpaceOnUse">
<stop stop-color="#E99B26"/>
<stop offset="1" stop-color="#FAC34B"/>
</linearGradient>
<clipPath id="shop-microillustration-clip0">
<rect width="64" height="64" fill="white" transform="translate(38.374 24) rotate(10.2373)"/>
</clipPath>
</defs>
</svg>
