<svg class="icon"
     width="24"
     height="25"
     viewBox="0 0 24 25"
     fill="none"
     xmlns="http://www.w3.org/2000/svg"
>
  <path fill-rule="evenodd"
        clip-rule="evenodd"
        d="M21.2339 4.47474C21.7255 3.98317 22.0017 3.31644 22.0017 2.62124C22.0017 1.92605 21.7255 1.25932 21.2339 0.767745C20.7424 0.276166 20.0756 0 19.3804 0C18.6852 0 18.0185 0.276166 17.5269 0.767745L10.8479 7.44674C10.8012 7.49378 10.7749 7.55741 10.7749 7.62374C10.7749 7.69008 10.8012 7.75371 10.8479 7.80074L14.1999 11.1537C14.2231 11.177 14.2506 11.1954 14.2809 11.208C14.3112 11.2206 14.3436 11.2271 14.3764 11.2271C14.4092 11.2271 14.4417 11.2206 14.472 11.208C14.5023 11.1954 14.5298 11.177 14.5529 11.1537L21.2339 4.47474ZM23.7071 9.79564C23.8946 9.98318 24 10.2375 24 10.5027V22.5027C24 22.9006 23.842 23.2821 23.5607 23.5634C23.2794 23.8447 22.8978 24.0027 22.5 24.0027H1.5C1.10218 24.0027 0.720644 23.8447 0.43934 23.5634C0.158035 23.2821 0 22.9006 0 22.5027V10.5027C0 10.2375 0.105357 9.98318 0.292893 9.79564C0.48043 9.6081 0.734784 9.50275 1 9.50275H6C6.26522 9.50275 6.51957 9.6081 6.70711 9.79564C6.89464 9.98318 7 10.2375 7 10.5027C7 10.768 6.89464 11.0223 6.70711 11.2099C6.51957 11.3974 6.26522 11.5027 6 11.5027H2.25C2.21713 11.5026 2.18456 11.509 2.15417 11.5215C2.12378 11.534 2.09617 11.5524 2.07293 11.5757C2.04969 11.5989 2.03128 11.6265 2.01876 11.6569C2.00624 11.6873 1.99987 11.7199 2 11.7527V21.7527C2 21.819 2.02634 21.8826 2.07322 21.9295C2.12011 21.9764 2.1837 22.0027 2.25 22.0027H21.75C21.8163 22.0027 21.8799 21.9764 21.9268 21.9295C21.9737 21.8826 22 21.819 22 21.7527V11.7527C22.0001 11.7199 21.9938 11.6873 21.9812 11.6569C21.9687 11.6265 21.9503 11.5989 21.9271 11.5757C21.9038 11.5524 21.8762 11.534 21.8458 11.5215C21.8154 11.509 21.7829 11.5026 21.75 11.5027H20C19.7348 11.5027 19.4804 11.3974 19.2929 11.2099C19.1054 11.0223 19 10.768 19 10.5027C19 10.2375 19.1054 9.98318 19.2929 9.79564C19.4804 9.6081 19.7348 9.50275 20 9.50275H23C23.2652 9.50275 23.5196 9.6081 23.7071 9.79564ZM3.49976 18.5019C3.49985 18.2366 3.60532 17.9823 3.79296 17.7948L5.07596 16.5088C5.34827 16.2363 5.6756 16.0251 6.03606 15.8892C6.39653 15.7534 6.78184 15.6961 7.16625 15.721C7.55065 15.746 7.92529 15.8528 8.26514 16.0341C8.60499 16.2155 8.90222 16.4673 9.13696 16.7728C9.17555 16.8231 9.23183 16.8569 9.2944 16.8673C9.35698 16.8777 9.42116 16.8639 9.47396 16.8288L9.61196 16.7358C10.1336 16.39 10.7586 16.2349 11.3813 16.2966C12.0041 16.3584 12.5864 16.6333 13.03 17.0748L13.382 17.4258C13.4051 17.4491 13.4327 17.4677 13.4631 17.4804C13.4935 17.4931 13.526 17.4997 13.559 17.4998H17C17.2652 17.4998 17.5195 17.6051 17.7071 17.7926C17.8946 17.9802 18 18.2345 18 18.4998C18 18.765 17.8946 19.0193 17.7071 19.2069C17.5195 19.3944 17.2652 19.4998 17 19.4998H13.041C12.7758 19.4997 12.5215 19.3943 12.334 19.2068L11.616 18.4888C11.5 18.3733 11.3477 18.3014 11.1848 18.2852C11.0219 18.2689 10.8584 18.3094 10.722 18.3998L9.74596 19.0508C9.56514 19.1718 9.35784 19.2475 9.14157 19.2715C8.92531 19.2955 8.70645 19.2671 8.5035 19.1886C8.30055 19.1101 8.11948 18.9839 7.97561 18.8207C7.83174 18.6574 7.7293 18.462 7.67696 18.2508C7.64574 18.1298 7.58313 18.0193 7.49546 17.9303C7.40778 17.8413 7.29816 17.7771 7.17769 17.7441C7.05721 17.7111 6.93016 17.7105 6.80939 17.7424C6.68863 17.7743 6.57843 17.8376 6.48996 17.9258L5.20696 19.2098C5.01932 19.3973 4.76488 19.5025 4.49961 19.5025C4.23433 19.5024 3.97997 19.3969 3.79246 19.2093C3.60495 19.0216 3.49966 18.7672 3.49976 18.5019ZM9.4999 13.0028C9.3674 13.0025 9.24044 12.9496 9.1469 12.8558C9.08843 12.7974 9.04531 12.7255 9.02141 12.6465C8.9975 12.5674 8.99355 12.4837 9.0099 12.4028L9.6379 9.26175C9.64703 9.21754 9.66791 9.17662 9.69835 9.14328C9.72879 9.10994 9.76766 9.08543 9.81085 9.07233C9.85405 9.05923 9.89999 9.05802 9.94382 9.06883C9.98764 9.07964 10.0277 9.10207 10.0599 9.13375L12.8709 11.9418C12.9026 11.9739 12.925 12.014 12.9358 12.0578C12.9466 12.1017 12.9454 12.1476 12.9323 12.1908C12.9192 12.234 12.8947 12.2729 12.8614 12.3033C12.828 12.3337 12.7871 12.3546 12.7429 12.3638L9.5999 12.9928C9.56702 12.9997 9.53349 13.003 9.4999 13.0028Z"
        fill="#00A0DF"
  />
</svg>
