<svg class="icon" viewBox="0 0 40 40" fill="none" xmlns="http://www.w3.org/2000/svg">
<path d="M5 6.4C5 4.15979 5 3.03969 5.43597 2.18404C5.81947 1.43139 6.43139 0.819467 7.18404 0.435974C8.03969 0 9.15979 0 11.4 0H19.9263C20.8877 0 21.3684 0 21.8216 0.106995C22.2235 0.201865 22.6083 0.358393 22.9623 0.571017C23.3615 0.810817 23.7057 1.14637 24.394 1.81748L32.0677 9.29892C32.7805 9.99381 33.1368 10.3413 33.3919 10.7493C33.618 11.111 33.7847 11.5065 33.8859 11.9209C34 12.3883 34 12.886 34 13.8814V33.6C34 35.8402 34 36.9603 33.564 37.816C33.1805 38.5686 32.5686 39.1805 31.816 39.564C30.9603 40 29.8402 40 27.6 40H11.4C9.15979 40 8.03969 40 7.18404 39.564C6.43139 39.1805 5.81947 38.5686 5.43597 37.816C5 36.9603 5 35.8402 5 33.6V6.4Z" fill="url(#sim-paint0_linear)"/>
<path d="M14.5018 5.46668C14.9651 5.1578 15.4776 5 16 5C16.566 5 17.0862 5.15428 17.5109 5.47566C17.8431 5.72258 18.1139 6.04153 18.2896 6.43142C18.5749 6.32103 18.8652 6.25895 19.1614 6.25895C19.3036 6.25895 19.446 6.27909 19.5719 6.30306L19.5757 6.30379C20.086 6.40832 20.6078 6.66622 20.9708 7.02919C21.3917 7.45007 21.5986 7.91786 21.6968 8.42753L21.6995 8.44167L21.7008 8.45601C21.7397 8.89816 21.717 9.32809 21.5609 9.73672C21.9185 9.92759 22.2721 10.1895 22.5255 10.5355C22.8437 10.9623 23 11.4806 23 12C23 12.4801 22.8352 12.9853 22.5908 13.4324L22.5851 13.4428L22.5786 13.4527C22.3246 13.8363 21.9683 14.1159 21.5677 14.2916C21.7258 14.7078 21.7812 15.1346 21.6968 15.5725L21.6962 15.5757C21.5917 16.086 21.3338 16.6078 20.9708 16.9708C20.5499 17.3917 20.0821 17.5986 19.5725 17.6968L19.56 17.6992L19.5473 17.7005C19.4262 17.7126 19.305 17.7187 19.1837 17.7187C18.8741 17.7187 18.5702 17.6777 18.2808 17.5694C18.1094 17.931 17.8477 18.2781 17.5082 18.5264L17.5033 18.53L17.4982 18.5333C17.0349 18.8422 16.5224 19 16 19C15.4361 19 14.9184 18.8383 14.4918 18.5264L14.4902 18.5252C14.1575 18.2781 13.8863 17.9589 13.7104 17.5686C13.4251 17.679 13.1348 17.741 12.8386 17.741C12.6964 17.741 12.554 17.7209 12.4281 17.6969L12.4243 17.6962C11.914 17.5917 11.3922 17.3338 11.0292 16.9708C10.6259 16.5675 10.3516 16.1404 10.2992 15.544C10.2609 15.1084 10.2824 14.6847 10.4322 14.2815C10.07 14.1102 9.72231 13.8482 9.47364 13.5082L9.47005 13.5033L9.46668 13.4982C9.1578 13.0349 9 12.5224 9 12C9 11.4361 9.16171 10.9184 9.47364 10.4918L9.47483 10.4902C9.72217 10.1571 10.0419 9.88564 10.4329 9.70976C10.2743 9.29309 10.2187 8.86584 10.3032 8.42753L10.3038 8.42435C10.4083 7.91399 10.6662 7.39216 11.0292 7.02919C11.4501 6.60831 11.9179 6.40143 12.4275 6.30318L12.44 6.30077L12.4527 6.29951C12.5738 6.2874 12.695 6.28133 12.8163 6.28133C13.1259 6.28133 13.4298 6.32233 13.7192 6.43064C13.8906 6.06898 14.1523 5.72194 14.4918 5.47364L14.4967 5.47005L14.5018 5.46668Z" fill="#19194B"/>
<path d="M16.014 5.95312C16.3952 5.95312 16.7268 6.05816 16.9865 6.24613C17.2683 6.46173 17.4562 6.72709 17.5557 7.04221C17.6054 7.21359 17.727 7.34627 17.8872 7.41261C17.959 7.44025 18.0419 7.46236 18.1248 7.46236C18.2132 7.46236 18.3072 7.44025 18.3901 7.40155C18.6608 7.26887 18.904 7.20253 19.1416 7.20253C19.2245 7.20253 19.3018 7.20806 19.3792 7.22464C19.7328 7.29651 20.0865 7.47342 20.313 7.70561C20.5562 7.94885 20.7054 8.2308 20.7827 8.61226C20.8214 9.03794 20.7662 9.34752 20.6225 9.61288C20.5396 9.76215 20.5286 9.928 20.5783 10.0828C20.628 10.2376 20.7496 10.3703 20.8933 10.4366C21.269 10.608 21.5674 10.8291 21.7553 11.0779C21.9487 11.3267 22.0482 11.6584 22.0482 12.0067C22.0482 12.2997 21.9432 12.6535 21.7663 12.9796C21.5287 13.3169 21.1972 13.4717 20.954 13.5491C20.7827 13.5988 20.6501 13.7204 20.5838 13.8808C20.5175 14.0411 20.5175 14.218 20.6004 14.3838C20.7827 14.7432 20.838 15.0694 20.7772 15.3789C20.7054 15.7328 20.5286 16.0866 20.2965 16.3132C20.0533 16.5565 19.7715 16.7057 19.3902 16.7831C19.3018 16.7887 19.2189 16.7887 19.1416 16.7887C18.8377 16.7887 18.5945 16.7389 18.3901 16.6173C18.3017 16.5675 18.2077 16.5454 18.1027 16.5454C18.0309 16.5454 17.9535 16.562 17.8872 16.5841C17.727 16.6505 17.5999 16.7831 17.5391 16.9435C17.4341 17.2586 17.2241 17.5571 16.981 17.7451C16.6771 17.9441 16.34 18.0491 15.9919 18.0491C15.6106 18.0491 15.279 17.9441 15.0193 17.7561C14.7375 17.5405 14.5496 17.2752 14.4502 16.96C14.4004 16.7887 14.2789 16.656 14.1186 16.5896C14.0468 16.562 13.9639 16.5399 13.881 16.5399C13.7926 16.5399 13.6986 16.562 13.6158 16.6007C13.345 16.7334 13.1019 16.7997 12.8643 16.7997C12.7814 16.7997 12.704 16.7942 12.6266 16.7776C12.273 16.7057 11.9193 16.5288 11.6928 16.2966C11.3833 15.9871 11.2507 15.7438 11.2231 15.4287C11.1844 14.9864 11.2286 14.6603 11.3778 14.4004C11.4662 14.2456 11.4717 14.0632 11.4165 13.8973C11.3502 13.737 11.2176 13.6099 11.0573 13.5491C10.7423 13.444 10.4495 13.2339 10.2561 12.9907C10.0571 12.6866 9.95215 12.3494 9.95215 12.0067C9.95215 11.6252 10.0571 11.2935 10.245 11.0337C10.4605 10.7517 10.7258 10.5638 11.0407 10.4642C11.212 10.4145 11.3447 10.2929 11.411 10.1325C11.4773 9.97223 11.4773 9.79532 11.3944 9.62947C11.212 9.27013 11.1568 8.94396 11.2176 8.63437C11.2894 8.28055 11.4662 7.92674 11.6983 7.70008C11.9414 7.45683 12.2233 7.30757 12.6045 7.23017C12.693 7.22464 12.7758 7.22464 12.8532 7.22464C13.1571 7.22464 13.4003 7.2744 13.6047 7.39602C13.6931 7.44578 13.7871 7.46789 13.8921 7.46789C13.9639 7.46789 14.0412 7.4513 14.1076 7.42919C14.2678 7.36285 14.3949 7.23017 14.4557 7.06985C14.5607 6.75473 14.7707 6.4562 15.0138 6.26824C15.3343 6.05816 15.6769 5.95312 16.014 5.95312Z" fill="white"/>
<rect x="9" y="23" width="18" height="13" rx="2" fill="url(#sim-paint1_linear)"/>
<rect x="18" y="30" width="5" height="1" fill="#C87C1B"/>
<rect x="13" y="23" width="5" height="1" transform="rotate(90 13 23)" fill="#C87C1B"/>
<rect x="15" y="33" width="4" height="0.999999" fill="#C87C1B"/>
<rect x="24" y="28" width="8" height="1" transform="rotate(90 24 28)" fill="#C87C1B"/>
<rect x="27" y="29" width="4" height="1" transform="rotate(-180 27 29)" fill="#C87C1B"/>
<rect x="18" y="36" width="13" height="1" transform="rotate(-90 18 36)" fill="#C87C1B"/>
<path d="M9 28H15V36" stroke="#C87C1B"/>
<defs>
<linearGradient id="sim-paint0_linear" x1="10.9956" y1="3.18182" x2="45.722" y2="27.5236" gradientUnits="userSpaceOnUse">
<stop stop-color="#33B3E5"/>
<stop offset="1" stop-color="#007CBF"/>
</linearGradient>
<linearGradient id="sim-paint1_linear" x1="21" y1="54.5" x2="24.3444" y2="17.8048" gradientUnits="userSpaceOnUse">
<stop stop-color="#C87C1B"/>
<stop offset="1" stop-color="#FBD677"/>
</linearGradient>
</defs>
</svg>
