<svg class="icon" viewBox="0 0 126 126" fill="none" xmlns="http://www.w3.org/2000/svg">
<path fill-rule="evenodd" clip-rule="evenodd" d="M70.2642 13.5741H61.8051L71.1298 4.24942C72.6986 2.6817 71.5868 0 69.3688 0H55.1213C54.2049 0 53.4619 0.743015 53.4619 1.65936V3.22819C53.4619 4.14454 54.2049 4.88756 55.1213 4.88756H63.5804L54.2557 14.2111C52.688 15.7799 53.7986 18.4616 56.0166 18.4616H70.2642C71.1805 18.4616 71.9236 17.7186 71.9236 16.8012V15.2335C71.9236 14.3171 71.1805 13.5741 70.2642 13.5741Z" fill="#66C6EC"/>
<path fill-rule="evenodd" clip-rule="evenodd" d="M49.9019 33.9452H41.4428L50.7675 24.6216C52.3363 23.0528 51.2256 20.3711 49.0065 20.3711H34.759C33.8426 20.3711 33.0996 21.1141 33.0996 22.0305V23.5993C33.0996 24.5156 33.8426 25.2586 34.759 25.2586H43.2181L33.8945 34.5822C32.3257 36.151 33.4363 38.8327 35.6543 38.8327H49.9019C50.8182 38.8327 51.5624 38.0897 51.5624 37.1734V35.6045C51.5624 34.6882 50.8182 33.9452 49.9019 33.9452Z" fill="#66C6EC"/>
<path fill-rule="evenodd" clip-rule="evenodd" d="M96.2859 99.0022C95.5285 99.1976 94.9081 99.7363 94.6078 100.458L94.0127 101.896C93.7135 102.618 93.772 103.439 94.1695 104.112C96.7408 108.47 96.0784 114.173 92.4317 117.819C88.4992 121.751 82.1797 122.213 77.7282 118.896L76.2676 118.41H49.1183L47.6566 118.896C43.2084 122.213 36.8867 121.751 32.9564 117.819C29.3086 114.173 28.6462 108.47 31.2186 104.113C31.6161 103.439 31.6746 102.618 31.3754 101.897L30.7792 100.458C30.4811 99.7363 29.8584 99.1976 29.1011 99.0022C24.2014 97.7391 20.6365 93.2391 20.6365 88.0811C20.6365 82.9241 24.2014 78.4241 29.1011 77.1611C29.8584 76.9657 30.4811 76.428 30.7792 75.7048L31.3754 74.2674C31.6746 73.5454 31.6161 72.7251 31.2175 72.0516C28.6462 67.694 29.3086 61.9917 32.9564 58.3439C35.1291 56.1701 38.0338 55.0561 40.9485 55.0561C42.9136 55.0561 44.8843 55.5629 46.6375 56.5929C47.3209 56.9926 48.1468 57.0655 48.8798 56.7618L50.3151 56.1679C51.0382 55.8687 51.577 55.2471 51.7724 54.4909C53.0354 49.59 57.5355 46.0262 62.6935 46.0262C67.8504 46.0262 72.3516 49.59 73.6146 54.4909C73.81 55.2471 74.3488 55.8687 75.0708 56.1668L76.5083 56.763C77.2292 57.0621 78.0506 57.0036 78.7241 56.6062C83.0806 54.0349 88.7829 54.6962 92.4317 58.3439C96.0784 61.9917 96.7408 67.694 94.1695 72.0527C93.772 72.7251 93.7135 73.5454 94.0127 74.2685L94.6078 75.7048C94.9081 76.428 95.5285 76.9657 96.2859 77.1611C101.185 78.4241 104.749 82.9241 104.749 88.0811C104.749 93.2391 101.185 97.7391 96.2859 99.0022ZM99.1895 72.9646C101.877 66.9675 100.685 59.6875 95.8874 54.8883C91.0892 50.0891 83.8081 48.8967 77.8099 51.5872C75.4705 45.4444 69.48 41.1387 62.6935 41.1387C55.9081 41.1387 49.9154 45.4444 47.5771 51.5861C41.5789 48.8967 34.2989 50.0891 29.4996 54.8883C24.7015 59.6875 23.5103 66.9686 26.1986 72.9646C20.0557 75.3041 15.75 81.2957 15.75 88.0811C15.75 94.8676 20.0557 100.86 26.1986 103.199C23.508 109.195 24.7004 116.477 29.4996 121.275C32.6152 124.391 36.7774 125.986 40.9551 125.986C44.0674 125.986 47.1896 125.1 49.8933 123.298H75.4937C81.8253 127.519 90.45 126.712 95.8874 121.275C100.685 116.478 101.877 109.196 99.1895 103.199C105.33 100.86 109.637 94.8676 109.637 88.0811C109.637 81.2957 105.331 75.3041 99.1895 72.9646Z" fill="#19194B"/>
<path fill-rule="evenodd" clip-rule="evenodd" d="M96.2862 77.1602C95.5288 76.9659 94.9084 76.4272 94.6081 75.7051L94.013 74.2666C93.7138 73.5456 93.7723 72.7242 94.1698 72.0508C96.7411 67.6931 96.0786 61.9908 92.432 58.3431C88.7832 54.6954 83.0808 54.034 78.7243 56.6053C78.0509 57.0028 77.2306 57.0613 76.5085 56.761L75.0711 56.1659C74.349 55.8678 73.8103 55.2463 73.6149 54.49C72.3518 49.5892 67.8507 46.0254 62.6938 46.0254C57.5357 46.0254 53.0357 49.5892 51.7727 54.49C51.5773 55.2463 51.0385 55.8678 50.3153 56.167L48.8801 56.761C48.147 57.0646 47.3212 56.9918 46.6389 56.5921C44.8846 55.5631 42.9139 55.0564 40.9487 55.0564C38.0341 55.0564 35.1294 56.1692 32.9566 58.3431C29.3089 61.9908 28.6465 67.6931 31.2189 72.0508C31.6163 72.7231 31.6748 73.5445 31.3757 74.2666L30.7795 75.7051C30.4814 76.4272 29.8587 76.9659 29.1013 77.1602C24.2016 78.4244 20.6367 82.9244 20.6367 88.0813C20.6367 93.2383 24.2016 97.7394 29.1013 99.0013C29.8587 99.1967 30.4814 99.7355 30.7795 100.459L31.3757 101.896C31.6748 102.618 31.6163 103.438 31.2189 104.112C28.6465 108.47 29.3089 114.172 32.9566 117.818C36.887 121.751 43.2087 122.214 47.6568 118.895L49.1186 118.409H76.2679L77.7285 118.895C82.18 122.214 88.4995 121.751 92.432 117.818C96.0786 114.172 96.7411 108.47 94.1698 104.111C93.7723 103.438 93.7138 102.618 94.013 101.895L94.6081 100.459C94.9084 99.7355 95.5288 99.1967 96.2862 99.0013C101.185 97.7394 104.75 93.2383 104.75 88.0813C104.75 82.9244 101.186 78.4244 96.2862 77.1602Z" fill="white"/>
<path fill-rule="evenodd" clip-rule="evenodd" d="M96.2862 77.1602C95.5288 76.9659 94.9084 76.4272 94.6081 75.7051L94.013 74.2666C93.7138 73.5456 93.7723 72.7242 94.1698 72.0508C96.7411 67.6931 96.0786 61.9908 92.432 58.3431C88.7832 54.6954 83.0808 54.034 78.7243 56.6053C78.0509 57.0028 77.2306 57.0613 76.5085 56.761L75.0711 56.1659C74.349 55.8678 73.8103 55.2463 73.6149 54.49C72.3518 49.5892 67.8507 46.0254 62.6938 46.0254C57.5357 46.0254 53.0357 49.5892 51.7727 54.49C51.5773 55.2463 51.0385 55.8678 50.3153 56.167L48.8801 56.761C48.147 57.0646 47.3212 56.9918 46.6389 56.5921C44.8846 55.5631 42.9139 55.0564 40.9487 55.0564C38.0341 55.0564 35.1294 56.1692 32.9566 58.3431C29.3089 61.9908 28.6465 67.6931 31.2189 72.0508C31.6163 72.7231 31.6748 73.5445 31.3757 74.2666L30.7795 75.7051C30.4814 76.4272 29.8587 76.9659 29.1013 77.1602C24.2016 78.4244 20.6367 82.9244 20.6367 88.0813C20.6367 93.2383 24.2016 97.7394 29.1013 99.0013C29.8587 99.1967 30.4814 99.7355 30.7795 100.459L31.3757 101.896C31.6748 102.618 31.6163 103.438 31.2189 104.112C28.6465 108.47 29.3089 114.172 32.9566 117.818C36.887 121.751 43.2087 122.214 47.6568 118.895L49.1186 118.409H76.2679L77.7285 118.895C82.18 122.214 88.4995 121.751 92.432 117.818C96.0786 114.172 96.7411 108.47 94.1698 104.111C93.7723 103.438 93.7138 102.618 94.013 101.895L94.6081 100.459C94.9084 99.7355 95.5288 99.1967 96.2862 99.0013C101.185 97.7394 104.75 93.2383 104.75 88.0813C104.75 82.9244 101.186 78.4244 96.2862 77.1602Z" fill="white"/>
<path fill-rule="evenodd" clip-rule="evenodd" d="M84.8884 109.172C85.4437 107.175 85.7374 105.094 85.7374 102.965V102.18C85.7374 101.264 84.9944 100.521 84.078 100.521H82.5103C81.594 100.521 80.8499 101.264 80.8499 102.18V102.964C80.8499 107.815 78.9609 112.374 75.5317 115.804C68.5211 122.815 57.154 122.883 50.0584 116.006C42.8579 109.027 42.7618 97.2164 49.853 90.1252C53.2821 86.6961 57.8418 84.8071 62.6929 84.8071H63.4757C64.3931 84.8071 65.135 84.0641 65.135 83.1477V81.5789C65.135 80.6625 64.3931 79.9195 63.4757 79.9195H62.6918C60.5632 79.9195 58.481 80.2132 56.4838 80.7674C55.976 77.9919 56.5114 75.0673 58.0483 72.6406L61.5337 76.1261C62.1829 76.7741 63.2328 76.7741 63.8809 76.1261L64.4362 75.5718C66.1596 73.8473 68.9561 73.8473 70.6817 75.5718C72.1136 77.0038 72.3532 79.1732 71.406 80.8568C71.0449 81.4983 71.1675 82.302 71.6886 82.8231L73.1327 84.2661C73.6516 84.7861 74.4575 84.9086 75.0978 84.5487C76.7804 83.6026 78.9509 83.841 80.3828 85.2741C81.8159 86.7049 82.0544 88.8754 81.1071 90.5591C80.7472 91.1994 80.8697 92.0043 81.3897 92.5243L82.8338 93.9683C83.3538 94.4883 84.1586 94.612 84.8001 94.251C86.4826 93.3037 88.6521 93.5433 90.0851 94.9752C91.8096 96.6997 91.8096 99.4962 90.0851 101.221L89.5298 101.776C88.8817 102.424 88.8817 103.475 89.5298 104.123L93.0152 107.609C90.5885 109.145 87.6651 109.681 84.8884 109.172Z" fill="white"/>
<path fill-rule="evenodd" clip-rule="evenodd" d="M84.8886 109.172C85.4439 107.175 85.7376 105.093 85.7376 102.965V102.18C85.7376 101.264 84.9946 100.521 84.0782 100.521H82.5105C81.5942 100.521 80.85 101.264 80.85 102.18V102.964C80.85 107.815 78.961 112.373 75.5319 115.804C68.5213 122.814 57.1542 122.883 50.0586 116.006C42.8581 109.027 42.762 97.2162 49.8532 90.125C53.2823 86.6959 57.842 84.8069 62.6931 84.8069H63.4759C64.3933 84.8069 65.1352 84.0639 65.1352 83.1475V81.5787C65.1352 80.6623 64.3933 79.9193 63.4759 79.9193H62.692C60.5634 79.9193 58.4812 80.213 56.484 80.7672C55.9762 77.9917 56.5116 75.0671 58.0485 72.6404L61.5339 76.1259C62.1831 76.7739 63.233 76.7739 63.8811 76.1259L64.4364 75.5716C66.1598 73.8471 68.9563 73.8471 70.6819 75.5716C72.1138 77.0036 72.3534 79.173 71.4061 80.8566C71.0451 81.4981 71.1677 82.3018 71.6888 82.8229L73.1329 84.2659C73.6518 84.7859 74.4577 84.9084 75.098 84.5485C76.7806 83.6024 78.9511 83.8408 80.383 85.2739C81.8161 86.7047 82.0545 88.8752 81.1073 90.5589C80.7474 91.1992 80.8699 92.0041 81.3899 92.5241L82.834 93.9681C83.354 94.4881 84.1588 94.6118 84.8003 94.2508C86.4828 93.3035 88.6522 93.5431 90.0853 94.975C91.8098 96.6995 91.8098 99.496 90.0853 101.221L89.53 101.776C88.8819 102.424 88.8819 103.475 89.53 104.123L93.0154 107.608C90.5887 109.145 87.6652 109.681 84.8886 109.172ZM98.9463 106.626L95.038 102.718C97.0694 99.1659 96.5704 94.5489 93.5409 91.5194C91.6232 89.6006 89.0674 88.6975 86.5513 88.8079C86.6606 86.2896 85.7575 83.736 83.8398 81.8183C81.921 79.8983 79.3662 78.9952 76.849 79.1056C76.9594 76.5884 76.0552 74.0337 74.1375 72.116C71.1081 69.0854 66.491 68.5864 62.9382 70.6178L59.031 66.7107C58.3819 66.0626 57.3319 66.0626 56.6839 66.7107L56.1285 67.2649C52.0425 71.3509 50.5874 77.2354 51.9001 82.5966C49.7737 83.7271 47.8119 85.1955 46.0874 86.984C37.3843 96.0183 37.5742 110.542 46.4981 119.36C55.4915 128.244 70.036 128.211 78.9875 119.259C80.6359 117.611 82.0038 115.755 83.0681 113.751C83.0669 113.754 83.0658 113.755 83.0647 113.757C88.4237 115.07 94.306 113.612 98.3909 109.527L98.9452 108.972C99.5943 108.324 99.5943 107.274 98.9463 106.626Z" fill="#19194B"/>
<path fill-rule="evenodd" clip-rule="evenodd" d="M76.7374 103.474L71.8863 98.623C71.2515 97.9882 70.2214 97.9871 69.5855 98.623C68.9507 99.2589 68.9507 100.289 69.5855 100.924L74.4366 105.775C75.0725 106.41 76.1026 106.41 76.7374 105.775C77.3733 105.14 77.3722 104.109 76.7374 103.474Z" fill="#19194B"/>
<path fill-rule="evenodd" clip-rule="evenodd" d="M64.7339 96.0718C65.3698 96.7066 66.3999 96.7066 67.0347 96.0718C67.6706 95.437 67.6695 94.4058 67.0347 93.771L62.1836 88.9199C61.5488 88.2851 60.5187 88.284 59.8828 88.9199C59.2469 89.5558 59.248 90.5859 59.8828 91.2207L64.7339 96.0718Z" fill="#19194B"/>
<path fill-rule="evenodd" clip-rule="evenodd" d="M62.694 113.607C59.9439 113.607 57.7148 115.836 57.7148 118.586C57.7148 121.336 59.9439 123.565 62.694 123.565C65.4431 123.565 67.6721 121.336 67.6721 118.586C67.6721 115.836 65.4431 113.607 62.694 113.607Z" fill="#19194B"/>
</svg>
