<svg class="icon"
     viewBox="0 0 24 24"
     fill="none"
     xmlns="http://www.w3.org/2000/svg"
>
  <g clip-path="url(#clip0)">
    <path d="M24 12C24 11.7348 23.8946 11.4804 23.7071 11.2929C23.5196 11.1054 23.2652 11 23 11H22.1C22.0525 11.0009 22.0058 10.9882 21.9653 10.9635C21.9247 10.9388 21.892 10.9031 21.8711 10.8605C21.8501 10.8179 21.8417 10.7702 21.8468 10.7231C21.8519 10.6759 21.8704 10.6311 21.9 10.594L22.276 10.125C22.4418 9.91787 22.5184 9.65337 22.4892 9.38969C22.4599 9.12602 22.3271 8.88476 22.12 8.719C21.9129 8.55324 21.6484 8.47655 21.3847 8.50581C21.121 8.53506 20.8798 8.66787 20.714 8.875L19.314 10.625C19.2203 10.7421 19.1014 10.8366 18.9662 10.9015C18.831 10.9664 18.683 11.0001 18.533 11C18.3911 10.9984 18.2555 10.9409 18.1557 10.84C18.056 10.7391 18 10.6029 18 10.461V9.5C18 9.32745 17.9553 9.15784 17.8703 9.00766C17.7853 8.85749 17.6629 8.73186 17.515 8.643C17.4594 8.60981 17.4122 8.56436 17.3768 8.51013C17.3415 8.45589 17.319 8.3943 17.3111 8.33006C17.3032 8.26581 17.3101 8.20061 17.3312 8.13942C17.3523 8.07823 17.3871 8.02268 17.433 7.977L18.591 6.819C18.6971 6.71285 18.8257 6.63194 18.9673 6.58225C19.1089 6.53257 19.2599 6.5154 19.409 6.532L21.636 6.779C21.6731 6.78385 21.7106 6.78619 21.748 6.786C22.0036 6.78565 22.2494 6.68743 22.4348 6.51151C22.6203 6.33559 22.7313 6.09533 22.7452 5.84008C22.759 5.58484 22.6745 5.33399 22.5092 5.13907C22.3438 4.94415 22.1101 4.81996 21.856 4.792L21.256 4.725C21.2095 4.71925 21.1656 4.70056 21.1292 4.67106C21.0928 4.64155 21.0654 4.60241 21.0502 4.55811C21.035 4.51381 21.0325 4.46612 21.0431 4.42049C21.0537 4.37485 21.0769 4.3331 21.11 4.3L21.746 3.664C21.8415 3.57175 21.9177 3.46141 21.9701 3.3394C22.0225 3.2174 22.0501 3.08618 22.0513 2.9534C22.0524 2.82062 22.0271 2.68894 21.9768 2.56605C21.9265 2.44315 21.8523 2.3315 21.7584 2.23761C21.6645 2.14371 21.5529 2.06946 21.43 2.01918C21.3071 1.9689 21.1754 1.9436 21.0426 1.94475C20.9098 1.9459 20.7786 1.97349 20.6566 2.0259C20.5346 2.07831 20.4242 2.15449 20.332 2.25L19.696 2.886C19.6626 2.91936 19.6205 2.94261 19.5745 2.95305C19.5285 2.96349 19.4805 2.9607 19.436 2.945C19.3915 2.92964 19.3524 2.9019 19.3232 2.86505C19.2939 2.82821 19.2758 2.78378 19.271 2.737L19.204 2.137C19.1932 2.00365 19.1557 1.87383 19.0938 1.75522C19.0319 1.63662 18.9468 1.53164 18.8436 1.4465C18.7404 1.36136 18.6212 1.2978 18.493 1.25958C18.3648 1.22135 18.2302 1.20924 18.0972 1.22396C17.9643 1.23869 17.8356 1.27994 17.7188 1.34529C17.6021 1.41063 17.4997 1.49874 17.4176 1.60439C17.3355 1.71004 17.2755 1.83109 17.241 1.96037C17.2066 2.08964 17.1984 2.22451 17.217 2.357L17.464 4.584C17.4806 4.73291 17.4635 4.88364 17.414 5.02505C17.3645 5.16646 17.2838 5.29494 17.178 5.401L15.556 7.026C15.4771 7.10486 15.3741 7.15509 15.2634 7.16868C15.1527 7.18227 15.0406 7.15844 14.945 7.101L13.405 6.177C13.2824 6.10208 13.1812 5.99684 13.1112 5.87142C13.0411 5.74601 13.0045 5.60466 13.005 5.461C13.0049 5.31103 13.0386 5.16297 13.1035 5.02778C13.1684 4.89259 13.2629 4.77373 13.38 4.68L15.13 3.28C15.3371 3.11424 15.4699 2.87298 15.4992 2.60931C15.5284 2.34563 15.4518 2.08113 15.286 1.874C15.1202 1.66687 14.879 1.53406 14.6153 1.50481C14.3516 1.47555 14.0871 1.55224 13.88 1.718L13.411 2.094C13.3744 2.12482 13.3297 2.14449 13.2822 2.15067C13.2348 2.15684 13.1866 2.14927 13.1433 2.12884C13.1 2.10841 13.0635 2.07599 13.0381 2.03542C13.0127 1.99486 12.9995 1.94786 13 1.9V1C13 0.734784 12.8946 0.48043 12.7071 0.292893C12.5196 0.105357 12.2652 0 12 0C11.7348 0 11.4804 0.105357 11.2929 0.292893C11.1054 0.48043 11 0.734784 11 1V1.9C11.0009 1.94747 10.9882 1.99421 10.9635 2.03475C10.9388 2.07529 10.9031 2.10797 10.8605 2.12894C10.8179 2.14992 10.7702 2.15834 10.7231 2.15322C10.6759 2.14809 10.6311 2.12963 10.594 2.1L10.125 1.724C9.91787 1.55824 9.65337 1.48155 9.38969 1.51081C9.12602 1.54006 8.88476 1.67287 8.719 1.88C8.55324 2.08713 8.47655 2.35163 8.50581 2.61531C8.53506 2.87898 8.66787 3.12024 8.875 3.286L10.625 4.686C10.7413 4.7791 10.8353 4.89699 10.9002 5.03108C10.9651 5.16516 10.9992 5.31205 11 5.461C11.0005 5.60466 10.9639 5.74601 10.8938 5.87142C10.8238 5.99684 10.7226 6.10208 10.6 6.177L9.01 7.131C8.92858 7.17979 8.8332 7.19999 8.739 7.18839C8.64479 7.1768 8.55716 7.13407 8.49 7.067L6.822 5.4C6.71617 5.29394 6.63552 5.16546 6.58602 5.02405C6.53652 4.88264 6.51942 4.73191 6.536 4.583L6.783 2.36C6.80756 2.22504 6.8041 2.08647 6.77282 1.95291C6.74154 1.81935 6.68311 1.69365 6.60117 1.58364C6.51924 1.47362 6.41554 1.38164 6.29654 1.31341C6.17754 1.24518 6.04577 1.20217 5.90943 1.18704C5.77309 1.17191 5.6351 1.185 5.50403 1.22548C5.37297 1.26597 5.25163 1.33299 5.14757 1.42237C5.04352 1.51175 4.95896 1.62159 4.89917 1.74504C4.83937 1.8685 4.80562 2.00294 4.8 2.14L4.733 2.74C4.72815 2.78678 4.71005 2.83121 4.68082 2.86805C4.65159 2.9049 4.61245 2.93264 4.568 2.948C4.52351 2.9637 4.47549 2.96649 4.42948 2.95605C4.38347 2.94561 4.34136 2.92236 4.308 2.889L3.668 2.25C3.4794 2.06784 3.2268 1.96705 2.9646 1.96933C2.7024 1.9716 2.45159 2.07677 2.26618 2.26218C2.08077 2.44759 1.9756 2.6984 1.97333 2.9606C1.97105 3.2228 2.07184 3.4754 2.254 3.664L2.89 4.3C2.92322 4.3333 2.94637 4.37529 2.9568 4.42116C2.96722 4.46702 2.9645 4.5149 2.94894 4.55928C2.93338 4.60367 2.90561 4.64276 2.86883 4.67208C2.83205 4.70139 2.78774 4.71974 2.741 4.725L2.141 4.792C1.88692 4.81996 1.65319 4.94415 1.48782 5.13907C1.32245 5.33399 1.23801 5.58484 1.25184 5.84008C1.26566 6.09533 1.3767 6.33559 1.56215 6.51151C1.74761 6.68743 1.99338 6.78565 2.249 6.786C2.28645 6.78619 2.32387 6.78385 2.361 6.779L4.588 6.532C4.73714 6.5154 4.88811 6.53257 5.02972 6.58225C5.17132 6.63194 5.29992 6.71285 5.406 6.819L6.567 7.977C6.61286 8.02268 6.64769 8.07823 6.66881 8.13942C6.68994 8.20061 6.69681 8.26581 6.6889 8.33006C6.68099 8.3943 6.65851 8.45589 6.62317 8.51013C6.58783 8.56436 6.54057 8.60981 6.485 8.643C6.33709 8.73186 6.21469 8.85749 6.1297 9.00766C6.04471 9.15784 6.00003 9.32745 6 9.5V10.461C6 10.604 5.94321 10.741 5.84213 10.8421C5.74105 10.9432 5.60395 11 5.461 11C5.31103 11.0001 5.16297 10.9664 5.02778 10.9015C4.89259 10.8366 4.77373 10.7421 4.68 10.625L3.28 8.875C3.11424 8.66787 2.87298 8.53506 2.60931 8.50581C2.34563 8.47655 2.08113 8.55324 1.874 8.719C1.66687 8.88476 1.53406 9.12602 1.50481 9.38969C1.47555 9.65337 1.55224 9.91787 1.718 10.125L2.094 10.594C2.1233 10.6307 2.14168 10.6749 2.14702 10.7216C2.15237 10.7682 2.14446 10.8154 2.12422 10.8578C2.10397 10.9002 2.0722 10.936 2.03255 10.9611C1.99289 10.9863 1.94696 10.9997 1.9 11H1C0.734784 11 0.48043 11.1054 0.292893 11.2929C0.105357 11.4804 0 11.7348 0 12C0 12.2652 0.105357 12.5196 0.292893 12.7071C0.48043 12.8946 0.734784 13 1 13H1.9C1.94747 12.9991 1.99421 13.0118 2.03475 13.0365C2.07529 13.0612 2.10797 13.0969 2.12894 13.1395C2.14992 13.1821 2.15834 13.2298 2.15322 13.2769C2.14809 13.3241 2.12963 13.3689 2.1 13.406L1.724 13.875C1.55824 14.0821 1.48155 14.3466 1.51081 14.6103C1.54006 14.874 1.67287 15.1152 1.88 15.281C2.08713 15.4468 2.35163 15.5234 2.61531 15.4942C2.87898 15.4649 3.12024 15.3321 3.286 15.125L4.686 13.375C4.7791 13.2587 4.89699 13.1647 5.03108 13.0998C5.16516 13.0349 5.31205 13.0008 5.461 13C5.60395 13 5.74105 13.0568 5.84213 13.1579C5.94321 13.259 6 13.396 6 13.539V14.5C6.00003 14.6726 6.04471 14.8422 6.1297 14.9923C6.21469 15.1425 6.33709 15.2681 6.485 15.357C6.54057 15.3902 6.58783 15.4356 6.62317 15.4899C6.65851 15.5441 6.68099 15.6057 6.6889 15.6699C6.69681 15.7342 6.68994 15.7994 6.66881 15.8606C6.64769 15.9218 6.61286 15.9773 6.567 16.023L5.409 17.181C5.30292 17.2871 5.17432 17.3681 5.03272 17.4177C4.89111 17.4674 4.74014 17.4846 4.591 17.468L2.364 17.221C2.23151 17.2024 2.09664 17.2106 1.96737 17.245C1.83809 17.2795 1.71704 17.3395 1.61139 17.4216C1.50574 17.5037 1.41763 17.6061 1.35229 17.7228C1.28694 17.8396 1.24569 17.9683 1.23096 18.1012C1.21624 18.2342 1.22835 18.3688 1.26658 18.497C1.3048 18.6252 1.36836 18.7444 1.4535 18.8476C1.53864 18.9508 1.64362 19.0359 1.76222 19.0978C1.88083 19.1597 2.01065 19.1972 2.144 19.208L2.744 19.275C2.79074 19.2803 2.83505 19.2986 2.87183 19.3279C2.90861 19.3572 2.93638 19.3963 2.95194 19.4407C2.9675 19.4851 2.97022 19.533 2.9598 19.5788C2.94937 19.6247 2.92622 19.6667 2.893 19.7L2.257 20.336C2.15652 20.4269 2.07554 20.5372 2.01899 20.6603C1.96243 20.7834 1.93148 20.9167 1.928 21.0521C1.92452 21.1875 1.9486 21.3222 1.99876 21.4481C2.04892 21.5739 2.12413 21.6882 2.21982 21.7841C2.3155 21.88 2.42967 21.9554 2.5554 22.0059C2.68113 22.0563 2.81579 22.0807 2.95122 22.0775C3.08665 22.0743 3.22001 22.0436 3.34323 21.9873C3.46644 21.931 3.57693 21.8503 3.668 21.75L4.304 21.114C4.33736 21.0806 4.37947 21.0574 4.42548 21.0469C4.47149 21.0365 4.51951 21.0393 4.564 21.055C4.60845 21.0704 4.64759 21.0981 4.67682 21.1349C4.70605 21.1718 4.72415 21.2162 4.729 21.263L4.796 21.863C4.82304 22.1073 4.93914 22.3332 5.12213 22.4973C5.30511 22.6615 5.54216 22.7525 5.788 22.753C5.82541 22.753 5.8628 22.751 5.9 22.747C6.16268 22.7176 6.40302 22.5853 6.56849 22.3792C6.73395 22.1731 6.81108 21.9098 6.783 21.647L6.536 19.42C6.51942 19.2711 6.53652 19.1204 6.58602 18.979C6.63552 18.8375 6.71617 18.7091 6.822 18.603L8.444 16.981C8.52289 16.9021 8.62588 16.8519 8.73659 16.8383C8.8473 16.8247 8.95938 16.8486 9.055 16.906L10.595 17.83C10.7176 17.9049 10.8188 18.0102 10.8888 18.1356C10.9589 18.261 10.9955 18.4023 10.995 18.546C10.9951 18.696 10.9614 18.844 10.8965 18.9792C10.8316 19.1144 10.7371 19.2333 10.62 19.327L8.87 20.727C8.76744 20.8091 8.68204 20.9105 8.6187 21.0256C8.55535 21.1407 8.51529 21.2671 8.50081 21.3977C8.48632 21.5283 8.49769 21.6604 8.53427 21.7865C8.57085 21.9127 8.63192 22.0304 8.714 22.133C8.79608 22.2356 8.89755 22.321 9.01263 22.3843C9.1277 22.4476 9.25413 22.4877 9.38469 22.5022C9.51525 22.5167 9.64738 22.5053 9.77355 22.4687C9.89971 22.4321 10.0174 22.3711 10.12 22.289L10.589 21.913C10.6261 21.8834 10.6709 21.8649 10.7181 21.8598C10.7652 21.8547 10.8129 21.8631 10.8555 21.8841C10.8981 21.905 10.9338 21.9377 10.9585 21.9783C10.9832 22.0188 10.9959 22.0655 10.995 22.113V23C10.995 23.2652 11.1004 23.5196 11.2879 23.7071C11.4754 23.8946 11.7298 24 11.995 24C12.2602 24 12.5146 23.8946 12.7021 23.7071C12.8896 23.5196 12.995 23.2652 12.995 23V22.1C12.9941 22.0525 13.0068 22.0058 13.0315 21.9653C13.0562 21.9247 13.0919 21.892 13.1345 21.8711C13.1771 21.8501 13.2248 21.8417 13.2719 21.8468C13.3191 21.8519 13.3639 21.8704 13.401 21.9L13.87 22.276C14.0771 22.4418 14.3416 22.5184 14.6053 22.4892C14.869 22.4599 15.1102 22.3271 15.276 22.12C15.4418 21.9129 15.5184 21.6484 15.4892 21.3847C15.4599 21.121 15.3271 20.8798 15.12 20.714L13.37 19.314C13.2546 19.2204 13.1616 19.1023 13.0976 18.9682C13.0336 18.8342 13.0002 18.6876 13 18.539C12.9995 18.3953 13.0361 18.254 13.1062 18.1286C13.1762 18.0032 13.2774 17.8979 13.4 17.823L14.94 16.899C15.0356 16.8416 15.1477 16.8177 15.2584 16.8313C15.3691 16.8449 15.4721 16.8951 15.551 16.974L17.178 18.6C17.2838 18.7061 17.3645 18.8345 17.414 18.976C17.4635 19.1174 17.4806 19.2681 17.464 19.417L17.217 21.644C17.1889 21.9068 17.266 22.1701 17.4315 22.3762C17.597 22.5823 17.8373 22.7146 18.1 22.744C18.1372 22.748 18.1746 22.75 18.212 22.75C18.4578 22.7495 18.6949 22.6585 18.8779 22.4943C19.0609 22.3302 19.177 22.1043 19.204 21.86L19.271 21.26C19.2758 21.2132 19.2939 21.1688 19.3232 21.1319C19.3524 21.0951 19.3915 21.0674 19.436 21.052C19.4805 21.0363 19.5285 21.0335 19.5745 21.0439C19.6205 21.0544 19.6626 21.0776 19.696 21.111L20.332 21.747C20.4242 21.8425 20.5346 21.9187 20.6566 21.9711C20.7786 22.0235 20.9098 22.0511 21.0426 22.0522C21.1754 22.0534 21.3071 22.0281 21.43 21.9778C21.5529 21.9275 21.6645 21.8533 21.7584 21.7594C21.8523 21.6655 21.9265 21.5539 21.9768 21.431C22.0271 21.3081 22.0524 21.1764 22.0513 21.0436C22.0501 20.9108 22.0225 20.7796 21.9701 20.6576C21.9177 20.5356 21.8415 20.4252 21.746 20.333L21.11 19.7C21.0768 19.6667 21.0536 19.6247 21.0432 19.5788C21.0328 19.533 21.0355 19.4851 21.0511 19.4407C21.0666 19.3963 21.0944 19.3572 21.1312 19.3279C21.168 19.2986 21.2123 19.2803 21.259 19.275L21.859 19.208C21.9923 19.1972 22.1222 19.1597 22.2408 19.0978C22.3594 19.0359 22.4644 18.9508 22.5495 18.8476C22.6346 18.7444 22.6982 18.6252 22.7364 18.497C22.7746 18.3688 22.7868 18.2342 22.772 18.1012C22.7573 17.9683 22.7161 17.8396 22.6507 17.7228C22.5854 17.6061 22.4973 17.5037 22.3916 17.4216C22.286 17.3395 22.1649 17.2795 22.0356 17.245C21.9064 17.2106 21.7715 17.2024 21.639 17.221L19.412 17.468C19.2629 17.4846 19.1119 17.4674 18.9703 17.4177C18.8287 17.3681 18.7001 17.2871 18.594 17.181L17.436 16.023C17.3901 15.9773 17.3553 15.9218 17.3342 15.8606C17.3131 15.7994 17.3062 15.7342 17.3141 15.6699C17.322 15.6057 17.3445 15.5441 17.3798 15.4899C17.4152 15.4356 17.4624 15.3902 17.518 15.357C17.6654 15.2678 17.7872 15.142 17.8716 14.9918C17.9561 14.8417 18.0003 14.6723 18 14.5V13.539C18 13.396 18.0568 13.259 18.1579 13.1579C18.259 13.0568 18.396 13 18.539 13C18.689 12.9999 18.837 13.0336 18.9722 13.0985C19.1074 13.1634 19.2263 13.2579 19.32 13.375L20.72 15.125C20.8021 15.2276 20.9035 15.313 21.0186 15.3763C21.1337 15.4396 21.2601 15.4797 21.3907 15.4942C21.5213 15.5087 21.6534 15.4973 21.7795 15.4607C21.9057 15.4241 22.0234 15.3631 22.126 15.281C22.2286 15.1989 22.314 15.0975 22.3773 14.9824C22.4406 14.8673 22.4807 14.7409 22.4952 14.6103C22.5097 14.4797 22.4983 14.3476 22.4617 14.2215C22.4251 14.0953 22.3641 13.9776 22.282 13.875L21.906 13.406C21.8767 13.3693 21.8583 13.3251 21.853 13.2784C21.8476 13.2318 21.8555 13.1846 21.8758 13.1422C21.896 13.0998 21.9278 13.064 21.9675 13.0389C22.0071 13.0137 22.053 13.0003 22.1 13H23C23.2652 13 23.5196 12.8946 23.7071 12.7071C23.8946 12.5196 24 12.2652 24 12ZM16 13.651C15.9998 13.7372 15.9774 13.822 15.9348 13.897C15.8922 13.972 15.831 14.0347 15.757 14.079L12.257 16.179C12.1793 16.2255 12.0905 16.2501 12 16.2501C11.9095 16.2501 11.8207 16.2255 11.743 16.179L8.243 14.079C8.16902 14.0347 8.10777 13.972 8.06519 13.897C8.02261 13.822 8.00015 13.7372 8 13.651V10.351C8.00015 10.2648 8.02261 10.18 8.06519 10.105C8.10777 10.03 8.16902 9.96733 8.243 9.923L11.743 7.823C11.8207 7.77647 11.9095 7.75189 12 7.75189C12.0905 7.75189 12.1793 7.77647 12.257 7.823L15.757 9.923C15.831 9.96733 15.8922 10.03 15.9348 10.105C15.9774 10.18 15.9998 10.2648 16 10.351V13.651Z"
          fill="#00A0DF"
    />
  </g>
  <defs>
    <clipPath id="clip0">
      <rect width="24" height="24" fill="white"/>
    </clipPath>
  </defs>
</svg>
