<svg class="icon"
     viewBox="0 0 40 40"
     fill="none"
     xmlns="http://www.w3.org/2000/svg"
>
    <path fill-rule="evenodd" clip-rule="evenodd" d="M20 33.5C22.7614 33.5 25 31.2614 25 28.5L25 23C25 22.4477 25.4477 22 26 22C26.5523 22 27 22.4477 27 23L27 28.5C27 32.366 23.866 35.5 20 35.5C16.134 35.5 13 32.366 13 28.5L13 23C13 22.4477 13.4477 22 14 22C14.5523 22 15 22.4477 15 23L15 28.5C15 31.2614 17.2386 33.5 20 33.5Z" fill="url(#speaker-paint0_linear)"/>
    <path d="M2 18.0624C2 16.2552 3.21175 14.6725 4.95636 14.201L33.9564 6.36315C36.4988 5.67599 39 7.5909 39 10.2246V29.7754C39 32.4091 36.4988 34.324 33.9564 33.6369L4.95636 25.799C3.21176 25.3275 2 23.7448 2 21.9376V18.0624Z" fill="url(#speaker-paint1_linear)"/>
    <rect y="14" width="3" height="12" rx="1.5" fill="url(#speaker-paint2_linear)"/>
    <rect x="37" y="4" width="3" height="32" rx="1.5" fill="url(#speaker-paint3_linear)"/>
    <defs>
        <linearGradient id="speaker-paint0_linear" x1="20" y1="35.5" x2="21.6542" y2="7.96475" gradientUnits="userSpaceOnUse">
            <stop stop-color="#EB4B68"/>
            <stop offset="1" stop-color="#CA365F"/>
        </linearGradient>
        <linearGradient id="speaker-paint1_linear" x1="-32.5" y1="117" x2="49.5479" y2="-48.823" gradientUnits="userSpaceOnUse">
            <stop stop-color="white"/>
            <stop offset="1" stop-color="#DFE1E6"/>
        </linearGradient>
        <linearGradient id="speaker-paint2_linear" x1="1.5" y1="14" x2="-4.26338" y2="37.1279" gradientUnits="userSpaceOnUse">
            <stop stop-color="#EB4B68"/>
            <stop offset="1" stop-color="#CA365F"/>
        </linearGradient>
        <linearGradient id="speaker-paint3_linear" x1="38.5" y1="4" x2="8.30482" y2="49.4389" gradientUnits="userSpaceOnUse">
            <stop stop-color="#EB4B68"/>
            <stop offset="1" stop-color="#CA365F"/>
        </linearGradient>
    </defs>
</svg>
