<svg class="icon" viewBox="0 0 32 32" fill="none" xmlns="http://www.w3.org/2000/svg">
<circle cx="16.3137" cy="16.3137" r="15.0588" fill="#FEF8DB"/>
<path d="M26.1005 13.5208C26.0092 13.2756 25.8453 13.0641 25.6307 12.9145C25.416 12.7649 25.1609 12.6843 24.8992 12.6835H19.6989C19.6104 12.6836 19.524 12.6562 19.4518 12.6051C19.3796 12.5539 19.325 12.4816 19.2956 12.3982L17.4289 7.10724C17.3374 6.86269 17.1735 6.65191 16.959 6.50309C16.7445 6.35428 16.4896 6.27454 16.2285 6.27454C15.9674 6.27454 15.7126 6.35428 15.4981 6.50309C15.2836 6.65191 15.1196 6.86269 15.0282 7.10724L15.0239 7.1209L13.1614 12.3982C13.1321 12.4815 13.0777 12.5537 13.0056 12.6048C12.9335 12.6559 12.8474 12.6834 12.759 12.6835H7.55695C7.29366 12.6833 7.03669 12.7642 6.82101 12.9152C6.60532 13.0662 6.44138 13.28 6.35148 13.5275C6.26159 13.775 6.2501 14.0441 6.31858 14.2984C6.38706 14.5526 6.53219 14.7796 6.73422 14.9484L11.1631 18.6221C11.2294 18.677 11.2775 18.7507 11.3011 18.8335C11.3247 18.9163 11.3228 19.0043 11.2956 19.086L9.4348 24.6657C9.3488 24.9237 9.3471 25.2023 9.42995 25.4613C9.51279 25.7203 9.67588 25.9463 9.89562 26.1065C10.1154 26.2667 10.3804 26.3528 10.6523 26.3524C10.9243 26.3521 11.189 26.2652 11.4083 26.1044L15.9756 22.7554C16.0489 22.7017 16.1373 22.6728 16.2281 22.6728C16.3189 22.6728 16.4073 22.7017 16.4806 22.7554L21.0462 26.1035C21.2654 26.2649 21.5303 26.3522 21.8024 26.353C22.0746 26.3537 22.34 26.2677 22.56 26.1075C22.7801 25.9473 22.9434 25.7212 23.0264 25.462C23.1093 25.2028 23.1076 24.9239 23.0214 24.6657L21.1606 19.0825C21.1334 19.0009 21.1315 18.9129 21.1551 18.8301C21.1787 18.7473 21.2268 18.6736 21.2931 18.6186L25.7305 14.9398C25.93 14.7696 26.0724 14.5422 26.1385 14.2885C26.2047 14.0347 26.1914 13.7667 26.1005 13.5208Z" fill="#FAC34B"/>
<path d="M31.8817 3.39668C31.8389 3.28174 31.7621 3.1826 31.6615 3.11247C31.5609 3.04234 31.4413 3.00458 31.3186 3.00421H28.8809C28.8395 3.00424 28.799 2.99139 28.7651 2.96743C28.7313 2.94347 28.7057 2.90958 28.6919 2.87046L27.8169 0.390328C27.774 0.275697 27.6972 0.176892 27.5966 0.107136C27.4961 0.0373794 27.3766 0 27.2542 0C27.1318 0 27.0124 0.0373794 26.9118 0.107136C26.8113 0.176892 26.7344 0.275697 26.6916 0.390328L26.6896 0.396735L25.8165 2.87046C25.8028 2.90952 25.7772 2.94336 25.7435 2.96731C25.7097 2.99127 25.6693 3.00416 25.6279 3.00421H23.1894C23.066 3.00412 22.9455 3.04205 22.8444 3.11283C22.7433 3.18361 22.6665 3.28382 22.6244 3.39982C22.5822 3.51583 22.5768 3.64199 22.6089 3.76116C22.641 3.88033 22.7091 3.98673 22.8038 4.06587L24.8798 5.7879C24.9109 5.81367 24.9334 5.84822 24.9445 5.88703C24.9556 5.92583 24.9547 5.96708 24.9419 6.00536L24.0697 8.62085C24.0293 8.74178 24.0286 8.87239 24.0674 8.99381C24.1062 9.11522 24.1827 9.22113 24.2857 9.29622C24.3887 9.37131 24.5129 9.41169 24.6404 9.41152C24.7678 9.41134 24.892 9.37062 24.9947 9.29524L27.1357 7.72539C27.17 7.70024 27.2115 7.68668 27.254 7.68668C27.2966 7.68668 27.338 7.70024 27.3724 7.72539L29.5125 9.29484C29.6152 9.37047 29.7394 9.41143 29.867 9.41176C29.9946 9.4121 30.119 9.37181 30.2221 9.29672C30.3253 9.22163 30.4018 9.11565 30.4407 8.99413C30.4796 8.87261 30.4788 8.74187 30.4384 8.62085L29.5661 6.00376C29.5534 5.96548 29.5525 5.92423 29.5635 5.88543C29.5746 5.84662 29.5972 5.81207 29.6282 5.7863L31.7083 4.06186C31.8018 3.98205 31.8685 3.87548 31.8995 3.75653C31.9305 3.63758 31.9243 3.51198 31.8817 3.39668Z" fill="#FAC34B"/>
<path d="M4.33693 22.2909C4.31697 22.2373 4.28112 22.191 4.23417 22.1583C4.18722 22.1256 4.1314 22.1079 4.07417 22.1078H2.93658C2.91723 22.1078 2.89834 22.1018 2.88254 22.0906C2.86674 22.0794 2.8548 22.0636 2.84837 22.0454L2.44003 20.888C2.42002 20.8345 2.38416 20.7884 2.33723 20.7558C2.29031 20.7233 2.23456 20.7058 2.17745 20.7058C2.12034 20.7058 2.06459 20.7233 2.01766 20.7558C1.97074 20.7884 1.93487 20.8345 1.91487 20.888L1.91394 20.891L1.50652 22.0454C1.50011 22.0636 1.4882 22.0794 1.47243 22.0906C1.45667 22.1017 1.43782 22.1078 1.4185 22.1078H0.280542C0.222946 22.1077 0.166735 22.1254 0.119554 22.1585C0.0723725 22.1915 0.0365107 22.2383 0.0168459 22.2924C-0.00281891 22.3465 -0.00533216 22.4054 0.00964795 22.461C0.0246281 22.5166 0.0563744 22.5663 0.100569 22.6032L1.06939 23.4068C1.08389 23.4189 1.09441 23.435 1.09957 23.4531C1.10474 23.4712 1.10432 23.4904 1.09836 23.5083L0.69132 24.7289C0.672509 24.7853 0.672137 24.8463 0.690259 24.9029C0.708381 24.9596 0.744057 25.009 0.792126 25.044C0.840196 25.0791 0.898166 25.0979 0.957653 25.0979C1.01714 25.0978 1.07506 25.0788 1.12303 25.0436L2.12213 24.311C2.13815 24.2993 2.15749 24.2929 2.17736 24.2929C2.19722 24.2929 2.21656 24.2993 2.23258 24.311L3.23131 25.0434C3.27926 25.0787 3.3372 25.0978 3.39674 25.098C3.45628 25.0981 3.51433 25.0793 3.56246 25.0443C3.6106 25.0092 3.64633 24.9598 3.66448 24.9031C3.68262 24.8464 3.68224 24.7853 3.66339 24.7289L3.25635 23.5076C3.25039 23.4897 3.24997 23.4705 3.25514 23.4523C3.2603 23.4342 3.27082 23.4181 3.28532 23.4061L4.25601 22.6013C4.29964 22.5641 4.33079 22.5144 4.34526 22.4589C4.35973 22.4033 4.35683 22.3447 4.33693 22.2909Z" fill="#FAC34B"/>
</svg>
