<svg class="icon"
     viewBox="0 0 40 40"
     fill="none"
     xmlns="http://www.w3.org/2000/svg"
>
    <circle cx="20.3922" cy="20.3922" r="18.8235" fill="#FEF8DB"/>
    <path d="M32.6256 16.9009C32.5115 16.5945 32.3067 16.3301 32.0384 16.1431C31.7701 15.9561 31.4511 15.8553 31.1241 15.8544H24.6236C24.513 15.8545 24.4051 15.8202 24.3148 15.7563C24.2245 15.6924 24.1563 15.602 24.1196 15.4977L21.7861 8.88401C21.6718 8.57833 21.4669 8.31485 21.1988 8.12883C20.9306 7.94282 20.6121 7.84314 20.2857 7.84314C19.9594 7.84314 19.6408 7.94282 19.3726 8.12883C19.1045 8.31485 18.8996 8.57833 18.7853 8.88401L18.7799 8.9011L16.4518 15.4977C16.4152 15.6019 16.3471 15.6921 16.257 15.756C16.167 15.8199 16.0593 15.8542 15.9488 15.8544H9.44624C9.11712 15.8541 8.79591 15.9553 8.52631 16.144C8.2567 16.3328 8.05177 16.6 7.9394 16.9093C7.82703 17.2187 7.81267 17.5551 7.89827 17.8729C7.98387 18.1907 8.16528 18.4744 8.41782 18.6855L13.954 23.2775C14.0368 23.3463 14.0969 23.4384 14.1264 23.5419C14.156 23.6454 14.1535 23.7553 14.1195 23.8574L11.7935 30.8321C11.686 31.1545 11.6839 31.5029 11.7875 31.8266C11.891 32.1504 12.0949 32.4328 12.3696 32.6331C12.6443 32.8333 12.9755 32.941 13.3154 32.9405C13.6554 32.94 13.9863 32.8315 14.2605 32.6305L19.9696 28.4442C20.0611 28.3771 20.1717 28.3409 20.2852 28.3409C20.3987 28.3409 20.5092 28.3771 20.6007 28.4442L26.3077 32.6294C26.5818 32.8311 26.9129 32.9403 27.2531 32.9412C27.5933 32.9421 27.925 32.8346 28.2001 32.6344C28.4752 32.4341 28.6793 32.1515 28.783 31.8275C28.8867 31.5034 28.8845 31.1548 28.7768 30.8321L26.4509 23.8532C26.4168 23.7511 26.4144 23.6411 26.4439 23.5376C26.4735 23.4341 26.5336 23.342 26.6164 23.2733L32.1632 18.6748C32.4125 18.4619 32.5905 18.1777 32.6732 17.8605C32.7559 17.5433 32.7393 17.2084 32.6256 16.9009Z" fill="#FAC34B"/>
    <path d="M39.8521 4.24585C39.7986 4.10218 39.7026 3.97824 39.5768 3.89059C39.451 3.80293 39.3015 3.75572 39.1482 3.75527H36.1011C36.0493 3.75531 35.9987 3.73924 35.9564 3.70929C35.9141 3.67934 35.8821 3.63698 35.8649 3.58807L34.7711 0.48791C34.7175 0.344621 34.6214 0.221115 34.4957 0.13392C34.37 0.0467242 34.2207 0 34.0677 0C33.9148 0 33.7654 0.0467242 33.6397 0.13392C33.514 0.221115 33.418 0.344621 33.3644 0.48791L33.3619 0.495919L32.2706 3.58807C32.2534 3.6369 32.2215 3.6792 32.1793 3.70914C32.1371 3.73909 32.0866 3.7552 32.0348 3.75527H28.9867C28.8325 3.75515 28.6819 3.80256 28.5555 3.89104C28.4291 3.97952 28.3331 4.10478 28.2804 4.24978C28.2277 4.39478 28.221 4.55249 28.2611 4.70145C28.3013 4.85042 28.3863 4.98341 28.5047 5.08233L31.0997 7.23488C31.1386 7.26709 31.1667 7.31028 31.1806 7.35878C31.1944 7.40729 31.1933 7.45885 31.1773 7.5067L30.087 10.7761C30.0367 10.9272 30.0357 11.0905 30.0842 11.2423C30.1327 11.394 30.2283 11.5264 30.3571 11.6203C30.4858 11.7141 30.6411 11.7646 30.8004 11.7644C30.9598 11.7642 31.1149 11.7133 31.2434 11.6191L33.9196 9.65674C33.9625 9.6253 34.0143 9.60835 34.0675 9.60835C34.1207 9.60835 34.1725 9.6253 34.2154 9.65674L36.8906 11.6186C37.019 11.7131 37.1742 11.7643 37.3337 11.7647C37.4932 11.7651 37.6487 11.7148 37.7776 11.6209C37.9065 11.527 38.0023 11.3946 38.0509 11.2427C38.0995 11.0908 38.0984 10.9273 38.0479 10.7761L36.9577 7.50469C36.9417 7.45684 36.9406 7.40529 36.9544 7.35678C36.9682 7.30828 36.9964 7.26509 37.0352 7.23287L39.6353 5.07733C39.7522 4.97756 39.8356 4.84434 39.8744 4.69566C39.9131 4.54697 39.9054 4.38997 39.8521 4.24585Z" fill="#FAC34B"/>
    <path d="M5.42117 27.8637C5.39621 27.7967 5.3514 27.7389 5.29271 27.698C5.23402 27.6571 5.16425 27.635 5.09271 27.6348H3.67073C3.64653 27.6348 3.62293 27.6273 3.60318 27.6134C3.58342 27.5994 3.5685 27.5796 3.56047 27.5568L3.05003 26.11C3.02503 26.0432 2.9802 25.9855 2.92154 25.9449C2.86289 25.9042 2.7932 25.8824 2.72181 25.8824C2.65042 25.8824 2.58074 25.9042 2.52208 25.9449C2.46342 25.9855 2.41859 26.0432 2.39359 26.11L2.39242 26.1138L1.88315 27.5568C1.87513 27.5796 1.86025 27.5993 1.84054 27.6133C1.82083 27.6273 1.79728 27.6348 1.77312 27.6348H0.350677C0.278683 27.6348 0.208419 27.6569 0.149443 27.6982C0.0904657 27.7395 0.0456384 27.7979 0.0210574 27.8656C-0.00352363 27.9333 -0.0066652 28.0068 0.0120599 28.0764C0.0307851 28.1459 0.070468 28.2079 0.125712 28.2541L1.33674 29.2586C1.35486 29.2737 1.36801 29.2938 1.37447 29.3165C1.38093 29.3391 1.3804 29.3632 1.37295 29.3855L0.86415 30.9112C0.840636 30.9817 0.840172 31.0579 0.862824 31.1287C0.885477 31.1996 0.930071 31.2613 0.990158 31.3052C1.05024 31.349 1.12271 31.3725 1.19707 31.3724C1.27142 31.3723 1.34382 31.3485 1.40379 31.3046L2.65266 30.3888C2.67269 30.3742 2.69687 30.3663 2.72169 30.3663C2.74652 30.3663 2.7707 30.3742 2.79073 30.3888L4.03913 31.3043C4.09907 31.3485 4.1715 31.3724 4.24593 31.3725C4.32035 31.3727 4.39291 31.3492 4.45308 31.3054C4.51325 31.2616 4.55792 31.1998 4.5806 31.1289C4.60328 31.058 4.6028 30.9818 4.57924 30.9112L4.07044 29.3845C4.06299 29.3622 4.06246 29.3382 4.06892 29.3155C4.07538 29.2929 4.08853 29.2727 4.10665 29.2577L5.32001 28.2518C5.37455 28.2052 5.41349 28.143 5.43158 28.0737C5.44967 28.0043 5.44603 27.931 5.42117 27.8637Z" fill="#FAC34B"/>
</svg>
