<svg class="icon"
     width="264"
     height="264"
     viewBox="0 0 264 264"
     xmlns="http://www.w3.org/2000/svg"
>
  <g fill="none" fill-rule="evenodd">
    <path fill="#45D1E3"
          d="M163.063 53.159H71.188A9.188 9.188 0 0 0 62 62.347v165.374a9.189 9.189 0 0 0 9.188 9.188h91.875a9.189 9.189 0 0 0 9.188-9.188V62.347a9.188 9.188 0 0 0-9.188-9.188"
    />
    <path fill="#FFFFFF"
          d="M177.056 39.166H85.18a9.188 9.188 0 0 0-9.188 9.188v165.374a9.189 9.189 0 0 0 9.188 9.188h91.875a9.188 9.188 0 0 0 9.188-9.188V48.354a9.187 9.187 0 0 0-9.188-9.188"
    />
    <path fill="#000000"
          d="M97.737 182.797h66.762V60.909H97.737v121.888zm70.131 6.738h-73.5A3.369 3.369 0 0 1 91 186.166V57.541a3.368 3.368 0 0 1 3.368-3.369h73.5a3.37 3.37 0 0 1 3.369 3.369v128.625a3.37 3.37 0 0 1-3.369 3.369zM85.181 42.534a5.826 5.826 0 0 0-5.819 5.819v165.376a5.825 5.825 0 0 0 5.819 5.818h91.874a5.825 5.825 0 0 0 5.819-5.818V48.353a5.826 5.826 0 0 0-5.819-5.819H85.181zm91.874 183.751H85.181c-6.924 0-12.556-5.633-12.556-12.556V48.353c0-6.923 5.632-12.556 12.556-12.556h91.874c6.924 0 12.557 5.633 12.557 12.556v165.376c0 6.923-5.633 12.556-12.557 12.556z"
    />
    <path fill="#45D1E3"
          d="M186.573 65.074c14.656 0 26.538-11.881 26.538-26.537C213.111 23.88 201.23 12 186.573 12s-26.537 11.88-26.537 26.537c0 14.656 11.881 26.537 26.537 26.537"
    />
    <path fill="#FFFFFF"
          d="M181.866 51.577a3.373 3.373 0 0 1-2.414-1.02l-9.414-9.67a3.369 3.369 0 1 1 4.827-4.7l7.001 7.192 16.416-16.862a3.369 3.369 0 1 1 4.827 4.7l-18.829 19.34a3.373 3.373 0 0 1-2.414 1.02"
    />
    <path fill="#000000"
          d="M149.493 207.91h-36.75a3.369 3.369 0 0 1 0-6.738h36.75a3.37 3.37 0 0 1 0 6.738M131.118 150.407c9.717 0 18.288-4.863 23.445-12.278l-1.42-5.68a12.237 12.237 0 0 0-8.002-8.642l-4.95-1.65a2.329 2.329 0 0 0-1.776.127 16.315 16.315 0 0 1-14.594 0 2.329 2.329 0 0 0-1.775-.127l-4.95 1.65a12.237 12.237 0 0 0-8.003 8.642l-1.42 5.68c5.157 7.416 13.728 12.279 23.445 12.279M131.118 93.395c-8.159 0-11.162 6.36-10.083 12.831l.583 3.5a9.63 9.63 0 0 0 19 0l.583-3.5c1.08-6.472-1.925-12.83-10.083-12.83"
    />
  </g>
</svg>
