<svg viewBox="0 0 360 264" fill="none" xmlns="http://www.w3.org/2000/svg">
<rect width="360" height="264" fill="white"/>
<rect x="126" y="41" width="109" height="182" rx="12" fill="white" stroke="#19194B" stroke-width="8"/>
<rect x="134" y="49" width="93" height="138" rx="4" fill="#F4F5F7"/>
<rect x="173" y="195" width="16" height="16" rx="8" fill="#19194B"/>
<g filter="url(#filter0_d)">
<mask id="path-6-outside-1" maskUnits="userSpaceOnUse" x="177.909" y="7.71718" width="94.3054" height="94.3054" fill="black">
<rect fill="white" x="177.909" y="7.71718" width="94.3054" height="94.3054"/>
<path fill-rule="evenodd" clip-rule="evenodd" d="M217.076 83.8808C233.238 88.2115 249.849 78.6206 254.179 62.4594C258.51 46.2981 248.919 29.6865 232.757 25.3559C216.597 21.0258 199.985 30.6164 195.654 46.7776C191.324 62.9389 200.916 79.5508 217.076 83.8808Z"/>
</mask>
<path d="M219.146 76.1534C214.878 75.0099 210.492 77.5426 209.348 81.8103C208.205 86.078 210.737 90.4647 215.005 91.6083L219.146 76.1534ZM215.005 91.6083C219.273 92.7518 223.659 90.2191 224.803 85.9514C225.947 81.6837 223.414 77.297 219.146 76.1534L215.005 91.6083ZM215.005 91.6083C235.435 97.0824 256.433 84.9589 261.907 64.5299L246.452 60.3888C243.265 72.2823 231.041 79.3405 219.146 76.1534L215.005 91.6083ZM261.907 64.5299C267.381 44.1009 255.258 23.1026 234.828 17.6284L230.687 33.0833C242.581 36.2703 249.639 48.4953 246.452 60.3888L261.907 64.5299ZM234.828 17.6284C214.4 12.1549 193.401 24.278 187.927 44.7071L203.382 48.8482C206.569 36.9547 218.795 29.8968 230.687 33.0833L234.828 17.6284ZM187.927 44.7071C182.453 65.1361 194.578 86.1347 215.005 91.6083L219.146 76.1534C207.254 72.9669 200.195 60.7417 203.382 48.8482L187.927 44.7071Z" fill="white" mask="url(#path-6-outside-1)"/>
</g>
<path fill-rule="evenodd" clip-rule="evenodd" d="M217.076 83.8808C233.238 88.2115 249.849 78.6206 254.179 62.4594C258.51 46.2981 248.919 29.6865 232.757 25.3559C216.597 21.0258 199.985 30.6164 195.654 46.7776C191.324 62.9389 200.916 79.5508 217.076 83.8808Z" fill="#66DE7D"/>
<path fill-rule="evenodd" clip-rule="evenodd" d="M215.502 68.1011C214.5 67.8325 213.649 67.1697 213.143 66.2634L205.618 52.8195C204.581 50.9661 205.243 48.6226 207.095 47.5848C208.948 46.5485 211.294 47.2077 212.33 49.0619L217.925 59.0611L241.01 45.3168C242.835 44.2304 245.195 44.8309 246.281 46.6546C247.367 48.4798 246.769 50.8404 244.943 51.9265L218.466 67.6896C217.574 68.2212 216.505 68.3697 215.502 68.1011Z" fill="white"/>
<g filter="url(#filter1_d)">
<path d="M188.333 146.381L188.33 146.377C187.096 144.387 185.233 142.905 183.263 141.746C181.271 140.574 178.905 139.578 176.355 138.678C172.147 137.194 166.977 135.816 161.43 134.339C160.392 134.062 159.342 133.782 158.282 133.498C158.277 133.49 158.272 133.481 158.267 133.472C158.092 133.173 157.889 132.61 157.776 131.805C157.667 131.025 157.673 130.225 157.758 129.588C157.8 129.276 157.853 129.059 157.892 128.938C157.894 128.935 157.895 128.933 157.897 128.931C162.93 121.255 164.884 111.982 163.377 102.948C163.337 100.146 162.725 97.3803 161.579 94.8197L157.928 96.454L161.579 94.8197C160.383 92.1477 158.632 89.7601 156.442 87.8138C154.253 85.8675 151.674 84.4067 148.877 83.5264C146.109 82.655 143.189 82.3717 140.305 82.6938C137.41 82.9115 134.593 83.7308 132.034 85.0997L133.921 88.6267L132.034 85.0997C129.449 86.4827 127.186 88.3958 125.394 90.7139C123.603 93.0321 122.324 95.7027 121.643 98.55L125.534 99.4799L121.643 98.55C120.991 101.28 120.903 104.112 121.383 106.874C121.592 116.018 125.237 124.752 131.602 131.348C131.603 131.349 131.604 131.35 131.605 131.35C131.666 131.463 131.758 131.666 131.857 131.967C132.059 132.578 132.213 133.364 132.251 134.152C132.289 134.965 132.194 135.555 132.078 135.881C132.075 135.889 132.072 135.897 132.07 135.904C131.028 136.408 129.995 136.905 128.975 137.395C123.857 139.857 119.087 142.151 115.266 144.37C112.928 145.728 110.787 147.145 109.047 148.666C107.327 150.17 105.77 151.971 104.926 154.155L104.924 154.16C104.195 156.054 103.627 158.006 103.225 159.995C103.007 161.063 103.042 162.167 103.329 163.218C103.616 164.272 104.146 165.244 104.877 166.054C105.607 166.865 106.516 167.492 107.531 167.888C108.545 168.284 109.638 168.437 110.722 168.337L110.726 168.337L185.262 161.375C186.34 161.274 187.381 160.925 188.302 160.354C189.223 159.783 190 159.006 190.57 158.082L190.58 158.065C191.149 157.133 191.491 156.079 191.579 154.99C191.665 153.904 191.496 152.814 191.086 151.806C190.322 149.924 189.401 148.109 188.333 146.381ZM158.353 133.603C158.354 133.604 158.355 133.604 158.355 133.604C158.355 133.604 158.354 133.604 158.353 133.603ZM157.918 128.867C157.918 128.867 157.916 128.872 157.912 128.881C157.916 128.871 157.918 128.867 157.918 128.867ZM131.567 131.286C131.567 131.286 131.57 131.29 131.575 131.298C131.569 131.29 131.566 131.286 131.567 131.286ZM132.017 136.024C132.017 136.024 132.018 136.024 132.018 136.022C132.018 136.024 132.017 136.024 132.017 136.024Z" stroke="white" stroke-width="8" stroke-linecap="round" stroke-linejoin="round"/>
</g>
<path d="M187.165 155.982C187.408 155.584 187.554 155.135 187.591 154.671C187.628 154.207 187.556 153.74 187.379 153.309C186.7 151.636 185.881 150.022 184.931 148.485C181.892 143.583 170.87 141.026 156.975 137.289C153.223 136.28 153.107 128.669 154.552 126.737C159.091 119.815 160.816 111.436 159.379 103.3C159.387 100.941 158.893 98.608 157.928 96.454C156.964 94.3 155.552 92.3741 153.785 90.8035C152.018 89.2329 149.936 88.0531 147.676 87.3418C145.417 86.6306 143.031 86.4041 140.677 86.6773C138.312 86.8449 136.01 87.5093 133.921 88.6267C131.832 89.7441 130.005 91.289 128.559 93.1598C127.114 95.0305 126.083 97.1845 125.534 99.4799C124.985 101.775 124.932 104.16 125.377 106.476C125.487 114.725 128.741 122.622 134.481 128.57C136.258 130.201 137.555 137.713 134.053 139.388C121.094 145.664 110.736 150.218 108.657 155.597C108.008 157.284 107.502 159.021 107.145 160.792C107.051 161.248 107.066 161.719 107.188 162.168C107.311 162.617 107.537 163.031 107.848 163.377C108.16 163.723 108.549 163.992 108.984 164.162C109.419 164.331 109.888 164.397 110.354 164.354L184.89 157.392C185.353 157.349 185.8 157.199 186.195 156.954C186.59 156.709 186.922 156.376 187.165 155.982Z" fill="#00A0DF"/>
<defs>
<filter id="filter0_d" x="178.613" y="12.3142" width="92.6085" height="92.6085" filterUnits="userSpaceOnUse" color-interpolation-filters="sRGB">
<feFlood flood-opacity="0" result="BackgroundImageFix"/>
<feColorMatrix in="SourceAlpha" type="matrix" values="0 0 0 0 0 0 0 0 0 0 0 0 0 0 0 0 0 0 127 0"/>
<feOffset dy="4"/>
<feGaussianBlur stdDeviation="4"/>
<feColorMatrix type="matrix" values="0 0 0 0 0 0 0 0 0 0 0 0 0 0 0 0 0 0 0.24 0"/>
<feBlend mode="normal" in2="BackgroundImageFix" result="effect1_dropShadow"/>
<feBlend mode="normal" in="SourceGraphic" in2="effect1_dropShadow" result="shape"/>
</filter>
<filter id="filter1_d" x="91.0842" y="74.5649" width="112.516" height="109.802" filterUnits="userSpaceOnUse" color-interpolation-filters="sRGB">
<feFlood flood-opacity="0" result="BackgroundImageFix"/>
<feColorMatrix in="SourceAlpha" type="matrix" values="0 0 0 0 0 0 0 0 0 0 0 0 0 0 0 0 0 0 127 0"/>
<feOffset dy="4"/>
<feGaussianBlur stdDeviation="4"/>
<feColorMatrix type="matrix" values="0 0 0 0 0 0 0 0 0 0 0 0 0 0 0 0 0 0 0.24 0"/>
<feBlend mode="normal" in2="BackgroundImageFix" result="effect1_dropShadow"/>
<feBlend mode="normal" in="SourceGraphic" in2="effect1_dropShadow" result="shape"/>
</filter>
</defs>
</svg>
