<svg viewBox="0 0 360 264" fill="none" xmlns="http://www.w3.org/2000/svg">
  <path fill-rule="evenodd" clip-rule="evenodd"
    d="M151.379 213.052C151.379 214.679 152.71 216 154.35 216H157.153C158.793 216 160.123 214.679 160.123 213.052V186.501H151.379V213.052Z"
    fill="#19194B" />
  <path fill-rule="evenodd" clip-rule="evenodd"
    d="M199.96 186.501V213.052C199.96 214.679 201.289 216 202.929 216H205.734C207.374 216 208.703 214.679 208.703 213.052V186.501H199.96Z"
    fill="#19194B" />
  <path fill-rule="evenodd" clip-rule="evenodd"
    d="M240.111 150.745C238.756 151.092 237.644 152.049 237.109 153.331L236.042 155.883C235.508 157.165 235.613 158.622 236.322 159.818C240.923 167.557 239.74 177.682 233.213 184.157C226.178 191.138 214.87 191.958 206.904 186.067L204.291 185.206H155.707L153.094 186.067C145.134 191.96 133.822 191.138 126.789 184.157C120.26 177.68 119.077 167.557 123.678 159.818C124.391 158.624 124.496 157.165 123.958 155.883L122.893 153.331C122.36 152.049 121.246 151.092 119.89 150.745C111.123 148.503 104.744 140.512 104.744 131.354C104.744 122.197 111.123 114.207 119.89 111.964C121.246 111.617 122.36 110.66 122.893 109.378L123.958 106.826C124.496 105.542 124.391 104.085 123.678 102.89C119.077 95.154 120.262 85.0289 126.789 78.5519C130.677 74.692 135.873 72.714 141.09 72.714C144.607 72.714 148.131 73.6138 151.27 75.4408C152.491 76.1524 153.971 76.2818 155.281 75.7427L157.851 74.6861C159.145 74.1568 160.109 73.0531 160.459 71.7083C162.719 63.0084 170.771 56.6804 179.999 56.6804C189.229 56.6804 197.281 63.0084 199.543 71.7083C199.893 73.0531 200.857 74.1549 202.149 74.6861L204.719 75.7427C206.011 76.274 207.479 76.1701 208.686 75.4663C216.482 70.9007 226.686 72.0749 233.213 78.5519C239.74 85.0269 240.923 95.1521 236.322 102.891C235.613 104.087 235.508 105.544 236.042 106.826L237.109 109.378C237.644 110.66 238.756 111.617 240.111 111.964C248.877 114.207 255.256 122.197 255.256 131.354C255.256 140.512 248.877 148.503 240.111 150.745ZM245.307 104.513C250.116 93.8641 247.982 80.9357 239.398 72.4141C230.811 63.8944 217.782 61.7773 207.05 66.5527C202.864 55.6473 192.143 48 179.999 48C167.859 48 157.136 55.6473 152.95 66.5527C142.218 61.7773 129.191 63.8944 120.604 72.4141C112.018 80.9357 109.886 93.8661 114.695 104.513C103.705 108.667 96 119.305 96 131.354C96 143.404 103.705 154.043 114.695 158.197C109.882 168.843 112.016 181.774 120.604 190.293C126.179 195.825 133.627 198.658 141.102 198.658C146.669 198.656 152.258 197.084 157.094 193.885H202.906C214.236 201.381 229.667 199.948 239.398 190.293C247.982 181.776 250.116 168.845 245.307 158.197C256.295 154.043 264 143.404 264 131.354C264 119.305 256.295 108.667 245.307 104.513Z"
    fill="#19194B" />
  <path fill-rule="evenodd" clip-rule="evenodd"
    d="M240.111 111.964C238.756 111.617 237.644 110.66 237.109 109.378L236.042 106.826C235.508 105.544 235.613 104.087 236.322 102.891C240.923 95.1518 239.74 85.0267 233.213 78.5517C226.685 72.0747 216.482 70.9005 208.686 75.4661C207.479 76.1718 206.011 76.2738 204.719 75.7425L202.147 74.6859C200.857 74.1546 199.893 73.0529 199.543 71.7081C197.281 63.0082 189.229 56.6802 179.999 56.6802C170.771 56.6802 162.719 63.0082 160.459 71.7081C160.109 73.0529 159.145 74.1566 157.851 74.6859L155.281 75.7425C153.971 76.2816 152.491 76.1522 151.27 75.4426C148.131 73.6136 144.607 72.7158 141.09 72.7158C135.873 72.7158 130.677 74.6918 126.789 78.5517C120.262 85.0287 119.076 95.1538 123.678 102.891C124.391 104.085 124.495 105.544 123.958 106.826L122.893 109.378C122.36 110.66 121.246 111.617 119.89 111.964C111.123 114.206 104.744 122.197 104.744 131.355C104.744 140.512 111.123 148.503 119.89 150.745C121.246 151.092 122.358 152.049 122.893 153.331L123.958 155.883C124.495 157.167 124.391 158.624 123.678 159.82C119.076 167.557 120.26 177.68 126.789 184.157C133.822 191.14 145.134 191.961 153.094 186.067L155.707 185.206H204.29L206.904 186.067C214.87 191.959 226.178 191.14 233.213 184.157C239.74 177.682 240.923 167.557 236.322 159.818C235.613 158.622 235.508 157.165 236.042 155.883L237.109 153.331C237.644 152.049 238.756 151.092 240.111 150.745C248.877 148.503 255.256 140.512 255.256 131.355C255.256 122.197 248.877 114.206 240.111 111.964Z"
    fill="white" />
  <path fill-rule="evenodd" clip-rule="evenodd"
    d="M215.94 138.998C214.116 135.795 211.852 132.813 209.158 130.139L208.166 129.155C207.008 128.004 205.126 128.004 203.966 129.155L201.984 131.123C200.825 132.274 200.825 134.14 201.984 135.291L202.976 136.275C209.112 142.366 212.492 150.462 212.492 159.074C212.492 176.68 198.197 191.033 180.516 191.31C162.574 191.59 147.508 176.88 147.508 159.074C147.508 150.462 150.888 142.366 157.027 136.275L158.018 135.291C159.178 134.14 159.178 132.274 158.018 131.123L156.033 129.155C154.873 128.004 152.992 128.004 151.833 129.155L150.841 130.139C148.148 132.813 145.884 135.795 144.061 138.998C139.904 136.152 136.882 131.808 135.756 126.83H144.577C146.216 126.83 147.546 125.513 147.546 123.884V122.492C147.546 118.162 151.084 114.651 155.45 114.651C159.073 114.651 162.121 117.074 163.052 120.375C163.408 121.633 164.581 122.49 165.897 122.49H169.552C170.867 122.49 172.041 121.633 172.396 120.375C173.329 117.074 176.375 114.651 180 114.651C183.626 114.651 186.674 117.074 187.602 120.375C187.958 121.633 189.133 122.49 190.449 122.49H194.102C195.418 122.49 196.593 121.633 196.949 120.375C197.877 117.074 200.926 114.651 204.551 114.651C208.915 114.651 212.453 118.162 212.453 122.492V123.884C212.453 125.513 213.782 126.83 215.424 126.83H224.245C223.117 131.808 220.096 136.152 215.94 138.998Z"
    fill="white" />
  <path fill-rule="evenodd" clip-rule="evenodd"
    d="M167.766 138.807C165.306 138.807 163.311 140.785 163.311 143.228C163.311 145.668 165.306 147.646 167.766 147.646C170.226 147.646 172.221 145.668 172.221 143.228C172.221 140.785 170.226 138.807 167.766 138.807Z"
    fill="#19194B" />
  <path fill-rule="evenodd" clip-rule="evenodd"
    d="M187.423 182.91C187.423 186.98 184.098 190.277 179.999 190.277C175.9 190.277 172.575 186.98 172.575 182.91H187.423Z"
    fill="#19194B" />
  <path fill-rule="evenodd" clip-rule="evenodd"
    d="M215.94 137.706C214.116 134.503 211.852 131.521 209.158 128.847L208.166 127.863C207.008 126.712 205.126 126.712 203.966 127.863L201.984 129.831C200.825 130.982 200.825 132.848 201.984 133.999L202.976 134.983C209.112 141.074 212.492 149.17 212.492 157.782C212.492 175.388 198.197 189.741 180.516 190.018C162.574 190.298 147.508 175.588 147.508 157.782C147.508 149.17 150.888 141.074 157.026 134.983L158.018 133.999C159.178 132.848 159.178 130.982 158.018 129.831L156.033 127.863C154.873 126.712 152.992 126.712 151.833 127.863L150.841 128.847C148.148 131.521 145.884 134.503 144.061 137.706C139.904 134.859 136.882 130.515 135.756 125.538H144.576C146.216 125.538 147.546 124.221 147.546 122.592V121.2C147.546 116.869 151.084 113.358 155.45 113.358C159.073 113.358 162.121 115.781 163.052 119.083C163.408 120.341 164.581 121.198 165.897 121.198H169.552C170.867 121.198 172.041 120.341 172.396 119.083C173.329 115.781 176.375 113.358 180 113.358C183.625 113.358 186.674 115.781 187.602 119.083C187.958 120.341 189.133 121.198 190.449 121.198H194.102C195.418 121.198 196.593 120.341 196.949 119.083C197.877 115.781 200.926 113.358 204.551 113.358C208.915 113.358 212.453 116.869 212.453 121.2V122.592C212.453 124.221 213.782 125.538 215.424 125.538H224.245C223.117 130.515 220.096 134.859 215.94 137.706ZM230.506 116.86H220.616C218.692 109.849 212.218 104.68 204.551 104.68C199.697 104.68 195.319 106.752 192.275 110.051C189.23 106.752 184.854 104.68 180 104.68C175.146 104.68 170.77 106.752 167.724 110.051C164.68 106.752 160.302 104.68 155.448 104.68C147.781 104.68 141.309 109.849 139.383 116.86H129.495C127.855 116.86 126.526 118.181 126.526 119.808V121.2C126.526 131.46 132.128 140.678 140.574 145.759C139.314 149.848 138.687 154.155 138.77 158.566C139.187 180.835 157.805 198.833 180.255 198.701C202.875 198.563 221.238 180.261 221.238 157.782C221.238 153.64 220.618 149.593 219.431 145.745C219.431 145.747 219.433 145.751 219.435 145.753C227.874 140.672 233.475 131.458 233.475 121.2V119.808C233.475 118.181 232.145 116.86 230.506 116.86Z"
    fill="#19194B" />
  <path fill-rule="evenodd" clip-rule="evenodd"
    d="M198.608 146.288H186.589C184.884 146.288 183.502 144.915 183.502 143.225C183.502 141.535 184.884 140.162 186.589 140.162H198.608C200.311 140.162 201.695 141.535 201.695 143.225C201.695 144.915 200.311 146.288 198.608 146.288Z"
    fill="#19194B" />
  <g filter="url(#filter0_d)">
    <mask id="path-10-outside-1" maskUnits="userSpaceOnUse" x="201.527" y="20.0255" width="89.7447" height="89.7447"
      fill="black">
      <rect fill="white" x="201.527" y="20.0255" width="89.7447" height="89.7447" />
      <path fill-rule="evenodd" clip-rule="evenodd"
        d="M242.228 96.6248C259.751 98.9284 275.823 86.5911 278.126 69.0687C280.43 51.5463 268.093 35.4744 250.57 33.1708C233.049 30.8675 216.976 43.2046 214.672 60.727C212.369 78.2494 224.707 94.3215 242.228 96.6248Z" />
    </mask>
    <path
      d="M243.271 88.6931C238.89 88.1172 234.872 91.2015 234.296 95.5821C233.72 99.9627 236.805 103.981 241.185 104.557L243.271 88.6931ZM241.185 104.557C245.566 105.132 249.584 102.048 250.16 97.6675C250.736 93.2869 247.651 89.2689 243.271 88.6931L241.185 104.557ZM241.185 104.557C263.089 107.436 283.179 92.0144 286.058 70.1114L270.195 68.026C268.467 81.1677 256.413 90.4208 243.271 88.6931L241.185 104.557ZM286.058 70.1114C288.938 48.2084 273.516 28.1185 251.612 25.239L249.527 41.1025C262.67 42.8303 271.922 54.8843 270.195 68.026L286.058 70.1114ZM251.612 25.239C229.711 22.3598 209.62 37.7813 206.741 59.6843L222.604 61.7697C224.332 48.628 236.387 39.3751 249.527 41.1025L251.612 25.239ZM206.741 59.6843C203.861 81.5873 219.284 101.677 241.185 104.557L243.271 88.6931C230.13 86.9656 220.877 74.9115 222.604 61.7697L206.741 59.6843Z"
      fill="white" mask="url(#path-10-outside-1)" />
  </g>
  <path fill-rule="evenodd" clip-rule="evenodd"
    d="M242.228 96.6248C259.751 98.9284 275.823 86.5911 278.126 69.0687C280.43 51.5463 268.093 35.4744 250.57 33.1708C233.049 30.8675 216.976 43.2046 214.672 60.727C212.369 78.2494 224.707 94.3215 242.228 96.6248Z"
    fill="url(#paint0_linear)" />
  <path fill-rule="evenodd" clip-rule="evenodd"
    d="M238.402 80.3171C237.315 80.1743 236.333 79.5975 235.677 78.7184L225.941 65.6786C224.599 63.8809 224.969 61.3353 226.765 59.9928C228.563 58.6516 231.11 59.0181 232.451 60.8169L239.69 70.5158L261.968 52.935C263.73 51.5453 266.284 51.8483 267.673 53.6083C269.062 55.3696 268.762 57.9244 266.999 59.3139L241.448 79.477C240.588 80.1569 239.489 80.46 238.402 80.3171Z"
    fill="white" />
  <defs>
    <filter id="filter0_d" x="198.395" y="20.8933" width="96.0091" height="96.009" filterUnits="userSpaceOnUse"
      color-interpolation-filters="sRGB">
      <feFlood flood-opacity="0" result="BackgroundImageFix" />
      <feColorMatrix in="SourceAlpha" type="matrix" values="0 0 0 0 0 0 0 0 0 0 0 0 0 0 0 0 0 0 127 0" />
      <feOffset dy="4" />
      <feGaussianBlur stdDeviation="4" />
      <feColorMatrix type="matrix" values="0 0 0 0 0 0 0 0 0 0 0 0 0 0 0 0 0 0 0.24 0" />
      <feBlend mode="normal" in2="BackgroundImageFix" result="effect1_dropShadow" />
      <feBlend mode="normal" in="SourceGraphic" in2="effect1_dropShadow" result="shape" />
    </filter>
    <linearGradient id="paint0_linear" x1="250.57" y1="33.1708" x2="225.5" y2="161.5" gradientUnits="userSpaceOnUse">
      <stop stop-color="#66DE7D" />
      <stop offset="1" stop-color="#4ABE6B" />
    </linearGradient>
  </defs>
</svg>