<svg class="icon"
     viewBox="0 0 360 264"
     fill="none"
     xmlns="http://www.w3.org/2000/svg"
>
    <rect width="360" height="264" fill="white"/>
    <path fill-rule="evenodd" clip-rule="evenodd" d="M151.378 197.029C151.378 198.668 152.71 200 154.349 200H157.153C158.792 200 160.122 198.668 160.122 197.029V170.272H151.378V197.029Z" fill="#19194B"/>
    <path fill-rule="evenodd" clip-rule="evenodd" d="M199.958 170.272V197.029C199.958 198.668 201.288 200 202.928 200H205.733C207.373 200 208.702 198.668 208.702 197.029V170.272H199.958Z" fill="#19194B"/>
    <path fill-rule="evenodd" clip-rule="evenodd" d="M240.11 135.542C238.754 135.892 237.642 136.856 237.107 138.148L236.04 140.72C235.507 142.012 235.611 143.48 236.32 144.685C240.921 152.484 239.738 162.688 233.211 169.213C226.176 176.248 214.868 177.074 206.903 171.137L204.289 170.27H155.707L153.093 171.137C145.134 177.076 133.822 176.248 126.789 169.213C120.26 162.686 119.076 152.484 123.677 144.685C124.39 143.482 124.495 142.012 123.958 140.72L122.893 138.148C122.36 136.856 121.245 135.892 119.89 135.542C111.123 133.282 104.744 125.23 104.744 116C104.744 106.772 111.123 98.7199 119.89 96.4598C121.245 96.1102 122.36 95.1461 122.893 93.8541L123.958 91.282C124.495 89.988 124.39 88.5202 123.677 87.3151C119.076 79.5196 120.262 69.3159 126.789 62.7888C130.677 58.8989 135.872 56.9056 141.09 56.9056C144.606 56.9056 148.13 57.8124 151.27 59.6536C152.49 60.3707 153.97 60.5011 155.28 59.9578L157.85 58.893C159.144 58.3596 160.108 57.2474 160.458 55.8922C162.718 47.1247 170.77 40.7477 179.998 40.7477C189.228 40.7477 197.28 47.1247 199.542 55.8922C199.892 57.2474 200.856 58.3576 202.148 58.893L204.718 59.9578C206.01 60.4932 207.478 60.3885 208.685 59.6793C216.48 55.0782 226.684 56.2616 233.211 62.7888C239.738 69.314 240.921 79.5176 236.32 87.3171C235.611 88.5221 235.507 89.99 236.04 91.282L237.107 93.8541C237.642 95.1461 238.754 96.1102 240.11 96.4598C248.875 98.7199 255.254 106.772 255.254 116C255.254 125.23 248.875 133.282 240.11 135.542ZM245.305 88.9508C250.114 78.2197 247.98 65.191 239.396 56.6034C230.809 48.0177 217.78 45.8841 207.049 50.6965C202.863 39.7066 192.142 32 179.998 32C167.858 32 157.135 39.7066 152.949 50.6965C142.218 45.8841 129.191 48.0177 120.603 56.6034C112.018 65.191 109.886 78.2217 114.694 88.9508C103.705 93.137 95.9999 103.858 95.9999 116C95.9999 128.144 103.705 138.865 114.694 143.051C109.882 153.78 112.016 166.811 120.603 175.396C126.178 180.971 133.626 183.826 141.101 183.826C146.669 183.824 152.257 182.24 157.093 179.016H202.904C214.234 186.57 229.665 185.126 239.396 175.396C247.98 166.813 250.114 153.782 245.305 143.051C256.293 138.865 263.998 128.144 263.998 116C263.998 103.858 256.293 93.137 245.305 88.9508Z" fill="#19194B"/>
    <path fill-rule="evenodd" clip-rule="evenodd" d="M240.11 96.4595C238.754 96.1098 237.642 95.1457 237.107 93.8537L236.04 91.2816C235.507 89.9896 235.611 88.5218 236.32 87.3167C240.922 79.5173 239.738 69.3136 233.211 62.7884C226.684 56.2612 216.48 55.0779 208.685 59.6789C207.478 60.3901 206.01 60.4928 204.718 59.9574L202.146 58.8926C200.856 58.3573 199.892 57.247 199.542 55.8918C197.28 47.1244 189.228 40.7473 179.998 40.7473C170.77 40.7473 162.718 47.1244 160.458 55.8918C160.108 57.247 159.144 58.3592 157.85 58.8926L155.28 59.9574C153.97 60.5007 152.491 60.3703 151.27 59.6552C148.13 57.812 144.606 56.9072 141.09 56.9072C135.872 56.9072 130.677 58.8986 126.789 62.7884C120.262 69.3156 119.076 79.5192 123.677 87.3167C124.39 88.5198 124.495 89.9896 123.958 91.2816L122.893 93.8537C122.36 95.1457 121.245 96.1098 119.89 96.4595C111.123 98.7195 104.744 106.772 104.744 116.002C104.744 125.229 111.123 133.282 119.89 135.542C121.245 135.891 122.358 136.855 122.893 138.147L123.958 140.719C124.495 142.013 124.39 143.481 123.677 144.686C119.076 152.484 120.26 162.685 126.789 169.213C133.822 176.249 145.134 177.077 153.093 171.137L155.707 170.27H204.289L206.903 171.137C214.868 177.075 226.176 176.249 233.211 169.213C239.738 162.687 240.922 152.484 236.32 144.684C235.611 143.479 235.507 142.011 236.04 140.719L237.107 138.147C237.642 136.855 238.754 135.891 240.11 135.542C248.875 133.282 255.254 125.229 255.254 116.002C255.254 106.772 248.875 98.7195 240.11 96.4595Z" fill="white"/>
    <path fill-rule="evenodd" clip-rule="evenodd" d="M215.938 122.401C214.115 119.173 211.851 116.168 209.156 113.473L208.165 112.482C207.007 111.322 205.124 111.322 203.965 112.482L201.983 114.465C200.824 115.625 200.824 117.506 201.983 118.665L202.975 119.657C209.111 125.795 212.491 133.954 212.491 142.632C212.491 160.375 198.196 174.84 180.515 175.118C162.573 175.401 147.508 160.576 147.508 142.632C147.508 133.954 150.888 125.795 157.026 119.657L158.018 118.665C159.177 117.506 159.177 115.625 158.018 114.465L156.032 112.482C154.872 111.322 152.992 111.322 151.832 112.482L150.84 113.473C148.148 116.168 145.884 119.173 144.06 122.401C139.904 119.532 136.881 115.155 135.755 110.139H144.576C146.216 110.139 147.545 108.811 147.545 107.17V105.767C147.545 101.403 151.083 97.8647 155.449 97.8647C159.072 97.8647 162.121 100.307 163.051 103.633C163.407 104.902 164.58 105.765 165.896 105.765H169.551C170.866 105.765 172.04 104.902 172.396 103.633C173.328 100.307 176.374 97.8647 179.999 97.8647C183.624 97.8647 186.673 100.307 187.601 103.633C187.957 104.902 189.132 105.765 190.448 105.765H194.101C195.416 105.765 196.592 104.902 196.948 103.633C197.876 100.307 200.924 97.8647 204.549 97.8647C208.913 97.8647 212.452 101.403 212.452 105.767V107.17C212.452 108.811 213.781 110.139 215.423 110.139H224.244C223.116 115.155 220.095 119.532 215.938 122.401Z" fill="white"/>
    <path fill-rule="evenodd" clip-rule="evenodd" d="M192.316 123.961C189.857 123.961 187.862 125.954 187.862 128.416C187.862 130.875 189.857 132.868 192.316 132.868C194.776 132.868 196.771 130.875 196.771 128.416C196.771 125.954 194.776 123.961 192.316 123.961Z" fill="#19194B"/>
    <path fill-rule="evenodd" clip-rule="evenodd" d="M167.765 123.961C165.306 123.961 163.31 125.954 163.31 128.416C163.31 130.875 165.306 132.868 167.765 132.868C170.225 132.868 172.22 130.875 172.22 128.416C172.22 125.954 170.225 123.961 167.765 123.961Z" fill="#19194B"/>
    <path fill-rule="evenodd" clip-rule="evenodd" d="M187.422 167.956C187.422 172.057 184.097 175.38 179.998 175.38C175.899 175.38 172.574 172.057 172.574 167.956H187.422Z" fill="#19194B"/>
    <path fill-rule="evenodd" clip-rule="evenodd" d="M215.938 122.401C214.115 119.173 211.851 116.168 209.156 113.474L208.165 112.482C207.007 111.322 205.124 111.322 203.965 112.482L201.983 114.465C200.823 115.625 200.823 117.506 201.983 118.665L202.975 119.657C209.111 125.795 212.491 133.954 212.491 142.633C212.491 160.375 198.196 174.84 180.515 175.118C162.573 175.401 147.508 160.576 147.508 142.633C147.508 133.954 150.888 125.795 157.026 119.657L158.018 118.665C159.177 117.506 159.177 115.625 158.018 114.465L156.032 112.482C154.872 111.322 152.992 111.322 151.832 112.482L150.84 113.474C148.148 116.168 145.884 119.173 144.06 122.401C139.904 119.533 136.881 115.155 135.755 110.139H144.576C146.216 110.139 147.545 108.811 147.545 107.17V105.767C147.545 101.403 151.083 97.8649 155.449 97.8649C159.072 97.8649 162.121 100.307 163.051 103.633C163.407 104.902 164.58 105.765 165.896 105.765H169.551C170.866 105.765 172.04 104.902 172.395 103.633C173.328 100.307 176.374 97.8649 179.999 97.8649C183.624 97.8649 186.673 100.307 187.601 103.633C187.957 104.902 189.132 105.765 190.448 105.765H194.101C195.416 105.765 196.592 104.902 196.947 103.633C197.876 100.307 200.924 97.8649 204.549 97.8649C208.913 97.8649 212.452 101.403 212.452 105.767V107.17C212.452 108.811 213.781 110.139 215.423 110.139H224.244C223.115 115.155 220.095 119.533 215.938 122.401ZM230.504 101.393H220.614C218.69 94.3286 212.216 89.1191 204.549 89.1191C199.695 89.1191 195.318 91.2073 192.273 94.5321C189.229 91.2073 184.853 89.1191 179.999 89.1191C175.145 89.1191 170.77 91.2073 167.723 94.5321C164.679 91.2073 160.301 89.1191 155.447 89.1191C147.78 89.1191 141.308 94.3286 139.382 101.393H129.495C127.855 101.393 126.525 102.725 126.525 104.364V105.767C126.525 116.107 132.128 125.396 140.574 130.517C139.313 134.638 138.687 138.978 138.77 143.423C139.187 165.865 157.804 184.002 180.254 183.869C202.874 183.73 221.237 165.286 221.237 142.633C221.237 138.458 220.616 134.381 219.429 130.503C219.429 130.505 219.431 130.509 219.433 130.511C227.873 125.39 233.473 116.105 233.473 105.767V104.364C233.473 102.725 232.144 101.393 230.504 101.393Z" fill="#19194B"/>
    <g filter="url(#success-info-filter0_d)">
        <mask id="success-info-path-13-outside-1" maskUnits="userSpaceOnUse" x="79.2464" y="182.246" width="195.812" height="66.796" fill="black">
            <rect fill="white" x="79.2464" y="182.246" width="195.812" height="66.796"/>
            <path fill-rule="evenodd" clip-rule="evenodd" d="M99.1327 191.793C94.7361 191.355 90.817 194.564 90.379 198.961L88.793 214.882C88.355 219.278 91.5641 223.197 95.9606 223.635L105.911 224.627L111.882 225.221L113.872 225.42L123.823 226.411L221.34 236.125L229.301 236.918L261.082 227.738C264.551 226.735 265.022 222.013 261.819 220.346L232.473 205.076L224.512 204.283L126.995 194.569L117.044 193.577L115.054 193.379L109.083 192.784L99.1327 191.793Z"/>
        </mask>
        <path fill-rule="evenodd" clip-rule="evenodd" d="M99.1327 191.793C94.7361 191.355 90.817 194.564 90.379 198.961L88.793 214.882C88.355 219.278 91.5641 223.197 95.9606 223.635L105.911 224.627L111.882 225.221L113.872 225.42L123.823 226.411L221.34 236.125L229.301 236.918L261.082 227.738C264.551 226.735 265.022 222.013 261.819 220.346L232.473 205.076L224.512 204.283L126.995 194.569L117.044 193.577L115.054 193.379L109.083 192.784L99.1327 191.793Z" fill="white"/>
        <path d="M99.1327 191.793L98.3396 199.754L99.1327 191.793ZM95.9606 223.635L95.1676 231.596L95.9606 223.635ZM105.911 224.627L106.704 216.666L105.911 224.627ZM111.882 225.221L111.089 233.182L111.882 225.221ZM113.872 225.42L113.079 233.38L113.872 225.42ZM123.823 226.411L124.616 218.45L123.823 226.411ZM221.34 236.125L222.133 228.165L221.34 236.125ZM229.301 236.918L228.508 244.879C229.52 244.98 230.543 244.887 231.521 244.604L229.301 236.918ZM261.082 227.738L258.862 220.052L261.082 227.738ZM261.819 220.346L265.512 213.25L265.512 213.25L261.819 220.346ZM232.473 205.076L236.165 197.979C235.263 197.51 234.278 197.216 233.266 197.115L232.473 205.076ZM224.512 204.283L225.305 196.322L224.512 204.283ZM126.995 194.569L127.788 186.608L126.995 194.569ZM117.044 193.577L116.251 201.538L117.044 193.577ZM115.054 193.379L114.261 201.34L115.054 193.379ZM109.083 192.784L109.876 184.824L109.083 192.784ZM98.3396 199.754L99.9257 183.832C91.1326 182.956 83.2944 189.375 82.4184 198.168L98.3396 199.754ZM96.7536 215.675L98.3396 199.754L82.4184 198.168L80.8324 214.089L96.7536 215.675ZM96.7536 215.675L96.7536 215.675L80.8324 214.089C79.9565 222.882 86.3745 230.72 95.1676 231.596L96.7536 215.675ZM106.704 216.666L96.7536 215.675L95.1676 231.596L105.118 232.587L106.704 216.666ZM112.675 217.261L106.704 216.666L105.118 232.587L111.089 233.182L112.675 217.261ZM114.665 217.459L112.675 217.261L111.089 233.182L113.079 233.38L114.665 217.459ZM124.616 218.45L114.665 217.459L113.079 233.38L123.03 234.372L124.616 218.45ZM222.133 228.165L124.616 218.45L123.03 234.372L220.547 244.086L222.133 228.165ZM230.094 228.958L222.133 228.165L220.547 244.086L228.508 244.879L230.094 228.958ZM258.862 220.052L227.08 229.233L231.521 244.604L263.303 235.423L258.862 220.052ZM258.126 227.443C254.923 225.776 255.393 221.054 258.862 220.052L263.303 235.423C273.71 232.417 275.121 218.25 265.512 213.25L258.126 227.443ZM228.78 212.173L258.126 227.443L265.512 213.25L236.165 197.979L228.78 212.173ZM223.719 212.244L231.68 213.037L233.266 197.115L225.305 196.322L223.719 212.244ZM126.202 202.529L223.719 212.244L225.305 196.322L127.788 186.608L126.202 202.529ZM116.251 201.538L126.202 202.529L127.788 186.608L117.837 185.617L116.251 201.538ZM114.261 201.34L116.251 201.538L117.837 185.617L115.847 185.418L114.261 201.34ZM108.29 200.745L114.261 201.34L115.847 185.418L109.876 184.824L108.29 200.745ZM98.3396 199.754L108.29 200.745L109.876 184.824L99.9257 183.832L98.3396 199.754Z" fill="white" mask="url(#success-info-path-13-outside-1)"/>
    </g>
    <path d="M109.083 192.784L232.473 205.076L229.301 236.918L105.911 224.627L109.083 192.784Z" fill="#FADD7F"/>
    <path d="M90.379 198.961C90.817 194.564 94.7361 191.355 99.1327 191.793L117.044 193.577L113.872 225.42L95.9606 223.635C91.5641 223.197 88.355 219.278 88.793 214.882L90.379 198.961Z" fill="#F99493"/>
    <path d="M115.054 193.379L126.995 194.569L123.823 226.411L111.882 225.222L115.054 193.379Z" fill="#EBECF0"/>
    <path d="M111.074 192.982L115.054 193.379L111.882 225.221L107.901 224.825L111.074 192.982Z" fill="#EB4B68"/>
    <path d="M119.034 193.776L123.014 194.172L119.842 226.015L115.862 225.618L119.034 193.776Z" fill="#DFE1E6"/>
    <path d="M126.995 194.569L130.975 194.965L127.803 226.808L123.823 226.411L126.995 194.569Z" fill="#F6C770"/>
    <path d="M127.201 212.678L127.597 208.698L231.085 219.007L230.688 222.987L127.201 212.678Z" fill="#F6C770"/>
    <path d="M232.473 205.076L229.301 236.918L261.082 227.737C264.551 226.735 265.022 222.013 261.819 220.346L232.473 205.076Z" fill="#FFCEBF"/>
    <mask id="success-info-mask0" mask-type="alpha" maskUnits="userSpaceOnUse" x="229" y="205" width="35" height="32">
        <path d="M232.473 205.076L229.301 236.918L261.082 227.737C264.551 226.735 265.022 222.013 261.819 220.346L232.473 205.076Z" fill="#FFCEBF"/>
    </mask>
    <g mask="url(#success-info-mask0)">
        <rect x="252.374" y="207.058" width="20" height="44" transform="rotate(5.6889 252.374 207.058)" fill="#344563"/>
    </g>
    <mask id="success-info-mask1" mask-type="alpha" maskUnits="userSpaceOnUse" x="221" y="204" width="12" height="33">
        <rect x="224.512" y="204.283" width="8" height="32" transform="rotate(5.6889 224.512 204.283)" fill="#C4C4C4"/>
    </mask>
    <g mask="url(#success-info-mask1)">
        <path fill-rule="evenodd" clip-rule="evenodd" d="M230.389 220.948C233.412 221.249 236.217 217.929 236.655 213.532C237.093 209.136 234.998 205.328 231.975 205.026C228.953 204.725 226.147 208.045 225.709 212.442C225.271 216.838 227.367 220.646 230.389 220.948ZM230.389 220.948C233.412 221.249 235.507 225.057 235.069 229.453C234.631 233.85 231.826 237.17 228.803 236.869C225.78 236.568 223.685 232.76 224.123 228.363C224.561 223.966 227.367 220.646 230.389 220.948Z" fill="#FFCEBF"/>
    </g>
    <defs>
        <filter id="success-info-filter0_d" x="72.7524" y="179.752" width="207.222" height="77.166" filterUnits="userSpaceOnUse" color-interpolation-filters="sRGB">
            <feFlood flood-opacity="0" result="BackgroundImageFix"/>
            <feColorMatrix in="SourceAlpha" type="matrix" values="0 0 0 0 0 0 0 0 0 0 0 0 0 0 0 0 0 0 127 0"/>
            <feOffset dy="4"/>
            <feGaussianBlur stdDeviation="4"/>
            <feColorMatrix type="matrix" values="0 0 0 0 0 0 0 0 0 0 0 0 0 0 0 0 0 0 0.24 0"/>
            <feBlend mode="normal" in2="BackgroundImageFix" result="effect1_dropShadow"/>
            <feBlend mode="normal" in="SourceGraphic" in2="effect1_dropShadow" result="shape"/>
        </filter>
    </defs>
</svg>
