<svg class="icon"
     viewBox="0 0 40 40" 
     fill="none" 
     xmlns="http://www.w3.org/2000/svg"
>
<circle cx="20" cy="20" r="20" fill="#E7FDE1"/>
<path d="M20 7C17.4288 7 14.9154 7.76244 12.7776 9.19089C10.6398 10.6194 8.97351 12.6497 7.98957 15.0251C7.00563 17.4006 6.74819 20.0144 7.2498 22.5362C7.75141 25.0579 8.98953 27.3743 10.8076 29.1924C12.6257 31.0105 14.9421 32.2486 17.4638 32.7502C19.9856 33.2518 22.5995 32.9944 24.9749 32.0104C27.3503 31.0265 29.3806 29.3602 30.8091 27.2224C32.2376 25.0846 33 22.5712 33 20C32.996 16.5534 31.6251 13.2491 29.188 10.812C26.7509 8.37494 23.4466 7.00401 20 7ZM27.5043 15.8833L20.0888 25.9464C20.0013 26.0626 19.8915 26.1601 19.7658 26.2334C19.6402 26.3066 19.5012 26.3541 19.357 26.3731C19.2127 26.3921 19.0662 26.3821 18.9259 26.3438C18.7856 26.3055 18.6543 26.2397 18.5397 26.1501L13.2443 21.9164C13.1332 21.8275 13.0407 21.7176 12.9721 21.5929C12.9035 21.4682 12.8601 21.3313 12.8444 21.1898C12.8127 20.9042 12.8958 20.6176 13.0753 20.3932C13.2549 20.1689 13.5163 20.025 13.8019 19.9933C14.0876 19.9616 14.3741 20.0447 14.5985 20.2242L19.0142 23.757L25.7601 14.6017C25.8413 14.4799 25.9464 14.3757 26.069 14.2956C26.1916 14.2155 26.3291 14.1611 26.4733 14.1357C26.6176 14.1102 26.7654 14.1143 26.9081 14.1476C27.0507 14.1809 27.185 14.2428 27.3031 14.3295C27.4211 14.4162 27.5203 14.526 27.5947 14.6521C27.6691 14.7782 27.7171 14.9182 27.7359 15.0634C27.7548 15.2086 27.7439 15.3562 27.7041 15.4971C27.6643 15.638 27.5963 15.7694 27.5043 15.8833Z" fill="url(#success_microillustration_paint0_linear)"/>
<path d="M20.0888 25.9464L27.5043 15.8833C27.5963 15.7694 27.6643 15.638 27.7041 15.4971C27.7439 15.3562 27.7548 15.2086 27.736 15.0634C27.7171 14.9182 27.6691 14.7782 27.5947 14.6521C27.5203 14.526 27.4211 14.4162 27.3031 14.3295C27.185 14.2428 27.0507 14.1809 26.9081 14.1476C26.7655 14.1143 26.6176 14.1102 26.4734 14.1357C26.3291 14.1611 26.1916 14.2155 26.069 14.2956C25.9464 14.3757 25.8413 14.4799 25.7601 14.6017L19.0142 23.757L14.5985 20.2242C14.3741 20.0447 14.0876 19.9616 13.8019 19.9933C13.5163 20.025 13.2549 20.1688 13.0753 20.3932C12.8958 20.6176 12.8127 20.9042 12.8444 21.1898C12.8601 21.3313 12.9035 21.4682 12.9721 21.5929C13.0407 21.7176 13.1332 21.8275 13.2443 21.9164L18.5397 26.1501C18.6543 26.2397 18.7856 26.3055 18.9259 26.3438C19.0662 26.3821 19.2128 26.392 19.357 26.3731C19.5012 26.3541 19.6402 26.3066 19.7658 26.2334C19.8915 26.1601 20.0013 26.0626 20.0888 25.9464Z" fill="white"/>
<defs>
<linearGradient id="success_microillustration_paint0_linear" x1="20" y1="7" x2="16.6971" y2="60.0165" gradientUnits="userSpaceOnUse">
<stop stop-color="#66DE7D"/>
<stop offset="1" stop-color="#4ABE6B"/>
</linearGradient>
</defs>
</svg>
