<svg class="icon" viewBox="0 0 192 191" fill="none" xmlns="http://www.w3.org/2000/svg">
<g filter="url(#support-micro-filter0_d)">
<mask id="support-micro-path-1-outside-1" maskUnits="userSpaceOnUse" x="50.1136" y="35.2761" width="93.7149" height="92.8845" fill="black">
<rect fill="white" x="50.1136" y="35.2761" width="93.7149" height="92.8845"/>
<path fill-rule="evenodd" clip-rule="evenodd" d="M124.981 77.516C124.766 78.8641 125.452 80.172 126.526 81.0143C128.105 82.2522 129.395 83.8327 130.291 85.6471C131.525 88.1456 131.953 90.9645 131.514 93.7147C131.495 93.8316 131.475 93.9481 131.453 94.0642C130.966 96.6883 129.709 99.1114 127.838 101.023C126.596 102.292 125.122 103.296 123.507 103.988C122.728 104.321 122.125 104.996 121.992 105.832C120.883 112.796 114.626 116.787 106.779 115.538L106.35 115.469C103.635 115.037 100.956 116.583 98.2908 117.258C97.4831 117.463 96.6214 117.511 95.7463 117.371C92.299 116.822 89.9493 113.583 90.4981 110.136C91.0469 106.688 94.2864 104.339 97.7337 104.887C98.5696 105.02 99.3409 105.312 100.022 105.726C102.197 107.048 104.164 109.058 106.677 109.458L107.721 109.624C111.302 110.194 115.374 109.248 116.067 104.889C116.229 103.871 115.87 102.856 115.539 101.88C115.534 101.867 115.53 101.853 115.525 101.84C115.3 101.155 115.243 100.427 115.359 99.7168L118.685 78.8245C118.686 78.821 118.689 78.8186 118.693 78.8192C118.696 78.8198 118.699 78.8174 118.7 78.8139L119.057 76.5729C119.489 73.8548 119.382 71.078 118.739 68.401C118.097 65.724 116.933 63.1991 115.313 60.9707C113.694 58.7422 111.651 56.8537 109.301 55.4131C106.95 53.9724 104.339 53.0078 101.616 52.5743C98.8933 52.1408 96.1118 52.2469 93.4304 52.8866C90.7491 53.5262 88.2206 54.6869 85.9891 56.3023C83.7577 57.9177 81.8671 59.9562 80.4253 62.3015C78.9835 64.6467 78.0187 67.2528 77.586 69.9708L73.9011 93.1173L73.899 93.1307C73.7874 93.838 73.5079 94.5084 73.0838 95.0859C72.6576 95.6664 72.0977 96.1361 71.4513 96.4552C70.805 96.7744 70.0912 96.9337 69.3701 96.9197C68.649 96.9058 67.9417 96.719 67.3079 96.3751C64.852 95.0454 62.8694 92.988 61.6335 90.4868C60.3976 87.9855 59.9693 85.1635 60.4076 82.4099C60.846 79.6563 62.1294 77.1068 64.0809 75.113C66.0318 73.1198 68.5542 71.78 71.3006 71.2783C71.3022 71.278 71.3035 71.2767 71.3038 71.275L71.6616 69.0277C72.7851 61.97 76.6715 55.6485 82.4656 51.4539C88.2598 47.2592 95.4872 45.5351 102.558 46.6607C109.628 47.7863 115.963 51.6695 120.168 57.456C124.373 63.2425 126.105 70.4583 124.981 77.516Z"/>
</mask>
<path fill-rule="evenodd" clip-rule="evenodd" d="M124.981 77.516C124.766 78.8641 125.452 80.172 126.526 81.0143C128.105 82.2522 129.395 83.8327 130.291 85.6471C131.525 88.1456 131.953 90.9645 131.514 93.7147C131.495 93.8316 131.475 93.9481 131.453 94.0642C130.966 96.6883 129.709 99.1114 127.838 101.023C126.596 102.292 125.122 103.296 123.507 103.988C122.728 104.321 122.125 104.996 121.992 105.832C120.883 112.796 114.626 116.787 106.779 115.538L106.35 115.469C103.635 115.037 100.956 116.583 98.2908 117.258C97.4831 117.463 96.6214 117.511 95.7463 117.371C92.299 116.822 89.9493 113.583 90.4981 110.136C91.0469 106.688 94.2864 104.339 97.7337 104.887C98.5696 105.02 99.3409 105.312 100.022 105.726C102.197 107.048 104.164 109.058 106.677 109.458L107.721 109.624C111.302 110.194 115.374 109.248 116.067 104.889C116.229 103.871 115.87 102.856 115.539 101.88C115.534 101.867 115.53 101.853 115.525 101.84C115.3 101.155 115.243 100.427 115.359 99.7168L118.685 78.8245C118.686 78.821 118.689 78.8186 118.693 78.8192C118.696 78.8198 118.699 78.8174 118.7 78.8139L119.057 76.5729C119.489 73.8548 119.382 71.078 118.739 68.401C118.097 65.724 116.933 63.1991 115.313 60.9707C113.694 58.7422 111.651 56.8537 109.301 55.4131C106.95 53.9724 104.339 53.0078 101.616 52.5743C98.8933 52.1408 96.1118 52.2469 93.4304 52.8866C90.7491 53.5262 88.2206 54.6869 85.9891 56.3023C83.7577 57.9177 81.8671 59.9562 80.4253 62.3015C78.9835 64.6467 78.0187 67.2528 77.586 69.9708L73.9011 93.1173L73.899 93.1307C73.7874 93.838 73.5079 94.5084 73.0838 95.0859C72.6576 95.6664 72.0977 96.1361 71.4513 96.4552C70.805 96.7744 70.0912 96.9337 69.3701 96.9197C68.649 96.9058 67.9417 96.719 67.3079 96.3751C64.852 95.0454 62.8694 92.988 61.6335 90.4868C60.3976 87.9855 59.9693 85.1635 60.4076 82.4099C60.846 79.6563 62.1294 77.1068 64.0809 75.113C66.0318 73.1198 68.5542 71.78 71.3006 71.2783C71.3022 71.278 71.3035 71.2767 71.3038 71.275L71.6616 69.0277C72.7851 61.97 76.6715 55.6485 82.4656 51.4539C88.2598 47.2592 95.4872 45.5351 102.558 46.6607C109.628 47.7863 115.963 51.6695 120.168 57.456C124.373 63.2425 126.105 70.4583 124.981 77.516Z" fill="white"/>
<path d="M130.291 85.6471L125.808 87.8618L125.808 87.8618L130.291 85.6471ZM131.514 93.7147L136.45 94.5142L136.452 94.5023L131.514 93.7147ZM131.453 94.0642L126.54 93.135L126.538 93.1438L126.537 93.1526L131.453 94.0642ZM127.838 101.023L131.411 104.521L131.411 104.521L127.838 101.023ZM106.779 115.538L107.565 110.6L106.779 115.538ZM115.525 101.84L110.775 103.401L110.775 103.401L115.525 101.84ZM115.359 99.7168L120.294 100.522L120.296 100.512L120.297 100.503L115.359 99.7168ZM115.313 60.9707L119.358 58.0312L119.358 58.0312L115.313 60.9707ZM109.301 55.4131L111.914 51.1502L111.914 51.1502L109.301 55.4131ZM93.4304 52.8866L94.5907 57.7501L94.5907 57.7501L93.4304 52.8866ZM85.9891 56.3023L88.9211 60.3524L88.9211 60.3524L85.9891 56.3023ZM80.4253 62.3015L84.6847 64.9201L84.6847 64.9201L80.4253 62.3015ZM77.586 69.9708L82.5238 70.7569L77.586 69.9708ZM73.9011 93.1173L68.9633 92.3312L68.9616 92.3419L73.9011 93.1173ZM73.899 93.1307L78.8379 93.9101L78.8385 93.906L73.899 93.1307ZM73.0838 95.0859L77.114 98.0453L77.114 98.0453L73.0838 95.0859ZM67.3079 96.3751L69.6925 91.9803L69.6885 91.9782L67.3079 96.3751ZM61.6335 90.4868L57.1508 92.7017L57.1508 92.7017L61.6335 90.4868ZM64.0809 75.113L67.6542 78.6104L67.6542 78.6104L64.0809 75.113ZM71.6616 69.0277L76.5994 69.8138L76.5994 69.8138L71.6616 69.0277ZM82.4656 51.4539L79.5336 47.4038L79.5336 47.4038L82.4656 51.4539ZM120.168 57.456L116.124 60.3954L116.124 60.3954L120.168 57.456ZM100.022 105.726L97.4249 109.998L100.022 105.726ZM106.35 115.469L105.564 120.407L106.35 115.469ZM98.2908 117.258L99.5196 122.105L98.2908 117.258ZM115.539 101.88L120.274 100.273L115.539 101.88ZM71.3006 71.2783L72.1991 76.1969L71.3006 71.2783ZM123.507 103.988L125.474 108.585L123.507 103.988ZM134.774 83.4325C133.544 80.9435 131.775 78.7764 129.611 77.0796L123.441 84.949C124.434 85.7279 125.245 86.7218 125.808 87.8618L134.774 83.4325ZM136.452 94.5023C137.054 90.7276 136.467 86.8597 134.774 83.4324L125.808 87.8618C126.584 89.4315 126.852 91.2013 126.577 92.9272L136.452 94.5023ZM136.366 94.9934C136.396 94.8343 136.424 94.6745 136.45 94.5142L126.578 92.9153C126.567 92.9887 126.554 93.0619 126.54 93.135L136.366 94.9934ZM131.411 104.521C133.977 101.899 135.701 98.5757 136.369 94.9758L126.537 93.1526C126.231 94.8008 125.441 96.3237 124.264 97.5261L131.411 104.521ZM125.474 108.585C127.688 107.637 129.708 106.261 131.411 104.521L124.264 97.5261C123.483 98.324 122.556 98.956 121.539 99.3915L125.474 108.585ZM105.993 120.475C110.928 121.261 115.731 120.449 119.601 117.98C123.521 115.479 126.156 111.476 126.93 106.619L117.054 105.046C116.719 107.153 115.671 108.626 114.223 109.549C112.727 110.504 110.477 111.063 107.565 110.6L105.993 120.475ZM105.564 120.407L105.993 120.475L107.565 110.6L107.136 110.531L105.564 120.407ZM97.062 112.412C96.9006 112.453 96.7244 112.464 96.5324 112.433L94.9602 122.309C96.5185 122.557 98.0656 122.474 99.5196 122.105L97.062 112.412ZM96.5324 112.433C95.8122 112.319 95.3212 111.642 95.4359 110.922L85.5602 109.35C84.5773 115.524 88.7858 121.326 94.9602 122.309L96.5324 112.433ZM95.4359 110.922C95.5505 110.201 96.2274 109.71 96.9476 109.825L98.5198 99.9495C92.3454 98.9666 86.5432 103.175 85.5602 109.35L95.4359 110.922ZM96.9476 109.825C97.1314 109.854 97.289 109.916 97.4249 109.998L102.619 101.453C101.393 100.708 100.008 100.186 98.5198 99.9495L96.9476 109.825ZM108.507 104.686L107.463 104.52L105.891 114.396L106.934 114.562L108.507 104.686ZM111.13 104.103C111.075 104.448 110.992 104.524 111.018 104.491C111.038 104.464 111.031 104.496 110.897 104.558C110.532 104.725 109.698 104.876 108.507 104.686L106.934 114.562C109.324 114.942 112.317 114.905 115.057 113.652C118.075 112.271 120.386 109.567 121.005 105.675L111.13 104.103ZM110.775 103.401C110.785 103.43 110.794 103.458 110.804 103.487L120.274 100.273C120.274 100.275 120.275 100.276 120.275 100.278L110.775 103.401ZM110.425 98.9116C110.179 100.415 110.3 101.955 110.775 103.401L120.275 100.278C120.301 100.356 120.307 100.44 120.294 100.522L110.425 98.9116ZM113.747 78.0384L110.421 98.9307L120.297 100.503L123.623 79.6106L113.747 78.0384ZM114.119 75.7868L113.762 78.0278L123.638 79.6L123.995 77.359L114.119 75.7868ZM113.877 69.5675C114.366 71.6052 114.448 73.7184 114.119 75.7868L123.995 77.359C124.531 73.9912 124.397 70.5509 123.601 67.2345L113.877 69.5675ZM111.269 63.9101C112.502 65.6074 113.388 67.5298 113.877 69.5675L123.601 67.2345C122.806 63.9181 121.364 60.7909 119.358 58.0312L111.269 63.9101ZM106.687 59.6759C108.479 60.7738 110.035 62.2127 111.269 63.9101L119.358 58.0312C117.353 55.2716 114.823 52.9336 111.914 51.1502L106.687 59.6759ZM100.83 57.5121C102.906 57.8426 104.896 58.5779 106.687 59.6759L111.914 51.1502C109.005 49.3669 105.773 48.173 102.402 47.6365L100.83 57.5121ZM94.5907 57.7501C96.6342 57.2626 98.7544 57.1817 100.83 57.5121L102.402 47.6365C99.0322 47.1 95.5893 47.2312 92.2702 48.023L94.5907 57.7501ZM88.9211 60.3524C90.6207 59.122 92.5472 58.2376 94.5907 57.7501L92.2702 48.023C88.9511 48.8148 85.8204 50.2518 83.0571 52.2522L88.9211 60.3524ZM84.6847 64.9201C85.7822 63.135 87.2216 61.5828 88.9211 60.3524L83.0571 52.2522C80.2938 54.2527 77.952 56.7775 76.1658 59.6829L84.6847 64.9201ZM82.5238 70.7569C82.8531 68.6886 83.5873 66.7052 84.6847 64.9201L76.1658 59.6829C74.3797 62.5883 73.1843 65.817 72.6481 69.1847L82.5238 70.7569ZM78.8389 93.9034L82.5238 70.7569L72.6481 69.1847L68.9633 92.3312L78.8389 93.9034ZM78.8385 93.906L78.8406 93.8926L68.9616 92.3419L68.9595 92.3554L78.8385 93.906ZM77.114 98.0453C78.0106 96.8243 78.6017 95.4065 78.8379 93.9101L68.9601 92.3513C68.973 92.2696 69.0053 92.1925 69.0537 92.1266L77.114 98.0453ZM73.6651 100.938C75.0297 100.265 76.2128 99.2726 77.114 98.0453L69.0537 92.1266C69.1023 92.0603 69.1656 92.0075 69.2376 91.972L73.6651 100.938ZM69.2734 101.919C70.7944 101.948 72.3006 101.612 73.6651 100.938L69.2376 91.972C69.3094 91.9365 69.388 91.9192 69.4668 91.9207L69.2734 101.919ZM64.9233 100.77C66.2606 101.495 67.7525 101.889 69.2734 101.919L69.4668 91.9207C69.5456 91.9222 69.6229 91.9426 69.6925 91.9803L64.9233 100.77ZM57.1508 92.7017C58.8454 96.1312 61.5629 98.9504 64.9273 100.772L69.6885 91.9782C68.1411 91.1404 66.8934 89.8449 66.1161 88.2719L57.1508 92.7017ZM55.4698 81.6238C54.8684 85.4014 55.4562 89.272 57.1508 92.7017L66.1161 88.2719C65.339 86.699 65.0701 84.9256 65.3455 83.196L55.4698 81.6238ZM60.5077 71.6156C57.8318 74.3495 56.0712 77.8462 55.4698 81.6238L65.3455 83.196C65.6208 81.4664 66.427 79.8641 67.6542 78.6104L60.5077 71.6156ZM70.402 66.3597C66.6397 67.047 63.1825 68.8827 60.5077 71.6156L67.6542 78.6104C68.8811 77.3569 70.4687 76.513 72.1991 76.1969L70.402 66.3597ZM66.7237 68.2416L66.366 70.4889L76.2416 72.0611L76.5994 69.8138L66.7237 68.2416ZM79.5336 47.4038C72.6651 52.3761 68.0563 59.8714 66.7237 68.2416L76.5994 69.8138C77.514 64.0686 80.6778 58.9208 85.3977 55.5039L79.5336 47.4038ZM103.344 41.7229C94.9666 40.3892 86.4018 42.4317 79.5336 47.4038L85.3977 55.5039C90.1178 52.0868 96.0077 50.6809 101.772 51.5985L103.344 41.7229ZM124.213 54.5166C119.228 47.6576 111.721 43.0565 103.344 41.7229L101.772 51.5985C107.536 52.5161 112.698 55.6815 116.124 60.3954L124.213 54.5166ZM129.919 78.3021C131.251 69.9319 129.198 61.376 124.213 54.5166L116.124 60.3954C119.549 65.109 120.958 70.9847 120.043 76.7299L129.919 78.3021ZM123.623 79.6106C123.19 82.3342 120.63 84.1906 117.907 83.757L119.479 73.8814C116.748 73.4467 114.182 75.3079 113.747 78.0384L123.623 79.6106ZM129.611 77.0796C129.641 77.1031 129.724 77.1753 129.806 77.3504C129.895 77.543 129.986 77.8821 129.919 78.3021L120.043 76.7299C119.473 80.3091 121.324 83.2894 123.441 84.949L129.611 77.0796ZM97.4249 109.998C97.7915 110.221 98.1886 110.497 98.7077 110.87C99.1805 111.21 99.8155 111.676 100.451 112.099C101.727 112.949 103.567 114.026 105.891 114.396L107.463 104.52C107.274 104.49 106.874 104.362 105.994 103.776C105.552 103.482 105.131 103.172 104.544 102.75C104.004 102.362 103.34 101.891 102.619 101.453L97.4249 109.998ZM117.907 83.757C120.637 84.1917 123.203 82.3305 123.638 79.6L113.762 78.0278C114.196 75.3043 116.755 73.4478 119.479 73.8814L117.907 83.757ZM107.136 110.531C104.628 110.132 102.387 110.686 100.818 111.173C100.038 111.416 99.2325 111.707 98.6454 111.912C97.9962 112.139 97.5029 112.3 97.062 112.412L99.5196 122.105C100.411 121.879 101.252 121.594 101.939 121.354C102.689 121.092 103.222 120.898 103.784 120.723C104.9 120.377 105.357 120.374 105.564 120.407L107.136 110.531ZM121.005 105.675C121.399 103.199 120.496 100.928 120.274 100.273L110.804 103.487C110.896 103.757 110.957 103.935 111.012 104.113C111.065 104.28 111.092 104.383 111.106 104.447C111.135 104.581 111.079 104.419 111.13 104.103L121.005 105.675ZM72.1991 76.1969C74.2844 75.816 75.9081 74.1604 76.2419 72.0594L66.3657 70.4906C66.6989 68.3929 68.3201 66.7401 70.402 66.3597L72.1991 76.1969ZM121.539 99.3915C119.449 100.286 117.5 102.245 117.054 105.046L126.93 106.619C126.75 107.746 126.007 108.357 125.474 108.585L121.539 99.3915Z" fill="white" mask="url(#support-micro-path-1-outside-1)"/>
</g>
<g clip-path="url(#support-micro-clip0)">
<path d="M131.514 93.7147C131.953 90.9645 131.525 88.1456 130.291 85.6471C129.057 83.1487 127.076 81.0938 124.623 79.7662L124.981 77.516C126.105 70.4583 124.373 63.2425 120.168 57.456C115.963 51.6695 109.628 47.7863 102.558 46.6607C95.4872 45.5351 88.2598 47.2592 82.4656 51.4539C76.6715 55.6485 72.7851 61.97 71.6616 69.0277L71.3033 71.2778C68.5559 71.7791 66.0325 73.1191 64.0809 75.113C62.1294 77.1068 60.846 79.6563 60.4076 82.4099C59.9693 85.1635 60.3976 87.9855 61.6335 90.4868C62.8694 92.988 64.852 95.0454 67.3079 96.3751C67.9417 96.719 68.649 96.9058 69.3701 96.9197C70.0912 96.9337 70.805 96.7744 71.4513 96.4552C72.0977 96.1361 72.6576 95.6664 73.0838 95.0859C73.5101 94.5054 73.7903 93.831 73.9007 93.1196L77.586 69.9708C78.0187 67.2528 78.9835 64.6467 80.4253 62.3015C81.8671 59.9562 83.7577 57.9177 85.9891 56.3023C88.2206 54.6869 90.7491 53.5262 93.4304 52.8866C96.1118 52.2469 98.8933 52.1408 101.616 52.5743C104.339 53.0078 106.95 53.9724 109.301 55.4131C111.651 56.8537 113.694 58.7422 115.313 60.9707C116.933 63.1991 118.097 65.724 118.739 68.401C119.382 71.078 119.489 73.8548 119.057 76.5729L115.371 99.7216C115.28 100.338 115.318 100.966 115.484 101.567C115.65 102.168 115.94 102.727 116.335 103.21L116.067 104.889C115.374 109.248 111.302 110.194 107.721 109.624L102.454 108.786C101.981 107.554 101.115 106.513 99.9893 105.823C98.8637 105.133 97.5417 104.833 96.2283 104.969C94.915 105.106 93.6836 105.671 92.7253 106.577C91.767 107.484 91.1352 108.681 90.9279 109.982C90.7207 111.284 90.9496 112.618 91.5791 113.777C92.2086 114.936 93.2035 115.856 94.4096 116.394C95.6157 116.931 96.9655 117.056 98.2497 116.75C99.5339 116.444 100.681 115.723 101.512 114.699L106.779 115.538C114.626 116.787 120.883 112.796 121.992 105.832L122.217 104.419C124.61 103.674 126.748 102.277 128.39 100.387C130.032 98.4959 131.114 96.1856 131.514 93.7147Z" fill="url(#support-micro-paint0_linear)"/>
<path d="M64.0818 75.1111C66.0334 73.1172 68.5568 71.7772 71.3042 71.2759L77.2286 72.2191L73.9016 93.1177C73.7912 93.8291 73.511 94.5035 73.0847 95.084C72.6585 95.6646 72.0986 96.1342 71.4522 96.4533C70.8059 96.7725 70.0921 96.9318 69.371 96.9179C68.6499 96.9039 67.9426 96.7171 67.3088 96.3732C64.8529 95.0435 62.8703 92.9862 61.6344 90.4849C60.3985 87.9836 59.9702 85.1616 60.4085 82.408C60.8469 79.6544 62.1303 77.1049 64.0818 75.1111Z" fill="url(#support-micro-paint1_linear)"/>
<path d="M130.285 85.6515C129.049 83.1502 127.067 81.0928 124.611 79.7631L118.686 78.82L115.359 99.7186C115.243 100.429 115.3 101.157 115.525 101.841C115.75 102.526 116.137 103.146 116.652 103.65C117.167 104.154 117.796 104.527 118.486 104.738C119.176 104.948 119.906 104.991 120.615 104.86C123.363 104.359 125.886 103.019 127.838 101.025C129.789 99.0314 131.073 96.4819 131.511 93.7283C131.949 90.9747 131.521 88.1527 130.285 85.6515Z" fill="url(#support-micro-paint2_linear)"/>
<circle cx="96.7404" cy="111.13" r="6.32057" transform="rotate(9.04545 96.7404 111.13)" fill="url(#support-micro-paint3_linear)"/>
</g>
<defs>
<filter id="support-micro-filter0_d" x="0.914864" y="0.580191" width="190.092" height="189.777" filterUnits="userSpaceOnUse" color-interpolation-filters="sRGB">
<feFlood flood-opacity="0" result="BackgroundImageFix"/>
<feColorMatrix in="SourceAlpha" type="matrix" values="0 0 0 0 0 0 0 0 0 0 0 0 0 0 0 0 0 0 127 0"/>
<feOffset dy="13.5813"/>
<feGaussianBlur stdDeviation="27.1627"/>
<feColorMatrix type="matrix" values="0 0 0 0 0 0 0 0 0 0 0 0 0 0 0 0 0 0 0.24 0"/>
<feBlend mode="normal" in2="BackgroundImageFix" result="effect1_dropShadow"/>
<feBlend mode="normal" in="SourceGraphic" in2="effect1_dropShadow" result="shape"/>
</filter>
<linearGradient id="support-micro-paint0_linear" x1="102.552" y1="46.6598" x2="91.4917" y2="116.136" gradientUnits="userSpaceOnUse">
<stop stop-color="#42526E"/>
<stop offset="1" stop-color="#344563"/>
</linearGradient>
<linearGradient id="support-micro-paint1_linear" x1="69.8175" y1="71.0392" x2="65.7816" y2="96.3902" gradientUnits="userSpaceOnUse">
<stop stop-color="#33B3E5"/>
<stop offset="1" stop-color="#00A0DF"/>
</linearGradient>
<linearGradient id="support-micro-paint2_linear" x1="126.098" y1="79.9998" x2="122.062" y2="105.351" gradientUnits="userSpaceOnUse">
<stop stop-color="#33B3E5"/>
<stop offset="1" stop-color="#00A0DF"/>
</linearGradient>
<linearGradient id="support-micro-paint3_linear" x1="96.7404" y1="104.81" x2="96.7404" y2="117.451" gradientUnits="userSpaceOnUse">
<stop stop-color="#33B3E5"/>
<stop offset="1" stop-color="#00A0DF"/>
</linearGradient>
<clipPath id="support-micro-clip0">
<rect width="72" height="72" fill="white" transform="translate(67 41) rotate(9.04545)"/>
</clipPath>
</defs>
</svg>
