<svg class="icon"
     viewBox="0 0 40 40"
     fill="none"
     xmlns="http://www.w3.org/2000/svg"
>
    <g clip-path="url(#supportcolor-clip0)">
        <path d="M40.0002 23.2869C40.0006 21.7396 39.52 20.2304 38.6245 18.9674C37.7291 17.7045 36.463 16.7501 35.001 16.2359V14.9701C35.001 10.9998 33.4209 7.1921 30.6084 4.38465C27.7958 1.57721 23.9811 0 20.0035 0C16.0259 0 12.2113 1.57721 9.3987 4.38465C6.58612 7.1921 5.00604 10.9998 5.00604 14.9701V16.2359C3.54246 16.751 2.27501 17.7065 1.37847 18.9709C0.481924 20.2353 0.000455674 21.7462 0.000455674 23.2952C0.000455674 24.8442 0.481924 26.3551 1.37847 27.6195C2.27501 28.8839 3.54246 29.8394 5.00604 30.3545C5.38382 30.4878 5.78818 30.5285 6.18503 30.4732C6.58188 30.4178 6.95959 30.2681 7.28631 30.0365C7.61304 29.805 7.87921 29.4984 8.06238 29.1427C8.24555 28.7869 8.34036 28.3925 8.33881 27.9925L8.33881 14.9701C8.33881 13.4411 8.64053 11.927 9.22674 10.5144C9.81294 9.10174 10.6722 7.81818 11.7553 6.73698C12.8385 5.65579 14.1244 4.79814 15.5396 4.213C16.9549 3.62786 18.4717 3.3267 20.0035 3.3267C21.5354 3.3267 23.0522 3.62786 24.4674 4.213C25.8827 4.79814 27.1686 5.65579 28.2517 6.73698C29.3349 7.81818 30.1941 9.10174 30.7803 10.5144C31.3665 11.927 31.6682 13.4411 31.6682 14.9701V27.9925C31.6718 28.3386 31.7478 28.6801 31.8913 28.9952C32.0347 29.3102 32.2426 29.5919 32.5014 29.8222V30.767C32.5014 33.2187 30.3501 34.0937 28.3355 34.0937H25.3726C25.0058 33.4594 24.4396 32.9638 23.7618 32.6835C23.0839 32.4033 22.3324 32.3541 21.6238 32.5437C20.9151 32.7332 20.2889 33.1509 19.8423 33.7318C19.3957 34.3128 19.1536 35.0247 19.1536 35.757C19.1536 36.4893 19.3957 37.2012 19.8423 37.7822C20.2889 38.3632 20.9151 38.7808 21.6238 38.9704C22.3324 39.1599 23.0839 39.1107 23.7618 38.8305C24.4396 38.5502 25.0058 38.0546 25.3726 37.4204H28.3355C32.7497 37.4204 35.8342 34.6842 35.8342 30.767V29.9719C37.0822 29.3539 38.133 28.401 38.8688 27.2203C39.6047 26.0395 39.9964 24.6775 40.0002 23.2869Z" fill="url(#supportcolor-paint0_linear)"/>
        <path d="M1.37801 18.9707C2.27455 17.7063 3.542 16.7507 5.00558 16.2357H8.33836V27.9923C8.3399 28.3922 8.24509 28.7867 8.06192 29.1424C7.87875 29.4982 7.61258 29.8047 7.28586 30.0363C6.95913 30.2679 6.58142 30.4176 6.18457 30.4729C5.78772 30.5283 5.38336 30.4876 5.00558 30.3542C3.542 29.8392 2.27455 28.8836 1.37801 27.6193C0.481468 26.3549 0 24.844 0 23.295C0 21.7459 0.481468 20.2351 1.37801 18.9707Z" fill="url(#supportcolor-paint1_linear)"/>
        <path d="M38.6212 18.9703C37.7247 17.7059 36.4572 16.7503 34.9937 16.2353H31.6609V27.9918C31.6593 28.3918 31.7542 28.7863 31.9373 29.142C32.1205 29.4978 32.3867 29.8043 32.7134 30.0359C33.0401 30.2674 33.4178 30.4172 33.8147 30.4725C34.2115 30.5278 34.6159 30.4871 34.9937 30.3538C36.4572 29.8388 37.7247 28.8832 38.6212 27.6188C39.5178 26.3545 39.9993 24.8436 39.9993 23.2945C39.9993 21.7455 39.5178 20.2346 38.6212 18.9703Z" fill="url(#supportcolor-paint2_linear)"/>
        <circle cx="22.4425" cy="35.877" r="3.51143" fill="url(#supportcolor-paint3_linear)"/>
    </g>
    <defs>
        <linearGradient id="supportcolor-paint0_linear" x1="20.0003" y1="0" x2="20.0003" y2="39.0837" gradientUnits="userSpaceOnUse">
            <stop stop-color="#42526E"/>
            <stop offset="1" stop-color="#344563"/>
        </linearGradient>
        <linearGradient id="supportcolor-paint1_linear" x1="4.16919" y1="16.2357" x2="4.16919" y2="30.4969" gradientUnits="userSpaceOnUse">
            <stop stop-color="#33B3E5"/>
            <stop offset="1" stop-color="#00A0DF"/>
        </linearGradient>
        <linearGradient id="supportcolor-paint2_linear" x1="35.8301" y1="16.2353" x2="35.8301" y2="30.4965" gradientUnits="userSpaceOnUse">
            <stop stop-color="#33B3E5"/>
            <stop offset="1" stop-color="#00A0DF"/>
        </linearGradient>
        <linearGradient id="supportcolor-paint3_linear" x1="22.4425" y1="32.3655" x2="22.4425" y2="39.3884" gradientUnits="userSpaceOnUse">
            <stop stop-color="#33B3E5"/>
            <stop offset="1" stop-color="#00A0DF"/>
        </linearGradient>
        <clipPath id="supportcolor-clip0">
            <rect width="40" height="40" fill="white"/>
        </clipPath>
    </defs>
</svg>
