<svg class="icon"
     width="24"
     height="24"
     viewBox="0 0 24 24"
     fill="none"
     xmlns="http://www.w3.org/2000/svg"
>
  <path fill-rule="evenodd"
        clip-rule="evenodd"
        d="M6.9781 4.03932C8.30999 2.70743 10.1164 1.95918 12 1.95918C13.8836 1.95918 15.69 2.70743 17.0219 4.03932C18.1275 5.1449 18.8309 6.57746 19.038 8.10969C18.6982 8.17195 18.3825 8.33602 18.1348 8.58374C17.8133 8.90523 17.6327 9.34126 17.6327 9.79592V17.1429C17.6327 17.5975 17.8133 18.0335 18.1348 18.355C18.3948 18.6151 18.7298 18.783 19.089 18.8376C19.0385 19.2743 18.8421 19.6837 18.5282 19.9976C18.1608 20.365 17.6625 20.5714 17.1429 20.5714H15.7139C15.5926 20.2935 15.4196 20.0379 15.2011 19.8193C14.7418 19.3601 14.1189 19.102 13.4694 19.102H12C11.3505 19.102 10.7276 19.3601 10.2683 19.8193C9.80904 20.2786 9.55102 20.9015 9.55102 21.551C9.55102 22.2005 9.80904 22.8234 10.2683 23.2827C10.7276 23.742 11.3505 24 12 24H13.4694C14.1189 24 14.7418 23.742 15.2011 23.2827C15.4196 23.0641 15.5926 22.8085 15.7139 22.5306H17.1429C18.1821 22.5306 19.1787 22.1178 19.9136 21.3829C20.6198 20.6767 21.0286 19.7285 21.0594 18.7332C21.7321 18.5598 22.3527 18.2091 22.8523 17.7095C23.5872 16.9746 24 15.978 24 14.9388V12C24 10.9608 23.5872 9.96413 22.8523 9.2293C22.343 8.71992 21.7078 8.36527 21.0198 8.1956C20.8197 6.1101 19.9013 4.14802 18.4073 2.65397C16.7079 0.954662 14.4032 0 12 0C9.59682 0 7.29206 0.954662 5.59275 2.65397C4.09869 4.14802 3.18026 6.1101 2.98019 8.1956C2.29223 8.36527 1.65704 8.71991 1.14766 9.2293C0.412827 9.96413 0 10.9608 0 12V14.9388C0 15.978 0.412827 16.9746 1.14766 17.7095C1.8825 18.4443 2.87915 18.8571 3.91837 18.8571H4.65306C5.10772 18.8571 5.54375 18.6765 5.86524 18.355C6.18674 18.0336 6.36735 17.5975 6.36735 17.1429V9.79592C6.36735 9.34126 6.18674 8.90523 5.86524 8.58374C5.61753 8.33602 5.30181 8.17194 4.96196 8.10969C5.1691 6.57745 5.87252 5.1449 6.9781 4.03932ZM21.467 16.3241C21.0996 16.6915 20.6012 16.898 20.0816 16.898H19.5918V10.0408H20.0816C20.6012 10.0408 21.0996 10.2472 21.467 10.6146C21.8344 10.9821 22.0408 11.4804 22.0408 12V14.9388C22.0408 15.4584 21.8344 15.9567 21.467 16.3241ZM3.91837 10.0408C3.39876 10.0408 2.90043 10.2472 2.53302 10.6146C2.1656 10.9821 1.95918 11.4804 1.95918 12V14.9388C1.95918 15.4584 2.1656 15.9567 2.53302 16.3241C2.90043 16.6915 3.39876 16.898 3.91837 16.898H4.40816V10.0408H3.91837ZM11.6537 21.2047C11.7455 21.1128 11.8701 21.0612 12 21.0612H13.4694C13.5993 21.0612 13.7239 21.1128 13.8157 21.2047C13.9076 21.2965 13.9592 21.4211 13.9592 21.551C13.9592 21.6809 13.9076 21.8055 13.8157 21.8974C13.7239 21.9892 13.5993 22.0408 13.4694 22.0408H12C11.8701 22.0408 11.7455 21.9892 11.6537 21.8974C11.5618 21.8055 11.5102 21.6809 11.5102 21.551C11.5102 21.4211 11.5618 21.2965 11.6537 21.2047Z"
        fill="#00A0DF"
  />
</svg>
