<svg class="icon"
     width="24"
     height="24"
     viewBox="0 0 24 24"
     fill="none"
     xmlns="http://www.w3.org/2000/svg"
>
  <path d="M21.561 5.854L16.146 0.439C15.8641 0.158997 15.4833 0.00128125 15.086 0L3.5 0C3.10218 0 2.72064 0.158035 2.43934 0.43934C2.15804 0.720644 2 1.10218 2 1.5V22.5C2 22.8978 2.15804 23.2794 2.43934 23.5607C2.72064 23.842 3.10218 24 3.5 24H21.5C21.6326 24 21.7598 23.9473 21.8536 23.8536C21.9473 23.7598 22 23.6326 22 23.5V6.914C22.0005 6.71707 21.962 6.522 21.8866 6.34005C21.8113 6.15811 21.7006 5.99291 21.561 5.854ZM9.817 11.183L6.447 9.923C5.98667 9.70349 5.60273 9.35099 5.34479 8.91104C5.08684 8.47109 4.96674 7.96391 5 7.455C4.99565 6.82282 5.22823 6.21193 5.65191 5.74271C6.0756 5.2735 6.65966 4.97998 7.289 4.92C7.34791 4.9109 7.40161 4.88097 7.44033 4.83565C7.47905 4.79032 7.50022 4.73261 7.5 4.673V4C7.5 3.73478 7.60536 3.48043 7.79289 3.29289C7.98043 3.10536 8.23478 3 8.5 3C8.76522 3 9.01957 3.10536 9.20711 3.29289C9.39464 3.48043 9.5 3.73478 9.5 4V4.625C9.5 4.6913 9.52634 4.75489 9.57322 4.80178C9.62011 4.84866 9.6837 4.875 9.75 4.875H11C11.2652 4.875 11.5196 4.98036 11.7071 5.16789C11.8946 5.35543 12 5.60978 12 5.875C12 6.14022 11.8946 6.39457 11.7071 6.58211C11.5196 6.76964 11.2652 6.875 11 6.875H7.875C7 6.875 7 7.311 7 7.455C6.98412 7.67451 7.04922 7.89224 7.183 8.067L10.553 9.327C11.0142 9.54683 11.3987 9.90011 11.6567 10.3411C11.9147 10.782 12.0343 11.2903 12 11.8C12.0031 12.4313 11.77 13.041 11.3464 13.5091C10.9228 13.9773 10.3395 14.2701 9.711 14.33C9.65209 14.3391 9.59839 14.369 9.55967 14.4144C9.52095 14.4597 9.49978 14.5174 9.5 14.577V15.25C9.5 15.5152 9.39464 15.7696 9.20711 15.9571C9.01957 16.1446 8.76522 16.25 8.5 16.25C8.23478 16.25 7.98043 16.1446 7.79289 15.9571C7.60536 15.7696 7.5 15.5152 7.5 15.25V14.625C7.5 14.5587 7.47366 14.4951 7.42678 14.4482C7.37989 14.4013 7.3163 14.375 7.25 14.375H6C5.73478 14.375 5.48043 14.2696 5.29289 14.0821C5.10536 13.8946 5 13.6402 5 13.375C5 13.1098 5.10536 12.8554 5.29289 12.6679C5.48043 12.4804 5.73478 12.375 6 12.375H9.125C10 12.375 10 11.939 10 11.795C10.0159 11.5755 9.95078 11.3578 9.817 11.183ZM18.5 14.75C18.6989 14.75 18.8897 14.829 19.0303 14.9697C19.171 15.1103 19.25 15.3011 19.25 15.5C19.25 15.6989 19.171 15.8897 19.0303 16.0303C18.8897 16.171 18.6989 16.25 18.5 16.25H13.5C13.3011 16.25 13.1103 16.171 12.9697 16.0303C12.829 15.8897 12.75 15.6989 12.75 15.5C12.75 15.3011 12.829 15.1103 12.9697 14.9697C13.1103 14.829 13.3011 14.75 13.5 14.75H18.5ZM14.75 11C14.75 10.8011 14.829 10.6103 14.9697 10.4697C15.1103 10.329 15.3011 10.25 15.5 10.25H18.5C18.6989 10.25 18.8897 10.329 19.0303 10.4697C19.171 10.6103 19.25 10.8011 19.25 11C19.25 11.1989 19.171 11.3897 19.0303 11.5303C18.8897 11.671 18.6989 11.75 18.5 11.75H15.5C15.3011 11.75 15.1103 11.671 14.9697 11.5303C14.829 11.3897 14.75 11.1989 14.75 11ZM18.5 19.25C18.6989 19.25 18.8897 19.329 19.0303 19.4697C19.171 19.6103 19.25 19.8011 19.25 20C19.25 20.1989 19.171 20.3897 19.0303 20.5303C18.8897 20.671 18.6989 20.75 18.5 20.75H8.5C8.30109 20.75 8.11032 20.671 7.96967 20.5303C7.82902 20.3897 7.75 20.1989 7.75 20C7.75 19.8011 7.82902 19.6103 7.96967 19.4697C8.11032 19.329 8.30109 19.25 8.5 19.25H18.5Z"
        fill="#00A0DF"
  />
</svg>
