<svg class="icon"
     width="24"
     height="24"
     viewBox="0 0 24 24"
     fill="none"
     xmlns="http://www.w3.org/2000/svg"
>
  <path d="M9.71739 10.8266V11.044C9.71739 11.2841 9.52273 11.4788 9.28261 11.4788H2.43478C2.19466 11.4788 2 11.2841 2 11.044V7.78315C2 7.3029 2.38932 6.91359 2.86957 6.91359H7.67391C7.89694 4.69167 9.76692 3 12 3C14.2331 3 16.1031 4.69167 16.3261 6.91359H21.1304C21.6107 6.91359 22 7.3029 22 7.78315V11.044C22 11.2841 21.8053 11.4788 21.5652 11.4788H14.7174C14.4773 11.4788 14.2826 11.2841 14.2826 11.044V10.8266C14.2826 10.4664 13.9906 10.1745 13.6304 10.1745H10.3696C10.0094 10.1745 9.71739 10.4664 9.71739 10.8266ZM12 4.73967C10.727 4.73967 9.63998 5.65844 9.42782 6.91359H14.5722C14.36 5.65844 13.273 4.73967 12 4.73967ZM14.2826 13.5449V13.2179C14.2821 13.0955 14.3333 12.9786 14.4235 12.8958C14.5137 12.813 14.6346 12.7721 14.7565 12.7832H21.5652C21.8053 12.7832 22 12.9778 22 13.2179V19.0875C22 19.5677 21.6107 19.9571 21.1304 19.9571H2.86957C2.38932 19.9571 2 19.5677 2 19.0875V13.2188C2 12.9787 2.19466 12.784 2.43478 12.784H9.28348C9.52361 12.784 9.71827 12.9787 9.71827 13.2188V13.4545C9.69958 14.5649 10.4615 15.5365 11.5444 15.7831C12.2159 15.9187 12.9129 15.7458 13.4433 15.3122C13.9738 14.8786 14.2818 14.23 14.2826 13.5449ZM12.5435 11.4797C12.7836 11.4797 12.9783 11.6743 12.9783 11.9145V13.5449C12.9783 14.0852 12.5403 14.5232 12 14.5232C11.4597 14.5232 11.0217 14.0852 11.0217 13.5449V11.9145C11.0217 11.6743 11.2164 11.4797 11.4565 11.4797H12.5435Z"
        fill="#121E31"
  />
</svg>
