<svg class="icon"
     viewBox="0 0 24 24"
     fill="none"
     xmlns="http://www.w3.org/2000/svg"
>
  <path d="M8.66667 19.9167C8.78173 19.9167 8.875 20.0099 8.875 20.125V20.5417C8.875 21.3471 8.22208 22 7.41667 22C6.61125 22 5.95833 21.3471 5.95833 20.5417V20.125C5.95833 20.0099 6.05161 19.9167 6.16667 19.9167H8.66667ZM17.8333 19.9167C17.9484 19.9167 18.0417 20.0099 18.0417 20.125V20.5417C18.0417 21.3471 17.3887 22 16.5833 22C15.7779 22 15.125 21.3471 15.125 20.5417V20.125C15.125 20.0099 15.2183 19.9167 15.3333 19.9167H17.8333ZM20.5417 5.54417C21.3457 5.54509 21.9977 6.19594 22 7V9.5C21.9991 10.305 21.3467 10.9574 20.5417 10.9583H20.125C20.0099 10.9583 19.9167 11.0516 19.9167 11.1667V16.5833C19.9167 17.964 18.7974 19.0833 17.4167 19.0833H6.58333C5.20262 19.0833 4.08333 17.964 4.08333 16.5833V11.1667C4.08333 11.0516 3.99006 10.9583 3.875 10.9583H3.45833C2.6533 10.9574 2.00092 10.305 2 9.5V7C2.00092 6.19497 2.6533 5.54258 3.45833 5.54167H3.875C3.99006 5.54167 4.08333 5.44839 4.08333 5.33333V4.5C4.08333 3.11929 5.20262 2 6.58333 2H17.4167C18.7974 2 19.9167 3.11929 19.9167 4.5V5.33333C19.916 5.38902 19.9376 5.44266 19.9768 5.48227C20.0159 5.52188 20.0693 5.54418 20.125 5.54417H20.5417ZM8.25 15.9592C8.59518 15.9592 8.875 15.6794 8.875 15.3342C8.875 14.989 8.59518 14.7092 8.25 14.7092H6.58333C6.23815 14.7092 5.95833 14.989 5.95833 15.3342C5.95833 15.6794 6.23815 15.9592 6.58333 15.9592H8.25ZM17.4167 15.9592C17.7618 15.9592 18.0417 15.6794 18.0417 15.3342C18.0417 14.989 17.7618 14.7092 17.4167 14.7092H15.75C15.4048 14.7092 15.125 14.989 15.125 15.3342C15.125 15.6794 15.4048 15.9592 15.75 15.9592H17.4167ZM18.25 12.6258V4.5C18.25 4.03976 17.8769 3.66667 17.4167 3.66667H6.58333C6.1231 3.66667 5.75 4.03976 5.75 4.5V12.6258C5.75 12.7409 5.84327 12.8342 5.95833 12.8342H18.0417C18.1567 12.8342 18.25 12.7409 18.25 12.6258Z"
        fill="#121E31"
  />
</svg>
