<svg class="icon"
     viewBox="0 0 24 24"
     fill="none"
     xmlns="http://www.w3.org/2000/svg"
>
  <path d="M19.6713 0.586644C19.2917 0.426881 18.8521 0.514395 18.5621 0.806445L17.9353 1.4343C17.8355 1.53301 17.6748 1.53301 17.575 1.4343L16.4394 0.297647C16.0425 -0.0992156 15.3984 -0.0992156 15.0005 0.297647L13.8649 1.4343C13.7651 1.53301 13.6044 1.53301 13.5046 1.4343L12.369 0.297647C11.9711 -0.0992156 11.327 -0.0992156 10.9301 0.297647L9.79449 1.4343C9.69476 1.53301 9.53398 1.53301 9.43426 1.4343L8.29862 0.297647C7.90074 -0.0992156 7.25762 -0.0992156 6.85974 0.297647L5.7241 1.43328C5.6254 1.53301 5.46563 1.53403 5.36591 1.43532C5.36489 1.4343 5.36489 1.4343 5.36388 1.43328L4.73805 0.806445C4.34119 0.408565 3.69705 0.407547 3.29917 0.80441C3.10787 0.995718 3 1.2552 3 1.52589V22.4741C3 23.0358 3.45588 23.4917 4.0176 23.4917C4.28726 23.4917 4.54573 23.3849 4.73704 23.1936L5.36388 22.5667C5.4636 22.468 5.62438 22.468 5.7241 22.5667L6.85974 23.7024C7.25762 24.0992 7.90176 24.0992 8.29862 23.7024L9.43426 22.5667C9.53398 22.468 9.69476 22.468 9.79449 22.5667L10.9301 23.7024C11.328 24.0992 11.9721 24.0992 12.369 23.7024L13.5046 22.5667C13.6044 22.468 13.7651 22.468 13.8649 22.5667L15.0005 23.7024C15.3984 24.0992 16.0425 24.0992 16.4394 23.7024L17.575 22.5667C17.6748 22.468 17.8355 22.468 17.9353 22.5667L18.5621 23.1936C18.96 23.5904 19.6041 23.5904 20.001 23.1936C20.1913 23.0033 20.2991 22.7438 20.2991 22.4741V1.52589C20.2991 1.11478 20.0508 0.744371 19.6713 0.586644ZM16.7375 13.7808H15.7199C15.2987 13.7808 14.9568 13.4389 14.9568 13.0176C14.9568 12.5963 15.2987 12.2544 15.7199 12.2544H16.7375C17.1588 12.2544 17.5007 12.5963 17.5007 13.0176C17.5007 13.4389 17.1588 13.7808 16.7375 13.7808ZM17.5007 17.088C17.5007 17.5093 17.1588 17.8512 16.7375 17.8512H15.7199C15.2987 17.8512 14.9568 17.5093 14.9568 17.088C14.9568 16.6667 15.2987 16.3248 15.7199 16.3248H16.7375C17.1588 16.3248 17.5007 16.6667 17.5007 17.088ZM16.7375 9.71041H15.7199C15.2987 9.71041 14.9568 9.3685 14.9568 8.94721C14.9568 8.52593 15.2987 8.18402 15.7199 8.18402H16.7375C17.1588 8.18402 17.5007 8.52593 17.5007 8.94721C17.5007 9.3685 17.1588 9.71041 16.7375 9.71041ZM6.56159 13.7808C6.1403 13.7808 5.79839 13.4389 5.79839 13.0176C5.79839 12.5963 6.1403 12.2544 6.56159 12.2544H11.6496C12.0709 12.2544 12.4128 12.5963 12.4128 13.0176C12.4128 13.4389 12.0709 13.7808 11.6496 13.7808H6.56159ZM10.3776 17.088C10.3776 17.5093 10.0357 17.8512 9.61437 17.8512H6.56159C6.1403 17.8512 5.79839 17.5093 5.79839 17.088C5.79839 16.6667 6.1403 16.3248 6.56159 16.3248H9.61437C10.0357 16.3248 10.3776 16.6667 10.3776 17.088ZM5.79839 8.94721C5.79839 8.52593 6.1403 8.18402 6.56159 8.18402H10.632C11.0533 8.18402 11.3952 8.52593 11.3952 8.94721C11.3952 9.3685 11.0533 9.71041 10.632 9.71041H6.56159C6.1403 9.71041 5.79839 9.3685 5.79839 8.94721Z"
        fill="#00A0DF"
  />
</svg>
