<svg class="icon"
     viewBox="0 0 24 25"
     fill="none"
     xmlns="http://www.w3.org/2000/svg"
>
  <path fill-rule="evenodd"
        clip-rule="evenodd"
        d="M3.26364 9.81081C3.43242 9.97959 3.66134 10.0744 3.90003 10.0744C4.13873 10.0744 4.36765 9.97959 4.53643 9.81081C4.70521 9.64202 4.80003 9.4131 4.80003 9.17441C4.7948 7.77457 5.18942 6.40235 5.93748 5.21915C6.68555 4.03595 7.75594 3.09097 9.02276 2.49538C10.2896 1.89978 11.7001 1.67834 13.0885 1.85709C14.4769 2.03584 15.7854 2.60735 16.86 3.50441C17.0457 3.64156 17.2769 3.70214 17.506 3.67363C17.735 3.64513 17.9443 3.52972 18.0907 3.35125C18.2371 3.17279 18.3093 2.94491 18.2924 2.71472C18.2755 2.48453 18.1709 2.26962 18 2.11441C16.6619 1.00173 15.0341 0.293755 13.3078 0.0735477C11.5814 -0.14666 9.82807 0.130033 8.25343 0.871165C6.67878 1.6123 5.34816 2.78713 4.41766 4.25782C3.48717 5.72852 2.99539 7.43408 3.00003 9.17441C3.00003 9.4131 3.09485 9.64202 3.26364 9.81081ZM10.49 24.1744C11.0376 24.2748 11.5933 24.325 12.15 24.3244C14.5751 24.3191 16.8994 23.3534 18.6142 21.6386C20.329 19.9238 21.2947 17.5995 21.3 15.1744V9.17441C21.2996 8.03575 21.0894 6.90691 20.68 5.84441C20.5925 5.62163 20.4201 5.44274 20.2006 5.3471C19.9812 5.25145 19.7328 5.24689 19.51 5.33441C19.2872 5.42193 19.1083 5.59437 19.0127 5.81379C18.9171 6.03321 18.9125 6.28163 19 6.50441C19.3309 7.35568 19.5005 8.2611 19.5 9.17441V15.1744C19.5053 16.1468 19.3178 17.1107 18.9485 18.0102C18.5791 18.9098 18.0351 19.7272 17.3479 20.4153C16.6608 21.1033 15.8441 21.6484 14.9451 22.019C14.046 22.3896 13.0824 22.5784 12.11 22.5744C11.6607 22.5746 11.2122 22.5345 10.77 22.4544C10.5423 22.4196 10.3099 22.4756 10.123 22.6102C9.93599 22.7448 9.80927 22.9474 9.77002 23.1744C9.73783 23.4018 9.79479 23.6328 9.92897 23.8192C10.0631 24.0055 10.2642 24.1328 10.49 24.1744ZM6.90003 22.4444C6.69128 22.4434 6.48952 22.3691 6.33003 22.2344C5.28601 21.3783 4.44555 20.3007 3.86959 19.0796C3.29363 17.8585 2.9966 16.5245 3.00003 15.1744V12.9244C3.00003 12.6857 3.09485 12.4568 3.26363 12.288C3.43242 12.1192 3.66133 12.0244 3.90003 12.0244C4.13872 12.0244 4.36764 12.1192 4.53643 12.288C4.70521 12.4568 4.80003 12.6857 4.80003 12.9244V15.1744C4.79756 16.2582 5.0358 17.3291 5.49753 18.3096C5.95927 19.2901 6.63298 20.1559 7.47003 20.8444C7.56226 20.919 7.63882 21.0112 7.69531 21.1155C7.7518 21.2199 7.7871 21.3343 7.79918 21.4524C7.81126 21.5704 7.79989 21.6897 7.76571 21.8033C7.73153 21.9169 7.67522 22.0226 7.60003 22.1144C7.51388 22.2164 7.40677 22.2987 7.28599 22.3557C7.1652 22.4126 7.03356 22.4429 6.90003 22.4444ZM15.2636 15.8108C15.4324 15.9796 15.6613 16.0744 15.9 16.0744C16.1387 16.0744 16.3676 15.9796 16.5364 15.8108C16.7052 15.642 16.8 15.4131 16.8 15.1744V9.17441C16.8 8.31085 16.5595 7.46435 16.1055 6.72976C15.6515 5.99517 15.0019 5.40152 14.2295 5.01533C13.4572 4.62913 12.5925 4.46565 11.7324 4.5432C10.8723 4.62075 10.0508 4.93628 9.36 5.45441C9.16904 5.59763 9.0428 5.81084 9.00905 6.04713C8.99233 6.16413 8.99883 6.28328 9.02816 6.39778C9.05749 6.51227 9.10909 6.61986 9.18 6.71441C9.25091 6.80896 9.33976 6.88862 9.44146 6.94884C9.54316 7.00906 9.65572 7.04865 9.77272 7.06537C9.88972 7.08208 10.0089 7.07559 10.1234 7.04626C10.2379 7.01692 10.3454 6.96533 10.44 6.89441C10.8634 6.57685 11.3669 6.38346 11.8941 6.33593C12.4212 6.2884 12.9512 6.38859 13.4246 6.62529C13.898 6.862 14.2961 7.22585 14.5744 7.67608C14.8526 8.12631 15 8.64513 15 9.17441V15.1744C15 15.4131 15.0948 15.642 15.2636 15.8108ZM12.15 19.8244C10.9167 19.8244 9.734 19.3345 8.86195 18.4625C7.98991 17.5904 7.5 16.4077 7.5 15.1744V9.17441C7.5 8.93571 7.59482 8.7068 7.7636 8.53801C7.93239 8.36923 8.16131 8.27441 8.4 8.27441C8.63869 8.27441 8.86761 8.36923 9.0364 8.53801C9.20518 8.7068 9.3 8.93571 9.3 9.17441V15.1744C9.30264 15.9295 9.60375 16.6528 10.1377 17.1868C10.6716 17.7207 11.3949 18.0218 12.15 18.0244C12.5427 18.0258 12.9312 17.944 13.29 17.7844C13.3983 17.7371 13.5149 17.7117 13.6331 17.7094C13.7513 17.7072 13.8688 17.7283 13.9788 17.7715C14.0888 17.8147 14.1893 17.8791 14.2744 17.9611C14.3596 18.0431 14.4277 18.1411 14.475 18.2494C14.5223 18.3577 14.5477 18.4743 14.55 18.5925C14.5522 18.7107 14.5311 18.8282 14.4879 18.9382C14.4447 19.0483 14.3803 19.1487 14.2983 19.2338C14.2163 19.319 14.1183 19.3871 14.01 19.4344C13.4239 19.6925 12.7904 19.8253 12.15 19.8244ZM11.8056 15.2559C11.9148 15.3011 12.0318 15.3244 12.15 15.3244C12.2682 15.3244 12.3852 15.3011 12.4944 15.2559C12.6036 15.2107 12.7028 15.1444 12.7864 15.0608C12.87 14.9772 12.9363 14.878 12.9815 14.7688C13.0267 14.6596 13.05 14.5426 13.05 14.4244V9.92441C13.05 9.68571 12.9552 9.4568 12.7864 9.28801C12.6176 9.11923 12.3887 9.02441 12.15 9.02441C11.9113 9.02441 11.6824 9.11923 11.5136 9.28801C11.3448 9.4568 11.25 9.68571 11.25 9.92441V14.4244C11.25 14.5426 11.2733 14.6596 11.3185 14.7688C11.3637 14.878 11.43 14.9772 11.5136 15.0608C11.5972 15.1444 11.6964 15.2107 11.8056 15.2559Z"
        fill="#00A0DF"
  />
</svg>
