<svg class="icon"
     viewBox="0 0 40 40"
     fill="none"
     xmlns="http://www.w3.org/2000/svg"
>
    <rect x="1.8" y="20" width="18" height="18" rx="5.4" fill="#CA365F"/>
    <rect x="11.7" y="2" width="18" height="18" rx="5.4" fill="#007CBF"/>
    <rect x="9.9" y="2" width="18" height="18" rx="5.4" fill="url(#toys-paint0_linear)"/>
    <rect y="20" width="18" height="18" rx="5.4" fill="url(#toys-paint1_linear)"/>
    <path fill-rule="evenodd" clip-rule="evenodd" d="M17.149 6.54895C16.5414 7.15657 16.2 7.98067 16.2 8.83998V15.32C16.2 15.6064 16.3138 15.8811 16.5163 16.0837C16.7189 16.2862 16.9936 16.4 17.28 16.4C17.5664 16.4 17.8411 16.2862 18.0437 16.0837C18.2462 15.8811 18.36 15.6064 18.36 15.32V12.8C18.36 12.609 18.4359 12.4259 18.5709 12.2909C18.7059 12.1558 18.889 12.08 19.08 12.08H19.8C19.991 12.08 20.1741 12.1558 20.3091 12.2909C20.4441 12.4259 20.52 12.609 20.52 12.8V15.32C20.52 15.6064 20.6338 15.8811 20.8363 16.0837C21.0389 16.2862 21.3136 16.4 21.6 16.4C21.8864 16.4 22.1611 16.2862 22.3637 16.0837C22.5662 15.8811 22.68 15.6064 22.68 15.32V8.83998C22.68 7.98067 22.3386 7.15657 21.731 6.54895C21.1234 5.94133 20.2993 5.59998 19.44 5.59998C18.5807 5.59998 17.7566 5.94133 17.149 6.54895ZM19.8 9.92002H19.08C18.889 9.92002 18.7059 9.84416 18.5709 9.70914C18.4359 9.57411 18.36 9.39098 18.36 9.20002V8.84002C18.36 8.55359 18.4738 8.27889 18.6763 8.07635C18.8789 7.87381 19.1536 7.76002 19.44 7.76002C19.7264 7.76002 20.0011 7.87381 20.2037 8.07635C20.4062 8.27889 20.52 8.55359 20.52 8.84002V9.20002C20.52 9.39098 20.4441 9.57411 20.3091 9.70914C20.1741 9.84416 19.991 9.92002 19.8 9.92002Z" fill="white"/>
    <path fill-rule="evenodd" clip-rule="evenodd" d="M12.2544 29.5445C12.5731 30.0332 12.7538 30.5989 12.7774 31.1818C12.801 31.7647 12.6667 32.3431 12.3886 32.856C12.1105 33.3688 11.6989 33.797 11.1975 34.0951C10.6961 34.3933 10.1234 34.5505 9.54 34.5499H7.38C7.09357 34.5499 6.81887 34.4362 6.61633 34.2336C6.41379 34.0311 6.3 33.7564 6.3 33.4699V24.8299C6.3 24.5435 6.41379 24.2688 6.61633 24.0663C6.81887 23.8637 7.09357 23.7499 7.38 23.7499H9.54C10.1234 23.7494 10.6961 23.9065 11.1975 24.2047C11.6989 24.5029 12.1105 24.9311 12.3886 25.4439C12.6667 25.9567 12.801 26.5352 12.7774 27.1181C12.7538 27.701 12.5731 28.2667 12.2544 28.7554C12.1776 28.8726 12.1367 29.0098 12.1367 29.1499C12.1367 29.2901 12.1776 29.4272 12.2544 29.5445ZM9.54 30.23H9.18C8.98905 30.23 8.80591 30.3059 8.67088 30.4409C8.53586 30.5759 8.46 30.7591 8.46 30.95V31.67C8.46 31.861 8.53586 32.0441 8.67088 32.1791C8.80591 32.3142 8.98905 32.39 9.18 32.39H9.54C9.82644 32.39 10.1011 32.2762 10.3037 32.0737C10.5062 31.8712 10.62 31.5965 10.62 31.31C10.62 31.0236 10.5062 30.7489 10.3037 30.5464C10.1011 30.3438 9.82644 30.23 9.54 30.23ZM9.18 25.91H9.54C9.82644 25.91 10.1011 26.0238 10.3037 26.2264C10.5062 26.4289 10.62 26.7036 10.62 26.99C10.62 27.2765 10.5062 27.5512 10.3037 27.7537C10.1011 27.9563 9.82644 28.07 9.54 28.07H9.18C8.98905 28.07 8.80591 27.9942 8.67088 27.8592C8.53586 27.7241 8.46 27.541 8.46 27.35V26.63C8.46 26.4391 8.53586 26.2559 8.67088 26.1209C8.80591 25.9859 8.98905 25.91 9.18 25.91Z" fill="white"/>
    <rect x="21.6" y="20" width="18" height="18" rx="5.4" fill="#4ABE6B"/>
    <rect x="19.8" y="20" width="18" height="18" rx="5.4" fill="url(#toys-paint2_linear)"/>
    <path d="M31.725 32.6C32.0234 32.6 32.3095 32.7185 32.5205 32.9295C32.7315 33.1405 32.85 33.4266 32.85 33.725C32.85 34.0233 32.7315 34.3095 32.5205 34.5205C32.3095 34.7315 32.0234 34.85 31.725 34.85C30.2332 34.85 28.8024 34.2573 27.7475 33.2024C26.6926 32.1476 26.1 30.7168 26.1 29.225C26.1 27.7331 26.6926 26.3024 27.7475 25.2475C28.8024 24.1926 30.2332 23.6 31.725 23.6C32.0234 23.6 32.3095 23.7185 32.5205 23.9295C32.7315 24.1405 32.85 24.4266 32.85 24.725C32.85 25.0233 32.7315 25.3095 32.5205 25.5205C32.3095 25.7314 32.0234 25.85 31.725 25.85C30.8299 25.85 29.9714 26.2056 29.3385 26.8385C28.7056 27.4714 28.35 28.3299 28.35 29.225C28.35 30.1201 28.7056 30.9785 29.3385 31.6115C29.9714 32.2444 30.8299 32.6 31.725 32.6Z" fill="white"/>
    <defs>
        <linearGradient id="toys-paint0_linear" x1="18.9" y1="2" x2="18.9" y2="45.7143" gradientUnits="userSpaceOnUse">
            <stop stop-color="#00A0DF"/>
            <stop offset="1" stop-color="#007CBF"/>
        </linearGradient>
        <linearGradient id="toys-paint1_linear" x1="9" y1="20" x2="6.7134" y2="56.7037" gradientUnits="userSpaceOnUse">
            <stop stop-color="#EB4B68"/>
            <stop offset="1" stop-color="#CA365F"/>
        </linearGradient>
        <linearGradient id="toys-paint2_linear" x1="28.8" y1="20" x2="28.8" y2="51.5" gradientUnits="userSpaceOnUse">
            <stop stop-color="#66DE7D"/>
            <stop offset="1" stop-color="#4ABE6B"/>
        </linearGradient>
    </defs>
</svg>
