<svg class="icon" viewBox="0 0 40 40" fill="none" xmlns="http://www.w3.org/2000/svg">
  <path d="M20 0C16.0444 0 12.1776 1.17298 8.8886 3.37061C5.59962 5.56823 3.03617 8.69181 1.52242 12.3463C0.00866568 16.0008 -0.387401 20.0222 0.384303 23.9018C1.15601 27.7814 3.06082 31.3451 5.85787 34.1421C8.65492 36.9392 12.2186 38.844 16.0982 39.6157C19.9778 40.3874 23.9991 39.9913 27.6537 38.4776C31.3082 36.9638 34.4318 34.4004 36.6294 31.1114C38.827 27.8224 40 23.9556 40 20C39.9943 14.6974 37.8853 9.61368 34.1358 5.8642C30.3863 2.11471 25.3026 0.00573513 20 0ZM28.6783 22.8433C28.6783 22.8444 28.6779 22.8454 28.6771 22.8462L21.1783 30.345C20.8658 30.6574 20.4419 30.833 20 30.833C19.5581 30.833 19.1342 30.6574 18.8217 30.345L11.3217 22.845C11.0181 22.5307 10.8501 22.1097 10.8539 21.6727C10.8577 21.2357 11.033 20.8176 11.342 20.5086C11.651 20.1996 12.069 20.0243 12.506 20.0205C12.943 20.0167 13.364 20.1847 13.6783 20.4883L17.6217 24.4317C17.6801 24.4903 17.7548 24.5302 17.836 24.5462C17.9172 24.5622 18.0014 24.5537 18.0778 24.5217C18.1541 24.4897 18.2192 24.4356 18.2648 24.3665C18.3103 24.2973 18.3341 24.2161 18.3333 24.1333L18.3333 10C18.3333 9.55797 18.5089 9.13405 18.8215 8.82149C19.1341 8.50893 19.558 8.33333 20 8.33333C20.442 8.33333 20.8659 8.50893 21.1785 8.82149C21.4911 9.13405 21.6667 9.55797 21.6667 10L21.6667 24.1333C21.6665 24.2158 21.6909 24.2965 21.7367 24.3652C21.7824 24.4339 21.8476 24.4874 21.9238 24.519C22 24.5506 22.0839 24.5588 22.1648 24.5427C22.2457 24.5266 22.3201 24.4867 22.3783 24.4283L26.3217 20.485C26.636 20.1814 27.057 20.0134 27.494 20.0172C27.931 20.021 28.349 20.1963 28.658 20.5053C28.967 20.8143 29.1423 21.2323 29.1461 21.6693C29.1499 22.1058 28.9823 22.5263 28.6795 22.8405C28.6787 22.8412 28.6783 22.8422 28.6783 22.8433Z" fill="url(#transfer-in-paint0_linear_36368_953)"/>
  <defs>
    <linearGradient id="transfer-in-paint0_linear_36368_953" x1="20" y1="-14" x2="20" y2="41" gradientUnits="userSpaceOnUse">
      <stop stop-color="#66C6EC"/>
      <stop offset="1" stop-color="#00A0DF"/>
    </linearGradient>
  </defs>
</svg>
