<svg class="icon" viewBox="0 0 40 40" fill="none" xmlns="http://www.w3.org/2000/svg">
  <path d="M20 2C16.4399 2 12.9598 3.05568 9.99974 5.03355C7.03966 7.01141 4.73255 9.82263 3.37017 13.1117C2.0078 16.4008 1.65134 20.02 2.34587 23.5116C3.0404 27.0033 4.75473 30.2106 7.27208 32.7279C9.78942 35.2453 12.9967 36.9596 16.4884 37.6541C19.98 38.3487 23.5992 37.9922 26.8883 36.6298C30.1774 35.2674 32.9886 32.9603 34.9664 30.0003C36.9443 27.0402 38 23.5601 38 20C37.9948 15.2277 36.0968 10.6523 32.7222 7.27778C29.3477 3.90325 24.7723 2.00517 20 2ZM27.8105 22.559C27.8105 22.56 27.8101 22.5609 27.8094 22.5616L21.0605 29.3105C20.7792 29.5917 20.3977 29.7497 20 29.7497C19.6022 29.7497 19.2208 29.5917 18.9395 29.3105L12.1895 22.5605C11.9163 22.2776 11.7651 21.8987 11.7685 21.5054C11.7719 21.1121 11.9297 20.7359 12.2078 20.4578C12.4859 20.1797 12.8621 20.0219 13.2554 20.0185C13.6487 20.0151 14.0276 20.1663 14.3105 20.4395L17.8595 23.9885C17.9121 24.0413 17.9793 24.0772 18.0524 24.0916C18.1255 24.106 18.2013 24.0983 18.27 24.0695C18.3387 24.0407 18.3973 23.9921 18.4383 23.9298C18.4792 23.8676 18.5007 23.7945 18.5 23.72L18.5 11C18.5 10.6022 18.658 10.2206 18.9393 9.93934C19.2206 9.65804 19.6022 9.5 20 9.5C20.3978 9.5 20.7794 9.65804 21.0607 9.93934C21.342 10.2206 21.5 10.6022 21.5 11L21.5 23.72C21.4999 23.7943 21.5218 23.8669 21.563 23.9287C21.6042 23.9905 21.6628 24.0386 21.7314 24.0671C21.8 24.0955 21.8755 24.103 21.9483 24.0884C22.0212 24.0739 22.088 24.0381 22.1405 23.9855L25.6895 20.4365C25.9724 20.1633 26.3513 20.0121 26.7446 20.0155C27.1379 20.0189 27.5141 20.1767 27.7922 20.4548C28.0703 20.7329 28.2281 21.1091 28.2315 21.5024C28.2349 21.8952 28.0841 22.2736 27.8115 22.5564C27.8109 22.5571 27.8105 22.558 27.8105 22.559Z" fill="url(#transfer-microillustration-paint0_linear)"/>
  <path d="M21.0605 29.3105L27.8094 22.5616C27.8101 22.5609 27.8105 22.56 27.8105 22.559C27.8105 22.558 27.8109 22.5571 27.8115 22.5564C28.0841 22.2736 28.2349 21.8952 28.2315 21.5024C28.2281 21.1091 28.0703 20.7329 27.7922 20.4548C27.5141 20.1767 27.1379 20.0189 26.7446 20.0155C26.3513 20.0121 25.9724 20.1633 25.6895 20.4365L22.1405 23.9855C22.088 24.0381 22.0212 24.0739 21.9483 24.0884C21.8755 24.1029 21.8 24.0955 21.7314 24.0671C21.6628 24.0386 21.6042 23.9905 21.563 23.9287C21.5218 23.8669 21.4999 23.7943 21.5 23.72L21.5 11C21.5 10.6022 21.342 10.2206 21.0607 9.93934C20.7793 9.65804 20.3978 9.5 20 9.5C19.6022 9.5 19.2206 9.65804 18.9393 9.93934C18.658 10.2206 18.5 10.6022 18.5 11L18.5 23.72C18.5007 23.7945 18.4792 23.8676 18.4383 23.9298C18.3973 23.9921 18.3387 24.0407 18.27 24.0695C18.2013 24.0983 18.1255 24.106 18.0524 24.0916C17.9793 24.0772 17.9121 24.0413 17.8595 23.9885L14.3105 20.4395C14.0276 20.1663 13.6487 20.0151 13.2554 20.0185C12.8621 20.0219 12.4859 20.1797 12.2078 20.4578C11.9297 20.7359 11.7719 21.1121 11.7685 21.5054C11.7651 21.8987 11.9163 22.2776 12.1895 22.5605L18.9395 29.3105C19.2208 29.5917 19.6022 29.7497 20 29.7497C20.3977 29.7497 20.7792 29.5917 21.0605 29.3105Z" fill="white"/>
  <defs>
    <linearGradient id="transfer-microillustration-paint0_linear" x1="20" y1="2" x2="20" y2="50.375" gradientUnits="userSpaceOnUse">
      <stop stop-color="#00A0DF"/>
      <stop offset="1" stop-color="#66C6EC"/>
    </linearGradient>
  </defs>
</svg>
