<svg class="icon"
     viewBox="0 0 40 40"
     fill="none"
     xmlns="http://www.w3.org/2000/svg"
>
    <path d="M20 39C23.7578 39 27.4313 37.8857 30.5558 35.7979C33.6804 33.7102 36.1156 30.7428 37.5537 27.271C38.9918 23.7992 39.368 19.9789 38.6349 16.2933C37.9018 12.6077 36.0922 9.22218 33.435 6.56498C30.7778 3.90778 27.3923 2.09821 23.7067 1.36509C20.0211 0.631972 16.2008 1.00823 12.729 2.4463C9.25722 3.88436 6.28982 6.31964 4.20208 9.44417C2.11433 12.5687 1 16.2422 1 20C1.00545 25.0374 3.00898 29.867 6.57098 33.429C10.133 36.991 14.9626 38.9945 20 39ZM11.7556 17.2989C11.7556 17.2978 11.756 17.2968 11.7567 17.2961L18.8806 10.1723C19.1775 9.87543 19.5802 9.70868 20 9.70868C20.4198 9.70868 20.8225 9.87543 21.1194 10.1723L28.2444 17.2973C28.5328 17.5959 28.6924 17.9958 28.6888 18.411C28.6852 18.8261 28.5187 19.2232 28.2251 19.5168C27.9316 19.8104 27.5344 19.9769 27.1193 19.9805C26.7041 19.9841 26.3042 19.8245 26.0056 19.5361L22.2594 15.7899C22.2039 15.7342 22.133 15.6963 22.0558 15.6811C21.9786 15.6659 21.8987 15.674 21.8261 15.7044C21.7536 15.7348 21.6917 15.7861 21.6485 15.8519C21.6052 15.9176 21.5826 15.9947 21.5833 16.0733L21.5833 29.5C21.5833 29.9199 21.4165 30.3227 21.1196 30.6196C20.8226 30.9165 20.4199 31.0833 20 31.0833C19.5801 31.0833 19.1773 30.9165 18.8804 30.6196C18.5835 30.3227 18.4167 29.9199 18.4167 29.5L18.4167 16.0733C18.4168 15.9949 18.3937 15.9183 18.3502 15.8531C18.3067 15.7878 18.2448 15.737 18.1724 15.707C18.1 15.6769 18.0203 15.6691 17.9434 15.6844C17.8665 15.6998 17.7959 15.7376 17.7406 15.7931L13.9944 19.5393C13.6958 19.8277 13.2958 19.9873 12.8807 19.9837C12.4655 19.98 12.0684 19.8135 11.7749 19.52C11.4813 19.2264 11.3148 18.8293 11.3112 18.4141C11.3076 17.9995 11.4668 17.6 11.7545 17.3015C11.7552 17.3008 11.7556 17.2999 11.7556 17.2989Z" fill="url(#transfercolor-paint0_linear)"/>
    <path d="M18.8806 10.1722L11.7567 17.2961C11.756 17.2968 11.7556 17.2978 11.7556 17.2988C11.7556 17.2998 11.7552 17.3008 11.7545 17.3015C11.4668 17.6 11.3076 17.9995 11.3112 18.4141C11.3148 18.8293 11.4813 19.2264 11.7749 19.5199C12.0684 19.8135 12.4656 19.98 12.8807 19.9836C13.2958 19.9872 13.6958 19.8277 13.9944 19.5392L17.7406 15.7931C17.7959 15.7376 17.8665 15.6998 17.9434 15.6844C18.0203 15.6691 18.1 15.6769 18.1724 15.7069C18.2448 15.737 18.3067 15.7878 18.3502 15.853C18.3937 15.9183 18.4168 15.9949 18.4167 16.0733L18.4167 29.5C18.4167 29.9199 18.5835 30.3226 18.8804 30.6196C19.1773 30.9165 19.5801 31.0833 20 31.0833C20.4199 31.0833 20.8226 30.9165 21.1196 30.6196C21.4165 30.3226 21.5833 29.9199 21.5833 29.5L21.5833 16.0733C21.5826 15.9947 21.6052 15.9176 21.6485 15.8518C21.6917 15.7861 21.7536 15.7348 21.8261 15.7044C21.8987 15.674 21.9786 15.6659 22.0558 15.6811C22.133 15.6963 22.2039 15.7342 22.2594 15.7899L26.0056 19.5361C26.3042 19.8245 26.7041 19.9841 27.1193 19.9805C27.5344 19.9769 27.9316 19.8103 28.2251 19.5168C28.5187 19.2232 28.6852 18.8261 28.6888 18.411C28.6924 17.9958 28.5328 17.5959 28.2444 17.2972L21.1194 10.1722C20.8225 9.87541 20.4198 9.70866 20 9.70866C19.5802 9.70866 19.1775 9.87541 18.8806 10.1722Z" fill="white"/>
    <defs>
        <linearGradient id="transfercolor-paint0_linear" x1="20" y1="39" x2="20" y2="-12.0625" gradientUnits="userSpaceOnUse">
            <stop stop-color="#00A0DF"/>
            <stop offset="1" stop-color="#66C6EC"/>
        </linearGradient>
    </defs>
</svg>
