<svg class="icon"
     width="24"
     height="24"
     viewBox="0 0 24 24"
     fill="none"
     xmlns="http://www.w3.org/2000/svg"
>
  <path fill-rule="evenodd"
        clip-rule="evenodd"
        d="M13.7081 6.47884L6.56113 13.6258C6.27986 13.9072 5.89834 14.0654 5.50048 14.0655C5.10262 14.0656 4.72102 13.9076 4.43963 13.6263C4.15823 13.3451 4.00009 12.9636 4 12.5657C3.99991 12.1678 4.15786 11.7862 4.43913 11.5048L11.5871 4.35684C11.6104 4.3337 11.6288 4.3062 11.6414 4.27591C11.654 4.24562 11.6605 4.21314 11.6605 4.18034C11.6605 4.14754 11.654 4.11506 11.6414 4.08477C11.6288 4.05448 11.6104 4.02698 11.5871 4.00384L10.7031 3.11984C10.5781 2.99474 10.4884 2.83871 10.4433 2.66765C10.3983 2.4966 10.3994 2.31664 10.4465 2.14615C10.4937 1.97566 10.5853 1.82074 10.7118 1.69718C10.8384 1.57363 10.9955 1.48586 11.1671 1.44284L16.8241 0.0288417C16.9913 -0.0122121 17.1663 -0.00939578 17.3321 0.0370178C17.4979 0.0834314 17.6489 0.17187 17.7705 0.29377C17.8921 0.41567 17.9802 0.566902 18.0262 0.732822C18.0722 0.898743 18.0746 1.07373 18.0331 1.24084L16.6191 6.89784C16.5766 7.06929 16.4894 7.22641 16.3665 7.35323C16.2435 7.48005 16.0892 7.57204 15.9191 7.61984C15.8321 7.64364 15.7423 7.65575 15.6521 7.65584C15.3869 7.65579 15.1326 7.55039 14.9451 7.36284L14.0611 6.47884C14.0381 6.45535 14.0107 6.43668 13.9804 6.42394C13.9501 6.4112 13.9175 6.40463 13.8846 6.40463C13.8517 6.40463 13.8192 6.4112 13.7889 6.42394C13.7586 6.43668 13.7311 6.45535 13.7081 6.47884ZM9.79207 17.5188L16.9391 10.3718V10.3768C17.0783 10.2375 17.2437 10.127 17.4257 10.0515C17.6077 9.97611 17.8027 9.93726 17.9997 9.93721C18.1967 9.93716 18.3918 9.97592 18.5738 10.0513C18.7558 10.1266 18.9212 10.2371 19.0606 10.3763C19.1999 10.5156 19.3104 10.681 19.3859 10.8629C19.4613 11.0449 19.5002 11.24 19.5002 11.437C19.5002 11.634 19.4615 11.8291 19.3861 12.0111C19.3108 12.1931 19.2003 12.3585 19.0611 12.4978L11.9131 19.6448C11.8898 19.6681 11.8713 19.6956 11.8587 19.726C11.8461 19.7564 11.8396 19.789 11.8396 19.8218C11.8396 19.8547 11.8461 19.8873 11.8587 19.9177C11.8713 19.948 11.8898 19.9756 11.9131 19.9988L12.7971 20.8778C12.9219 21.003 13.0113 21.1589 13.0562 21.3298C13.1012 21.5008 13.1 21.6805 13.0528 21.8509C13.0057 22.0212 12.9142 22.176 12.7878 22.2995C12.6614 22.4229 12.5045 22.5107 12.3331 22.5538L6.67607 23.9678C6.59672 23.9885 6.51506 23.9989 6.43307 23.9988C6.28118 23.9988 6.13128 23.9642 5.99477 23.8975C5.85826 23.8309 5.73873 23.7341 5.64523 23.6144C5.55173 23.4946 5.48674 23.3552 5.45518 23.2066C5.42361 23.058 5.42631 22.9042 5.46307 22.7568L6.87707 17.0988C6.91986 16.927 7.00752 16.7696 7.1311 16.6427C7.25467 16.5158 7.40972 16.424 7.5804 16.3767C7.75108 16.3294 7.93125 16.3283 8.1025 16.3735C8.27375 16.4187 8.42993 16.5085 8.55507 16.6338L9.43907 17.5188C9.48594 17.5656 9.54941 17.5918 9.61557 17.5918C9.68174 17.5918 9.74521 17.5656 9.79207 17.5188Z"
        fill="#00A0DF"
  />
</svg>
