<svg class="icon"
     viewBox="0 0 24 24"
     fill="none"
     xmlns="http://www.w3.org/2000/svg"
>
  <path fill-rule="evenodd"
        clip-rule="evenodd"
        d="M12.0391 0.00101405C15.3148 -0.0289994 18.5624 0.60752 21.5844 1.87187C22.0263 2.06243 22.4029 2.37775 22.6682 2.77918C22.9336 3.18062 23.076 3.65073 23.0781 4.13191V11.4353C23.0404 14.0505 22.205 16.5919 20.6837 18.7194C19.1624 20.847 17.0277 22.4593 14.5652 23.3407L13.4947 23.7409C12.5554 24.0864 11.5238 24.0864 10.5844 23.7409L9.5119 23.3407C7.04973 22.4589 4.91543 20.8464 3.39436 18.719C1.87329 16.5915 1.03794 14.0503 1 11.4353V4.13191C1.00216 3.65087 1.14451 3.18089 1.40962 2.7795C1.67473 2.3781 2.05111 2.06269 2.49268 1.87187C5.51519 0.607923 8.76305 -0.0285774 12.0391 0.00101405ZM15.9695 11.5027L19.0889 10.1368C19.4804 9.92535 19.7833 9.58195 19.9431 9.16833C20.1028 8.7547 20.1089 8.29797 19.9603 7.88026C19.7797 7.47899 19.4498 7.16284 19.0399 6.99811C18.63 6.83339 18.1719 6.83287 17.7616 6.99667L14.5154 8.28553L11.1294 6.17713C10.98 6.08338 10.8086 6.03 10.6321 6.02228C10.4556 6.01456 10.2802 6.05276 10.1231 6.1331L9.23557 6.5904C9.07796 6.67101 8.94423 6.79113 8.84761 6.93889C8.75099 7.08665 8.69482 7.25693 8.68465 7.43289C8.67449 7.60885 8.71068 7.7844 8.78966 7.94219C8.86863 8.09998 8.98765 8.23454 9.13495 8.33256L11.1092 9.63343L8.46277 10.6841L6.38383 9.75851C6.2369 9.69336 6.0766 9.66357 5.91592 9.67157C5.75525 9.67957 5.59873 9.72512 5.45908 9.80454L4.52125 10.3459C4.36995 10.4324 4.24356 10.5562 4.15421 10.7053C4.06486 10.8544 4.01555 11.0238 4.011 11.1973C4.00645 11.3708 4.04683 11.5426 4.12825 11.6961C4.20967 11.8497 4.32941 11.9798 4.47597 12.074L7.86304 14.2485C7.99882 14.3361 8.15372 14.3901 8.31479 14.4059C8.47585 14.4218 8.63839 14.399 8.78879 14.3396L11.7754 13.1678L10.8516 15.5514C10.7814 15.715 10.7582 15.8948 10.7844 16.0708C10.8107 16.2467 10.8854 16.4121 11.0003 16.5484C11.1152 16.6848 11.2659 16.7868 11.4355 16.8433C11.6052 16.8997 11.7872 16.9084 11.9615 16.8682C12.3701 16.7281 13.0805 16.3949 13.0805 16.3949C13.2593 16.3026 13.4064 16.1594 13.5031 15.9836L15.9695 11.5027Z"
        fill="#00A0DF"
  />
</svg>
