<svg class="icon"
     viewBox="0 0 24 24"
     fill="none"
     xmlns="http://www.w3.org/2000/svg"
>
  <path d="M21.75 2H2.25C1.65351 2.00079 1.08167 2.2381 0.659886 2.65989C0.238102 3.08167 0.000793738 3.65351 0 4.25L0 15.25C0.000793738 15.8465 0.238102 16.4183 0.659886 16.8401C1.08167 17.2619 1.65351 17.4992 2.25 17.5H8.5C8.63261 17.5 8.75979 17.5527 8.85355 17.6464C8.94732 17.7402 9 17.8674 9 18V19C9 19.1326 8.94732 19.2598 8.85355 19.3536C8.75979 19.4473 8.63261 19.5 8.5 19.5H7.25C6.91848 19.5 6.60054 19.6317 6.36612 19.8661C6.1317 20.1005 6 20.4185 6 20.75C6 21.0815 6.1317 21.3995 6.36612 21.6339C6.60054 21.8683 6.91848 22 7.25 22H16.75C17.0815 22 17.3995 21.8683 17.6339 21.6339C17.8683 21.3995 18 21.0815 18 20.75C18 20.4185 17.8683 20.1005 17.6339 19.8661C17.3995 19.6317 17.0815 19.5 16.75 19.5H15.5C15.3674 19.5 15.2402 19.4473 15.1464 19.3536C15.0527 19.2598 15 19.1326 15 19V18C15 17.8674 15.0527 17.7402 15.1464 17.6464C15.2402 17.5527 15.3674 17.5 15.5 17.5H21.75C22.3465 17.4992 22.9183 17.2619 23.3401 16.8401C23.7619 16.4183 23.9992 15.8465 24 15.25V4.25C23.9992 3.65351 23.7619 3.08167 23.3401 2.65989C22.9183 2.2381 22.3465 2.00079 21.75 2ZM21.5 14.5C21.5 14.6326 21.4473 14.7598 21.3536 14.8536C21.2598 14.9473 21.1326 15 21 15H3C2.86739 15 2.74021 14.9473 2.64645 14.8536C2.55268 14.7598 2.5 14.6326 2.5 14.5V5C2.5 4.86739 2.55268 4.74021 2.64645 4.64645C2.74021 4.55268 2.86739 4.5 3 4.5H21C21.1326 4.5 21.2598 4.55268 21.3536 4.64645C21.4473 4.74021 21.5 4.86739 21.5 5V14.5Z"
        fill="#00A0DF"
  />
</svg>
