<svg class="icon" viewBox="0 0 40 40" fill="none" xmlns="http://www.w3.org/2000/svg">
<rect y="5" width="40" height="26" rx="4" fill="url(#tv-microillustration-paint0_linear)"/>
<rect x="4" y="33" width="32" height="2" rx="1" fill="url(#tv-microillustration-paint1_linear)"/>
<rect x="14" y="31" width="12" height="2" fill="#005DA0"/>
<rect x="2" y="29" width="22" height="36" rx="2" transform="rotate(-90 2 29)" fill="white"/>
<rect opacity="0.4" x="2" y="29" width="22" height="36" rx="2" transform="rotate(-90 2 29)" fill="#99D9F2"/>
<g opacity="0.4">
<mask id="tv-microillustration-mask0" mask-type="alpha" maskUnits="userSpaceOnUse" x="2" y="7" width="36" height="22">
<rect x="2" y="29" width="22" height="36" rx="2" transform="rotate(-90 2 29)" fill="#99D9F2"/>
</mask>
<g mask="url(#tv-microillustration-mask0)">
<path opacity="0.5" d="M38 29L2 7L38 7L38 29Z" fill="url(#tv-microillustration-paint2_linear)"/>
</g>
</g>
<defs>
<linearGradient id="tv-microillustration-paint0_linear" x1="20" y1="5" x2="23.3724" y2="52.2275" gradientUnits="userSpaceOnUse">
<stop stop-color="#00A0DF"/>
<stop offset="1" stop-color="#007CBF"/>
</linearGradient>
<linearGradient id="tv-microillustration-paint1_linear" x1="20" y1="33" x2="20.0251" y2="36.6512" gradientUnits="userSpaceOnUse">
<stop stop-color="#00A0DF"/>
<stop offset="1" stop-color="#007CBF"/>
</linearGradient>
<linearGradient id="tv-microillustration-paint2_linear" x1="3" y1="18" x2="32.5" y2="20" gradientUnits="userSpaceOnUse">
<stop stop-color="#33B3E5"/>
<stop offset="1" stop-color="#99D9F2" stop-opacity="0"/>
</linearGradient>
</defs>
</svg>
