<svg class="icon" viewBox="0 0 329 101" fill="none" xmlns="http://www.w3.org/2000/svg">
<rect x="26" y="46" width="285" height="2" fill="#66C6EC"/>
<path d="M16 30C12.8355 30 9.74207 30.9384 7.11088 32.6965C4.4797 34.4546 2.42894 36.9534 1.21793 39.8771C0.00693258 42.8007 -0.309921 46.0177 0.307443 49.1214C0.924806 52.2251 2.44866 55.0761 4.6863 57.3137C6.92394 59.5513 9.77487 61.0752 12.8786 61.6926C15.9823 62.3099 19.1993 61.9931 22.1229 60.7821C25.0466 59.5711 27.5454 57.5203 29.3035 54.8891C31.0616 52.2579 32 49.1645 32 46C31.9951 41.758 30.3078 37.6913 27.3083 34.6917C24.3087 31.6922 20.242 30.0049 16 30Z" fill="url(#unlock-coins-paint0_linear)"/>
<mask id="unlock-coins-path-3-inside-1" fill="white">
<path d="M21.3333 44.3328H20.8333V42.4995C20.833 41.4192 20.4442 40.3751 19.7379 39.5578C19.0315 38.7405 18.0548 38.2045 16.9859 38.0477C15.9171 37.8909 14.8276 38.1237 13.9162 38.7037C13.0049 39.2837 12.3326 40.1721 12.022 41.2068C11.9906 41.3116 11.9802 41.4216 11.9913 41.5305C12.0024 41.6394 12.0349 41.745 12.0868 41.8413C12.1388 41.9376 12.2092 42.0228 12.294 42.0919C12.3789 42.161 12.4765 42.2127 12.5813 42.2441C12.6862 42.2755 12.7962 42.2859 12.905 42.2748C13.0139 42.2637 13.1195 42.2312 13.2158 42.1793C13.3122 42.1274 13.3973 42.057 13.4664 41.9721C13.5356 41.8873 13.5873 41.7896 13.6187 41.6848C13.8145 41.0335 14.2379 40.4744 14.8118 40.1094C15.3856 39.7444 16.0715 39.598 16.7444 39.6968C17.4172 39.7956 18.0321 40.1331 18.4768 40.6476C18.9215 41.1621 19.1664 41.8194 19.1667 42.4995V43.9995C19.1667 44.0879 19.1315 44.1726 19.069 44.2352C19.0065 44.2977 18.9217 44.3328 18.8333 44.3328H11.3333C10.9797 44.3328 10.6406 44.4733 10.3905 44.7233C10.1405 44.9734 10 45.3125 10 45.6661V52.6661C10 53.0197 10.1405 53.3589 10.3905 53.6089C10.6406 53.859 10.9797 53.9995 11.3333 53.9995H21.3333C21.687 53.9995 22.0261 53.859 22.2761 53.6089C22.5262 53.3589 22.6667 53.0197 22.6667 52.6661V45.6661C22.6667 45.3125 22.5262 44.9734 22.2761 44.7233C22.0261 44.4733 21.687 44.3328 21.3333 44.3328ZM16.3333 50.3328C16.0696 50.3328 15.8118 50.2546 15.5926 50.1081C15.3733 49.9616 15.2024 49.7533 15.1015 49.5097C15.0006 49.2661 14.9742 48.998 15.0256 48.7393C15.0771 48.4807 15.2041 48.2431 15.3905 48.0566C15.577 47.8702 15.8146 47.7432 16.0732 47.6917C16.3319 47.6403 16.5999 47.6667 16.8436 47.7676C17.0872 47.8685 17.2955 48.0394 17.442 48.2587C17.5885 48.478 17.6667 48.7357 17.6667 48.9995C17.6667 49.3531 17.5262 49.6922 17.2761 49.9423C17.0261 50.1923 16.687 50.3328 16.3333 50.3328Z"/>
</mask>
<path d="M21.3333 44.3328H20.8333V42.4995C20.833 41.4192 20.4442 40.3751 19.7379 39.5578C19.0315 38.7405 18.0548 38.2045 16.9859 38.0477C15.9171 37.8909 14.8276 38.1237 13.9162 38.7037C13.0049 39.2837 12.3326 40.1721 12.022 41.2068C11.9906 41.3116 11.9802 41.4216 11.9913 41.5305C12.0024 41.6394 12.0349 41.745 12.0868 41.8413C12.1388 41.9376 12.2092 42.0228 12.294 42.0919C12.3789 42.161 12.4765 42.2127 12.5813 42.2441C12.6862 42.2755 12.7962 42.2859 12.905 42.2748C13.0139 42.2637 13.1195 42.2312 13.2158 42.1793C13.3122 42.1274 13.3973 42.057 13.4664 41.9721C13.5356 41.8873 13.5873 41.7896 13.6187 41.6848C13.8145 41.0335 14.2379 40.4744 14.8118 40.1094C15.3856 39.7444 16.0715 39.598 16.7444 39.6968C17.4172 39.7956 18.0321 40.1331 18.4768 40.6476C18.9215 41.1621 19.1664 41.8194 19.1667 42.4995V43.9995C19.1667 44.0879 19.1315 44.1726 19.069 44.2352C19.0065 44.2977 18.9217 44.3328 18.8333 44.3328H11.3333C10.9797 44.3328 10.6406 44.4733 10.3905 44.7233C10.1405 44.9734 10 45.3125 10 45.6661V52.6661C10 53.0197 10.1405 53.3589 10.3905 53.6089C10.6406 53.859 10.9797 53.9995 11.3333 53.9995H21.3333C21.687 53.9995 22.0261 53.859 22.2761 53.6089C22.5262 53.3589 22.6667 53.0197 22.6667 52.6661V45.6661C22.6667 45.3125 22.5262 44.9734 22.2761 44.7233C22.0261 44.4733 21.687 44.3328 21.3333 44.3328ZM16.3333 50.3328C16.0696 50.3328 15.8118 50.2546 15.5926 50.1081C15.3733 49.9616 15.2024 49.7533 15.1015 49.5097C15.0006 49.2661 14.9742 48.998 15.0256 48.7393C15.0771 48.4807 15.2041 48.2431 15.3905 48.0566C15.577 47.8702 15.8146 47.7432 16.0732 47.6917C16.3319 47.6403 16.5999 47.6667 16.8436 47.7676C17.0872 47.8685 17.2955 48.0394 17.442 48.2587C17.5885 48.478 17.6667 48.7357 17.6667 48.9995C17.6667 49.3531 17.5262 49.6922 17.2761 49.9423C17.0261 50.1923 16.687 50.3328 16.3333 50.3328Z" fill="white"/>
<path d="M20.8333 44.3328H18.0333C18.0333 45.8792 19.2869 47.1328 20.8333 47.1328V44.3328ZM20.8333 42.4995H23.6333L23.6333 42.4987L20.8333 42.4995ZM12.022 41.2068L9.3402 40.4018L9.33962 40.4038L12.022 41.2068ZM13.6187 41.6848L10.9372 40.8786L10.9363 40.8818L13.6187 41.6848ZM19.1667 42.4995H21.9667L21.9667 42.4982L19.1667 42.4995ZM10 45.6661H7.2H10ZM10 52.6661H7.2H10ZM21.3333 41.5328H20.8333V47.1328H21.3333V41.5328ZM23.6333 44.3328V42.4995H18.0333V44.3328H23.6333ZM23.6333 42.4987C23.6329 40.7464 23.0021 39.0527 21.8563 37.7269L17.6194 41.3886C17.8863 41.6975 18.0332 42.092 18.0333 42.5002L23.6333 42.4987ZM21.8563 37.7269C20.7105 36.4011 19.1261 35.5317 17.3924 35.2773L16.5795 40.818C16.9834 40.8773 17.3525 41.0798 17.6194 41.3886L21.8563 37.7269ZM17.3924 35.2773C15.6586 35.023 13.8912 35.4007 12.4129 36.3415L15.4196 41.0659C15.7639 40.8468 16.1757 40.7588 16.5795 40.818L17.3924 35.2773ZM12.4129 36.3415C10.9346 37.2823 9.84397 38.7235 9.3402 40.4018L14.7038 42.0118C14.8211 41.6208 15.0752 41.2851 15.4196 41.0659L12.4129 36.3415ZM9.33962 40.4038C9.20278 40.8608 9.15731 41.3404 9.20581 41.8151L14.7768 41.2459C14.8031 41.5028 14.7784 41.7624 14.7044 42.0098L9.33962 40.4038ZM9.20581 41.8151C9.25431 42.2898 9.39582 42.7502 9.62227 43.1702L14.5514 40.5124C14.674 40.7397 14.7506 40.989 14.7768 41.2459L9.20581 41.8151ZM9.62227 43.1702C9.84872 43.5902 10.1557 43.9614 10.5256 44.2628L14.0624 39.921C14.2627 40.0841 14.4288 40.2851 14.5514 40.5124L9.62227 43.1702ZM10.5256 44.2628C10.8955 44.5641 11.3212 44.7897 11.7783 44.9265L13.3844 39.5617C13.6318 39.6358 13.8622 39.7579 14.0624 39.921L10.5256 44.2628ZM11.7783 44.9265C12.2354 45.0633 12.715 45.1088 13.1896 45.0603L12.6204 39.4893C12.8774 39.4631 13.1369 39.4877 13.3844 39.5617L11.7783 44.9265ZM13.1896 45.0603C13.6643 45.0118 14.1248 44.8703 14.5447 44.6438L11.8869 39.7147C12.1143 39.5922 12.3635 39.5156 12.6204 39.4893L13.1896 45.0603ZM14.5447 44.6438C14.9647 44.4174 15.336 44.1104 15.6373 43.7405L11.2956 40.2037C11.4587 40.0035 11.6596 39.8373 11.8869 39.7147L14.5447 44.6438ZM15.6373 43.7405C15.9387 43.3706 16.1642 42.9449 16.301 42.4878L10.9363 40.8818C11.0104 40.6343 11.1324 40.4039 11.2956 40.2037L15.6373 43.7405ZM16.3001 42.4909C16.3025 42.4831 16.3075 42.4764 16.3144 42.472L13.3091 37.7468C12.1683 38.4723 11.3265 39.5839 10.9372 40.8786L16.3001 42.4909ZM16.3144 42.472C16.3213 42.4677 16.3295 42.4659 16.3376 42.4671L17.1512 36.9265C15.8136 36.7301 14.4499 37.0212 13.3091 37.7468L16.3144 42.472ZM16.3376 42.4671C16.3457 42.4683 16.3531 42.4723 16.3584 42.4785L20.5953 38.8167C19.7112 37.7938 18.4888 37.1229 17.1512 36.9265L16.3376 42.4671ZM16.3584 42.4785C16.3637 42.4847 16.3667 42.4926 16.3667 42.5007L21.9667 42.4982C21.9661 41.1462 21.4793 39.8396 20.5953 38.8167L16.3584 42.4785ZM16.3667 42.4995V43.9995H21.9667V42.4995H16.3667ZM16.3667 43.9995C16.3667 43.3453 16.6265 42.7179 17.0891 42.2553L21.0489 46.2151C21.6366 45.6274 21.9667 44.8305 21.9667 43.9995H16.3667ZM17.0891 42.2553C17.5517 41.7927 18.1791 41.5328 18.8333 41.5328V47.1328C19.6643 47.1328 20.4613 46.8027 21.0489 46.2151L17.0891 42.2553ZM18.8333 41.5328H11.3333V47.1328H18.8333V41.5328ZM11.3333 41.5328C10.2371 41.5328 9.18577 41.9683 8.41063 42.7434L12.3704 46.7032C12.0954 46.9783 11.7223 47.1328 11.3333 47.1328V41.5328ZM8.41063 42.7434C7.63548 43.5186 7.2 44.5699 7.2 45.6661H12.8C12.8 46.0551 12.6455 46.4282 12.3704 46.7032L8.41063 42.7434ZM7.2 45.6661V52.6661H12.8V45.6661H7.2ZM7.2 52.6661C7.2 53.7623 7.63548 54.8137 8.41063 55.5888L12.3704 51.629C12.6455 51.9041 12.8 52.2771 12.8 52.6661H7.2ZM8.41063 55.5888C9.18577 56.364 10.2371 56.7995 11.3333 56.7995V51.1995C11.7223 51.1995 12.0954 51.354 12.3704 51.629L8.41063 55.5888ZM11.3333 56.7995H21.3333V51.1995H11.3333V56.7995ZM21.3333 56.7995C22.4296 56.7995 23.4809 56.364 24.256 55.5888L20.2962 51.629C20.5713 51.354 20.9443 51.1995 21.3333 51.1995V56.7995ZM24.256 55.5888C25.0312 54.8137 25.4667 53.7624 25.4667 52.6661H19.8667C19.8667 52.2771 20.0212 51.9041 20.2962 51.629L24.256 55.5888ZM25.4667 52.6661V45.6661H19.8667V52.6661H25.4667ZM25.4667 45.6661C25.4667 44.5699 25.0312 43.5186 24.256 42.7434L20.2962 46.7032C20.0212 46.4282 19.8667 46.0551 19.8667 45.6661H25.4667ZM24.256 42.7434C23.4809 41.9683 22.4296 41.5328 21.3333 41.5328V47.1328C20.9443 47.1328 20.5713 46.9783 20.2962 46.7032L24.256 42.7434ZM16.3333 47.5328C16.6234 47.5328 16.907 47.6188 17.1482 47.78L14.037 52.4362C14.7167 52.8904 15.5158 53.1328 16.3333 53.1328V47.5328ZM17.1482 47.78C17.3894 47.9411 17.5773 48.1702 17.6884 48.4382L12.5146 50.5812C12.8275 51.3365 13.3573 51.982 14.037 52.4362L17.1482 47.78ZM17.6884 48.4382C17.7994 48.7062 17.8284 49.0011 17.7718 49.2856L12.2794 48.1931C12.1199 48.9949 12.2018 49.8259 12.5146 50.5812L17.6884 48.4382ZM17.7718 49.2856C17.7152 49.5701 17.5755 49.8314 17.3704 50.0365L13.4106 46.0767C12.8326 46.6548 12.4389 47.3913 12.2794 48.1931L17.7718 49.2856ZM17.3704 50.0365C17.1653 50.2417 16.904 50.3813 16.6195 50.4379L15.527 44.9455C14.7252 45.105 13.9887 45.4987 13.4106 46.0767L17.3704 50.0365ZM16.6195 50.4379C16.335 50.4945 16.0401 50.4655 15.7721 50.3545L17.9151 45.1808C17.1598 44.8679 16.3287 44.7861 15.527 44.9455L16.6195 50.4379ZM15.7721 50.3545C15.5041 50.2435 15.275 50.0555 15.1138 49.8143L19.7701 46.7031C19.3159 46.0234 18.6704 45.4936 17.9151 45.1808L15.7721 50.3545ZM15.1138 49.8143C14.9527 49.5731 14.8667 49.2895 14.8667 48.9995H20.4667C20.4667 48.182 20.2242 47.3828 19.7701 46.7031L15.1138 49.8143ZM14.8667 48.9995C14.8667 48.6105 15.0212 48.2374 15.2962 47.9624L19.256 51.9222C20.0312 51.147 20.4667 50.0957 20.4667 48.9995H14.8667ZM15.2962 47.9624C15.5713 47.6873 15.9443 47.5328 16.3333 47.5328V53.1328C17.4296 53.1328 18.4809 52.6973 19.256 51.9222L15.2962 47.9624Z" fill="white" mask="url(#unlock-coins-path-3-inside-1)"/>
<path d="M313 30C309.836 30 306.742 30.9384 304.111 32.6965C301.48 34.4546 299.429 36.9534 298.218 39.8771C297.007 42.8007 296.69 46.0177 297.307 49.1214C297.925 52.2251 299.449 55.0761 301.686 57.3137C303.924 59.5513 306.775 61.0752 309.879 61.6926C312.982 62.3099 316.199 61.9931 319.123 60.7821C322.047 59.5711 324.545 57.5203 326.304 54.8891C328.062 52.2579 329 49.1645 329 46C328.995 41.758 327.308 37.6913 324.308 34.6917C321.309 31.6922 317.242 30.0049 313 30Z" fill="url(#unlock-coins-paint1_linear)"/>
<path d="M318 44.3333H317.5V42.5C317.5 41.3065 317.026 40.1619 316.182 39.318C315.338 38.4741 314.194 38 313 38C311.807 38 310.662 38.4741 309.818 39.318C308.974 40.1619 308.5 41.3065 308.5 42.5V44.3333H308C307.647 44.3333 307.308 44.4738 307.058 44.7239C306.807 44.9739 306.667 45.313 306.667 45.6667V52.6667C306.667 53.0203 306.807 53.3594 307.058 53.6095C307.308 53.8595 307.647 54 308 54H318C318.354 54 318.693 53.8595 318.943 53.6095C319.193 53.3594 319.334 53.0203 319.334 52.6667V45.6667C319.334 45.313 319.193 44.9739 318.943 44.7239C318.693 44.4738 318.354 44.3333 318 44.3333ZM313 50.3333C312.737 50.3333 312.479 50.2551 312.26 50.1086C312.04 49.9621 311.869 49.7539 311.768 49.5102C311.668 49.2666 311.641 48.9985 311.693 48.7399C311.744 48.4812 311.871 48.2437 312.058 48.0572C312.244 47.8707 312.482 47.7437 312.74 47.6923C312.999 47.6408 313.267 47.6672 313.511 47.7682C313.754 47.8691 313.962 48.04 314.109 48.2592C314.255 48.4785 314.334 48.7363 314.334 49C314.334 49.3536 314.193 49.6928 313.943 49.9428C313.693 50.1929 313.354 50.3333 313 50.3333ZM315.834 44C315.834 44.0884 315.799 44.1732 315.736 44.2357C315.674 44.2982 315.589 44.3333 315.5 44.3333H310.5C310.412 44.3333 310.327 44.2982 310.265 44.2357C310.202 44.1732 310.167 44.0884 310.167 44V42.5C310.167 41.7486 310.466 41.0279 310.997 40.4965C311.528 39.9652 312.249 39.6667 313 39.6667C313.752 39.6667 314.472 39.9652 315.004 40.4965C315.535 41.0279 315.834 41.7486 315.834 42.5V44Z" fill="url(#unlock-coins-paint2_linear)"/>
<path d="M247 30C243.836 30 240.742 30.9384 238.111 32.6965C235.48 34.4546 233.429 36.9534 232.218 39.8771C231.007 42.8007 230.69 46.0177 231.307 49.1214C231.925 52.2251 233.449 55.0761 235.686 57.3137C237.924 59.5513 240.775 61.0752 243.879 61.6926C246.982 62.3099 250.199 61.9931 253.123 60.7821C256.047 59.5711 258.545 57.5203 260.304 54.8891C262.062 52.2579 263 49.1645 263 46C262.995 41.758 261.308 37.6913 258.308 34.6917C255.309 31.6922 251.242 30.0049 247 30Z" fill="url(#unlock-coins-paint3_linear)"/>
<path d="M252 44.3333H251.5V42.5C251.5 41.3065 251.026 40.1619 250.182 39.318C249.338 38.4741 248.194 38 247 38C245.807 38 244.662 38.4741 243.818 39.318C242.974 40.1619 242.5 41.3065 242.5 42.5V44.3333H242C241.647 44.3333 241.308 44.4738 241.058 44.7239C240.807 44.9739 240.667 45.313 240.667 45.6667V52.6667C240.667 53.0203 240.807 53.3594 241.058 53.6095C241.308 53.8595 241.647 54 242 54H252C252.354 54 252.693 53.8595 252.943 53.6095C253.193 53.3594 253.334 53.0203 253.334 52.6667V45.6667C253.334 45.313 253.193 44.9739 252.943 44.7239C252.693 44.4738 252.354 44.3333 252 44.3333ZM247 50.3333C246.737 50.3333 246.479 50.2551 246.26 50.1086C246.04 49.9621 245.869 49.7539 245.768 49.5102C245.668 49.2666 245.641 48.9985 245.693 48.7399C245.744 48.4812 245.871 48.2437 246.058 48.0572C246.244 47.8707 246.482 47.7437 246.74 47.6923C246.999 47.6408 247.267 47.6672 247.511 47.7682C247.754 47.8691 247.962 48.04 248.109 48.2592C248.255 48.4785 248.334 48.7363 248.334 49C248.334 49.3536 248.193 49.6928 247.943 49.9428C247.693 50.1929 247.354 50.3333 247 50.3333ZM249.834 44C249.834 44.0884 249.799 44.1732 249.736 44.2357C249.674 44.2982 249.589 44.3333 249.5 44.3333H244.5C244.412 44.3333 244.327 44.2982 244.265 44.2357C244.202 44.1732 244.167 44.0884 244.167 44V42.5C244.167 41.7486 244.466 41.0279 244.997 40.4965C245.528 39.9652 246.249 39.6667 247 39.6667C247.752 39.6667 248.472 39.9652 249.004 40.4965C249.535 41.0279 249.834 41.7486 249.834 42.5V44Z" fill="url(#unlock-coins-paint4_linear)"/>
<path d="M82 30C78.8355 30 75.7421 30.9384 73.1109 32.6965C70.4797 34.4546 68.4289 36.9534 67.2179 39.8771C66.0069 42.8007 65.6901 46.0177 66.3074 49.1214C66.9248 52.2251 68.4487 55.0761 70.6863 57.3137C72.9239 59.5513 75.7749 61.0752 78.8786 61.6926C81.9823 62.3099 85.1993 61.9931 88.1229 60.7821C91.0466 59.5711 93.5454 57.5203 95.3035 54.8891C97.0616 52.2579 98 49.1645 98 46C97.9951 41.758 96.3078 37.6913 93.3083 34.6917C90.3087 31.6922 86.242 30.0049 82 30Z" fill="url(#unlock-coins-paint5_linear)"/>
<mask id="unlock-coins-path-10-inside-2" fill="white">
<path d="M87.3333 44.3328H86.8333V42.4995C86.833 41.4192 86.4442 40.3751 85.7379 39.5578C85.0315 38.7405 84.0548 38.2045 82.9859 38.0477C81.9171 37.8909 80.8276 38.1237 79.9162 38.7037C79.0049 39.2837 78.3326 40.1721 78.022 41.2068C77.9906 41.3116 77.9802 41.4216 77.9913 41.5305C78.0024 41.6394 78.0349 41.745 78.0868 41.8413C78.1388 41.9376 78.2092 42.0228 78.294 42.0919C78.3789 42.161 78.4765 42.2127 78.5813 42.2441C78.6862 42.2755 78.7962 42.2859 78.905 42.2748C79.0139 42.2637 79.1195 42.2312 79.2158 42.1793C79.3122 42.1274 79.3973 42.057 79.4664 41.9721C79.5356 41.8873 79.5873 41.7896 79.6187 41.6848C79.8145 41.0335 80.2379 40.4744 80.8118 40.1094C81.3856 39.7444 82.0715 39.598 82.7444 39.6968C83.4172 39.7956 84.0321 40.1331 84.4768 40.6476C84.9215 41.1621 85.1664 41.8194 85.1667 42.4995V43.9995C85.1667 44.0879 85.1315 44.1726 85.069 44.2352C85.0065 44.2977 84.9217 44.3328 84.8333 44.3328H77.3333C76.9797 44.3328 76.6406 44.4733 76.3905 44.7233C76.1405 44.9734 76 45.3125 76 45.6661V52.6661C76 53.0197 76.1405 53.3589 76.3905 53.6089C76.6406 53.859 76.9797 53.9995 77.3333 53.9995H87.3333C87.687 53.9995 88.0261 53.859 88.2761 53.6089C88.5262 53.3589 88.6667 53.0197 88.6667 52.6661V45.6661C88.6667 45.3125 88.5262 44.9734 88.2761 44.7233C88.0261 44.4733 87.687 44.3328 87.3333 44.3328ZM82.3333 50.3328C82.0696 50.3328 81.8118 50.2546 81.5926 50.1081C81.3733 49.9616 81.2024 49.7533 81.1015 49.5097C81.0006 49.2661 80.9742 48.998 81.0256 48.7393C81.0771 48.4807 81.2041 48.2431 81.3905 48.0566C81.577 47.8702 81.8146 47.7432 82.0732 47.6917C82.3319 47.6403 82.5999 47.6667 82.8436 47.7676C83.0872 47.8685 83.2955 48.0394 83.442 48.2587C83.5885 48.478 83.6667 48.7357 83.6667 48.9995C83.6667 49.3531 83.5262 49.6922 83.2761 49.9423C83.0261 50.1923 82.687 50.3328 82.3333 50.3328Z"/>
</mask>
<path d="M87.3333 44.3328H86.8333V42.4995C86.833 41.4192 86.4442 40.3751 85.7379 39.5578C85.0315 38.7405 84.0548 38.2045 82.9859 38.0477C81.9171 37.8909 80.8276 38.1237 79.9162 38.7037C79.0049 39.2837 78.3326 40.1721 78.022 41.2068C77.9906 41.3116 77.9802 41.4216 77.9913 41.5305C78.0024 41.6394 78.0349 41.745 78.0868 41.8413C78.1388 41.9376 78.2092 42.0228 78.294 42.0919C78.3789 42.161 78.4765 42.2127 78.5813 42.2441C78.6862 42.2755 78.7962 42.2859 78.905 42.2748C79.0139 42.2637 79.1195 42.2312 79.2158 42.1793C79.3122 42.1274 79.3973 42.057 79.4664 41.9721C79.5356 41.8873 79.5873 41.7896 79.6187 41.6848C79.8145 41.0335 80.2379 40.4744 80.8118 40.1094C81.3856 39.7444 82.0715 39.598 82.7444 39.6968C83.4172 39.7956 84.0321 40.1331 84.4768 40.6476C84.9215 41.1621 85.1664 41.8194 85.1667 42.4995V43.9995C85.1667 44.0879 85.1315 44.1726 85.069 44.2352C85.0065 44.2977 84.9217 44.3328 84.8333 44.3328H77.3333C76.9797 44.3328 76.6406 44.4733 76.3905 44.7233C76.1405 44.9734 76 45.3125 76 45.6661V52.6661C76 53.0197 76.1405 53.3589 76.3905 53.6089C76.6406 53.859 76.9797 53.9995 77.3333 53.9995H87.3333C87.687 53.9995 88.0261 53.859 88.2761 53.6089C88.5262 53.3589 88.6667 53.0197 88.6667 52.6661V45.6661C88.6667 45.3125 88.5262 44.9734 88.2761 44.7233C88.0261 44.4733 87.687 44.3328 87.3333 44.3328ZM82.3333 50.3328C82.0696 50.3328 81.8118 50.2546 81.5926 50.1081C81.3733 49.9616 81.2024 49.7533 81.1015 49.5097C81.0006 49.2661 80.9742 48.998 81.0256 48.7393C81.0771 48.4807 81.2041 48.2431 81.3905 48.0566C81.577 47.8702 81.8146 47.7432 82.0732 47.6917C82.3319 47.6403 82.5999 47.6667 82.8436 47.7676C83.0872 47.8685 83.2955 48.0394 83.442 48.2587C83.5885 48.478 83.6667 48.7357 83.6667 48.9995C83.6667 49.3531 83.5262 49.6922 83.2761 49.9423C83.0261 50.1923 82.687 50.3328 82.3333 50.3328Z" fill="white"/>
<path d="M86.8333 44.3328H84.0333C84.0333 45.8792 85.2869 47.1328 86.8333 47.1328V44.3328ZM86.8333 42.4995H89.6333L89.6333 42.4987L86.8333 42.4995ZM78.022 41.2068L75.3402 40.4018L75.3396 40.4038L78.022 41.2068ZM79.6187 41.6848L76.9372 40.8786L76.9363 40.8818L79.6187 41.6848ZM85.1667 42.4995H87.9667L87.9667 42.4982L85.1667 42.4995ZM76 45.6661H73.2H76ZM76 52.6661H73.2H76ZM87.3333 41.5328H86.8333V47.1328H87.3333V41.5328ZM89.6333 44.3328V42.4995H84.0333V44.3328H89.6333ZM89.6333 42.4987C89.6329 40.7464 89.0021 39.0527 87.8563 37.7269L83.6194 41.3886C83.8863 41.6975 84.0332 42.092 84.0333 42.5002L89.6333 42.4987ZM87.8563 37.7269C86.7105 36.4011 85.1261 35.5317 83.3924 35.2773L82.5795 40.818C82.9834 40.8773 83.3525 41.0798 83.6194 41.3886L87.8563 37.7269ZM83.3924 35.2773C81.6586 35.023 79.8912 35.4007 78.4129 36.3415L81.4196 41.0659C81.7639 40.8468 82.1757 40.7588 82.5795 40.818L83.3924 35.2773ZM78.4129 36.3415C76.9346 37.2823 75.844 38.7235 75.3402 40.4018L80.7038 42.0118C80.8211 41.6208 81.0752 41.2851 81.4196 41.0659L78.4129 36.3415ZM75.3396 40.4038C75.2028 40.8608 75.1573 41.3404 75.2058 41.8151L80.7768 41.2459C80.8031 41.5028 80.7784 41.7624 80.7044 42.0098L75.3396 40.4038ZM75.2058 41.8151C75.2543 42.2898 75.3958 42.7502 75.6223 43.1702L80.5514 40.5124C80.674 40.7397 80.7506 40.989 80.7768 41.2459L75.2058 41.8151ZM75.6223 43.1702C75.8487 43.5902 76.1557 43.9614 76.5256 44.2628L80.0624 39.921C80.2627 40.0841 80.4288 40.2851 80.5514 40.5124L75.6223 43.1702ZM76.5256 44.2628C76.8955 44.5641 77.3212 44.7897 77.7783 44.9265L79.3844 39.5617C79.6318 39.6358 79.8622 39.7579 80.0624 39.921L76.5256 44.2628ZM77.7783 44.9265C78.2354 45.0633 78.715 45.1088 79.1896 45.0603L78.6204 39.4893C78.8774 39.4631 79.1369 39.4877 79.3844 39.5617L77.7783 44.9265ZM79.1896 45.0603C79.6643 45.0118 80.1248 44.8703 80.5447 44.6438L77.8869 39.7147C78.1143 39.5922 78.3635 39.5156 78.6204 39.4893L79.1896 45.0603ZM80.5447 44.6438C80.9647 44.4174 81.336 44.1104 81.6373 43.7405L77.2956 40.2037C77.4587 40.0035 77.6596 39.8373 77.8869 39.7147L80.5447 44.6438ZM81.6373 43.7405C81.9387 43.3706 82.1642 42.9449 82.301 42.4878L76.9363 40.8818C77.0104 40.6343 77.1324 40.4039 77.2956 40.2037L81.6373 43.7405ZM82.3001 42.4909C82.3025 42.4831 82.3075 42.4764 82.3144 42.472L79.3091 37.7468C78.1683 38.4723 77.3265 39.5839 76.9372 40.8786L82.3001 42.4909ZM82.3144 42.472C82.3213 42.4677 82.3295 42.4659 82.3376 42.4671L83.1512 36.9265C81.8136 36.7301 80.4499 37.0212 79.3091 37.7468L82.3144 42.472ZM82.3376 42.4671C82.3457 42.4683 82.3531 42.4723 82.3584 42.4785L86.5953 38.8167C85.7112 37.7938 84.4888 37.1229 83.1512 36.9265L82.3376 42.4671ZM82.3584 42.4785C82.3637 42.4847 82.3667 42.4926 82.3667 42.5007L87.9667 42.4982C87.9661 41.1462 87.4793 39.8396 86.5953 38.8167L82.3584 42.4785ZM82.3667 42.4995V43.9995H87.9667V42.4995H82.3667ZM82.3667 43.9995C82.3667 43.3453 82.6265 42.7179 83.0891 42.2553L87.0489 46.2151C87.6366 45.6274 87.9667 44.8305 87.9667 43.9995H82.3667ZM83.0891 42.2553C83.5517 41.7927 84.1791 41.5328 84.8333 41.5328V47.1328C85.6643 47.1328 86.4613 46.8027 87.0489 46.2151L83.0891 42.2553ZM84.8333 41.5328H77.3333V47.1328H84.8333V41.5328ZM77.3333 41.5328C76.2371 41.5328 75.1858 41.9683 74.4106 42.7434L78.3704 46.7032C78.0954 46.9783 77.7223 47.1328 77.3333 47.1328V41.5328ZM74.4106 42.7434C73.6355 43.5186 73.2 44.5699 73.2 45.6661H78.8C78.8 46.0551 78.6455 46.4282 78.3704 46.7032L74.4106 42.7434ZM73.2 45.6661V52.6661H78.8V45.6661H73.2ZM73.2 52.6661C73.2 53.7623 73.6355 54.8137 74.4106 55.5888L78.3704 51.629C78.6455 51.9041 78.8 52.2771 78.8 52.6661H73.2ZM74.4106 55.5888C75.1858 56.364 76.2371 56.7995 77.3333 56.7995V51.1995C77.7223 51.1995 78.0954 51.354 78.3704 51.629L74.4106 55.5888ZM77.3333 56.7995H87.3333V51.1995H77.3333V56.7995ZM87.3333 56.7995C88.4296 56.7995 89.4809 56.364 90.256 55.5888L86.2962 51.629C86.5713 51.354 86.9443 51.1995 87.3333 51.1995V56.7995ZM90.256 55.5888C91.0312 54.8137 91.4667 53.7624 91.4667 52.6661H85.8667C85.8667 52.2771 86.0212 51.9041 86.2962 51.629L90.256 55.5888ZM91.4667 52.6661V45.6661H85.8667V52.6661H91.4667ZM91.4667 45.6661C91.4667 44.5699 91.0312 43.5186 90.256 42.7434L86.2962 46.7032C86.0212 46.4282 85.8667 46.0551 85.8667 45.6661H91.4667ZM90.256 42.7434C89.4809 41.9683 88.4296 41.5328 87.3333 41.5328V47.1328C86.9443 47.1328 86.5713 46.9783 86.2962 46.7032L90.256 42.7434ZM82.3333 47.5328C82.6234 47.5328 82.907 47.6188 83.1482 47.78L80.037 52.4362C80.7167 52.8904 81.5158 53.1328 82.3333 53.1328V47.5328ZM83.1482 47.78C83.3894 47.9411 83.5773 48.1702 83.6884 48.4382L78.5146 50.5812C78.8275 51.3365 79.3573 51.982 80.037 52.4362L83.1482 47.78ZM83.6884 48.4382C83.7994 48.7062 83.8284 49.0011 83.7718 49.2856L78.2794 48.1931C78.1199 48.9949 78.2018 49.8259 78.5146 50.5812L83.6884 48.4382ZM83.7718 49.2856C83.7152 49.5701 83.5755 49.8314 83.3704 50.0365L79.4106 46.0767C78.8326 46.6548 78.4389 47.3913 78.2794 48.1931L83.7718 49.2856ZM83.3704 50.0365C83.1653 50.2417 82.904 50.3813 82.6195 50.4379L81.527 44.9455C80.7252 45.105 79.9887 45.4987 79.4106 46.0767L83.3704 50.0365ZM82.6195 50.4379C82.335 50.4945 82.0401 50.4655 81.7721 50.3545L83.9151 45.1808C83.1598 44.8679 82.3287 44.7861 81.527 44.9455L82.6195 50.4379ZM81.7721 50.3545C81.5041 50.2435 81.275 50.0555 81.1138 49.8143L85.7701 46.7031C85.3159 46.0234 84.6704 45.4936 83.9151 45.1808L81.7721 50.3545ZM81.1138 49.8143C80.9527 49.5731 80.8667 49.2895 80.8667 48.9995H86.4667C86.4667 48.182 86.2242 47.3828 85.7701 46.7031L81.1138 49.8143ZM80.8667 48.9995C80.8667 48.6105 81.0212 48.2374 81.2962 47.9624L85.256 51.9222C86.0312 51.147 86.4667 50.0957 86.4667 48.9995H80.8667ZM81.2962 47.9624C81.5713 47.6873 81.9443 47.5328 82.3333 47.5328V53.1328C83.4296 53.1328 84.4809 52.6973 85.256 51.9222L81.2962 47.9624Z" fill="white" mask="url(#unlock-coins-path-10-inside-2)"/>
<g filter="url(#unlock-coins-filter0_d)">
<mask id="unlock-coins-path-12-outside-3" maskUnits="userSpaceOnUse" x="126.176" y="2.09094" width="77.4132" height="87.7186" fill="black">
<rect fill="white" x="126.176" y="2.09094" width="77.4132" height="87.7186"/>
<path fill-rule="evenodd" clip-rule="evenodd" d="M159.144 12.9399C145.678 15.5347 136.827 28.6101 139.422 42.0764C141.063 50.5937 146.897 57.2645 154.371 60.3607L148.329 61.525C146.199 61.9355 144.804 63.9952 145.215 66.1255L145.71 68.697C146.112 70.7796 148.089 72.1587 150.168 71.8358L146.511 72.5406C144.38 72.9511 142.986 75.0108 143.397 77.1411L143.892 79.7126C144.303 81.8429 146.362 83.2371 148.493 82.8266L189.637 74.8985C191.767 74.488 193.161 72.4283 192.751 70.298L192.255 67.7265C191.854 65.6439 189.876 64.2648 187.798 64.5876L191.455 63.8829C193.585 63.4724 194.979 61.4127 194.569 59.2824L194.073 56.7109C193.663 54.5806 191.603 53.1864 189.473 53.5969L181.196 55.1918C186.984 49.5401 189.921 41.1792 188.28 32.6619C185.772 19.1789 172.696 10.3284 159.144 12.9399Z"/>
</mask>
<path fill-rule="evenodd" clip-rule="evenodd" d="M159.144 12.9399C145.678 15.5347 136.827 28.6101 139.422 42.0764C141.063 50.5937 146.897 57.2645 154.371 60.3607L148.329 61.525C146.199 61.9355 144.804 63.9952 145.215 66.1255L145.71 68.697C146.112 70.7796 148.089 72.1587 150.168 71.8358L146.511 72.5406C144.38 72.9511 142.986 75.0108 143.397 77.1411L143.892 79.7126C144.303 81.8429 146.362 83.2371 148.493 82.8266L189.637 74.8985C191.767 74.488 193.161 72.4283 192.751 70.298L192.255 67.7265C191.854 65.6439 189.876 64.2648 187.798 64.5876L191.455 63.8829C193.585 63.4724 194.979 61.4127 194.569 59.2824L194.073 56.7109C193.663 54.5806 191.603 53.1864 189.473 53.5969L181.196 55.1918C186.984 49.5401 189.921 41.1792 188.28 32.6619C185.772 19.1789 172.696 10.3284 159.144 12.9399Z" fill="white"/>
<path d="M154.371 60.3607L155.204 64.6856L169.615 61.9088L156.057 56.2917L154.371 60.3607ZM148.329 61.525L149.162 65.8499L148.329 61.525ZM150.168 71.8358L151.001 76.1607L149.492 67.4836L150.168 71.8358ZM146.511 72.5406L145.677 68.2157L146.511 72.5406ZM148.493 82.8266L149.326 87.1515L148.493 82.8266ZM189.637 74.8985L188.803 70.5736L189.637 74.8985ZM187.798 64.5876L186.964 60.2627L188.473 68.9399L187.798 64.5876ZM181.196 55.1918L178.119 52.0405L167.618 62.2935L182.029 59.5167L181.196 55.1918ZM188.28 32.6619L183.95 33.4675L183.953 33.4814L183.955 33.4952L188.28 32.6619ZM143.747 41.243C141.612 30.1652 148.9 19.3993 159.977 17.2648L158.311 8.61499C142.456 11.6701 132.042 27.0549 135.097 42.9098L143.747 41.243ZM156.057 56.2917C149.887 53.7357 145.095 48.2405 143.747 41.243L135.097 42.9098C137.031 52.947 143.908 60.7934 152.685 64.4298L156.057 56.2917ZM149.162 65.8499L155.204 64.6856L153.538 56.0359L147.496 57.2001L149.162 65.8499ZM149.54 65.2921C149.59 65.5504 149.421 65.8001 149.162 65.8499L147.496 57.2001C142.977 58.0708 140.019 62.44 140.89 66.9589L149.54 65.2921ZM150.035 67.8636L149.54 65.2921L140.89 66.9589L141.386 69.5304L150.035 67.8636ZM149.492 67.4836C149.747 67.444 149.987 67.6102 150.035 67.8636L141.386 69.5304C142.237 73.949 146.432 76.8734 150.844 76.1881L149.492 67.4836ZM147.344 76.8655L151.001 76.1607L149.335 67.511L145.677 68.2157L147.344 76.8655ZM147.721 76.3077C147.771 76.566 147.602 76.8157 147.344 76.8655L145.677 68.2157C141.158 69.0865 138.201 73.4556 139.072 77.9745L147.721 76.3077ZM148.217 78.8792L147.721 76.3077L139.072 77.9745L139.567 80.546L148.217 78.8792ZM147.659 78.5017C147.918 78.4519 148.167 78.621 148.217 78.8792L139.567 80.546C140.438 85.0648 144.807 88.0222 149.326 87.1515L147.659 78.5017ZM188.803 70.5736L147.659 78.5017L149.326 87.1515L190.47 79.2234L188.803 70.5736ZM188.426 71.1314C188.376 70.8731 188.545 70.6234 188.803 70.5736L190.47 79.2234C194.989 78.3526 197.946 73.9835 197.076 69.4646L188.426 71.1314ZM187.93 68.5599L188.426 71.1314L197.076 69.4646L196.58 66.8931L187.93 68.5599ZM188.473 68.9399C188.219 68.9795 187.979 68.8133 187.93 68.5599L196.58 66.8931C195.729 62.4745 191.534 59.5501 187.122 60.2354L188.473 68.9399ZM190.622 59.558L186.964 60.2627L188.631 68.9125L192.288 68.2078L190.622 59.558ZM190.244 60.1157C190.194 59.8575 190.363 59.6077 190.622 59.558L192.288 68.2078C196.807 67.337 199.765 62.9679 198.894 58.449L190.244 60.1157ZM189.749 57.5442L190.244 60.1157L198.894 58.449L198.398 55.8775L189.749 57.5442ZM190.306 57.9218C190.048 57.9715 189.798 57.8025 189.749 57.5442L198.398 55.8775C197.528 51.3586 193.158 48.4012 188.64 49.272L190.306 57.9218ZM182.029 59.5167L190.306 57.9218L188.64 49.272L180.363 50.8669L182.029 59.5167ZM183.955 33.4952C185.304 40.4927 182.897 47.3749 178.119 52.0405L184.273 58.3431C191.071 51.7054 194.539 41.8657 192.605 31.8285L183.955 33.4952ZM159.977 17.2648C171.157 15.1106 181.893 22.413 183.95 33.4675L192.61 31.8562C189.65 15.9448 174.236 5.54625 158.311 8.61499L159.977 17.2648Z" fill="white" mask="url(#unlock-coins-path-12-outside-3)"/>
</g>
<g clip-path="url(#unlock-coins-clip0)">
<path d="M158.947 12.8084C145.48 15.4032 136.63 28.4786 139.225 41.9449C141.82 55.4112 154.895 64.2617 168.361 61.6669C181.827 59.072 190.678 45.9967 188.083 32.5303C185.574 19.0474 172.499 10.1969 158.947 12.8084Z" fill="url(#unlock-coins-paint6_linear)"/>
<mask id="unlock-coins-mask0" mask-type="alpha" maskUnits="userSpaceOnUse" x="138" y="12" width="51" height="51">
<path d="M158.947 12.8084C145.48 15.4032 136.63 28.4786 139.225 41.9449C141.82 55.4112 154.895 64.2617 168.361 61.6669C181.827 59.072 190.678 45.9967 188.083 32.5303C185.574 19.0474 172.499 10.1969 158.947 12.8084Z" fill="url(#unlock-coins-paint7_linear)"/>
</mask>
<g mask="url(#unlock-coins-mask0)">
<path d="M192.791 56.9595L183.376 8.101L143.932 66.3741L192.791 56.9595Z" fill="url(#unlock-coins-paint8_linear)"/>
</g>
<path opacity="0.5" d="M159.839 16.8585C148.617 19.0209 141.242 29.917 143.404 41.139C145.567 52.3609 156.463 59.7363 167.684 57.574C178.906 55.4116 186.282 44.5154 184.119 33.2935C182.029 22.0577 171.133 14.6823 159.839 16.8585V16.8585Z" stroke="#E99B26" stroke-width="1.96956"/>
<path d="M162.393 25.2194C165.06 25.0587 167.417 25.7351 168.837 27.1569C169.098 27.4599 169.294 27.7754 169.372 28.1841C169.569 29.2059 168.946 30.1737 167.971 30.3617C167.516 30.4494 167.008 30.2647 166.461 29.8756C165.223 29.0543 163.375 28.5627 161.554 28.9136C158.822 29.44 158.109 30.9903 158.371 32.3527C159.238 36.8486 170.733 32.4435 172.374 40.9584C173.095 44.705 171.292 47.5959 167.026 48.9124L167.394 50.8197C167.564 51.7053 166.993 52.5924 166.148 52.7553C165.302 52.9183 164.507 52.2943 164.337 51.4087L163.969 49.5014C160.704 49.7067 157.891 48.4119 156.418 46.7176C156.235 46.4702 156.039 46.1546 155.974 45.814C155.777 44.7923 156.4 43.8244 157.375 43.6365C158.091 43.4986 158.56 43.8321 158.951 44.1101C160.592 45.2774 162.571 46.097 164.783 45.6709C167.774 45.0945 169.008 43.797 168.601 41.6853C167.643 36.7126 156.174 41.2539 154.599 33.0796C154.009 30.0142 155.331 27.0748 159.401 25.7959L159.021 23.8204C158.85 22.9349 159.421 22.0477 160.202 21.8973C161.047 21.7344 161.907 22.3459 162.078 23.2314L162.458 25.2069L162.393 25.2194Z" fill="#A76013"/>
</g>
<rect x="144.474" y="62.2695" width="49.7573" height="10.4752" rx="3.92821" transform="rotate(-10.9067 144.474 62.2695)" fill="url(#unlock-coins-paint9_linear)"/>
<rect x="142.655" y="73.293" width="49.7573" height="10.4752" rx="3.92821" transform="rotate(-10.9067 142.655 73.293)" fill="url(#unlock-coins-paint10_linear)"/>
<defs>
<filter id="unlock-coins-filter0_d" x="124.09" y="0.22171" width="85.4312" height="100.176" filterUnits="userSpaceOnUse" color-interpolation-filters="sRGB">
<feFlood flood-opacity="0" result="BackgroundImageFix"/>
<feColorMatrix in="SourceAlpha" type="matrix" values="0 0 0 0 0 0 0 0 0 0 0 0 0 0 0 0 0 0 127 0"/>
<feOffset dy="2.6188"/>
<feGaussianBlur stdDeviation="5.23761"/>
<feColorMatrix type="matrix" values="0 0 0 0 0 0 0 0 0 0 0 0 0 0 0 0 0 0 0.24 0"/>
<feBlend mode="normal" in2="BackgroundImageFix" result="effect1_dropShadow"/>
<feBlend mode="normal" in="SourceGraphic" in2="effect1_dropShadow" result="shape"/>
</filter>
<linearGradient id="unlock-coins-paint0_linear" x1="16.0702" y1="96" x2="16.0702" y2="30" gradientUnits="userSpaceOnUse">
<stop stop-color="#E99B26"/>
<stop offset="1" stop-color="#FAC34B"/>
</linearGradient>
<linearGradient id="unlock-coins-paint1_linear" x1="313" y1="30" x2="313" y2="68.4" gradientUnits="userSpaceOnUse">
<stop stop-color="#F4F5F7"/>
<stop offset="1" stop-color="#DFE1E6"/>
</linearGradient>
<linearGradient id="unlock-coins-paint2_linear" x1="322.923" y1="22.8" x2="304.441" y2="56.696" gradientUnits="userSpaceOnUse">
<stop stop-color="#42526E"/>
<stop offset="1" stop-color="#AAB5C7"/>
</linearGradient>
<linearGradient id="unlock-coins-paint3_linear" x1="247" y1="30" x2="247" y2="68.4" gradientUnits="userSpaceOnUse">
<stop stop-color="#F4F5F7"/>
<stop offset="1" stop-color="#DFE1E6"/>
</linearGradient>
<linearGradient id="unlock-coins-paint4_linear" x1="256.923" y1="22.8" x2="238.441" y2="56.696" gradientUnits="userSpaceOnUse">
<stop stop-color="#42526E"/>
<stop offset="1" stop-color="#AAB5C7"/>
</linearGradient>
<linearGradient id="unlock-coins-paint5_linear" x1="82.0702" y1="96" x2="82.0702" y2="30" gradientUnits="userSpaceOnUse">
<stop stop-color="#E99B26"/>
<stop offset="1" stop-color="#FAC34B"/>
</linearGradient>
<linearGradient id="unlock-coins-paint6_linear" x1="178.472" y1="113.558" x2="159.054" y2="12.7877" gradientUnits="userSpaceOnUse">
<stop stop-color="#E99B26"/>
<stop offset="1" stop-color="#FAC34B"/>
</linearGradient>
<linearGradient id="unlock-coins-paint7_linear" x1="178.472" y1="113.558" x2="159.054" y2="12.7877" gradientUnits="userSpaceOnUse">
<stop stop-color="#413017"/>
<stop offset="1" stop-color="#FAC34B"/>
</linearGradient>
<linearGradient id="unlock-coins-paint8_linear" x1="168.972" y1="61.5491" x2="178.188" y2="17.335" gradientUnits="userSpaceOnUse">
<stop stop-color="#E99B26" stop-opacity="0.26"/>
<stop offset="1" stop-color="#FAC34B"/>
</linearGradient>
<linearGradient id="unlock-coins-paint9_linear" x1="194.087" y1="67.1886" x2="151.561" y2="67.1886" gradientUnits="userSpaceOnUse">
<stop stop-color="#E99B26"/>
<stop offset="1" stop-color="#FAC34B"/>
</linearGradient>
<linearGradient id="unlock-coins-paint10_linear" x1="192.268" y1="78.2121" x2="149.743" y2="78.2121" gradientUnits="userSpaceOnUse">
<stop stop-color="#E99B26"/>
<stop offset="1" stop-color="#FAC34B"/>
</linearGradient>
<clipPath id="unlock-coins-clip0">
<rect width="49.7573" height="49.7573" fill="white" transform="translate(134.518 17.5156) rotate(-10.9067)"/>
</clipPath>
</defs>
</svg>
