<svg class="icon"
     width="24"
     height="24"
     viewBox="0 0 24 24"
     fill="none"
     xmlns="http://www.w3.org/2000/svg"
>
  <path d="M20 9.49918H19.25V6.74918C19.2496 5.12881 18.6663 3.56265 17.6068 2.33667C16.5473 1.1107 15.0821 0.306712 13.4789 0.0715126C11.8757 -0.163687 10.2414 0.185595 8.87436 1.05558C7.50734 1.92557 6.49884 3.25821 6.033 4.81018C5.98592 4.96744 5.97028 5.13243 5.98696 5.29573C6.00365 5.45904 6.05233 5.61746 6.13024 5.76194C6.20815 5.90643 6.31375 6.03416 6.44103 6.13783C6.5683 6.24151 6.71474 6.3191 6.872 6.36618C7.02926 6.41326 7.19425 6.4289 7.35755 6.41222C7.52086 6.39553 7.67927 6.34685 7.82376 6.26894C7.96825 6.19103 8.09598 6.08543 8.19965 5.95816C8.30333 5.83088 8.38092 5.68444 8.428 5.52718C8.7217 4.55028 9.35689 3.71156 10.2176 3.16411C11.0784 2.61666 12.1073 2.39699 13.1166 2.54519C14.1259 2.69339 15.0482 3.19958 15.7152 3.97137C16.3823 4.74316 16.7495 5.72908 16.75 6.74918V8.99918C16.75 9.13179 16.6973 9.25897 16.6036 9.35273C16.5098 9.4465 16.3826 9.49918 16.25 9.49918H5C4.46957 9.49918 3.96086 9.7099 3.58579 10.085C3.21071 10.46 3 10.9687 3 11.4992V21.9992C3 22.5296 3.21071 23.0383 3.58579 23.4134C3.96086 23.7885 4.46957 23.9992 5 23.9992H20C20.5304 23.9992 21.0391 23.7885 21.4142 23.4134C21.7893 23.0383 22 22.5296 22 21.9992V11.4992C22 10.9687 21.7893 10.46 21.4142 10.085C21.0391 9.7099 20.5304 9.49918 20 9.49918ZM12.5 18.4992C12.1044 18.4992 11.7178 18.3819 11.3889 18.1621C11.06 17.9424 10.8036 17.63 10.6522 17.2645C10.5009 16.8991 10.4613 16.497 10.5384 16.109C10.6156 15.721 10.8061 15.3647 11.0858 15.085C11.3655 14.8053 11.7219 14.6148 12.1098 14.5376C12.4978 14.4604 12.8999 14.5 13.2654 14.6514C13.6308 14.8028 13.9432 15.0591 14.1629 15.388C14.3827 15.7169 14.5 16.1036 14.5 16.4992C14.5 17.0296 14.2893 17.5383 13.9142 17.9134C13.5391 18.2885 13.0304 18.4992 12.5 18.4992Z"
        fill="#00A0DF"
  />
</svg>
