<svg class="icon"
     viewBox="0 0 360 264"
     fill="none"
     xmlns="http://www.w3.org/2000/svg"
>
    <rect x="126"
          y="41"
          width="109"
          height="182"
          rx="12"
          fill="white"
          stroke="#19194B"
          stroke-width="8"
    />
    <rect x="173"
          y="195"
          width="16"
          height="16"
          rx="8"
          fill="#19194B"
    />
    <rect x="134"
          y="49"
          width="93"
          height="138"
          rx="4"
          fill="#F4F5F7"
    />
    <g filter="url(#update--app-filter0_d)">
        <mask id="update--app-path-4-outside-1"
              maskUnits="userSpaceOnUse"
              x="168.507"
              y="7.86229"
              width="118.608"
              height="118.608"
              fill="black"
        >
            <rect fill="white" x="168.507" y="7.86229" width="118.608" height="118.608"/>
            <path fill-rule="evenodd" clip-rule="evenodd" d="M264.84 57.6403C268.31 52.2733 268.241 45.0982 264.34 39.7755C260.436 34.4536 253.614 32.2304 247.451 33.9284C246.111 27.6789 240.989 22.6528 234.466 21.6489C227.944 20.6454 221.547 23.8987 218.39 29.4562C213.023 25.9839 205.849 26.0532 200.526 29.9553C195.204 33.8586 192.982 40.6822 194.678 46.8431C188.428 48.1833 183.403 53.3056 182.399 59.8278C181.396 66.3511 184.648 72.7472 190.206 75.9044C186.733 81.2701 186.802 88.4462 190.706 93.7681C193.24 97.2237 197.005 99.373 201.02 99.991C202.89 100.278 204.815 100.233 206.695 99.8344L205.449 107.932C205.314 108.813 205.919 109.638 206.8 109.774L208.306 110.006C209.186 110.141 210.011 109.536 210.146 108.655L211.635 98.9791L233.035 102.272L231.546 111.948C231.41 112.829 232.015 113.654 232.895 113.79L234.402 114.022C235.283 114.157 236.107 113.552 236.243 112.671L237.486 104.591C242.746 107.543 249.466 107.293 254.519 103.588C259.84 99.687 262.063 92.8636 260.367 86.7016C266.616 85.3612 271.641 80.2389 272.645 73.7156C273.649 67.1934 270.396 60.7973 264.84 57.6403Z"/>
        </mask>
        <path d="M264.34 39.7755L269.179 36.2286L269.178 36.227L264.34 39.7755ZM264.84 57.6403L259.801 54.3825C258.905 55.7689 258.619 57.4634 259.012 59.0669C259.404 60.6705 260.44 62.0415 261.876 62.857L264.84 57.6403ZM247.451 33.9284L241.585 35.1866C241.931 36.8011 242.927 38.2016 244.339 39.0582C245.751 39.9147 247.453 40.1515 249.045 39.7129L247.451 33.9284ZM218.39 29.4562L215.13 34.4938C216.517 35.3907 218.212 35.6767 219.816 35.2843C221.42 34.8918 222.791 33.8557 223.607 32.4199L218.39 29.4562ZM200.526 29.9553L196.979 25.1163L196.977 25.1171L200.526 29.9553ZM194.678 46.8431L195.936 52.7097C197.55 52.3636 198.951 51.3674 199.807 49.956C200.664 48.5445 200.901 46.8424 200.463 45.2506L194.678 46.8431ZM190.206 75.9044L195.243 79.1641C196.14 77.7777 196.426 76.0828 196.034 74.4787C195.641 72.8746 194.605 71.5032 193.169 70.6875L190.206 75.9044ZM190.706 93.7681L195.544 90.2201L195.544 90.2196L190.706 93.7681ZM201.02 99.991L200.108 105.921L200.11 105.922L201.02 99.991ZM206.695 99.8344L212.626 100.747C212.925 98.7988 212.249 96.8276 210.817 95.4737C209.384 94.1198 207.378 93.5559 205.45 93.9651L206.695 99.8344ZM205.449 107.932L211.379 108.845L205.449 107.932ZM211.635 98.9791L212.548 93.0489C209.273 92.5449 206.209 94.7914 205.705 98.0665L211.635 98.9791ZM233.035 102.272L238.965 103.185C239.469 99.9097 237.223 96.8461 233.948 96.3421L233.035 102.272ZM232.895 113.79L233.808 107.86L232.895 113.79ZM234.402 114.022L233.49 119.952L234.402 114.022ZM236.243 112.671L242.173 113.584L236.243 112.671ZM237.486 104.591L240.424 99.3587C238.708 98.3952 236.628 98.3346 234.859 99.1964C233.09 100.058 231.856 101.733 231.556 103.678L237.486 104.591ZM254.519 103.588L258.067 108.427L258.067 108.427L254.519 103.588ZM260.367 86.7016L259.109 80.835C257.495 81.1813 256.095 82.1774 255.238 83.5887C254.382 85.0001 254.144 86.702 254.583 88.2937L260.367 86.7016ZM259.5 43.3224C261.893 46.5868 261.955 51.052 259.801 54.3825L269.878 60.898C274.665 53.4946 274.589 43.6096 269.179 36.2286L259.5 43.3224ZM249.045 39.7129C252.868 38.6594 257.108 40.0603 259.501 43.3241L269.178 36.227C263.765 28.8469 254.359 25.8014 245.858 28.144L249.045 39.7129ZM233.553 27.5791C237.552 28.1945 240.753 31.3081 241.585 35.1866L253.318 32.6703C251.469 24.0496 244.426 17.111 235.378 15.7187L233.553 27.5791ZM223.607 32.4199C225.566 28.971 229.556 26.964 233.553 27.5791L235.378 15.7187C226.333 14.3267 217.528 18.8264 213.173 26.4924L223.607 32.4199ZM204.073 34.7943C207.338 32.4012 211.801 32.3396 215.13 34.4938L221.649 24.4186C214.245 19.6282 204.36 19.7052 196.979 25.1163L204.073 34.7943ZM200.463 45.2506C199.41 41.4274 200.811 37.1869 204.074 34.7935L196.977 25.1171C189.597 30.5304 186.553 39.937 188.893 48.4357L200.463 45.2506ZM188.33 60.7404C188.945 56.7419 192.058 53.5414 195.936 52.7097L193.42 40.9765C184.799 42.8253 177.861 49.8693 176.469 58.9152L188.33 60.7404ZM193.169 70.6875C189.721 68.7284 187.714 64.7402 188.33 60.7404L176.469 58.9152C175.077 67.962 179.575 76.766 187.242 81.1214L193.169 70.6875ZM195.544 90.2196C193.151 86.9566 193.089 82.4923 195.243 79.1641L185.168 72.6448C180.378 80.0478 180.454 89.9358 185.868 97.3167L195.544 90.2196ZM201.933 94.0608C199.413 93.673 197.092 92.3309 195.544 90.2201L185.867 97.3161C189.387 102.117 194.596 105.073 200.108 105.921L201.933 94.0608ZM205.45 93.9651C204.294 94.2104 203.099 94.2398 201.93 94.0604L200.11 105.922C202.68 106.316 205.336 106.256 207.941 105.704L205.45 93.9651ZM211.379 108.845L212.626 100.747L200.765 98.9218L199.519 107.02L211.379 108.845ZM207.712 103.844C210.107 104.212 211.748 106.45 211.379 108.845L199.519 107.02C198.879 111.176 201.731 115.065 205.887 115.704L207.712 103.844ZM209.218 104.076L207.712 103.844L205.887 115.704L207.393 115.936L209.218 104.076ZM204.216 107.743C204.584 105.353 206.819 103.706 209.218 104.076L207.393 115.936C211.554 116.576 215.438 113.719 216.076 109.568L204.216 107.743ZM205.705 98.0665L204.216 107.743L216.076 109.568L217.565 99.8917L205.705 98.0665ZM233.948 96.3421L212.548 93.0489L210.723 104.909L232.122 108.202L233.948 96.3421ZM237.476 112.861L238.965 103.185L227.105 101.36L225.616 111.036L237.476 112.861ZM233.808 107.86C236.207 108.229 237.844 110.472 237.476 112.861L225.616 111.036C224.977 115.187 227.822 119.08 231.983 119.72L233.808 107.86ZM235.315 108.091L233.808 107.86L231.983 119.72L233.49 119.952L235.315 108.091ZM230.313 111.758C230.68 109.369 232.916 107.722 235.315 108.091L233.49 119.952C237.651 120.592 241.534 117.735 242.173 113.584L230.313 111.758ZM231.556 103.678L230.313 111.758L242.173 113.584L243.417 105.503L231.556 103.678ZM250.972 98.7494C247.876 101.019 243.697 101.196 240.424 99.3587L234.549 109.822C241.795 113.89 251.057 113.567 258.067 108.427L250.972 98.7494ZM254.583 88.2937C255.635 92.1182 254.233 96.3584 250.972 98.7497L258.067 108.427C265.447 103.016 268.492 93.6089 266.152 85.1094L254.583 88.2937ZM266.715 72.8031C266.099 76.803 262.986 80.0034 259.109 80.835L261.626 92.5681C270.246 90.719 277.183 83.6748 278.575 74.6282L266.715 72.8031ZM261.876 62.857C265.323 64.816 267.33 68.8044 266.715 72.8031L278.575 74.6282C279.967 65.5825 275.469 56.7787 267.804 52.4235L261.876 62.857Z" fill="white" mask="url(#update--app-path-4-outside-1)"/>
    </g>
    <path fill-rule="evenodd" clip-rule="evenodd" d="M205.449 107.932C205.314 108.812 205.919 109.638 206.8 109.773L208.306 110.005C209.187 110.141 210.011 109.535 210.146 108.654L212.358 94.2814L207.661 93.5586L205.449 107.932Z" fill="#19194B"/>
    <path fill-rule="evenodd" clip-rule="evenodd" d="M233.758 97.5762L231.546 111.949C231.41 112.83 232.014 113.655 232.895 113.791L234.402 114.023C235.283 114.158 236.107 113.553 236.243 112.672L238.455 98.299L233.758 97.5762Z" fill="#19194B"/>
    <path fill-rule="evenodd" clip-rule="evenodd" d="M258.197 82.2384C257.44 82.3142 256.763 82.7401 256.369 83.3899L255.583 84.6834C255.19 85.3334 255.125 86.1305 255.406 86.8365C257.233 91.4065 255.754 96.7898 251.708 99.7554C247.347 102.953 241.205 102.462 237.417 98.6142L236.084 97.9323L209.987 93.9162L208.511 94.166C203.744 96.698 197.736 95.3182 194.54 90.9579C191.572 86.9119 191.78 81.334 194.896 77.5246C195.378 76.9373 195.556 76.1564 195.374 75.418L195.015 73.9482C194.835 73.2101 194.316 72.6001 193.617 72.3003C189.094 70.3615 186.333 65.5086 187.096 60.5507C187.859 55.5937 191.952 51.7956 196.848 51.3063C197.605 51.2305 198.283 50.8047 198.677 50.1548L199.461 48.8611C199.857 48.2105 199.922 47.4133 199.638 46.707C197.811 42.1391 199.291 36.7559 203.337 33.7893C205.747 32.0211 208.703 31.3799 211.506 31.8112C213.395 32.1019 215.213 32.8803 216.747 34.1289C217.344 34.615 218.128 34.8074 218.876 34.6238L220.345 34.2643C221.084 34.0848 221.694 33.567 221.994 32.8679C223.933 28.3451 228.785 25.5851 233.742 26.348C238.7 27.1109 242.499 31.2022 242.989 36.0988C243.065 36.8557 243.491 37.5318 244.141 37.9262L245.434 38.7107C246.083 39.1051 246.88 39.1702 247.587 38.889C252.155 37.0619 257.539 38.541 260.506 42.5868C263.472 46.6316 263.265 52.2106 260.148 56.0199C259.668 56.6086 259.49 57.3885 259.67 58.1266L260.03 59.5965C260.211 60.3348 260.729 60.9446 261.428 61.2444C265.95 63.1831 268.711 68.0359 267.948 72.9928C267.185 77.9508 263.093 81.749 258.197 82.2384ZM264.84 57.6403C268.31 52.2733 268.241 45.0982 264.34 39.7755C260.436 34.4536 253.614 32.2304 247.451 33.9284C246.111 27.6789 240.989 22.6528 234.466 21.6489C227.944 20.6454 221.547 23.8987 218.39 29.4562C213.023 25.9839 205.849 26.0532 200.526 29.9553C195.204 33.8586 192.982 40.6822 194.678 46.8431C188.428 48.1833 183.403 53.3056 182.399 59.8278C181.396 66.3511 184.648 72.7472 190.206 75.9044C186.733 81.2701 186.802 88.4462 190.706 93.7681C193.24 97.2237 197.005 99.373 201.02 99.991C204.011 100.45 207.144 100.061 210.009 98.7288L234.617 102.516C240.079 107.51 248.488 108.01 254.519 103.588C259.84 99.687 262.063 92.8636 260.367 86.7016C266.616 85.3612 271.641 80.2389 272.645 73.7156C273.649 67.1934 270.396 60.7973 264.84 57.6403Z" fill="#19194B"/>
    <path fill-rule="evenodd" clip-rule="evenodd" d="M261.428 61.2444C260.729 60.9446 260.211 60.3348 260.03 59.5965L259.67 58.1266C259.49 57.3885 259.668 56.6086 260.148 56.0199C263.265 52.2106 263.473 46.6316 260.506 42.5869C257.539 38.541 252.155 37.0619 247.588 38.889C246.88 39.1713 246.083 39.1051 245.434 38.7107L244.14 37.9261C243.491 37.5318 243.065 36.8558 242.989 36.0989C242.499 31.2022 238.701 27.111 233.742 26.348C228.785 25.5851 223.933 28.3451 221.994 32.8679C221.694 33.567 221.084 34.0848 220.345 34.2643L218.876 34.6238C218.128 34.8074 217.344 34.615 216.747 34.13C215.213 32.8803 213.395 32.103 211.506 31.8123C208.703 31.381 205.747 32.0212 203.337 33.7893C199.291 36.756 197.811 42.1391 199.638 46.7081C199.922 47.4133 199.857 48.2115 199.461 48.8611L198.677 50.1548C198.283 50.8047 197.605 51.2305 196.848 51.3063C191.952 51.7956 187.859 55.5937 187.096 60.5517C186.333 65.5087 189.094 70.3615 193.617 72.3003C194.316 72.6001 194.834 73.21 195.015 73.9483L195.374 75.418C195.556 76.1575 195.379 76.9373 194.896 77.5257C191.78 81.334 191.572 86.9119 194.54 90.9579C197.736 95.3193 203.744 96.6991 208.511 94.166L209.987 93.9162L236.084 97.9323L237.417 98.6142C241.205 102.463 247.347 102.954 251.708 99.7554C255.754 96.7898 257.233 91.4065 255.406 86.8365C255.125 86.1305 255.19 85.3334 255.583 84.6834L256.369 83.3899C256.763 82.7401 257.44 82.3142 258.197 82.2384C263.093 81.749 267.185 77.9508 267.948 72.9939C268.711 68.0359 265.95 63.1831 261.428 61.2444Z" fill="white"/>
    <path fill-rule="evenodd" clip-rule="evenodd" d="M246.299 73.1818C245.586 71.297 244.619 69.4958 243.394 67.8255L242.943 67.2108C242.417 66.4922 241.406 66.3365 240.687 66.8636L239.459 67.7653C238.74 68.2923 238.584 69.3026 239.111 70.0214L239.562 70.6361C242.351 74.4405 243.492 79.1028 242.775 83.7647C241.308 93.2954 232.433 99.8839 222.912 98.5719C213.251 97.2405 206.384 88.0317 207.867 78.3927C208.584 73.7308 211.074 69.6274 214.879 66.8377L215.494 66.3869C216.213 65.8598 216.368 64.8496 215.841 64.1308L214.938 62.9012C214.411 62.1824 213.401 62.0269 212.682 62.554L212.068 63.0047C210.398 64.2296 208.934 65.6566 207.687 67.2399C205.692 65.3554 204.43 62.7539 204.24 59.9664L208.978 60.6955C209.859 60.8311 210.683 60.2279 210.819 59.346L210.935 58.5925C211.295 56.2483 213.488 54.6402 215.834 55.0011C217.78 55.3006 219.216 56.8643 219.44 58.7283C219.527 59.4389 220.086 59.9997 220.792 60.1085L222.756 60.4106C223.462 60.5194 224.164 60.1526 224.46 59.5007C225.236 57.7907 227.074 56.7309 229.022 57.0306C230.969 57.3302 232.405 58.8939 232.628 60.7577C232.715 61.4684 233.275 62.0293 233.981 62.1381L235.944 62.4401C236.65 62.5488 237.353 62.1822 237.649 61.5303C238.423 59.82 240.262 58.7604 242.209 59.06C244.554 59.4208 246.162 61.6139 245.801 63.9581L245.685 64.7116C245.549 65.5935 246.154 66.4165 247.036 66.5522L251.774 67.2814C250.754 69.8826 248.769 71.9845 246.299 73.1818Z" fill="white"/>
    <path fill-rule="evenodd" clip-rule="evenodd" d="M233.481 72.0655C232.16 71.8622 230.923 72.768 230.72 74.0903C230.516 75.4115 231.423 76.6472 232.745 76.8505C234.066 77.0539 235.302 76.148 235.506 74.8268C235.709 73.5046 234.802 72.2689 233.481 72.0655Z" fill="#19194B"/>
    <path fill-rule="evenodd" clip-rule="evenodd" d="M220.292 70.0362C218.971 69.8329 217.734 70.7387 217.531 72.061C217.328 73.3822 218.235 74.6179 219.556 74.8212C220.877 75.0246 222.114 74.1187 222.317 72.7975C222.521 71.4753 221.614 70.2396 220.292 70.0362Z" fill="#19194B"/>
    <path fill-rule="evenodd" clip-rule="evenodd" d="M227.215 95.2958C226.876 97.4989 224.815 99.009 222.613 98.6701C220.411 98.3312 218.9 96.2714 219.239 94.0684L227.215 95.2958Z" fill="#19194B"/>
    <path fill-rule="evenodd" clip-rule="evenodd" d="M246.299 73.1818C245.586 71.2971 244.619 69.4958 243.394 67.8255L242.943 67.2108C242.417 66.4922 241.406 66.3366 240.687 66.8636L239.459 67.7653C238.74 68.2924 238.584 69.3026 239.111 70.0214L239.562 70.6361C242.351 74.4406 243.492 79.1028 242.775 83.7647C241.308 93.2955 232.433 99.8839 222.912 98.5719C213.251 97.2405 206.384 88.0318 207.867 78.3928C208.584 73.7309 211.074 69.6275 214.879 66.8377L215.494 66.3869C216.213 65.8599 216.368 64.8496 215.841 64.1308L214.938 62.9012C214.411 62.1824 213.401 62.027 212.682 62.554L212.068 63.0048C210.398 64.2297 208.934 65.6566 207.687 67.2399C205.692 65.3554 204.43 62.7539 204.24 59.9664L208.978 60.6956C209.859 60.8311 210.683 60.2279 210.819 59.346L210.935 58.5926C211.295 56.2484 213.488 54.6402 215.834 55.0011C217.78 55.3006 219.216 56.8643 219.44 58.7283C219.527 59.439 220.086 59.9997 220.792 60.1085L222.756 60.4106C223.462 60.5194 224.164 60.1527 224.46 59.5008C225.236 57.7908 227.074 56.7309 229.022 57.0306C230.969 57.3303 232.405 58.8939 232.628 60.7578C232.714 61.4685 233.275 62.0294 233.981 62.1381L235.944 62.4401C236.65 62.5489 237.353 62.1823 237.649 61.5304C238.423 59.8201 240.262 58.7604 242.209 59.0601C244.554 59.4208 246.162 61.6139 245.801 63.9582L245.685 64.7116C245.549 65.5935 246.154 66.4165 247.036 66.5522L251.774 67.2814C250.754 69.8826 248.769 71.9845 246.299 73.1818ZM255.86 63.101L250.548 62.2834C250.098 58.3295 247.051 54.9959 242.932 54.3621C240.325 53.9608 237.801 54.7206 235.89 56.255C234.53 54.2173 232.352 52.7339 229.745 52.3326C227.137 51.9314 224.614 52.6913 222.703 54.2255C221.342 52.1878 219.163 50.7042 216.556 50.303C212.437 49.6692 208.53 51.9326 206.911 55.5683L201.6 54.7509C200.719 54.6153 199.895 55.2207 199.759 56.1015L199.643 56.8549C198.788 62.4093 201.03 67.8623 205.144 71.3111C204.126 73.4206 203.431 75.7003 203.108 78.0949C201.476 90.1847 209.978 101.467 222.049 103.251C234.211 105.046 245.6 96.6566 247.473 84.4877C247.818 82.2453 247.822 80.0037 247.505 77.8224C247.504 77.8235 247.505 77.8258 247.506 77.827C252.463 75.774 256.239 71.2493 257.094 65.696L257.21 64.9425C257.345 64.0617 256.741 63.2365 255.86 63.101Z" fill="#19194B"/>
    <g filter="url(#update--app-filter1_d)">
        <path fill-rule="evenodd" clip-rule="evenodd" d="M123.627 151.61C123.632 151.721 123.637 151.833 123.642 151.945C123.72 153.484 123.924 155.017 124.254 156.529C124.255 156.534 124.256 156.539 124.257 156.543C124.441 157.383 124.664 158.216 124.925 159.039C124.965 159.164 125.033 159.279 125.125 159.373C125.216 159.467 125.328 159.539 125.452 159.583C125.576 159.627 125.708 159.641 125.838 159.625C125.968 159.609 126.093 159.564 126.203 159.491L130.752 156.498C131.218 156.192 131.751 156.005 132.302 155.954C132.318 155.952 132.334 155.951 132.351 155.95C132.448 155.942 132.545 155.938 132.643 155.939C133.315 155.944 133.97 156.148 134.526 156.525C135.082 156.902 135.514 157.435 135.767 158.058C136.02 158.68 136.082 159.363 135.947 160.021L132.842 174.991C132.685 175.758 132.269 176.447 131.663 176.942C131.057 177.437 130.298 177.708 129.516 177.709C129.287 177.708 129.06 177.684 128.836 177.638L113.863 174.553C113.204 174.418 112.599 174.09 112.126 173.611C111.653 173.133 111.333 172.524 111.207 171.863C111.08 171.202 111.153 170.519 111.415 169.899C111.677 169.279 112.118 168.752 112.681 168.383L117.437 165.25C117.6 165.143 117.721 164.983 117.779 164.797C117.837 164.612 117.829 164.411 117.757 164.231C115.153 157.797 114.436 150.754 115.69 143.927C116.944 137.1 120.117 130.772 124.838 125.684C129.559 120.595 135.632 116.957 142.346 115.196C149.059 113.434 156.136 113.622 162.747 115.737C163.819 116.08 164.712 116.834 165.228 117.835C165.744 118.835 165.842 119.999 165.499 121.072C165.157 122.144 164.402 123.036 163.402 123.552C162.402 124.068 161.237 124.166 160.165 123.824C155.26 122.247 150.015 122.056 145.009 123.271C140.002 124.487 135.428 127.061 131.792 130.71C128.166 134.353 125.608 138.92 124.397 143.915C123.784 146.444 123.528 149.033 123.627 151.61ZM165.181 108.117C165.182 108.117 165.184 108.117 165.185 108.118C168.277 109.106 170.849 111.282 172.337 114.167C173.826 117.052 174.108 120.412 173.12 123.505C172.132 126.599 169.956 129.173 167.07 130.662C164.184 132.151 160.825 132.432 157.731 131.444L157.717 131.44C154.215 130.314 150.47 130.178 146.896 131.046C143.322 131.913 140.057 133.75 137.461 136.355C137.46 136.356 137.46 136.356 137.459 136.357C134.866 138.962 133.038 142.228 132.172 145.799C131.998 146.517 131.864 147.242 131.771 147.971C132.079 147.948 132.389 147.937 132.7 147.939C134.954 147.955 137.152 148.639 139.017 149.904C140.882 151.169 142.33 152.958 143.178 155.046C144.027 157.134 144.237 159.426 143.783 161.633L143.78 161.646L140.68 176.591C140.679 176.596 140.678 176.602 140.677 176.607C140.149 179.173 138.754 181.479 136.725 183.137C134.692 184.798 132.147 185.707 129.522 185.709L129.493 185.709C128.725 185.707 127.961 185.627 127.21 185.471C127.205 185.47 127.201 185.469 127.197 185.468L112.26 182.39C112.257 182.39 112.254 182.389 112.251 182.389C112.25 182.388 112.249 182.388 112.249 182.388C110.041 181.934 108.018 180.837 106.435 179.233C104.848 177.627 103.775 175.586 103.35 173.369C102.925 171.152 103.168 168.858 104.048 166.78C104.927 164.704 106.401 162.936 108.285 161.698C108.288 161.696 108.291 161.694 108.294 161.692L108.48 161.57C106.888 155.353 106.653 148.84 107.822 142.482C109.35 134.16 113.219 126.446 118.973 120.243C124.728 114.04 132.131 109.605 140.315 107.458C148.498 105.311 157.123 105.539 165.181 108.117Z" fill="white"/>
        <path fill-rule="evenodd" clip-rule="evenodd" d="M191.138 119.032C193.334 119.533 195.332 120.675 196.88 122.312C198.421 123.942 199.446 125.99 199.829 128.199C200.219 130.423 199.94 132.713 199.026 134.779C198.128 136.809 196.657 138.533 194.795 139.738C196.329 145.88 196.542 152.303 195.39 158.576C193.87 166.849 190.038 174.522 184.337 180.707C178.636 186.892 171.3 191.336 163.178 193.524C155.083 195.704 146.537 195.554 138.524 193.092C136.997 192.647 135.57 191.908 134.325 190.916C133.046 189.898 131.983 188.633 131.2 187.198C130.418 185.762 129.93 184.184 129.767 182.557C129.604 180.929 129.769 179.286 130.251 177.724C130.733 176.161 131.523 174.711 132.575 173.459C133.627 172.206 134.919 171.178 136.374 170.433C137.83 169.688 139.42 169.242 141.051 169.122C142.637 169.004 144.229 169.197 145.741 169.689C149.226 170.754 152.936 170.848 156.472 169.96C160.03 169.067 163.274 167.213 165.85 164.602C168.426 161.991 170.236 158.723 171.081 155.153C171.251 154.436 171.381 153.711 171.471 152.984C170.973 153.036 170.47 153.055 169.965 153.041C167.712 152.978 165.529 152.248 163.69 150.944C161.852 149.64 160.441 147.82 159.637 145.715C158.833 143.609 158.671 141.312 159.172 139.115C159.172 139.115 159.172 139.115 159.172 139.115L162.57 124.21C162.903 122.748 163.522 121.365 164.39 120.143C165.258 118.921 166.359 117.882 167.63 117.085C168.9 116.289 170.315 115.752 171.794 115.503C173.268 115.256 174.776 115.3 176.232 115.635C176.237 115.636 176.242 115.637 176.247 115.638L191.138 119.032ZM174.447 123.433C174.011 123.332 173.56 123.319 173.119 123.393C172.678 123.467 172.257 123.627 171.878 123.864C171.499 124.102 171.171 124.411 170.912 124.776C170.653 125.14 170.469 125.552 170.37 125.988L166.972 140.893C166.823 141.548 166.871 142.233 167.111 142.86C167.35 143.488 167.771 144.03 168.319 144.419C168.867 144.808 169.518 145.025 170.189 145.044C170.408 145.05 170.626 145.035 170.84 145C170.854 144.998 170.869 144.995 170.883 144.993C171.31 144.916 171.721 144.758 172.092 144.525L176.995 141.447C177.103 141.375 177.226 141.33 177.354 141.314C177.483 141.298 177.613 141.312 177.735 141.355C177.857 141.4 177.968 141.472 178.058 141.565C178.148 141.659 178.215 141.772 178.255 141.895C178.522 142.717 178.749 143.548 178.938 144.386C178.955 144.466 178.973 144.545 178.99 144.625C179.301 146.064 179.497 147.522 179.578 148.986C179.583 149.078 179.588 149.17 179.592 149.262C179.71 151.85 179.469 154.454 178.866 156.998C177.683 161.993 175.15 166.567 171.545 170.221C167.939 173.875 163.399 176.469 158.421 177.719C153.442 178.97 148.215 178.828 143.311 177.311C142.774 177.13 142.206 177.058 141.64 177.1C141.075 177.142 140.523 177.296 140.019 177.554C139.514 177.813 139.066 178.17 138.701 178.604C138.336 179.038 138.062 179.541 137.895 180.083C137.728 180.625 137.671 181.195 137.727 181.759C137.784 182.323 137.953 182.87 138.224 183.368C138.496 183.866 138.864 184.305 139.308 184.658C139.751 185.011 140.261 185.272 140.807 185.425C147.4 187.464 154.434 187.593 161.097 185.799C167.76 184.004 173.778 180.359 178.455 175.285C183.131 170.212 186.275 163.917 187.522 157.13C188.768 150.344 188.067 143.343 185.499 136.938C185.428 136.755 185.423 136.553 185.485 136.367C185.547 136.181 185.672 136.023 185.839 135.919L190.412 133.045C190.984 132.684 191.436 132.162 191.71 131.543C191.983 130.924 192.066 130.238 191.947 129.572C191.835 128.91 191.528 128.296 191.067 127.808C190.606 127.32 190.01 126.98 189.355 126.83L174.447 123.433Z" fill="white"/>
    </g>
    <path d="M131.792 130.71C135.428 127.061 140.002 124.487 145.009 123.271C150.015 122.056 155.26 122.247 160.165 123.824C161.237 124.166 162.402 124.068 163.402 123.552C164.402 123.036 165.157 122.144 165.499 121.072C165.842 119.999 165.744 118.835 165.228 117.835C164.712 116.834 163.819 116.08 162.747 115.737C156.136 113.622 149.059 113.434 142.346 115.196C135.632 116.957 129.559 120.595 124.838 125.684C120.117 130.772 116.944 137.1 115.69 143.927C114.436 150.754 115.153 157.797 117.757 164.231C117.829 164.411 117.837 164.612 117.779 164.797C117.721 164.983 117.6 165.143 117.437 165.25L112.681 168.383C112.118 168.752 111.677 169.279 111.415 169.899C111.153 170.519 111.08 171.202 111.207 171.863C111.333 172.524 111.653 173.133 112.126 173.611C112.599 174.09 113.204 174.418 113.863 174.553L128.836 177.638C129.06 177.684 129.287 177.708 129.516 177.709C130.298 177.708 131.057 177.437 131.663 176.942C132.269 176.447 132.685 175.758 132.842 174.991L135.947 160.021C136.082 159.363 136.02 158.68 135.767 158.058C135.514 157.435 135.082 156.902 134.526 156.525C133.97 156.148 133.315 155.944 132.643 155.939C131.972 155.934 131.313 156.129 130.752 156.498L126.203 159.491C126.093 159.564 125.968 159.609 125.838 159.625C125.708 159.641 125.576 159.627 125.452 159.583C125.328 159.539 125.216 159.467 125.125 159.373C125.033 159.279 124.965 159.164 124.925 159.039C123.369 154.141 123.187 148.91 124.397 143.915C125.608 138.92 128.166 134.353 131.792 130.71Z" fill="url(#update--app-paint0_linear)"/>
    <path d="M191.947 129.572C191.835 128.91 191.528 128.296 191.067 127.808C190.606 127.32 190.01 126.98 189.355 126.83L174.447 123.433C174.011 123.332 173.56 123.319 173.119 123.393C172.678 123.467 172.257 123.627 171.878 123.864C171.499 124.102 171.171 124.411 170.912 124.776C170.653 125.14 170.469 125.552 170.37 125.988L166.972 140.893C166.823 141.548 166.871 142.233 167.111 142.86C167.35 143.488 167.771 144.03 168.319 144.419C168.867 144.808 169.518 145.025 170.189 145.044C170.861 145.063 171.523 144.882 172.092 144.525L176.995 141.447C177.103 141.375 177.226 141.33 177.354 141.314C177.483 141.298 177.613 141.312 177.735 141.355C177.857 141.4 177.968 141.472 178.058 141.565C178.148 141.659 178.215 141.772 178.255 141.895C179.838 146.778 180.049 152.003 178.866 156.998C177.683 161.993 175.15 166.567 171.545 170.221C167.939 173.875 163.399 176.469 158.421 177.719C153.442 178.97 148.215 178.828 143.311 177.311C142.774 177.13 142.206 177.058 141.64 177.1C141.075 177.142 140.523 177.296 140.019 177.554C139.514 177.813 139.066 178.17 138.701 178.604C138.336 179.038 138.062 179.541 137.895 180.083C137.728 180.625 137.671 181.195 137.727 181.759C137.784 182.323 137.953 182.87 138.224 183.368C138.496 183.866 138.864 184.305 139.308 184.658C139.751 185.011 140.261 185.272 140.807 185.425C147.4 187.464 154.434 187.593 161.097 185.799C167.76 184.004 173.778 180.359 178.455 175.285C183.131 170.212 186.275 163.917 187.522 157.13C188.768 150.344 188.067 143.343 185.499 136.938C185.428 136.755 185.423 136.553 185.485 136.367C185.547 136.181 185.672 136.023 185.839 135.919L190.412 133.045C190.984 132.684 191.436 132.162 191.71 131.543C191.983 130.924 192.066 130.238 191.947 129.572Z" fill="url(#update--app-paint1_linear)"/>
    <defs>
        <filter id="update--app-filter0_d"
                x="160.613"
                y="3.86133"
                width="133.819"
                height="133.819"
                filterUnits="userSpaceOnUse"
                color-interpolation-filters="sRGB"
        >
            <feFlood flood-opacity="0" result="BackgroundImageFix"/>
            <feColorMatrix in="SourceAlpha" type="matrix" values="0 0 0 0 0 0 0 0 0 0 0 0 0 0 0 0 0 0 127 0"/>
            <feOffset dy="4"/>
            <feGaussianBlur stdDeviation="4"/>
            <feColorMatrix type="matrix" values="0 0 0 0 0 0 0 0 0 0 0 0 0 0 0 0 0 0 0.24 0"/>
            <feBlend mode="normal" in2="BackgroundImageFix" result="effect1_dropShadow"/>
            <feBlend mode="normal" in="SourceGraphic" in2="effect1_dropShadow" result="shape"/>
        </filter>
        <filter id="update--app-filter1_d"
                x="95.146"
                y="102"
                width="112.854"
                height="105.055"
                filterUnits="userSpaceOnUse"
                color-interpolation-filters="sRGB"
        >
            <feFlood flood-opacity="0" result="BackgroundImageFix"/>
            <feColorMatrix in="SourceAlpha" type="matrix" values="0 0 0 0 0 0 0 0 0 0 0 0 0 0 0 0 0 0 127 0"/>
            <feOffset dy="4"/>
            <feGaussianBlur stdDeviation="4"/>
            <feColorMatrix type="matrix" values="0 0 0 0 0 0 0 0 0 0 0 0 0 0 0 0 0 0 0.24 0"/>
            <feBlend mode="normal" in2="BackgroundImageFix" result="effect1_dropShadow"/>
            <feBlend mode="normal" in="SourceGraphic" in2="effect1_dropShadow" result="shape"/>
        </filter>
        <linearGradient id="update--app-paint0_linear"
                        x1="138.423"
                        y1="114"
                        x2="139.887"
                        y2="228.576"
                        gradientUnits="userSpaceOnUse"
        >
            <stop stop-color="#00A0DF"/>
            <stop offset="1" stop-color="#007CBF"/>
        </linearGradient>
        <linearGradient id="update--app-paint1_linear"
                        x1="164.853"
                        y1="123.346"
                        x2="166.324"
                        y2="237.923"
                        gradientUnits="userSpaceOnUse"
        >
            <stop stop-color="#00A0DF"/>
            <stop offset="1" stop-color="#007CBF"/>
        </linearGradient>
    </defs>
</svg>
