<svg class="icon" fill="none" viewBox="0 0 200 224" xmlns="http://www.w3.org/2000/svg">
    <rect x="31" y="38" width="109" height="182" rx="12" fill="#fff" stroke="#19194B" stroke-width="8"/>
    <rect x="78" y="192" width="16" height="16" rx="8" fill="#19194B"/>
    <rect x="39" y="46" width="93" height="138" rx="4" fill="#F4F5F7"/>
    <g filter="url(#e)">
        <mask id="a" x="73.5074" y="4.86278" width="118.608" height="118.608" fill="black" maskUnits="userSpaceOnUse">
            <rect x="73.507" y="4.8628" width="118.61" height="118.61" fill="#fff"/>
            <path d="m169.84 54.641c3.47-5.367 3.401-12.542-0.5-17.865-3.904-5.3219-10.726-7.5451-16.889-5.8471-1.34-6.2496-6.462-11.276-12.985-12.28-6.522-1.0036-12.919 2.2498-16.076 7.8073-5.367-3.4723-12.541-3.403-17.864 0.4991-5.322 3.9033-7.5443 10.727-5.8482 16.888-6.2497 1.3402-11.275 6.4625-12.278 12.985-1.0039 6.5233 2.2486 12.919 7.8062 16.077-3.4721 5.3656-3.4032 12.542 0.5002 17.864 2.534 3.4556 6.2992 5.6049 10.314 6.2229 1.87 0.2869 3.795 0.2424 5.675-0.1566l-1.246 8.0981c-0.135 0.881 0.47 1.706 1.351 1.841l1.506 0.232c0.88 0.136 1.705-0.47 1.84-1.35l1.489-9.6764 21.4 3.2932-1.489 9.6762c-0.136 0.88 0.469 1.706 1.349 1.841l1.507 0.232c0.881 0.136 1.705-0.47 1.841-1.35l1.243-8.081c5.26 2.953 11.98 2.702 17.033-1.002 5.321-3.9015 7.544-10.725 5.848-16.887 6.249-1.3404 11.274-6.4627 12.278-12.986 1.004-6.5222-2.249-12.918-7.805-16.075z" clip-rule="evenodd" fill-rule="evenodd"/>
        </mask>
        <path d="m169.34 36.776 4.839-3.5469-1e-3 -0.0017-4.838 3.5486zm0.5 17.865-5.039-3.2578c-0.896 1.3864-1.182 3.0808-0.789 4.6844 0.392 1.6036 1.428 2.9746 2.864 3.7901l2.964-5.2167zm-17.389-23.712-5.866 1.2581c0.346 1.6146 1.342 3.0151 2.754 3.8716 1.412 0.8566 3.114 1.0934 4.706 0.6548l-1.594-5.7845zm-29.061-4.4722-3.26 5.0375c1.387 0.897 3.082 1.183 4.686 0.7905 1.604-0.3924 2.975-1.4285 3.791-2.8643l-5.217-2.9637zm-17.864 0.4991-3.547-4.839-2e-3 8e-4 3.549 4.8382zm-5.8482 16.888 1.2582 5.8666c1.614-0.3462 3.015-1.3423 3.871-2.7538 0.857-1.4114 1.094-3.1135 0.656-4.7053l-5.7852 1.5925zm-4.4722 29.061 5.0374 3.2597c0.897-1.3865 1.183-3.0813 0.791-4.6854-0.393-1.6041-1.4289-2.9755-2.8647-3.7912l-2.9637 5.2169zm0.5002 17.864 4.8382-3.548v-6e-4l-4.8382 3.5486zm10.314 6.2229-0.912 5.9305h2e-3l0.91-5.9305zm5.675-0.1566 5.931 0.9125c0.299-1.9481-0.377-3.9193-1.809-5.2732-1.433-1.3539-3.439-1.9178-5.367-1.5086l1.245 5.8693zm0.105 9.9391 0.912-5.93-0.912 5.93zm1.506 0.232-0.913 5.93 0.913-5.93zm3.329-11.026 0.913-5.9302c-1.573-0.242-3.177 0.1506-4.461 1.0916-1.283 0.941-2.14 2.3532-2.382 3.926l5.93 0.9126zm21.4 3.2932 5.93 0.9122c0.504-3.2748-1.742-6.3384-5.017-6.8424l-0.913 5.9302zm-1.489 9.6762 5.93 0.912-5.93-0.912zm1.349 1.841 0.913-5.93-0.913 5.93zm1.507 0.232-0.912 5.93 0.912-5.93zm3.084-9.431 2.938-5.2318c-1.716-0.9635-3.796-1.0241-5.565-0.1623s-3.003 2.5364-3.303 4.4811l5.93 0.913zm17.033-1.002 3.548 4.839v-1e-3l-3.548-4.838zm5.848-16.887-1.258-5.8666c-1.614 0.3463-3.014 1.3424-3.871 2.7537-0.856 1.4114-1.094 3.1133-0.655 4.705l5.784-1.5921zm-0.867-43.379c2.393 3.2643 2.455 7.7295 0.301 11.06l10.077 6.5155c4.787-7.4034 4.711-17.288-0.699-24.669l-9.679 7.0938zm-10.455-3.6095c3.823-1.0535 8.063 0.3474 10.456 3.6112l9.677-7.0972c-5.413-7.38-14.819-10.426-23.32-8.0829l3.187 11.569zm-15.492-12.134c3.999 0.6154 7.2 3.729 8.032 7.6074l11.733-2.5162c-1.849-8.6207-8.892-15.559-17.94-16.952l-1.825 11.86zm-9.946 4.8408c1.959-3.449 5.949-5.4559 9.946-4.8408l1.825-11.86c-9.045-1.392-17.85 3.1077-22.205 10.774l10.434 5.9275zm-19.534 2.3744c3.265-2.3932 7.728-2.4547 11.057-0.3006l6.519-10.075c-7.404-4.7904-17.289-4.7134-24.67 0.6977l7.094 9.678zm-3.61 10.456c-1.053-3.8232 0.348-8.0637 3.611-10.457l-7.097-9.6764c-7.3803 5.4133-10.424 14.82-8.084 23.319l11.57-3.1851zm-12.133 15.49c0.6153-3.9985 3.7281-7.199 7.6064-8.0307l-2.5163-11.733c-8.6211 1.8488-15.558 8.8928-16.95 17.939l11.86 1.8252zm4.8397 9.9471c-3.4485-1.9591-5.4553-5.9473-4.8397-9.9471l-11.86-1.8252c-1.3922 9.0468 3.106 17.851 10.773 22.206l5.9274-10.434zm2.3747 19.532c-2.3933-3.2629-2.4548-7.7272-0.301-11.055l-10.075-6.5193c-4.7904 7.403-4.7141 17.291 0.6995 24.672l9.6763-7.0972zm6.389 3.8413c-2.52-0.3878-4.841-1.7299-6.389-3.8407l-9.6767 7.096c3.5201 4.8005 8.7291 7.7574 14.241 8.6054l1.825-11.861zm3.517-0.0957c-1.156 0.2453-2.351 0.2747-3.52 0.0953l-1.82 11.861c2.57 0.394 5.226 0.335 7.831-0.218l-2.491-11.738zm5.929 14.879 1.247-8.0976-11.861-1.8251-1.246 8.0977 11.86 1.825zm-3.667-5.001c2.395 0.369 4.036 2.607 3.667 5.001l-11.86-1.825c-0.64 4.156 2.212 8.045 6.368 8.685l1.825-11.861zm1.506 0.232-1.506-0.232-1.825 11.861 1.506 0.231 1.825-11.86zm-5.002 3.667c0.368-2.389 2.603-4.036 5.002-3.667l-1.825 11.86c4.161 0.641 8.045-2.217 8.683-6.368l-11.86-1.825zm1.489-9.676-1.489 9.676 11.86 1.825 1.489-9.6758-11.86-1.8252zm28.243-1.7244-21.4-3.2932-1.825 11.861 21.399 3.293 1.826-11.86zm3.528 16.518 1.489-9.676-11.86-1.8248-1.489 9.6758 11.86 1.825zm-3.668-5.001c2.399 0.369 4.036 2.612 3.668 5.001l-11.86-1.825c-0.639 4.151 2.206 8.044 6.367 8.684l1.825-11.86zm1.507 0.232-1.507-0.232-1.825 11.86 1.507 0.232 1.825-11.86zm-5.002 3.667c0.367-2.389 2.603-4.036 5.002-3.667l-1.825 11.86c4.161 0.641 8.044-2.217 8.683-6.368l-11.86-1.825zm1.243-8.081-1.243 8.081 11.86 1.825 1.244-8.08-11.861-1.826zm19.416-4.9281c-3.096 2.2694-7.275 2.4467-10.548 0.6093l-5.875 10.464c7.246 4.068 16.508 3.744 23.518-1.395l-7.095-9.6781zm3.611-10.456c1.052 3.8245-0.35 8.0647-3.611 10.456l7.095 9.6768c7.38-5.411 10.425-14.818 8.085-23.317l-11.569 3.1843zm12.132-15.491c-0.616 4-3.729 7.2004-7.606 8.032l2.517 11.733c8.62-1.8491 15.557-8.8933 16.949-17.94l-11.86-1.8252zm-4.839-9.946c3.447 1.9589 5.454 5.9474 4.839 9.946l11.86 1.8252c1.392-9.0457-3.106-17.85-10.771-22.205l-5.928 10.434z" fill="#fff" mask="url(#a)"/>
    </g>
    <path d="m110.45 104.93c-0.135 0.881 0.47 1.706 1.351 1.842l1.506 0.232c0.881 0.135 1.705-0.47 1.84-1.351l2.212-14.373-4.697-0.7228-2.212 14.373z" clip-rule="evenodd" fill="#19194B" fill-rule="evenodd"/>
    <path d="m138.76 94.576-2.212 14.373c-0.136 0.881 0.468 1.706 1.349 1.842l1.507 0.231c0.881 0.136 1.705-0.469 1.841-1.35l2.212-14.373-4.697-0.7228z" clip-rule="evenodd" fill="#19194B" fill-rule="evenodd"/>
    <path d="m163.2 79.239c-0.757 0.0758-1.434 0.5017-1.828 1.1515l-0.786 1.2935c-0.393 0.65-0.458 1.4471-0.177 2.1531 1.827 4.57 0.348 9.9533-3.698 12.919-4.361 3.1974-10.503 2.7062-14.291-1.1412l-1.333-0.6819-26.097-4.0161-1.476 0.2498c-4.767 2.532-10.775 1.1522-13.971-3.2082-2.9678-4.0459-2.7601-9.6239 0.3562-13.433 0.4821-0.5873 0.6601-1.3682 0.4781-2.1066l-0.359-1.4698c-0.1797-0.7381-0.6986-1.3481-1.3977-1.6479-4.5229-1.9388-7.2839-6.7917-6.5209-11.75 0.7628-4.9569 4.8551-8.7551 9.7516-9.2443 0.757-0.0758 1.435-0.5016 1.829-1.1515l0.784-1.2937c0.396-0.6507 0.461-1.4478 0.177-2.1541-1.827-4.5679-0.347-9.9511 3.699-12.918 2.41-1.7682 5.366-2.4094 8.169-1.9781 1.889 0.2907 3.707 1.0691 5.241 2.3177 0.597 0.4861 1.381 0.6785 2.129 0.4949l1.469-0.3595c0.739-0.1796 1.349-0.6973 1.649-1.3964 1.939-4.5228 6.791-7.2828 11.748-6.52 4.958 0.763 8.757 4.8543 9.247 9.7509 0.076 0.7569 0.502 1.433 1.152 1.8274l1.293 0.7845c0.649 0.3944 1.446 0.4595 2.153 0.1783 4.568-1.8272 9.952-0.348 12.919 3.6978 2.966 4.0448 2.759 9.6238-0.358 13.433-0.48 0.5887-0.658 1.3685-0.478 2.1067l0.36 1.4699c0.181 0.7382 0.699 1.3481 1.398 1.6479 4.522 1.9387 7.283 6.7915 6.52 11.748-0.763 4.958-4.855 8.7562-9.751 9.2456zm6.643-24.598c3.47-5.367 3.401-12.542-0.5-17.865-3.904-5.3219-10.726-7.5451-16.889-5.8471-1.34-6.2496-6.462-11.276-12.985-12.28-6.522-1.0036-12.919 2.2498-16.076 7.8073-5.367-3.4723-12.541-3.403-17.864 0.4991-5.322 3.9033-7.5443 10.727-5.8482 16.888-6.2497 1.3402-11.275 6.4625-12.278 12.985-1.0039 6.5233 2.2486 12.919 7.8062 16.077-3.4721 5.3656-3.4032 12.542 0.5002 17.864 2.534 3.4556 6.2992 5.6049 10.314 6.2229 2.991 0.459 6.124 0.0699 8.989-1.2622l24.608 3.787c5.462 4.9947 13.871 5.4947 19.902 1.0727 5.321-3.9015 7.544-10.725 5.848-16.887 6.249-1.3404 11.274-6.4627 12.278-12.986 1.004-6.5222-2.249-12.918-7.805-16.075z" clip-rule="evenodd" fill="#19194B" fill-rule="evenodd"/>
    <path d="m166.43 58.245c-0.699-0.2999-1.217-0.9097-1.398-1.648l-0.36-1.4699c-0.18-0.7381-2e-3 -1.5179 0.478-2.1066 3.117-3.8093 3.325-9.3883 0.358-13.433-2.967-4.0458-8.35-5.525-12.918-3.6979-0.708 0.2823-1.505 0.2161-2.154-0.1783l-1.294-0.7846c-0.649-0.3942-1.075-1.0703-1.151-1.8272-0.49-4.8967-4.288-8.9879-9.246-9.7509-4.957-0.7628-9.81 1.9971-11.749 6.52-0.3 0.699-0.91 1.2168-1.649 1.3964l-1.469 0.3595c-0.748 0.1835-1.532-0.0088-2.129-0.4939-1.534-1.2496-3.352-2.027-5.241-2.3177-2.803-0.4313-5.759 0.2089-8.169 1.977-4.045 2.9667-5.526 8.3499-3.699 12.919 0.284 0.7053 0.219 1.5035-0.177 2.1531l-0.784 1.2937c-0.394 0.6499-1.072 1.0757-1.829 1.1515-4.8964 0.4892-8.9887 4.2874-9.7517 9.2454-0.7628 4.9569 1.9982 9.8097 6.5211 11.748 0.6991 0.2999 1.2169 0.9097 1.3976 1.648l0.359 1.4697c0.182 0.7395 5e-3 1.5194-0.4782 2.1077-3.1162 3.8083-3.3238 9.3862-0.356 13.432 3.1962 4.3614 9.2042 5.7412 13.971 3.2081l1.476-0.2498 26.097 4.0162 1.333 0.6819c3.788 3.8485 9.93 4.3397 14.291 1.1412 4.046-2.9656 5.525-8.349 3.698-12.919-0.281-0.7059-0.216-1.5031 0.177-2.153l0.786-1.2935c0.394-0.6498 1.071-1.0757 1.828-1.1515 4.896-0.4895 8.988-4.2876 9.751-9.2446 0.763-4.9579-1.998-9.8108-6.52-11.749z" clip-rule="evenodd" fill="#fff" fill-rule="evenodd"/>
    <path d="m151.3 70.182c-0.713-1.8848-1.68-3.686-2.905-5.3563l-0.451-0.6147c-0.526-0.7186-1.537-0.8743-2.256-0.3472l-1.228 0.9017c-0.719 0.527-0.875 1.5373-0.348 2.2561l0.451 0.6147c2.789 3.8044 3.93 8.4667 3.213 13.129-1.467 9.5307-10.342 16.119-19.863 14.807-9.661-1.3314-16.528-10.54-15.045-20.179 0.717-4.6619 3.208-8.7653 7.012-11.555l0.615-0.4508c0.719-0.5271 0.874-1.5373 0.347-2.2561l-0.902-1.2296c-0.528-0.7188-1.538-0.8743-2.257-0.3472l-0.614 0.4507c-1.67 1.2249-3.134 2.6519-4.381 4.2352-1.995-1.8845-3.257-4.486-3.447-7.2735l4.738 0.7291c0.881 0.1356 1.705-0.4676 1.841-1.3495l0.116-0.7535c0.36-2.3442 2.553-3.9523 4.899-3.5914 1.946 0.2995 3.382 1.8632 3.607 3.7272 0.086 0.7106 0.645 1.2714 1.351 1.3802l1.964 0.3021c0.707 0.1088 1.408-0.258 1.704-0.9099 0.776-1.71 2.614-2.7698 4.562-2.4701 1.947 0.2996 3.383 1.8633 3.606 3.7271 0.087 0.7107 0.647 1.2716 1.353 1.3804l1.963 0.302c0.706 0.1087 1.409-0.2579 1.705-0.9098 0.774-1.7103 2.613-2.7699 4.56-2.4703 2.345 0.3608 3.953 2.5539 3.592 4.8981l-0.116 0.7535c-0.136 0.8819 0.469 1.7049 1.351 1.8406l4.738 0.7292c-1.02 2.6012-3.005 4.7031-5.475 5.9004z" clip-rule="evenodd" fill="#fff" fill-rule="evenodd"/>
    <path d="m138.48 69.067c-1.321-0.2034-2.558 0.7024-2.761 2.0247-0.204 1.3212 0.703 2.5569 2.025 2.7603 1.321 0.2033 2.557-0.7025 2.761-2.0237 0.203-1.3223-0.704-2.558-2.025-2.7613z" clip-rule="evenodd" fill="#19194B" fill-rule="evenodd"/>
    <path d="m125.29 67.037c-1.321-0.2033-2.557 0.7025-2.761 2.0248-0.203 1.3212 0.704 2.5569 2.025 2.7602s2.558-0.7025 2.761-2.0237c0.204-1.3223-0.703-2.558-2.025-2.7613z" clip-rule="evenodd" fill="#19194B" fill-rule="evenodd"/>
    <path d="m132.22 92.296c-0.339 2.203-2.4 3.7131-4.602 3.3743-2.202-0.3389-3.713-2.3987-3.374-4.6018l7.976 1.2275z" clip-rule="evenodd" fill="#19194B" fill-rule="evenodd"/>
    <path d="m151.3 70.182c-0.713-1.8847-1.68-3.686-2.905-5.3563l-0.451-0.6147c-0.526-0.7186-1.537-0.8742-2.256-0.3472l-1.228 0.9017c-0.719 0.5271-0.875 1.5373-0.348 2.2561l0.451 0.6147c2.789 3.8045 3.93 8.4667 3.213 13.129-1.467 9.5308-10.342 16.119-19.863 14.807-9.661-1.3314-16.528-10.54-15.045-20.179 0.717-4.6619 3.207-8.7653 7.012-11.555l0.615-0.4508c0.719-0.527 0.874-1.5373 0.347-2.2561l-0.903-1.2296c-0.527-0.7188-1.537-0.8742-2.256-0.3472l-0.614 0.4508c-1.67 1.2249-3.134 2.6518-4.381 4.2351-1.995-1.8845-3.257-4.486-3.447-7.2735l4.738 0.7292c0.881 0.1355 1.705-0.4677 1.841-1.3496l0.116-0.7534c0.36-2.3442 2.553-3.9524 4.899-3.5915 1.946 0.2995 3.382 1.8632 3.606 3.7272 0.087 0.7107 0.646 1.2714 1.352 1.3802l1.964 0.3021c0.706 0.1088 1.408-0.2579 1.704-0.9098 0.776-1.71 2.614-2.7699 4.562-2.4702 1.947 0.2997 3.383 1.8633 3.606 3.7272 0.087 0.7107 0.647 1.2716 1.353 1.3803l1.963 0.302c0.706 0.1088 1.409-0.2578 1.705-0.9097 0.774-1.7103 2.613-2.77 4.56-2.4703 2.345 0.3607 3.953 2.5538 3.592 4.8981l-0.116 0.7534c-0.136 0.8819 0.469 1.7049 1.351 1.8406l4.738 0.7292c-1.02 2.6012-3.005 4.7031-5.475 5.9004zm9.561-10.081-5.312-0.8176c-0.45-3.9539-3.497-7.2875-7.616-7.9213-2.607-0.4013-5.131 0.3585-7.042 1.8929-1.36-2.0377-3.538-3.5211-6.145-3.9224-2.608-0.4012-5.131 0.3587-7.042 1.8929-1.361-2.0377-3.54-3.5213-6.147-3.9225-4.119-0.6338-8.026 1.6296-9.645 5.2653l-5.311-0.8174c-0.881-0.1356-1.705 0.4698-1.841 1.3506l-0.116 0.7534c-0.855 5.5544 1.387 11.007 5.501 14.456-1.018 2.1095-1.713 4.3892-2.036 6.7838-1.632 12.09 6.87 23.372 18.941 25.156 12.162 1.795 23.551-6.5944 25.424-18.763 0.345-2.2424 0.349-4.484 0.032-6.6653-1e-3 0.0011 0 0.0034 1e-3 0.0046 4.957-2.053 8.733-6.5777 9.588-12.131l0.116-0.7535c0.135-0.8808-0.469-1.706-1.35-1.8415z" clip-rule="evenodd" fill="#19194B" fill-rule="evenodd"/>
    <g clip-rule="evenodd" fill="#fff" fill-rule="evenodd" filter="url(#d)">
        <path d="m28.627 148.61c0.0043 0.111 0.0092 0.223 0.0148 0.335 0.0775 1.539 0.2816 3.072 0.6119 4.584 1e-3 5e-3 0.0021 0.01 0.0031 0.014 0.1839 0.84 0.4067 1.673 0.6683 2.496 0.0398 0.125 0.108 0.24 0.1993 0.334s0.2033 0.166 0.327 0.21c0.1238 0.044 0.2561 0.058 0.3864 0.042 0.1304-0.016 0.2552-0.061 0.3648-0.134l4.5493-2.993c0.4659-0.306 0.9985-0.493 1.5502-0.544 0.016-2e-3 0.0321-3e-3 0.0481-4e-3 0.0972-8e-3 0.1949-0.012 0.2928-0.011 0.6718 5e-3 1.327 0.209 1.883 0.586s0.9877 0.91 1.2406 1.533c0.2529 0.622 0.3156 1.305 0.1802 1.963l-3.1054 14.97c-0.1565 0.767-0.573 1.456-1.179 1.951-0.6061 0.495-1.3645 0.766-2.1472 0.767-0.2283-1e-3 -0.456-0.025-0.6795-0.071l-14.973-3.085c-0.6593-0.135-1.2638-0.463-1.7367-0.942-0.4729-0.478-0.7929-1.087-0.9196-1.748-0.1266-0.661-0.0542-1.344 0.2082-1.964s0.703-1.147 1.2657-1.516l4.7566-3.133c0.1628-0.107 0.2836-0.267 0.3418-0.453 0.0583-0.185 0.0503-0.386-0.0224-0.566-2.604-6.434-3.3209-13.477-2.0668-20.304 1.2542-6.827 4.4275-13.155 9.1483-18.243 4.7209-5.089 10.794-8.727 17.508-10.488 6.7138-1.762 13.79-1.574 20.401 0.541 1.0723 0.343 1.9646 1.097 2.4807 2.098 0.5161 1 0.6137 2.164 0.2713 3.237-0.3424 1.072-1.0968 1.964-2.0971 2.48-1.0004 0.516-2.1648 0.614-3.2371 0.272-4.9048-1.577-10.15-1.768-15.156-0.553-5.0066 1.216-9.5803 3.79-13.217 7.439-3.6263 3.643-6.184 8.21-7.3947 13.205-0.6129 2.529-0.8687 5.118-0.7699 7.695zm41.553-43.493c0.0015 0 0.0029 0 0.0044 1e-3 3.0915 0.988 5.6642 3.164 7.1524 6.049 1.4889 2.885 1.7704 6.245 0.7826 9.338-0.9879 3.094-3.1641 5.668-6.05 7.157-2.886 1.489-6.2452 1.77-9.3386 0.782l-0.0142-4e-3c-3.502-1.126-7.2469-1.262-10.822-0.394-3.5737 0.867-6.8384 2.704-9.4345 5.309-7e-4 1e-3 -0.0015 1e-3 -0.0022 2e-3 -2.5925 2.605-4.4211 5.871-5.2868 9.442-0.174 0.718-0.3078 1.443-0.4015 2.172 0.3085-0.023 0.6185-0.034 0.9294-0.032 2.2535 0.016 4.4517 0.7 6.3167 1.965 1.8651 1.265 3.3133 3.054 4.1617 5.142 0.8483 2.088 1.0587 4.38 0.6046 6.587l-0.0026 0.013-3.1003 14.945c-0.0011 5e-3 -0.0022 0.011-0.0033 0.016-0.5276 2.566-1.9232 4.872-3.952 6.53-2.0331 1.661-4.5774 2.57-7.2029 2.572h-0.0294c-0.767-2e-3 -1.5319-0.082-2.2828-0.238-0.0043-1e-3 -0.0086-2e-3 -0.0129-3e-3l-14.936-3.078c-3e-3 0-0.0061-1e-3 -0.0091-1e-3 -9e-4 -1e-3 -0.0018-1e-3 -0.0027-1e-3 -2.2071-0.454-4.2304-1.551-5.8139-3.155-1.5864-1.606-2.6602-3.647-3.085-5.864s-0.18176-4.511 0.6985-6.589c0.87884-2.076 2.3533-3.844 4.2368-5.082 3e-3 -2e-3 6e-3 -4e-3 0.0091-6e-3l0.1856-0.122c-1.5917-6.217-1.8264-12.73-0.6582-19.088 1.5289-8.322 5.3972-16.036 11.152-22.239 5.7548-6.203 13.158-10.638 21.342-12.785 8.1827-2.147 16.808-1.919 24.865 0.659z"/>
        <path d="m96.138 116.03c2.1963 0.502 4.1944 1.643 5.7424 3.28 1.541 1.63 2.566 3.678 2.949 5.887 0.39 2.224 0.111 4.514-0.803 6.58-0.898 2.031-2.369 3.754-4.2314 4.959 1.5344 6.142 1.7474 12.565 0.5954 18.838-1.5196 8.273-5.3519 15.947-11.053 22.132-5.701 6.185-13.037 10.628-21.16 12.816-8.095 2.18-16.64 2.03-24.653-0.431-1.5276-0.446-2.9542-1.185-4.1997-2.176-1.2793-1.019-2.3417-2.283-3.1245-3.719-0.7827-1.436-1.27-3.014-1.4331-4.641s0.0013-3.271 0.4836-4.833c0.4822-1.563 1.2725-3.013 2.3242-4.265 1.0518-1.252 2.3436-2.281 3.7994-3.026s3.046-1.191 4.6769-1.311c1.5854-0.117 3.1781 0.075 4.6892 0.567 3.4854 1.065 7.196 1.159 10.732 0.271 3.5576-0.893 6.8015-2.746 9.3777-5.357 2.5763-2.611 4.3859-5.88 5.2315-9.449 0.17-0.718 0.2998-1.442 0.3894-2.17-0.4981 0.052-1.0009 0.072-1.5053 0.057-2.2531-0.063-4.4369-0.792-6.2753-2.096-1.8384-1.305-3.2488-3.124-4.053-5.23s-0.9661-4.402-0.4652-6.6c1e-4 0 0 0 0 0l3.3976-14.905c0.3334-1.462 0.9522-2.844 1.8204-4.067 0.8683-1.222 1.9692-2.261 3.2398-3.057 1.2705-0.797 2.6857-1.334 4.1643-1.583 1.4738-0.247 2.9819-0.202 4.4384 0.132 0.0048 1e-3 0.0096 2e-3 0.0144 3e-3l14.891 3.394zm-16.691 4.401c-0.4355-0.1-0.8866-0.114-1.3273-0.04-0.4408 0.074-0.8627 0.234-1.2414 0.472-0.3788 0.237-0.7069 0.547-0.9658 0.911-0.2588 0.364-0.4432 0.776-0.5426 1.212l-3.3975 14.905c-0.1494 0.655-0.1011 1.34 0.1386 1.968 0.2397 0.627 0.6602 1.17 1.2082 1.558 0.548 0.389 1.199 0.607 1.8706 0.626 0.2189 6e-3 0.4368-9e-3 0.6508-0.045 0.0142-2e-3 0.0285-5e-3 0.0427-7e-3 0.4273-0.077 0.8381-0.235 1.2092-0.468l4.9027-3.078c0.108-0.071 0.2311-0.117 0.3595-0.133 0.1285-0.016 0.259-2e-3 0.3811 0.041 0.122 0.045 0.2322 0.117 0.3222 0.21 0.0901 0.094 0.1577 0.207 0.1977 0.33 0.2663 0.822 0.4937 1.653 0.6823 2.491 0.0179 0.08 0.0354 0.159 0.0526 0.239 0.3105 1.439 0.5066 2.897 0.5877 4.362 0.0051 0.092 0.0097 0.184 0.0139 0.276 0.1178 2.587-0.1231 5.191-0.7259 7.735-1.1834 4.995-3.7159 9.569-7.3213 13.223s-8.1451 6.248-13.124 7.498c-4.9788 1.251-10.205 1.11-15.109-0.407-0.5373-0.182-1.1055-0.254-1.6711-0.212-0.5655 0.042-1.1169 0.196-1.6218 0.455-0.5048 0.258-0.9528 0.615-1.3175 1.049s-0.6388 0.937-0.806 1.479-0.2243 1.112-0.1677 1.676c0.0565 0.564 0.2255 1.112 0.497 1.609 0.2714 0.498 0.6398 0.937 1.0835 1.29 0.4436 0.353 0.9535 0.614 1.4995 0.767 6.5922 2.039 13.627 2.168 20.29 0.374s12.681-5.44 17.358-10.513c4.6766-5.074 7.8203-11.369 9.0669-18.155 1.2467-6.787 0.5453-13.788-2.0228-20.193-0.0709-0.182-0.0757-0.384-0.0137-0.57s0.187-0.345 0.3534-0.449l4.5731-2.874c0.5726-0.36 1.0246-0.883 1.2982-1.502 0.2736-0.618 0.3563-1.305 0.2375-1.971-0.1127-0.662-0.4191-1.275-0.8805-1.763s-1.0571-0.829-1.7118-0.978l-14.908-3.398z"/>
    </g>
    <path d="m36.792 127.71c3.6364-3.649 8.2101-6.223 13.217-7.439 5.0065-1.215 10.252-1.024 15.156 0.553 1.0723 0.342 2.2367 0.244 3.2371-0.272 1.0003-0.516 1.7547-1.408 2.0971-2.48 0.3424-1.073 0.2448-2.237-0.2713-3.237-0.5161-1.001-1.4084-1.755-2.4807-2.098-6.6109-2.115-13.688-2.303-20.401-0.541-6.7138 1.761-12.787 5.399-17.508 10.488-4.7208 5.088-7.8941 11.416-9.1483 18.243-1.2541 6.827-0.5372 13.87 2.0668 20.304 0.0727 0.18 0.0806 0.381 0.0224 0.566-0.0582 0.186-0.179 0.346-0.3418 0.453l-4.7566 3.133c-0.5628 0.369-1.0033 0.896-1.2657 1.516s-0.3348 1.303-0.2082 1.964c0.1267 0.661 0.4467 1.27 0.9196 1.748 0.4729 0.479 1.0774 0.807 1.7367 0.942l14.973 3.085c0.2235 0.046 0.4512 0.07 0.6795 0.071 0.7827-1e-3 1.5411-0.272 2.1472-0.767 0.606-0.495 1.0225-1.184 1.179-1.951l3.1054-14.97c0.1354-0.658 0.0727-1.341-0.1802-1.963-0.2529-0.623-0.6846-1.156-1.2406-1.533s-1.2112-0.581-1.883-0.586c-0.6717-5e-3 -1.3298 0.19-1.8911 0.559l-4.5493 2.993c-0.1096 0.073-0.2344 0.118-0.3648 0.134-0.1303 0.016-0.2626 2e-3 -0.3864-0.042-0.1237-0.044-0.2357-0.116-0.327-0.21s-0.1595-0.209-0.1993-0.334c-1.5562-4.898-1.7389-10.129-0.5282-15.124s3.7684-9.562 7.3947-13.205z" fill="url(#c)"/>
    <path d="m96.947 126.57c-0.1127-0.662-0.4191-1.275-0.8805-1.763s-1.0571-0.829-1.7118-0.978l-14.908-3.398c-0.4355-0.1-0.8866-0.114-1.3273-0.04-0.4408 0.074-0.8627 0.234-1.2414 0.472-0.3788 0.237-0.7069 0.547-0.9658 0.911-0.2588 0.364-0.4432 0.776-0.5426 1.212l-3.3975 14.905c-0.1494 0.655-0.1011 1.34 0.1386 1.968 0.2397 0.627 0.6602 1.17 1.2082 1.558 0.548 0.389 1.199 0.607 1.8706 0.626 0.6717 0.018 1.3338-0.162 1.9027-0.52l4.9027-3.078c0.108-0.071 0.2311-0.117 0.3595-0.133 0.1285-0.016 0.259-2e-3 0.3811 0.041 0.122 0.045 0.2322 0.117 0.3222 0.21 0.0901 0.094 0.1577 0.207 0.1977 0.33 1.5828 4.884 1.794 10.108 0.6106 15.103s-3.7159 9.569-7.3213 13.223-8.1451 6.248-13.124 7.498c-4.9788 1.251-10.205 1.11-15.109-0.407-0.5373-0.182-1.1055-0.254-1.6711-0.212-0.5655 0.042-1.1169 0.196-1.6218 0.455-0.5048 0.258-0.9528 0.615-1.3175 1.049s-0.6388 0.937-0.806 1.479-0.2243 1.112-0.1677 1.676c0.0565 0.564 0.2255 1.112 0.497 1.609 0.2714 0.498 0.6398 0.937 1.0835 1.29 0.4436 0.353 0.9535 0.614 1.4995 0.767 6.5922 2.039 13.627 2.168 20.29 0.374s12.681-5.44 17.358-10.513c4.6766-5.074 7.8203-11.369 9.0669-18.155 1.2467-6.787 0.5453-13.788-2.0228-20.193-0.0709-0.182-0.0757-0.384-0.0137-0.57s0.187-0.345 0.3534-0.449l4.5731-2.874c0.5726-0.36 1.0246-0.883 1.2982-1.502 0.2736-0.618 0.3563-1.305 0.2375-1.971z" fill="url(#b)"/>
    <defs>
        <filter id="e" x="65.613" y=".86279" width="133.82" height="133.82" color-interpolation-filters="sRGB" filterUnits="userSpaceOnUse">
            <feFlood flood-opacity="0" result="BackgroundImageFix"/>
            <feColorMatrix in="SourceAlpha" values="0 0 0 0 0 0 0 0 0 0 0 0 0 0 0 0 0 0 127 0"/>
            <feOffset dy="4"/>
            <feGaussianBlur stdDeviation="4"/>
            <feColorMatrix values="0 0 0 0 0 0 0 0 0 0 0 0 0 0 0 0 0 0 0.24 0"/>
            <feBlend in2="BackgroundImageFix" result="effect1_dropShadow"/>
            <feBlend in="SourceGraphic" in2="effect1_dropShadow" result="shape"/>
        </filter>
        <filter id="d" x=".146" y="99" width="112.85" height="105.06" color-interpolation-filters="sRGB" filterUnits="userSpaceOnUse">
            <feFlood flood-opacity="0" result="BackgroundImageFix"/>
            <feColorMatrix in="SourceAlpha" values="0 0 0 0 0 0 0 0 0 0 0 0 0 0 0 0 0 0 127 0"/>
            <feOffset dy="4"/>
            <feGaussianBlur stdDeviation="4"/>
            <feColorMatrix values="0 0 0 0 0 0 0 0 0 0 0 0 0 0 0 0 0 0 0.24 0"/>
            <feBlend in2="BackgroundImageFix" result="effect1_dropShadow"/>
            <feBlend in="SourceGraphic" in2="effect1_dropShadow" result="shape"/>
        </filter>
        <linearGradient id="c" x1="43.423" x2="44.887" y1="111" y2="225.58" gradientUnits="userSpaceOnUse">
            <stop stop-color="#00A0DF" offset="0"/>
            <stop stop-color="#007CBF" offset="1"/>
        </linearGradient>
        <linearGradient id="b" x1="69.853" x2="71.324" y1="120.35" y2="234.92" gradientUnits="userSpaceOnUse">
            <stop stop-color="#00A0DF" offset="0"/>
            <stop stop-color="#007CBF" offset="1"/>
        </linearGradient>
    </defs>
</svg>
