<svg class="icon" 
    viewBox="0 0 24 24" 
    fill="none" 
    xmlns="http://www.w3.org/2000/svg"
>
<path d="M23.4142 3.55496C23.7893 3.91029 24 4.39222 24 4.89474V19.1053C24 19.6078 23.7893 20.0897 23.4142 20.445C23.0391 20.8004 22.5304 21 22 21H19H15.5H2C1.46957 21 0.960859 20.8004 0.585786 20.445C0.210714 20.0897 0 19.6078 0 19.1053V4.89474C0 4.39222 0.210714 3.91029 0.585786 3.55496C0.960859 3.19962 1.46957 3 2 3H22C22.5304 3 23.0391 3.19962 23.4142 3.55496Z" fill="#00A0DF"/>
<path fill-rule="evenodd" clip-rule="evenodd" d="M7.44467 10.3017C7.44467 11.4203 6.53784 12.3272 5.4192 12.3272C4.30056 12.3272 3.39373 11.4203 3.39373 10.3017C3.39373 9.18305 4.30056 8.27621 5.4192 8.27621C6.53784 8.27621 7.44467 9.18305 7.44467 10.3017ZM2.94654 13.9054C3.60241 13.2496 4.49166 12.8806 5.4192 12.8796C6.34674 12.8806 7.23599 13.2496 7.89186 13.9054C8.54773 14.5613 8.91667 15.4506 8.91774 16.3781C8.91774 16.4269 8.89834 16.4738 8.86381 16.5083C8.82928 16.5428 8.78244 16.5622 8.73361 16.5622H2.10479C2.05595 16.5622 2.00912 16.5428 1.97459 16.5083C1.94005 16.4738 1.92065 16.4269 1.92065 16.3781C1.92173 15.4506 2.29067 14.5613 2.94654 13.9054Z" fill="white"/>
<path d="M21.1354 10.2096H12.9127C12.4354 10.2096 12.0481 10.5969 12.0481 11.0742C12.0481 11.5515 12.4354 11.9389 12.9127 11.9389H21.1354C21.6127 11.9389 22.0001 11.5515 22.0001 11.0742C22.0001 10.5969 21.6127 10.2096 21.1354 10.2096Z" fill="white"/>
<path d="M17.7162 13.524H12.9127C12.4354 13.524 12.0481 13.9114 12.0481 14.3886C12.0481 14.8659 12.4354 15.2533 12.9127 15.2533H17.7162C18.1935 15.2533 18.5808 14.8659 18.5808 14.3886C18.5808 13.9114 18.1935 13.524 17.7162 13.524Z" fill="white"/>
</svg>
