<svg class="icon" viewBox="0 0 32 32" fill="none" xmlns="http://www.w3.org/2000/svg">
  <rect y="4.80005" width="32" height="21.6" rx="3.2" fill="#F4F5F7"/>
  <mask id="mask0" mask-type="alpha" maskUnits="userSpaceOnUse" x="0" y="4" width="32" height="23">
    <rect y="4.80005" width="32" height="21.6" rx="3.2" fill="#F4F5F7"/>
  </mask>
  <g mask="url(#mask0)">
    <path d="M32 26.4V4.80005L0 26.4H32Z" fill="url(#paint0_linear)"/>
  </g>
  <path d="M13.5997 15.1999C13.5997 14.7581 13.9579 14.3999 14.3997 14.3999H21.5997C22.0416 14.3999 22.3997 14.7581 22.3997 15.1999C22.3997 15.6417 22.0416 15.9999 21.5997 15.9999H14.3997C13.9579 15.9999 13.5997 15.6417 13.5997 15.1999Z" fill="#19194B"/>
  <path d="M23.2 15.1999C23.2 14.7581 23.5582 14.3999 24 14.3999H28C28.4418 14.3999 28.8 14.7581 28.8 15.1999C28.8 15.6417 28.4418 15.9999 28 15.9999H24C23.5582 15.9999 23.2 15.6417 23.2 15.1999Z" fill="#19194B"/>
  <path d="M13.6006 12C13.6006 11.5581 13.9588 11.2 14.4006 11.2H20.0006C20.4424 11.2 20.8006 11.5581 20.8006 12C20.8006 12.4418 20.4424 12.8 20.0006 12.8H14.4006C13.9588 12.8 13.6006 12.4418 13.6006 12Z" fill="#19194B"/>
  <path d="M13.5997 19.1999C13.5997 18.7581 13.9579 18.3999 14.3997 18.3999H15.9997C16.4416 18.3999 16.7997 18.7581 16.7997 19.1999C16.7997 19.6417 16.4416 19.9999 15.9997 19.9999H14.3997C13.9579 19.9999 13.5997 19.6417 13.5997 19.1999Z" fill="#00A0DF"/>
  <path d="M17.5997 19.1999C17.5997 18.7581 17.9579 18.3999 18.3997 18.3999H19.9997C20.4416 18.3999 20.7997 18.7581 20.7997 19.1999C20.7997 19.6417 20.4416 19.9999 19.9997 19.9999H18.3997C17.9579 19.9999 17.5997 19.6417 17.5997 19.1999Z" fill="#00A0DF"/>
  <path d="M21.5997 19.1999C21.5997 18.7581 21.9579 18.3999 22.3997 18.3999H23.9997C24.4416 18.3999 24.7997 18.7581 24.7997 19.1999C24.7997 19.6417 24.4416 19.9999 23.9997 19.9999H22.3997C21.9579 19.9999 21.5997 19.6417 21.5997 19.1999Z" fill="#00A0DF"/>
  <path fill-rule="evenodd" clip-rule="evenodd" d="M10.1424 12.1912C10.1424 13.6222 8.98237 14.7823 7.55133 14.7823C6.1203 14.7823 4.96022 13.6222 4.96022 12.1912C4.96022 10.7602 6.1203 9.6001 7.55133 9.6001C8.98237 9.6001 10.1424 10.7602 10.1424 12.1912ZM4.38833 16.8014C5.22737 15.9624 6.36494 15.4904 7.55151 15.489C8.73808 15.4904 9.87566 15.9624 10.7147 16.8014C11.5537 17.6405 12.0257 18.778 12.0271 19.9646C12.0271 20.0271 12.0023 20.087 11.9581 20.1312C11.9139 20.1753 11.854 20.2002 11.7915 20.2002H3.31151C3.24904 20.2002 3.18913 20.1753 3.14495 20.1312C3.10078 20.087 3.07596 20.0271 3.07596 19.9646C3.07733 18.778 3.5493 17.6405 4.38833 16.8014Z" fill="#00A0DF"/>
  <path d="M13.5997 15.1999C13.5997 14.7581 13.9579 14.3999 14.3997 14.3999H21.5997C22.0416 14.3999 22.3997 14.7581 22.3997 15.1999C22.3997 15.6417 22.0416 15.9999 21.5997 15.9999H14.3997C13.9579 15.9999 13.5997 15.6417 13.5997 15.1999Z" fill="#19194B"/>
  <path d="M23.2 15.1999C23.2 14.7581 23.5582 14.3999 24 14.3999H28C28.4418 14.3999 28.8 14.7581 28.8 15.1999C28.8 15.6417 28.4418 15.9999 28 15.9999H24C23.5582 15.9999 23.2 15.6417 23.2 15.1999Z" fill="#19194B"/>
  <path d="M13.6006 12C13.6006 11.5581 13.9588 11.2 14.4006 11.2H20.0006C20.4424 11.2 20.8006 11.5581 20.8006 12C20.8006 12.4418 20.4424 12.8 20.0006 12.8H14.4006C13.9588 12.8 13.6006 12.4418 13.6006 12Z" fill="#19194B"/>
  <path d="M13.5997 19.1999C13.5997 18.7581 13.9579 18.3999 14.3997 18.3999H15.9997C16.4416 18.3999 16.7997 18.7581 16.7997 19.1999C16.7997 19.6417 16.4416 19.9999 15.9997 19.9999H14.3997C13.9579 19.9999 13.5997 19.6417 13.5997 19.1999Z" fill="#00A0DF"/>
  <path d="M17.5997 19.1999C17.5997 18.7581 17.9579 18.3999 18.3997 18.3999H19.9997C20.4416 18.3999 20.7997 18.7581 20.7997 19.1999C20.7997 19.6417 20.4416 19.9999 19.9997 19.9999H18.3997C17.9579 19.9999 17.5997 19.6417 17.5997 19.1999Z" fill="#00A0DF"/>
  <path d="M21.5997 19.1999C21.5997 18.7581 21.9579 18.3999 22.3997 18.3999H23.9997C24.4416 18.3999 24.7997 18.7581 24.7997 19.1999C24.7997 19.6417 24.4416 19.9999 23.9997 19.9999H22.3997C21.9579 19.9999 21.5997 19.6417 21.5997 19.1999Z" fill="#00A0DF"/>
  <path fill-rule="evenodd" clip-rule="evenodd" d="M10.1424 12.1912C10.1424 13.6222 8.98237 14.7823 7.55133 14.7823C6.1203 14.7823 4.96022 13.6222 4.96022 12.1912C4.96022 10.7602 6.1203 9.6001 7.55133 9.6001C8.98237 9.6001 10.1424 10.7602 10.1424 12.1912ZM4.38833 16.8014C5.22737 15.9624 6.36494 15.4904 7.55151 15.489C8.73808 15.4904 9.87566 15.9624 10.7147 16.8014C11.5537 17.6405 12.0257 18.778 12.0271 19.9646C12.0271 20.0271 12.0023 20.087 11.9581 20.1312C11.9139 20.1753 11.854 20.2002 11.7915 20.2002H3.31151C3.24904 20.2002 3.18913 20.1753 3.14495 20.1312C3.10078 20.087 3.07596 20.0271 3.07596 19.9646C3.07733 18.778 3.5493 17.6405 4.38833 16.8014Z" fill="#00A0DF"/>
  <defs>
    <linearGradient id="paint0_linear" x1="18" y1="4.00005" x2="12.8" y2="27.2" gradientUnits="userSpaceOnUse">
      <stop stop-color="#EBECF0"/>
      <stop offset="1" stop-color="#EBECF0" stop-opacity="0"/>
    </linearGradient>
  </defs>
</svg>
