<svg class="icon" viewBox="0 0 25 24" fill="none" xmlns="http://www.w3.org/2000/svg">
<path d="M18.5 11C18.0508 11 17.607 11.1353 17.2011 11.4059C16.8385 11.6711 16.5733 12.077 16.438 12.4775C16.1295 12.3043 15.7885 12.2394 15.4205 12.2394C15.3122 12.2394 15.204 12.2448 15.0958 12.2556C14.6465 12.3422 14.246 12.5208 13.8834 12.8834C13.5749 13.1919 13.3476 13.6465 13.2556 14.0958C13.169 14.545 13.2556 14.9888 13.4775 15.438C13.0283 15.5733 12.6711 15.8439 12.4059 16.2011C12.1407 16.5637 12 17.0075 12 17.5C12 17.9492 12.1353 18.393 12.4059 18.7989C12.6711 19.1615 13.077 19.4267 13.4775 19.562C13.2556 19.9679 13.2123 20.4117 13.2556 20.9042C13.2989 21.3968 13.5208 21.754 13.8834 22.1166C14.1919 22.4251 14.6465 22.6524 15.0958 22.7444C15.2094 22.766 15.3285 22.7823 15.4421 22.7823C15.7723 22.7823 16.1024 22.6903 16.438 22.5225C16.5733 22.9717 16.8439 23.3289 17.2011 23.5941C17.5637 23.8593 18.0075 24 18.5 24C18.9492 24 19.393 23.8647 19.7989 23.5941C20.1615 23.3289 20.4267 22.923 20.562 22.5225C20.8705 22.6957 21.2115 22.7606 21.5795 22.7606C21.6878 22.7606 21.796 22.7552 21.9042 22.7444C22.3535 22.6578 22.754 22.4792 23.1166 22.1166C23.4251 21.8081 23.6524 21.3535 23.7444 20.9042C23.831 20.455 23.7444 20.0112 23.5225 19.562C23.9717 19.4267 24.3722 19.1561 24.6374 18.7556C24.8593 18.3497 25 17.9059 25 17.5C25 17.0508 24.8647 16.607 24.5941 16.2444C24.3289 15.8818 23.923 15.6166 23.5225 15.438C23.7444 15.0321 23.7877 14.5883 23.7444 14.0958C23.6578 13.6465 23.4792 13.246 23.1166 12.8834C22.8081 12.5749 22.3535 12.3476 21.9042 12.2556C21.7906 12.234 21.6715 12.2177 21.5579 12.2177C21.2277 12.2177 20.8976 12.3097 20.562 12.4775C20.4267 12.0283 20.1561 11.6711 19.7989 11.4059C19.4417 11.1353 18.9979 11 18.5 11Z" fill="#00A0DF"/>
<path fill-rule="evenodd" clip-rule="evenodd" d="M12.75 4.75C12.75 7.37335 10.6234 9.5 8 9.5C5.37665 9.5 3.25 7.37335 3.25 4.75C3.25 2.12665 5.37665 0 8 0C10.6234 0 12.75 2.12665 12.75 4.75ZM12.4321 12.2323C12.4133 12.3007 12.3802 12.3643 12.335 12.419C11.4607 13.4752 10.8741 14.7394 10.632 16.089C10.6111 16.2043 10.5504 16.3086 10.4605 16.3837C10.3706 16.4588 10.2571 16.5 10.14 16.5H1.49996C1.42183 16.5005 1.34468 16.4826 1.2747 16.4478C1.20472 16.4131 1.14386 16.3624 1.097 16.2999C1.05013 16.2374 1.01857 16.1648 1.00485 16.0878C0.991121 16.0109 0.995611 15.9319 1.01796 15.857C1.34624 14.7448 1.9288 13.7242 2.71955 12.876C3.5103 12.0278 4.48757 11.3751 5.57405 10.9697C6.66053 10.5643 7.82643 10.4173 8.97954 10.5402C10.1327 10.6631 11.2414 11.0527 12.218 11.678C12.2779 11.716 12.329 11.7664 12.3679 11.8257C12.4068 11.8851 12.4327 11.952 12.4438 12.0221C12.4548 12.0922 12.4509 12.1638 12.4321 12.2323Z" fill="#00A0DF"/>
</svg>
