<svg class="icon"
     viewBox="0 0 25 24"
     fill="none"
     xmlns="http://www.w3.org/2000/svg"
>
  <path fill-rule="evenodd"
        clip-rule="evenodd"
        d="M8 9.5C10.6234 9.5 12.75 7.37335 12.75 4.75C12.75 2.12665 10.6234 0 8 0C5.37665 0 3.25 2.12665 3.25 4.75C3.25 7.37335 5.37665 9.5 8 9.5ZM12.335 12.419C12.3802 12.3643 12.4133 12.3007 12.4321 12.2323C12.4509 12.1638 12.4548 12.0922 12.4438 12.0221C12.4327 11.952 12.4068 11.8851 12.3679 11.8257C12.329 11.7664 12.2779 11.716 12.218 11.678C11.2414 11.0527 10.1327 10.6631 8.97954 10.5402C7.82643 10.4173 6.66053 10.5643 5.57405 10.9697C4.48757 11.3751 3.5103 12.0278 2.71955 12.876C1.9288 13.7242 1.34624 14.7448 1.01796 15.857C0.995611 15.9319 0.991121 16.0109 1.00485 16.0878C1.01857 16.1648 1.05013 16.2374 1.097 16.2999C1.14386 16.3624 1.20472 16.4131 1.2747 16.4478C1.34468 16.4826 1.42183 16.5005 1.49996 16.5H10.14C10.2571 16.5 10.3706 16.4588 10.4605 16.3837C10.5504 16.3086 10.6111 16.2043 10.632 16.089C10.8741 14.7394 11.4607 13.4752 12.335 12.419ZM14.8888 12.0954C15.9577 11.3812 17.2144 11 18.5 11C20.2233 11.0021 21.8753 11.6876 23.0939 12.9061C24.3124 14.1247 24.9979 15.7767 25 17.5C25 18.7856 24.6188 20.0423 23.9046 21.1112C23.1903 22.1801 22.1752 23.0132 20.9874 23.5052C19.7997 23.9972 18.4928 24.1259 17.2319 23.8751C15.971 23.6243 14.8128 23.0052 13.9038 22.0962C12.9948 21.1872 12.3757 20.029 12.1249 18.7681C11.8741 17.5072 12.0028 16.2003 12.4948 15.0126C12.9868 13.8248 13.8199 12.8097 14.8888 12.0954ZM14.448 18.978L16.209 20.738V20.74C16.3994 20.931 16.6286 21.0788 16.8812 21.1734C17.1338 21.2679 17.4037 21.307 17.6727 21.2881C17.9417 21.2691 18.2035 21.1925 18.4403 21.0634C18.6771 20.9343 18.8833 20.7558 19.045 20.54L22.455 15.992C22.5338 15.8869 22.5911 15.7674 22.6237 15.6402C22.6563 15.513 22.6635 15.3806 22.645 15.2506C22.6264 15.1206 22.5824 14.9955 22.5155 14.8825C22.4486 14.7695 22.3601 14.6708 22.255 14.592C22.1499 14.5132 22.0304 14.4559 21.9032 14.4233C21.776 14.3907 21.6436 14.3835 21.5136 14.4021C21.251 14.4396 21.0141 14.5798 20.855 14.792L17.874 18.768C17.8311 18.8252 17.7763 18.8726 17.7135 18.9069C17.6507 18.9412 17.5812 18.9615 17.5098 18.9667C17.4384 18.9718 17.3668 18.9615 17.2997 18.9366C17.2326 18.9116 17.1717 18.8725 17.121 18.822L15.862 17.563C15.7691 17.4702 15.6588 17.3965 15.5374 17.3463C15.4161 17.2961 15.286 17.2703 15.1546 17.2703C15.0233 17.2703 14.8932 17.2963 14.7719 17.3466C14.6506 17.3969 14.5403 17.4706 14.4475 17.5635C14.3547 17.6564 14.281 17.7667 14.2308 17.8881C14.1806 18.0094 14.1548 18.1395 14.1548 18.2709C14.1548 18.4022 14.1808 18.5323 14.2311 18.6536C14.2814 18.7749 14.3551 18.8852 14.448 18.978Z"
        fill="#00A0DF"
  />
</svg>
