<svg class="icon"
     viewBox="0 0 360 264"
     fill="none"
     xmlns="http://www.w3.org/2000/svg"
>
    <g filter="url(#verify-email-filter0_d)">
        <path d="M115.438 127.495L170.593 56.6222L242.325 110.654L252.851 189.958L125.964 206.8L115.438 127.495Z" fill="white"/>
        <path d="M113.071 125.653C112.577 126.287 112.359 127.093 112.464 127.89L122.99 207.195C123.208 208.837 124.716 209.992 126.359 209.774L253.246 192.932C254.889 192.714 256.043 191.206 255.825 189.564L245.299 110.259C245.194 109.462 244.772 108.741 244.13 108.258L172.398 54.226C171.089 53.2402 169.231 53.4867 168.225 54.7798L113.071 125.653Z" stroke="white" stroke-width="6" stroke-linecap="round" stroke-linejoin="round"/>
    </g>
    <path d="M115.438 127.494L183.343 118.481L242.325 110.653L252.851 189.957L125.964 206.799L115.438 127.494Z" fill="#EBECF0"/>
    <path d="M115.438 127.496L242.325 110.654L176.883 61.3607C173.393 58.732 168.439 59.3895 165.756 62.8375L115.438 127.496Z" fill="#EBECF0"/>
    <path d="M242.325 110.653L185.197 166.657L252.851 189.958L242.325 110.653Z" fill="#FAFBFC"/>
    <path d="M115.438 127.495L185.197 166.657L125.964 206.799L115.438 127.495Z" fill="#FAFBFC"/>
    <path d="M125.964 206.799L252.851 189.958L199.479 152.656L189.482 162.456C186.943 164.945 183.066 165.46 179.965 163.719L167.758 156.866L125.964 206.799Z" fill="#F4F5F7"/>
    <mask id="verify-email-mask0"
          mask-type="alpha"
          maskUnits="userSpaceOnUse"
          x="108"
          y="58"
          width="141"
          height="116"
    >
        <path d="M108.465 74.9551L235.352 58.1136L242.325 110.653L189.482 162.456C186.943 164.945 183.066 165.46 179.965 163.719L115.438 127.494L108.465 74.9551Z" fill="#C4C4C4"/>
    </mask>
    <g mask="url(#verify-email-mask0)">
        <rect x="137.7"
              y="76"
              width="84"
              height="98"
              rx="7"
              fill="white"
              stroke="#19194B"
              stroke-width="8"
        />
        <path d="M164.344 128.613C164.03 128.13 163.538 127.793 162.978 127.675C162.418 127.557 161.834 127.669 161.354 127.985L160.994 128.223C160.886 128.295 160.76 128.336 160.63 128.342C160.501 128.347 160.372 128.317 160.258 128.255C160.143 128.193 160.048 128.1 159.981 127.988C159.915 127.875 159.88 127.746 159.88 127.615V127.182C159.88 126.603 159.652 126.048 159.247 125.639C158.842 125.23 158.292 125 157.719 125C157.146 125 156.597 125.23 156.192 125.639C155.787 126.048 155.559 126.603 155.559 127.182V127.563C155.559 127.695 155.524 127.824 155.457 127.937C155.39 128.05 155.293 128.143 155.178 128.205C155.063 128.267 154.934 128.296 154.803 128.29C154.673 128.283 154.547 128.241 154.438 128.168L154.124 127.956C153.648 127.642 153.068 127.531 152.511 127.647C151.953 127.763 151.464 128.096 151.148 128.574C150.833 129.052 150.717 129.636 150.825 130.2C150.934 130.764 151.258 131.262 151.728 131.586L152.903 132.375C153.001 132.442 153.082 132.532 153.138 132.638C153.193 132.744 153.223 132.863 153.223 132.983C153.222 133.101 153.193 133.218 153.137 133.322C153.081 133.427 153.001 133.516 152.903 133.582L151.728 134.361C151.482 134.514 151.269 134.716 151.101 134.953C150.934 135.191 150.815 135.46 150.752 135.745C150.689 136.029 150.684 136.324 150.735 136.611C150.787 136.898 150.896 137.171 151.054 137.415C151.212 137.659 151.417 137.869 151.657 138.031C151.897 138.194 152.167 138.306 152.451 138.361C152.734 138.417 153.026 138.414 153.308 138.354C153.591 138.293 153.859 138.176 154.096 138.009L154.453 137.774C154.561 137.701 154.687 137.66 154.817 137.654C154.947 137.649 155.076 137.679 155.19 137.742C155.304 137.804 155.399 137.897 155.466 138.01C155.532 138.122 155.567 138.251 155.568 138.382V138.818C155.568 139.397 155.795 139.952 156.2 140.361C156.605 140.77 157.155 141 157.728 141C158.301 141 158.85 140.77 159.256 140.361C159.661 139.952 159.888 139.397 159.888 138.818V138.437C159.889 138.306 159.924 138.177 159.992 138.064C160.059 137.951 160.155 137.859 160.27 137.797C160.385 137.736 160.515 137.706 160.645 137.713C160.775 137.72 160.901 137.762 161.009 137.835L161.323 138.044C161.8 138.358 162.379 138.469 162.937 138.353C163.494 138.237 163.983 137.904 164.299 137.426C164.614 136.948 164.73 136.364 164.622 135.8C164.513 135.236 164.189 134.738 163.719 134.414L162.55 133.625C162.45 133.56 162.368 133.47 162.311 133.364C162.254 133.258 162.225 133.139 162.225 133.019C162.225 132.898 162.254 132.78 162.311 132.674C162.368 132.568 162.45 132.478 162.55 132.412L163.728 131.633C163.965 131.475 164.169 131.273 164.328 131.036C164.487 130.799 164.599 130.532 164.656 130.252C164.713 129.972 164.715 129.682 164.662 129.401C164.608 129.12 164.5 128.852 164.344 128.613Z" fill="#00A0DF"/>
        <path d="M186.344 128.613C186.03 128.13 185.538 127.793 184.978 127.675C184.418 127.557 183.834 127.669 183.354 127.985L182.994 128.223C182.886 128.295 182.76 128.336 182.63 128.342C182.501 128.347 182.372 128.317 182.258 128.255C182.143 128.193 182.048 128.1 181.981 127.988C181.915 127.875 181.88 127.746 181.88 127.615V127.182C181.88 126.603 181.652 126.048 181.247 125.639C180.842 125.23 180.292 125 179.719 125C179.146 125 178.597 125.23 178.192 125.639C177.787 126.048 177.559 126.603 177.559 127.182V127.563C177.559 127.695 177.524 127.824 177.457 127.937C177.39 128.05 177.293 128.143 177.178 128.205C177.063 128.267 176.934 128.296 176.803 128.29C176.673 128.283 176.547 128.241 176.438 128.168L176.124 127.956C175.648 127.642 175.068 127.531 174.511 127.647C173.953 127.763 173.464 128.096 173.148 128.574C172.833 129.052 172.717 129.636 172.825 130.2C172.934 130.764 173.258 131.262 173.728 131.586L174.903 132.375C175.001 132.442 175.082 132.532 175.138 132.638C175.193 132.744 175.223 132.863 175.223 132.983C175.222 133.101 175.193 133.218 175.137 133.322C175.081 133.427 175.001 133.516 174.903 133.582L173.728 134.361C173.482 134.514 173.269 134.716 173.101 134.953C172.934 135.191 172.815 135.46 172.752 135.745C172.689 136.029 172.684 136.324 172.735 136.611C172.787 136.898 172.896 137.171 173.054 137.415C173.212 137.659 173.417 137.869 173.657 138.031C173.897 138.194 174.167 138.306 174.451 138.361C174.734 138.417 175.026 138.414 175.308 138.354C175.591 138.293 175.859 138.176 176.096 138.009L176.453 137.774C176.561 137.701 176.687 137.66 176.817 137.654C176.947 137.649 177.076 137.679 177.19 137.742C177.304 137.804 177.399 137.897 177.466 138.01C177.532 138.122 177.567 138.251 177.568 138.382V138.818C177.568 139.397 177.795 139.952 178.2 140.361C178.605 140.77 179.155 141 179.728 141C180.301 141 180.85 140.77 181.256 140.361C181.661 139.952 181.888 139.397 181.888 138.818V138.437C181.889 138.306 181.924 138.177 181.992 138.064C182.059 137.951 182.155 137.859 182.27 137.797C182.385 137.736 182.515 137.706 182.645 137.713C182.775 137.72 182.901 137.762 183.009 137.835L183.323 138.044C183.8 138.358 184.379 138.469 184.937 138.353C185.494 138.237 185.983 137.904 186.299 137.426C186.614 136.948 186.73 136.364 186.622 135.8C186.513 135.236 186.189 134.738 185.719 134.414L184.55 133.625C184.45 133.56 184.368 133.47 184.311 133.364C184.254 133.258 184.225 133.139 184.225 133.019C184.225 132.898 184.254 132.78 184.311 132.674C184.368 132.568 184.45 132.478 184.55 132.412L185.728 131.633C185.965 131.475 186.169 131.273 186.328 131.036C186.487 130.799 186.599 130.532 186.656 130.252C186.713 129.972 186.715 129.682 186.662 129.401C186.608 129.12 186.5 128.852 186.344 128.613Z" fill="#00A0DF"/>
        <path d="M208.344 128.613C208.03 128.13 207.538 127.793 206.978 127.675C206.418 127.557 205.834 127.669 205.354 127.985L204.994 128.223C204.886 128.295 204.76 128.336 204.63 128.342C204.501 128.347 204.372 128.317 204.258 128.255C204.143 128.193 204.048 128.1 203.981 127.988C203.915 127.875 203.88 127.746 203.88 127.615V127.182C203.88 126.603 203.652 126.048 203.247 125.639C202.842 125.23 202.292 125 201.719 125C201.146 125 200.597 125.23 200.192 125.639C199.787 126.048 199.559 126.603 199.559 127.182V127.563C199.559 127.695 199.524 127.824 199.457 127.937C199.39 128.05 199.293 128.143 199.178 128.205C199.063 128.267 198.934 128.296 198.803 128.29C198.673 128.283 198.547 128.241 198.438 128.168L198.124 127.956C197.648 127.642 197.068 127.531 196.511 127.647C195.953 127.763 195.464 128.096 195.148 128.574C194.833 129.052 194.717 129.636 194.825 130.2C194.934 130.764 195.258 131.262 195.728 131.586L196.903 132.375C197.001 132.442 197.082 132.532 197.138 132.638C197.193 132.744 197.223 132.863 197.223 132.983C197.222 133.101 197.193 133.218 197.137 133.322C197.081 133.427 197.001 133.516 196.903 133.582L195.728 134.361C195.482 134.514 195.269 134.716 195.101 134.953C194.934 135.191 194.815 135.46 194.752 135.745C194.689 136.029 194.684 136.324 194.735 136.611C194.787 136.898 194.896 137.171 195.054 137.415C195.212 137.659 195.417 137.869 195.657 138.031C195.897 138.194 196.167 138.306 196.451 138.361C196.734 138.417 197.026 138.414 197.308 138.354C197.591 138.293 197.859 138.176 198.096 138.009L198.453 137.774C198.561 137.701 198.687 137.66 198.817 137.654C198.947 137.649 199.076 137.679 199.19 137.742C199.304 137.804 199.399 137.897 199.466 138.01C199.532 138.122 199.567 138.251 199.568 138.382V138.818C199.568 139.397 199.795 139.952 200.2 140.361C200.605 140.77 201.155 141 201.728 141C202.301 141 202.85 140.77 203.256 140.361C203.661 139.952 203.888 139.397 203.888 138.818V138.437C203.889 138.306 203.924 138.177 203.992 138.064C204.059 137.951 204.155 137.859 204.27 137.797C204.385 137.736 204.515 137.706 204.645 137.713C204.775 137.72 204.901 137.762 205.009 137.835L205.323 138.044C205.8 138.358 206.379 138.469 206.937 138.353C207.494 138.237 207.983 137.904 208.299 137.426C208.614 136.948 208.73 136.364 208.622 135.8C208.513 135.236 208.189 134.738 207.719 134.414L206.55 133.625C206.45 133.56 206.368 133.47 206.311 133.364C206.254 133.258 206.225 133.139 206.225 133.019C206.225 132.898 206.254 132.78 206.311 132.674C206.368 132.568 206.45 132.478 206.55 132.412L207.728 131.633C207.965 131.475 208.169 131.273 208.328 131.036C208.487 130.799 208.599 130.532 208.656 130.252C208.713 129.972 208.715 129.682 208.662 129.401C208.608 129.12 208.5 128.852 208.344 128.613Z" fill="#00A0DF"/>
        <rect x="149.7"
              y="90"
              width="28"
              height="5"
              rx="2.5"
              fill="#EBECF0"
        />
        <rect x="149.7"
              y="99"
              width="60"
              height="5"
              rx="2.5"
              fill="#EBECF0"
        />
        <rect x="149.7"
              y="107"
              width="39"
              height="5"
              rx="2.5"
              fill="#EBECF0"
        />
    </g>
    <defs>
        <filter id="verify-email-filter0_d"
                x="92.4117"
                y="37.4648"
                width="175.177"
                height="188.073"
                filterUnits="userSpaceOnUse"
                color-interpolation-filters="sRGB"
        >
            <feFlood flood-opacity="0" result="BackgroundImageFix"/>
            <feColorMatrix in="SourceAlpha" type="matrix" values="0 0 0 0 0 0 0 0 0 0 0 0 0 0 0 0 0 0 127 0"/>
            <feOffset dy="4"/>
            <feGaussianBlur stdDeviation="4"/>
            <feColorMatrix type="matrix" values="0 0 0 0 0 0 0 0 0 0 0 0 0 0 0 0 0 0 0.24 0"/>
            <feBlend mode="normal" in2="BackgroundImageFix" result="effect1_dropShadow"/>
            <feBlend mode="normal" in="SourceGraphic" in2="effect1_dropShadow" result="shape"/>
        </filter>
    </defs>
</svg>
