<svg class="icon"
     viewBox="0 0 24 24"
     fill="none"
     xmlns="http://www.w3.org/2000/svg"
>
  <path fill-rule="evenodd"
        clip-rule="evenodd"
        d="M18.6531 6.71429C20.2413 7.7162 21.6876 8.92704 22.9531 10.3143C23.311 10.7117 23.5097 11.2272 23.511 11.7619C23.5123 12.2967 23.3161 12.8132 22.9601 13.2123C20.3981 16.0283 16.1651 19.0123 11.9091 19.0123H11.6091C10.1246 18.9865 8.65985 18.6674 7.29914 18.0733L3.15314 22.2193C2.98957 22.3823 2.77462 22.4837 2.5448 22.5062C2.31497 22.5287 2.08444 22.471 1.89233 22.3428C1.70022 22.2147 1.55839 22.024 1.49091 21.8032C1.42343 21.5823 1.43447 21.3449 1.52214 21.1313C1.52645 21.127 1.53133 21.1244 1.53617 21.1219C1.54033 21.1197 1.54445 21.1175 1.54814 21.1143L21.0481 1.61429C21.1276 1.53203 21.1868 1.4324 21.2211 1.32329L21.2391 1.30529C21.3314 1.20978 21.4417 1.1336 21.5637 1.08119C21.6857 1.02878 21.817 1.00119 21.9497 1.00004C22.0825 0.998884 22.2142 1.02419 22.3371 1.07447C22.46 1.12475 22.5716 1.199 22.6655 1.29289C22.7594 1.38679 22.8337 1.49844 22.884 1.62133C22.9342 1.74423 22.9595 1.87591 22.9584 2.00869C22.9572 2.14147 22.9297 2.27269 22.8772 2.39469C22.8248 2.5167 22.7487 2.62704 22.6531 2.71929L18.6531 6.71429ZM14.9398 14.9195C15.4624 14.392 15.8489 13.7454 16.0661 13.0353C16.3777 12.0249 16.3062 10.9352 15.8651 9.97429C15.8476 9.93784 15.8215 9.90616 15.7891 9.88192C15.7567 9.85768 15.719 9.84159 15.6791 9.83502C15.6391 9.82845 15.5982 9.83158 15.5598 9.84416C15.5213 9.85674 15.4865 9.87839 15.4581 9.90729L9.89814 15.4663C9.8695 15.4948 9.84809 15.5297 9.83572 15.5682C9.82335 15.6066 9.82037 15.6475 9.82703 15.6874C9.83368 15.7272 9.84979 15.7649 9.87399 15.7972C9.89819 15.8296 9.92979 15.8557 9.96614 15.8733C10.9397 16.3206 12.0452 16.3884 13.0661 16.0633C13.7742 15.8395 14.4172 15.447 14.9398 14.9195ZM7.43127 13.0536C7.42054 13.0958 7.39872 13.1344 7.36806 13.1653L4.32306 16.2153C4.28065 16.2574 4.22484 16.2834 4.1653 16.2887C4.10575 16.294 4.04623 16.2783 3.99706 16.2443C2.74499 15.3614 1.59226 14.3455 0.559058 13.2143C0.19812 12.8172 -0.00128897 12.2995 6.2704e-06 11.7629C0.00130151 11.2263 0.203208 10.7096 0.566058 10.3143C3.15306 7.46529 7.45306 4.45729 11.7531 4.51529C12.8529 4.50908 13.9468 4.67717 14.9941 5.01329C15.0353 5.02687 15.0723 5.05077 15.1017 5.08273C15.131 5.11468 15.1517 5.15363 15.1617 5.19584C15.1717 5.23806 15.1708 5.28214 15.1589 5.32388C15.1471 5.36562 15.1248 5.40363 15.0941 5.43429L13.1531 7.37629C13.1222 7.40712 13.0837 7.42913 13.0415 7.44004C12.9993 7.45094 12.955 7.45034 12.9131 7.43829C12.5362 7.32762 12.1458 7.2694 11.7531 7.26529C10.5596 7.26529 9.41499 7.7394 8.57108 8.58331C7.72716 9.42723 7.25306 10.5718 7.25306 11.7653C7.25864 12.1582 7.31785 12.5484 7.42906 12.9253C7.44123 12.9671 7.44199 13.0114 7.43127 13.0536Z"
        fill="#00A0DF"
  />
</svg>
