<svg class="icon"
     viewBox="0 0 40 40"
     fill="none"
     xmlns="http://www.w3.org/2000/svg"
>
<path d="M0 10C0 7.79086 1.79086 6 4 6L36 6C38.2091 6 40 7.79086 40 10V30C40 32.2091 38.2091 34 36 34H4C1.79086 34 0 32.2091 0 30L0 10Z" fill="url(#virtual_card_paint0_linear_31130_1834)"/>
<path d="M17 13C17 12.4477 17.4477 12 18 12L33 12C33.5523 12 34 12.4477 34 13C34 13.5523 33.5523 14 33 14L18 14C17.4477 14 17 13.5523 17 13Z" fill="#19194B"/>
<path d="M17 17C17 16.4477 17.4477 16 18 16H23C23.5523 16 24 16.4477 24 17C24 17.5523 23.5523 18 23 18H18C17.4477 18 17 17.5523 17 17Z" fill="#19194B"/>
<path d="M17 21C17 20.4477 17.3198 20 17.7143 20H21.2857C21.6802 20 22 20.4477 22 21C22 21.5523 21.6802 22 21.2857 22H17.7143C17.3198 22 17 21.5523 17 21Z" fill="#19194B"/>
<path d="M25 17C25 16.4477 25.4477 16 26 16H31C31.5523 16 32 16.4477 32 17C32 17.5523 31.5523 18 31 18H26C25.4477 18 25 17.5523 25 17Z" fill="#19194B"/>
<path d="M0.535052 8.00012C0.194759 8.58844 0 9.27147 0 9.99999L0 30C0 30.7285 0.194754 31.4115 0.535039 31.9998C1.38119 31.9926 2.21053 31.7223 2.96132 31.2L2.96964 31.1942L2.97771 31.188C3.53548 30.7624 3.96552 30.1674 4.24698 29.5475C4.72243 29.7331 5.22173 29.8034 5.73044 29.8034C5.92965 29.8034 6.12877 29.793 6.32775 29.7723L6.34854 29.7701L6.36905 29.766C7.20637 29.5975 7.97489 29.2429 8.66634 28.5214C9.26264 27.8991 9.68632 27.0046 9.85805 26.1297L9.85906 26.1242C9.99787 25.3728 9.90654 24.6404 9.64602 23.9261C10.2883 23.6246 10.8136 23.1593 11.2199 22.5882L11.2219 22.5854C11.7343 21.8542 12 20.9667 12 20C12 19.1044 11.7408 18.2259 11.2333 17.4317L11.2278 17.423L11.2219 17.4146C10.8133 16.8317 10.2421 16.3825 9.64704 16.0888C9.89323 15.3976 9.92852 14.6713 9.86561 13.9246C9.77948 12.9022 9.32888 12.1699 8.66634 11.4786C8.07003 10.8564 7.21273 10.4142 6.37429 10.2351L6.36805 10.2338C6.16125 10.1927 5.9274 10.1582 5.69367 10.1582C5.20705 10.1582 4.73012 10.2646 4.26147 10.4539C3.97249 9.78472 3.52702 9.23748 2.98037 8.81399L2.97771 8.81195C2.28584 8.28395 1.44785 8.00703 0.535052 8.00012Z" fill="#19194B"/>
<path d="M0.0127237 9.67865C0.00429496 9.78467 0 9.89185 0 10L0 30C0 30.1123 0.00462633 30.2235 0.0136988 30.3335C0.16244 30.3563 0.317117 30.3681 0.477126 30.3681C1.03089 30.3681 1.59373 30.188 2.12027 29.8279C2.5197 29.5057 2.86467 28.9939 3.03716 28.4537C3.13701 28.1789 3.34581 27.9514 3.60908 27.8377C3.71801 27.7998 3.84511 27.7713 3.96312 27.7713C4.13561 27.7713 4.28994 27.8092 4.43519 27.8945C4.77108 28.103 5.17051 28.1883 5.66981 28.1883C5.7969 28.1883 5.93307 28.1883 6.07832 28.1789C6.70472 28.0462 7.1677 27.7903 7.56714 27.3733C7.94842 26.9847 8.23892 26.3782 8.35693 25.7717C8.45679 25.2409 8.36601 24.6818 8.06643 24.0658C7.93026 23.7815 7.93026 23.4782 8.0392 23.2034C8.14814 22.9285 8.36601 22.72 8.64743 22.6347C9.16489 22.4641 9.60064 22.1419 9.95468 21.6586C10.2633 21.2132 10.4358 20.6445 10.4358 19.9906C10.4358 19.403 10.2633 18.8249 9.93653 18.3037C9.61879 17.8867 9.13765 17.5265 8.6202 17.3465C8.35693 17.2422 8.13906 17.0243 8.03012 16.7494C7.93934 16.4651 7.94842 16.1524 8.09367 15.887C8.33878 15.4416 8.4114 14.8824 8.34786 14.1242C8.30247 13.584 8.08459 13.1671 7.57622 12.6363C7.20401 12.2383 6.62301 11.935 6.04201 11.8118C5.91492 11.7834 5.78783 11.7739 5.65166 11.7739C5.2613 11.7739 4.86186 11.8876 4.41703 12.1151C4.28086 12.1814 4.12653 12.2193 3.98128 12.2193C3.84511 12.2193 3.70894 12.1814 3.59092 12.134C3.32766 12.0203 3.12794 11.7929 3.04623 11.4991C2.88283 10.9589 2.57417 10.504 2.11119 10.1344C1.68452 9.81215 1.13983 9.63208 0.51344 9.63208C0.344642 9.63208 0.177425 9.64777 0.0127237 9.67865Z" fill="white"/>
<path d="M36.5036 28.2306C36.5026 27.8066 36.4165 27.387 36.2505 26.9968C36.0845 26.6066 35.842 26.2536 35.5372 25.9588C35.0294 25.4666 34.369 25.162 33.6649 25.0952C33.6434 25.0931 33.6226 25.086 33.6042 25.0744C33.5859 25.0628 33.5705 25.0471 33.5594 25.0285C33.1282 24.3116 32.4921 23.7403 31.7331 23.3884C30.9742 23.0365 30.1272 22.92 29.3014 23.0541C28.4756 23.1882 27.709 23.5667 27.1004 24.1407C26.4918 24.7147 26.0691 25.4579 25.887 26.2745C25.881 26.3041 25.8655 26.3311 25.8429 26.3511C25.8202 26.3712 25.7916 26.3833 25.7614 26.3856C25.1318 26.4328 24.5433 26.716 24.1136 27.1786C23.6839 27.6411 23.4448 28.2489 23.444 28.8803C23.4307 29.203 23.4837 29.5251 23.5997 29.8265C23.7158 30.128 23.8924 30.4025 24.1187 30.633C24.6519 31.1126 25.3427 31.3798 26.0598 31.3838H33.6099C33.6339 31.3838 33.6579 31.3821 33.6816 31.3788C34.4571 31.2937 35.1739 30.9253 35.6947 30.3444C36.2154 29.7635 36.5035 29.0108 36.5036 28.2306ZM33.5688 30.2723H26.0693C25.6407 30.2696 25.2266 30.1168 24.8989 29.8406C24.7788 29.7126 24.6864 29.5614 24.6273 29.3961C24.5682 29.2309 24.5437 29.0553 24.5555 28.8803C24.5556 28.511 24.7023 28.157 24.9633 27.8959C25.2244 27.6347 25.5784 27.4879 25.9476 27.4876C26.0441 27.4877 26.1404 27.4977 26.2349 27.5176C26.3129 27.5337 26.3936 27.5328 26.4712 27.515C26.5489 27.4972 26.6219 27.4628 26.6851 27.4143C26.7484 27.3659 26.8005 27.3043 26.8378 27.2339C26.8752 27.1635 26.897 27.0859 26.9018 27.0063C26.942 26.3243 27.2082 25.6751 27.6584 25.1612C28.1086 24.6473 28.7172 24.2979 29.388 24.1683C30.0588 24.0387 30.7537 24.1362 31.3629 24.4455C31.9722 24.7547 32.4611 25.258 32.7524 25.876C32.7966 25.976 32.8705 26.0601 32.964 26.1167C33.0576 26.1734 33.1663 26.1999 33.2754 26.1928C33.5494 26.1824 33.8227 26.2274 34.0789 26.3251C34.3351 26.4229 34.5689 26.5714 34.7664 26.7617C34.9638 26.9519 35.1208 27.1801 35.228 27.4325C35.3351 27.685 35.3902 27.9564 35.3899 28.2306C35.389 28.7349 35.203 29.2212 34.8674 29.5976C34.5317 29.9739 34.0697 30.214 33.5688 30.2723Z" fill="#19194B"/>
<path d="M26.0693 30.2724H33.5688C34.0697 30.214 34.5317 29.9739 34.8674 29.5976C35.203 29.2213 35.3889 28.7349 35.3899 28.2307C35.3902 27.9564 35.3351 27.685 35.2279 27.4326C35.1208 27.1802 34.9638 26.952 34.7664 26.7617C34.5689 26.5714 34.3351 26.4229 34.0789 26.3252C33.8227 26.2274 33.5494 26.1824 33.2754 26.1928C33.1662 26.2 33.0576 26.1734 32.964 26.1168C32.8705 26.0601 32.7966 25.9761 32.7524 25.876C32.4611 25.2581 31.9722 24.7547 31.3629 24.4455C30.7537 24.1363 30.0588 24.0388 29.388 24.1684C28.7172 24.298 28.1086 24.6473 27.6584 25.1612C27.2082 25.6751 26.942 26.3244 26.9017 27.0064C26.897 27.086 26.8752 27.1636 26.8378 27.234C26.8005 27.3044 26.7484 27.3659 26.6851 27.4144C26.6219 27.4629 26.5489 27.4972 26.4712 27.515C26.3936 27.5328 26.3129 27.5337 26.2349 27.5177C26.1404 27.4978 26.0441 27.4877 25.9476 27.4877C25.5784 27.4879 25.2244 27.6348 24.9633 27.8959C24.7023 28.157 24.5556 28.5111 24.5555 28.8803C24.5437 29.0554 24.5682 29.231 24.6273 29.3962C24.6864 29.5614 24.7788 29.7127 24.8989 29.8406C25.2266 30.1169 25.6407 30.2696 26.0693 30.2724Z" fill="white"/>
<defs>
<linearGradient id="virtual_card_paint0_linear_31130_1834" x1="0" y1="6" x2="43.7231" y2="25.7632" gradientUnits="userSpaceOnUse">
<stop offset="0.186627" stop-color="#33B3E5"/>
<stop offset="1" stop-color="#66DE7D"/>
</linearGradient>
</defs>
</svg>
