<svg class="icon"
     viewBox="0 0 40 40"
     fill="none"
     xmlns="http://www.w3.org/2000/svg"
>
    <path fill-rule="evenodd" clip-rule="evenodd" d="M38.9872 18.968C39.0758 19.5131 38.7058 20.0268 38.1607 20.1155L35.4951 20.5489C34.9499 20.6376 34.4362 20.2675 34.3475 19.7224C34.2589 19.1772 34.629 18.6635 35.1741 18.5748L37.8397 18.1414C38.3848 18.0528 38.8986 18.4228 38.9872 18.968Z" fill="#00A0DF"/>
    <path fill-rule="evenodd" clip-rule="evenodd" d="M34.0667 24.0719C34.233 23.5452 34.7948 23.2531 35.3214 23.4194L38.2037 24.3296C38.7304 24.4959 39.0225 25.0577 38.8562 25.5843C38.6899 26.111 38.1281 26.4031 37.6015 26.2368L34.7192 25.3266C34.1925 25.1603 33.9004 24.5985 34.0667 24.0719Z" fill="#00A0DF"/>
    <path fill-rule="evenodd" clip-rule="evenodd" d="M36.8173 12.6814C37.1404 13.1294 37.0391 13.7544 36.5912 14.0775L34.1423 15.8437C33.6944 16.1668 33.0694 16.0655 32.7463 15.6176C32.4232 15.1697 32.5245 14.5447 32.9724 14.2216L35.4213 12.4554C35.8692 12.1323 36.4942 12.2335 36.8173 12.6814Z" fill="#00A0DF"/>
    <path d="M24.895 28.0571C27.3981 27.3527 28.4274 26.7676 28.9909 25.7924L29.0234 25.7816C29.161 25.4707 29.2347 25.1354 29.2401 24.7955C29.2743 24.2316 29.2562 23.6657 29.1859 23.1051C29.0502 21.9677 28.8329 20.8415 28.5358 19.7352C28.495 19.5844 28.4846 19.4269 28.5051 19.272C28.5255 19.1171 28.5766 18.9678 28.6552 18.8327C28.7338 18.6977 28.8384 18.5796 28.963 18.4852C29.0876 18.3909 29.2297 18.3223 29.381 18.2832L29.7061 18.1966L30.7896 17.8932C30.8808 17.8651 30.9648 17.8176 31.0359 17.754C31.1069 17.6904 31.1634 17.6122 31.2014 17.5247C31.2398 17.4012 31.1856 16.9006 31.1472 16.7771C30.9463 16.0404 30.5751 15.3611 30.0636 14.7941C29.408 14.002 28.7099 13.246 27.9723 12.5295C27.2909 11.9338 26.6768 11.2652 26.1411 10.5357C26.0617 10.4203 26.003 10.292 25.9677 10.1564C24.1473 3.38411 16.714 0.794375 10.2776 2.51726C8.5301 2.96999 6.88913 3.76319 5.44877 4.85137C4.00842 5.93955 2.797 7.30131 1.88397 8.8586C0.970945 10.4159 0.374257 12.1381 0.128117 13.9264C-0.118023 15.7147 -0.00877321 17.5341 0.449602 19.2801C0.525452 19.3668 0.525452 19.4535 0.525452 19.5619C1.83657 24.4379 4.57801 27.4394 8.67392 28.6639C8.86693 28.7222 9.04141 28.8298 9.18012 28.9761C9.31884 29.1224 9.41701 29.3024 9.46493 29.4982L11.1042 35.602C11.3389 36.4758 12.131 37.0832 13.0358 37.0832H22.3791C23.5316 37.0832 24.4456 36.1117 24.3754 34.9614L24.0281 29.2707C24.0131 28.9999 24.0907 28.7322 24.2483 28.5115C24.4059 28.2909 24.634 28.1306 24.895 28.0571Z" fill="url(#voiceupdated-paint0_linear)"/>
    <defs>
        <linearGradient id="voiceupdated-paint0_linear" x1="15.6073" y1="2" x2="15.6073" y2="123" gradientUnits="userSpaceOnUse">
            <stop stop-color="#FAF0E1"/>
            <stop offset="1" stop-color="#D7C0A4"/>
        </linearGradient>
    </defs>
</svg>
