<svg class="icon"
     viewBox="0 0 360 264"
     fill="none"
     xmlns="http://www.w3.org/2000/svg"
>
    <path fill-rule="evenodd" clip-rule="evenodd" d="M151.379 213.051C151.379 214.678 152.71 215.999 154.35 215.999H157.153C158.793 215.999 160.123 214.678 160.123 213.051V186.5H151.379V213.051Z" fill="#19194B"/>
    <path fill-rule="evenodd" clip-rule="evenodd" d="M199.96 186.5V213.051C199.96 214.678 201.289 215.999 202.929 215.999H205.734C207.374 215.999 208.703 214.678 208.703 213.051V186.5H199.96Z" fill="#19194B"/>
    <path fill-rule="evenodd" clip-rule="evenodd" d="M240.111 150.745C238.756 151.092 237.644 152.049 237.109 153.331L236.042 155.883C235.508 157.165 235.613 158.622 236.322 159.818C240.923 167.557 239.74 177.682 233.213 184.157C226.178 191.138 214.87 191.958 206.904 186.067L204.291 185.206H155.707L153.094 186.067C145.134 191.96 133.822 191.138 126.789 184.157C120.26 177.68 119.077 167.557 123.678 159.818C124.391 158.624 124.496 157.165 123.958 155.883L122.893 153.331C122.36 152.049 121.246 151.092 119.89 150.745C111.123 148.503 104.744 140.512 104.744 131.354C104.744 122.197 111.123 114.207 119.89 111.964C121.246 111.617 122.36 110.66 122.893 109.378L123.958 106.826C124.496 105.542 124.391 104.085 123.678 102.89C119.077 95.154 120.262 85.0289 126.789 78.5519C130.677 74.692 135.873 72.714 141.09 72.714C144.607 72.714 148.131 73.6138 151.27 75.4408C152.491 76.1524 153.971 76.2818 155.281 75.7427L157.851 74.6861C159.145 74.1568 160.109 73.0531 160.459 71.7083C162.719 63.0084 170.771 56.6804 179.999 56.6804C189.229 56.6804 197.281 63.0084 199.543 71.7083C199.893 73.0531 200.857 74.1549 202.149 74.6861L204.719 75.7427C206.011 76.274 207.479 76.1701 208.686 75.4663C216.482 70.9007 226.686 72.0749 233.213 78.5519C239.74 85.0269 240.923 95.1521 236.322 102.891C235.613 104.087 235.508 105.544 236.042 106.826L237.109 109.378C237.644 110.66 238.756 111.617 240.111 111.964C248.877 114.207 255.256 122.197 255.256 131.354C255.256 140.512 248.877 148.503 240.111 150.745ZM245.307 104.513C250.116 93.8641 247.982 80.9357 239.398 72.4141C230.811 63.8944 217.782 61.7773 207.05 66.5527C202.864 55.6473 192.143 48 179.999 48C167.859 48 157.136 55.6473 152.95 66.5527C142.218 61.7773 129.191 63.8944 120.604 72.4141C112.018 80.9357 109.886 93.8661 114.695 104.513C103.705 108.667 96 119.305 96 131.354C96 143.404 103.705 154.043 114.695 158.197C109.882 168.843 112.016 181.774 120.604 190.293C126.179 195.825 133.627 198.658 141.102 198.658C146.669 198.656 152.258 197.084 157.094 193.885H202.906C214.236 201.381 229.667 199.948 239.398 190.293C247.982 181.776 250.116 168.845 245.307 158.197C256.295 154.043 264 143.404 264 131.354C264 119.305 256.295 108.667 245.307 104.513Z" fill="#19194B"/>
    <path fill-rule="evenodd" clip-rule="evenodd" d="M240.111 111.963C238.756 111.616 237.644 110.66 237.109 109.378L236.042 106.825C235.508 105.543 235.613 104.087 236.322 102.891C240.923 95.1514 239.74 85.0262 233.213 78.5512C226.685 72.0742 216.482 70.9 208.686 75.4656C207.479 76.1713 206.011 76.2733 204.719 75.742L202.147 74.6854C200.857 74.1542 199.893 73.0524 199.543 71.7077C197.281 63.0077 189.229 56.6797 179.999 56.6797C170.771 56.6797 162.719 63.0077 160.459 71.7077C160.109 73.0524 159.145 74.1561 157.851 74.6854L155.281 75.742C153.971 76.2811 152.491 76.1517 151.27 75.4421C148.131 73.6131 144.607 72.7153 141.09 72.7153C135.873 72.7153 130.677 74.6913 126.789 78.5512C120.262 85.0282 119.076 95.1533 123.678 102.891C124.391 104.085 124.495 105.543 123.958 106.825L122.893 109.378C122.36 110.66 121.246 111.616 119.89 111.963C111.123 114.206 104.744 122.196 104.744 131.355C104.744 140.512 111.123 148.502 119.89 150.745C121.246 151.092 122.358 152.048 122.893 153.33L123.958 155.883C124.495 157.167 124.391 158.623 123.678 159.819C119.076 167.557 120.26 177.68 126.789 184.157C133.822 191.139 145.134 191.961 153.094 186.066L155.707 185.205H204.29L206.904 186.066C214.87 191.959 226.178 191.139 233.213 184.157C239.74 177.682 240.923 167.557 236.322 159.817C235.613 158.621 235.508 157.165 236.042 155.883L237.109 153.33C237.644 152.048 238.756 151.092 240.111 150.745C248.877 148.502 255.256 140.512 255.256 131.355C255.256 122.196 248.877 114.206 240.111 111.963Z" fill="white"/>
    <path fill-rule="evenodd" clip-rule="evenodd" d="M215.94 138.998C214.116 135.795 211.852 132.813 209.158 130.139L208.166 129.155C207.008 128.004 205.126 128.004 203.966 129.155L201.984 131.123C200.825 132.274 200.825 134.14 201.984 135.291L202.976 136.275C209.112 142.366 212.492 150.462 212.492 159.074C212.492 176.679 198.197 191.033 180.516 191.309C162.574 191.59 147.508 176.879 147.508 159.074C147.508 150.462 150.888 142.366 157.026 136.275L158.018 135.291C159.178 134.14 159.178 132.274 158.018 131.123L156.033 129.155C154.873 128.004 152.992 128.004 151.833 129.155L150.841 130.139C148.148 132.813 145.884 135.795 144.061 138.998C139.904 136.151 136.882 131.807 135.756 126.83H144.576C146.216 126.83 147.546 125.513 147.546 123.884V122.492C147.546 118.161 151.084 114.65 155.45 114.65C159.073 114.65 162.121 117.073 163.052 120.375C163.408 121.633 164.581 122.49 165.897 122.49H169.552C170.867 122.49 172.041 121.633 172.396 120.375C173.329 117.073 176.375 114.65 180 114.65C183.625 114.65 186.674 117.073 187.602 120.375C187.958 121.633 189.133 122.49 190.449 122.49H194.102C195.418 122.49 196.593 121.633 196.949 120.375C197.877 117.073 200.926 114.65 204.551 114.65C208.915 114.65 212.453 118.161 212.453 122.492V123.884C212.453 125.513 213.782 126.83 215.424 126.83H224.245C223.117 131.807 220.096 136.151 215.94 138.998Z" fill="white"/>
    <path fill-rule="evenodd" clip-rule="evenodd" d="M167.766 138.807C165.306 138.807 163.311 140.785 163.311 143.227C163.311 145.668 165.306 147.646 167.766 147.646C170.226 147.646 172.221 145.668 172.221 143.227C172.221 140.785 170.226 138.807 167.766 138.807Z" fill="#19194B"/>
    <path fill-rule="evenodd" clip-rule="evenodd" d="M187.423 182.91C187.423 186.98 184.098 190.277 179.999 190.277C175.9 190.277 172.575 186.98 172.575 182.91H187.423Z" fill="#19194B"/>
    <path fill-rule="evenodd" clip-rule="evenodd" d="M215.94 137.706C214.116 134.502 211.852 131.521 209.158 128.847L208.166 127.863C207.008 126.712 205.126 126.712 203.966 127.863L201.984 129.831C200.825 130.982 200.825 132.848 201.984 133.999L202.976 134.983C209.112 141.073 212.492 149.17 212.492 157.781C212.492 175.387 198.197 189.741 180.516 190.017C162.574 190.298 147.508 175.587 147.508 157.781C147.508 149.17 150.888 141.073 157.027 134.983L158.018 133.999C159.178 132.848 159.178 130.982 158.018 129.831L156.033 127.863C154.873 126.712 152.992 126.712 151.833 127.863L150.841 128.847C148.148 131.521 145.884 134.502 144.061 137.706C139.904 134.859 136.882 130.515 135.756 125.538H144.576C146.216 125.538 147.546 124.22 147.546 122.591V121.199C147.546 116.869 151.084 113.358 155.45 113.358C159.073 113.358 162.121 115.781 163.052 119.082C163.408 120.341 164.581 121.198 165.897 121.198H169.552C170.867 121.198 172.041 120.341 172.396 119.082C173.329 115.781 176.375 113.358 180 113.358C183.626 113.358 186.674 115.781 187.602 119.082C187.958 120.341 189.133 121.198 190.449 121.198H194.102C195.418 121.198 196.593 120.341 196.949 119.082C197.877 115.781 200.926 113.358 204.551 113.358C208.915 113.358 212.453 116.869 212.453 121.199V122.591C212.453 124.22 213.782 125.538 215.424 125.538H224.245C223.117 130.515 220.096 134.859 215.94 137.706ZM230.506 116.859H220.616C218.692 109.849 212.218 104.68 204.551 104.68C199.697 104.68 195.319 106.752 192.275 110.051C189.23 106.752 184.854 104.68 180 104.68C175.146 104.68 170.771 106.752 167.724 110.051C164.68 106.752 160.302 104.68 155.448 104.68C147.781 104.68 141.309 109.849 139.383 116.859H129.495C127.855 116.859 126.526 118.181 126.526 119.808V121.199C126.526 131.46 132.128 140.677 140.574 145.759C139.314 149.848 138.687 154.155 138.77 158.566C139.187 180.835 157.805 198.833 180.255 198.7C202.875 198.562 221.238 180.261 221.238 157.781C221.238 153.639 220.618 149.593 219.431 145.745C219.431 145.747 219.433 145.751 219.435 145.753C227.874 140.672 233.475 131.458 233.475 121.199V119.808C233.475 118.181 232.145 116.859 230.506 116.859Z" fill="#19194B"/>
    <path fill-rule="evenodd" clip-rule="evenodd" d="M198.608 146.288H186.589C184.884 146.288 183.502 144.915 183.502 143.225C183.502 141.535 184.884 140.162 186.589 140.162H198.608C200.311 140.162 201.695 141.535 201.695 143.225C201.695 144.915 200.311 146.288 198.608 146.288Z" fill="#19194B"/>
    <g filter="url(#waiting-sheep-filter0_d)">
        <mask id="waiting-sheep-path-10-outside-1"
              maskUnits="userSpaceOnUse"
              x="207.08"
              y="21.1085"
              width="88.0751"
              height="88.0751"
              fill="black"
        >
            <rect fill="white" x="207.08" y="21.1085" width="88.0751" height="88.0751"/>
            <path fill-rule="evenodd" clip-rule="evenodd" d="M247.653 96.8253C265.19 98.7062 280.93 86.0151 282.811 68.4789C284.692 50.9428 272.001 35.2023 254.464 33.3214C236.929 31.4408 221.188 44.1318 219.307 61.668C217.426 79.2041 230.118 94.9447 247.653 96.8253Z"/>
        </mask>
        <path d="M248.506 88.8709C244.113 88.3998 240.17 91.5791 239.698 95.9722C239.227 100.365 242.407 104.309 246.8 104.78L248.506 88.8709ZM246.8 104.78C251.193 105.251 255.136 102.072 255.607 97.6784C256.078 93.2854 252.899 89.3421 248.506 88.8709L246.8 104.78ZM246.8 104.78C268.73 107.132 288.413 91.2613 290.765 69.3321L274.856 67.6258C273.447 80.7688 261.65 90.2807 248.506 88.8709L246.8 104.78ZM290.765 69.3321C293.117 47.4028 277.247 27.7191 255.317 25.3671L253.611 41.2758C266.755 42.6856 276.266 54.4828 274.856 67.6258L290.765 69.3321ZM255.317 25.3671C233.389 23.0153 213.705 38.8855 211.353 60.8148L227.261 62.5211C228.671 49.3781 240.469 39.8663 253.611 41.2758L255.317 25.3671ZM211.353 60.8148C209.001 82.7441 224.872 102.428 246.8 104.78L248.506 88.8709C235.364 87.4615 225.852 75.6641 227.261 62.5211L211.353 60.8148Z" fill="white" mask="url(#waiting-sheep-path-10-outside-1)"/>
    </g>
    <circle cx="251" cy="64.9996" r="32" transform="rotate(6.12174 251 64.9996)" fill="white"/>
    <path d="M254.412 33.1821C236.841 31.2975 221.067 44.0158 219.182 61.5871C217.298 79.1583 230.016 94.9325 247.587 96.8171C265.159 98.7017 280.933 85.9833 282.817 68.4121C284.683 50.8468 271.974 35.0843 254.412 33.1821ZM263.303 80.3216C262.19 81.2723 260.522 81.1659 259.539 80.0842L247.683 66.6204C247.185 66.0601 246.946 65.3184 247.023 64.573L248.587 49.99C248.744 48.5264 250.059 47.4659 251.523 47.6229C252.986 47.7799 254.047 49.0951 253.89 50.5587L252.451 63.9751L263.53 76.5563C264.508 77.659 264.408 79.3432 263.305 80.3219C263.305 80.3219 263.303 80.3243 263.303 80.3216Z" fill="url(#waiting-sheep-paint0_linear)"/>
    <defs>
        <filter id="waiting-sheep-filter0_d"
                x="199.094"
                y="17.1094"
                width="103.93"
                height="103.93"
                filterUnits="userSpaceOnUse"
                color-interpolation-filters="sRGB"
        >
            <feFlood flood-opacity="0" result="BackgroundImageFix"/>
            <feColorMatrix in="SourceAlpha" type="matrix" values="0 0 0 0 0 0 0 0 0 0 0 0 0 0 0 0 0 0 127 0"/>
            <feOffset dy="4"/>
            <feGaussianBlur stdDeviation="4"/>
            <feColorMatrix type="matrix" values="0 0 0 0 0 0 0 0 0 0 0 0 0 0 0 0 0 0 0.24 0"/>
            <feBlend mode="normal" in2="BackgroundImageFix" result="effect1_dropShadow"/>
            <feBlend mode="normal" in="SourceGraphic" in2="effect1_dropShadow" result="shape"/>
        </filter>
        <linearGradient id="waiting-sheep-paint0_linear"
                        x1="254.412"
                        y1="33.1821"
                        x2="232.412"
                        y2="162.073"
                        gradientUnits="userSpaceOnUse"
        >
            <stop stop-color="#FAC34B"/>
            <stop offset="1" stop-color="#D79F36"/>
        </linearGradient>
    </defs>
</svg>
