<svg class="icon" fill="none" viewBox="0 0 48 48" xmlns="http://www.w3.org/2000/svg">
    <mask id="l" x="6" y="4" width="37" height="17" mask-type="alpha" maskUnits="userSpaceOnUse">
        <rect x="6.0526" y="4" width="36.842" height="16.842" fill="#C4C4C4"/>
    </mask>
    <g mask="url(#l)">
        <rect transform="rotate(-24.487 5.2793 20.344)" x="5.2793" y="20.344" width="31.812" height="19.364" rx="2.2995" fill="url(#b)"/>
        <mask x="5" y="7" width="38" height="31" mask-type="alpha" maskUnits="userSpaceOnUse">
            <rect transform="rotate(-24.487 5.2793 20.344)" x="5.2793" y="20.344" width="31.812" height="19.364" rx="2.2995" fill="url(#b)"/>
        </mask>
        <mask id="j" x="5" y="7" width="38" height="31" mask-type="alpha" maskUnits="userSpaceOnUse">
            <rect transform="rotate(-24.487 5.2793 20.344)" x="5.2793" y="20.344" width="31.812" height="19.364" rx="2.2995" fill="url(#b)"/>
        </mask>
        <g mask="url(#j)">
            <path d="m42.256 24.78-8.0261-17.622-20.925 30.808 28.951-13.186z" fill="url(#c)"/>
        </g>
        <mask id="i" x="5" y="7" width="38" height="31" mask-type="alpha" maskUnits="userSpaceOnUse">
            <rect transform="rotate(-24.487 5.2793 20.344)" x="5.2793" y="20.344" width="31.812" height="19.364" rx="2.2995" fill="url(#b)"/>
        </mask>
        <g mask="url(#i)">
            <g filter="url(#n)">
                <rect transform="rotate(-24.487 5.2793 20.344)" x="5.2793" y="20.344" width="31.812" height="19.364" rx="2.2995" fill="url(#b)"/>
                <mask x="5" y="7" width="38" height="31" mask-type="alpha" maskUnits="userSpaceOnUse">
                    <rect transform="rotate(-24.487 5.2793 20.344)" x="5.2793" y="20.344" width="31.812" height="19.364" rx="2.2995" fill="url(#b)"/>
                </mask>
                <mask id="h" x="5" y="7" width="38" height="31" mask-type="alpha" maskUnits="userSpaceOnUse">
                    <rect transform="rotate(-24.487 5.2793 20.344)" x="5.2793" y="20.344" width="31.812" height="19.364" rx="2.2995" fill="url(#b)"/>
                </mask>
                <g mask="url(#h)">
                    <path d="m42.256 24.78-8.0261-17.622-20.925 30.808 28.951-13.186z" fill="url(#c)"/>
                </g>
            </g>
        </g>
        <path d="m22.807 18.343c0.8343-0.2458 1.6428-0.1846 2.2188 0.1972 0.1094 0.0844 0.1992 0.1777 0.26 0.3111 0.1518 0.3334 0.0382 0.7072-0.2556 0.8411-0.1372 0.0624-0.3148 0.036-0.5228-0.0572-0.4653-0.1906-1.0962-0.2254-1.6448 0.0244-0.8228 0.3748-0.9142 0.9532-0.7117 1.3978 0.6682 1.4671 3.9395-0.8548 5.2051 1.9238 0.5568 1.2226 0.2356 2.3352-1.0061 3.0886l0.2835 0.6224c0.1316 0.289 0.0274 0.6317-0.2272 0.7477-0.2547 0.116-0.562-0.0393-0.6936-0.3283l-0.2835-0.6224c-1.0207 0.3038-2.0284 0.0649-2.6449-0.4058-0.0797-0.0711-0.1695-0.1644-0.2201-0.2755-0.1519-0.3335-0.0383-0.7073 0.2556-0.8411 0.2155-0.0982 0.3938-0.0183 0.5423 0.0482 0.6241 0.2794 1.3251 0.4164 1.9912 0.113 0.9012-0.4104 1.1804-0.9402 0.8665-1.6293-0.7391-1.6227-3.9901 0.7437-5.2051-1.9238-0.4556-1.0003-0.2917-2.0948 0.8912-2.8215l-0.2936-0.6446c-0.1316-0.289-0.0275-0.6317 0.2076-0.7388 0.2547-0.116 0.5816 0.0304 0.7132 0.3194l0.2936 0.6446-0.0196 9e-3z" fill="#20804E"/>
        <rect transform="rotate(-24.487 7.6438 21.228)" x="7.6438" y="21.228" width="27.896" height="15.794" rx="1.1497" opacity=".5" stroke="#4ABE6B" stroke-width="1.1497"/>
        <rect transform="rotate(-33.417 1 24.52)" x="1" y="24.52" width="31.812" height="19.364" rx="2.2995" fill="url(#a)"/>
        <mask x="1" y="7" width="38" height="34" mask-type="alpha" maskUnits="userSpaceOnUse">
            <rect transform="rotate(-33.417 1 24.52)" x="1" y="24.52" width="31.812" height="19.364" rx="2.2995" fill="url(#a)"/>
        </mask>
        <mask id="g" x="1" y="7" width="38" height="34" mask-type="alpha" maskUnits="userSpaceOnUse">
            <rect transform="rotate(-33.417 1 24.52)" x="1" y="24.52" width="31.812" height="19.364" rx="2.2995" fill="url(#a)"/>
        </mask>
        <g mask="url(#g)">
            <path d="m38.217 23.163-10.664-16.163-15.889 33.683 26.553-17.52z" fill="url(#d)"/>
        </g>
        <mask id="f" x="1" y="7" width="38" height="34" mask-type="alpha" maskUnits="userSpaceOnUse">
            <rect transform="rotate(-33.417 1 24.52)" x="1" y="24.52" width="31.812" height="19.364" rx="2.2995" fill="url(#a)"/>
        </mask>
        <g mask="url(#f)">
            <g filter="url(#m)">
                <rect transform="rotate(-33.417 1 24.52)" x="1" y="24.52" width="31.812" height="19.364" rx="2.2995" fill="url(#a)"/>
                <mask x="1" y="7" width="38" height="34" mask-type="alpha" maskUnits="userSpaceOnUse">
                    <rect transform="rotate(-33.417 1 24.52)" x="1" y="24.52" width="31.812" height="19.364" rx="2.2995" fill="url(#a)"/>
                </mask>
                <mask id="k" x="1" y="7" width="38" height="34" mask-type="alpha" maskUnits="userSpaceOnUse">
                    <rect transform="rotate(-33.417 1 24.52)" x="1" y="24.52" width="31.812" height="19.364" rx="2.2995" fill="url(#a)"/>
                </mask>
                <g mask="url(#k)">
                    <path d="m38.217 23.163-10.664-16.163-15.889 33.683 26.553-17.52z" fill="url(#d)"/>
                </g>
            </g>
        </g>
        <path d="m18.004 19.822c0.786-0.3723 1.5942-0.4373 2.2226-0.1495 0.1211 0.0664 0.2243 0.1446 0.305 0.2669 0.2018 0.3058 0.1476 0.6928-0.1219 0.8706-0.1258 0.083-0.3054 0.0844-0.5253 0.0247-0.4893-0.1161-1.1179-0.0525-1.621 0.2794-0.7547 0.498-0.7552 1.0836-0.4861 1.4913 0.8878 1.3457 3.759-1.456 5.4406 1.0925 0.7398 1.1214 0.5952 2.2703-0.5145 3.2074l0.3767 0.5708c0.1748 0.2651 0.1252 0.6198-0.1084 0.7739s-0.5613 0.0484-0.7362-0.2166l-0.3766-0.5709c-0.9612 0.4586-1.9938 0.379-2.6759 0.0097-0.0897-0.0578-0.1929-0.1361-0.2602-0.238-0.2018-0.3058-0.1476-0.6928 0.1219-0.8706 0.1977-0.1304 0.3862-0.0792 0.5433-0.0366 0.6599 0.1792 1.3737 0.2057 1.9846-0.1974 0.8266-0.5454 1.0201-1.112 0.6031-1.744-0.982-1.4884-3.8263 1.3541-5.4406-1.0925-0.6054-0.9175-0.6134-2.0242 0.4424-2.9257l-0.3901-0.5913c-0.1749-0.265-0.1252-0.6197 0.0904-0.762 0.2336-0.1541 0.5792-0.0602 0.7541 0.2048l0.3901 0.5913-0.018 0.0118z" fill="#20804E"/>
        <rect transform="rotate(-33.417 3.4732 25.027)" x="3.4732" y="25.027" width="27.896" height="15.794" rx="1.1497" opacity=".5" stroke="#4ABE6B" stroke-width="1.1497"/>
    </g>
    <rect x="5" y="18" width="37" height="26" rx="6" fill="url(#e)"/>
    <rect x="6.5" y="19.5" width="34" height="23" rx="5" opacity=".2" stroke="#6F3507" stroke-dasharray="1 1" stroke-linecap="round" stroke-width=".7"/>
    <path d="m41.333 38c0.7073 0 1.3856-0.2739 1.8857-0.7615 0.5-0.4876 0.781-1.1489 0.781-1.8385v-7.8c0-0.6896-0.281-1.3509-0.781-1.8385-0.5001-0.4876-1.1784-0.7615-1.8857-0.7615h-6.6666c-1.7681 0-3.4638 0.6848-4.7141 1.9038-1.2502 1.219-1.9526 2.8723-1.9526 4.5962s0.7024 3.3772 1.9526 4.5962c1.2503 1.219 2.946 1.9038 4.7141 1.9038h6.6666z" fill="#A76013"/>
    <path d="m40.667 37c0.6188 0 1.2123-0.2318 1.6499-0.6444 0.4376-0.4125 0.6834-0.9721 0.6834-1.5556v-6.6c0-0.5835-0.2458-1.1431-0.6834-1.5556-0.4376-0.4126-1.0311-0.6444-1.6499-0.6444h-5.8334c-1.5471 0-3.0308 0.5795-4.1248 1.6109-1.0939 1.0315-1.7085 2.4304-1.7085 3.8891s0.6146 2.8576 1.7085 3.8891c1.094 1.0314 2.5777 1.6109 4.1248 1.6109h5.8334z" opacity=".2" stroke="#6F3507" stroke-dasharray="1 1" stroke-linecap="round" stroke-width=".7"/>
    <path d="m34.603 29.511c-0.5128 0-1.0045 0.2037-1.3671 0.5662-0.3626 0.3626-0.5663 0.8544-0.5663 1.3672 0 0.3823 0.1134 0.7562 0.3258 1.0741 0.2125 0.318 0.5144 0.5658 0.8677 0.7121s0.742 0.1846 1.1171 0.11c0.375-0.0746 0.7195-0.2587 0.9899-0.5291s0.4545-0.6149 0.5291-0.9899c0.0746-0.3751 0.0364-0.7638-0.11-1.1171-0.1463-0.3533-0.3941-0.6553-0.7121-0.8677-0.3179-0.2124-0.6917-0.3258-1.0741-0.3258z" clip-rule="evenodd" fill="#6F3507" fill-rule="evenodd"/>
    <defs>
        <filter id="n" x="2.9798" y=".25951" width="46.175" height="40.006" color-interpolation-filters="sRGB" filterUnits="userSpaceOnUse">
            <feFlood flood-opacity="0" result="BackgroundImageFix"/>
            <feColorMatrix in="SourceAlpha" values="0 0 0 0 0 0 0 0 0 0 0 0 0 0 0 0 0 0 127 0"/>
            <feOffset dx="2.29946" dy="-2.29946"/>
            <feGaussianBlur stdDeviation="2.29946"/>
            <feColorMatrix values="0 0 0 0 0 0 0 0 0 0 0 0 0 0 0 0 0 0 0.12 0"/>
            <feBlend in2="BackgroundImageFix" result="effect1_dropShadow"/>
            <feBlend in="SourceGraphic" in2="effect1_dropShadow" result="shape"/>
        </filter>
        <filter id="m" x="-1.2995" y=".10161" width="46.415" height="42.88" color-interpolation-filters="sRGB" filterUnits="userSpaceOnUse">
            <feFlood flood-opacity="0" result="BackgroundImageFix"/>
            <feColorMatrix in="SourceAlpha" values="0 0 0 0 0 0 0 0 0 0 0 0 0 0 0 0 0 0 127 0"/>
            <feOffset dx="2.29946" dy="-2.29946"/>
            <feGaussianBlur stdDeviation="2.29946"/>
            <feColorMatrix values="0 0 0 0 0 0 0 0 0 0 0 0 0 0 0 0 0 0 0.12 0"/>
            <feBlend in2="BackgroundImageFix" result="effect1_dropShadow"/>
            <feBlend in="SourceGraphic" in2="effect1_dropShadow" result="shape"/>
        </filter>
        <linearGradient id="b" x1="21.185" x2="21.185" y1="20.344" y2="54.23" gradientUnits="userSpaceOnUse">
            <stop stop-color="#66DE7D" offset="0"/>
            <stop stop-color="#4ABE6B" offset="1"/>
        </linearGradient>
        <linearGradient id="c" x1="29.698" x2="14.198" y1="13.655" y2="38.616" gradientUnits="userSpaceOnUse">
            <stop stop-color="#66DE7D" offset="0"/>
            <stop stop-color="#4ABE6B" offset="1"/>
        </linearGradient>
        <linearGradient id="a" x1="16.906" x2="16.906" y1="24.52" y2="58.407" gradientUnits="userSpaceOnUse">
            <stop stop-color="#66DE7D" offset="0"/>
            <stop stop-color="#4ABE6B" offset="1"/>
        </linearGradient>
        <linearGradient id="d" x1="24.085" x2="12.647" y1="14.122" y2="41.186" gradientUnits="userSpaceOnUse">
            <stop stop-color="#66DE7D" offset="0"/>
            <stop stop-color="#4ABE6B" offset="1"/>
        </linearGradient>
        <linearGradient id="e" x1="5" x2="30.488" y1="58.326" y2="-2.5926" gradientUnits="userSpaceOnUse">
            <stop stop-color="#A76013" offset="0"/>
            <stop stop-color="#E99B26" offset="1"/>
        </linearGradient>
    </defs>
</svg>
