<svg class="icon" viewBox="0 0 72 72" fill="none" xmlns="http://www.w3.org/2000/svg">
<ellipse cx="34.0837" cy="68.1744" rx="23.7138" ry="3.82481" fill="#EBECF0"/>
<rect x="3.56851" y="27.6592" width="47.4277" height="42.8379" rx="9.17955" transform="rotate(-15 3.56851 27.6592)" fill="#A76013"/>
<path d="M36.1146 5.49684L7.80342 25.7328L8.59536 28.6884L44.0624 19.185L40.8495 7.19422C40.2966 5.13061 37.8527 4.25452 36.1146 5.49684Z" fill="#6F3507"/>
<path d="M29.289 35.9162C28.1348 34.6819 28.1998 32.7456 29.4341 31.5914L54.3386 8.30468C55.5729 7.1505 57.5092 7.2155 58.6634 8.44986L71.2024 21.8599C72.3566 23.0943 72.2916 25.0306 71.0572 26.1848L46.1528 49.4715C44.9184 50.6257 42.9821 50.5607 41.828 49.3263L29.289 35.9162Z" fill="url(#wallet-money-paint0_linear_39154_284158)"/>
<path d="M46.1532 49.4714L71.0576 26.1847C72.292 25.0305 72.357 23.0942 71.2028 21.8598L58.6638 8.44975C58.0099 7.75045 57.105 7.42646 56.219 7.48684L44.2732 50.2891C44.9512 50.2429 45.6181 49.9717 46.1532 49.4714Z" fill="url(#wallet-money-paint1_linear_39154_284158)"/>
<path opacity="0.5" fill-rule="evenodd" clip-rule="evenodd" d="M55.5504 11.3605L32.0827 33.3037C31.7742 33.5923 31.7579 34.0764 32.0465 34.3849L43.5405 46.6775C43.8291 46.9861 44.3131 47.0024 44.6217 46.7138L68.0894 24.7706C68.398 24.482 68.4142 23.998 68.1257 23.6894L56.6316 11.3968C56.3431 11.0882 55.859 11.072 55.5504 11.3605ZM31.0378 32.1862C30.1121 33.0519 30.0633 34.5041 30.9289 35.4299L42.423 47.7224C43.2887 48.6482 44.7409 48.697 45.6667 47.8313L69.1343 25.8881C70.0601 25.0224 70.1088 23.5702 69.2432 22.6444L57.7491 10.3519C56.8835 9.4261 55.4312 9.37735 54.5055 10.243L31.0378 32.1862Z" fill="#4ABE6B"/>
<path d="M20.9195 5.38966C15.4551 8.54453 13.5749 15.5615 16.7298 21.026C19.8847 26.4904 26.9017 28.3707 32.3661 25.2158C37.8305 22.0609 39.7107 15.0439 36.5558 9.57948C33.4359 4.0948 26.4189 2.21457 20.9195 5.38966Z" fill="url(#wallet-money-paint2_linear_39154_284158)"/>
<path d="M20.2835 4.28803C14.8191 7.4429 12.939 14.4599 16.0939 19.9244C19.2488 25.3888 26.2658 27.2691 31.7301 24.1142C37.1945 20.9593 39.0747 13.9423 35.9198 8.47785C32.7999 2.99318 25.7829 1.11294 20.2835 4.28803Z" fill="url(#wallet-money-paint3_linear_39154_284158)"/>
<path fill-rule="evenodd" clip-rule="evenodd" d="M28.9743 3.12966L23.0469 25.2511C25.8785 26.0099 28.9989 25.6912 31.7311 24.1138C37.1955 20.9589 39.0756 13.9419 35.9207 8.47747C34.357 5.72849 31.8143 3.88499 28.9743 3.12966Z" fill="url(#wallet-money-paint4_linear_39154_284158)"/>
<path opacity="0.5" fill-rule="evenodd" clip-rule="evenodd" d="M17.397 19.1714C14.6428 14.401 16.2839 8.27638 21.0542 5.5222C25.8519 2.75226 31.9781 4.3903 34.704 9.18059C37.4574 13.9509 35.8162 20.0748 31.0462 22.8288C26.2758 25.583 20.1512 23.9418 17.397 19.1714ZM21.5073 6.30698C17.1704 8.81092 15.6778 14.3813 18.1818 18.7183C20.6858 23.0553 26.2561 24.5479 30.5931 22.044C34.93 19.5401 36.4226 13.9697 33.9186 9.63266L33.9172 9.63013C31.4429 5.28045 25.8749 3.78539 21.5073 6.30698Z" fill="#E99B26"/>
<path d="M23.6501 9.16696C24.7855 8.69568 25.9118 8.63512 26.7435 9.0395C26.9025 9.132 27.035 9.23973 27.1308 9.40558C27.3702 9.82021 27.245 10.3348 26.8491 10.5633C26.6644 10.67 26.4158 10.6661 26.1193 10.5792C25.4577 10.4084 24.58 10.4729 23.841 10.8995C22.7326 11.5395 22.6559 12.3209 22.9751 12.8737C24.0284 14.6981 28.3633 11.0528 30.3582 14.508C31.2359 16.0283 30.8868 17.5567 29.2302 18.7711L29.6771 19.5451C29.8846 19.9044 29.7698 20.3761 29.4267 20.5742C29.0836 20.7723 28.6442 20.6206 28.4367 20.2612L27.9898 19.4872C26.6009 20.068 25.1831 19.9283 24.2876 19.4134C24.1709 19.3333 24.0384 19.2256 23.9586 19.0874C23.7192 18.6727 23.8444 18.1582 24.2402 17.9296C24.5306 17.762 24.7847 17.8364 24.9964 17.8985C25.8858 18.159 26.8697 18.2175 27.767 17.6994C28.981 16.9985 29.3222 16.2487 28.8275 15.3918C27.6625 13.3739 23.3595 17.0745 21.4444 13.7575C20.7262 12.5136 20.8587 11.0365 22.4361 9.86787L21.9733 9.06625C21.7658 8.70691 21.8806 8.23524 22.1973 8.05239C22.5403 7.85431 23.0062 7.99076 23.2137 8.35011L23.6765 9.15172L23.6501 9.16696Z" fill="#A76013"/>
<path d="M53.5641 12.1299C48.126 11.7348 43.3772 15.8404 42.9821 21.2785C42.587 26.7167 46.6925 31.4655 52.1306 31.8606C57.5687 32.2557 62.3175 28.1502 62.7126 22.712C63.1426 17.2764 59.0371 12.5275 53.5641 12.1299Z" fill="url(#wallet-money-paint5_linear_39154_284158)"/>
<path d="M53.6437 11.0343C48.2056 10.6392 43.4568 14.7447 43.0617 20.1829C42.6666 25.621 46.7721 30.3699 52.2102 30.765C57.6483 31.1601 62.3971 27.0545 62.7922 21.6164C63.2222 16.1807 59.1167 11.4319 53.6437 11.0343Z" fill="url(#wallet-money-paint6_linear_39154_284158)"/>
<path fill-rule="evenodd" clip-rule="evenodd" d="M60.4195 14.4223L45.4485 27.3652C47.1052 29.2816 49.4911 30.5676 52.2102 30.7651C57.6483 31.1602 62.3971 27.0547 62.7922 21.6165C63.0077 18.8921 62.0838 16.3402 60.4195 14.4223Z" fill="url(#wallet-money-paint7_linear_39154_284158)"/>
<path opacity="0.5" fill-rule="evenodd" clip-rule="evenodd" d="M44.3589 20.2773C44.7038 15.5298 48.8487 11.9464 53.5961 12.2913C58.3707 12.6382 61.9567 16.7817 61.5819 21.5296C61.2365 26.2766 57.0918 29.8595 52.3447 29.5146C47.5973 29.1697 44.0139 25.0247 44.3589 20.2773ZM53.5393 13.0723C49.2233 12.7587 45.4535 16.0179 45.1399 20.334C44.8263 24.6502 48.0854 28.42 52.4015 28.7336C56.7176 29.0472 60.4874 25.788 60.801 21.4719L60.8012 21.4694C61.1421 17.1586 57.8859 13.3881 53.5393 13.0723Z" fill="#E99B26"/>
<path d="M53.6838 16.1563C54.7244 16.3701 55.5592 16.8732 55.9577 17.5659C56.0265 17.7092 56.069 17.8505 56.0571 18.0156C56.0271 18.4282 55.6879 18.7354 55.2939 18.7068C55.1101 18.6934 54.9342 18.57 54.7644 18.3641C54.3741 17.921 53.7152 17.5412 52.9798 17.4878C51.8767 17.4077 51.4428 17.9292 51.4028 18.4794C51.2709 20.295 56.1393 19.7914 55.8894 23.23C55.7795 24.743 54.7883 25.6665 53.0146 25.7312L52.9586 26.5015C52.9326 26.8591 52.6217 27.1407 52.2803 27.1159C51.9389 27.0911 51.6982 26.7694 51.7242 26.4118L51.7801 25.6416C50.5052 25.383 49.5591 24.5953 49.1686 23.7926C49.124 23.6787 49.0815 23.5374 49.0915 23.3998C49.1215 22.9872 49.4606 22.68 49.8546 22.7086C50.1435 22.7296 50.2891 22.9061 50.4104 23.0532C50.92 23.6709 51.5952 24.1901 52.4882 24.255C53.6963 24.3428 54.3041 23.9721 54.3661 23.1193C54.512 21.1112 49.6396 21.6698 49.8795 18.3687C49.9694 17.1308 50.7807 16.1389 52.4757 16.0685L52.5336 15.2707C52.5596 14.9131 52.8705 14.6315 53.1857 14.6544C53.5271 14.6792 53.794 15.0028 53.7681 15.3604L53.7101 16.1582L53.6838 16.1563Z" fill="#A76013"/>
<path d="M25.5447 43.7273C23.8666 43.5277 22.6681 42.0054 22.8678 40.3274L26.8964 6.47074C27.0961 4.79267 28.6183 3.59419 30.2964 3.79386L48.5269 5.96313C50.205 6.1628 51.4034 7.68502 51.2038 9.36309L47.1751 43.2197C46.9754 44.8978 45.4532 46.0963 43.7752 45.8966L25.5447 43.7273Z" fill="url(#wallet-money-paint8_linear_39154_284158)"/>
<path d="M47.1754 43.2193L51.204 9.36272C51.4037 7.68465 50.2052 6.16244 48.5271 5.96277L30.2966 3.7935C29.346 3.68038 28.4453 4.01601 27.8068 4.63335L46.2652 45.0564C46.7538 44.584 47.0888 43.9467 47.1754 43.2193Z" fill="url(#wallet-money-paint9_linear_39154_284158)"/>
<path opacity="0.5" fill-rule="evenodd" clip-rule="evenodd" d="M29.7927 8.02649L25.9965 39.9299C25.9466 40.3494 26.2462 40.7299 26.6657 40.7798L43.377 42.7683C43.7965 42.8183 44.1771 42.5186 44.227 42.0991L48.0232 10.1958C48.0731 9.77624 47.7735 9.39569 47.354 9.34577L30.6427 7.35728C30.2232 7.30736 29.8426 7.60698 29.7927 8.02649ZM24.4773 39.7491C24.3275 41.0076 25.2264 42.1493 26.485 42.2991L43.1962 44.2875C44.4548 44.4373 45.5965 43.5384 45.7462 42.2799L49.5424 10.3765C49.6922 9.11798 48.7933 7.97631 47.5348 7.82656L30.8235 5.83806C29.5649 5.68831 28.4233 6.58717 28.2735 7.84572L24.4773 39.7491Z" fill="#4ABE6B"/>
<rect x="2.974" y="25.4425" width="47.4277" height="42.8379" rx="9.17955" transform="rotate(-15 2.974 25.4425)" fill="url(#wallet-money-paint10_linear_39154_284158)"/>
<path d="M54.8364 45.6007C55.8815 45.3206 56.7754 44.6472 57.3214 43.7286C57.8673 42.8101 58.0207 41.7215 57.7476 40.7025L54.659 29.1757C54.386 28.1567 53.7089 27.2906 52.7768 26.7681C51.8447 26.2455 50.7339 26.1093 49.6887 26.3894L39.8367 29.0292C37.2238 29.7293 34.9891 31.4128 33.6242 33.7093C32.2593 36.0057 31.876 38.7271 32.5586 41.2747C33.2412 43.8222 34.9339 45.9874 37.2641 47.2937C39.5944 48.6001 42.3715 48.9406 44.9844 48.2405L54.8364 45.6007Z" fill="#8E5004"/>
<path d="M9.64382 42.2462C4.24169 43.6937 1.02223 49.2701 2.46974 54.6722C3.91725 60.0744 9.49356 63.2939 14.8957 61.8464C20.2978 60.3989 23.5173 54.8226 22.0698 49.4204C20.6569 44.009 15.0806 40.7895 9.64382 42.2462Z" fill="url(#wallet-money-paint11_linear_39154_284158)"/>
<path d="M9.35192 41.1569C3.94979 42.6044 0.730332 48.1807 2.17784 53.5829C3.62535 58.9851 9.20165 62.2046 14.6038 60.7571C20.0059 59.3096 23.2254 53.7333 21.7779 48.3311C20.365 42.9196 14.7887 39.7001 9.35192 41.1569Z" fill="url(#wallet-money-paint12_linear_39154_284158)"/>
<path fill-rule="evenodd" clip-rule="evenodd" d="M17.0577 42.1591L6.90804 59.7387C9.15832 61.0379 11.9029 61.4809 14.604 60.7572C20.0061 59.3097 23.2256 53.7334 21.778 48.3312C21.0699 45.6189 19.3158 43.4573 17.0577 42.1591Z" fill="url(#wallet-money-paint13_linear_39154_284158)"/>
<path opacity="0.5" fill-rule="evenodd" clip-rule="evenodd" d="M3.46596 53.2378C2.20229 48.5218 5.01231 43.6546 9.72833 42.391C14.4713 41.1201 19.3405 43.9279 20.5754 48.6545C21.8384 53.3702 19.0284 58.2368 14.3128 59.5003C9.59675 60.764 4.72962 57.9539 3.46596 53.2378ZM9.93621 43.1668C5.64869 44.3157 3.09294 48.7424 4.2418 53.03C5.39065 57.3175 9.81736 59.8733 14.1049 58.7245C18.3924 57.5756 20.9481 53.1489 19.7993 48.8613L19.7986 48.8588C18.6781 44.5672 14.254 42.0099 9.93621 43.1668Z" fill="#E99B26"/>
<path d="M11.1152 46.1066C12.1954 45.9636 13.1736 46.1702 13.7928 46.7072C13.9077 46.8228 13.9965 46.9455 14.0404 47.1094C14.1503 47.5193 13.9251 47.9311 13.5337 48.036C13.3511 48.0849 13.1391 48.0246 12.9052 47.8822C12.378 47.5842 11.6117 47.438 10.8812 47.6338C9.78538 47.9274 9.54046 48.5788 9.6869 49.1253C10.1702 50.9289 14.7178 48.8024 15.6331 52.2183C16.0358 53.7213 15.3862 54.9497 13.6894 55.6094L13.8944 56.3746C13.9896 56.7298 13.7831 57.1073 13.444 57.1982C13.1048 57.2891 12.7633 57.0584 12.6681 56.7031L12.4631 55.938C11.1407 56.1166 9.95891 55.6717 9.31035 55.0254C9.22888 54.9301 9.14008 54.8075 9.10347 54.6708C8.99364 54.2609 9.21886 53.8491 9.61022 53.7442C9.89722 53.6673 10.0977 53.7894 10.2648 53.891C10.9664 54.3181 11.7954 54.5939 12.6825 54.3562C13.8826 54.0346 14.3468 53.4709 14.1198 52.6238C13.5853 50.6289 9.0523 52.81 8.17364 49.5308C7.84414 48.3011 8.29643 47.0669 9.91499 46.4282L9.70265 45.6357C9.60746 45.2805 9.81391 44.903 10.127 44.8191C10.4662 44.7282 10.8337 44.9519 10.9289 45.3072L11.1413 46.0996L11.1152 46.1066Z" fill="#A76013"/>
<path d="M54.2419 43.3825C55.287 43.1024 56.1809 42.429 56.7269 41.5104C57.2728 40.5919 57.4262 39.5033 57.1531 38.4843L54.0645 26.9575C53.7915 25.9385 53.1144 25.0724 52.1823 24.5499C51.2502 24.0273 50.1394 23.8911 49.0942 24.1712L39.2422 26.811C36.6293 27.5111 34.3946 29.1946 33.0297 31.4911C31.6648 33.7875 31.2815 36.5089 31.9641 39.0565C32.6467 41.604 34.3394 43.7692 36.6697 45.0755C39 46.3819 41.777 46.7224 44.3899 46.0223L54.2419 43.3825Z" fill="#A76013"/>
<path fill-rule="evenodd" clip-rule="evenodd" d="M39.1026 33.1845C38.1228 33.447 37.2873 34.0881 36.7801 34.9666C36.2729 35.8451 36.1355 36.8891 36.398 37.8689C36.5938 38.5996 37.0019 39.2558 37.5707 39.7546C38.1394 40.2534 38.8433 40.5723 39.5933 40.6711C40.3433 40.7698 41.1057 40.6439 41.7842 40.3094C42.4626 39.9748 43.0267 39.4465 43.4049 38.7914C43.7832 38.1363 43.9586 37.3837 43.9092 36.6288C43.8597 35.874 43.5875 35.1507 43.127 34.5506C42.6665 33.9505 42.0383 33.5003 41.322 33.2572C40.6056 33.014 39.8333 32.9887 39.1026 33.1845Z" fill="#6F3507"/>
<defs>
<linearGradient id="wallet-money-paint0_linear_39154_284158" x1="41.8864" y1="19.948" x2="71.144" y2="51.2382" gradientUnits="userSpaceOnUse">
<stop stop-color="#66DE7D"/>
<stop offset="1" stop-color="#4ABE6B"/>
</linearGradient>
<linearGradient id="wallet-money-paint1_linear_39154_284158" x1="53.7625" y1="15.8254" x2="45.2492" y2="51.9802" gradientUnits="userSpaceOnUse">
<stop stop-color="#66DE7D"/>
<stop offset="1" stop-color="#4ABE6B"/>
</linearGradient>
<linearGradient id="wallet-money-paint2_linear_39154_284158" x1="35.2279" y1="30.1723" x2="26.007" y2="14.2012" gradientUnits="userSpaceOnUse">
<stop stop-color="#A76013"/>
<stop offset="0.551319" stop-color="#E99B26"/>
</linearGradient>
<linearGradient id="wallet-money-paint3_linear_39154_284158" x1="43.9358" y1="45.1543" x2="20.3271" y2="4.26287" gradientUnits="userSpaceOnUse">
<stop stop-color="#E99B26"/>
<stop offset="1" stop-color="#FAC34B"/>
</linearGradient>
<linearGradient id="wallet-money-paint4_linear_39154_284158" x1="31.979" y1="23.9707" x2="29.3316" y2="3.35994" gradientUnits="userSpaceOnUse">
<stop stop-color="#E99B26" stop-opacity="0.26"/>
<stop offset="1" stop-color="#FAC34B"/>
</linearGradient>
<linearGradient id="wallet-money-paint5_linear_39154_284158" x1="51.7724" y1="36.7933" x2="52.9271" y2="20.8991" gradientUnits="userSpaceOnUse">
<stop stop-color="#A76013"/>
<stop offset="0.551319" stop-color="#E99B26"/>
</linearGradient>
<linearGradient id="wallet-money-paint6_linear_39154_284158" x1="50.7305" y1="51.732" x2="53.6871" y2="11.0374" gradientUnits="userSpaceOnUse">
<stop stop-color="#E99B26"/>
<stop offset="1" stop-color="#FAC34B"/>
</linearGradient>
<linearGradient id="wallet-money-paint7_linear_39154_284158" x1="52.4569" y1="30.7831" x2="60.5632" y2="14.7603" gradientUnits="userSpaceOnUse">
<stop stop-color="#E99B26" stop-opacity="0.26"/>
<stop offset="1" stop-color="#FAC34B"/>
</linearGradient>
<linearGradient id="wallet-money-paint8_linear_39154_284158" x1="24.8821" y1="23.3991" x2="67.4199" y2="28.4607" gradientUnits="userSpaceOnUse">
<stop stop-color="#66DE7D"/>
<stop offset="1" stop-color="#4ABE6B"/>
</linearGradient>
<linearGradient id="wallet-money-paint9_linear_39154_284158" x1="31.304" y1="12.5917" x2="48.1015" y2="45.7201" gradientUnits="userSpaceOnUse">
<stop stop-color="#66DE7D"/>
<stop offset="1" stop-color="#4ABE6B"/>
</linearGradient>
<linearGradient id="wallet-money-paint10_linear_39154_284158" x1="2.974" y1="91.8841" x2="52.1721" y2="0.401681" gradientUnits="userSpaceOnUse">
<stop stop-color="#A76013"/>
<stop offset="1" stop-color="#E99B26"/>
</linearGradient>
<linearGradient id="wallet-money-paint11_linear_39154_284158" x1="16.2087" y1="66.7465" x2="11.9781" y2="50.9574" gradientUnits="userSpaceOnUse">
<stop stop-color="#A76013"/>
<stop offset="0.551319" stop-color="#E99B26"/>
</linearGradient>
<linearGradient id="wallet-money-paint12_linear_39154_284158" x1="20.227" y1="81.5708" x2="9.39501" y2="41.1453" gradientUnits="userSpaceOnUse">
<stop stop-color="#E99B26"/>
<stop offset="1" stop-color="#FAC34B"/>
</linearGradient>
<linearGradient id="wallet-money-paint13_linear_39154_284158" x1="14.8491" y1="60.6915" x2="17.3107" y2="42.4382" gradientUnits="userSpaceOnUse">
<stop stop-color="#E99B26" stop-opacity="0.26"/>
<stop offset="1" stop-color="#FAC34B"/>
</linearGradient>
</defs>
</svg>
