<svg class="icon" viewBox="0 0 80 80" fill="none" xmlns="http://www.w3.org/2000/svg">
<g clip-path="url(#wallet-money-tilted-clip0_38410_284480)">
<rect x="4.74414" y="32.3975" width="52.6974" height="47.5977" rx="10.1995" transform="rotate(-15 4.74414 32.3975)" fill="#A76013"/>
<path d="M40.9068 7.773L9.44997 30.2574L10.3299 33.5414L49.7378 22.9821L46.1678 9.65899C45.5535 7.36609 42.838 6.39265 40.9068 7.773Z" fill="#6F3507"/>
<path d="M33.324 41.5732C32.0416 40.2017 32.1138 38.0502 33.4853 36.7678L61.1569 10.8937C62.5284 9.61127 64.6799 9.68349 65.9623 11.055L79.8945 25.9551C81.1769 27.3266 81.1047 29.4781 79.7332 30.7605L52.0616 56.6346C50.6901 57.917 48.5386 57.8448 47.2562 56.4733L33.324 41.5732Z" fill="url(#wallet-money-tilted-paint0_linear_38410_284480)"/>
<path d="M52.0624 56.6336L79.734 30.7595C81.1055 29.4771 81.1777 27.3256 79.8953 25.9541L65.9631 11.054C65.2365 10.277 64.2311 9.91702 63.2465 9.98411L49.9735 57.5422C50.7268 57.4908 51.4679 57.1895 52.0624 56.6336Z" fill="url(#wallet-money-tilted-paint1_linear_38410_284480)"/>
<path opacity="0.5" fill-rule="evenodd" clip-rule="evenodd" d="M62.503 14.2887L36.4278 38.6701C36.0849 38.9907 36.0669 39.5285 36.3875 39.8714L49.1587 53.5298C49.4793 53.8727 50.0172 53.8908 50.36 53.5702L76.4352 29.1888C76.7781 28.8682 76.7961 28.3303 76.4755 27.9874L63.7043 14.329C63.3837 13.9861 62.8459 13.9681 62.503 14.2887ZM35.2668 37.4284C34.2382 38.3902 34.184 40.0038 35.1458 41.0324L47.917 54.6908C48.8788 55.7195 50.4924 55.7737 51.5211 54.8118L77.5962 30.4305C78.6249 29.4686 78.679 27.8551 77.7172 26.8264L64.946 13.168C63.9842 12.1394 62.3706 12.0852 61.342 13.047L35.2668 37.4284Z" fill="#4ABE6B"/>
<path d="M24.0242 7.65352C17.9526 11.1589 15.8636 18.9556 19.369 25.0272C22.8745 31.0988 30.6711 33.188 36.7427 29.6826C42.8142 26.1772 44.9033 18.3805 41.3978 12.3089C37.9313 6.21479 30.1346 4.12564 24.0242 7.65352V7.65352Z" fill="url(#wallet-money-tilted-paint2_linear_38410_284480)"/>
<path d="M23.3171 6.42989C17.2456 9.9353 15.1565 17.732 18.662 23.8036C22.1674 29.8752 29.9641 31.9644 36.0356 28.4589C42.1072 24.9535 44.1962 17.1569 40.6908 11.0852C37.2243 4.99116 29.4276 2.90201 23.3171 6.42989V6.42989Z" fill="url(#wallet-money-tilted-paint3_linear_38410_284480)"/>
<path fill-rule="evenodd" clip-rule="evenodd" d="M32.9753 5.14295L26.3893 29.7224C29.5356 30.5654 33.0026 30.2114 36.0384 28.4587C42.1099 24.9533 44.199 17.1566 40.6935 11.085C38.9561 8.03055 36.1308 5.98221 32.9753 5.14295Z" fill="url(#wallet-money-tilted-paint4_linear_38410_284480)"/>
<path opacity="0.5" fill-rule="evenodd" clip-rule="evenodd" d="M20.1116 22.9673C17.0514 17.6668 18.8748 10.8617 24.1752 7.80151C29.506 4.7238 36.3128 6.54384 39.3416 11.8664C42.4009 17.1667 40.5774 23.9711 35.2774 27.031C29.977 30.0912 23.1719 28.2678 20.1116 22.9673ZM24.6787 8.67349C19.8598 11.4556 18.2014 17.645 20.9836 22.4639C23.7658 27.2828 29.9551 28.9412 34.774 26.1591C39.5928 23.3769 41.2512 17.1876 38.469 12.3687L38.4674 12.3659C35.7182 7.53289 29.5315 5.87171 24.6787 8.67349Z" fill="#E99B26"/>
<path d="M27.0573 11.8506C28.3189 11.327 29.5703 11.2597 30.4944 11.709C30.671 11.8118 30.8183 11.9315 30.9247 12.1158C31.1907 12.5765 31.0516 13.1482 30.6117 13.4021C30.4065 13.5207 30.1303 13.5163 29.8009 13.4198C29.0657 13.23 28.0905 13.3016 27.2694 13.7757C26.0378 14.4868 25.9526 15.355 26.3073 15.9692C27.4776 17.9963 32.2942 13.946 34.5107 17.7851C35.486 19.4744 35.098 21.1726 33.2574 22.5219L33.7539 23.3819C33.9844 23.7811 33.8569 24.3052 33.4757 24.5253C33.0945 24.7454 32.6062 24.5769 32.3757 24.1776L31.8792 23.3176C30.3359 23.9629 28.7606 23.8077 27.7656 23.2356C27.636 23.1466 27.4887 23.0269 27.4 22.8733C27.134 22.4126 27.2731 21.8409 27.713 21.5869C28.0356 21.4007 28.3179 21.4834 28.5532 21.5523C29.5414 21.8418 30.6346 21.9068 31.6316 21.3311C32.9805 20.5523 33.3596 19.7192 32.8099 18.7671C31.5155 16.525 26.7343 20.6368 24.6065 16.9512C23.8085 15.5691 23.9558 13.9279 25.7084 12.6294L25.1941 11.7387C24.9636 11.3395 25.0911 10.8154 25.443 10.6122C25.8242 10.3921 26.3418 10.5437 26.5723 10.943L27.0866 11.8337L27.0573 11.8506Z" fill="#A76013"/>
<path d="M60.2934 15.1431C54.2511 14.7041 48.9746 19.2658 48.5356 25.3082C48.0966 31.3506 52.6583 36.6271 58.7006 37.0661C64.743 37.5051 70.0194 32.9434 70.4584 26.901C70.9362 20.8614 66.3745 15.5849 60.2934 15.1431V15.1431Z" fill="url(#wallet-money-tilted-paint5_linear_38410_284480)"/>
<path d="M60.3813 13.9253C54.339 13.4863 49.0625 18.048 48.6235 24.0904C48.1845 30.1328 52.7462 35.4093 58.7885 35.8483C64.8309 36.2873 70.1073 31.7256 70.5463 25.6832C71.0241 19.6436 66.4624 14.3671 60.3813 13.9253V13.9253Z" fill="url(#wallet-money-tilted-paint6_linear_38410_284480)"/>
<path fill-rule="evenodd" clip-rule="evenodd" d="M67.9101 17.6902L51.2756 32.0712C53.1165 34.2005 55.7675 35.6294 58.7886 35.8489C64.831 36.2879 70.1074 31.7261 70.5464 25.6837C70.7859 22.6566 69.7594 19.8212 67.9101 17.6902Z" fill="url(#wallet-money-tilted-paint7_linear_38410_284480)"/>
<path opacity="0.5" fill-rule="evenodd" clip-rule="evenodd" d="M50.0665 24.1945C50.4498 18.9195 55.0552 14.9379 60.3301 15.3212C65.6352 15.7066 69.6196 20.3104 69.2032 25.586C68.8194 30.8604 64.2143 34.8414 58.9397 34.4581C53.6648 34.0749 49.6833 29.4694 50.0665 24.1945ZM60.2671 16.1889C55.4714 15.8405 51.2827 19.4618 50.9343 24.2575C50.5859 29.0532 54.2072 33.2419 59.0028 33.5904C63.7984 33.9388 67.9871 30.3175 68.3355 25.5218L68.3357 25.519C68.7146 20.7292 65.0965 16.5398 60.2671 16.1889Z" fill="#E99B26"/>
<path d="M60.4272 19.6164C61.5834 19.854 62.5109 20.4131 62.9538 21.1827C63.0302 21.3419 63.0775 21.4989 63.0641 21.6823C63.0308 22.1408 62.654 22.4821 62.2162 22.4503C62.012 22.4355 61.8166 22.2984 61.6278 22.0696C61.1942 21.5772 60.4621 21.1553 59.645 21.0959C58.4193 21.0069 57.9372 21.5864 57.8928 22.1977C57.7462 24.215 63.1555 23.6555 62.8779 27.4761C62.7558 29.1572 61.6544 30.1834 59.6836 30.2553L59.6214 31.1111C59.5926 31.5085 59.2471 31.8214 58.8678 31.7938C58.4884 31.7662 58.221 31.4088 58.2498 31.0115L58.312 30.1556C56.8954 29.8683 55.8442 28.9931 55.4103 28.1012C55.3608 27.9747 55.3135 27.8176 55.3246 27.6648C55.3579 27.2063 55.7348 26.865 56.1725 26.8968C56.4935 26.9201 56.6553 27.1162 56.7901 27.2797C57.3563 27.9661 58.1065 28.5429 59.0987 28.615C60.4411 28.7125 61.1165 28.3007 61.1853 27.3532C61.3474 25.1219 55.9337 25.7425 56.2001 22.0747C56.3001 20.6993 57.2016 19.5971 59.0848 19.5189L59.1492 18.6325C59.1781 18.2351 59.5235 17.9222 59.8737 17.9477C60.2531 17.9752 60.5497 18.3348 60.5208 18.7321L60.4564 19.6185L60.4272 19.6164Z" fill="#A76013"/>
<path d="M29.1651 50.2523C27.3006 50.0304 25.9689 48.3391 26.1908 46.4746L30.667 8.85609C30.8889 6.99157 32.5802 5.65992 34.4448 5.88178L54.7009 8.29208C56.5654 8.51394 57.897 10.2053 57.6752 12.0698L53.1989 49.6883C52.9771 51.5528 51.2857 52.8845 49.4212 52.6626L29.1651 50.2523Z" fill="url(#wallet-money-tilted-paint8_linear_38410_284480)"/>
<path d="M53.1974 49.6876L57.6737 12.0691C57.8956 10.2046 56.5639 8.51325 54.6994 8.29139L34.4433 5.88109C33.387 5.7554 32.3863 6.12832 31.6768 6.81426L52.1862 51.7287C52.729 51.2039 53.1013 50.4958 53.1974 49.6876Z" fill="url(#wallet-money-tilted-paint9_linear_38410_284480)"/>
<path opacity="0.5" fill-rule="evenodd" clip-rule="evenodd" d="M33.885 10.5849L29.667 46.0331C29.6116 46.4992 29.9445 46.9221 30.4106 46.9775L48.9787 49.187C49.4448 49.2424 49.8677 48.9095 49.9231 48.4434L54.1411 12.9952C54.1966 12.5291 53.8637 12.1062 53.3976 12.0508L34.8295 9.84135C34.3633 9.78588 33.9405 10.1188 33.885 10.5849ZM27.979 45.8322C27.8126 47.2306 28.8114 48.4991 30.2098 48.6655L48.7778 50.875C50.1762 51.0414 51.4447 50.0426 51.6111 48.6443L55.8292 13.1961C55.9956 11.7977 54.9968 10.5292 53.5984 10.3628L35.0303 8.15334C33.6319 7.98694 32.3634 8.98567 32.197 10.3841L27.979 45.8322Z" fill="#4ABE6B"/>
<rect x="4.08398" y="29.9346" width="52.6974" height="47.5977" rx="10.1995" transform="rotate(-15 4.08398 29.9346)" fill="url(#wallet-money-tilted-paint10_linear_38410_284480)"/>
<path d="M61.7105 52.3332C62.8718 52.022 63.865 51.2738 64.4716 50.2531C65.0783 49.2325 65.2486 48.023 64.9452 46.8907L61.5135 34.0832C61.2101 32.9509 60.4578 31.9886 59.4221 31.408C58.3864 30.8274 57.1522 30.6761 55.9909 30.9872L45.0443 33.9204C42.1411 34.6983 39.658 36.5688 38.1415 39.1205C36.6249 41.6721 36.199 44.6958 36.9575 47.5265C37.7159 50.3571 39.5966 52.7628 42.1859 54.2143C44.7751 55.6658 47.8607 56.0442 50.7639 55.2663L61.7105 52.3332Z" fill="#8E5004"/>
<path d="M11.4924 48.6048C5.49005 50.2131 1.91287 56.409 3.52122 62.4115C5.12956 68.4139 11.3255 71.9911 17.3278 70.3828C23.3302 68.7745 26.9073 62.5785 25.299 56.5761C23.7291 50.5634 17.5332 46.9862 11.4924 48.6048V48.6048Z" fill="url(#wallet-money-tilted-paint11_linear_38410_284480)"/>
<path d="M11.1682 47.3948C5.16583 49.0032 1.58865 55.1991 3.197 61.2015C4.80534 67.2039 11.0012 70.7812 17.0036 69.1728C23.006 67.5645 26.5831 61.3686 24.9748 55.3662C23.4049 49.3534 17.209 45.7762 11.1682 47.3948V47.3948Z" fill="url(#wallet-money-tilted-paint12_linear_38410_284480)"/>
<path fill-rule="evenodd" clip-rule="evenodd" d="M19.7313 48.5089L8.45397 68.0419C10.9543 69.4854 14.0038 69.9777 17.005 69.1735C23.0074 67.5652 26.5845 61.3692 24.9762 55.3668C24.1894 52.3532 22.2404 49.9514 19.7313 48.5089Z" fill="url(#wallet-money-tilted-paint13_linear_38410_284480)"/>
<path opacity="0.5" fill-rule="evenodd" clip-rule="evenodd" d="M4.62894 60.8177C3.22487 55.5776 6.34712 50.1697 11.5871 48.7656C16.8571 47.3535 22.2673 50.4733 23.6395 55.7251C25.0428 60.9648 21.9206 66.3721 16.681 67.776C11.4409 69.1801 6.03301 66.0578 4.62894 60.8177ZM11.8181 49.6277C7.0542 50.9041 4.21448 55.8227 5.49099 60.5867C6.76749 65.3507 11.6861 68.1905 16.45 66.914C21.2139 65.6375 24.0536 60.7189 22.7771 55.9549L22.7764 55.9521C21.5314 51.1837 16.6156 48.3422 11.8181 49.6277Z" fill="#E99B26"/>
<path d="M13.128 52.8945C14.3283 52.7356 15.4152 52.965 16.1032 53.5617C16.2309 53.6902 16.3295 53.8265 16.3784 54.0087C16.5004 54.4641 16.2501 54.9217 15.8153 55.0382C15.6124 55.0926 15.3769 55.0255 15.117 54.8673C14.5311 54.5362 13.6798 54.3738 12.8681 54.5913C11.6505 54.9175 11.3784 55.6413 11.5411 56.2486C12.078 58.2525 17.131 55.8898 18.1479 59.6852C18.5954 61.3552 17.8737 62.7201 15.9883 63.4531L16.2161 64.3033C16.3219 64.698 16.0925 65.1174 15.7156 65.2184C15.3387 65.3194 14.9593 65.0631 14.8536 64.6683L14.6258 63.8182C13.1565 64.0166 11.8433 63.5223 11.1227 62.8042C11.0322 62.6983 10.9335 62.562 10.8928 62.4102C10.7708 61.9548 11.021 61.4972 11.4559 61.3807C11.7748 61.2952 11.9975 61.4308 12.1832 61.5438C12.9628 62.0183 13.8838 62.3247 14.8695 62.0606C16.203 61.7033 16.7187 61.077 16.4665 60.1357C15.8726 57.9192 10.836 60.3427 9.85968 56.6991C9.49357 55.3328 9.99612 53.9615 11.7945 53.2518L11.5586 52.3712C11.4528 51.9765 11.6822 51.5571 12.0301 51.4639C12.407 51.3629 12.8153 51.6114 12.9211 52.0062L13.157 52.8867L13.128 52.8945Z" fill="#A76013"/>
<path d="M61.0484 49.8683C62.2097 49.5571 63.2029 48.8089 63.8095 47.7883C64.4162 46.7676 64.5865 45.5581 64.2831 44.4259L60.8514 31.6183C60.548 30.4861 59.7957 29.5238 58.76 28.9432C57.7243 28.3626 56.4901 28.2112 55.3288 28.5224L44.3822 31.4555C41.4789 32.2335 38.9959 34.104 37.4794 36.6556C35.9628 39.2073 35.5369 42.231 36.2954 45.0616C37.0538 47.8923 38.9345 50.298 41.5237 51.7495C44.1129 53.201 47.1986 53.5794 50.1018 52.8014L61.0484 49.8683Z" fill="#A76013"/>
<path fill-rule="evenodd" clip-rule="evenodd" d="M44.2261 38.5378C43.1374 38.8295 42.2091 39.5417 41.6456 40.5179C41.082 41.494 40.9293 42.654 41.221 43.7427C41.4386 44.5545 41.892 45.2837 42.5239 45.8379C43.1559 46.3921 43.938 46.7465 44.7713 46.8562C45.6046 46.9659 46.4518 46.826 47.2056 46.4543C47.9595 46.0825 48.5862 45.4956 49.0064 44.7676C49.4267 44.0397 49.6217 43.2035 49.5667 42.3648C49.5117 41.5261 49.2093 40.7225 48.6976 40.0556C48.1859 39.3888 47.488 38.8887 46.6921 38.6185C45.8961 38.3483 45.038 38.3202 44.2261 38.5378Z" fill="#6F3507"/>
</g>
<defs>
<linearGradient id="wallet-money-tilted-paint0_linear_38410_284480" x1="47.3211" y1="23.8308" x2="79.8296" y2="58.5976" gradientUnits="userSpaceOnUse">
<stop stop-color="#66DE7D"/>
<stop offset="1" stop-color="#4ABE6B"/>
</linearGradient>
<linearGradient id="wallet-money-tilted-paint1_linear_38410_284480" x1="60.5172" y1="19.2492" x2="51.0579" y2="59.4212" gradientUnits="userSpaceOnUse">
<stop stop-color="#66DE7D"/>
<stop offset="1" stop-color="#4ABE6B"/>
</linearGradient>
<linearGradient id="wallet-money-tilted-paint2_linear_38410_284480" x1="39.9224" y1="35.1898" x2="29.677" y2="17.4441" gradientUnits="userSpaceOnUse">
<stop stop-color="#A76013"/>
<stop offset="0.551319" stop-color="#E99B26"/>
</linearGradient>
<linearGradient id="wallet-money-tilted-paint3_linear_38410_284480" x1="49.5974" y1="51.8368" x2="23.3656" y2="6.40193" gradientUnits="userSpaceOnUse">
<stop stop-color="#E99B26"/>
<stop offset="1" stop-color="#FAC34B"/>
</linearGradient>
<linearGradient id="wallet-money-tilted-paint4_linear_38410_284480" x1="36.3138" y1="28.2996" x2="33.3723" y2="5.39882" gradientUnits="userSpaceOnUse">
<stop stop-color="#E99B26" stop-opacity="0.26"/>
<stop offset="1" stop-color="#FAC34B"/>
</linearGradient>
<linearGradient id="wallet-money-tilted-paint5_linear_38410_284480" x1="58.3026" y1="42.5469" x2="59.5856" y2="24.8866" gradientUnits="userSpaceOnUse">
<stop stop-color="#A76013"/>
<stop offset="0.551319" stop-color="#E99B26"/>
</linearGradient>
<linearGradient id="wallet-money-tilted-paint6_linear_38410_284480" x1="57.1444" y1="59.145" x2="60.4295" y2="13.9288" gradientUnits="userSpaceOnUse">
<stop stop-color="#E99B26"/>
<stop offset="1" stop-color="#FAC34B"/>
</linearGradient>
<linearGradient id="wallet-money-tilted-paint7_linear_38410_284480" x1="59.0628" y1="35.8688" x2="68.0698" y2="18.0657" gradientUnits="userSpaceOnUse">
<stop stop-color="#E99B26" stop-opacity="0.26"/>
<stop offset="1" stop-color="#FAC34B"/>
</linearGradient>
<linearGradient id="wallet-money-tilted-paint8_linear_38410_284480" x1="28.4289" y1="27.6653" x2="75.6931" y2="33.2893" gradientUnits="userSpaceOnUse">
<stop stop-color="#66DE7D"/>
<stop offset="1" stop-color="#4ABE6B"/>
</linearGradient>
<linearGradient id="wallet-money-tilted-paint9_linear_38410_284480" x1="35.5626" y1="15.6569" x2="54.2265" y2="52.4662" gradientUnits="userSpaceOnUse">
<stop stop-color="#66DE7D"/>
<stop offset="1" stop-color="#4ABE6B"/>
</linearGradient>
<linearGradient id="wallet-money-tilted-paint10_linear_38410_284480" x1="4.08399" y1="103.759" x2="58.7485" y2="2.11143" gradientUnits="userSpaceOnUse">
<stop stop-color="#A76013"/>
<stop offset="1" stop-color="#E99B26"/>
</linearGradient>
<linearGradient id="wallet-money-tilted-paint11_linear_38410_284480" x1="18.7868" y1="75.8273" x2="14.086" y2="58.2839" gradientUnits="userSpaceOnUse">
<stop stop-color="#A76013"/>
<stop offset="0.551319" stop-color="#E99B26"/>
</linearGradient>
<linearGradient id="wallet-money-tilted-paint12_linear_38410_284480" x1="23.2516" y1="92.2992" x2="11.2161" y2="47.382" gradientUnits="userSpaceOnUse">
<stop stop-color="#E99B26"/>
<stop offset="1" stop-color="#FAC34B"/>
</linearGradient>
<linearGradient id="wallet-money-tilted-paint13_linear_38410_284480" x1="17.2773" y1="69.1005" x2="20.0125" y2="48.8191" gradientUnits="userSpaceOnUse">
<stop stop-color="#E99B26" stop-opacity="0.26"/>
<stop offset="1" stop-color="#FAC34B"/>
</linearGradient>
<clipPath id="wallet-money-tilted-clip0_38410_284480">
<rect width="80" height="80" fill="white"/>
</clipPath>
</defs>
</svg>
