<svg class="icon"
     viewBox="0 0 40 40" 
     fill="none" 
     xmlns="http://www.w3.org/2000/svg"
>
<circle cx="20" cy="20" r="20" fill="#FDF3D3"/>
<path d="M19.9822 7.0029C16.5089 7.05976 13.1975 8.48118 10.7638 10.9599C9.5461 12.1722 8.58533 13.6175 7.93893 15.2096C7.29253 16.8016 6.97376 18.5076 7.00169 20.2257C6.99969 21.9044 7.32901 23.5671 7.97076 25.1183C8.61252 26.6695 9.5541 28.0789 10.7415 29.2656C11.929 30.4523 13.3389 31.393 14.8906 32.0338C16.4423 32.6747 18.1052 33.003 19.784 33H20.0158C23.4902 32.9642 26.8085 31.5517 29.2426 29.0724C31.6767 26.593 33.0279 23.2494 32.9996 19.7751C33.0036 18.0759 32.6678 16.3932 32.0119 14.8257C31.3561 13.2583 30.3934 11.8378 29.1806 10.6478C27.9677 9.45781 26.5292 8.52233 24.9495 7.89638C23.3699 7.27043 21.681 6.96665 19.9822 7.0029ZM18.3758 24.9214C18.3679 24.709 18.4026 24.4972 18.4776 24.2983C18.5526 24.0995 18.6665 23.9176 18.8127 23.7633C18.9588 23.6089 19.1343 23.4853 19.3288 23.3996C19.5232 23.3139 19.7329 23.2678 19.9454 23.2641H19.9746C20.4021 23.2649 20.8126 23.4312 21.1202 23.728C21.4278 24.0249 21.6085 24.4292 21.6244 24.8564C21.6324 25.0688 21.5979 25.2807 21.5229 25.4796C21.4479 25.6785 21.334 25.8605 21.1878 26.0148C21.0417 26.1692 20.8662 26.2928 20.6716 26.3785C20.477 26.4641 20.2673 26.5101 20.0548 26.5137H20.0255C19.5982 26.5124 19.188 26.3459 18.8806 26.0492C18.5731 25.7524 18.3922 25.3484 18.3758 24.9214ZM18.9174 20.543V14.0438C18.9174 13.7565 19.0315 13.481 19.2347 13.2778C19.4378 13.0747 19.7133 12.9606 20.0006 12.9606C20.2879 12.9606 20.5634 13.0747 20.7666 13.2778C20.9697 13.481 21.0839 13.7565 21.0839 14.0438V20.543C21.0839 20.8303 20.9697 21.1059 20.7666 21.309C20.5634 21.5121 20.2879 21.6263 20.0006 21.6263C19.7133 21.6263 19.4378 21.5121 19.2347 21.309C19.0315 21.1059 18.9174 20.8303 18.9174 20.543Z" fill="url(#warning_microillustration_paint0_linear)"/>
<path d="M18.4776 24.2983C18.4026 24.4972 18.368 24.709 18.3758 24.9214C18.3922 25.3483 18.5731 25.7524 18.8806 26.0492C19.188 26.3459 19.5982 26.5123 20.0255 26.5137H20.0548C20.2673 26.5101 20.477 26.4641 20.6716 26.3785C20.8662 26.2928 21.0417 26.1692 21.1878 26.0148C21.334 25.8605 21.4479 25.6785 21.5229 25.4796C21.5979 25.2807 21.6324 25.0688 21.6244 24.8564C21.6085 24.4292 21.4278 24.0249 21.1202 23.728C20.8126 23.4312 20.4021 23.2649 19.9746 23.2641H19.9454C19.7329 23.2678 19.5232 23.3139 19.3288 23.3996C19.1343 23.4853 18.9588 23.6089 18.8127 23.7632C18.6665 23.9176 18.5526 24.0995 18.4776 24.2983Z" fill="white"/>
<path d="M18.9174 14.0438V20.543C18.9174 20.8303 19.0315 21.1058 19.2347 21.309C19.4378 21.5121 19.7133 21.6263 20.0006 21.6263C20.2879 21.6263 20.5634 21.5121 20.7666 21.309C20.9697 21.1058 21.0839 20.8303 21.0839 20.543V14.0438C21.0839 13.7565 20.9697 13.481 20.7666 13.2778C20.5634 13.0747 20.2879 12.9606 20.0006 12.9606C19.7133 12.9606 19.4378 13.0747 19.2347 13.2778C19.0315 13.481 18.9174 13.7565 18.9174 14.0438Z" fill="white"/>
<defs>
<linearGradient id="warning_microillustration_paint0_linear" x1="20.057" y1="60.625" x2="20.057" y2="7" gradientUnits="userSpaceOnUse">
<stop offset="0.625051" stop-color="#E99B26"/>
<stop offset="1" stop-color="#F1BB5A"/>
</linearGradient>
</defs>
</svg>
