<svg class="icon"
     viewBox="0 0 360 264"
     fill="none"
     xmlns="http://www.w3.org/2000/svg"
>
    <path fill-rule="evenodd" clip-rule="evenodd" d="M151.378 213.029C151.378 214.668 152.71 216 154.35 216H157.153C158.793 216 160.122 214.668 160.122 213.029V186.272H151.378V213.029Z" fill="#19194B"/>
    <path fill-rule="evenodd" clip-rule="evenodd" d="M199.958 186.272V213.029C199.958 214.668 201.288 216 202.928 216H205.733C207.373 216 208.702 214.668 208.702 213.029V186.272H199.958Z" fill="#19194B"/>
    <path fill-rule="evenodd" clip-rule="evenodd" d="M240.11 151.542C238.754 151.892 237.642 152.856 237.107 154.148L236.04 156.72C235.507 158.012 235.611 159.48 236.321 160.685C240.922 168.484 239.738 178.688 233.211 185.213C226.176 192.248 214.868 193.074 206.903 187.137L204.289 186.27H155.707L153.093 187.137C145.134 193.076 133.822 192.248 126.789 185.213C120.26 178.686 119.076 168.484 123.677 160.685C124.39 159.482 124.495 158.012 123.958 156.72L122.893 154.148C122.36 152.856 121.245 151.892 119.89 151.542C111.123 149.282 104.744 141.23 104.744 132C104.744 122.772 111.123 114.72 119.89 112.46C121.245 112.11 122.36 111.146 122.893 109.854L123.958 107.282C124.495 105.988 124.39 104.52 123.677 103.315C119.076 95.5196 120.262 85.3159 126.789 78.7888C130.677 74.8989 135.872 72.9056 141.09 72.9056C144.606 72.9056 148.131 73.8124 151.27 75.6536C152.491 76.3707 153.97 76.5011 155.28 75.9578L157.85 74.893C159.144 74.3596 160.108 73.2474 160.458 71.8922C162.718 63.1247 170.77 56.7477 179.998 56.7477C189.228 56.7477 197.28 63.1247 199.542 71.8922C199.892 73.2474 200.856 74.3576 202.148 74.893L204.718 75.9578C206.01 76.4932 207.478 76.3885 208.685 75.6793C216.48 71.0782 226.684 72.2616 233.211 78.7888C239.738 85.314 240.922 95.5176 236.321 103.317C235.611 104.522 235.507 105.99 236.04 107.282L237.107 109.854C237.642 111.146 238.754 112.11 240.11 112.46C248.875 114.72 255.254 122.772 255.254 132C255.254 141.23 248.875 149.282 240.11 151.542ZM245.305 104.951C250.114 94.2197 247.98 81.191 239.396 72.6034C230.809 64.0177 217.78 61.8841 207.049 66.6965C202.863 55.7066 192.142 48 179.998 48C167.858 48 157.135 55.7066 152.949 66.6965C142.218 61.8841 129.191 64.0177 120.603 72.6034C112.018 81.191 109.886 94.2217 114.695 104.951C103.705 109.137 96 119.858 96 132C96 144.144 103.705 154.865 114.695 159.051C109.882 169.78 112.016 182.811 120.603 191.396C126.178 196.971 133.626 199.826 141.102 199.826C146.669 199.824 152.257 198.24 157.094 195.016H202.904C214.234 202.57 229.665 201.126 239.396 191.396C247.98 182.813 250.114 169.782 245.305 159.051C256.293 154.865 263.998 144.144 263.998 132C263.998 119.858 256.293 109.137 245.305 104.951Z" fill="#19194B"/>
    <path fill-rule="evenodd" clip-rule="evenodd" d="M240.11 112.459C238.754 112.11 237.642 111.146 237.107 109.854L236.04 107.282C235.507 105.99 235.611 104.522 236.321 103.317C240.922 95.5173 239.738 85.3136 233.211 78.7884C226.684 72.2612 216.48 71.0779 208.685 75.6789C207.478 76.3901 206.01 76.4928 204.718 75.9574L202.146 74.8926C200.856 74.3573 199.892 73.247 199.542 71.8918C197.28 63.1244 189.228 56.7473 179.998 56.7473C170.77 56.7473 162.718 63.1244 160.458 71.8918C160.108 73.247 159.144 74.3592 157.85 74.8926L155.28 75.9574C153.97 76.5007 152.491 76.3703 151.27 75.6552C148.131 73.812 144.606 72.9072 141.09 72.9072C135.872 72.9072 130.677 74.8986 126.789 78.7884C120.262 85.3156 119.076 95.5192 123.677 103.317C124.391 104.52 124.495 105.99 123.958 107.282L122.893 109.854C122.36 111.146 121.245 112.11 119.89 112.459C111.123 114.719 104.744 122.772 104.744 132.002C104.744 141.229 111.123 149.282 119.89 151.542C121.245 151.891 122.358 152.855 122.893 154.147L123.958 156.719C124.495 158.013 124.391 159.481 123.677 160.686C119.076 168.484 120.26 178.685 126.789 185.213C133.822 192.249 145.134 193.077 153.093 187.137L155.707 186.27H204.289L206.903 187.137C214.868 193.075 226.176 192.249 233.211 185.213C239.738 178.687 240.922 168.484 236.321 160.684C235.611 159.479 235.507 158.011 236.04 156.719L237.107 154.147C237.642 152.855 238.754 151.891 240.11 151.542C248.875 149.282 255.254 141.229 255.254 132.002C255.254 122.772 248.875 114.719 240.11 112.459Z" fill="white"/>
    <path fill-rule="evenodd" clip-rule="evenodd" d="M215.938 138.401C214.115 135.173 211.851 132.168 209.156 129.474L208.165 128.482C207.007 127.322 205.124 127.322 203.965 128.482L201.983 130.465C200.824 131.625 200.824 133.506 201.983 134.665L202.975 135.657C209.111 141.795 212.491 149.954 212.491 158.633C212.491 176.375 198.196 190.84 180.515 191.118C162.573 191.401 147.508 176.576 147.508 158.633C147.508 149.954 150.888 141.795 157.026 135.657L158.018 134.665C159.177 133.506 159.177 131.625 158.018 130.465L156.032 128.482C154.873 127.322 152.992 127.322 151.832 128.482L150.84 129.474C148.148 132.168 145.884 135.173 144.06 138.401C139.904 135.533 136.881 131.155 135.755 126.139H144.576C146.216 126.139 147.545 124.811 147.545 123.17V121.767C147.545 117.403 151.083 113.865 155.449 113.865C159.073 113.865 162.121 116.307 163.051 119.633C163.407 120.902 164.58 121.765 165.896 121.765H169.551C170.867 121.765 172.04 120.902 172.396 119.633C173.328 116.307 176.374 113.865 179.999 113.865C183.625 113.865 186.673 116.307 187.601 119.633C187.957 120.902 189.132 121.765 190.448 121.765H194.101C195.417 121.765 196.592 120.902 196.948 119.633C197.876 116.307 200.924 113.865 204.549 113.865C208.913 113.865 212.452 117.403 212.452 121.767V123.17C212.452 124.811 213.781 126.139 215.423 126.139H224.244C223.116 131.155 220.095 135.533 215.938 138.401Z" fill="white"/>
    <path fill-rule="evenodd" clip-rule="evenodd" d="M192.317 139.961C189.857 139.961 187.862 141.954 187.862 144.416C187.862 146.875 189.857 148.868 192.317 148.868C194.776 148.868 196.771 146.875 196.771 144.416C196.771 141.954 194.776 139.961 192.317 139.961Z" fill="#19194B"/>
    <path fill-rule="evenodd" clip-rule="evenodd" d="M167.765 139.961C165.306 139.961 163.31 141.954 163.31 144.416C163.31 146.875 165.306 148.868 167.765 148.868C170.225 148.868 172.22 146.875 172.22 144.416C172.22 141.954 170.225 139.961 167.765 139.961Z" fill="#19194B"/>
    <path fill-rule="evenodd" clip-rule="evenodd" d="M187.422 183.956C187.422 188.057 184.097 191.38 179.998 191.38C175.899 191.38 172.574 188.057 172.574 183.956H187.422Z" fill="#19194B"/>
    <path fill-rule="evenodd" clip-rule="evenodd" d="M215.938 138.401C214.115 135.173 211.851 132.168 209.156 129.474L208.165 128.482C207.007 127.322 205.124 127.322 203.965 128.482L201.983 130.465C200.824 131.625 200.824 133.506 201.983 134.665L202.975 135.657C209.111 141.795 212.491 149.954 212.491 158.633C212.491 176.375 198.196 190.84 180.515 191.118C162.573 191.401 147.508 176.576 147.508 158.633C147.508 149.954 150.888 141.795 157.026 135.657L158.018 134.665C159.177 133.506 159.177 131.625 158.018 130.465L156.032 128.482C154.873 127.322 152.992 127.322 151.832 128.482L150.84 129.474C148.148 132.168 145.884 135.173 144.06 138.401C139.904 135.533 136.881 131.155 135.755 126.139H144.576C146.216 126.139 147.545 124.811 147.545 123.17V121.767C147.545 117.403 151.083 113.865 155.449 113.865C159.073 113.865 162.121 116.307 163.051 119.633C163.407 120.902 164.58 121.765 165.896 121.765H169.551C170.866 121.765 172.04 120.902 172.396 119.633C173.328 116.307 176.374 113.865 179.999 113.865C183.625 113.865 186.673 116.307 187.601 119.633C187.957 120.902 189.132 121.765 190.448 121.765H194.101C195.417 121.765 196.592 120.902 196.948 119.633C197.876 116.307 200.924 113.865 204.549 113.865C208.913 113.865 212.452 117.403 212.452 121.767V123.17C212.452 124.811 213.781 126.139 215.423 126.139H224.244C223.116 131.155 220.095 135.533 215.938 138.401ZM230.504 117.393H220.614C218.69 110.329 212.216 105.119 204.549 105.119C199.696 105.119 195.318 107.207 192.273 110.532C189.229 107.207 184.853 105.119 179.999 105.119C175.145 105.119 170.77 107.207 167.723 110.532C164.679 107.207 160.301 105.119 155.447 105.119C147.78 105.119 141.308 110.329 139.382 117.393H129.495C127.855 117.393 126.526 118.725 126.526 120.364V121.767C126.526 132.107 132.128 141.396 140.574 146.517C139.313 150.638 138.687 154.978 138.77 159.423C139.187 181.865 157.804 200.002 180.254 199.869C202.874 199.73 221.237 181.286 221.237 158.633C221.237 154.458 220.616 150.381 219.429 146.503C219.429 146.505 219.431 146.509 219.433 146.511C227.873 141.39 233.473 132.105 233.473 121.767V120.364C233.473 118.725 232.144 117.393 230.504 117.393Z" fill="#19194B"/>
    <g filter="url(#warningsheep-filter0_d)">
        <mask id="warningsheep-path-10-outside-1" maskUnits="userSpaceOnUse" x="207.156" y="21.1832" width="87.924" height="87.924" fill="black">
            <rect fill="white" x="207.156" y="21.1832" width="87.924" height="87.924"/>
            <path fill-rule="evenodd" clip-rule="evenodd" d="M247.72 96.8317C265.261 98.6754 280.975 85.9508 282.818 68.4107C284.662 50.8706 271.937 35.1572 254.396 33.3135C236.858 31.4702 221.143 44.1946 219.3 61.7347C217.456 79.2748 230.182 94.9884 247.72 96.8317Z"/>
        </mask>
        <path d="M248.557 88.8756C244.163 88.4137 240.226 91.6014 239.764 95.9955C239.302 100.39 242.49 104.326 246.884 104.788L248.557 88.8756ZM246.884 104.788C251.278 105.25 255.215 102.062 255.677 97.668C256.138 93.2739 252.951 89.3374 248.557 88.8756L246.884 104.788ZM246.884 104.788C268.819 107.093 288.469 91.1812 290.774 69.2469L274.862 67.5745C273.48 80.7204 261.704 90.2574 248.557 88.8756L246.884 104.788ZM290.774 69.2469C293.08 47.3127 277.168 27.6628 255.233 25.3574L253.56 41.2697C266.707 42.6515 276.244 54.4285 274.862 67.5745L290.774 69.2469ZM255.233 25.3574C233.3 23.0522 213.649 38.9642 211.344 60.8985L227.256 62.5709C228.638 49.425 240.416 39.8882 253.56 41.2697L255.233 25.3574ZM211.344 60.8985C209.038 82.8327 224.952 102.483 246.884 104.788L248.557 88.8756C235.412 87.494 225.874 75.7169 227.256 62.5709L211.344 60.8985Z" fill="white" mask="url(#warningsheep-path-10-outside-1)"/>
    </g>
    <path d="M254.301 33.1778C245.783 32.4233 237.311 35.0509 230.715 40.4927C227.422 43.1472 224.699 46.4383 222.706 50.1694C220.714 53.9005 219.495 57.9949 219.121 62.2079C218.685 66.317 219.063 70.472 220.235 74.4347C221.407 78.3973 223.349 82.0898 225.951 85.3004C228.552 88.5111 231.762 91.1768 235.396 93.1448C239.029 95.1128 243.016 96.3444 247.126 96.769L247.694 96.8287C256.208 97.6351 264.695 95.031 271.292 89.5878C277.889 84.1445 282.057 76.3067 282.882 67.794C283.329 63.6356 282.939 59.4297 281.737 55.4237C280.535 51.4178 278.544 47.6927 275.881 44.4674C273.218 41.2422 269.937 38.5819 266.231 36.6431C262.525 34.7043 258.469 33.5261 254.301 33.1778ZM245.758 76.6298C245.793 76.1079 245.932 75.5983 246.167 75.1308C246.402 74.6632 246.728 74.2473 247.125 73.9071C247.523 73.5669 247.984 73.3094 248.482 73.1496C248.98 72.9899 249.505 72.931 250.026 72.9765L250.098 72.984C251.144 73.096 252.107 73.6087 252.783 74.4145C253.46 75.2204 253.798 76.2568 253.727 77.3066C253.692 77.8287 253.553 78.3385 253.318 78.8062C253.084 79.2739 252.758 79.69 252.36 80.0302C251.963 80.3705 251.501 80.6279 251.003 80.7876C250.505 80.9472 249.979 81.0058 249.458 80.9599L249.387 80.9524C248.341 80.8391 247.379 80.3261 246.703 79.5206C246.027 78.7151 245.688 77.6793 245.758 76.6298ZM248.21 66.0508L249.882 50.1402C249.956 49.4369 250.306 48.7918 250.856 48.3468C251.406 47.9017 252.109 47.6933 252.813 47.7672C253.516 47.8411 254.161 48.1914 254.606 48.7409C255.051 49.2905 255.26 49.9944 255.186 50.6977L253.514 66.6082C253.44 67.3115 253.089 67.9566 252.54 68.4017C251.99 68.8467 251.286 69.0552 250.583 68.9813C249.88 68.9073 249.235 68.5571 248.79 68.0075C248.345 67.4579 248.136 66.7541 248.21 66.0508Z" fill="url(#warningsheep-paint0_linear)"/>
    <path d="M246.167 75.1308C245.932 75.5983 245.793 76.1079 245.758 76.6299C245.688 77.6794 246.027 78.7151 246.703 79.5207C247.379 80.3262 248.341 80.8392 249.387 80.9525L249.458 80.96C249.979 81.0059 250.505 80.9473 251.003 80.7876C251.501 80.628 251.963 80.3705 252.36 80.0303C252.758 79.6901 253.084 79.2739 253.318 78.8062C253.553 78.3386 253.692 77.8288 253.727 77.3067C253.798 76.2569 253.46 75.2204 252.783 74.4146C252.107 73.6087 251.144 73.0961 250.098 72.9841L250.026 72.9766C249.505 72.9311 248.98 72.9899 248.482 73.1497C247.984 73.3095 247.523 73.567 247.125 73.9071C246.728 74.2473 246.402 74.6633 246.167 75.1308Z" fill="white"/>
    <path d="M249.882 50.1403L248.21 66.0508C248.136 66.7541 248.345 67.458 248.79 68.0076C249.235 68.5571 249.88 68.9074 250.583 68.9813C251.286 69.0552 251.99 68.8468 252.54 68.4017C253.089 67.9567 253.44 67.3116 253.514 66.6083L255.186 50.6977C255.26 49.9944 255.051 49.2906 254.606 48.741C254.161 48.1914 253.516 47.8412 252.813 47.7672C252.11 47.6933 251.406 47.9018 250.856 48.3468C250.306 48.7919 249.956 49.437 249.882 50.1403Z" fill="white"/>
    <defs>
        <filter id="warningsheep-filter0_d" x="203.122" y="21.1354" width="95.8745" height="95.8745" filterUnits="userSpaceOnUse" color-interpolation-filters="sRGB">
            <feFlood flood-opacity="0" result="BackgroundImageFix"/>
            <feColorMatrix in="SourceAlpha" type="matrix" values="0 0 0 0 0 0 0 0 0 0 0 0 0 0 0 0 0 0 127 0"/>
            <feOffset dy="4"/>
            <feGaussianBlur stdDeviation="4"/>
            <feColorMatrix type="matrix" values="0 0 0 0 0 0 0 0 0 0 0 0 0 0 0 0 0 0 0.24 0"/>
            <feBlend mode="normal" in2="BackgroundImageFix" result="effect1_dropShadow"/>
            <feBlend mode="normal" in="SourceGraphic" in2="effect1_dropShadow" result="shape"/>
        </filter>
        <linearGradient id="warningsheep-paint0_linear" x1="240.687" y1="164.467" x2="254.485" y2="33.1899" gradientUnits="userSpaceOnUse">
            <stop offset="0.625051" stop-color="#E99B26"/>
            <stop offset="1" stop-color="#F1BB5A"/>
        </linearGradient>
    </defs>
</svg>
