<svg class="icon"
     viewBox="0 0 360 200"
     fill="none"
     xmlns="http://www.w3.org/2000/svg"
>
    <g filter="url(#filter0_d)">
        <rect x="129.988" y="33.7093" width="87.3773" height="141.895" rx="11.949" transform="rotate(-7.0401 129.988 33.7093)" fill="white"/>
        <rect x="127.2" y="31.5346" width="92.3773" height="146.895" rx="14.449" transform="rotate(-7.0401 127.2 31.5346)" stroke="white" stroke-width="5" stroke-linecap="round" stroke-linejoin="round"/>
    </g>
    <rect x="133.003" y="36.0616" width="81.969" height="136.486" rx="9.2449" transform="rotate(-7.0401 133.003 36.0616)" fill="white" stroke="#19194B" stroke-width="5.40826"/>
    <rect x="182.249" y="146.147" width="11.949" height="11.949" rx="5.97451" transform="rotate(-7.0401 182.249 146.147)" fill="#19194B"/>
    <rect x="139.98" y="41.5041" width="69.4537" height="103.06" rx="2.98726" transform="rotate(-7.0401 139.98 41.5041)" fill="#66C6EC"/>
    <g filter="url(#filter1_d)">
        <path d="M254.451 170.921L256.426 171.238C255.852 174.808 252.528 177.281 248.929 176.782L212.974 171.804C209.327 171.299 206.78 167.933 207.285 164.286L207.465 162.985C207.874 160.026 210.164 157.796 212.956 157.324L213.289 159.296L212.956 157.324C213.427 157.245 213.912 157.215 214.402 157.24L214.53 156.321C213.917 156.019 213.361 155.627 212.877 155.164C211.386 153.739 210.572 151.635 210.877 149.428L211.057 148.126C211.562 144.479 214.928 141.932 218.576 142.437L221.695 142.869C218.969 138.745 217.669 133.645 218.4 128.368C219.994 116.852 230.648 108.79 242.164 110.384C253.68 111.979 261.742 122.632 260.148 134.148C259.417 139.426 256.781 143.98 253.037 147.208L254.531 147.415C258.13 147.913 260.657 151.196 260.239 154.788M254.451 170.921L258.253 154.557M254.451 170.921L256.426 171.238C256.434 171.19 256.441 171.141 256.448 171.093L256.58 170.138M254.451 170.921L256.58 170.138M260.239 154.788L258.253 154.557M260.239 154.788C260.239 154.788 260.239 154.788 260.239 154.788L258.253 154.557M260.239 154.788C260.234 154.836 260.227 154.885 260.221 154.933L260.045 156.199M258.253 154.557C258.249 154.591 258.244 154.625 258.24 154.659L258.111 155.589C258.8 155.695 259.449 155.905 260.045 156.199M260.045 156.199C260.658 156.501 261.214 156.893 261.698 157.356C263.189 158.781 264.003 160.885 263.698 163.092L263.518 164.394C263.108 167.352 260.818 169.582 258.026 170.054C257.555 170.134 257.071 170.163 256.58 170.138M260.045 156.199L260.041 156.234C259.975 156.709 259.86 157.167 259.701 157.603C259.632 157.793 259.555 157.979 259.47 158.16C259.777 158.342 260.061 158.558 260.316 158.802L256.58 170.138M250.768 148.913L247.503 148.461C248.475 147.994 249.404 147.447 250.281 146.826L250.768 148.913Z" stroke="white" stroke-width="4"/>
    </g>
    <path d="M241.591 114.662C232.345 113.382 223.781 119.827 222.508 129.025C221.234 138.222 227.725 146.752 236.971 148.032C246.217 149.312 254.781 142.867 256.055 133.669C257.388 124.48 250.897 115.95 241.591 114.662Z" fill="#FAC34B"/>
    <path d="M241.994 121.961C244.162 122.541 245.86 123.67 246.615 125.116C246.742 125.413 246.814 125.703 246.769 126.032C246.655 126.855 245.902 127.421 245.075 127.307C244.689 127.253 244.334 126.98 244.001 126.543C243.233 125.598 241.89 124.742 240.346 124.528C238.031 124.207 237.052 125.19 236.9 126.287C236.399 129.906 246.724 129.603 245.775 136.459C245.357 139.475 243.154 141.182 239.407 141.055L239.194 142.591C239.096 143.303 238.406 143.823 237.689 143.724C236.972 143.624 236.504 142.945 236.603 142.232L236.816 140.696C234.159 139.993 232.262 138.277 231.537 136.611C231.457 136.377 231.385 136.087 231.423 135.813C231.537 134.99 232.289 134.424 233.116 134.538C233.723 134.622 234.008 134.997 234.246 135.31C235.244 136.622 236.604 137.76 238.478 138.02C241.015 138.371 242.342 137.716 242.577 136.016C243.131 132.012 232.791 132.425 233.702 125.844C234.044 123.376 235.876 121.505 239.458 121.61L239.678 120.02C239.777 119.307 240.467 118.787 241.129 118.879C241.845 118.978 242.368 119.665 242.27 120.378L242.049 121.969L241.994 121.961Z" fill="#19194B"/>
    <path fill-rule="evenodd" clip-rule="evenodd" d="M220.381 128.642C218.938 139.064 226.237 148.708 236.659 150.151C247.08 151.594 256.724 144.295 258.167 133.873C259.61 123.452 252.312 113.808 241.89 112.365C231.468 110.922 221.824 118.22 220.381 128.642ZM223.502 129.074C224.706 120.38 232.764 114.282 241.458 115.486C250.208 116.698 256.306 124.755 255.046 133.442C253.843 142.136 245.785 148.234 237.091 147.03C228.397 145.826 222.299 137.769 223.502 129.074Z" fill="#19194B"/>
    <rect x="211.384" y="160.351" width="42.5901" height="7.60537" rx="3.14586" transform="rotate(7.88266 211.384 160.351)" fill="#E99B26" stroke="#19194B" stroke-width="3.04215"/>
    <path d="M212.474 163.573C212.589 162.741 213.357 162.159 214.19 162.275L245.183 166.566C246.016 166.681 246.597 167.449 246.482 168.281L246.273 169.788C246.158 170.62 245.39 171.201 244.558 171.086L213.564 166.795C212.732 166.68 212.15 165.912 212.266 165.079L212.474 163.573Z" fill="#FAC34B"/>
    <rect x="218.454" y="153.652" width="42.5901" height="7.60537" rx="3.14586" transform="rotate(7.88266 218.454 153.652)" fill="#E99B26" stroke="#19194B" stroke-width="3.04215"/>
    <path d="M219.544 156.874C219.659 156.042 220.427 155.46 221.259 155.576L252.253 159.867C253.086 159.982 253.667 160.75 253.551 161.582L253.343 163.089C253.228 163.921 252.46 164.502 251.628 164.387L220.634 160.096C219.802 159.98 219.22 159.213 219.336 158.38L219.544 156.874Z" fill="#FAC34B"/>
    <rect x="214.977" y="145.492" width="42.5901" height="7.60537" rx="3.14586" transform="rotate(7.88266 214.977 145.492)" fill="#E99B26" stroke="#19194B" stroke-width="3.04215"/>
    <path d="M216.067 148.714C216.182 147.882 216.95 147.301 217.782 147.416L248.776 151.707C249.609 151.823 250.19 152.591 250.074 153.423L249.866 154.929C249.751 155.762 248.983 156.343 248.151 156.227L217.157 151.936C216.325 151.821 215.743 151.053 215.859 150.221L216.067 148.714Z" fill="#FAC34B"/>
    <g filter="url(#filter2_d)">
        <mask id="path-16-outside-1" maskUnits="userSpaceOnUse" x="86.2743" y="41.7562" width="84.3149" height="84.3149" fill="black">
            <rect fill="white" x="86.2743" y="41.7562" width="84.3149" height="84.3149"/>
            <path fill-rule="evenodd" clip-rule="evenodd" d="M161.42 85.6863C163.084 81.0584 163.375 76.0483 162.257 71.2591C161.139 66.47 158.661 62.106 155.12 58.6927C151.58 55.2795 147.128 52.9624 142.302 52.0206C137.475 51.0788 132.479 51.5523 127.915 53.3842C123.351 55.2162 119.414 58.3283 116.578 62.346C113.742 66.3637 112.127 71.1155 111.929 76.0294C111.744 80.622 112.804 85.173 114.987 89.2042L113.577 90.2804C113.191 89.9071 112.693 89.664 112.154 89.5917C111.496 89.5033 110.83 89.677 110.298 90.0755L110.298 90.0754L110.291 90.081L94.8679 101.852C94.8609 101.858 94.854 101.863 94.8471 101.868C93.6031 102.867 92.7987 104.312 92.6057 105.895C92.4127 107.479 92.8464 109.075 93.8141 110.343C94.7819 111.611 96.207 112.45 97.7853 112.682C99.3635 112.913 100.97 112.519 102.261 111.582C102.268 111.577 102.275 111.572 102.282 111.567L117.705 99.7953L117.705 99.7954L117.712 99.7897C118.237 99.3824 118.58 98.7852 118.669 98.127C118.741 97.5885 118.638 97.0444 118.38 96.5733L119.79 95.4971C124.053 99.5766 129.609 102.058 135.513 102.499C141.738 102.965 147.917 101.13 152.879 97.343C156.79 94.3619 159.756 90.3139 161.42 85.6863ZM111.475 91.8978C111.311 92.0639 111.204 92.2799 111.172 92.514C111.134 92.7982 111.211 93.086 111.385 93.314L114.875 97.8877C115.049 98.1157 115.307 98.2652 115.591 98.3034C115.825 98.3348 116.061 98.2888 116.264 98.1748L100.981 109.839C100.148 110.439 99.1149 110.691 98.0992 110.542C97.0794 110.393 96.1586 109.85 95.5333 109.031C94.9079 108.212 94.6277 107.18 94.7524 106.157C94.8766 105.138 95.3927 104.208 96.1911 103.563L111.475 91.8978ZM117.091 94.8368L119.227 93.2061C119.663 92.8736 120.278 92.9196 120.66 93.3132C124.635 97.4156 129.978 99.9169 135.674 100.343C141.371 100.769 147.026 99.0896 151.567 95.6238L152.225 96.485L151.568 95.6234C155.148 92.895 157.862 89.19 159.385 84.9546C160.908 80.7191 161.174 76.1337 160.151 71.7506C159.128 67.3675 156.86 63.3736 153.619 60.2497C150.379 57.1258 146.305 55.0052 141.887 54.1432C137.47 53.2812 132.897 53.7146 128.72 55.3912C124.543 57.0678 120.94 59.9161 118.344 63.5932C115.749 67.2702 114.271 71.6192 114.09 76.1165C113.909 80.6137 115.032 85.0674 117.323 88.9414C117.602 89.4131 117.484 90.0189 117.049 90.3515L114.912 91.9822L117.091 94.8368Z"/>
        </mask>
        <path fill-rule="evenodd" clip-rule="evenodd" d="M161.42 85.6863C163.084 81.0584 163.375 76.0483 162.257 71.2591C161.139 66.47 158.661 62.106 155.12 58.6927C151.58 55.2795 147.128 52.9624 142.302 52.0206C137.475 51.0788 132.479 51.5523 127.915 53.3842C123.351 55.2162 119.414 58.3283 116.578 62.346C113.742 66.3637 112.127 71.1155 111.929 76.0294C111.744 80.622 112.804 85.173 114.987 89.2042L113.577 90.2804C113.191 89.9071 112.693 89.664 112.154 89.5917C111.496 89.5033 110.83 89.677 110.298 90.0755L110.298 90.0754L110.291 90.081L94.8679 101.852C94.8609 101.858 94.854 101.863 94.8471 101.868C93.6031 102.867 92.7987 104.312 92.6057 105.895C92.4127 107.479 92.8464 109.075 93.8141 110.343C94.7819 111.611 96.207 112.45 97.7853 112.682C99.3635 112.913 100.97 112.519 102.261 111.582C102.268 111.577 102.275 111.572 102.282 111.567L117.705 99.7953L117.705 99.7954L117.712 99.7897C118.237 99.3824 118.58 98.7852 118.669 98.127C118.741 97.5885 118.638 97.0444 118.38 96.5733L119.79 95.4971C124.053 99.5766 129.609 102.058 135.513 102.499C141.738 102.965 147.917 101.13 152.879 97.343C156.79 94.3619 159.756 90.3139 161.42 85.6863ZM111.475 91.8978C111.311 92.0639 111.204 92.2799 111.172 92.514C111.134 92.7982 111.211 93.086 111.385 93.314L114.875 97.8877C115.049 98.1157 115.307 98.2652 115.591 98.3034C115.825 98.3348 116.061 98.2888 116.264 98.1748L100.981 109.839C100.148 110.439 99.1149 110.691 98.0992 110.542C97.0794 110.393 96.1586 109.85 95.5333 109.031C94.9079 108.212 94.6277 107.18 94.7524 106.157C94.8766 105.138 95.3927 104.208 96.1911 103.563L111.475 91.8978ZM117.091 94.8368L119.227 93.2061C119.663 92.8736 120.278 92.9196 120.66 93.3132C124.635 97.4156 129.978 99.9169 135.674 100.343C141.371 100.769 147.026 99.0896 151.567 95.6238L152.225 96.485L151.568 95.6234C155.148 92.895 157.862 89.19 159.385 84.9546C160.908 80.7191 161.174 76.1337 160.151 71.7506C159.128 67.3675 156.86 63.3736 153.619 60.2497C150.379 57.1258 146.305 55.0052 141.887 54.1432C137.47 53.2812 132.897 53.7146 128.72 55.3912C124.543 57.0678 120.94 59.9161 118.344 63.5932C115.749 67.2702 114.271 71.6192 114.09 76.1165C113.909 80.6137 115.032 85.0674 117.323 88.9414C117.602 89.4131 117.484 90.0189 117.049 90.3515L114.912 91.9822L117.091 94.8368Z" fill="white"/>
        <path d="M162.257 71.2591L158.362 72.1682L162.257 71.2591ZM161.42 85.6863L165.184 87.0396L161.42 85.6863ZM142.302 52.0206L141.536 55.9465L142.302 52.0206ZM127.915 53.3842L129.405 57.0964L127.915 53.3842ZM116.578 62.346L119.846 64.6528L119.846 64.6528L116.578 62.346ZM111.929 76.0294L107.933 75.8684L111.929 76.0294ZM114.987 89.2042L117.414 92.3839L120.134 90.308L118.504 87.2992L114.987 89.2042ZM113.577 90.2804L110.797 93.1568L113.27 95.5465L116.004 93.4601L113.577 90.2804ZM110.298 90.0755L107.119 92.5023L109.525 95.6551L112.698 93.2756L110.298 90.0755ZM110.298 90.0754L113.478 87.6486L111.052 84.4698L107.872 86.895L110.298 90.0754ZM110.291 90.081L107.865 86.9006L107.864 86.9013L110.291 90.081ZM94.8679 101.852L92.4411 98.6725L92.4401 98.6732L94.8679 101.852ZM94.8471 101.868L92.3449 98.7477L92.3435 98.7489L94.8471 101.868ZM93.8141 110.343L90.6344 112.77L90.6344 112.77L93.8141 110.343ZM102.261 111.582L104.609 114.82L104.611 114.819L102.261 111.582ZM102.282 111.567L104.708 114.747L104.709 114.746L102.282 111.567ZM117.705 99.7953L120.885 97.3685L118.458 94.1888L115.278 96.6156L117.705 99.7953ZM117.705 99.7954L114.525 102.222L116.973 105.429L120.159 102.954L117.705 99.7954ZM117.712 99.7897L115.259 96.6307L115.259 96.6309L117.712 99.7897ZM118.38 96.5733L115.953 93.3936L113.22 95.4798L114.872 98.4954L118.38 96.5733ZM119.79 95.4971L122.555 92.607L120.083 90.2414L117.363 92.3174L119.79 95.4971ZM135.513 102.499L135.811 98.5106L135.811 98.5106L135.513 102.499ZM152.879 97.343L150.455 94.1617L150.453 94.1632L152.879 97.343ZM111.475 91.8978L114.32 94.7096L109.048 88.7181L111.475 91.8978ZM116.264 98.1748L118.691 101.355L114.307 94.686L116.264 98.1748ZM100.981 109.839L103.319 113.084L103.364 113.052L103.408 113.019L100.981 109.839ZM98.0992 110.542L98.6799 106.585L98.6799 106.585L98.0992 110.542ZM94.7524 106.157L98.723 106.641L98.723 106.641L94.7524 106.157ZM96.1911 103.563L93.7643 100.383L93.7205 100.417L93.6777 100.451L96.1911 103.563ZM117.091 94.8368L113.911 97.2636L116.338 100.443L119.517 98.0165L117.091 94.8368ZM119.227 93.2061L121.654 96.3858L121.654 96.3858L119.227 93.2061ZM120.66 93.3132L123.532 90.5296L123.532 90.5296L120.66 93.3132ZM151.567 95.6238L154.747 93.197L152.32 90.0173L149.141 92.444L151.567 95.6238ZM152.225 96.485L149.045 98.9118L155.406 94.0603L152.225 96.485ZM151.568 95.6234L149.143 92.4421L145.962 94.8668L148.387 98.0481L151.568 95.6234ZM159.385 84.9546L163.149 86.3079L159.385 84.9546ZM160.151 71.7506L156.255 72.6597L160.151 71.7506ZM153.619 60.2497L156.396 57.37L156.396 57.37L153.619 60.2497ZM141.887 54.1432L142.653 50.2172L141.887 54.1432ZM128.72 55.3912L127.23 51.6791L127.23 51.6791L128.72 55.3912ZM118.344 63.5932L121.612 65.9L121.612 65.9L118.344 63.5932ZM114.09 76.1165L118.087 76.2775L118.087 76.2775L114.09 76.1165ZM117.323 88.9414L113.88 90.9778L117.323 88.9414ZM117.049 90.3515L119.475 93.5312L119.475 93.5312L117.049 90.3515ZM114.912 91.9822L112.485 88.8025L109.305 91.2293L111.732 94.409L114.912 91.9822ZM158.362 72.1682C159.304 76.2064 159.059 80.4308 157.656 84.3329L165.184 87.0396C167.109 81.686 167.445 75.8902 166.152 70.3501L158.362 72.1682ZM152.344 61.5724C155.329 64.4504 157.419 68.1301 158.362 72.1682L166.152 70.3501C164.859 64.8099 161.992 59.7616 157.897 55.8131L152.344 61.5724ZM141.536 55.9465C145.605 56.7407 149.359 58.6944 152.344 61.5724L157.897 55.8131C153.801 51.8646 148.651 49.1841 143.068 48.0946L141.536 55.9465ZM129.405 57.0964C133.253 55.5517 137.466 55.1524 141.536 55.9465L143.068 48.0946C137.484 47.0051 131.704 47.5529 126.425 49.6721L129.405 57.0964ZM119.846 64.6528C122.237 61.2651 125.557 58.641 129.405 57.0964L126.425 49.6721C121.145 51.7913 116.591 55.3915 113.31 60.0392L119.846 64.6528ZM115.926 76.1904C116.093 72.0471 117.454 68.0404 119.846 64.6528L113.31 60.0392C110.029 64.6869 108.162 70.1839 107.933 75.8684L115.926 76.1904ZM118.504 87.2992C116.663 83.9002 115.77 80.0628 115.926 76.1904L107.933 75.8684C107.719 81.1811 108.944 86.4459 111.47 91.1092L118.504 87.2992ZM116.004 93.4601L117.414 92.3839L112.56 86.0245L111.15 87.1007L116.004 93.4601ZM111.622 93.5561C111.31 93.5141 111.021 93.3732 110.797 93.1568L116.357 87.4041C115.36 86.441 114.076 85.8139 112.687 85.6273L111.622 93.5561ZM112.698 93.2756C112.39 93.5066 112.004 93.6073 111.622 93.5561L112.687 85.6273C110.989 85.3992 109.269 85.8475 107.899 86.8753L112.698 93.2756ZM107.119 92.5022L107.119 92.5023L113.478 87.6486L113.478 87.6486L107.119 92.5022ZM112.717 93.2614L112.724 93.2559L107.872 86.895L107.865 86.9006L112.717 93.2614ZM97.2947 105.032L112.718 93.2607L107.864 86.9013L92.4411 98.6725L97.2947 105.032ZM97.3494 104.989C97.3313 105.004 97.3134 105.018 97.2957 105.031L92.4401 98.6732C92.4084 98.6974 92.3767 98.7223 92.3449 98.7477L97.3494 104.989ZM96.5763 106.379C96.643 105.832 96.9209 105.333 97.3508 104.988L92.3435 98.7489C90.2853 100.401 88.9544 102.792 88.6351 105.411L96.5763 106.379ZM96.9938 107.916C96.6595 107.478 96.5096 106.927 96.5763 106.379L88.6351 105.411C88.3157 108.031 89.0333 110.672 90.6344 112.77L96.9938 107.916ZM98.3659 108.724C97.8206 108.644 97.3282 108.354 96.9938 107.916L90.6344 112.77C92.2356 114.868 94.5934 116.256 97.2046 116.64L98.3659 108.724ZM99.9123 108.344C99.4662 108.668 98.9112 108.804 98.3659 108.724L97.2046 116.64C99.8157 117.023 102.473 116.37 104.609 114.82L99.9123 108.344ZM99.8562 108.386C99.874 108.373 99.8922 108.359 99.9109 108.345L104.611 114.819C104.644 114.795 104.676 114.771 104.708 114.747L99.8562 108.386ZM115.278 96.6156L99.8552 108.387L104.709 114.746L120.132 102.975L115.278 96.6156ZM120.885 97.3686L120.885 97.3685L114.525 102.222L114.525 102.222L120.885 97.3686ZM115.259 96.6309L115.251 96.6365L120.159 102.954L120.166 102.949L115.259 96.6309ZM114.704 97.5946C114.756 97.2131 114.955 96.8669 115.259 96.6307L120.166 102.949C121.519 101.898 122.405 100.357 122.633 98.6594L114.704 97.5946ZM114.872 98.4954C114.722 98.2223 114.662 97.907 114.704 97.5946L122.633 98.6594C122.82 97.27 122.554 95.8664 121.888 94.6513L114.872 98.4954ZM117.363 92.3174L115.953 93.3936L120.807 99.753L122.217 98.6768L117.363 92.3174ZM135.811 98.5106C130.834 98.1384 126.15 96.0463 122.555 92.607L117.025 98.3871C121.957 103.107 128.384 105.978 135.215 106.488L135.811 98.5106ZM150.453 94.1632C146.269 97.356 141.059 98.9029 135.811 98.5106L135.215 106.488C142.417 107.027 149.565 104.904 155.306 100.523L150.453 94.1632ZM157.656 84.3329C156.253 88.2349 153.752 91.6481 150.455 94.1617L155.304 100.524C159.829 97.0757 163.26 92.3928 165.184 87.0396L157.656 84.3329ZM115.137 93.0464C115.052 93.6785 114.763 94.2612 114.32 94.7096L108.63 89.0861C107.859 89.8666 107.356 90.8813 107.208 91.9816L115.137 93.0464ZM114.564 90.8872C115.034 91.5025 115.24 92.2792 115.137 93.0464L107.208 91.9816C107.029 93.3173 107.387 94.6695 108.205 95.7408L114.564 90.8872ZM118.055 95.4609L114.564 90.8872L108.205 95.7408L111.696 100.315L118.055 95.4609ZM116.123 94.339C116.891 94.442 117.585 94.8456 118.055 95.4609L111.696 100.315C112.513 101.386 113.723 102.088 115.059 102.268L116.123 94.339ZM114.307 94.686C114.856 94.3784 115.493 94.2543 116.123 94.339L115.059 102.268C116.157 102.415 117.266 102.199 118.221 101.664L114.307 94.686ZM103.408 113.019L118.691 101.355L113.837 94.9951L98.5543 106.659L103.408 113.019ZM97.5185 114.5C99.563 114.8 101.644 114.292 103.319 113.084L98.6427 106.594C98.6535 106.586 98.6668 106.583 98.6799 106.585L97.5185 114.5ZM92.3535 111.458C93.6123 113.107 95.4658 114.199 97.5185 114.5L98.6799 106.585C98.693 106.586 98.7049 106.593 98.713 106.604L92.3535 111.458ZM90.7818 105.673C90.5308 107.733 91.0949 109.808 92.3535 111.458L98.713 106.604C98.721 106.615 98.7247 106.628 98.723 106.641L90.7818 105.673ZM93.6777 100.451C92.0707 101.749 91.0318 103.622 90.7818 105.673L98.723 106.641C98.7214 106.654 98.7148 106.666 98.7045 106.675L93.6777 100.451ZM109.048 88.7181L93.7643 100.383L98.6179 106.743L113.902 95.0776L109.048 88.7181ZM119.517 98.0165L121.654 96.3858L116.8 90.0264L114.664 91.6571L119.517 98.0165ZM121.654 96.3858C120.478 97.2833 118.817 97.1591 117.787 96.0967L123.532 90.5296C121.74 88.6801 118.848 88.4638 116.8 90.0264L121.654 96.3858ZM117.787 96.0967C122.444 100.903 128.703 103.833 135.376 104.332L135.973 96.3539C131.253 96.0011 126.826 93.9287 123.532 90.5296L117.787 96.0967ZM135.376 104.332C142.05 104.831 148.674 102.864 153.994 98.8035L149.141 92.444C145.378 95.3156 140.693 96.7068 135.973 96.3539L135.376 104.332ZM148.388 98.0505L149.045 98.9118L155.404 94.0583L154.747 93.197L148.388 98.0505ZM155.406 94.0603L154.749 93.1987L148.387 98.0481L149.043 98.9098L155.406 94.0603ZM153.993 98.8047C158.186 95.6089 161.365 91.2691 163.149 86.3079L155.621 83.6013C154.359 87.111 152.11 90.1812 149.143 92.4421L153.993 98.8047ZM163.149 86.3079C164.933 81.3467 165.244 75.9757 164.046 70.8416L156.255 72.6597C157.103 76.2918 156.883 80.0915 155.621 83.6013L163.149 86.3079ZM164.046 70.8416C162.848 65.7074 160.191 61.0291 156.396 57.37L150.843 63.1293C153.528 65.718 155.408 69.0276 156.255 72.6597L164.046 70.8416ZM156.396 57.37C152.6 53.7109 147.828 51.2269 142.653 50.2172L141.121 58.0692C144.782 58.7834 148.158 60.5407 150.843 63.1293L156.396 57.37ZM142.653 50.2172C137.479 49.2076 132.123 49.7152 127.23 51.6791L130.21 59.1033C133.672 57.714 137.461 57.3549 141.121 58.0692L142.653 50.2172ZM127.23 51.6791C122.338 53.643 118.117 56.9793 115.077 61.2864L121.612 65.9C123.763 62.853 126.749 60.4927 130.21 59.1033L127.23 51.6791ZM115.077 61.2864C112.036 65.5935 110.306 70.6876 110.093 75.9554L118.087 76.2775C118.237 72.5508 119.461 68.947 121.612 65.9L115.077 61.2864ZM110.093 75.9554C109.881 81.2232 111.196 86.4401 113.88 90.9778L120.766 86.905C118.867 83.6948 117.937 80.0042 118.087 76.2775L110.093 75.9554ZM113.88 90.9778C113.127 89.7046 113.446 88.0692 114.622 87.1717L119.475 93.5312C121.523 91.9687 122.077 89.1216 120.766 86.905L113.88 90.9778ZM114.622 87.1717L112.485 88.8025L117.339 95.1619L119.475 93.5312L114.622 87.1717ZM111.732 94.409L113.911 97.2636L120.27 92.41L118.092 89.5554L111.732 94.409Z" fill="white" mask="url(#path-16-outside-1)"/>
    </g>
    <path d="M152.223 96.4834C155.969 93.6286 158.809 89.7521 160.403 85.3204C161.996 80.8888 162.274 76.091 161.204 71.5049C160.133 66.9188 157.76 62.7398 154.37 59.4712C150.98 56.2026 146.717 53.9838 142.094 53.0819C137.472 52.18 132.688 52.6335 128.317 54.3877C123.947 56.142 120.177 59.1222 117.461 62.9696C114.745 66.817 113.199 71.3674 113.01 76.0729C112.82 80.7785 113.995 85.4385 116.392 89.4919L112.244 92.6579L115.735 97.2317L119.883 94.0656C124.043 98.3583 129.633 100.975 135.594 101.421C141.555 101.867 147.472 100.11 152.223 96.4834Z" fill="#EBECF0"/>
    <path d="M151.803 61.5822C154.607 65.25 156.313 69.6385 156.722 74.2375C157.132 78.8365 156.228 83.4572 154.115 87.5627C152.002 91.6681 148.768 95.0897 144.788 97.4299C140.807 99.77 136.245 100.932 131.63 100.782C134.954 101.59 138.412 101.69 141.777 101.075C145.143 100.461 148.341 99.146 151.166 97.2157C153.991 95.2854 156.378 92.783 158.173 89.8706C159.968 86.9583 161.131 83.7012 161.587 80.3105C162.042 76.9198 161.779 73.4712 160.816 70.1884C159.853 66.9057 158.21 63.8621 155.995 61.255C153.78 58.6479 151.041 56.5356 147.957 55.0551C144.873 53.5745 141.512 52.7588 138.092 52.6608C143.557 53.9572 148.403 57.1105 151.803 61.5822Z" fill="#FAFBFC"/>
    <path d="M152.223 96.4834C155.969 93.6287 158.809 89.7521 160.403 85.3204C161.996 80.8888 162.274 76.091 161.204 71.5049C160.133 66.9188 157.76 62.7398 154.37 59.4712C150.98 56.2026 146.717 53.9838 142.094 53.0819C137.472 52.18 132.688 52.6335 128.317 54.3877C123.947 56.142 120.177 59.1222 117.461 62.9696C114.745 66.817 113.199 71.3674 113.01 76.0729C112.82 80.7785 113.995 85.4385 116.392 89.4919L112.244 92.6579L115.735 97.2317L119.883 94.0656C124.043 98.3583 129.633 100.975 135.594 101.421C141.555 101.867 147.472 100.11 152.223 96.4834V96.4834Z" stroke="#19194B" stroke-width="3.04215" stroke-linecap="round" stroke-linejoin="round"/>
    <path d="M139.989 57.8475C137.465 57.5085 134.898 57.6701 132.436 58.3229C129.974 58.9758 127.665 60.1072 125.64 61.6526C123.615 63.1979 121.915 65.127 120.635 67.3295C119.356 69.5321 118.523 71.9651 118.184 74.4896C117.845 77.0141 118.007 79.5806 118.66 82.0426C119.312 84.5047 120.444 86.814 121.989 88.8388C123.535 90.8636 125.464 92.5642 127.666 93.8435C129.869 95.1228 132.302 95.9557 134.826 96.2947C137.351 96.6337 139.917 96.4722 142.379 95.8193C144.841 95.1664 147.151 94.035 149.175 92.4896C151.2 90.9443 152.901 89.0152 154.18 86.8127C155.459 84.6101 156.292 82.1771 156.631 79.6526C156.97 77.1282 156.809 74.5616 156.156 72.0996C155.503 69.6375 154.372 67.3282 152.826 65.3034C151.281 63.2786 149.352 61.578 147.149 60.2987C144.947 59.0195 142.514 58.1865 139.989 57.8475Z" fill="#33B3E5"/>
    <path opacity="0.5" d="M152.894 65.3086C150.112 61.653 146.122 59.1044 141.636 58.1172C137.15 57.1301 132.458 57.7686 128.399 59.919L152.634 89.0444C155.302 85.6766 156.776 81.5175 156.823 77.2209C156.87 72.9244 155.488 68.734 152.894 65.3086Z" fill="#66C6EC"/>
    <path d="M101.626 110.707L117.049 98.9356C117.35 98.7022 117.546 98.3601 117.597 97.983C117.648 97.6059 117.548 97.2239 117.32 96.9195L112.963 91.2112C112.73 90.9107 112.388 90.7139 112.011 90.6632C111.633 90.6126 111.252 90.7121 110.947 90.9404L95.524 102.712C94.5001 103.533 93.838 104.723 93.6791 106.026C93.5203 107.329 93.8772 108.643 94.6738 109.687C95.4703 110.73 96.6433 111.421 97.9423 111.612C99.2413 111.803 100.563 111.478 101.626 110.707Z" fill="#E99B26"/>
    <path d="M101.626 110.707L117.049 98.9356C117.35 98.7022 117.546 98.3601 117.597 97.983C117.648 97.6059 117.548 97.2239 117.32 96.9195L112.963 91.2112C112.73 90.9107 112.388 90.7139 112.011 90.6632C111.633 90.6126 111.252 90.7121 110.947 90.9404L95.524 102.712C94.5001 103.533 93.838 104.723 93.6791 106.026C93.5203 107.329 93.8772 108.643 94.6738 109.687C95.4703 110.73 96.6433 111.421 97.9423 111.612C99.2413 111.803 100.563 111.478 101.626 110.707V110.707Z" stroke="#19194B" stroke-width="3.04215" stroke-linecap="round" stroke-linejoin="round"/>
    <defs>
        <filter id="filter0_d" x="116.412" y="11.4249" width="131.26" height="178.684" filterUnits="userSpaceOnUse" color-interpolation-filters="sRGB">
            <feFlood flood-opacity="0" result="BackgroundImageFix"/>
            <feColorMatrix in="SourceAlpha" type="matrix" values="0 0 0 0 0 0 0 0 0 0 0 0 0 0 0 0 0 0 127 0"/>
            <feOffset dy="2"/>
            <feGaussianBlur stdDeviation="4"/>
            <feColorMatrix type="matrix" values="0 0 0 0 0 0 0 0 0 0 0 0 0 0 0 0 0 0 0.24 0"/>
            <feBlend mode="normal" in2="BackgroundImageFix" result="effect1_dropShadow"/>
            <feBlend mode="normal" in="SourceGraphic" in2="effect1_dropShadow" result="shape"/>
        </filter>
        <filter id="filter1_d" x="197.22" y="102.183" width="76.5412" height="86.6636" filterUnits="userSpaceOnUse" color-interpolation-filters="sRGB">
            <feFlood flood-opacity="0" result="BackgroundImageFix"/>
            <feColorMatrix in="SourceAlpha" type="matrix" values="0 0 0 0 0 0 0 0 0 0 0 0 0 0 0 0 0 0 127 0"/>
            <feOffset dy="2"/>
            <feGaussianBlur stdDeviation="4"/>
            <feColorMatrix type="matrix" values="0 0 0 0 0 0 0 0 0 0 0 0 0 0 0 0 0 0 0.24 0"/>
            <feBlend mode="normal" in2="BackgroundImageFix" result="effect1_dropShadow"/>
            <feBlend mode="normal" in="SourceGraphic" in2="effect1_dropShadow" result="shape"/>
        </filter>
        <filter id="filter2_d" x="79.3049" y="35.8784" width="99.2842" height="99.2925" filterUnits="userSpaceOnUse" color-interpolation-filters="sRGB">
            <feFlood flood-opacity="0" result="BackgroundImageFix"/>
            <feColorMatrix in="SourceAlpha" type="matrix" values="0 0 0 0 0 0 0 0 0 0 0 0 0 0 0 0 0 0 127 0"/>
            <feOffset dy="2"/>
            <feGaussianBlur stdDeviation="4"/>
            <feColorMatrix type="matrix" values="0 0 0 0 0 0 0 0 0 0 0 0 0 0 0 0 0 0 0.24 0"/>
            <feBlend mode="normal" in2="BackgroundImageFix" result="effect1_dropShadow"/>
            <feBlend mode="normal" in="SourceGraphic" in2="effect1_dropShadow" result="shape"/>
        </filter>
    </defs>
</svg>
