<svg class="icon" viewBox="0 0 24 24" fill="none" xmlns="http://www.w3.org/2000/svg">
  <path fill-rule="evenodd" clip-rule="evenodd" d="M3.53859 3.47151C5.78821 1.23968 8.83119 -0.00873733 12 4.60349e-05C15.1689 -0.00846047 18.2119 1.24019 20.4615 3.47217C22.7114 5.70448 23.984 8.73812 24 11.9075L24 11.9144C23.9811 14.072 23.3813 16.1846 22.2638 18.0303C21.1462 19.876 19.5521 21.3866 17.649 22.4032C15.7459 23.4199 13.604 23.9052 11.4486 23.808C9.37306 23.7145 7.35873 23.0842 5.60162 21.9807L1.4065 23.3145C1.22679 23.3717 1.03021 23.3228 0.898131 23.1883C0.766049 23.0537 0.720931 22.8562 0.781449 22.6776L2.13503 18.6828C0.745113 16.6998 -0.00162844 14.3346 2.66644e-06 11.9087L8.95473e-06 11.9065C0.0160263 8.7372 1.28863 5.70366 3.53859 3.47151ZM7.7673 5.20298C8.31614 5.23175 8.98819 5.47162 9.254 6.10645C9.36033 6.35876 9.52306 6.75149 9.6879 7.14932C9.74051 7.27628 9.79332 7.40375 9.84459 7.52734C9.95095 7.78374 10.0507 8.02369 10.1289 8.20961C10.168 8.30266 10.2013 8.38123 10.2271 8.44115C10.24 8.47115 10.2507 8.49559 10.259 8.51438L10.2667 8.53147C10.3539 8.6833 10.4038 8.8538 10.4122 9.02897C10.4211 9.21343 10.3836 9.39715 10.3033 9.56337C10.0753 10.0493 9.75431 10.4859 9.35856 10.8485C9.34041 10.8665 9.32572 10.8811 9.31208 10.8953C9.30686 10.9008 9.30215 10.9058 9.2979 10.9104C9.77535 11.7213 10.3709 12.4565 11.065 13.0919C11.8184 13.7546 12.681 14.2817 13.6145 14.6499C13.6276 14.6551 13.6404 14.6608 13.653 14.667C13.707 14.6938 13.7443 14.7077 13.7683 14.7147C13.7729 14.7101 13.7783 14.7044 13.7844 14.6976C13.9838 14.4748 14.6032 13.7521 14.8036 13.4528C14.9706 13.2034 15.1996 13.0195 15.5102 12.985C15.7611 12.9571 15.9973 13.0421 16.1362 13.092L16.1431 13.0945C16.3268 13.1606 16.8466 13.4054 17.3247 13.6345C17.8194 13.8716 18.3173 14.1155 18.4859 14.1985C18.5325 14.2215 18.5824 14.2454 18.6327 14.2694C18.7355 14.3187 18.8398 14.3686 18.92 14.4125C19.0272 14.4711 19.1853 14.5655 19.2999 14.7237C19.3143 14.7416 19.3276 14.7606 19.3397 14.7808C19.5571 15.143 19.5591 15.5822 19.4769 15.9684C19.3923 16.3662 19.2044 16.7803 18.9454 17.1578C18.4331 17.9045 17.5732 18.602 16.4973 18.699C16.4264 18.7054 16.3878 18.715 16.3245 18.7307C16.2816 18.7413 16.2274 18.7547 16.1441 18.7719C15.9596 18.8099 15.7453 18.833 15.4401 18.8038C14.8622 18.7483 13.9539 18.5029 12.247 17.8357C10.445 17.1314 8.99458 15.872 7.98349 14.7824C7.47545 14.2349 7.07233 13.7237 6.78543 13.3353C6.64185 13.1409 6.52732 12.9771 6.44351 12.8552C6.41092 12.8078 6.38269 12.7662 6.35992 12.7327C6.35361 12.7235 6.34772 12.7148 6.34227 12.7068L6.31179 12.6623C6.30752 12.6562 6.30482 12.6523 6.30334 12.6503L6.30192 12.6483C5.48028 11.5662 4.92653 10.4071 4.84045 9.22563C4.75292 8.02426 5.15356 6.85622 6.13335 5.79318C6.54804 5.34412 7.20758 5.17364 7.7673 5.20298Z" fill="#00A0DF"/>
</svg>
