<svg class="icon"
     viewBox="0 0 40 40"
     fill="none"
     xmlns="http://www.w3.org/2000/svg"
>
    <circle cx="20" cy="20" r="18" fill="#253858"/>
    <circle cx="20" cy="20" r="14" fill="#DFE1E6"/>
    <path opacity="0.5" d="M20.0033 13.3021C19.0016 13.3017 18.0107 13.095 17.0925 12.6949C16.1743 12.2947 15.3483 11.7097 14.6662 10.9762C14.6238 10.9308 14.5924 10.8763 14.5743 10.8168C14.5562 10.7574 14.552 10.6946 14.5619 10.6333C14.5718 10.5719 14.5956 10.5137 14.6315 10.4629C14.6674 10.4122 14.7144 10.3704 14.7689 10.3406C16.3733 9.46106 18.1735 9 20.0033 9C21.833 9 23.6332 9.46106 25.2376 10.3406C25.2922 10.3704 25.3393 10.4124 25.3752 10.4633C25.4111 10.5141 25.4348 10.5725 25.4446 10.634C25.4551 10.6955 25.4511 10.7585 25.433 10.8182C25.4149 10.8779 25.3831 10.9325 25.3403 10.9779C24.658 11.711 23.832 12.2957 22.9138 12.6956C21.9956 13.0955 21.0048 13.3019 20.0033 13.3021ZM22.3083 22.1035C21.8523 22.5594 21.2714 22.87 20.639 22.9959C20.0065 23.1217 19.3509 23.0572 18.7551 22.8105C18.1594 22.5638 17.6501 22.146 17.2918 21.6099C16.9335 21.0739 16.7423 20.4436 16.7423 19.7988C16.7423 19.154 16.9335 18.5238 17.2918 17.9877C17.6501 17.4516 18.1594 17.0338 18.7551 16.7871C19.3509 16.5404 20.0065 16.4759 20.639 16.6017C21.2714 16.7276 21.8523 17.0382 22.3083 17.4942C22.919 18.1054 23.262 18.934 23.262 19.798C23.262 20.662 22.919 21.4906 22.3083 22.1018V22.1035ZM13.5072 19.7972C13.5075 20.8498 13.28 21.89 12.8405 22.8466C12.401 23.8031 11.7599 24.6532 10.961 25.3388C10.915 25.3787 10.8607 25.4078 10.802 25.4238C10.7433 25.4399 10.6818 25.4426 10.6219 25.4317C10.5621 25.4206 10.5056 25.3964 10.4563 25.3609C10.407 25.3254 10.3661 25.2795 10.3366 25.2263C9.43433 23.5763 8.97426 21.7209 9.00111 19.8406C9.02796 17.9602 9.54082 16.1188 10.4898 14.4952C10.5202 14.4424 10.562 14.3971 10.6123 14.3627C10.6625 14.3283 10.7198 14.3056 10.78 14.2963C10.8403 14.2874 10.9019 14.292 10.9603 14.3098C11.0186 14.3275 11.0723 14.358 11.1174 14.399C11.87 15.0826 12.4714 15.9159 12.883 16.8455C13.2945 17.7752 13.5071 18.7806 13.5072 19.7972ZM20.0033 26.2923C21.071 26.2914 22.1259 26.5245 23.0938 26.975C24.0618 27.4256 24.9193 28.0826 25.606 28.9001C25.6446 28.9455 25.6727 28.9989 25.6885 29.0564C25.7042 29.1139 25.7071 29.1741 25.697 29.2329C25.6869 29.2916 25.664 29.3475 25.63 29.3964C25.596 29.4453 25.5516 29.4862 25.5 29.5162C23.8312 30.488 21.9345 31 20.0033 31C18.072 31 16.1753 30.488 14.5065 29.5162C14.455 29.4862 14.4107 29.4453 14.3767 29.3964C14.3427 29.3475 14.3197 29.2918 14.3095 29.2331C14.2993 29.1745 14.3019 29.1143 14.3174 29.0567C14.3328 28.9992 14.3606 28.9457 14.3989 28.9001C15.0859 28.0826 15.9437 27.4255 16.9119 26.975C17.8802 26.5244 18.9353 26.2914 20.0033 26.2923ZM29.6699 25.228C29.6407 25.2813 29.5999 25.3274 29.5506 25.363C29.5012 25.3985 29.4445 25.4225 29.3846 25.4333C29.3248 25.4445 29.2632 25.4419 29.2044 25.4258C29.1457 25.4097 29.0914 25.3805 29.0456 25.3404C28.2599 24.6672 27.6263 23.8346 27.1869 22.8979C26.7475 21.9612 26.5123 20.9418 26.4969 19.9073C26.4814 18.8728 26.6862 17.8468 27.0975 16.8975C27.5088 15.9481 28.1173 15.097 28.8826 14.4006C28.9274 14.3592 28.9809 14.3285 29.0393 14.3106C29.0976 14.2928 29.1592 14.2883 29.2195 14.2975C29.2798 14.3068 29.3373 14.3295 29.3876 14.364C29.4379 14.3985 29.4798 14.4439 29.5102 14.4968C30.4592 16.1204 30.972 17.9619 30.9989 19.8422C31.0257 21.7226 30.5657 23.5779 29.6634 25.228H29.6699Z" fill="#344563"/>
</svg>
