<svg class="icon" viewBox="0 0 72 72" fill="none" xmlns="http://www.w3.org/2000/svg">
<g clip-path="url(#world-shadow-clip0_42075_286797)">
<rect width="72" height="72" fill="white"/>
<ellipse cx="35.5" cy="68" rx="27.5" ry="4" fill="#EBECF0"/>
<path d="M65.6934 36.0532C65.6934 52.6512 52.2381 66.1065 35.6401 66.1065C19.0422 66.1065 5.58691 52.6512 5.58691 36.0532C5.58691 19.4553 19.0422 6 35.6401 6C52.2381 6 65.6934 19.4553 65.6934 36.0532Z" fill="url(#world-shadow-paint0_linear_42075_286797)"/>
<path fill-rule="evenodd" clip-rule="evenodd" d="M68.1152 29.7779C69.257 27.937 69.4905 26.4476 69.1762 25.2748C68.862 24.102 67.9151 22.9289 66.0058 21.9055C64.0917 20.8796 61.3946 20.1143 58.0247 19.721C51.298 18.9361 42.3446 19.6856 32.8053 22.2417C23.266 24.7977 15.1374 28.6253 9.70441 32.6684C6.98259 34.6939 5.02949 36.7053 3.88484 38.5508C2.74299 40.3917 2.50954 41.8811 2.82379 43.0539C3.13804 44.2267 4.0849 45.3998 5.99424 46.4232C7.90827 47.4491 10.6054 48.2145 13.9753 48.6077C20.702 49.3927 29.6554 48.6431 39.1947 46.0871C48.734 43.531 56.8626 39.7035 62.2956 35.6603C65.0174 33.6348 66.9705 31.6234 68.1152 29.7779ZM39.7503 48.1606C59.2182 42.9442 73.3209 32.4491 71.2497 24.7192C69.1785 16.9893 51.7176 14.9517 32.2497 20.1681C12.7818 25.3846 -1.32094 35.8796 0.750274 43.6095C2.82149 51.3394 20.2824 53.377 39.7503 48.1606Z" fill="#DFE1E6"/>
<path d="M65.6912 35.6882C60.0698 40.5644 50.7696 45.208 39.7506 48.1605C27.6165 51.4119 16.2622 51.8451 8.92795 49.8384C8.48476 48.9814 8.0816 48.1003 7.72096 47.1976C9.4198 47.8366 11.5189 48.321 13.9756 48.6077C20.7023 49.3926 29.6557 48.6431 39.195 46.087C48.7342 43.531 56.8629 39.7034 62.2959 35.6603C63.5351 34.7381 64.6149 33.8189 65.5317 32.9169C65.6263 33.8291 65.6801 34.7536 65.6912 35.6882Z" fill="url(#world-shadow-paint1_linear_42075_286797)"/>
<path d="M5.7243 33.1609C11.2722 28.0963 20.8396 23.2255 32.25 20.1681C42.5474 17.4089 52.2833 16.6793 59.4772 17.7481C60.0928 18.5485 60.669 19.3808 61.2028 20.242C60.223 20.0288 59.1623 19.8537 58.0249 19.721C51.2983 18.936 42.3449 19.6856 32.8056 22.2416C23.2663 24.7977 15.1377 28.6252 9.70469 32.6684C8.04296 33.905 6.66777 35.1364 5.58814 36.3279C5.58732 36.2364 5.58691 36.1449 5.58691 36.0532C5.58691 35.0776 5.63341 34.1128 5.7243 33.1609Z" fill="url(#world-shadow-paint2_linear_42075_286797)"/>
<path d="M50.7892 10.0923C55.1918 12.667 56.2419 18.2552 54.5624 23.071C54.2168 23.9662 53.6458 24.7491 52.909 25.3382C52.1722 25.9274 51.2964 26.3012 50.3728 26.4207H42.983C42.7764 26.4475 42.5789 26.5253 42.4073 26.6475C42.2356 26.7697 42.0948 26.9327 41.9966 27.123C41.8984 27.3132 41.8456 27.5251 41.8429 27.7408C41.8401 27.9565 41.8873 28.1697 41.9805 28.3626L44.2849 34.512C44.3928 34.7362 44.5588 34.9249 44.7644 35.0568C44.97 35.1888 45.207 35.2588 45.4489 35.2591H47.6075C47.8291 35.2593 48.0471 35.3182 48.2406 35.43C48.4342 35.5419 48.5969 35.7032 48.7135 35.8984C48.8301 36.0937 48.8966 36.3166 48.9067 36.546C48.9168 36.7753 48.8702 37.0036 48.7714 37.209L41.5431 52.5608C41.1427 53.6541 40.4144 54.5857 39.4651 55.2186C38.5158 55.8516 37.3957 56.1526 36.269 56.0775C35.1424 56.0023 34.0688 55.555 33.2057 54.8012C32.3427 54.0473 31.7357 53.0267 31.474 51.8892L29.0579 41.3661C28.9487 40.8905 28.8246 40.3701 28.4136 40.1072C28.208 39.9758 27.9712 39.9061 27.7296 39.9061H26.5709C24.3265 39.9061 22.174 38.9826 20.587 37.3388C19 35.6949 18.1084 33.4654 18.1084 31.1406C18.1084 28.8159 19 26.5863 20.587 24.9425C22.174 23.2986 24.3265 22.3751 26.5709 22.3751H37.2467C37.592 22.3751 37.9232 22.2331 38.1673 21.9802C38.4115 21.7273 38.5487 21.3843 38.5487 21.0266V17.9358C38.5486 16.8613 38.2388 15.8113 37.6589 14.9204C37.079 14.0295 36.2555 13.3383 35.2938 12.9354L34.5543 12.6279C34.3258 12.5344 34.1275 12.3759 33.9823 12.1706C33.8371 11.9653 33.7509 11.7217 33.7337 11.4678C33.7166 11.2139 33.7691 10.9602 33.8853 10.7359C34.0015 10.5117 34.1766 10.3261 34.3903 10.2005L40.9183 6.72152C41.1452 6.60062 41.4056 6.55155 41.6575 6.60275C44.9253 7.26694 48.0004 8.46136 50.7892 10.0923Z" fill="url(#world-shadow-paint3_linear_42075_286797)"/>
<path d="M65.6909 35.6882C60.0695 40.5644 50.7693 45.208 39.7503 48.1606C27.6163 51.4119 16.2619 51.8451 8.92769 49.8384C8.4845 48.9814 8.08135 48.1003 7.7207 47.1976C9.41955 47.8366 11.5187 48.321 13.9754 48.6077C20.702 49.3927 29.6554 48.6431 39.1947 46.087C48.734 43.531 56.8626 39.7034 62.2956 35.6603C63.5348 34.7381 64.6147 33.8189 65.5314 32.9169C65.626 33.8292 65.6798 34.7536 65.6909 35.6882Z" fill="#DFE1E6"/>
</g>
<defs>
<linearGradient id="world-shadow-paint0_linear_42075_286797" x1="25.1215" y1="6" x2="36.0908" y2="70.2811" gradientUnits="userSpaceOnUse">
<stop stop-color="#33B3E5"/>
<stop offset="1" stop-color="#007CBF"/>
</linearGradient>
<linearGradient id="world-shadow-paint1_linear_42075_286797" x1="25.1215" y1="6.00001" x2="36.0908" y2="70.2811" gradientUnits="userSpaceOnUse">
<stop stop-color="#33B3E5"/>
<stop offset="1" stop-color="#007CBF"/>
</linearGradient>
<linearGradient id="world-shadow-paint2_linear_42075_286797" x1="25.1215" y1="6.00001" x2="36.0908" y2="70.2811" gradientUnits="userSpaceOnUse">
<stop stop-color="#33B3E5"/>
<stop offset="1" stop-color="#007CBF"/>
</linearGradient>
<linearGradient id="world-shadow-paint3_linear_42075_286797" x1="36.7143" y1="6.58264" x2="39.2812" y2="80.3454" gradientUnits="userSpaceOnUse">
<stop stop-color="#66DE7D"/>
<stop offset="1" stop-color="#38AD5A"/>
</linearGradient>
<clipPath id="world-shadow-clip0_42075_286797">
<rect width="72" height="72" fill="white"/>
</clipPath>
</defs>
</svg>
